<?xml version="1.0" encoding="utf-8" standalone="no"?>
<!DOCTYPE svg PUBLIC "-//W3C//DTD SVG 1.1//EN"
  "http://www.w3.org/Graphics/SVG/1.1/DTD/svg11.dtd">
<svg xmlns:xlink="http://www.w3.org/1999/xlink" width="460.8pt" height="345.6pt" viewBox="0 0 460.8 345.6" xmlns="http://www.w3.org/2000/svg" version="1.1">
 <metadata>
  <rdf:RDF xmlns:dc="http://purl.org/dc/elements/1.1/" xmlns:cc="http://creativecommons.org/ns#" xmlns:rdf="http://www.w3.org/1999/02/22-rdf-syntax-ns#">
   <cc:Work>
    <dc:type rdf:resource="http://purl.org/dc/dcmitype/StillImage"/>
    <dc:date>2023-05-18T17:41:28.983613</dc:date>
    <dc:format>image/svg+xml</dc:format>
    <dc:creator>
     <cc:Agent>
      <dc:title>Matplotlib v3.7.1, https://matplotlib.org/</dc:title>
     </cc:Agent>
    </dc:creator>
   </cc:Work>
  </rdf:RDF>
 </metadata>
 <defs>
  <style type="text/css">*{stroke-linejoin: round; stroke-linecap: butt}</style>
 </defs>
 <g id="figure_1">
  <g id="patch_1">
   <path d="M 0 345.6 
L 460.8 345.6 
L 460.8 0 
L 0 0 
z
" style="fill: #ffffff"/>
  </g>
  <g id="axes_1">
   <g id="patch_2">
    <path d="M 57.6 307.584 
L 414.72 307.584 
L 414.72 41.472 
L 57.6 41.472 
z
" style="fill: #ffffff"/>
   </g>
   <g id="PathCollection_1">
    <defs>
     <path id="md00ddf53ad" d="M 0 3 
C 0.795609 3 1.55874 2.683901 2.12132 2.12132 
C 2.683901 1.55874 3 0.795609 3 0 
C 3 -0.795609 2.683901 -1.55874 2.12132 -2.12132 
C 1.55874 -2.683901 0.795609 -3 0 -3 
C -0.795609 -3 -1.55874 -2.683901 -2.12132 -2.12132 
C -2.683901 -1.55874 -3 -0.795609 -3 0 
C -3 0.795609 -2.683901 1.55874 -2.12132 2.12132 
C -1.55874 2.683901 -0.795609 3 0 3 
z
" style="stroke: #1f77b4"/>
    </defs>
    <g clip-path="url(#pe68634777a)">
     <use xlink:href="#md00ddf53ad" x="263.681379" y="194.646035" style="fill: #1f77b4; stroke: #1f77b4"/>
     <use xlink:href="#md00ddf53ad" x="191.493333" y="211.654426" style="fill: #1f77b4; stroke: #1f77b4"/>
     <use xlink:href="#md00ddf53ad" x="398.487273" y="69.8848" style="fill: #1f77b4; stroke: #1f77b4"/>
     <use xlink:href="#md00ddf53ad" x="256.673736" y="181.913401" style="fill: #1f77b4; stroke: #1f77b4"/>
     <use xlink:href="#md00ddf53ad" x="277.598103" y="175.974464" style="fill: #1f77b4; stroke: #1f77b4"/>
     <use xlink:href="#md00ddf53ad" x="187.985484" y="219.490749" style="fill: #1f77b4; stroke: #1f77b4"/>
     <use xlink:href="#md00ddf53ad" x="226.107476" y="172.745306" style="fill: #1f77b4; stroke: #1f77b4"/>
     <use xlink:href="#md00ddf53ad" x="250.132286" y="203.008605" style="fill: #1f77b4; stroke: #1f77b4"/>
     <use xlink:href="#md00ddf53ad" x="258.115087" y="197.895678" style="fill: #1f77b4; stroke: #1f77b4"/>
     <use xlink:href="#md00ddf53ad" x="207.587521" y="222.718443" style="fill: #1f77b4; stroke: #1f77b4"/>
     <use xlink:href="#md00ddf53ad" x="283.115478" y="165.919755" style="fill: #1f77b4; stroke: #1f77b4"/>
     <use xlink:href="#md00ddf53ad" x="190.439265" y="242.32254" style="fill: #1f77b4; stroke: #1f77b4"/>
     <use xlink:href="#md00ddf53ad" x="289.231782" y="151.038862" style="fill: #1f77b4; stroke: #1f77b4"/>
     <use xlink:href="#md00ddf53ad" x="217.513371" y="201.768336" style="fill: #1f77b4; stroke: #1f77b4"/>
     <use xlink:href="#md00ddf53ad" x="222.787143" y="194.840592" style="fill: #1f77b4; stroke: #1f77b4"/>
     <use xlink:href="#md00ddf53ad" x="143.984334" y="294.57823" style="fill: #1f77b4; stroke: #1f77b4"/>
     <use xlink:href="#md00ddf53ad" x="304.91868" y="148.188678" style="fill: #1f77b4; stroke: #1f77b4"/>
     <use xlink:href="#md00ddf53ad" x="194.710785" y="203.40838" style="fill: #1f77b4; stroke: #1f77b4"/>
     <use xlink:href="#md00ddf53ad" x="282.832625" y="170.505662" style="fill: #1f77b4; stroke: #1f77b4"/>
     <use xlink:href="#md00ddf53ad" x="288.137678" y="124.971729" style="fill: #1f77b4; stroke: #1f77b4"/>
     <use xlink:href="#md00ddf53ad" x="201.289221" y="212.828138" style="fill: #1f77b4; stroke: #1f77b4"/>
     <use xlink:href="#md00ddf53ad" x="288.955769" y="135.495761" style="fill: #1f77b4; stroke: #1f77b4"/>
     <use xlink:href="#md00ddf53ad" x="244.676389" y="179.171199" style="fill: #1f77b4; stroke: #1f77b4"/>
     <use xlink:href="#md00ddf53ad" x="201.528171" y="221.242797" style="fill: #1f77b4; stroke: #1f77b4"/>
     <use xlink:href="#md00ddf53ad" x="216.189197" y="211.124821" style="fill: #1f77b4; stroke: #1f77b4"/>
     <use xlink:href="#md00ddf53ad" x="225.100675" y="187.152317" style="fill: #1f77b4; stroke: #1f77b4"/>
     <use xlink:href="#md00ddf53ad" x="347.124656" y="93.533784" style="fill: #1f77b4; stroke: #1f77b4"/>
     <use xlink:href="#md00ddf53ad" x="298.400973" y="149.830546" style="fill: #1f77b4; stroke: #1f77b4"/>
     <use xlink:href="#md00ddf53ad" x="236.875869" y="152.261201" style="fill: #1f77b4; stroke: #1f77b4"/>
     <use xlink:href="#md00ddf53ad" x="282.992579" y="121.406596" style="fill: #1f77b4; stroke: #1f77b4"/>
     <use xlink:href="#md00ddf53ad" x="360.353236" y="81.006305" style="fill: #1f77b4; stroke: #1f77b4"/>
     <use xlink:href="#md00ddf53ad" x="233.369872" y="180.283642" style="fill: #1f77b4; stroke: #1f77b4"/>
     <use xlink:href="#md00ddf53ad" x="197.206557" y="210.050395" style="fill: #1f77b4; stroke: #1f77b4"/>
     <use xlink:href="#md00ddf53ad" x="287.296158" y="155.91504" style="fill: #1f77b4; stroke: #1f77b4"/>
     <use xlink:href="#md00ddf53ad" x="212.093786" y="222.136945" style="fill: #1f77b4; stroke: #1f77b4"/>
     <use xlink:href="#md00ddf53ad" x="355.992979" y="106.878759" style="fill: #1f77b4; stroke: #1f77b4"/>
     <use xlink:href="#md00ddf53ad" x="297.176103" y="120.283421" style="fill: #1f77b4; stroke: #1f77b4"/>
     <use xlink:href="#md00ddf53ad" x="232.066499" y="178.736781" style="fill: #1f77b4; stroke: #1f77b4"/>
     <use xlink:href="#md00ddf53ad" x="277.110038" y="149.074841" style="fill: #1f77b4; stroke: #1f77b4"/>
     <use xlink:href="#md00ddf53ad" x="228.131222" y="209.644948" style="fill: #1f77b4; stroke: #1f77b4"/>
     <use xlink:href="#md00ddf53ad" x="246.083145" y="201.627743" style="fill: #1f77b4; stroke: #1f77b4"/>
     <use xlink:href="#md00ddf53ad" x="286.209287" y="154.79644" style="fill: #1f77b4; stroke: #1f77b4"/>
     <use xlink:href="#md00ddf53ad" x="313.175184" y="104.910032" style="fill: #1f77b4; stroke: #1f77b4"/>
     <use xlink:href="#md00ddf53ad" x="282.962361" y="147.303038" style="fill: #1f77b4; stroke: #1f77b4"/>
     <use xlink:href="#md00ddf53ad" x="218.53824" y="198.571383" style="fill: #1f77b4; stroke: #1f77b4"/>
     <use xlink:href="#md00ddf53ad" x="220.882438" y="211.02853" style="fill: #1f77b4; stroke: #1f77b4"/>
     <use xlink:href="#md00ddf53ad" x="282.511455" y="150.239671" style="fill: #1f77b4; stroke: #1f77b4"/>
     <use xlink:href="#md00ddf53ad" x="386.874989" y="85.165475" style="fill: #1f77b4; stroke: #1f77b4"/>
     <use xlink:href="#md00ddf53ad" x="355.460651" y="103.717711" style="fill: #1f77b4; stroke: #1f77b4"/>
     <use xlink:href="#md00ddf53ad" x="255.08504" y="199.414158" style="fill: #1f77b4; stroke: #1f77b4"/>
     <use xlink:href="#md00ddf53ad" x="247.371767" y="147.291572" style="fill: #1f77b4; stroke: #1f77b4"/>
     <use xlink:href="#md00ddf53ad" x="259.389028" y="150.739098" style="fill: #1f77b4; stroke: #1f77b4"/>
     <use xlink:href="#md00ddf53ad" x="314.576843" y="122.278086" style="fill: #1f77b4; stroke: #1f77b4"/>
     <use xlink:href="#md00ddf53ad" x="318.667245" y="121.892722" style="fill: #1f77b4; stroke: #1f77b4"/>
     <use xlink:href="#md00ddf53ad" x="249.376835" y="227.239423" style="fill: #1f77b4; stroke: #1f77b4"/>
     <use xlink:href="#md00ddf53ad" x="226.11046" y="196.81554" style="fill: #1f77b4; stroke: #1f77b4"/>
     <use xlink:href="#md00ddf53ad" x="324.521212" y="146.126791" style="fill: #1f77b4; stroke: #1f77b4"/>
     <use xlink:href="#md00ddf53ad" x="264.886416" y="179.651663" style="fill: #1f77b4; stroke: #1f77b4"/>
     <use xlink:href="#md00ddf53ad" x="242.711732" y="186.419968" style="fill: #1f77b4; stroke: #1f77b4"/>
     <use xlink:href="#md00ddf53ad" x="170.820022" y="263.808329" style="fill: #1f77b4; stroke: #1f77b4"/>
     <use xlink:href="#md00ddf53ad" x="310.615744" y="115.740847" style="fill: #1f77b4; stroke: #1f77b4"/>
     <use xlink:href="#md00ddf53ad" x="211.851151" y="180.412505" style="fill: #1f77b4; stroke: #1f77b4"/>
     <use xlink:href="#md00ddf53ad" x="200.451313" y="218.689196" style="fill: #1f77b4; stroke: #1f77b4"/>
     <use xlink:href="#md00ddf53ad" x="201.137269" y="259.848544" style="fill: #1f77b4; stroke: #1f77b4"/>
     <use xlink:href="#md00ddf53ad" x="314.852752" y="141.524755" style="fill: #1f77b4; stroke: #1f77b4"/>
     <use xlink:href="#md00ddf53ad" x="311.232245" y="157.247634" style="fill: #1f77b4; stroke: #1f77b4"/>
     <use xlink:href="#md00ddf53ad" x="225.528536" y="209.832824" style="fill: #1f77b4; stroke: #1f77b4"/>
     <use xlink:href="#md00ddf53ad" x="364.338031" y="95.530649" style="fill: #1f77b4; stroke: #1f77b4"/>
     <use xlink:href="#md00ddf53ad" x="218.824955" y="187.69299" style="fill: #1f77b4; stroke: #1f77b4"/>
     <use xlink:href="#md00ddf53ad" x="73.832727" y="273.336954" style="fill: #1f77b4; stroke: #1f77b4"/>
     <use xlink:href="#md00ddf53ad" x="256.235803" y="200.563501" style="fill: #1f77b4; stroke: #1f77b4"/>
     <use xlink:href="#md00ddf53ad" x="371.732058" y="53.568" style="fill: #1f77b4; stroke: #1f77b4"/>
     <use xlink:href="#md00ddf53ad" x="312.653983" y="129.840051" style="fill: #1f77b4; stroke: #1f77b4"/>
     <use xlink:href="#md00ddf53ad" x="294.718304" y="139.952674" style="fill: #1f77b4; stroke: #1f77b4"/>
     <use xlink:href="#md00ddf53ad" x="192.007273" y="232.356432" style="fill: #1f77b4; stroke: #1f77b4"/>
     <use xlink:href="#md00ddf53ad" x="289.997525" y="168.788331" style="fill: #1f77b4; stroke: #1f77b4"/>
     <use xlink:href="#md00ddf53ad" x="363.462573" y="82.063017" style="fill: #1f77b4; stroke: #1f77b4"/>
     <use xlink:href="#md00ddf53ad" x="217.807748" y="163.524195" style="fill: #1f77b4; stroke: #1f77b4"/>
     <use xlink:href="#md00ddf53ad" x="225.857218" y="176.900814" style="fill: #1f77b4; stroke: #1f77b4"/>
     <use xlink:href="#md00ddf53ad" x="312.946342" y="150.381807" style="fill: #1f77b4; stroke: #1f77b4"/>
     <use xlink:href="#md00ddf53ad" x="328.648506" y="122.581531" style="fill: #1f77b4; stroke: #1f77b4"/>
     <use xlink:href="#md00ddf53ad" x="154.535963" y="295.488" style="fill: #1f77b4; stroke: #1f77b4"/>
     <use xlink:href="#md00ddf53ad" x="230.011055" y="223.870616" style="fill: #1f77b4; stroke: #1f77b4"/>
     <use xlink:href="#md00ddf53ad" x="194.288305" y="223.957455" style="fill: #1f77b4; stroke: #1f77b4"/>
     <use xlink:href="#md00ddf53ad" x="266.387571" y="164.956584" style="fill: #1f77b4; stroke: #1f77b4"/>
     <use xlink:href="#md00ddf53ad" x="283.292565" y="135.245908" style="fill: #1f77b4; stroke: #1f77b4"/>
     <use xlink:href="#md00ddf53ad" x="311.380152" y="153.014195" style="fill: #1f77b4; stroke: #1f77b4"/>
     <use xlink:href="#md00ddf53ad" x="325.280811" y="101.577556" style="fill: #1f77b4; stroke: #1f77b4"/>
     <use xlink:href="#md00ddf53ad" x="162.682294" y="260.960311" style="fill: #1f77b4; stroke: #1f77b4"/>
     <use xlink:href="#md00ddf53ad" x="256.50803" y="165.781383" style="fill: #1f77b4; stroke: #1f77b4"/>
     <use xlink:href="#md00ddf53ad" x="176.850112" y="245.495072" style="fill: #1f77b4; stroke: #1f77b4"/>
     <use xlink:href="#md00ddf53ad" x="253.796479" y="146.229017" style="fill: #1f77b4; stroke: #1f77b4"/>
     <use xlink:href="#md00ddf53ad" x="195.778559" y="191.354964" style="fill: #1f77b4; stroke: #1f77b4"/>
     <use xlink:href="#md00ddf53ad" x="274.964752" y="188.602284" style="fill: #1f77b4; stroke: #1f77b4"/>
     <use xlink:href="#md00ddf53ad" x="295.511291" y="90.686817" style="fill: #1f77b4; stroke: #1f77b4"/>
     <use xlink:href="#md00ddf53ad" x="162.457396" y="270.368647" style="fill: #1f77b4; stroke: #1f77b4"/>
     <use xlink:href="#md00ddf53ad" x="243.827244" y="146.368426" style="fill: #1f77b4; stroke: #1f77b4"/>
     <use xlink:href="#md00ddf53ad" x="340.743769" y="115.338131" style="fill: #1f77b4; stroke: #1f77b4"/>
     <use xlink:href="#md00ddf53ad" x="229.133496" y="210.971995" style="fill: #1f77b4; stroke: #1f77b4"/>
     <use xlink:href="#md00ddf53ad" x="260.646064" y="173.892666" style="fill: #1f77b4; stroke: #1f77b4"/>
    </g>
   </g>
   <g id="matplotlib.axis_1">
    <g id="xtick_1">
     <g id="line2d_1">
      <defs>
       <path id="m157f79bdcc" d="M 0 0 
L 0 3.5 
" style="stroke: #000000; stroke-width: 0.8"/>
      </defs>
      <g>
       <use xlink:href="#m157f79bdcc" x="71.353429" y="307.584" style="stroke: #000000; stroke-width: 0.8"/>
      </g>
     </g>
     <g id="text_1">
      <!-- −3 -->
      <g transform="translate(63.982335 322.182437) scale(0.1 -0.1)">
       <defs>
        <path id="DejaVuSans-2212" d="M 678 2272 
L 4684 2272 
L 4684 1741 
L 678 1741 
L 678 2272 
z
" transform="scale(0.015625)"/>
        <path id="DejaVuSans-33" d="M 2597 2516 
Q 3050 2419 3304 2112 
Q 3559 1806 3559 1356 
Q 3559 666 3084 287 
Q 2609 -91 1734 -91 
Q 1441 -91 1130 -33 
Q 819 25 488 141 
L 488 750 
Q 750 597 1062 519 
Q 1375 441 1716 441 
Q 2309 441 2620 675 
Q 2931 909 2931 1356 
Q 2931 1769 2642 2001 
Q 2353 2234 1838 2234 
L 1294 2234 
L 1294 2753 
L 1863 2753 
Q 2328 2753 2575 2939 
Q 2822 3125 2822 3475 
Q 2822 3834 2567 4026 
Q 2313 4219 1838 4219 
Q 1578 4219 1281 4162 
Q 984 4106 628 3988 
L 628 4550 
Q 988 4650 1302 4700 
Q 1616 4750 1894 4750 
Q 2613 4750 3031 4423 
Q 3450 4097 3450 3541 
Q 3450 3153 3228 2886 
Q 3006 2619 2597 2516 
z
" transform="scale(0.015625)"/>
       </defs>
       <use xlink:href="#DejaVuSans-2212"/>
       <use xlink:href="#DejaVuSans-33" x="83.789062"/>
      </g>
     </g>
    </g>
    <g id="xtick_2">
     <g id="line2d_2">
      <g>
       <use xlink:href="#m157f79bdcc" x="133.066968" y="307.584" style="stroke: #000000; stroke-width: 0.8"/>
      </g>
     </g>
     <g id="text_2">
      <!-- −2 -->
      <g transform="translate(125.695874 322.182437) scale(0.1 -0.1)">
       <defs>
        <path id="DejaVuSans-32" d="M 1228 531 
L 3431 531 
L 3431 0 
L 469 0 
L 469 531 
Q 828 903 1448 1529 
Q 2069 2156 2228 2338 
Q 2531 2678 2651 2914 
Q 2772 3150 2772 3378 
Q 2772 3750 2511 3984 
Q 2250 4219 1831 4219 
Q 1534 4219 1204 4116 
Q 875 4013 500 3803 
L 500 4441 
Q 881 4594 1212 4672 
Q 1544 4750 1819 4750 
Q 2544 4750 2975 4387 
Q 3406 4025 3406 3419 
Q 3406 3131 3298 2873 
Q 3191 2616 2906 2266 
Q 2828 2175 2409 1742 
Q 1991 1309 1228 531 
z
" transform="scale(0.015625)"/>
       </defs>
       <use xlink:href="#DejaVuSans-2212"/>
       <use xlink:href="#DejaVuSans-32" x="83.789062"/>
      </g>
     </g>
    </g>
    <g id="xtick_3">
     <g id="line2d_3">
      <g>
       <use xlink:href="#m157f79bdcc" x="194.780507" y="307.584" style="stroke: #000000; stroke-width: 0.8"/>
      </g>
     </g>
     <g id="text_3">
      <!-- −1 -->
      <g transform="translate(187.409413 322.182437) scale(0.1 -0.1)">
       <defs>
        <path id="DejaVuSans-31" d="M 794 531 
L 1825 531 
L 1825 4091 
L 703 3866 
L 703 4441 
L 1819 4666 
L 2450 4666 
L 2450 531 
L 3481 531 
L 3481 0 
L 794 0 
L 794 531 
z
" transform="scale(0.015625)"/>
       </defs>
       <use xlink:href="#DejaVuSans-2212"/>
       <use xlink:href="#DejaVuSans-31" x="83.789062"/>
      </g>
     </g>
    </g>
    <g id="xtick_4">
     <g id="line2d_4">
      <g>
       <use xlink:href="#m157f79bdcc" x="256.494046" y="307.584" style="stroke: #000000; stroke-width: 0.8"/>
      </g>
     </g>
     <g id="text_4">
      <!-- 0 -->
      <g transform="translate(253.312796 322.182437) scale(0.1 -0.1)">
       <defs>
        <path id="DejaVuSans-30" d="M 2034 4250 
Q 1547 4250 1301 3770 
Q 1056 3291 1056 2328 
Q 1056 1369 1301 889 
Q 1547 409 2034 409 
Q 2525 409 2770 889 
Q 3016 1369 3016 2328 
Q 3016 3291 2770 3770 
Q 2525 4250 2034 4250 
z
M 2034 4750 
Q 2819 4750 3233 4129 
Q 3647 3509 3647 2328 
Q 3647 1150 3233 529 
Q 2819 -91 2034 -91 
Q 1250 -91 836 529 
Q 422 1150 422 2328 
Q 422 3509 836 4129 
Q 1250 4750 2034 4750 
z
" transform="scale(0.015625)"/>
       </defs>
       <use xlink:href="#DejaVuSans-30"/>
      </g>
     </g>
    </g>
    <g id="xtick_5">
     <g id="line2d_5">
      <g>
       <use xlink:href="#m157f79bdcc" x="318.207585" y="307.584" style="stroke: #000000; stroke-width: 0.8"/>
      </g>
     </g>
     <g id="text_5">
      <!-- 1 -->
      <g transform="translate(315.026335 322.182437) scale(0.1 -0.1)">
       <use xlink:href="#DejaVuSans-31"/>
      </g>
     </g>
    </g>
    <g id="xtick_6">
     <g id="line2d_6">
      <g>
       <use xlink:href="#m157f79bdcc" x="379.921125" y="307.584" style="stroke: #000000; stroke-width: 0.8"/>
      </g>
     </g>
     <g id="text_6">
      <!-- 2 -->
      <g transform="translate(376.739875 322.182437) scale(0.1 -0.1)">
       <use xlink:href="#DejaVuSans-32"/>
      </g>
     </g>
    </g>
   </g>
   <g id="matplotlib.axis_2">
    <g id="ytick_1">
     <g id="line2d_7">
      <defs>
       <path id="ma5d16260e8" d="M 0 0 
L -3.5 0 
" style="stroke: #000000; stroke-width: 0.8"/>
      </defs>
      <g>
       <use xlink:href="#ma5d16260e8" x="57.6" y="273.54425" style="stroke: #000000; stroke-width: 0.8"/>
      </g>
     </g>
     <g id="text_7">
      <!-- −4 -->
      <g transform="translate(35.857813 277.343468) scale(0.1 -0.1)">
       <defs>
        <path id="DejaVuSans-34" d="M 2419 4116 
L 825 1625 
L 2419 1625 
L 2419 4116 
z
M 2253 4666 
L 3047 4666 
L 3047 1625 
L 3713 1625 
L 3713 1100 
L 3047 1100 
L 3047 0 
L 2419 0 
L 2419 1100 
L 313 1100 
L 313 1709 
L 2253 4666 
z
" transform="scale(0.015625)"/>
       </defs>
       <use xlink:href="#DejaVuSans-2212"/>
       <use xlink:href="#DejaVuSans-34" x="83.789062"/>
      </g>
     </g>
    </g>
    <g id="ytick_2">
     <g id="line2d_8">
      <g>
       <use xlink:href="#ma5d16260e8" x="57.6" y="223.537386" style="stroke: #000000; stroke-width: 0.8"/>
      </g>
     </g>
     <g id="text_8">
      <!-- −2 -->
      <g transform="translate(35.857813 227.336605) scale(0.1 -0.1)">
       <use xlink:href="#DejaVuSans-2212"/>
       <use xlink:href="#DejaVuSans-32" x="83.789062"/>
      </g>
     </g>
    </g>
    <g id="ytick_3">
     <g id="line2d_9">
      <g>
       <use xlink:href="#ma5d16260e8" x="57.6" y="173.530522" style="stroke: #000000; stroke-width: 0.8"/>
      </g>
     </g>
     <g id="text_9">
      <!-- 0 -->
      <g transform="translate(44.2375 177.329741) scale(0.1 -0.1)">
       <use xlink:href="#DejaVuSans-30"/>
      </g>
     </g>
    </g>
    <g id="ytick_4">
     <g id="line2d_10">
      <g>
       <use xlink:href="#ma5d16260e8" x="57.6" y="123.523659" style="stroke: #000000; stroke-width: 0.8"/>
      </g>
     </g>
     <g id="text_10">
      <!-- 2 -->
      <g transform="translate(44.2375 127.322878) scale(0.1 -0.1)">
       <use xlink:href="#DejaVuSans-32"/>
      </g>
     </g>
    </g>
    <g id="ytick_5">
     <g id="line2d_11">
      <g>
       <use xlink:href="#ma5d16260e8" x="57.6" y="73.516795" style="stroke: #000000; stroke-width: 0.8"/>
      </g>
     </g>
     <g id="text_11">
      <!-- 4 -->
      <g transform="translate(44.2375 77.316014) scale(0.1 -0.1)">
       <use xlink:href="#DejaVuSans-34"/>
      </g>
     </g>
    </g>
   </g>
   <g id="patch_3">
    <path d="M 57.6 307.584 
L 57.6 41.472 
" style="fill: none; stroke: #000000; stroke-width: 0.8; stroke-linejoin: miter; stroke-linecap: square"/>
   </g>
   <g id="patch_4">
    <path d="M 414.72 307.584 
L 414.72 41.472 
" style="fill: none; stroke: #000000; stroke-width: 0.8; stroke-linejoin: miter; stroke-linecap: square"/>
   </g>
   <g id="patch_5">
    <path d="M 57.6 307.584 
L 414.72 307.584 
" style="fill: none; stroke: #000000; stroke-width: 0.8; stroke-linejoin: miter; stroke-linecap: square"/>
   </g>
   <g id="patch_6">
    <path d="M 57.6 41.472 
L 414.72 41.472 
" style="fill: none; stroke: #000000; stroke-width: 0.8; stroke-linejoin: miter; stroke-linecap: square"/>
   </g>
  </g>
 </g>
 <defs>
  <clipPath id="pe68634777a">
   <rect x="57.6" y="41.472" width="357.12" height="266.112"/>
  </clipPath>
 </defs>
</svg>
