<?xml version="1.0" encoding="utf-8" standalone="no"?>
<!DOCTYPE svg PUBLIC "-//W3C//DTD SVG 1.1//EN"
  "http://www.w3.org/Graphics/SVG/1.1/DTD/svg11.dtd">
<svg xmlns:xlink="http://www.w3.org/1999/xlink" width="460.8pt" height="345.6pt" viewBox="0 0 460.8 345.6" xmlns="http://www.w3.org/2000/svg" version="1.1">
 <metadata>
  <rdf:RDF xmlns:dc="http://purl.org/dc/elements/1.1/" xmlns:cc="http://creativecommons.org/ns#" xmlns:rdf="http://www.w3.org/1999/02/22-rdf-syntax-ns#">
   <cc:Work>
    <dc:type rdf:resource="http://purl.org/dc/dcmitype/StillImage"/>
    <dc:date>2023-08-30T07:27:12.905770</dc:date>
    <dc:format>image/svg+xml</dc:format>
    <dc:creator>
     <cc:Agent>
      <dc:title>Matplotlib v3.7.1, https://matplotlib.org/</dc:title>
     </cc:Agent>
    </dc:creator>
   </cc:Work>
  </rdf:RDF>
 </metadata>
 <defs>
  <style type="text/css">*{stroke-linejoin: round; stroke-linecap: butt}</style>
 </defs>
 <g id="figure_1">
  <g id="patch_1">
   <path d="M 0 345.6 
L 460.8 345.6 
L 460.8 0 
L 0 0 
z
" style="fill: #ffffff"/>
  </g>
  <g id="axes_1">
   <g id="patch_2">
    <path d="M 103.104 307.584 
L 369.216 307.584 
L 369.216 41.472 
L 103.104 41.472 
z
" style="fill: #ffffff"/>
   </g>
   <g id="QuadMesh_1">
    <path d="M 103.104 41.472 
L 129.7152 41.472 
L 129.7152 68.0832 
L 103.104 68.0832 
L 103.104 41.472 
" clip-path="url(#p91e5b6a573)" style="fill: #2777b8"/>
    <path d="M 129.7152 41.472 
L 156.3264 41.472 
L 156.3264 68.0832 
L 129.7152 68.0832 
L 129.7152 41.472 
" clip-path="url(#p91e5b6a573)" style="fill: #f7fbff"/>
    <path d="M 156.3264 41.472 
L 182.9376 41.472 
L 182.9376 68.0832 
L 156.3264 68.0832 
L 156.3264 41.472 
" clip-path="url(#p91e5b6a573)" style="fill: #f7fbff"/>
    <path d="M 182.9376 41.472 
L 209.5488 41.472 
L 209.5488 68.0832 
L 182.9376 68.0832 
L 182.9376 41.472 
" clip-path="url(#p91e5b6a573)" style="fill: #f7fbff"/>
    <path d="M 209.5488 41.472 
L 236.16 41.472 
L 236.16 68.0832 
L 209.5488 68.0832 
L 209.5488 41.472 
" clip-path="url(#p91e5b6a573)" style="fill: #f7fbff"/>
    <path d="M 236.16 41.472 
L 262.7712 41.472 
L 262.7712 68.0832 
L 236.16 68.0832 
L 236.16 41.472 
" clip-path="url(#p91e5b6a573)" style="fill: #f7fbff"/>
    <path d="M 262.7712 41.472 
L 289.3824 41.472 
L 289.3824 68.0832 
L 262.7712 68.0832 
L 262.7712 41.472 
" clip-path="url(#p91e5b6a573)" style="fill: #f7fbff"/>
    <path d="M 289.3824 41.472 
L 315.9936 41.472 
L 315.9936 68.0832 
L 289.3824 68.0832 
L 289.3824 41.472 
" clip-path="url(#p91e5b6a573)" style="fill: #f7fbff"/>
    <path d="M 315.9936 41.472 
L 342.6048 41.472 
L 342.6048 68.0832 
L 315.9936 68.0832 
L 315.9936 41.472 
" clip-path="url(#p91e5b6a573)" style="fill: #f7fbff"/>
    <path d="M 342.6048 41.472 
L 369.216 41.472 
L 369.216 68.0832 
L 342.6048 68.0832 
L 342.6048 41.472 
" clip-path="url(#p91e5b6a573)" style="fill: #f7fbff"/>
    <path d="M 103.104 68.0832 
L 129.7152 68.0832 
L 129.7152 94.6944 
L 103.104 94.6944 
L 103.104 68.0832 
" clip-path="url(#p91e5b6a573)" style="fill: #f7fbff"/>
    <path d="M 129.7152 68.0832 
L 156.3264 68.0832 
L 156.3264 94.6944 
L 129.7152 94.6944 
L 129.7152 68.0832 
" clip-path="url(#p91e5b6a573)" style="fill: #1e6db2"/>
    <path d="M 156.3264 68.0832 
L 182.9376 68.0832 
L 182.9376 94.6944 
L 156.3264 94.6944 
L 156.3264 68.0832 
" clip-path="url(#p91e5b6a573)" style="fill: #f7fbff"/>
    <path d="M 182.9376 68.0832 
L 209.5488 68.0832 
L 209.5488 94.6944 
L 182.9376 94.6944 
L 182.9376 68.0832 
" clip-path="url(#p91e5b6a573)" style="fill: #f7fbff"/>
    <path d="M 209.5488 68.0832 
L 236.16 68.0832 
L 236.16 94.6944 
L 209.5488 94.6944 
L 209.5488 68.0832 
" clip-path="url(#p91e5b6a573)" style="fill: #f7fbff"/>
    <path d="M 236.16 68.0832 
L 262.7712 68.0832 
L 262.7712 94.6944 
L 236.16 94.6944 
L 236.16 68.0832 
" clip-path="url(#p91e5b6a573)" style="fill: #f7fbff"/>
    <path d="M 262.7712 68.0832 
L 289.3824 68.0832 
L 289.3824 94.6944 
L 262.7712 94.6944 
L 262.7712 68.0832 
" clip-path="url(#p91e5b6a573)" style="fill: #f7fbff"/>
    <path d="M 289.3824 68.0832 
L 315.9936 68.0832 
L 315.9936 94.6944 
L 289.3824 94.6944 
L 289.3824 68.0832 
" clip-path="url(#p91e5b6a573)" style="fill: #f7fbff"/>
    <path d="M 315.9936 68.0832 
L 342.6048 68.0832 
L 342.6048 94.6944 
L 315.9936 94.6944 
L 315.9936 68.0832 
" clip-path="url(#p91e5b6a573)" style="fill: #e7f1fa"/>
    <path d="M 342.6048 68.0832 
L 369.216 68.0832 
L 369.216 94.6944 
L 342.6048 94.6944 
L 342.6048 68.0832 
" clip-path="url(#p91e5b6a573)" style="fill: #f7fbff"/>
    <path d="M 103.104 94.6944 
L 129.7152 94.6944 
L 129.7152 121.3056 
L 103.104 121.3056 
L 103.104 94.6944 
" clip-path="url(#p91e5b6a573)" style="fill: #f7fbff"/>
    <path d="M 129.7152 94.6944 
L 156.3264 94.6944 
L 156.3264 121.3056 
L 129.7152 121.3056 
L 129.7152 94.6944 
" clip-path="url(#p91e5b6a573)" style="fill: #dce9f6"/>
    <path d="M 156.3264 94.6944 
L 182.9376 94.6944 
L 182.9376 121.3056 
L 156.3264 121.3056 
L 156.3264 94.6944 
" clip-path="url(#p91e5b6a573)" style="fill: #97c6df"/>
    <path d="M 182.9376 94.6944 
L 209.5488 94.6944 
L 209.5488 121.3056 
L 182.9376 121.3056 
L 182.9376 94.6944 
" clip-path="url(#p91e5b6a573)" style="fill: #eff6fc"/>
    <path d="M 209.5488 94.6944 
L 236.16 94.6944 
L 236.16 121.3056 
L 209.5488 121.3056 
L 209.5488 94.6944 
" clip-path="url(#p91e5b6a573)" style="fill: #f7fbff"/>
    <path d="M 236.16 94.6944 
L 262.7712 94.6944 
L 262.7712 121.3056 
L 236.16 121.3056 
L 236.16 94.6944 
" clip-path="url(#p91e5b6a573)" style="fill: #f7fbff"/>
    <path d="M 262.7712 94.6944 
L 289.3824 94.6944 
L 289.3824 121.3056 
L 262.7712 121.3056 
L 262.7712 94.6944 
" clip-path="url(#p91e5b6a573)" style="fill: #f7fbff"/>
    <path d="M 289.3824 94.6944 
L 315.9936 94.6944 
L 315.9936 121.3056 
L 289.3824 121.3056 
L 289.3824 94.6944 
" clip-path="url(#p91e5b6a573)" style="fill: #f7fbff"/>
    <path d="M 315.9936 94.6944 
L 342.6048 94.6944 
L 342.6048 121.3056 
L 315.9936 121.3056 
L 315.9936 94.6944 
" clip-path="url(#p91e5b6a573)" style="fill: #b8d5ea"/>
    <path d="M 342.6048 94.6944 
L 369.216 94.6944 
L 369.216 121.3056 
L 342.6048 121.3056 
L 342.6048 94.6944 
" clip-path="url(#p91e5b6a573)" style="fill: #f7fbff"/>
    <path d="M 103.104 121.3056 
L 129.7152 121.3056 
L 129.7152 147.9168 
L 103.104 147.9168 
L 103.104 121.3056 
" clip-path="url(#p91e5b6a573)" style="fill: #f7fbff"/>
    <path d="M 129.7152 121.3056 
L 156.3264 121.3056 
L 156.3264 147.9168 
L 129.7152 147.9168 
L 129.7152 121.3056 
" clip-path="url(#p91e5b6a573)" style="fill: #f7fbff"/>
    <path d="M 156.3264 121.3056 
L 182.9376 121.3056 
L 182.9376 147.9168 
L 156.3264 147.9168 
L 156.3264 121.3056 
" clip-path="url(#p91e5b6a573)" style="fill: #f7fbff"/>
    <path d="M 182.9376 121.3056 
L 209.5488 121.3056 
L 209.5488 147.9168 
L 182.9376 147.9168 
L 182.9376 121.3056 
" clip-path="url(#p91e5b6a573)" style="fill: #1e6db2"/>
    <path d="M 209.5488 121.3056 
L 236.16 121.3056 
L 236.16 147.9168 
L 209.5488 147.9168 
L 209.5488 121.3056 
" clip-path="url(#p91e5b6a573)" style="fill: #f7fbff"/>
    <path d="M 236.16 121.3056 
L 262.7712 121.3056 
L 262.7712 147.9168 
L 236.16 147.9168 
L 236.16 121.3056 
" clip-path="url(#p91e5b6a573)" style="fill: #f7fbff"/>
    <path d="M 262.7712 121.3056 
L 289.3824 121.3056 
L 289.3824 147.9168 
L 262.7712 147.9168 
L 262.7712 121.3056 
" clip-path="url(#p91e5b6a573)" style="fill: #f7fbff"/>
    <path d="M 289.3824 121.3056 
L 315.9936 121.3056 
L 315.9936 147.9168 
L 289.3824 147.9168 
L 289.3824 121.3056 
" clip-path="url(#p91e5b6a573)" style="fill: #f3f8fe"/>
    <path d="M 315.9936 121.3056 
L 342.6048 121.3056 
L 342.6048 147.9168 
L 315.9936 147.9168 
L 315.9936 121.3056 
" clip-path="url(#p91e5b6a573)" style="fill: #e3eef9"/>
    <path d="M 342.6048 121.3056 
L 369.216 121.3056 
L 369.216 147.9168 
L 342.6048 147.9168 
L 342.6048 121.3056 
" clip-path="url(#p91e5b6a573)" style="fill: #f7fbff"/>
    <path d="M 103.104 147.9168 
L 129.7152 147.9168 
L 129.7152 174.528 
L 103.104 174.528 
L 103.104 147.9168 
" clip-path="url(#p91e5b6a573)" style="fill: #f7fbff"/>
    <path d="M 129.7152 147.9168 
L 156.3264 147.9168 
L 156.3264 174.528 
L 129.7152 174.528 
L 129.7152 147.9168 
" clip-path="url(#p91e5b6a573)" style="fill: #f3f8fe"/>
    <path d="M 156.3264 147.9168 
L 182.9376 147.9168 
L 182.9376 174.528 
L 156.3264 174.528 
L 156.3264 147.9168 
" clip-path="url(#p91e5b6a573)" style="fill: #f7fbff"/>
    <path d="M 182.9376 147.9168 
L 209.5488 147.9168 
L 209.5488 174.528 
L 182.9376 174.528 
L 182.9376 147.9168 
" clip-path="url(#p91e5b6a573)" style="fill: #f7fbff"/>
    <path d="M 209.5488 147.9168 
L 236.16 147.9168 
L 236.16 174.528 
L 209.5488 174.528 
L 209.5488 147.9168 
" clip-path="url(#p91e5b6a573)" style="fill: #4896c8"/>
    <path d="M 236.16 147.9168 
L 262.7712 147.9168 
L 262.7712 174.528 
L 236.16 174.528 
L 236.16 147.9168 
" clip-path="url(#p91e5b6a573)" style="fill: #f7fbff"/>
    <path d="M 262.7712 147.9168 
L 289.3824 147.9168 
L 289.3824 174.528 
L 262.7712 174.528 
L 262.7712 147.9168 
" clip-path="url(#p91e5b6a573)" style="fill: #f7fbff"/>
    <path d="M 289.3824 147.9168 
L 315.9936 147.9168 
L 315.9936 174.528 
L 289.3824 174.528 
L 289.3824 147.9168 
" clip-path="url(#p91e5b6a573)" style="fill: #dfecf7"/>
    <path d="M 315.9936 147.9168 
L 342.6048 147.9168 
L 342.6048 174.528 
L 315.9936 174.528 
L 315.9936 147.9168 
" clip-path="url(#p91e5b6a573)" style="fill: #f7fbff"/>
    <path d="M 342.6048 147.9168 
L 369.216 147.9168 
L 369.216 174.528 
L 342.6048 174.528 
L 342.6048 147.9168 
" clip-path="url(#p91e5b6a573)" style="fill: #f7fbff"/>
    <path d="M 103.104 174.528 
L 129.7152 174.528 
L 129.7152 201.1392 
L 103.104 201.1392 
L 103.104 174.528 
" clip-path="url(#p91e5b6a573)" style="fill: #f7fbff"/>
    <path d="M 129.7152 174.528 
L 156.3264 174.528 
L 156.3264 201.1392 
L 129.7152 201.1392 
L 129.7152 174.528 
" clip-path="url(#p91e5b6a573)" style="fill: #f3f8fe"/>
    <path d="M 156.3264 174.528 
L 182.9376 174.528 
L 182.9376 201.1392 
L 156.3264 201.1392 
L 156.3264 174.528 
" clip-path="url(#p91e5b6a573)" style="fill: #f7fbff"/>
    <path d="M 182.9376 174.528 
L 209.5488 174.528 
L 209.5488 201.1392 
L 182.9376 201.1392 
L 182.9376 174.528 
" clip-path="url(#p91e5b6a573)" style="fill: #f3f8fe"/>
    <path d="M 209.5488 174.528 
L 236.16 174.528 
L 236.16 201.1392 
L 209.5488 201.1392 
L 209.5488 174.528 
" clip-path="url(#p91e5b6a573)" style="fill: #f7fbff"/>
    <path d="M 236.16 174.528 
L 262.7712 174.528 
L 262.7712 201.1392 
L 236.16 201.1392 
L 236.16 174.528 
" clip-path="url(#p91e5b6a573)" style="fill: #0e59a2"/>
    <path d="M 262.7712 174.528 
L 289.3824 174.528 
L 289.3824 201.1392 
L 262.7712 201.1392 
L 262.7712 174.528 
" clip-path="url(#p91e5b6a573)" style="fill: #f7fbff"/>
    <path d="M 289.3824 174.528 
L 315.9936 174.528 
L 315.9936 201.1392 
L 289.3824 201.1392 
L 289.3824 174.528 
" clip-path="url(#p91e5b6a573)" style="fill: #ebf3fb"/>
    <path d="M 315.9936 174.528 
L 342.6048 174.528 
L 342.6048 201.1392 
L 315.9936 201.1392 
L 315.9936 174.528 
" clip-path="url(#p91e5b6a573)" style="fill: #f7fbff"/>
    <path d="M 342.6048 174.528 
L 369.216 174.528 
L 369.216 201.1392 
L 342.6048 201.1392 
L 342.6048 174.528 
" clip-path="url(#p91e5b6a573)" style="fill: #f7fbff"/>
    <path d="M 103.104 201.1392 
L 129.7152 201.1392 
L 129.7152 227.7504 
L 103.104 227.7504 
L 103.104 201.1392 
" clip-path="url(#p91e5b6a573)" style="fill: #f7fbff"/>
    <path d="M 129.7152 201.1392 
L 156.3264 201.1392 
L 156.3264 227.7504 
L 129.7152 227.7504 
L 129.7152 201.1392 
" clip-path="url(#p91e5b6a573)" style="fill: #f7fbff"/>
    <path d="M 156.3264 201.1392 
L 182.9376 201.1392 
L 182.9376 227.7504 
L 156.3264 227.7504 
L 156.3264 201.1392 
" clip-path="url(#p91e5b6a573)" style="fill: #f3f8fe"/>
    <path d="M 182.9376 201.1392 
L 209.5488 201.1392 
L 209.5488 227.7504 
L 182.9376 227.7504 
L 182.9376 201.1392 
" clip-path="url(#p91e5b6a573)" style="fill: #f7fbff"/>
    <path d="M 209.5488 201.1392 
L 236.16 201.1392 
L 236.16 227.7504 
L 209.5488 227.7504 
L 209.5488 201.1392 
" clip-path="url(#p91e5b6a573)" style="fill: #f7fbff"/>
    <path d="M 236.16 201.1392 
L 262.7712 201.1392 
L 262.7712 227.7504 
L 236.16 227.7504 
L 236.16 201.1392 
" clip-path="url(#p91e5b6a573)" style="fill: #f7fbff"/>
    <path d="M 262.7712 201.1392 
L 289.3824 201.1392 
L 289.3824 227.7504 
L 262.7712 227.7504 
L 262.7712 201.1392 
" clip-path="url(#p91e5b6a573)" style="fill: #08306b"/>
    <path d="M 289.3824 201.1392 
L 315.9936 201.1392 
L 315.9936 227.7504 
L 289.3824 227.7504 
L 289.3824 201.1392 
" clip-path="url(#p91e5b6a573)" style="fill: #f7fbff"/>
    <path d="M 315.9936 201.1392 
L 342.6048 201.1392 
L 342.6048 227.7504 
L 315.9936 227.7504 
L 315.9936 201.1392 
" clip-path="url(#p91e5b6a573)" style="fill: #f7fbff"/>
    <path d="M 342.6048 201.1392 
L 369.216 201.1392 
L 369.216 227.7504 
L 342.6048 227.7504 
L 342.6048 201.1392 
" clip-path="url(#p91e5b6a573)" style="fill: #f7fbff"/>
    <path d="M 103.104 227.7504 
L 129.7152 227.7504 
L 129.7152 254.3616 
L 103.104 254.3616 
L 103.104 227.7504 
" clip-path="url(#p91e5b6a573)" style="fill: #f7fbff"/>
    <path d="M 129.7152 227.7504 
L 156.3264 227.7504 
L 156.3264 254.3616 
L 129.7152 254.3616 
L 129.7152 227.7504 
" clip-path="url(#p91e5b6a573)" style="fill: #f7fbff"/>
    <path d="M 156.3264 227.7504 
L 182.9376 227.7504 
L 182.9376 254.3616 
L 156.3264 254.3616 
L 156.3264 227.7504 
" clip-path="url(#p91e5b6a573)" style="fill: #f7fbff"/>
    <path d="M 182.9376 227.7504 
L 209.5488 227.7504 
L 209.5488 254.3616 
L 182.9376 254.3616 
L 182.9376 227.7504 
" clip-path="url(#p91e5b6a573)" style="fill: #f7fbff"/>
    <path d="M 209.5488 227.7504 
L 236.16 227.7504 
L 236.16 254.3616 
L 209.5488 254.3616 
L 209.5488 227.7504 
" clip-path="url(#p91e5b6a573)" style="fill: #f3f8fe"/>
    <path d="M 236.16 227.7504 
L 262.7712 227.7504 
L 262.7712 254.3616 
L 236.16 254.3616 
L 236.16 227.7504 
" clip-path="url(#p91e5b6a573)" style="fill: #f7fbff"/>
    <path d="M 262.7712 227.7504 
L 289.3824 227.7504 
L 289.3824 254.3616 
L 262.7712 254.3616 
L 262.7712 227.7504 
" clip-path="url(#p91e5b6a573)" style="fill: #f7fbff"/>
    <path d="M 289.3824 227.7504 
L 315.9936 227.7504 
L 315.9936 254.3616 
L 289.3824 254.3616 
L 289.3824 227.7504 
" clip-path="url(#p91e5b6a573)" style="fill: #08458a"/>
    <path d="M 315.9936 227.7504 
L 342.6048 227.7504 
L 342.6048 254.3616 
L 315.9936 254.3616 
L 315.9936 227.7504 
" clip-path="url(#p91e5b6a573)" style="fill: #f7fbff"/>
    <path d="M 342.6048 227.7504 
L 369.216 227.7504 
L 369.216 254.3616 
L 342.6048 254.3616 
L 342.6048 227.7504 
" clip-path="url(#p91e5b6a573)" style="fill: #f7fbff"/>
    <path d="M 103.104 254.3616 
L 129.7152 254.3616 
L 129.7152 280.9728 
L 103.104 280.9728 
L 103.104 254.3616 
" clip-path="url(#p91e5b6a573)" style="fill: #f7fbff"/>
    <path d="M 129.7152 254.3616 
L 156.3264 254.3616 
L 156.3264 280.9728 
L 129.7152 280.9728 
L 129.7152 254.3616 
" clip-path="url(#p91e5b6a573)" style="fill: #dfecf7"/>
    <path d="M 156.3264 254.3616 
L 182.9376 254.3616 
L 182.9376 280.9728 
L 156.3264 280.9728 
L 156.3264 254.3616 
" clip-path="url(#p91e5b6a573)" style="fill: #f7fbff"/>
    <path d="M 182.9376 254.3616 
L 209.5488 254.3616 
L 209.5488 280.9728 
L 182.9376 280.9728 
L 182.9376 254.3616 
" clip-path="url(#p91e5b6a573)" style="fill: #f3f8fe"/>
    <path d="M 209.5488 254.3616 
L 236.16 254.3616 
L 236.16 280.9728 
L 209.5488 280.9728 
L 209.5488 254.3616 
" clip-path="url(#p91e5b6a573)" style="fill: #f7fbff"/>
    <path d="M 236.16 254.3616 
L 262.7712 254.3616 
L 262.7712 280.9728 
L 236.16 280.9728 
L 236.16 254.3616 
" clip-path="url(#p91e5b6a573)" style="fill: #f3f8fe"/>
    <path d="M 262.7712 254.3616 
L 289.3824 254.3616 
L 289.3824 280.9728 
L 262.7712 280.9728 
L 262.7712 254.3616 
" clip-path="url(#p91e5b6a573)" style="fill: #f7fbff"/>
    <path d="M 289.3824 254.3616 
L 315.9936 254.3616 
L 315.9936 280.9728 
L 289.3824 280.9728 
L 289.3824 254.3616 
" clip-path="url(#p91e5b6a573)" style="fill: #eff6fc"/>
    <path d="M 315.9936 254.3616 
L 342.6048 254.3616 
L 342.6048 280.9728 
L 315.9936 280.9728 
L 315.9936 254.3616 
" clip-path="url(#p91e5b6a573)" style="fill: #2272b6"/>
    <path d="M 342.6048 254.3616 
L 369.216 254.3616 
L 369.216 280.9728 
L 342.6048 280.9728 
L 342.6048 254.3616 
" clip-path="url(#p91e5b6a573)" style="fill: #f7fbff"/>
    <path d="M 103.104 280.9728 
L 129.7152 280.9728 
L 129.7152 307.584 
L 103.104 307.584 
L 103.104 280.9728 
" clip-path="url(#p91e5b6a573)" style="fill: #f7fbff"/>
    <path d="M 129.7152 280.9728 
L 156.3264 280.9728 
L 156.3264 307.584 
L 129.7152 307.584 
L 129.7152 280.9728 
" clip-path="url(#p91e5b6a573)" style="fill: #eff6fc"/>
    <path d="M 156.3264 280.9728 
L 182.9376 280.9728 
L 182.9376 307.584 
L 156.3264 307.584 
L 156.3264 280.9728 
" clip-path="url(#p91e5b6a573)" style="fill: #f7fbff"/>
    <path d="M 182.9376 280.9728 
L 209.5488 280.9728 
L 209.5488 307.584 
L 182.9376 307.584 
L 182.9376 280.9728 
" clip-path="url(#p91e5b6a573)" style="fill: #e7f1fa"/>
    <path d="M 209.5488 280.9728 
L 236.16 280.9728 
L 236.16 307.584 
L 209.5488 307.584 
L 209.5488 280.9728 
" clip-path="url(#p91e5b6a573)" style="fill: #f3f8fe"/>
    <path d="M 236.16 280.9728 
L 262.7712 280.9728 
L 262.7712 307.584 
L 236.16 307.584 
L 236.16 280.9728 
" clip-path="url(#p91e5b6a573)" style="fill: #f7fbff"/>
    <path d="M 262.7712 280.9728 
L 289.3824 280.9728 
L 289.3824 307.584 
L 262.7712 307.584 
L 262.7712 280.9728 
" clip-path="url(#p91e5b6a573)" style="fill: #f7fbff"/>
    <path d="M 289.3824 280.9728 
L 315.9936 280.9728 
L 315.9936 307.584 
L 289.3824 307.584 
L 289.3824 280.9728 
" clip-path="url(#p91e5b6a573)" style="fill: #ebf3fb"/>
    <path d="M 315.9936 280.9728 
L 342.6048 280.9728 
L 342.6048 307.584 
L 315.9936 307.584 
L 315.9936 280.9728 
" clip-path="url(#p91e5b6a573)" style="fill: #dce9f6"/>
    <path d="M 342.6048 280.9728 
L 369.216 280.9728 
L 369.216 307.584 
L 342.6048 307.584 
L 342.6048 280.9728 
" clip-path="url(#p91e5b6a573)" style="fill: #4e9acb"/>
   </g>
   <g id="matplotlib.axis_1">
    <g id="xtick_1">
     <g id="line2d_1">
      <defs>
       <path id="mac898bc396" d="M 0 0 
L 0 3.5 
" style="stroke: #000000; stroke-width: 0.8"/>
      </defs>
      <g>
       <use xlink:href="#mac898bc396" x="116.4096" y="307.584" style="stroke: #000000; stroke-width: 0.8"/>
      </g>
     </g>
     <g id="text_1">
      <!-- 0 -->
      <g transform="translate(113.22835 322.182437) scale(0.1 -0.1)">
       <defs>
        <path id="DejaVuSans-30" d="M 2034 4250 
Q 1547 4250 1301 3770 
Q 1056 3291 1056 2328 
Q 1056 1369 1301 889 
Q 1547 409 2034 409 
Q 2525 409 2770 889 
Q 3016 1369 3016 2328 
Q 3016 3291 2770 3770 
Q 2525 4250 2034 4250 
z
M 2034 4750 
Q 2819 4750 3233 4129 
Q 3647 3509 3647 2328 
Q 3647 1150 3233 529 
Q 2819 -91 2034 -91 
Q 1250 -91 836 529 
Q 422 1150 422 2328 
Q 422 3509 836 4129 
Q 1250 4750 2034 4750 
z
" transform="scale(0.015625)"/>
       </defs>
       <use xlink:href="#DejaVuSans-30"/>
      </g>
     </g>
    </g>
    <g id="xtick_2">
     <g id="line2d_2">
      <g>
       <use xlink:href="#mac898bc396" x="143.0208" y="307.584" style="stroke: #000000; stroke-width: 0.8"/>
      </g>
     </g>
     <g id="text_2">
      <!-- 1 -->
      <g transform="translate(139.83955 322.182437) scale(0.1 -0.1)">
       <defs>
        <path id="DejaVuSans-31" d="M 794 531 
L 1825 531 
L 1825 4091 
L 703 3866 
L 703 4441 
L 1819 4666 
L 2450 4666 
L 2450 531 
L 3481 531 
L 3481 0 
L 794 0 
L 794 531 
z
" transform="scale(0.015625)"/>
       </defs>
       <use xlink:href="#DejaVuSans-31"/>
      </g>
     </g>
    </g>
    <g id="xtick_3">
     <g id="line2d_3">
      <g>
       <use xlink:href="#mac898bc396" x="169.632" y="307.584" style="stroke: #000000; stroke-width: 0.8"/>
      </g>
     </g>
     <g id="text_3">
      <!-- 2 -->
      <g transform="translate(166.45075 322.182437) scale(0.1 -0.1)">
       <defs>
        <path id="DejaVuSans-32" d="M 1228 531 
L 3431 531 
L 3431 0 
L 469 0 
L 469 531 
Q 828 903 1448 1529 
Q 2069 2156 2228 2338 
Q 2531 2678 2651 2914 
Q 2772 3150 2772 3378 
Q 2772 3750 2511 3984 
Q 2250 4219 1831 4219 
Q 1534 4219 1204 4116 
Q 875 4013 500 3803 
L 500 4441 
Q 881 4594 1212 4672 
Q 1544 4750 1819 4750 
Q 2544 4750 2975 4387 
Q 3406 4025 3406 3419 
Q 3406 3131 3298 2873 
Q 3191 2616 2906 2266 
Q 2828 2175 2409 1742 
Q 1991 1309 1228 531 
z
" transform="scale(0.015625)"/>
       </defs>
       <use xlink:href="#DejaVuSans-32"/>
      </g>
     </g>
    </g>
    <g id="xtick_4">
     <g id="line2d_4">
      <g>
       <use xlink:href="#mac898bc396" x="196.2432" y="307.584" style="stroke: #000000; stroke-width: 0.8"/>
      </g>
     </g>
     <g id="text_4">
      <!-- 3 -->
      <g transform="translate(193.06195 322.182437) scale(0.1 -0.1)">
       <defs>
        <path id="DejaVuSans-33" d="M 2597 2516 
Q 3050 2419 3304 2112 
Q 3559 1806 3559 1356 
Q 3559 666 3084 287 
Q 2609 -91 1734 -91 
Q 1441 -91 1130 -33 
Q 819 25 488 141 
L 488 750 
Q 750 597 1062 519 
Q 1375 441 1716 441 
Q 2309 441 2620 675 
Q 2931 909 2931 1356 
Q 2931 1769 2642 2001 
Q 2353 2234 1838 2234 
L 1294 2234 
L 1294 2753 
L 1863 2753 
Q 2328 2753 2575 2939 
Q 2822 3125 2822 3475 
Q 2822 3834 2567 4026 
Q 2313 4219 1838 4219 
Q 1578 4219 1281 4162 
Q 984 4106 628 3988 
L 628 4550 
Q 988 4650 1302 4700 
Q 1616 4750 1894 4750 
Q 2613 4750 3031 4423 
Q 3450 4097 3450 3541 
Q 3450 3153 3228 2886 
Q 3006 2619 2597 2516 
z
" transform="scale(0.015625)"/>
       </defs>
       <use xlink:href="#DejaVuSans-33"/>
      </g>
     </g>
    </g>
    <g id="xtick_5">
     <g id="line2d_5">
      <g>
       <use xlink:href="#mac898bc396" x="222.8544" y="307.584" style="stroke: #000000; stroke-width: 0.8"/>
      </g>
     </g>
     <g id="text_5">
      <!-- 4 -->
      <g transform="translate(219.67315 322.182437) scale(0.1 -0.1)">
       <defs>
        <path id="DejaVuSans-34" d="M 2419 4116 
L 825 1625 
L 2419 1625 
L 2419 4116 
z
M 2253 4666 
L 3047 4666 
L 3047 1625 
L 3713 1625 
L 3713 1100 
L 3047 1100 
L 3047 0 
L 2419 0 
L 2419 1100 
L 313 1100 
L 313 1709 
L 2253 4666 
z
" transform="scale(0.015625)"/>
       </defs>
       <use xlink:href="#DejaVuSans-34"/>
      </g>
     </g>
    </g>
    <g id="xtick_6">
     <g id="line2d_6">
      <g>
       <use xlink:href="#mac898bc396" x="249.4656" y="307.584" style="stroke: #000000; stroke-width: 0.8"/>
      </g>
     </g>
     <g id="text_6">
      <!-- 5 -->
      <g transform="translate(246.28435 322.182437) scale(0.1 -0.1)">
       <defs>
        <path id="DejaVuSans-35" d="M 691 4666 
L 3169 4666 
L 3169 4134 
L 1269 4134 
L 1269 2991 
Q 1406 3038 1543 3061 
Q 1681 3084 1819 3084 
Q 2600 3084 3056 2656 
Q 3513 2228 3513 1497 
Q 3513 744 3044 326 
Q 2575 -91 1722 -91 
Q 1428 -91 1123 -41 
Q 819 9 494 109 
L 494 744 
Q 775 591 1075 516 
Q 1375 441 1709 441 
Q 2250 441 2565 725 
Q 2881 1009 2881 1497 
Q 2881 1984 2565 2268 
Q 2250 2553 1709 2553 
Q 1456 2553 1204 2497 
Q 953 2441 691 2322 
L 691 4666 
z
" transform="scale(0.015625)"/>
       </defs>
       <use xlink:href="#DejaVuSans-35"/>
      </g>
     </g>
    </g>
    <g id="xtick_7">
     <g id="line2d_7">
      <g>
       <use xlink:href="#mac898bc396" x="276.0768" y="307.584" style="stroke: #000000; stroke-width: 0.8"/>
      </g>
     </g>
     <g id="text_7">
      <!-- 6 -->
      <g transform="translate(272.89555 322.182437) scale(0.1 -0.1)">
       <defs>
        <path id="DejaVuSans-36" d="M 2113 2584 
Q 1688 2584 1439 2293 
Q 1191 2003 1191 1497 
Q 1191 994 1439 701 
Q 1688 409 2113 409 
Q 2538 409 2786 701 
Q 3034 994 3034 1497 
Q 3034 2003 2786 2293 
Q 2538 2584 2113 2584 
z
M 3366 4563 
L 3366 3988 
Q 3128 4100 2886 4159 
Q 2644 4219 2406 4219 
Q 1781 4219 1451 3797 
Q 1122 3375 1075 2522 
Q 1259 2794 1537 2939 
Q 1816 3084 2150 3084 
Q 2853 3084 3261 2657 
Q 3669 2231 3669 1497 
Q 3669 778 3244 343 
Q 2819 -91 2113 -91 
Q 1303 -91 875 529 
Q 447 1150 447 2328 
Q 447 3434 972 4092 
Q 1497 4750 2381 4750 
Q 2619 4750 2861 4703 
Q 3103 4656 3366 4563 
z
" transform="scale(0.015625)"/>
       </defs>
       <use xlink:href="#DejaVuSans-36"/>
      </g>
     </g>
    </g>
    <g id="xtick_8">
     <g id="line2d_8">
      <g>
       <use xlink:href="#mac898bc396" x="302.688" y="307.584" style="stroke: #000000; stroke-width: 0.8"/>
      </g>
     </g>
     <g id="text_8">
      <!-- 7 -->
      <g transform="translate(299.50675 322.182437) scale(0.1 -0.1)">
       <defs>
        <path id="DejaVuSans-37" d="M 525 4666 
L 3525 4666 
L 3525 4397 
L 1831 0 
L 1172 0 
L 2766 4134 
L 525 4134 
L 525 4666 
z
" transform="scale(0.015625)"/>
       </defs>
       <use xlink:href="#DejaVuSans-37"/>
      </g>
     </g>
    </g>
    <g id="xtick_9">
     <g id="line2d_9">
      <g>
       <use xlink:href="#mac898bc396" x="329.2992" y="307.584" style="stroke: #000000; stroke-width: 0.8"/>
      </g>
     </g>
     <g id="text_9">
      <!-- 8 -->
      <g transform="translate(326.11795 322.182437) scale(0.1 -0.1)">
       <defs>
        <path id="DejaVuSans-38" d="M 2034 2216 
Q 1584 2216 1326 1975 
Q 1069 1734 1069 1313 
Q 1069 891 1326 650 
Q 1584 409 2034 409 
Q 2484 409 2743 651 
Q 3003 894 3003 1313 
Q 3003 1734 2745 1975 
Q 2488 2216 2034 2216 
z
M 1403 2484 
Q 997 2584 770 2862 
Q 544 3141 544 3541 
Q 544 4100 942 4425 
Q 1341 4750 2034 4750 
Q 2731 4750 3128 4425 
Q 3525 4100 3525 3541 
Q 3525 3141 3298 2862 
Q 3072 2584 2669 2484 
Q 3125 2378 3379 2068 
Q 3634 1759 3634 1313 
Q 3634 634 3220 271 
Q 2806 -91 2034 -91 
Q 1263 -91 848 271 
Q 434 634 434 1313 
Q 434 1759 690 2068 
Q 947 2378 1403 2484 
z
M 1172 3481 
Q 1172 3119 1398 2916 
Q 1625 2713 2034 2713 
Q 2441 2713 2670 2916 
Q 2900 3119 2900 3481 
Q 2900 3844 2670 4047 
Q 2441 4250 2034 4250 
Q 1625 4250 1398 4047 
Q 1172 3844 1172 3481 
z
" transform="scale(0.015625)"/>
       </defs>
       <use xlink:href="#DejaVuSans-38"/>
      </g>
     </g>
    </g>
    <g id="xtick_10">
     <g id="line2d_10">
      <g>
       <use xlink:href="#mac898bc396" x="355.9104" y="307.584" style="stroke: #000000; stroke-width: 0.8"/>
      </g>
     </g>
     <g id="text_10">
      <!-- 9 -->
      <g transform="translate(352.72915 322.182437) scale(0.1 -0.1)">
       <defs>
        <path id="DejaVuSans-39" d="M 703 97 
L 703 672 
Q 941 559 1184 500 
Q 1428 441 1663 441 
Q 2288 441 2617 861 
Q 2947 1281 2994 2138 
Q 2813 1869 2534 1725 
Q 2256 1581 1919 1581 
Q 1219 1581 811 2004 
Q 403 2428 403 3163 
Q 403 3881 828 4315 
Q 1253 4750 1959 4750 
Q 2769 4750 3195 4129 
Q 3622 3509 3622 2328 
Q 3622 1225 3098 567 
Q 2575 -91 1691 -91 
Q 1453 -91 1209 -44 
Q 966 3 703 97 
z
M 1959 2075 
Q 2384 2075 2632 2365 
Q 2881 2656 2881 3163 
Q 2881 3666 2632 3958 
Q 2384 4250 1959 4250 
Q 1534 4250 1286 3958 
Q 1038 3666 1038 3163 
Q 1038 2656 1286 2365 
Q 1534 2075 1959 2075 
z
" transform="scale(0.015625)"/>
       </defs>
       <use xlink:href="#DejaVuSans-39"/>
      </g>
     </g>
    </g>
   </g>
   <g id="matplotlib.axis_2">
    <g id="ytick_1">
     <g id="line2d_11">
      <defs>
       <path id="m475c778677" d="M 0 0 
L -3.5 0 
" style="stroke: #000000; stroke-width: 0.8"/>
      </defs>
      <g>
       <use xlink:href="#m475c778677" x="103.104" y="54.7776" style="stroke: #000000; stroke-width: 0.8"/>
      </g>
     </g>
     <g id="text_11">
      <!-- 0 -->
      <g transform="translate(94.024313 57.95885) rotate(-90) scale(0.1 -0.1)">
       <use xlink:href="#DejaVuSans-30"/>
      </g>
     </g>
    </g>
    <g id="ytick_2">
     <g id="line2d_12">
      <g>
       <use xlink:href="#m475c778677" x="103.104" y="81.3888" style="stroke: #000000; stroke-width: 0.8"/>
      </g>
     </g>
     <g id="text_12">
      <!-- 1 -->
      <g transform="translate(94.024313 84.57005) rotate(-90) scale(0.1 -0.1)">
       <use xlink:href="#DejaVuSans-31"/>
      </g>
     </g>
    </g>
    <g id="ytick_3">
     <g id="line2d_13">
      <g>
       <use xlink:href="#m475c778677" x="103.104" y="108" style="stroke: #000000; stroke-width: 0.8"/>
      </g>
     </g>
     <g id="text_13">
      <!-- 2 -->
      <g transform="translate(94.024313 111.18125) rotate(-90) scale(0.1 -0.1)">
       <use xlink:href="#DejaVuSans-32"/>
      </g>
     </g>
    </g>
    <g id="ytick_4">
     <g id="line2d_14">
      <g>
       <use xlink:href="#m475c778677" x="103.104" y="134.6112" style="stroke: #000000; stroke-width: 0.8"/>
      </g>
     </g>
     <g id="text_14">
      <!-- 3 -->
      <g transform="translate(94.024313 137.79245) rotate(-90) scale(0.1 -0.1)">
       <use xlink:href="#DejaVuSans-33"/>
      </g>
     </g>
    </g>
    <g id="ytick_5">
     <g id="line2d_15">
      <g>
       <use xlink:href="#m475c778677" x="103.104" y="161.2224" style="stroke: #000000; stroke-width: 0.8"/>
      </g>
     </g>
     <g id="text_15">
      <!-- 4 -->
      <g transform="translate(94.024313 164.40365) rotate(-90) scale(0.1 -0.1)">
       <use xlink:href="#DejaVuSans-34"/>
      </g>
     </g>
    </g>
    <g id="ytick_6">
     <g id="line2d_16">
      <g>
       <use xlink:href="#m475c778677" x="103.104" y="187.8336" style="stroke: #000000; stroke-width: 0.8"/>
      </g>
     </g>
     <g id="text_16">
      <!-- 5 -->
      <g transform="translate(94.024313 191.01485) rotate(-90) scale(0.1 -0.1)">
       <use xlink:href="#DejaVuSans-35"/>
      </g>
     </g>
    </g>
    <g id="ytick_7">
     <g id="line2d_17">
      <g>
       <use xlink:href="#m475c778677" x="103.104" y="214.4448" style="stroke: #000000; stroke-width: 0.8"/>
      </g>
     </g>
     <g id="text_17">
      <!-- 6 -->
      <g transform="translate(94.024313 217.62605) rotate(-90) scale(0.1 -0.1)">
       <use xlink:href="#DejaVuSans-36"/>
      </g>
     </g>
    </g>
    <g id="ytick_8">
     <g id="line2d_18">
      <g>
       <use xlink:href="#m475c778677" x="103.104" y="241.056" style="stroke: #000000; stroke-width: 0.8"/>
      </g>
     </g>
     <g id="text_18">
      <!-- 7 -->
      <g transform="translate(94.024313 244.23725) rotate(-90) scale(0.1 -0.1)">
       <use xlink:href="#DejaVuSans-37"/>
      </g>
     </g>
    </g>
    <g id="ytick_9">
     <g id="line2d_19">
      <g>
       <use xlink:href="#m475c778677" x="103.104" y="267.6672" style="stroke: #000000; stroke-width: 0.8"/>
      </g>
     </g>
     <g id="text_19">
      <!-- 8 -->
      <g transform="translate(94.024313 270.84845) rotate(-90) scale(0.1 -0.1)">
       <use xlink:href="#DejaVuSans-38"/>
      </g>
     </g>
    </g>
    <g id="ytick_10">
     <g id="line2d_20">
      <g>
       <use xlink:href="#m475c778677" x="103.104" y="294.2784" style="stroke: #000000; stroke-width: 0.8"/>
      </g>
     </g>
     <g id="text_20">
      <!-- 9 -->
      <g transform="translate(94.024313 297.45965) rotate(-90) scale(0.1 -0.1)">
       <use xlink:href="#DejaVuSans-39"/>
      </g>
     </g>
    </g>
   </g>
   <g id="text_21">
    <!-- 37 -->
    <g style="fill: #ffffff" transform="translate(110.0471 57.536975) scale(0.1 -0.1)">
     <use xlink:href="#DejaVuSans-33"/>
     <use xlink:href="#DejaVuSans-37" x="63.623047"/>
    </g>
   </g>
   <g id="text_22">
    <!-- 0 -->
    <g style="fill: #262626" transform="translate(139.83955 57.536975) scale(0.1 -0.1)">
     <use xlink:href="#DejaVuSans-30"/>
    </g>
   </g>
   <g id="text_23">
    <!-- 0 -->
    <g style="fill: #262626" transform="translate(166.45075 57.536975) scale(0.1 -0.1)">
     <use xlink:href="#DejaVuSans-30"/>
    </g>
   </g>
   <g id="text_24">
    <!-- 0 -->
    <g style="fill: #262626" transform="translate(193.06195 57.536975) scale(0.1 -0.1)">
     <use xlink:href="#DejaVuSans-30"/>
    </g>
   </g>
   <g id="text_25">
    <!-- 0 -->
    <g style="fill: #262626" transform="translate(219.67315 57.536975) scale(0.1 -0.1)">
     <use xlink:href="#DejaVuSans-30"/>
    </g>
   </g>
   <g id="text_26">
    <!-- 0 -->
    <g style="fill: #262626" transform="translate(246.28435 57.536975) scale(0.1 -0.1)">
     <use xlink:href="#DejaVuSans-30"/>
    </g>
   </g>
   <g id="text_27">
    <!-- 0 -->
    <g style="fill: #262626" transform="translate(272.89555 57.536975) scale(0.1 -0.1)">
     <use xlink:href="#DejaVuSans-30"/>
    </g>
   </g>
   <g id="text_28">
    <!-- 0 -->
    <g style="fill: #262626" transform="translate(299.50675 57.536975) scale(0.1 -0.1)">
     <use xlink:href="#DejaVuSans-30"/>
    </g>
   </g>
   <g id="text_29">
    <!-- 0 -->
    <g style="fill: #262626" transform="translate(326.11795 57.536975) scale(0.1 -0.1)">
     <use xlink:href="#DejaVuSans-30"/>
    </g>
   </g>
   <g id="text_30">
    <!-- 0 -->
    <g style="fill: #262626" transform="translate(352.72915 57.536975) scale(0.1 -0.1)">
     <use xlink:href="#DejaVuSans-30"/>
    </g>
   </g>
   <g id="text_31">
    <!-- 0 -->
    <g style="fill: #262626" transform="translate(113.22835 84.148175) scale(0.1 -0.1)">
     <use xlink:href="#DejaVuSans-30"/>
    </g>
   </g>
   <g id="text_32">
    <!-- 39 -->
    <g style="fill: #ffffff" transform="translate(136.6583 84.148175) scale(0.1 -0.1)">
     <use xlink:href="#DejaVuSans-33"/>
     <use xlink:href="#DejaVuSans-39" x="63.623047"/>
    </g>
   </g>
   <g id="text_33">
    <!-- 0 -->
    <g style="fill: #262626" transform="translate(166.45075 84.148175) scale(0.1 -0.1)">
     <use xlink:href="#DejaVuSans-30"/>
    </g>
   </g>
   <g id="text_34">
    <!-- 0 -->
    <g style="fill: #262626" transform="translate(193.06195 84.148175) scale(0.1 -0.1)">
     <use xlink:href="#DejaVuSans-30"/>
    </g>
   </g>
   <g id="text_35">
    <!-- 0 -->
    <g style="fill: #262626" transform="translate(219.67315 84.148175) scale(0.1 -0.1)">
     <use xlink:href="#DejaVuSans-30"/>
    </g>
   </g>
   <g id="text_36">
    <!-- 0 -->
    <g style="fill: #262626" transform="translate(246.28435 84.148175) scale(0.1 -0.1)">
     <use xlink:href="#DejaVuSans-30"/>
    </g>
   </g>
   <g id="text_37">
    <!-- 0 -->
    <g style="fill: #262626" transform="translate(272.89555 84.148175) scale(0.1 -0.1)">
     <use xlink:href="#DejaVuSans-30"/>
    </g>
   </g>
   <g id="text_38">
    <!-- 0 -->
    <g style="fill: #262626" transform="translate(299.50675 84.148175) scale(0.1 -0.1)">
     <use xlink:href="#DejaVuSans-30"/>
    </g>
   </g>
   <g id="text_39">
    <!-- 4 -->
    <g style="fill: #262626" transform="translate(326.11795 84.148175) scale(0.1 -0.1)">
     <use xlink:href="#DejaVuSans-34"/>
    </g>
   </g>
   <g id="text_40">
    <!-- 0 -->
    <g style="fill: #262626" transform="translate(352.72915 84.148175) scale(0.1 -0.1)">
     <use xlink:href="#DejaVuSans-30"/>
    </g>
   </g>
   <g id="text_41">
    <!-- 0 -->
    <g style="fill: #262626" transform="translate(113.22835 110.759375) scale(0.1 -0.1)">
     <use xlink:href="#DejaVuSans-30"/>
    </g>
   </g>
   <g id="text_42">
    <!-- 7 -->
    <g style="fill: #262626" transform="translate(139.83955 110.759375) scale(0.1 -0.1)">
     <use xlink:href="#DejaVuSans-37"/>
    </g>
   </g>
   <g id="text_43">
    <!-- 20 -->
    <g style="fill: #262626" transform="translate(163.2695 110.759375) scale(0.1 -0.1)">
     <use xlink:href="#DejaVuSans-32"/>
     <use xlink:href="#DejaVuSans-30" x="63.623047"/>
    </g>
   </g>
   <g id="text_44">
    <!-- 2 -->
    <g style="fill: #262626" transform="translate(193.06195 110.759375) scale(0.1 -0.1)">
     <use xlink:href="#DejaVuSans-32"/>
    </g>
   </g>
   <g id="text_45">
    <!-- 0 -->
    <g style="fill: #262626" transform="translate(219.67315 110.759375) scale(0.1 -0.1)">
     <use xlink:href="#DejaVuSans-30"/>
    </g>
   </g>
   <g id="text_46">
    <!-- 0 -->
    <g style="fill: #262626" transform="translate(246.28435 110.759375) scale(0.1 -0.1)">
     <use xlink:href="#DejaVuSans-30"/>
    </g>
   </g>
   <g id="text_47">
    <!-- 0 -->
    <g style="fill: #262626" transform="translate(272.89555 110.759375) scale(0.1 -0.1)">
     <use xlink:href="#DejaVuSans-30"/>
    </g>
   </g>
   <g id="text_48">
    <!-- 0 -->
    <g style="fill: #262626" transform="translate(299.50675 110.759375) scale(0.1 -0.1)">
     <use xlink:href="#DejaVuSans-30"/>
    </g>
   </g>
   <g id="text_49">
    <!-- 15 -->
    <g style="fill: #262626" transform="translate(322.9367 110.759375) scale(0.1 -0.1)">
     <use xlink:href="#DejaVuSans-31"/>
     <use xlink:href="#DejaVuSans-35" x="63.623047"/>
    </g>
   </g>
   <g id="text_50">
    <!-- 0 -->
    <g style="fill: #262626" transform="translate(352.72915 110.759375) scale(0.1 -0.1)">
     <use xlink:href="#DejaVuSans-30"/>
    </g>
   </g>
   <g id="text_51">
    <!-- 0 -->
    <g style="fill: #262626" transform="translate(113.22835 137.370575) scale(0.1 -0.1)">
     <use xlink:href="#DejaVuSans-30"/>
    </g>
   </g>
   <g id="text_52">
    <!-- 0 -->
    <g style="fill: #262626" transform="translate(139.83955 137.370575) scale(0.1 -0.1)">
     <use xlink:href="#DejaVuSans-30"/>
    </g>
   </g>
   <g id="text_53">
    <!-- 0 -->
    <g style="fill: #262626" transform="translate(166.45075 137.370575) scale(0.1 -0.1)">
     <use xlink:href="#DejaVuSans-30"/>
    </g>
   </g>
   <g id="text_54">
    <!-- 39 -->
    <g style="fill: #ffffff" transform="translate(189.8807 137.370575) scale(0.1 -0.1)">
     <use xlink:href="#DejaVuSans-33"/>
     <use xlink:href="#DejaVuSans-39" x="63.623047"/>
    </g>
   </g>
   <g id="text_55">
    <!-- 0 -->
    <g style="fill: #262626" transform="translate(219.67315 137.370575) scale(0.1 -0.1)">
     <use xlink:href="#DejaVuSans-30"/>
    </g>
   </g>
   <g id="text_56">
    <!-- 0 -->
    <g style="fill: #262626" transform="translate(246.28435 137.370575) scale(0.1 -0.1)">
     <use xlink:href="#DejaVuSans-30"/>
    </g>
   </g>
   <g id="text_57">
    <!-- 0 -->
    <g style="fill: #262626" transform="translate(272.89555 137.370575) scale(0.1 -0.1)">
     <use xlink:href="#DejaVuSans-30"/>
    </g>
   </g>
   <g id="text_58">
    <!-- 1 -->
    <g style="fill: #262626" transform="translate(299.50675 137.370575) scale(0.1 -0.1)">
     <use xlink:href="#DejaVuSans-31"/>
    </g>
   </g>
   <g id="text_59">
    <!-- 5 -->
    <g style="fill: #262626" transform="translate(326.11795 137.370575) scale(0.1 -0.1)">
     <use xlink:href="#DejaVuSans-35"/>
    </g>
   </g>
   <g id="text_60">
    <!-- 0 -->
    <g style="fill: #262626" transform="translate(352.72915 137.370575) scale(0.1 -0.1)">
     <use xlink:href="#DejaVuSans-30"/>
    </g>
   </g>
   <g id="text_61">
    <!-- 0 -->
    <g style="fill: #262626" transform="translate(113.22835 163.981775) scale(0.1 -0.1)">
     <use xlink:href="#DejaVuSans-30"/>
    </g>
   </g>
   <g id="text_62">
    <!-- 1 -->
    <g style="fill: #262626" transform="translate(139.83955 163.981775) scale(0.1 -0.1)">
     <use xlink:href="#DejaVuSans-31"/>
    </g>
   </g>
   <g id="text_63">
    <!-- 0 -->
    <g style="fill: #262626" transform="translate(166.45075 163.981775) scale(0.1 -0.1)">
     <use xlink:href="#DejaVuSans-30"/>
    </g>
   </g>
   <g id="text_64">
    <!-- 0 -->
    <g style="fill: #262626" transform="translate(193.06195 163.981775) scale(0.1 -0.1)">
     <use xlink:href="#DejaVuSans-30"/>
    </g>
   </g>
   <g id="text_65">
    <!-- 31 -->
    <g style="fill: #ffffff" transform="translate(216.4919 163.981775) scale(0.1 -0.1)">
     <use xlink:href="#DejaVuSans-33"/>
     <use xlink:href="#DejaVuSans-31" x="63.623047"/>
    </g>
   </g>
   <g id="text_66">
    <!-- 0 -->
    <g style="fill: #262626" transform="translate(246.28435 163.981775) scale(0.1 -0.1)">
     <use xlink:href="#DejaVuSans-30"/>
    </g>
   </g>
   <g id="text_67">
    <!-- 0 -->
    <g style="fill: #262626" transform="translate(272.89555 163.981775) scale(0.1 -0.1)">
     <use xlink:href="#DejaVuSans-30"/>
    </g>
   </g>
   <g id="text_68">
    <!-- 6 -->
    <g style="fill: #262626" transform="translate(299.50675 163.981775) scale(0.1 -0.1)">
     <use xlink:href="#DejaVuSans-36"/>
    </g>
   </g>
   <g id="text_69">
    <!-- 0 -->
    <g style="fill: #262626" transform="translate(326.11795 163.981775) scale(0.1 -0.1)">
     <use xlink:href="#DejaVuSans-30"/>
    </g>
   </g>
   <g id="text_70">
    <!-- 0 -->
    <g style="fill: #262626" transform="translate(352.72915 163.981775) scale(0.1 -0.1)">
     <use xlink:href="#DejaVuSans-30"/>
    </g>
   </g>
   <g id="text_71">
    <!-- 0 -->
    <g style="fill: #262626" transform="translate(113.22835 190.592975) scale(0.1 -0.1)">
     <use xlink:href="#DejaVuSans-30"/>
    </g>
   </g>
   <g id="text_72">
    <!-- 1 -->
    <g style="fill: #262626" transform="translate(139.83955 190.592975) scale(0.1 -0.1)">
     <use xlink:href="#DejaVuSans-31"/>
    </g>
   </g>
   <g id="text_73">
    <!-- 0 -->
    <g style="fill: #262626" transform="translate(166.45075 190.592975) scale(0.1 -0.1)">
     <use xlink:href="#DejaVuSans-30"/>
    </g>
   </g>
   <g id="text_74">
    <!-- 1 -->
    <g style="fill: #262626" transform="translate(193.06195 190.592975) scale(0.1 -0.1)">
     <use xlink:href="#DejaVuSans-31"/>
    </g>
   </g>
   <g id="text_75">
    <!-- 0 -->
    <g style="fill: #262626" transform="translate(219.67315 190.592975) scale(0.1 -0.1)">
     <use xlink:href="#DejaVuSans-30"/>
    </g>
   </g>
   <g id="text_76">
    <!-- 43 -->
    <g style="fill: #ffffff" transform="translate(243.1031 190.592975) scale(0.1 -0.1)">
     <use xlink:href="#DejaVuSans-34"/>
     <use xlink:href="#DejaVuSans-33" x="63.623047"/>
    </g>
   </g>
   <g id="text_77">
    <!-- 0 -->
    <g style="fill: #262626" transform="translate(272.89555 190.592975) scale(0.1 -0.1)">
     <use xlink:href="#DejaVuSans-30"/>
    </g>
   </g>
   <g id="text_78">
    <!-- 3 -->
    <g style="fill: #262626" transform="translate(299.50675 190.592975) scale(0.1 -0.1)">
     <use xlink:href="#DejaVuSans-33"/>
    </g>
   </g>
   <g id="text_79">
    <!-- 0 -->
    <g style="fill: #262626" transform="translate(326.11795 190.592975) scale(0.1 -0.1)">
     <use xlink:href="#DejaVuSans-30"/>
    </g>
   </g>
   <g id="text_80">
    <!-- 0 -->
    <g style="fill: #262626" transform="translate(352.72915 190.592975) scale(0.1 -0.1)">
     <use xlink:href="#DejaVuSans-30"/>
    </g>
   </g>
   <g id="text_81">
    <!-- 0 -->
    <g style="fill: #262626" transform="translate(113.22835 217.204175) scale(0.1 -0.1)">
     <use xlink:href="#DejaVuSans-30"/>
    </g>
   </g>
   <g id="text_82">
    <!-- 0 -->
    <g style="fill: #262626" transform="translate(139.83955 217.204175) scale(0.1 -0.1)">
     <use xlink:href="#DejaVuSans-30"/>
    </g>
   </g>
   <g id="text_83">
    <!-- 1 -->
    <g style="fill: #262626" transform="translate(166.45075 217.204175) scale(0.1 -0.1)">
     <use xlink:href="#DejaVuSans-31"/>
    </g>
   </g>
   <g id="text_84">
    <!-- 0 -->
    <g style="fill: #262626" transform="translate(193.06195 217.204175) scale(0.1 -0.1)">
     <use xlink:href="#DejaVuSans-30"/>
    </g>
   </g>
   <g id="text_85">
    <!-- 0 -->
    <g style="fill: #262626" transform="translate(219.67315 217.204175) scale(0.1 -0.1)">
     <use xlink:href="#DejaVuSans-30"/>
    </g>
   </g>
   <g id="text_86">
    <!-- 0 -->
    <g style="fill: #262626" transform="translate(246.28435 217.204175) scale(0.1 -0.1)">
     <use xlink:href="#DejaVuSans-30"/>
    </g>
   </g>
   <g id="text_87">
    <!-- 51 -->
    <g style="fill: #ffffff" transform="translate(269.7143 217.204175) scale(0.1 -0.1)">
     <use xlink:href="#DejaVuSans-35"/>
     <use xlink:href="#DejaVuSans-31" x="63.623047"/>
    </g>
   </g>
   <g id="text_88">
    <!-- 0 -->
    <g style="fill: #262626" transform="translate(299.50675 217.204175) scale(0.1 -0.1)">
     <use xlink:href="#DejaVuSans-30"/>
    </g>
   </g>
   <g id="text_89">
    <!-- 0 -->
    <g style="fill: #262626" transform="translate(326.11795 217.204175) scale(0.1 -0.1)">
     <use xlink:href="#DejaVuSans-30"/>
    </g>
   </g>
   <g id="text_90">
    <!-- 0 -->
    <g style="fill: #262626" transform="translate(352.72915 217.204175) scale(0.1 -0.1)">
     <use xlink:href="#DejaVuSans-30"/>
    </g>
   </g>
   <g id="text_91">
    <!-- 0 -->
    <g style="fill: #262626" transform="translate(113.22835 243.815375) scale(0.1 -0.1)">
     <use xlink:href="#DejaVuSans-30"/>
    </g>
   </g>
   <g id="text_92">
    <!-- 0 -->
    <g style="fill: #262626" transform="translate(139.83955 243.815375) scale(0.1 -0.1)">
     <use xlink:href="#DejaVuSans-30"/>
    </g>
   </g>
   <g id="text_93">
    <!-- 0 -->
    <g style="fill: #262626" transform="translate(166.45075 243.815375) scale(0.1 -0.1)">
     <use xlink:href="#DejaVuSans-30"/>
    </g>
   </g>
   <g id="text_94">
    <!-- 0 -->
    <g style="fill: #262626" transform="translate(193.06195 243.815375) scale(0.1 -0.1)">
     <use xlink:href="#DejaVuSans-30"/>
    </g>
   </g>
   <g id="text_95">
    <!-- 1 -->
    <g style="fill: #262626" transform="translate(219.67315 243.815375) scale(0.1 -0.1)">
     <use xlink:href="#DejaVuSans-31"/>
    </g>
   </g>
   <g id="text_96">
    <!-- 0 -->
    <g style="fill: #262626" transform="translate(246.28435 243.815375) scale(0.1 -0.1)">
     <use xlink:href="#DejaVuSans-30"/>
    </g>
   </g>
   <g id="text_97">
    <!-- 0 -->
    <g style="fill: #262626" transform="translate(272.89555 243.815375) scale(0.1 -0.1)">
     <use xlink:href="#DejaVuSans-30"/>
    </g>
   </g>
   <g id="text_98">
    <!-- 47 -->
    <g style="fill: #ffffff" transform="translate(296.3255 243.815375) scale(0.1 -0.1)">
     <use xlink:href="#DejaVuSans-34"/>
     <use xlink:href="#DejaVuSans-37" x="63.623047"/>
    </g>
   </g>
   <g id="text_99">
    <!-- 0 -->
    <g style="fill: #262626" transform="translate(326.11795 243.815375) scale(0.1 -0.1)">
     <use xlink:href="#DejaVuSans-30"/>
    </g>
   </g>
   <g id="text_100">
    <!-- 0 -->
    <g style="fill: #262626" transform="translate(352.72915 243.815375) scale(0.1 -0.1)">
     <use xlink:href="#DejaVuSans-30"/>
    </g>
   </g>
   <g id="text_101">
    <!-- 0 -->
    <g style="fill: #262626" transform="translate(113.22835 270.426575) scale(0.1 -0.1)">
     <use xlink:href="#DejaVuSans-30"/>
    </g>
   </g>
   <g id="text_102">
    <!-- 6 -->
    <g style="fill: #262626" transform="translate(139.83955 270.426575) scale(0.1 -0.1)">
     <use xlink:href="#DejaVuSans-36"/>
    </g>
   </g>
   <g id="text_103">
    <!-- 0 -->
    <g style="fill: #262626" transform="translate(166.45075 270.426575) scale(0.1 -0.1)">
     <use xlink:href="#DejaVuSans-30"/>
    </g>
   </g>
   <g id="text_104">
    <!-- 1 -->
    <g style="fill: #262626" transform="translate(193.06195 270.426575) scale(0.1 -0.1)">
     <use xlink:href="#DejaVuSans-31"/>
    </g>
   </g>
   <g id="text_105">
    <!-- 0 -->
    <g style="fill: #262626" transform="translate(219.67315 270.426575) scale(0.1 -0.1)">
     <use xlink:href="#DejaVuSans-30"/>
    </g>
   </g>
   <g id="text_106">
    <!-- 1 -->
    <g style="fill: #262626" transform="translate(246.28435 270.426575) scale(0.1 -0.1)">
     <use xlink:href="#DejaVuSans-31"/>
    </g>
   </g>
   <g id="text_107">
    <!-- 0 -->
    <g style="fill: #262626" transform="translate(272.89555 270.426575) scale(0.1 -0.1)">
     <use xlink:href="#DejaVuSans-30"/>
    </g>
   </g>
   <g id="text_108">
    <!-- 2 -->
    <g style="fill: #262626" transform="translate(299.50675 270.426575) scale(0.1 -0.1)">
     <use xlink:href="#DejaVuSans-32"/>
    </g>
   </g>
   <g id="text_109">
    <!-- 38 -->
    <g style="fill: #ffffff" transform="translate(322.9367 270.426575) scale(0.1 -0.1)">
     <use xlink:href="#DejaVuSans-33"/>
     <use xlink:href="#DejaVuSans-38" x="63.623047"/>
    </g>
   </g>
   <g id="text_110">
    <!-- 0 -->
    <g style="fill: #262626" transform="translate(352.72915 270.426575) scale(0.1 -0.1)">
     <use xlink:href="#DejaVuSans-30"/>
    </g>
   </g>
   <g id="text_111">
    <!-- 0 -->
    <g style="fill: #262626" transform="translate(113.22835 297.037775) scale(0.1 -0.1)">
     <use xlink:href="#DejaVuSans-30"/>
    </g>
   </g>
   <g id="text_112">
    <!-- 2 -->
    <g style="fill: #262626" transform="translate(139.83955 297.037775) scale(0.1 -0.1)">
     <use xlink:href="#DejaVuSans-32"/>
    </g>
   </g>
   <g id="text_113">
    <!-- 0 -->
    <g style="fill: #262626" transform="translate(166.45075 297.037775) scale(0.1 -0.1)">
     <use xlink:href="#DejaVuSans-30"/>
    </g>
   </g>
   <g id="text_114">
    <!-- 4 -->
    <g style="fill: #262626" transform="translate(193.06195 297.037775) scale(0.1 -0.1)">
     <use xlink:href="#DejaVuSans-34"/>
    </g>
   </g>
   <g id="text_115">
    <!-- 1 -->
    <g style="fill: #262626" transform="translate(219.67315 297.037775) scale(0.1 -0.1)">
     <use xlink:href="#DejaVuSans-31"/>
    </g>
   </g>
   <g id="text_116">
    <!-- 0 -->
    <g style="fill: #262626" transform="translate(246.28435 297.037775) scale(0.1 -0.1)">
     <use xlink:href="#DejaVuSans-30"/>
    </g>
   </g>
   <g id="text_117">
    <!-- 0 -->
    <g style="fill: #262626" transform="translate(272.89555 297.037775) scale(0.1 -0.1)">
     <use xlink:href="#DejaVuSans-30"/>
    </g>
   </g>
   <g id="text_118">
    <!-- 3 -->
    <g style="fill: #262626" transform="translate(299.50675 297.037775) scale(0.1 -0.1)">
     <use xlink:href="#DejaVuSans-33"/>
    </g>
   </g>
   <g id="text_119">
    <!-- 7 -->
    <g style="fill: #262626" transform="translate(326.11795 297.037775) scale(0.1 -0.1)">
     <use xlink:href="#DejaVuSans-37"/>
    </g>
   </g>
   <g id="text_120">
    <!-- 30 -->
    <g style="fill: #ffffff" transform="translate(349.5479 297.037775) scale(0.1 -0.1)">
     <use xlink:href="#DejaVuSans-33"/>
     <use xlink:href="#DejaVuSans-30" x="63.623047"/>
    </g>
   </g>
  </g>
 </g>
 <defs>
  <clipPath id="p91e5b6a573">
   <rect x="103.104" y="41.472" width="266.112" height="266.112"/>
  </clipPath>
 </defs>
</svg>
