<?xml version="1.0" encoding="utf-8" standalone="no"?>
<!DOCTYPE svg PUBLIC "-//W3C//DTD SVG 1.1//EN"
  "http://www.w3.org/Graphics/SVG/1.1/DTD/svg11.dtd">
<svg xmlns:xlink="http://www.w3.org/1999/xlink" width="460.8pt" height="345.6pt" viewBox="0 0 460.8 345.6" xmlns="http://www.w3.org/2000/svg" version="1.1">
 <metadata>
  <rdf:RDF xmlns:dc="http://purl.org/dc/elements/1.1/" xmlns:cc="http://creativecommons.org/ns#" xmlns:rdf="http://www.w3.org/1999/02/22-rdf-syntax-ns#">
   <cc:Work>
    <dc:type rdf:resource="http://purl.org/dc/dcmitype/StillImage"/>
    <dc:date>2023-08-15T14:42:21.660680</dc:date>
    <dc:format>image/svg+xml</dc:format>
    <dc:creator>
     <cc:Agent>
      <dc:title>Matplotlib v3.7.1, https://matplotlib.org/</dc:title>
     </cc:Agent>
    </dc:creator>
   </cc:Work>
  </rdf:RDF>
 </metadata>
 <defs>
  <style type="text/css">*{stroke-linejoin: round; stroke-linecap: butt}</style>
 </defs>
 <g id="figure_1">
  <g id="patch_1">
   <path d="M 0 345.6 
L 460.8 345.6 
L 460.8 0 
L 0 0 
z
" style="fill: #ffffff"/>
  </g>
  <g id="axes_1">
   <g id="patch_2">
    <path d="M 57.6 307.584 
L 414.72 307.584 
L 414.72 41.472 
L 57.6 41.472 
z
" style="fill: #ffffff"/>
   </g>
   <g id="PathCollection_1">
    <defs>
     <path id="mfbd59e3d99" d="M 0 3 
C 0.795609 3 1.55874 2.683901 2.12132 2.12132 
C 2.683901 1.55874 3 0.795609 3 0 
C 3 -0.795609 2.683901 -1.55874 2.12132 -2.12132 
C 1.55874 -2.683901 0.795609 -3 0 -3 
C -0.795609 -3 -1.55874 -2.683901 -2.12132 -2.12132 
C -2.683901 -1.55874 -3 -0.795609 -3 0 
C -3 0.795609 -2.683901 1.55874 -2.12132 2.12132 
C -1.55874 2.683901 -0.795609 3 0 3 
z
" style="stroke: #1f77b4"/>
    </defs>
    <g clip-path="url(#pfa30417761)">
     <use xlink:href="#mfbd59e3d99" x="202.217399" y="192.425434" style="fill: #1f77b4; stroke: #1f77b4"/>
     <use xlink:href="#mfbd59e3d99" x="358.098707" y="80.737323" style="fill: #1f77b4; stroke: #1f77b4"/>
     <use xlink:href="#mfbd59e3d99" x="298.924906" y="128.255332" style="fill: #1f77b4; stroke: #1f77b4"/>
     <use xlink:href="#mfbd59e3d99" x="262.851604" y="157.329964" style="fill: #1f77b4; stroke: #1f77b4"/>
     <use xlink:href="#mfbd59e3d99" x="143.097407" y="259.576804" style="fill: #1f77b4; stroke: #1f77b4"/>
     <use xlink:href="#mfbd59e3d99" x="143.090881" y="251.847849" style="fill: #1f77b4; stroke: #1f77b4"/>
     <use xlink:href="#mfbd59e3d99" x="116.60153" y="269.167386" style="fill: #1f77b4; stroke: #1f77b4"/>
     <use xlink:href="#mfbd59e3d99" x="335.227292" y="88.943493" style="fill: #1f77b4; stroke: #1f77b4"/>
     <use xlink:href="#mfbd59e3d99" x="263.516207" y="150.256913" style="fill: #1f77b4; stroke: #1f77b4"/>
     <use xlink:href="#mfbd59e3d99" x="292.45309" y="149.925684" style="fill: #1f77b4; stroke: #1f77b4"/>
     <use xlink:href="#mfbd59e3d99" x="106.456314" y="268.813247" style="fill: #1f77b4; stroke: #1f77b4"/>
     <use xlink:href="#mfbd59e3d99" x="363.291975" y="82.496172" style="fill: #1f77b4; stroke: #1f77b4"/>
     <use xlink:href="#mfbd59e3d99" x="326.100845" y="113.497645" style="fill: #1f77b4; stroke: #1f77b4"/>
     <use xlink:href="#mfbd59e3d99" x="158.334654" y="226.787082" style="fill: #1f77b4; stroke: #1f77b4"/>
     <use xlink:href="#mfbd59e3d99" x="150.079191" y="228.733702" style="fill: #1f77b4; stroke: #1f77b4"/>
     <use xlink:href="#mfbd59e3d99" x="150.506529" y="229.428196" style="fill: #1f77b4; stroke: #1f77b4"/>
     <use xlink:href="#mfbd59e3d99" x="183.198629" y="222.840328" style="fill: #1f77b4; stroke: #1f77b4"/>
     <use xlink:href="#mfbd59e3d99" x="242.85774" y="172.479601" style="fill: #1f77b4; stroke: #1f77b4"/>
     <use xlink:href="#mfbd59e3d99" x="217.748034" y="184.872839" style="fill: #1f77b4; stroke: #1f77b4"/>
     <use xlink:href="#mfbd59e3d99" x="179.677993" y="206.993931" style="fill: #1f77b4; stroke: #1f77b4"/>
     <use xlink:href="#mfbd59e3d99" x="266.421292" y="156.455149" style="fill: #1f77b4; stroke: #1f77b4"/>
     <use xlink:href="#mfbd59e3d99" x="138.626703" y="249.766543" style="fill: #1f77b4; stroke: #1f77b4"/>
     <use xlink:href="#mfbd59e3d99" x="179.925679" y="228.029721" style="fill: #1f77b4; stroke: #1f77b4"/>
     <use xlink:href="#mfbd59e3d99" x="200.004804" y="213.814634" style="fill: #1f77b4; stroke: #1f77b4"/>
     <use xlink:href="#mfbd59e3d99" x="224.274934" y="175.048365" style="fill: #1f77b4; stroke: #1f77b4"/>
     <use xlink:href="#mfbd59e3d99" x="313.31306" y="102.408449" style="fill: #1f77b4; stroke: #1f77b4"/>
     <use xlink:href="#mfbd59e3d99" x="154.908107" y="236.338678" style="fill: #1f77b4; stroke: #1f77b4"/>
     <use xlink:href="#mfbd59e3d99" x="240.011063" y="161.242828" style="fill: #1f77b4; stroke: #1f77b4"/>
     <use xlink:href="#mfbd59e3d99" x="261.162342" y="151.847068" style="fill: #1f77b4; stroke: #1f77b4"/>
     <use xlink:href="#mfbd59e3d99" x="113.454221" y="273.419713" style="fill: #1f77b4; stroke: #1f77b4"/>
     <use xlink:href="#mfbd59e3d99" x="265.255771" y="148.764792" style="fill: #1f77b4; stroke: #1f77b4"/>
     <use xlink:href="#mfbd59e3d99" x="147.021799" y="225.869015" style="fill: #1f77b4; stroke: #1f77b4"/>
     <use xlink:href="#mfbd59e3d99" x="118.486686" y="263.416279" style="fill: #1f77b4; stroke: #1f77b4"/>
     <use xlink:href="#mfbd59e3d99" x="357.603942" y="66.907282" style="fill: #1f77b4; stroke: #1f77b4"/>
     <use xlink:href="#mfbd59e3d99" x="362.13463" y="106.148215" style="fill: #1f77b4; stroke: #1f77b4"/>
     <use xlink:href="#mfbd59e3d99" x="319.595501" y="103.121101" style="fill: #1f77b4; stroke: #1f77b4"/>
     <use xlink:href="#mfbd59e3d99" x="183.299143" y="213.322349" style="fill: #1f77b4; stroke: #1f77b4"/>
     <use xlink:href="#mfbd59e3d99" x="127.312019" y="259.448523" style="fill: #1f77b4; stroke: #1f77b4"/>
     <use xlink:href="#mfbd59e3d99" x="286.003408" y="135.878412" style="fill: #1f77b4; stroke: #1f77b4"/>
     <use xlink:href="#mfbd59e3d99" x="219.968529" y="206.837424" style="fill: #1f77b4; stroke: #1f77b4"/>
     <use xlink:href="#mfbd59e3d99" x="133.904162" y="253.672079" style="fill: #1f77b4; stroke: #1f77b4"/>
     <use xlink:href="#mfbd59e3d99" x="234.855135" y="171.717766" style="fill: #1f77b4; stroke: #1f77b4"/>
     <use xlink:href="#mfbd59e3d99" x="110.190931" y="254.237109" style="fill: #1f77b4; stroke: #1f77b4"/>
     <use xlink:href="#mfbd59e3d99" x="346.899774" y="96.206709" style="fill: #1f77b4; stroke: #1f77b4"/>
     <use xlink:href="#mfbd59e3d99" x="170.89902" y="231.795871" style="fill: #1f77b4; stroke: #1f77b4"/>
     <use xlink:href="#mfbd59e3d99" x="280.129665" y="146.354999" style="fill: #1f77b4; stroke: #1f77b4"/>
     <use xlink:href="#mfbd59e3d99" x="185.219287" y="203.431212" style="fill: #1f77b4; stroke: #1f77b4"/>
     <use xlink:href="#mfbd59e3d99" x="241.589312" y="166.932138" style="fill: #1f77b4; stroke: #1f77b4"/>
     <use xlink:href="#mfbd59e3d99" x="248.797254" y="170.25194" style="fill: #1f77b4; stroke: #1f77b4"/>
     <use xlink:href="#mfbd59e3d99" x="150.898805" y="233.393757" style="fill: #1f77b4; stroke: #1f77b4"/>
    </g>
   </g>
   <g id="matplotlib.axis_1">
    <g id="xtick_1">
     <g id="line2d_1">
      <defs>
       <path id="mc07a10ce1f" d="M 0 0 
L 0 3.5 
" style="stroke: #000000; stroke-width: 0.8"/>
      </defs>
      <g>
       <use xlink:href="#mc07a10ce1f" x="100.887273" y="307.584" style="stroke: #000000; stroke-width: 0.8"/>
      </g>
     </g>
     <g id="text_1">
      <!-- 0 -->
      <g transform="translate(97.706023 322.182437) scale(0.1 -0.1)">
       <defs>
        <path id="DejaVuSans-30" d="M 2034 4250 
Q 1547 4250 1301 3770 
Q 1056 3291 1056 2328 
Q 1056 1369 1301 889 
Q 1547 409 2034 409 
Q 2525 409 2770 889 
Q 3016 1369 3016 2328 
Q 3016 3291 2770 3770 
Q 2525 4250 2034 4250 
z
M 2034 4750 
Q 2819 4750 3233 4129 
Q 3647 3509 3647 2328 
Q 3647 1150 3233 529 
Q 2819 -91 2034 -91 
Q 1250 -91 836 529 
Q 422 1150 422 2328 
Q 422 3509 836 4129 
Q 1250 4750 2034 4750 
z
" transform="scale(0.015625)"/>
       </defs>
       <use xlink:href="#DejaVuSans-30"/>
      </g>
     </g>
    </g>
    <g id="xtick_2">
     <g id="line2d_2">
      <g>
       <use xlink:href="#mc07a10ce1f" x="154.996364" y="307.584" style="stroke: #000000; stroke-width: 0.8"/>
      </g>
     </g>
     <g id="text_2">
      <!-- 2 -->
      <g transform="translate(151.815114 322.182437) scale(0.1 -0.1)">
       <defs>
        <path id="DejaVuSans-32" d="M 1228 531 
L 3431 531 
L 3431 0 
L 469 0 
L 469 531 
Q 828 903 1448 1529 
Q 2069 2156 2228 2338 
Q 2531 2678 2651 2914 
Q 2772 3150 2772 3378 
Q 2772 3750 2511 3984 
Q 2250 4219 1831 4219 
Q 1534 4219 1204 4116 
Q 875 4013 500 3803 
L 500 4441 
Q 881 4594 1212 4672 
Q 1544 4750 1819 4750 
Q 2544 4750 2975 4387 
Q 3406 4025 3406 3419 
Q 3406 3131 3298 2873 
Q 3191 2616 2906 2266 
Q 2828 2175 2409 1742 
Q 1991 1309 1228 531 
z
" transform="scale(0.015625)"/>
       </defs>
       <use xlink:href="#DejaVuSans-32"/>
      </g>
     </g>
    </g>
    <g id="xtick_3">
     <g id="line2d_3">
      <g>
       <use xlink:href="#mc07a10ce1f" x="209.105455" y="307.584" style="stroke: #000000; stroke-width: 0.8"/>
      </g>
     </g>
     <g id="text_3">
      <!-- 4 -->
      <g transform="translate(205.924205 322.182437) scale(0.1 -0.1)">
       <defs>
        <path id="DejaVuSans-34" d="M 2419 4116 
L 825 1625 
L 2419 1625 
L 2419 4116 
z
M 2253 4666 
L 3047 4666 
L 3047 1625 
L 3713 1625 
L 3713 1100 
L 3047 1100 
L 3047 0 
L 2419 0 
L 2419 1100 
L 313 1100 
L 313 1709 
L 2253 4666 
z
" transform="scale(0.015625)"/>
       </defs>
       <use xlink:href="#DejaVuSans-34"/>
      </g>
     </g>
    </g>
    <g id="xtick_4">
     <g id="line2d_4">
      <g>
       <use xlink:href="#mc07a10ce1f" x="263.214545" y="307.584" style="stroke: #000000; stroke-width: 0.8"/>
      </g>
     </g>
     <g id="text_4">
      <!-- 6 -->
      <g transform="translate(260.033295 322.182437) scale(0.1 -0.1)">
       <defs>
        <path id="DejaVuSans-36" d="M 2113 2584 
Q 1688 2584 1439 2293 
Q 1191 2003 1191 1497 
Q 1191 994 1439 701 
Q 1688 409 2113 409 
Q 2538 409 2786 701 
Q 3034 994 3034 1497 
Q 3034 2003 2786 2293 
Q 2538 2584 2113 2584 
z
M 3366 4563 
L 3366 3988 
Q 3128 4100 2886 4159 
Q 2644 4219 2406 4219 
Q 1781 4219 1451 3797 
Q 1122 3375 1075 2522 
Q 1259 2794 1537 2939 
Q 1816 3084 2150 3084 
Q 2853 3084 3261 2657 
Q 3669 2231 3669 1497 
Q 3669 778 3244 343 
Q 2819 -91 2113 -91 
Q 1303 -91 875 529 
Q 447 1150 447 2328 
Q 447 3434 972 4092 
Q 1497 4750 2381 4750 
Q 2619 4750 2861 4703 
Q 3103 4656 3366 4563 
z
" transform="scale(0.015625)"/>
       </defs>
       <use xlink:href="#DejaVuSans-36"/>
      </g>
     </g>
    </g>
    <g id="xtick_5">
     <g id="line2d_5">
      <g>
       <use xlink:href="#mc07a10ce1f" x="317.323636" y="307.584" style="stroke: #000000; stroke-width: 0.8"/>
      </g>
     </g>
     <g id="text_5">
      <!-- 8 -->
      <g transform="translate(314.142386 322.182437) scale(0.1 -0.1)">
       <defs>
        <path id="DejaVuSans-38" d="M 2034 2216 
Q 1584 2216 1326 1975 
Q 1069 1734 1069 1313 
Q 1069 891 1326 650 
Q 1584 409 2034 409 
Q 2484 409 2743 651 
Q 3003 894 3003 1313 
Q 3003 1734 2745 1975 
Q 2488 2216 2034 2216 
z
M 1403 2484 
Q 997 2584 770 2862 
Q 544 3141 544 3541 
Q 544 4100 942 4425 
Q 1341 4750 2034 4750 
Q 2731 4750 3128 4425 
Q 3525 4100 3525 3541 
Q 3525 3141 3298 2862 
Q 3072 2584 2669 2484 
Q 3125 2378 3379 2068 
Q 3634 1759 3634 1313 
Q 3634 634 3220 271 
Q 2806 -91 2034 -91 
Q 1263 -91 848 271 
Q 434 634 434 1313 
Q 434 1759 690 2068 
Q 947 2378 1403 2484 
z
M 1172 3481 
Q 1172 3119 1398 2916 
Q 1625 2713 2034 2713 
Q 2441 2713 2670 2916 
Q 2900 3119 2900 3481 
Q 2900 3844 2670 4047 
Q 2441 4250 2034 4250 
Q 1625 4250 1398 4047 
Q 1172 3844 1172 3481 
z
" transform="scale(0.015625)"/>
       </defs>
       <use xlink:href="#DejaVuSans-38"/>
      </g>
     </g>
    </g>
    <g id="xtick_6">
     <g id="line2d_6">
      <g>
       <use xlink:href="#mc07a10ce1f" x="371.432727" y="307.584" style="stroke: #000000; stroke-width: 0.8"/>
      </g>
     </g>
     <g id="text_6">
      <!-- 10 -->
      <g transform="translate(365.070227 322.182437) scale(0.1 -0.1)">
       <defs>
        <path id="DejaVuSans-31" d="M 794 531 
L 1825 531 
L 1825 4091 
L 703 3866 
L 703 4441 
L 1819 4666 
L 2450 4666 
L 2450 531 
L 3481 531 
L 3481 0 
L 794 0 
L 794 531 
z
" transform="scale(0.015625)"/>
       </defs>
       <use xlink:href="#DejaVuSans-31"/>
       <use xlink:href="#DejaVuSans-30" x="63.623047"/>
      </g>
     </g>
    </g>
   </g>
   <g id="matplotlib.axis_2">
    <g id="ytick_1">
     <g id="line2d_7">
      <defs>
       <path id="mc231c6da0e" d="M 0 0 
L -3.5 0 
" style="stroke: #000000; stroke-width: 0.8"/>
      </defs>
      <g>
       <use xlink:href="#mc231c6da0e" x="57.6" y="266.119756" style="stroke: #000000; stroke-width: 0.8"/>
      </g>
     </g>
     <g id="text_7">
      <!-- 0 -->
      <g transform="translate(44.2375 269.918975) scale(0.1 -0.1)">
       <use xlink:href="#DejaVuSans-30"/>
      </g>
     </g>
    </g>
    <g id="ytick_2">
     <g id="line2d_8">
      <g>
       <use xlink:href="#mc231c6da0e" x="57.6" y="215.150341" style="stroke: #000000; stroke-width: 0.8"/>
      </g>
     </g>
     <g id="text_8">
      <!-- 5 -->
      <g transform="translate(44.2375 218.94956) scale(0.1 -0.1)">
       <defs>
        <path id="DejaVuSans-35" d="M 691 4666 
L 3169 4666 
L 3169 4134 
L 1269 4134 
L 1269 2991 
Q 1406 3038 1543 3061 
Q 1681 3084 1819 3084 
Q 2600 3084 3056 2656 
Q 3513 2228 3513 1497 
Q 3513 744 3044 326 
Q 2575 -91 1722 -91 
Q 1428 -91 1123 -41 
Q 819 9 494 109 
L 494 744 
Q 775 591 1075 516 
Q 1375 441 1709 441 
Q 2250 441 2565 725 
Q 2881 1009 2881 1497 
Q 2881 1984 2565 2268 
Q 2250 2553 1709 2553 
Q 1456 2553 1204 2497 
Q 953 2441 691 2322 
L 691 4666 
z
" transform="scale(0.015625)"/>
       </defs>
       <use xlink:href="#DejaVuSans-35"/>
      </g>
     </g>
    </g>
    <g id="ytick_3">
     <g id="line2d_9">
      <g>
       <use xlink:href="#mc231c6da0e" x="57.6" y="164.180926" style="stroke: #000000; stroke-width: 0.8"/>
      </g>
     </g>
     <g id="text_9">
      <!-- 10 -->
      <g transform="translate(37.875 167.980145) scale(0.1 -0.1)">
       <use xlink:href="#DejaVuSans-31"/>
       <use xlink:href="#DejaVuSans-30" x="63.623047"/>
      </g>
     </g>
    </g>
    <g id="ytick_4">
     <g id="line2d_10">
      <g>
       <use xlink:href="#mc231c6da0e" x="57.6" y="113.211511" style="stroke: #000000; stroke-width: 0.8"/>
      </g>
     </g>
     <g id="text_10">
      <!-- 15 -->
      <g transform="translate(37.875 117.01073) scale(0.1 -0.1)">
       <use xlink:href="#DejaVuSans-31"/>
       <use xlink:href="#DejaVuSans-35" x="63.623047"/>
      </g>
     </g>
    </g>
    <g id="ytick_5">
     <g id="line2d_11">
      <g>
       <use xlink:href="#mc231c6da0e" x="57.6" y="62.242096" style="stroke: #000000; stroke-width: 0.8"/>
      </g>
     </g>
     <g id="text_11">
      <!-- 20 -->
      <g transform="translate(37.875 66.041315) scale(0.1 -0.1)">
       <use xlink:href="#DejaVuSans-32"/>
       <use xlink:href="#DejaVuSans-30" x="63.623047"/>
      </g>
     </g>
    </g>
   </g>
   <g id="line2d_12">
    <path d="M 73.832727 295.488 
L 398.487273 53.568 
" clip-path="url(#pfa30417761)" style="fill: none; stroke: #1f77b4; stroke-width: 1.5; stroke-linecap: square"/>
   </g>
   <g id="patch_3">
    <path d="M 57.6 307.584 
L 57.6 41.472 
" style="fill: none; stroke: #000000; stroke-width: 0.8; stroke-linejoin: miter; stroke-linecap: square"/>
   </g>
   <g id="patch_4">
    <path d="M 414.72 307.584 
L 414.72 41.472 
" style="fill: none; stroke: #000000; stroke-width: 0.8; stroke-linejoin: miter; stroke-linecap: square"/>
   </g>
   <g id="patch_5">
    <path d="M 57.6 307.584 
L 414.72 307.584 
" style="fill: none; stroke: #000000; stroke-width: 0.8; stroke-linejoin: miter; stroke-linecap: square"/>
   </g>
   <g id="patch_6">
    <path d="M 57.6 41.472 
L 414.72 41.472 
" style="fill: none; stroke: #000000; stroke-width: 0.8; stroke-linejoin: miter; stroke-linecap: square"/>
   </g>
  </g>
 </g>
 <defs>
  <clipPath id="pfa30417761">
   <rect x="57.6" y="41.472" width="357.12" height="266.112"/>
  </clipPath>
 </defs>
</svg>
