<?xml version="1.0" encoding="utf-8" standalone="no"?>
<!DOCTYPE svg PUBLIC "-//W3C//DTD SVG 1.1//EN"
  "http://www.w3.org/Graphics/SVG/1.1/DTD/svg11.dtd">
<svg xmlns:xlink="http://www.w3.org/1999/xlink" width="460.8pt" height="345.6pt" viewBox="0 0 460.8 345.6" xmlns="http://www.w3.org/2000/svg" version="1.1">
 <metadata>
  <rdf:RDF xmlns:dc="http://purl.org/dc/elements/1.1/" xmlns:cc="http://creativecommons.org/ns#" xmlns:rdf="http://www.w3.org/1999/02/22-rdf-syntax-ns#">
   <cc:Work>
    <dc:type rdf:resource="http://purl.org/dc/dcmitype/StillImage"/>
    <dc:date>2023-09-14T09:24:17.634413</dc:date>
    <dc:format>image/svg+xml</dc:format>
    <dc:creator>
     <cc:Agent>
      <dc:title>Matplotlib v3.7.1, https://matplotlib.org/</dc:title>
     </cc:Agent>
    </dc:creator>
   </cc:Work>
  </rdf:RDF>
 </metadata>
 <defs>
  <style type="text/css">*{stroke-linejoin: round; stroke-linecap: butt}</style>
 </defs>
 <g id="figure_1">
  <g id="patch_1">
   <path d="M 0 345.6 
L 460.8 345.6 
L 460.8 0 
L 0 0 
z
" style="fill: #ffffff"/>
  </g>
  <g id="axes_1">
   <g id="patch_2">
    <path d="M 57.6 307.584 
L 414.72 307.584 
L 414.72 41.472 
L 57.6 41.472 
z
" style="fill: #ffffff"/>
   </g>
   <g id="matplotlib.axis_1">
    <g id="xtick_1">
     <g id="line2d_1">
      <path d="M 57.6 307.584 
L 57.6 41.472 
" clip-path="url(#p0afc110be6)" style="fill: none; stroke: #cccccc; stroke-width: 0.8; stroke-linecap: round"/>
     </g>
     <g id="line2d_2"/>
     <g id="text_1">
      <!-- −4 -->
      <g style="fill: #262626" transform="translate(51.899219 318.330875) scale(0.1 -0.1)">
       <defs>
        <path id="LiberationSans-2212" d="M 316 1900 
L 316 2356 
L 3425 2356 
L 3425 1900 
L 316 1900 
z
" transform="scale(0.015625)"/>
        <path id="LiberationSans-34" d="M 2753 997 
L 2753 0 
L 2222 0 
L 2222 997 
L 147 997 
L 147 1434 
L 2163 4403 
L 2753 4403 
L 2753 1441 
L 3372 1441 
L 3372 997 
L 2753 997 
z
M 2222 3769 
Q 2216 3750 2134 3603 
Q 2053 3456 2013 3397 
L 884 1734 
L 716 1503 
L 666 1441 
L 2222 1441 
L 2222 3769 
z
" transform="scale(0.015625)"/>
       </defs>
       <use xlink:href="#LiberationSans-2212"/>
       <use xlink:href="#LiberationSans-34" x="58.398438"/>
      </g>
     </g>
    </g>
    <g id="xtick_2">
     <g id="line2d_3">
      <path d="M 117.12 307.584 
L 117.12 41.472 
" clip-path="url(#p0afc110be6)" style="fill: none; stroke: #cccccc; stroke-width: 0.8; stroke-linecap: round"/>
     </g>
     <g id="line2d_4"/>
     <g id="text_2">
      <!-- −2 -->
      <g style="fill: #262626" transform="translate(111.419219 318.330875) scale(0.1 -0.1)">
       <defs>
        <path id="LiberationSans-32" d="M 322 0 
L 322 397 
Q 481 763 711 1042 
Q 941 1322 1194 1548 
Q 1447 1775 1695 1969 
Q 1944 2163 2144 2356 
Q 2344 2550 2467 2762 
Q 2591 2975 2591 3244 
Q 2591 3606 2378 3806 
Q 2166 4006 1788 4006 
Q 1428 4006 1195 3811 
Q 963 3616 922 3263 
L 347 3316 
Q 409 3844 795 4156 
Q 1181 4469 1788 4469 
Q 2453 4469 2811 4155 
Q 3169 3841 3169 3263 
Q 3169 3006 3051 2753 
Q 2934 2500 2703 2247 
Q 2472 1994 1819 1463 
Q 1459 1169 1246 933 
Q 1034 697 941 478 
L 3238 478 
L 3238 0 
L 322 0 
z
" transform="scale(0.015625)"/>
       </defs>
       <use xlink:href="#LiberationSans-2212"/>
       <use xlink:href="#LiberationSans-32" x="58.398438"/>
      </g>
     </g>
    </g>
    <g id="xtick_3">
     <g id="line2d_5">
      <path d="M 176.64 307.584 
L 176.64 41.472 
" clip-path="url(#p0afc110be6)" style="fill: none; stroke: #cccccc; stroke-width: 0.8; stroke-linecap: round"/>
     </g>
     <g id="line2d_6"/>
     <g id="text_3">
      <!-- 0 -->
      <g style="fill: #262626" transform="translate(173.859531 318.330875) scale(0.1 -0.1)">
       <defs>
        <path id="LiberationSans-30" d="M 3309 2203 
Q 3309 1100 2920 518 
Q 2531 -63 1772 -63 
Q 1013 -63 631 515 
Q 250 1094 250 2203 
Q 250 3338 620 3903 
Q 991 4469 1791 4469 
Q 2569 4469 2939 3897 
Q 3309 3325 3309 2203 
z
M 2738 2203 
Q 2738 3156 2517 3584 
Q 2297 4013 1791 4013 
Q 1272 4013 1045 3591 
Q 819 3169 819 2203 
Q 819 1266 1048 831 
Q 1278 397 1778 397 
Q 2275 397 2506 840 
Q 2738 1284 2738 2203 
z
" transform="scale(0.015625)"/>
       </defs>
       <use xlink:href="#LiberationSans-30"/>
      </g>
     </g>
    </g>
    <g id="xtick_4">
     <g id="line2d_7">
      <path d="M 236.16 307.584 
L 236.16 41.472 
" clip-path="url(#p0afc110be6)" style="fill: none; stroke: #cccccc; stroke-width: 0.8; stroke-linecap: round"/>
     </g>
     <g id="line2d_8"/>
     <g id="text_4">
      <!-- 2 -->
      <g style="fill: #262626" transform="translate(233.379531 318.330875) scale(0.1 -0.1)">
       <use xlink:href="#LiberationSans-32"/>
      </g>
     </g>
    </g>
    <g id="xtick_5">
     <g id="line2d_9">
      <path d="M 295.68 307.584 
L 295.68 41.472 
" clip-path="url(#p0afc110be6)" style="fill: none; stroke: #cccccc; stroke-width: 0.8; stroke-linecap: round"/>
     </g>
     <g id="line2d_10"/>
     <g id="text_5">
      <!-- 4 -->
      <g style="fill: #262626" transform="translate(292.899531 318.330875) scale(0.1 -0.1)">
       <use xlink:href="#LiberationSans-34"/>
      </g>
     </g>
    </g>
    <g id="xtick_6">
     <g id="line2d_11">
      <path d="M 355.2 307.584 
L 355.2 41.472 
" clip-path="url(#p0afc110be6)" style="fill: none; stroke: #cccccc; stroke-width: 0.8; stroke-linecap: round"/>
     </g>
     <g id="line2d_12"/>
     <g id="text_6">
      <!-- 6 -->
      <g style="fill: #262626" transform="translate(352.419531 318.330875) scale(0.1 -0.1)">
       <defs>
        <path id="LiberationSans-36" d="M 3278 1441 
Q 3278 744 2900 340 
Q 2522 -63 1856 -63 
Q 1113 -63 719 490 
Q 325 1044 325 2100 
Q 325 3244 734 3856 
Q 1144 4469 1900 4469 
Q 2897 4469 3156 3572 
L 2619 3475 
Q 2453 4013 1894 4013 
Q 1413 4013 1148 3564 
Q 884 3116 884 2266 
Q 1038 2550 1316 2698 
Q 1594 2847 1953 2847 
Q 2563 2847 2920 2465 
Q 3278 2084 3278 1441 
z
M 2706 1416 
Q 2706 1894 2472 2153 
Q 2238 2413 1819 2413 
Q 1425 2413 1183 2183 
Q 941 1953 941 1550 
Q 941 1041 1192 716 
Q 1444 391 1838 391 
Q 2244 391 2475 664 
Q 2706 938 2706 1416 
z
" transform="scale(0.015625)"/>
       </defs>
       <use xlink:href="#LiberationSans-36"/>
      </g>
     </g>
    </g>
    <g id="xtick_7">
     <g id="line2d_13">
      <path d="M 414.72 307.584 
L 414.72 41.472 
" clip-path="url(#p0afc110be6)" style="fill: none; stroke: #cccccc; stroke-width: 0.8; stroke-linecap: round"/>
     </g>
     <g id="line2d_14"/>
     <g id="text_7">
      <!-- 8 -->
      <g style="fill: #262626" transform="translate(411.939531 318.330875) scale(0.1 -0.1)">
       <defs>
        <path id="LiberationSans-38" d="M 3281 1228 
Q 3281 619 2893 278 
Q 2506 -63 1781 -63 
Q 1075 -63 676 271 
Q 278 606 278 1222 
Q 278 1653 525 1947 
Q 772 2241 1156 2303 
L 1156 2316 
Q 797 2400 589 2681 
Q 381 2963 381 3341 
Q 381 3844 757 4156 
Q 1134 4469 1769 4469 
Q 2419 4469 2795 4162 
Q 3172 3856 3172 3334 
Q 3172 2956 2962 2675 
Q 2753 2394 2391 2322 
L 2391 2309 
Q 2813 2241 3047 1952 
Q 3281 1663 3281 1228 
z
M 2588 3303 
Q 2588 4050 1769 4050 
Q 1372 4050 1164 3862 
Q 956 3675 956 3303 
Q 956 2925 1170 2726 
Q 1384 2528 1775 2528 
Q 2172 2528 2380 2711 
Q 2588 2894 2588 3303 
z
M 2697 1281 
Q 2697 1691 2453 1898 
Q 2209 2106 1769 2106 
Q 1341 2106 1100 1882 
Q 859 1659 859 1269 
Q 859 359 1788 359 
Q 2247 359 2472 579 
Q 2697 800 2697 1281 
z
" transform="scale(0.015625)"/>
       </defs>
       <use xlink:href="#LiberationSans-38"/>
      </g>
     </g>
    </g>
   </g>
   <g id="matplotlib.axis_2">
    <g id="ytick_1">
     <g id="line2d_15">
      <path d="M 57.6 297.348923 
L 414.72 297.348923 
" clip-path="url(#p0afc110be6)" style="fill: none; stroke: #cccccc; stroke-width: 0.8; stroke-linecap: round"/>
     </g>
     <g id="line2d_16"/>
     <g id="text_8">
      <!-- 0 -->
      <g style="fill: #262626" transform="translate(48.539062 300.972361) scale(0.1 -0.1)">
       <use xlink:href="#LiberationSans-30"/>
      </g>
     </g>
    </g>
    <g id="ytick_2">
     <g id="line2d_17">
      <path d="M 57.6 246.173538 
L 414.72 246.173538 
" clip-path="url(#p0afc110be6)" style="fill: none; stroke: #cccccc; stroke-width: 0.8; stroke-linecap: round"/>
     </g>
     <g id="line2d_18"/>
     <g id="text_9">
      <!-- 1 -->
      <g style="fill: #262626" transform="translate(48.539062 249.796976) scale(0.1 -0.1)">
       <defs>
        <path id="LiberationSans-31" d="M 488 0 
L 488 478 
L 1609 478 
L 1609 3866 
L 616 3156 
L 616 3688 
L 1656 4403 
L 2175 4403 
L 2175 478 
L 3247 478 
L 3247 0 
L 488 0 
z
" transform="scale(0.015625)"/>
       </defs>
       <use xlink:href="#LiberationSans-31"/>
      </g>
     </g>
    </g>
    <g id="ytick_3">
     <g id="line2d_19">
      <path d="M 57.6 194.998154 
L 414.72 194.998154 
" clip-path="url(#p0afc110be6)" style="fill: none; stroke: #cccccc; stroke-width: 0.8; stroke-linecap: round"/>
     </g>
     <g id="line2d_20"/>
     <g id="text_10">
      <!-- 2 -->
      <g style="fill: #262626" transform="translate(48.539062 198.621591) scale(0.1 -0.1)">
       <use xlink:href="#LiberationSans-32"/>
      </g>
     </g>
    </g>
    <g id="ytick_4">
     <g id="line2d_21">
      <path d="M 57.6 143.822769 
L 414.72 143.822769 
" clip-path="url(#p0afc110be6)" style="fill: none; stroke: #cccccc; stroke-width: 0.8; stroke-linecap: round"/>
     </g>
     <g id="line2d_22"/>
     <g id="text_11">
      <!-- 3 -->
      <g style="fill: #262626" transform="translate(48.539062 147.446207) scale(0.1 -0.1)">
       <defs>
        <path id="LiberationSans-33" d="M 3278 1216 
Q 3278 606 2890 271 
Q 2503 -63 1784 -63 
Q 1116 -63 717 239 
Q 319 541 244 1131 
L 825 1184 
Q 938 403 1784 403 
Q 2209 403 2451 612 
Q 2694 822 2694 1234 
Q 2694 1594 2417 1795 
Q 2141 1997 1619 1997 
L 1300 1997 
L 1300 2484 
L 1606 2484 
Q 2069 2484 2323 2686 
Q 2578 2888 2578 3244 
Q 2578 3597 2370 3801 
Q 2163 4006 1753 4006 
Q 1381 4006 1151 3815 
Q 922 3625 884 3278 
L 319 3322 
Q 381 3863 767 4166 
Q 1153 4469 1759 4469 
Q 2422 4469 2789 4161 
Q 3156 3853 3156 3303 
Q 3156 2881 2920 2617 
Q 2684 2353 2234 2259 
L 2234 2247 
Q 2728 2194 3003 1916 
Q 3278 1638 3278 1216 
z
" transform="scale(0.015625)"/>
       </defs>
       <use xlink:href="#LiberationSans-33"/>
      </g>
     </g>
    </g>
    <g id="ytick_5">
     <g id="line2d_23">
      <path d="M 57.6 92.647385 
L 414.72 92.647385 
" clip-path="url(#p0afc110be6)" style="fill: none; stroke: #cccccc; stroke-width: 0.8; stroke-linecap: round"/>
     </g>
     <g id="line2d_24"/>
     <g id="text_12">
      <!-- 4 -->
      <g style="fill: #262626" transform="translate(48.539062 96.270822) scale(0.1 -0.1)">
       <use xlink:href="#LiberationSans-34"/>
      </g>
     </g>
    </g>
    <g id="ytick_6">
     <g id="line2d_25">
      <path d="M 57.6 41.472 
L 414.72 41.472 
" clip-path="url(#p0afc110be6)" style="fill: none; stroke: #cccccc; stroke-width: 0.8; stroke-linecap: round"/>
     </g>
     <g id="line2d_26"/>
     <g id="text_13">
      <!-- 5 -->
      <g style="fill: #262626" transform="translate(48.539062 45.095438) scale(0.1 -0.1)">
       <defs>
        <path id="LiberationSans-35" d="M 3291 1434 
Q 3291 738 2877 337 
Q 2463 -63 1728 -63 
Q 1113 -63 734 206 
Q 356 475 256 984 
L 825 1050 
Q 1003 397 1741 397 
Q 2194 397 2450 670 
Q 2706 944 2706 1422 
Q 2706 1838 2448 2094 
Q 2191 2350 1753 2350 
Q 1525 2350 1328 2278 
Q 1131 2206 934 2034 
L 384 2034 
L 531 4403 
L 3034 4403 
L 3034 3925 
L 1044 3925 
L 959 2528 
Q 1325 2809 1869 2809 
Q 2519 2809 2905 2428 
Q 3291 2047 3291 1434 
z
" transform="scale(0.015625)"/>
       </defs>
       <use xlink:href="#LiberationSans-35"/>
      </g>
     </g>
    </g>
   </g>
   <g id="PolyCollection_1">
    <path d="M 57.6 297.348923 
L 57.6 292.126727 
L 57.957477 292.012741 
L 58.314955 291.896944 
L 58.672432 291.779326 
L 59.02991 291.659873 
L 59.387387 291.538576 
L 59.744865 291.415424 
L 60.102342 291.290404 
L 60.45982 291.163508 
L 60.817297 291.034726 
L 61.174775 290.904047 
L 61.532252 290.771462 
L 61.88973 290.636964 
L 62.247207 290.500542 
L 62.604685 290.362188 
L 62.962162 290.221896 
L 63.31964 290.079657 
L 63.677117 289.935464 
L 64.034595 289.789311 
L 64.392072 289.641191 
L 64.74955 289.491098 
L 65.107027 289.339027 
L 65.464505 289.184973 
L 65.821982 289.02893 
L 66.179459 288.870894 
L 66.536937 288.710862 
L 66.894414 288.54883 
L 67.251892 288.384793 
L 67.609369 288.218751 
L 67.966847 288.0507 
L 68.324324 287.880639 
L 68.681802 287.708565 
L 69.039279 287.534478 
L 69.396757 287.358376 
L 69.754234 287.180261 
L 70.111712 287.00013 
L 70.469189 286.817986 
L 70.826667 286.633828 
L 71.184144 286.447659 
L 71.541622 286.259479 
L 71.899099 286.069291 
L 72.256577 285.877098 
L 72.614054 285.682901 
L 72.971532 285.486704 
L 73.329009 285.288511 
L 73.686486 285.088326 
L 74.043964 284.886154 
L 74.401441 284.681998 
L 74.758919 284.475863 
L 75.116396 284.267757 
L 75.473874 284.057683 
L 75.831351 283.845649 
L 76.188829 283.63166 
L 76.546306 283.415724 
L 76.903784 283.197848 
L 77.261261 282.978039 
L 77.618739 282.756306 
L 77.976216 282.532655 
L 78.333694 282.307097 
L 78.691171 282.079639 
L 79.048649 281.85029 
L 79.406126 281.61906 
L 79.763604 281.385958 
L 80.121081 281.150995 
L 80.478559 280.91418 
L 80.836036 280.675525 
L 81.193514 280.435038 
L 81.550991 280.192733 
L 81.908468 279.948618 
L 82.265946 279.702707 
L 82.623423 279.45501 
L 82.980901 279.20554 
L 83.338378 278.954308 
L 83.695856 278.701326 
L 84.053333 278.446608 
L 84.410811 278.190165 
L 84.768288 277.932011 
L 85.125766 277.672158 
L 85.483243 277.410619 
L 85.840721 277.147408 
L 86.198198 276.882538 
L 86.555676 276.616022 
L 86.913153 276.347875 
L 87.270631 276.07811 
L 87.628108 275.806742 
L 87.985586 275.533783 
L 88.343063 275.259249 
L 88.700541 274.983153 
L 89.058018 274.70551 
L 89.415495 274.426335 
L 89.772973 274.145643 
L 90.13045 273.863446 
L 90.487928 273.579762 
L 90.845405 273.294604 
L 91.202883 273.007988 
L 91.56036 272.719928 
L 91.917838 272.430439 
L 92.275315 272.139537 
L 92.632793 271.847238 
L 92.99027 271.553556 
L 93.347748 271.258506 
L 93.705225 270.962105 
L 94.062703 270.664368 
L 94.42018 270.36531 
L 94.777658 270.064948 
L 95.135135 269.763296 
L 95.492613 269.460372 
L 95.85009 269.15619 
L 96.207568 268.850768 
L 96.565045 268.54412 
L 96.922523 268.236264 
L 97.28 267.927216 
L 97.637477 267.616992 
L 97.994955 267.305609 
L 98.352432 266.993084 
L 98.70991 266.679433 
L 99.067387 266.364673 
L 99.424865 266.048822 
L 99.782342 265.731896 
L 100.13982 265.413913 
L 100.497297 265.094892 
L 100.854775 264.774848 
L 101.212252 264.453801 
L 101.56973 264.131769 
L 101.927207 263.808769 
L 102.284685 263.484821 
L 102.642162 263.159943 
L 102.99964 262.834155 
L 103.357117 262.507475 
L 103.714595 262.179923 
L 104.072072 261.851519 
L 104.42955 261.522283 
L 104.787027 261.192236 
L 105.144505 260.861398 
L 105.501982 260.52979 
L 105.859459 260.197434 
L 106.216937 259.864351 
L 106.574414 259.530565 
L 106.931892 259.196096 
L 107.289369 258.860968 
L 107.646847 258.525205 
L 108.004324 258.188831 
L 108.361802 257.851868 
L 108.719279 257.514343 
L 109.076757 257.176281 
L 109.434234 256.837706 
L 109.791712 256.498646 
L 110.149189 256.159126 
L 110.506667 255.819175 
L 110.864144 255.478819 
L 111.221622 255.138088 
L 111.579099 254.79701 
L 111.936577 254.455614 
L 112.294054 254.113931 
L 112.651532 253.771991 
L 113.009009 253.429825 
L 113.366486 253.087467 
L 113.723964 252.744947 
L 114.081441 252.402299 
L 114.438919 252.059558 
L 114.796396 251.716758 
L 115.153874 251.373934 
L 115.511351 251.031122 
L 115.868829 250.688359 
L 116.226306 250.345681 
L 116.583784 250.003129 
L 116.941261 249.660739 
L 117.298739 249.318552 
L 117.656216 248.976607 
L 118.013694 248.634947 
L 118.371171 248.293612 
L 118.728649 247.952645 
L 119.086126 247.61209 
L 119.443604 247.27199 
L 119.801081 246.932391 
L 120.158559 246.593337 
L 120.516036 246.254874 
L 120.873514 245.917051 
L 121.230991 245.579914 
L 121.588468 245.243511 
L 121.945946 244.907893 
L 122.303423 244.573108 
L 122.660901 244.239207 
L 123.018378 243.906242 
L 123.375856 243.574264 
L 123.733333 243.243326 
L 124.090811 242.913481 
L 124.448288 242.584784 
L 124.805766 242.257287 
L 125.163243 241.931047 
L 125.520721 241.606119 
L 125.878198 241.28256 
L 126.235676 240.960426 
L 126.593153 240.639775 
L 126.950631 240.320664 
L 127.308108 240.003152 
L 127.665586 239.687298 
L 128.023063 239.373161 
L 128.380541 239.0608 
L 128.738018 238.750276 
L 129.095495 238.441649 
L 129.452973 238.13498 
L 129.81045 237.83033 
L 130.167928 237.52776 
L 130.525405 237.227331 
L 130.882883 236.929106 
L 131.24036 236.633147 
L 131.597838 236.339515 
L 131.955315 236.048273 
L 132.312793 235.759482 
L 132.67027 235.473206 
L 133.027748 235.189505 
L 133.385225 234.908444 
L 133.742703 234.630082 
L 134.10018 234.354483 
L 134.457658 234.081709 
L 134.815135 233.81182 
L 135.172613 233.544878 
L 135.53009 233.280945 
L 135.887568 233.02008 
L 136.245045 232.762344 
L 136.602523 232.507797 
L 136.96 232.256498 
L 137.317477 232.008506 
L 137.674955 231.763879 
L 138.032432 231.522676 
L 138.38991 231.284952 
L 138.747387 231.050765 
L 139.104865 230.820169 
L 139.462342 230.593221 
L 139.81982 230.369973 
L 140.177297 230.150478 
L 140.534775 229.93479 
L 140.892252 229.722959 
L 141.24973 229.515035 
L 141.607207 229.311067 
L 141.964685 229.111104 
L 142.322162 228.915193 
L 142.67964 228.723378 
L 143.037117 228.535705 
L 143.394595 228.352217 
L 143.752072 228.172956 
L 144.10955 227.997962 
L 144.467027 227.827275 
L 144.824505 227.660931 
L 145.181982 227.498969 
L 145.539459 227.341422 
L 145.896937 227.188324 
L 146.254414 227.039706 
L 146.611892 226.895598 
L 146.969369 226.75603 
L 147.326847 226.621028 
L 147.684324 226.490617 
L 148.041802 226.36482 
L 148.399279 226.24366 
L 148.756757 226.127155 
L 149.114234 226.015325 
L 149.471712 225.908185 
L 149.829189 225.80575 
L 150.186667 225.708032 
L 150.544144 225.615043 
L 150.901622 225.52679 
L 151.259099 225.443281 
L 151.616577 225.364521 
L 151.974054 225.290513 
L 152.331532 225.221257 
L 152.689009 225.156753 
L 153.046486 225.096998 
L 153.403964 225.041987 
L 153.761441 224.991713 
L 154.118919 224.946168 
L 154.476396 224.905339 
L 154.833874 224.869216 
L 155.191351 224.837782 
L 155.548829 224.811022 
L 155.906306 224.788915 
L 156.263784 224.771442 
L 156.621261 224.75858 
L 156.978739 224.750305 
L 157.336216 224.746589 
L 157.693694 224.747404 
L 158.051171 224.75272 
L 158.408649 224.762504 
L 158.766126 224.776723 
L 159.123604 224.795341 
L 159.481081 224.818319 
L 159.838559 224.845619 
L 160.196036 224.877198 
L 160.553514 224.913014 
L 160.910991 224.953022 
L 161.268468 224.997176 
L 161.625946 225.045427 
L 161.983423 225.097726 
L 162.340901 225.154021 
L 162.698378 225.214259 
L 163.055856 225.278387 
L 163.413333 225.346348 
L 163.770811 225.418085 
L 164.128288 225.49354 
L 164.485766 225.572652 
L 164.843243 225.655361 
L 165.200721 225.741604 
L 165.558198 225.831317 
L 165.915676 225.924435 
L 166.273153 226.020893 
L 166.630631 226.120623 
L 166.988108 226.223558 
L 167.345586 226.329628 
L 167.703063 226.438764 
L 168.060541 226.550894 
L 168.418018 226.665948 
L 168.775495 226.783854 
L 169.132973 226.904537 
L 169.49045 227.027925 
L 169.847928 227.153944 
L 170.205405 227.282518 
L 170.562883 227.413573 
L 170.92036 227.547032 
L 171.277838 227.682821 
L 171.635315 227.820863 
L 171.992793 227.96108 
L 172.35027 228.103397 
L 172.707748 228.247737 
L 173.065225 228.394022 
L 173.422703 228.542176 
L 173.78018 228.692121 
L 174.137658 228.843782 
L 174.495135 228.99708 
L 174.852613 229.151939 
L 175.21009 229.308284 
L 175.567568 229.466038 
L 175.925045 229.625124 
L 176.282523 229.785469 
L 176.64 229.946996 
L 176.997477 230.109632 
L 177.354955 230.273302 
L 177.712432 230.437934 
L 178.06991 230.603454 
L 178.427387 230.76979 
L 178.784865 230.936871 
L 179.142342 231.104627 
L 179.49982 231.272987 
L 179.857297 231.441883 
L 180.214775 231.611247 
L 180.572252 231.781011 
L 180.92973 231.951109 
L 181.287207 232.121476 
L 181.644685 232.292047 
L 182.002162 232.46276 
L 182.35964 232.633552 
L 182.717117 232.804362 
L 183.074595 232.975131 
L 183.432072 233.145799 
L 183.78955 233.31631 
L 184.147027 233.486606 
L 184.504505 233.656632 
L 184.861982 233.826336 
L 185.219459 233.995663 
L 185.576937 234.164563 
L 185.934414 234.332986 
L 186.291892 234.500882 
L 186.649369 234.668205 
L 187.006847 234.834909 
L 187.364324 235.000948 
L 187.721802 235.166279 
L 188.079279 235.330859 
L 188.436757 235.49465 
L 188.794234 235.657609 
L 189.151712 235.819701 
L 189.509189 235.980888 
L 189.866667 236.141134 
L 190.224144 236.300405 
L 190.581622 236.45867 
L 190.939099 236.615895 
L 191.296577 236.772052 
L 191.654054 236.92711 
L 192.011532 237.081044 
L 192.369009 237.233826 
L 192.726486 237.385431 
L 193.083964 237.535835 
L 193.441441 237.685016 
L 193.798919 237.832952 
L 194.156396 237.979623 
L 194.513874 238.12501 
L 194.871351 238.269095 
L 195.228829 238.41186 
L 195.586306 238.553289 
L 195.943784 238.693369 
L 196.301261 238.832084 
L 196.658739 238.969422 
L 197.016216 239.10537 
L 197.373694 239.239919 
L 197.731171 239.373056 
L 198.088649 239.504774 
L 198.446126 239.635063 
L 198.803604 239.763915 
L 199.161081 239.891323 
L 199.518559 240.017281 
L 199.876036 240.141782 
L 200.233514 240.264822 
L 200.590991 240.386395 
L 200.948468 240.506498 
L 201.305946 240.625126 
L 201.663423 240.742276 
L 202.020901 240.857946 
L 202.378378 240.972133 
L 202.735856 241.084833 
L 203.093333 241.196047 
L 203.450811 241.30577 
L 203.808288 241.414003 
L 204.165766 241.520742 
L 204.523243 241.625987 
L 204.880721 241.729737 
L 205.238198 241.831989 
L 205.595676 241.932743 
L 205.953153 242.031996 
L 206.310631 242.129748 
L 206.668108 242.225995 
L 207.025586 242.320736 
L 207.383063 242.413968 
L 207.740541 242.505689 
L 208.098018 242.595895 
L 208.455495 242.684583 
L 208.812973 242.771749 
L 209.17045 242.857389 
L 209.527928 242.941497 
L 209.885405 243.024068 
L 210.242883 243.105096 
L 210.60036 243.184574 
L 210.957838 243.262494 
L 211.315315 243.338849 
L 211.672793 243.41363 
L 212.03027 243.486826 
L 212.387748 243.558428 
L 212.745225 243.628424 
L 213.102703 243.696801 
L 213.46018 243.763547 
L 213.817658 243.828648 
L 214.175135 243.892088 
L 214.532613 243.953851 
L 214.89009 244.013921 
L 215.247568 244.072279 
L 215.605045 244.128905 
L 215.962523 244.18378 
L 216.32 244.236882 
L 216.677477 244.288189 
L 217.034955 244.337676 
L 217.392432 244.385319 
L 217.74991 244.431091 
L 218.107387 244.474966 
L 218.464865 244.516914 
L 218.822342 244.556906 
L 219.17982 244.59491 
L 219.537297 244.630894 
L 219.894775 244.664825 
L 220.252252 244.696667 
L 220.60973 244.726384 
L 220.967207 244.753939 
L 221.324685 244.779292 
L 221.682162 244.802404 
L 222.03964 244.823233 
L 222.397117 244.841736 
L 222.754595 244.857869 
L 223.112072 244.871586 
L 223.46955 244.882841 
L 223.827027 244.891586 
L 224.184505 244.897771 
L 224.541982 244.901345 
L 224.899459 244.902256 
L 225.256937 244.900452 
L 225.614414 244.895878 
L 225.971892 244.888477 
L 226.329369 244.878194 
L 226.686847 244.864969 
L 227.044324 244.848743 
L 227.401802 244.829456 
L 227.759279 244.807045 
L 228.116757 244.781449 
L 228.474234 244.752602 
L 228.831712 244.720439 
L 229.189189 244.684894 
L 229.546667 244.6459 
L 229.904144 244.603388 
L 230.261622 244.557288 
L 230.619099 244.507531 
L 230.976577 244.454045 
L 231.334054 244.396757 
L 231.691532 244.335594 
L 232.049009 244.270482 
L 232.406486 244.201346 
L 232.763964 244.128111 
L 233.121441 244.050699 
L 233.478919 243.969033 
L 233.836396 243.883036 
L 234.193874 243.792629 
L 234.551351 243.697732 
L 234.908829 243.598266 
L 235.266306 243.49415 
L 235.623784 243.385303 
L 235.981261 243.271643 
L 236.338739 243.15309 
L 236.696216 243.02956 
L 237.053694 242.900971 
L 237.411171 242.767241 
L 237.768649 242.628285 
L 238.126126 242.484022 
L 238.483604 242.334366 
L 238.841081 242.179235 
L 239.198559 242.018545 
L 239.556036 241.852212 
L 239.913514 241.680153 
L 240.270991 241.502283 
L 240.628468 241.31852 
L 240.985946 241.12878 
L 241.343423 240.93298 
L 241.700901 240.731037 
L 242.058378 240.522868 
L 242.415856 240.308392 
L 242.773333 240.087527 
L 243.130811 239.860191 
L 243.488288 239.626304 
L 243.845766 239.385785 
L 244.203243 239.138556 
L 244.560721 238.884537 
L 244.918198 238.623651 
L 245.275676 238.355819 
L 245.633153 238.080967 
L 245.990631 237.799017 
L 246.348108 237.509896 
L 246.705586 237.213531 
L 247.063063 236.909848 
L 247.420541 236.598776 
L 247.778018 236.280245 
L 248.135495 235.954187 
L 248.492973 235.620534 
L 248.85045 235.279218 
L 249.207928 234.930177 
L 249.565405 234.573345 
L 249.922883 234.208661 
L 250.28036 233.836065 
L 250.637838 233.455499 
L 250.995315 233.066904 
L 251.352793 232.670225 
L 251.71027 232.26541 
L 252.067748 231.852405 
L 252.425225 231.431163 
L 252.782703 231.001633 
L 253.14018 230.563771 
L 253.497658 230.117533 
L 253.855135 229.662877 
L 254.212613 229.199763 
L 254.57009 228.728154 
L 254.927568 228.248015 
L 255.285045 227.759313 
L 255.642523 227.262017 
L 256 226.7561 
L 256.357477 226.241535 
L 256.714955 225.7183 
L 257.072432 225.186374 
L 257.42991 224.64574 
L 257.787387 224.096381 
L 258.144865 223.538285 
L 258.502342 222.971442 
L 258.85982 222.395846 
L 259.217297 221.811492 
L 259.574775 221.218378 
L 259.932252 220.616506 
L 260.28973 220.005881 
L 260.647207 219.38651 
L 261.004685 218.758404 
L 261.362162 218.121576 
L 261.71964 217.476043 
L 262.077117 216.821825 
L 262.434595 216.158945 
L 262.792072 215.487429 
L 263.14955 214.807307 
L 263.507027 214.118611 
L 263.864505 213.421378 
L 264.221982 212.715647 
L 264.579459 212.001461 
L 264.936937 211.278866 
L 265.294414 210.547913 
L 265.651892 209.808654 
L 266.009369 209.061145 
L 266.366847 208.305448 
L 266.724324 207.541624 
L 267.081802 206.769743 
L 267.439279 205.989874 
L 267.796757 205.202092 
L 268.154234 204.406475 
L 268.511712 203.603103 
L 268.869189 202.792063 
L 269.226667 201.973443 
L 269.584144 201.147334 
L 269.941622 200.313834 
L 270.299099 199.473041 
L 270.656577 198.625059 
L 271.014054 197.769995 
L 271.371532 196.907959 
L 271.729009 196.039064 
L 272.086486 195.16343 
L 272.443964 194.281176 
L 272.801441 193.392428 
L 273.158919 192.497314 
L 273.516396 191.595966 
L 273.873874 190.68852 
L 274.231351 189.775115 
L 274.588829 188.855893 
L 274.946306 187.931 
L 275.303784 187.000587 
L 275.661261 186.064805 
L 276.018739 185.123811 
L 276.376216 184.177765 
L 276.733694 183.226831 
L 277.091171 182.271173 
L 277.448649 181.310962 
L 277.806126 180.346372 
L 278.163604 179.377577 
L 278.521081 178.404757 
L 278.878559 177.428094 
L 279.236036 176.447774 
L 279.593514 175.463984 
L 279.950991 174.476916 
L 280.308468 173.486765 
L 280.665946 172.493726 
L 281.023423 171.498 
L 281.380901 170.499789 
L 281.738378 169.499298 
L 282.095856 168.496734 
L 282.453333 167.492307 
L 282.810811 166.486231 
L 283.168288 165.478719 
L 283.525766 164.469989 
L 283.883243 163.46026 
L 284.240721 162.449754 
L 284.598198 161.438694 
L 284.955676 160.427305 
L 285.313153 159.415814 
L 285.670631 158.404451 
L 286.028108 157.393447 
L 286.385586 156.383034 
L 286.743063 155.373445 
L 287.100541 154.364916 
L 287.458018 153.357684 
L 287.815495 152.351986 
L 288.172973 151.348062 
L 288.53045 150.346152 
L 288.887928 149.346495 
L 289.245405 148.349336 
L 289.602883 147.354915 
L 289.96036 146.363476 
L 290.317838 145.375263 
L 290.675315 144.39052 
L 291.032793 143.409491 
L 291.39027 142.432421 
L 291.747748 141.459554 
L 292.105225 140.491135 
L 292.462703 139.52741 
L 292.82018 138.568621 
L 293.177658 137.615014 
L 293.535135 136.666831 
L 293.892613 135.724315 
L 294.25009 134.787709 
L 294.607568 133.857254 
L 294.965045 132.933191 
L 295.322523 132.015758 
L 295.68 131.105195 
L 296.037477 130.201739 
L 296.394955 129.305624 
L 296.752432 128.417086 
L 297.10991 127.536356 
L 297.467387 126.663667 
L 297.824865 125.799247 
L 298.182342 124.943322 
L 298.53982 124.096119 
L 298.897297 123.25786 
L 299.254775 122.428766 
L 299.612252 121.609056 
L 299.96973 120.798944 
L 300.327207 119.998645 
L 300.684685 119.20837 
L 301.042162 118.428325 
L 301.39964 117.658717 
L 301.757117 116.899746 
L 302.114595 116.151613 
L 302.472072 115.414512 
L 302.82955 114.688636 
L 303.187027 113.974175 
L 303.544505 113.271313 
L 303.901982 112.580234 
L 304.259459 111.901115 
L 304.616937 111.234131 
L 304.974414 110.579454 
L 305.331892 109.93725 
L 305.689369 109.307683 
L 306.046847 108.690911 
L 306.404324 108.08709 
L 306.761802 107.49637 
L 307.119279 106.918899 
L 307.476757 106.354817 
L 307.834234 105.804264 
L 308.191712 105.267372 
L 308.549189 104.744271 
L 308.906667 104.235085 
L 309.264144 103.739933 
L 309.621622 103.258932 
L 309.979099 102.792191 
L 310.336577 102.339816 
L 310.694054 101.901908 
L 311.051532 101.478564 
L 311.409009 101.069874 
L 311.766486 100.675925 
L 312.123964 100.296799 
L 312.481441 99.932572 
L 312.838919 99.583315 
L 313.196396 99.249096 
L 313.553874 98.929976 
L 313.911351 98.626012 
L 314.268829 98.337256 
L 314.626306 98.063753 
L 314.983784 97.805547 
L 315.341261 97.562673 
L 315.698739 97.335164 
L 316.056216 97.123045 
L 316.413694 96.926339 
L 316.771171 96.745062 
L 317.128649 96.579227 
L 317.486126 96.428839 
L 317.843604 96.293901 
L 318.201081 96.17441 
L 318.558559 96.070359 
L 318.916036 95.981733 
L 319.273514 95.908517 
L 319.630991 95.850688 
L 319.988468 95.808219 
L 320.345946 95.781079 
L 320.703423 95.769231 
L 321.060901 95.772636 
L 321.418378 95.791246 
L 321.775856 95.825014 
L 322.133333 95.873886 
L 322.490811 95.937801 
L 322.848288 96.016699 
L 323.205766 96.110512 
L 323.563243 96.21917 
L 323.920721 96.342597 
L 324.278198 96.480714 
L 324.635676 96.633439 
L 324.993153 96.800684 
L 325.350631 96.98236 
L 325.708108 97.178371 
L 326.065586 97.38862 
L 326.423063 97.613007 
L 326.780541 97.851425 
L 327.138018 98.103767 
L 327.495495 98.369921 
L 327.852973 98.649774 
L 328.21045 98.943206 
L 328.567928 99.250099 
L 328.925405 99.570328 
L 329.282883 99.903767 
L 329.64036 100.250287 
L 329.997838 100.609757 
L 330.355315 100.982042 
L 330.712793 101.367006 
L 331.07027 101.76451 
L 331.427748 102.174413 
L 331.785225 102.596572 
L 332.142703 103.030842 
L 332.50018 103.477076 
L 332.857658 103.935125 
L 333.215135 104.404838 
L 333.572613 104.886063 
L 333.93009 105.378647 
L 334.287568 105.882434 
L 334.645045 106.397268 
L 335.002523 106.922992 
L 335.36 107.459446 
L 335.717477 108.00647 
L 336.074955 108.563904 
L 336.432432 109.131587 
L 336.78991 109.709356 
L 337.147387 110.297047 
L 337.504865 110.894498 
L 337.862342 111.501545 
L 338.21982 112.118023 
L 338.577297 112.743768 
L 338.934775 113.378614 
L 339.292252 114.022397 
L 339.64973 114.674952 
L 340.007207 115.336113 
L 340.364685 116.005717 
L 340.722162 116.683599 
L 341.07964 117.369594 
L 341.437117 118.063539 
L 341.794595 118.76527 
L 342.152072 119.474624 
L 342.50955 120.191439 
L 342.867027 120.915553 
L 343.224505 121.646806 
L 343.581982 122.385038 
L 343.939459 123.130088 
L 344.296937 123.8818 
L 344.654414 124.640015 
L 345.011892 125.404577 
L 345.369369 126.175332 
L 345.726847 126.952124 
L 346.084324 127.734802 
L 346.441802 128.523213 
L 346.799279 129.317207 
L 347.156757 130.116636 
L 347.514234 130.921351 
L 347.871712 131.731207 
L 348.229189 132.546058 
L 348.586667 133.365762 
L 348.944144 134.190176 
L 349.301622 135.01916 
L 349.659099 135.852576 
L 350.016577 136.690287 
L 350.374054 137.532156 
L 350.731532 138.378051 
L 351.089009 139.227839 
L 351.446486 140.08139 
L 351.803964 140.938574 
L 352.161441 141.799265 
L 352.518919 142.663337 
L 352.876396 143.530667 
L 353.233874 144.401132 
L 353.591351 145.274612 
L 353.948829 146.150989 
L 354.306306 147.030147 
L 354.663784 147.911969 
L 355.021261 148.796342 
L 355.378739 149.683155 
L 355.736216 150.572299 
L 356.093694 151.463663 
L 356.451171 152.357143 
L 356.808649 153.252633 
L 357.166126 154.150029 
L 357.523604 155.049231 
L 357.881081 155.950138 
L 358.238559 156.852652 
L 358.596036 157.756676 
L 358.953514 158.662114 
L 359.310991 159.568874 
L 359.668468 160.476862 
L 360.025946 161.385988 
L 360.383423 162.296164 
L 360.740901 163.2073 
L 361.098378 164.119311 
L 361.455856 165.032111 
L 361.813333 165.945618 
L 362.170811 166.859748 
L 362.528288 167.77442 
L 362.885766 168.689555 
L 363.243243 169.605075 
L 363.600721 170.520901 
L 363.958198 171.436957 
L 364.315676 172.353169 
L 364.673153 173.269463 
L 365.030631 174.185764 
L 365.388108 175.102003 
L 365.745586 176.018107 
L 366.103063 176.934007 
L 366.460541 177.849633 
L 366.818018 178.764917 
L 367.175495 179.679793 
L 367.532973 180.594194 
L 367.89045 181.508053 
L 368.247928 182.421307 
L 368.605405 183.33389 
L 368.962883 184.245739 
L 369.32036 185.156792 
L 369.677838 186.066986 
L 370.035315 186.97626 
L 370.392793 187.884552 
L 370.75027 188.791801 
L 371.107748 189.697949 
L 371.465225 190.602934 
L 371.822703 191.506699 
L 372.18018 192.409184 
L 372.537658 193.310331 
L 372.895135 194.210083 
L 373.252613 195.10838 
L 373.61009 196.005167 
L 373.967568 196.900387 
L 374.325045 197.793981 
L 374.682523 198.685895 
L 375.04 199.576072 
L 375.397477 200.464456 
L 375.754955 201.350991 
L 376.112432 202.235621 
L 376.46991 203.118292 
L 376.827387 203.998947 
L 377.184865 204.877532 
L 377.542342 205.753991 
L 377.89982 206.628271 
L 378.257297 207.500315 
L 378.614775 208.37007 
L 378.972252 209.23748 
L 379.32973 210.102492 
L 379.687207 210.96505 
L 380.044685 211.825101 
L 380.402162 212.68259 
L 380.75964 213.537463 
L 381.117117 214.389666 
L 381.474595 215.239144 
L 381.832072 216.085845 
L 382.18955 216.929713 
L 382.547027 217.770696 
L 382.904505 218.608738 
L 383.261982 219.443788 
L 383.619459 220.27579 
L 383.976937 221.104692 
L 384.334414 221.93044 
L 384.691892 222.752982 
L 385.049369 223.572263 
L 385.406847 224.388231 
L 385.764324 225.200833 
L 386.121802 226.010017 
L 386.479279 226.81573 
L 386.836757 227.617919 
L 387.194234 228.416534 
L 387.551712 229.211521 
L 387.909189 230.002829 
L 388.266667 230.790407 
L 388.624144 231.574204 
L 388.981622 232.354169 
L 389.339099 233.130252 
L 389.696577 233.902402 
L 390.054054 234.67057 
L 390.411532 235.434707 
L 390.769009 236.194763 
L 391.126486 236.950689 
L 391.483964 237.702438 
L 391.841441 238.449962 
L 392.198919 239.193214 
L 392.556396 239.932147 
L 392.913874 240.666715 
L 393.271351 241.396872 
L 393.628829 242.122573 
L 393.986306 242.843773 
L 394.343784 243.56043 
L 394.701261 244.272499 
L 395.058739 244.979938 
L 395.416216 245.682705 
L 395.773694 246.380759 
L 396.131171 247.074059 
L 396.488649 247.762567 
L 396.846126 248.446242 
L 397.203604 249.125046 
L 397.561081 249.798943 
L 397.918559 250.467896 
L 398.276036 251.131869 
L 398.633514 251.790828 
L 398.990991 252.444737 
L 399.348468 253.093566 
L 399.705946 253.737281 
L 400.063423 254.375851 
L 400.420901 255.009246 
L 400.778378 255.637438 
L 401.135856 256.260398 
L 401.493333 256.878098 
L 401.850811 257.490514 
L 402.208288 258.097619 
L 402.565766 258.69939 
L 402.923243 259.295804 
L 403.280721 259.886839 
L 403.638198 260.472474 
L 403.995676 261.052691 
L 404.353153 261.627469 
L 404.710631 262.196793 
L 405.068108 262.760646 
L 405.425586 263.319012 
L 405.783063 263.871879 
L 406.140541 264.419233 
L 406.498018 264.961062 
L 406.855495 265.497357 
L 407.212973 266.028109 
L 407.57045 266.553309 
L 407.927928 267.07295 
L 408.285405 267.587027 
L 408.642883 268.095537 
L 409.00036 268.598474 
L 409.357838 269.095838 
L 409.715315 269.587628 
L 410.072793 270.073844 
L 410.43027 270.554488 
L 410.787748 271.029562 
L 411.145225 271.499071 
L 411.502703 271.96302 
L 411.86018 272.421414 
L 412.217658 272.874263 
L 412.575135 273.321573 
L 412.932613 273.763356 
L 413.29009 274.199622 
L 413.647568 274.630383 
L 414.005045 275.055653 
L 414.362523 275.475445 
L 414.72 275.889776 
L 414.72 297.348923 
L 414.72 297.348923 
L 414.362523 297.348923 
L 414.005045 297.348923 
L 413.647568 297.348923 
L 413.29009 297.348923 
L 412.932613 297.348923 
L 412.575135 297.348923 
L 412.217658 297.348923 
L 411.86018 297.348923 
L 411.502703 297.348923 
L 411.145225 297.348923 
L 410.787748 297.348923 
L 410.43027 297.348923 
L 410.072793 297.348923 
L 409.715315 297.348923 
L 409.357838 297.348923 
L 409.00036 297.348923 
L 408.642883 297.348923 
L 408.285405 297.348923 
L 407.927928 297.348923 
L 407.57045 297.348923 
L 407.212973 297.348923 
L 406.855495 297.348923 
L 406.498018 297.348923 
L 406.140541 297.348923 
L 405.783063 297.348923 
L 405.425586 297.348923 
L 405.068108 297.348923 
L 404.710631 297.348923 
L 404.353153 297.348923 
L 403.995676 297.348923 
L 403.638198 297.348923 
L 403.280721 297.348923 
L 402.923243 297.348923 
L 402.565766 297.348923 
L 402.208288 297.348923 
L 401.850811 297.348923 
L 401.493333 297.348923 
L 401.135856 297.348923 
L 400.778378 297.348923 
L 400.420901 297.348923 
L 400.063423 297.348923 
L 399.705946 297.348923 
L 399.348468 297.348923 
L 398.990991 297.348923 
L 398.633514 297.348923 
L 398.276036 297.348923 
L 397.918559 297.348923 
L 397.561081 297.348923 
L 397.203604 297.348923 
L 396.846126 297.348923 
L 396.488649 297.348923 
L 396.131171 297.348923 
L 395.773694 297.348923 
L 395.416216 297.348923 
L 395.058739 297.348923 
L 394.701261 297.348923 
L 394.343784 297.348923 
L 393.986306 297.348923 
L 393.628829 297.348923 
L 393.271351 297.348923 
L 392.913874 297.348923 
L 392.556396 297.348923 
L 392.198919 297.348923 
L 391.841441 297.348923 
L 391.483964 297.348923 
L 391.126486 297.348923 
L 390.769009 297.348923 
L 390.411532 297.348923 
L 390.054054 297.348923 
L 389.696577 297.348923 
L 389.339099 297.348923 
L 388.981622 297.348923 
L 388.624144 297.348923 
L 388.266667 297.348923 
L 387.909189 297.348923 
L 387.551712 297.348923 
L 387.194234 297.348923 
L 386.836757 297.348923 
L 386.479279 297.348923 
L 386.121802 297.348923 
L 385.764324 297.348923 
L 385.406847 297.348923 
L 385.049369 297.348923 
L 384.691892 297.348923 
L 384.334414 297.348923 
L 383.976937 297.348923 
L 383.619459 297.348923 
L 383.261982 297.348923 
L 382.904505 297.348923 
L 382.547027 297.348923 
L 382.18955 297.348923 
L 381.832072 297.348923 
L 381.474595 297.348923 
L 381.117117 297.348923 
L 380.75964 297.348923 
L 380.402162 297.348923 
L 380.044685 297.348923 
L 379.687207 297.348923 
L 379.32973 297.348923 
L 378.972252 297.348923 
L 378.614775 297.348923 
L 378.257297 297.348923 
L 377.89982 297.348923 
L 377.542342 297.348923 
L 377.184865 297.348923 
L 376.827387 297.348923 
L 376.46991 297.348923 
L 376.112432 297.348923 
L 375.754955 297.348923 
L 375.397477 297.348923 
L 375.04 297.348923 
L 374.682523 297.348923 
L 374.325045 297.348923 
L 373.967568 297.348923 
L 373.61009 297.348923 
L 373.252613 297.348923 
L 372.895135 297.348923 
L 372.537658 297.348923 
L 372.18018 297.348923 
L 371.822703 297.348923 
L 371.465225 297.348923 
L 371.107748 297.348923 
L 370.75027 297.348923 
L 370.392793 297.348923 
L 370.035315 297.348923 
L 369.677838 297.348923 
L 369.32036 297.348923 
L 368.962883 297.348923 
L 368.605405 297.348923 
L 368.247928 297.348923 
L 367.89045 297.348923 
L 367.532973 297.348923 
L 367.175495 297.348923 
L 366.818018 297.348923 
L 366.460541 297.348923 
L 366.103063 297.348923 
L 365.745586 297.348923 
L 365.388108 297.348923 
L 365.030631 297.348923 
L 364.673153 297.348923 
L 364.315676 297.348923 
L 363.958198 297.348923 
L 363.600721 297.348923 
L 363.243243 297.348923 
L 362.885766 297.348923 
L 362.528288 297.348923 
L 362.170811 297.348923 
L 361.813333 297.348923 
L 361.455856 297.348923 
L 361.098378 297.348923 
L 360.740901 297.348923 
L 360.383423 297.348923 
L 360.025946 297.348923 
L 359.668468 297.348923 
L 359.310991 297.348923 
L 358.953514 297.348923 
L 358.596036 297.348923 
L 358.238559 297.348923 
L 357.881081 297.348923 
L 357.523604 297.348923 
L 357.166126 297.348923 
L 356.808649 297.348923 
L 356.451171 297.348923 
L 356.093694 297.348923 
L 355.736216 297.348923 
L 355.378739 297.348923 
L 355.021261 297.348923 
L 354.663784 297.348923 
L 354.306306 297.348923 
L 353.948829 297.348923 
L 353.591351 297.348923 
L 353.233874 297.348923 
L 352.876396 297.348923 
L 352.518919 297.348923 
L 352.161441 297.348923 
L 351.803964 297.348923 
L 351.446486 297.348923 
L 351.089009 297.348923 
L 350.731532 297.348923 
L 350.374054 297.348923 
L 350.016577 297.348923 
L 349.659099 297.348923 
L 349.301622 297.348923 
L 348.944144 297.348923 
L 348.586667 297.348923 
L 348.229189 297.348923 
L 347.871712 297.348923 
L 347.514234 297.348923 
L 347.156757 297.348923 
L 346.799279 297.348923 
L 346.441802 297.348923 
L 346.084324 297.348923 
L 345.726847 297.348923 
L 345.369369 297.348923 
L 345.011892 297.348923 
L 344.654414 297.348923 
L 344.296937 297.348923 
L 343.939459 297.348923 
L 343.581982 297.348923 
L 343.224505 297.348923 
L 342.867027 297.348923 
L 342.50955 297.348923 
L 342.152072 297.348923 
L 341.794595 297.348923 
L 341.437117 297.348923 
L 341.07964 297.348923 
L 340.722162 297.348923 
L 340.364685 297.348923 
L 340.007207 297.348923 
L 339.64973 297.348923 
L 339.292252 297.348923 
L 338.934775 297.348923 
L 338.577297 297.348923 
L 338.21982 297.348923 
L 337.862342 297.348923 
L 337.504865 297.348923 
L 337.147387 297.348923 
L 336.78991 297.348923 
L 336.432432 297.348923 
L 336.074955 297.348923 
L 335.717477 297.348923 
L 335.36 297.348923 
L 335.002523 297.348923 
L 334.645045 297.348923 
L 334.287568 297.348923 
L 333.93009 297.348923 
L 333.572613 297.348923 
L 333.215135 297.348923 
L 332.857658 297.348923 
L 332.50018 297.348923 
L 332.142703 297.348923 
L 331.785225 297.348923 
L 331.427748 297.348923 
L 331.07027 297.348923 
L 330.712793 297.348923 
L 330.355315 297.348923 
L 329.997838 297.348923 
L 329.64036 297.348923 
L 329.282883 297.348923 
L 328.925405 297.348923 
L 328.567928 297.348923 
L 328.21045 297.348923 
L 327.852973 297.348923 
L 327.495495 297.348923 
L 327.138018 297.348923 
L 326.780541 297.348923 
L 326.423063 297.348923 
L 326.065586 297.348923 
L 325.708108 297.348923 
L 325.350631 297.348923 
L 324.993153 297.348923 
L 324.635676 297.348923 
L 324.278198 297.348923 
L 323.920721 297.348923 
L 323.563243 297.348923 
L 323.205766 297.348923 
L 322.848288 297.348923 
L 322.490811 297.348923 
L 322.133333 297.348923 
L 321.775856 297.348923 
L 321.418378 297.348923 
L 321.060901 297.348923 
L 320.703423 297.348923 
L 320.345946 297.348923 
L 319.988468 297.348923 
L 319.630991 297.348923 
L 319.273514 297.348923 
L 318.916036 297.348923 
L 318.558559 297.348923 
L 318.201081 297.348923 
L 317.843604 297.348923 
L 317.486126 297.348923 
L 317.128649 297.348923 
L 316.771171 297.348923 
L 316.413694 297.348923 
L 316.056216 297.348923 
L 315.698739 297.348923 
L 315.341261 297.348923 
L 314.983784 297.348923 
L 314.626306 297.348923 
L 314.268829 297.348923 
L 313.911351 297.348923 
L 313.553874 297.348923 
L 313.196396 297.348923 
L 312.838919 297.348923 
L 312.481441 297.348923 
L 312.123964 297.348923 
L 311.766486 297.348923 
L 311.409009 297.348923 
L 311.051532 297.348923 
L 310.694054 297.348923 
L 310.336577 297.348923 
L 309.979099 297.348923 
L 309.621622 297.348923 
L 309.264144 297.348923 
L 308.906667 297.348923 
L 308.549189 297.348923 
L 308.191712 297.348923 
L 307.834234 297.348923 
L 307.476757 297.348923 
L 307.119279 297.348923 
L 306.761802 297.348923 
L 306.404324 297.348923 
L 306.046847 297.348923 
L 305.689369 297.348923 
L 305.331892 297.348923 
L 304.974414 297.348923 
L 304.616937 297.348923 
L 304.259459 297.348923 
L 303.901982 297.348923 
L 303.544505 297.348923 
L 303.187027 297.348923 
L 302.82955 297.348923 
L 302.472072 297.348923 
L 302.114595 297.348923 
L 301.757117 297.348923 
L 301.39964 297.348923 
L 301.042162 297.348923 
L 300.684685 297.348923 
L 300.327207 297.348923 
L 299.96973 297.348923 
L 299.612252 297.348923 
L 299.254775 297.348923 
L 298.897297 297.348923 
L 298.53982 297.348923 
L 298.182342 297.348923 
L 297.824865 297.348923 
L 297.467387 297.348923 
L 297.10991 297.348923 
L 296.752432 297.348923 
L 296.394955 297.348923 
L 296.037477 297.348923 
L 295.68 297.348923 
L 295.322523 297.348923 
L 294.965045 297.348923 
L 294.607568 297.348923 
L 294.25009 297.348923 
L 293.892613 297.348923 
L 293.535135 297.348923 
L 293.177658 297.348923 
L 292.82018 297.348923 
L 292.462703 297.348923 
L 292.105225 297.348923 
L 291.747748 297.348923 
L 291.39027 297.348923 
L 291.032793 297.348923 
L 290.675315 297.348923 
L 290.317838 297.348923 
L 289.96036 297.348923 
L 289.602883 297.348923 
L 289.245405 297.348923 
L 288.887928 297.348923 
L 288.53045 297.348923 
L 288.172973 297.348923 
L 287.815495 297.348923 
L 287.458018 297.348923 
L 287.100541 297.348923 
L 286.743063 297.348923 
L 286.385586 297.348923 
L 286.028108 297.348923 
L 285.670631 297.348923 
L 285.313153 297.348923 
L 284.955676 297.348923 
L 284.598198 297.348923 
L 284.240721 297.348923 
L 283.883243 297.348923 
L 283.525766 297.348923 
L 283.168288 297.348923 
L 282.810811 297.348923 
L 282.453333 297.348923 
L 282.095856 297.348923 
L 281.738378 297.348923 
L 281.380901 297.348923 
L 281.023423 297.348923 
L 280.665946 297.348923 
L 280.308468 297.348923 
L 279.950991 297.348923 
L 279.593514 297.348923 
L 279.236036 297.348923 
L 278.878559 297.348923 
L 278.521081 297.348923 
L 278.163604 297.348923 
L 277.806126 297.348923 
L 277.448649 297.348923 
L 277.091171 297.348923 
L 276.733694 297.348923 
L 276.376216 297.348923 
L 276.018739 297.348923 
L 275.661261 297.348923 
L 275.303784 297.348923 
L 274.946306 297.348923 
L 274.588829 297.348923 
L 274.231351 297.348923 
L 273.873874 297.348923 
L 273.516396 297.348923 
L 273.158919 297.348923 
L 272.801441 297.348923 
L 272.443964 297.348923 
L 272.086486 297.348923 
L 271.729009 297.348923 
L 271.371532 297.348923 
L 271.014054 297.348923 
L 270.656577 297.348923 
L 270.299099 297.348923 
L 269.941622 297.348923 
L 269.584144 297.348923 
L 269.226667 297.348923 
L 268.869189 297.348923 
L 268.511712 297.348923 
L 268.154234 297.348923 
L 267.796757 297.348923 
L 267.439279 297.348923 
L 267.081802 297.348923 
L 266.724324 297.348923 
L 266.366847 297.348923 
L 266.009369 297.348923 
L 265.651892 297.348923 
L 265.294414 297.348923 
L 264.936937 297.348923 
L 264.579459 297.348923 
L 264.221982 297.348923 
L 263.864505 297.348923 
L 263.507027 297.348923 
L 263.14955 297.348923 
L 262.792072 297.348923 
L 262.434595 297.348923 
L 262.077117 297.348923 
L 261.71964 297.348923 
L 261.362162 297.348923 
L 261.004685 297.348923 
L 260.647207 297.348923 
L 260.28973 297.348923 
L 259.932252 297.348923 
L 259.574775 297.348923 
L 259.217297 297.348923 
L 258.85982 297.348923 
L 258.502342 297.348923 
L 258.144865 297.348923 
L 257.787387 297.348923 
L 257.42991 297.348923 
L 257.072432 297.348923 
L 256.714955 297.348923 
L 256.357477 297.348923 
L 256 297.348923 
L 255.642523 297.348923 
L 255.285045 297.348923 
L 254.927568 297.348923 
L 254.57009 297.348923 
L 254.212613 297.348923 
L 253.855135 297.348923 
L 253.497658 297.348923 
L 253.14018 297.348923 
L 252.782703 297.348923 
L 252.425225 297.348923 
L 252.067748 297.348923 
L 251.71027 297.348923 
L 251.352793 297.348923 
L 250.995315 297.348923 
L 250.637838 297.348923 
L 250.28036 297.348923 
L 249.922883 297.348923 
L 249.565405 297.348923 
L 249.207928 297.348923 
L 248.85045 297.348923 
L 248.492973 297.348923 
L 248.135495 297.348923 
L 247.778018 297.348923 
L 247.420541 297.348923 
L 247.063063 297.348923 
L 246.705586 297.348923 
L 246.348108 297.348923 
L 245.990631 297.348923 
L 245.633153 297.348923 
L 245.275676 297.348923 
L 244.918198 297.348923 
L 244.560721 297.348923 
L 244.203243 297.348923 
L 243.845766 297.348923 
L 243.488288 297.348923 
L 243.130811 297.348923 
L 242.773333 297.348923 
L 242.415856 297.348923 
L 242.058378 297.348923 
L 241.700901 297.348923 
L 241.343423 297.348923 
L 240.985946 297.348923 
L 240.628468 297.348923 
L 240.270991 297.348923 
L 239.913514 297.348923 
L 239.556036 297.348923 
L 239.198559 297.348923 
L 238.841081 297.348923 
L 238.483604 297.348923 
L 238.126126 297.348923 
L 237.768649 297.348923 
L 237.411171 297.348923 
L 237.053694 297.348923 
L 236.696216 297.348923 
L 236.338739 297.348923 
L 235.981261 297.348923 
L 235.623784 297.348923 
L 235.266306 297.348923 
L 234.908829 297.348923 
L 234.551351 297.348923 
L 234.193874 297.348923 
L 233.836396 297.348923 
L 233.478919 297.348923 
L 233.121441 297.348923 
L 232.763964 297.348923 
L 232.406486 297.348923 
L 232.049009 297.348923 
L 231.691532 297.348923 
L 231.334054 297.348923 
L 230.976577 297.348923 
L 230.619099 297.348923 
L 230.261622 297.348923 
L 229.904144 297.348923 
L 229.546667 297.348923 
L 229.189189 297.348923 
L 228.831712 297.348923 
L 228.474234 297.348923 
L 228.116757 297.348923 
L 227.759279 297.348923 
L 227.401802 297.348923 
L 227.044324 297.348923 
L 226.686847 297.348923 
L 226.329369 297.348923 
L 225.971892 297.348923 
L 225.614414 297.348923 
L 225.256937 297.348923 
L 224.899459 297.348923 
L 224.541982 297.348923 
L 224.184505 297.348923 
L 223.827027 297.348923 
L 223.46955 297.348923 
L 223.112072 297.348923 
L 222.754595 297.348923 
L 222.397117 297.348923 
L 222.03964 297.348923 
L 221.682162 297.348923 
L 221.324685 297.348923 
L 220.967207 297.348923 
L 220.60973 297.348923 
L 220.252252 297.348923 
L 219.894775 297.348923 
L 219.537297 297.348923 
L 219.17982 297.348923 
L 218.822342 297.348923 
L 218.464865 297.348923 
L 218.107387 297.348923 
L 217.74991 297.348923 
L 217.392432 297.348923 
L 217.034955 297.348923 
L 216.677477 297.348923 
L 216.32 297.348923 
L 215.962523 297.348923 
L 215.605045 297.348923 
L 215.247568 297.348923 
L 214.89009 297.348923 
L 214.532613 297.348923 
L 214.175135 297.348923 
L 213.817658 297.348923 
L 213.46018 297.348923 
L 213.102703 297.348923 
L 212.745225 297.348923 
L 212.387748 297.348923 
L 212.03027 297.348923 
L 211.672793 297.348923 
L 211.315315 297.348923 
L 210.957838 297.348923 
L 210.60036 297.348923 
L 210.242883 297.348923 
L 209.885405 297.348923 
L 209.527928 297.348923 
L 209.17045 297.348923 
L 208.812973 297.348923 
L 208.455495 297.348923 
L 208.098018 297.348923 
L 207.740541 297.348923 
L 207.383063 297.348923 
L 207.025586 297.348923 
L 206.668108 297.348923 
L 206.310631 297.348923 
L 205.953153 297.348923 
L 205.595676 297.348923 
L 205.238198 297.348923 
L 204.880721 297.348923 
L 204.523243 297.348923 
L 204.165766 297.348923 
L 203.808288 297.348923 
L 203.450811 297.348923 
L 203.093333 297.348923 
L 202.735856 297.348923 
L 202.378378 297.348923 
L 202.020901 297.348923 
L 201.663423 297.348923 
L 201.305946 297.348923 
L 200.948468 297.348923 
L 200.590991 297.348923 
L 200.233514 297.348923 
L 199.876036 297.348923 
L 199.518559 297.348923 
L 199.161081 297.348923 
L 198.803604 297.348923 
L 198.446126 297.348923 
L 198.088649 297.348923 
L 197.731171 297.348923 
L 197.373694 297.348923 
L 197.016216 297.348923 
L 196.658739 297.348923 
L 196.301261 297.348923 
L 195.943784 297.348923 
L 195.586306 297.348923 
L 195.228829 297.348923 
L 194.871351 297.348923 
L 194.513874 297.348923 
L 194.156396 297.348923 
L 193.798919 297.348923 
L 193.441441 297.348923 
L 193.083964 297.348923 
L 192.726486 297.348923 
L 192.369009 297.348923 
L 192.011532 297.348923 
L 191.654054 297.348923 
L 191.296577 297.348923 
L 190.939099 297.348923 
L 190.581622 297.348923 
L 190.224144 297.348923 
L 189.866667 297.348923 
L 189.509189 297.348923 
L 189.151712 297.348923 
L 188.794234 297.348923 
L 188.436757 297.348923 
L 188.079279 297.348923 
L 187.721802 297.348923 
L 187.364324 297.348923 
L 187.006847 297.348923 
L 186.649369 297.348923 
L 186.291892 297.348923 
L 185.934414 297.348923 
L 185.576937 297.348923 
L 185.219459 297.348923 
L 184.861982 297.348923 
L 184.504505 297.348923 
L 184.147027 297.348923 
L 183.78955 297.348923 
L 183.432072 297.348923 
L 183.074595 297.348923 
L 182.717117 297.348923 
L 182.35964 297.348923 
L 182.002162 297.348923 
L 181.644685 297.348923 
L 181.287207 297.348923 
L 180.92973 297.348923 
L 180.572252 297.348923 
L 180.214775 297.348923 
L 179.857297 297.348923 
L 179.49982 297.348923 
L 179.142342 297.348923 
L 178.784865 297.348923 
L 178.427387 297.348923 
L 178.06991 297.348923 
L 177.712432 297.348923 
L 177.354955 297.348923 
L 176.997477 297.348923 
L 176.64 297.348923 
L 176.282523 297.348923 
L 175.925045 297.348923 
L 175.567568 297.348923 
L 175.21009 297.348923 
L 174.852613 297.348923 
L 174.495135 297.348923 
L 174.137658 297.348923 
L 173.78018 297.348923 
L 173.422703 297.348923 
L 173.065225 297.348923 
L 172.707748 297.348923 
L 172.35027 297.348923 
L 171.992793 297.348923 
L 171.635315 297.348923 
L 171.277838 297.348923 
L 170.92036 297.348923 
L 170.562883 297.348923 
L 170.205405 297.348923 
L 169.847928 297.348923 
L 169.49045 297.348923 
L 169.132973 297.348923 
L 168.775495 297.348923 
L 168.418018 297.348923 
L 168.060541 297.348923 
L 167.703063 297.348923 
L 167.345586 297.348923 
L 166.988108 297.348923 
L 166.630631 297.348923 
L 166.273153 297.348923 
L 165.915676 297.348923 
L 165.558198 297.348923 
L 165.200721 297.348923 
L 164.843243 297.348923 
L 164.485766 297.348923 
L 164.128288 297.348923 
L 163.770811 297.348923 
L 163.413333 297.348923 
L 163.055856 297.348923 
L 162.698378 297.348923 
L 162.340901 297.348923 
L 161.983423 297.348923 
L 161.625946 297.348923 
L 161.268468 297.348923 
L 160.910991 297.348923 
L 160.553514 297.348923 
L 160.196036 297.348923 
L 159.838559 297.348923 
L 159.481081 297.348923 
L 159.123604 297.348923 
L 158.766126 297.348923 
L 158.408649 297.348923 
L 158.051171 297.348923 
L 157.693694 297.348923 
L 157.336216 297.348923 
L 156.978739 297.348923 
L 156.621261 297.348923 
L 156.263784 297.348923 
L 155.906306 297.348923 
L 155.548829 297.348923 
L 155.191351 297.348923 
L 154.833874 297.348923 
L 154.476396 297.348923 
L 154.118919 297.348923 
L 153.761441 297.348923 
L 153.403964 297.348923 
L 153.046486 297.348923 
L 152.689009 297.348923 
L 152.331532 297.348923 
L 151.974054 297.348923 
L 151.616577 297.348923 
L 151.259099 297.348923 
L 150.901622 297.348923 
L 150.544144 297.348923 
L 150.186667 297.348923 
L 149.829189 297.348923 
L 149.471712 297.348923 
L 149.114234 297.348923 
L 148.756757 297.348923 
L 148.399279 297.348923 
L 148.041802 297.348923 
L 147.684324 297.348923 
L 147.326847 297.348923 
L 146.969369 297.348923 
L 146.611892 297.348923 
L 146.254414 297.348923 
L 145.896937 297.348923 
L 145.539459 297.348923 
L 145.181982 297.348923 
L 144.824505 297.348923 
L 144.467027 297.348923 
L 144.10955 297.348923 
L 143.752072 297.348923 
L 143.394595 297.348923 
L 143.037117 297.348923 
L 142.67964 297.348923 
L 142.322162 297.348923 
L 141.964685 297.348923 
L 141.607207 297.348923 
L 141.24973 297.348923 
L 140.892252 297.348923 
L 140.534775 297.348923 
L 140.177297 297.348923 
L 139.81982 297.348923 
L 139.462342 297.348923 
L 139.104865 297.348923 
L 138.747387 297.348923 
L 138.38991 297.348923 
L 138.032432 297.348923 
L 137.674955 297.348923 
L 137.317477 297.348923 
L 136.96 297.348923 
L 136.602523 297.348923 
L 136.245045 297.348923 
L 135.887568 297.348923 
L 135.53009 297.348923 
L 135.172613 297.348923 
L 134.815135 297.348923 
L 134.457658 297.348923 
L 134.10018 297.348923 
L 133.742703 297.348923 
L 133.385225 297.348923 
L 133.027748 297.348923 
L 132.67027 297.348923 
L 132.312793 297.348923 
L 131.955315 297.348923 
L 131.597838 297.348923 
L 131.24036 297.348923 
L 130.882883 297.348923 
L 130.525405 297.348923 
L 130.167928 297.348923 
L 129.81045 297.348923 
L 129.452973 297.348923 
L 129.095495 297.348923 
L 128.738018 297.348923 
L 128.380541 297.348923 
L 128.023063 297.348923 
L 127.665586 297.348923 
L 127.308108 297.348923 
L 126.950631 297.348923 
L 126.593153 297.348923 
L 126.235676 297.348923 
L 125.878198 297.348923 
L 125.520721 297.348923 
L 125.163243 297.348923 
L 124.805766 297.348923 
L 124.448288 297.348923 
L 124.090811 297.348923 
L 123.733333 297.348923 
L 123.375856 297.348923 
L 123.018378 297.348923 
L 122.660901 297.348923 
L 122.303423 297.348923 
L 121.945946 297.348923 
L 121.588468 297.348923 
L 121.230991 297.348923 
L 120.873514 297.348923 
L 120.516036 297.348923 
L 120.158559 297.348923 
L 119.801081 297.348923 
L 119.443604 297.348923 
L 119.086126 297.348923 
L 118.728649 297.348923 
L 118.371171 297.348923 
L 118.013694 297.348923 
L 117.656216 297.348923 
L 117.298739 297.348923 
L 116.941261 297.348923 
L 116.583784 297.348923 
L 116.226306 297.348923 
L 115.868829 297.348923 
L 115.511351 297.348923 
L 115.153874 297.348923 
L 114.796396 297.348923 
L 114.438919 297.348923 
L 114.081441 297.348923 
L 113.723964 297.348923 
L 113.366486 297.348923 
L 113.009009 297.348923 
L 112.651532 297.348923 
L 112.294054 297.348923 
L 111.936577 297.348923 
L 111.579099 297.348923 
L 111.221622 297.348923 
L 110.864144 297.348923 
L 110.506667 297.348923 
L 110.149189 297.348923 
L 109.791712 297.348923 
L 109.434234 297.348923 
L 109.076757 297.348923 
L 108.719279 297.348923 
L 108.361802 297.348923 
L 108.004324 297.348923 
L 107.646847 297.348923 
L 107.289369 297.348923 
L 106.931892 297.348923 
L 106.574414 297.348923 
L 106.216937 297.348923 
L 105.859459 297.348923 
L 105.501982 297.348923 
L 105.144505 297.348923 
L 104.787027 297.348923 
L 104.42955 297.348923 
L 104.072072 297.348923 
L 103.714595 297.348923 
L 103.357117 297.348923 
L 102.99964 297.348923 
L 102.642162 297.348923 
L 102.284685 297.348923 
L 101.927207 297.348923 
L 101.56973 297.348923 
L 101.212252 297.348923 
L 100.854775 297.348923 
L 100.497297 297.348923 
L 100.13982 297.348923 
L 99.782342 297.348923 
L 99.424865 297.348923 
L 99.067387 297.348923 
L 98.70991 297.348923 
L 98.352432 297.348923 
L 97.994955 297.348923 
L 97.637477 297.348923 
L 97.28 297.348923 
L 96.922523 297.348923 
L 96.565045 297.348923 
L 96.207568 297.348923 
L 95.85009 297.348923 
L 95.492613 297.348923 
L 95.135135 297.348923 
L 94.777658 297.348923 
L 94.42018 297.348923 
L 94.062703 297.348923 
L 93.705225 297.348923 
L 93.347748 297.348923 
L 92.99027 297.348923 
L 92.632793 297.348923 
L 92.275315 297.348923 
L 91.917838 297.348923 
L 91.56036 297.348923 
L 91.202883 297.348923 
L 90.845405 297.348923 
L 90.487928 297.348923 
L 90.13045 297.348923 
L 89.772973 297.348923 
L 89.415495 297.348923 
L 89.058018 297.348923 
L 88.700541 297.348923 
L 88.343063 297.348923 
L 87.985586 297.348923 
L 87.628108 297.348923 
L 87.270631 297.348923 
L 86.913153 297.348923 
L 86.555676 297.348923 
L 86.198198 297.348923 
L 85.840721 297.348923 
L 85.483243 297.348923 
L 85.125766 297.348923 
L 84.768288 297.348923 
L 84.410811 297.348923 
L 84.053333 297.348923 
L 83.695856 297.348923 
L 83.338378 297.348923 
L 82.980901 297.348923 
L 82.623423 297.348923 
L 82.265946 297.348923 
L 81.908468 297.348923 
L 81.550991 297.348923 
L 81.193514 297.348923 
L 80.836036 297.348923 
L 80.478559 297.348923 
L 80.121081 297.348923 
L 79.763604 297.348923 
L 79.406126 297.348923 
L 79.048649 297.348923 
L 78.691171 297.348923 
L 78.333694 297.348923 
L 77.976216 297.348923 
L 77.618739 297.348923 
L 77.261261 297.348923 
L 76.903784 297.348923 
L 76.546306 297.348923 
L 76.188829 297.348923 
L 75.831351 297.348923 
L 75.473874 297.348923 
L 75.116396 297.348923 
L 74.758919 297.348923 
L 74.401441 297.348923 
L 74.043964 297.348923 
L 73.686486 297.348923 
L 73.329009 297.348923 
L 72.971532 297.348923 
L 72.614054 297.348923 
L 72.256577 297.348923 
L 71.899099 297.348923 
L 71.541622 297.348923 
L 71.184144 297.348923 
L 70.826667 297.348923 
L 70.469189 297.348923 
L 70.111712 297.348923 
L 69.754234 297.348923 
L 69.396757 297.348923 
L 69.039279 297.348923 
L 68.681802 297.348923 
L 68.324324 297.348923 
L 67.966847 297.348923 
L 67.609369 297.348923 
L 67.251892 297.348923 
L 66.894414 297.348923 
L 66.536937 297.348923 
L 66.179459 297.348923 
L 65.821982 297.348923 
L 65.464505 297.348923 
L 65.107027 297.348923 
L 64.74955 297.348923 
L 64.392072 297.348923 
L 64.034595 297.348923 
L 63.677117 297.348923 
L 63.31964 297.348923 
L 62.962162 297.348923 
L 62.604685 297.348923 
L 62.247207 297.348923 
L 61.88973 297.348923 
L 61.532252 297.348923 
L 61.174775 297.348923 
L 60.817297 297.348923 
L 60.45982 297.348923 
L 60.102342 297.348923 
L 59.744865 297.348923 
L 59.387387 297.348923 
L 59.02991 297.348923 
L 58.672432 297.348923 
L 58.314955 297.348923 
L 57.957477 297.348923 
L 57.6 297.348923 
z
" clip-path="url(#p0afc110be6)" style="fill: #1f77b4; fill-opacity: 0.5"/>
   </g>
   <g id="line2d_27">
    <defs>
     <path id="m54f8292746" d="M 0 3 
L 0 -3 
" style="stroke: #000000"/>
    </defs>
    <g clip-path="url(#p0afc110be6)">
     <use xlink:href="#m54f8292746" x="224.980518" y="302.466462" style="stroke: #000000"/>
     <use xlink:href="#m54f8292746" x="158.434129" y="302.466462" style="stroke: #000000"/>
     <use xlink:href="#m54f8292746" x="160.921609" y="302.466462" style="stroke: #000000"/>
     <use xlink:href="#m54f8292746" x="144.708454" y="302.466462" style="stroke: #000000"/>
     <use xlink:href="#m54f8292746" x="202.394531" y="302.466462" style="stroke: #000000"/>
     <use xlink:href="#m54f8292746" x="108.146208" y="302.466462" style="stroke: #000000"/>
     <use xlink:href="#m54f8292746" x="377.365598" y="302.466462" style="stroke: #000000"/>
     <use xlink:href="#m54f8292746" x="302.786483" y="302.466462" style="stroke: #000000"/>
     <use xlink:href="#m54f8292746" x="334.934603" y="302.466462" style="stroke: #000000"/>
     <use xlink:href="#m54f8292746" x="318.018738" y="302.466462" style="stroke: #000000"/>
     <use xlink:href="#m54f8292746" x="368.952332" y="302.466462" style="stroke: #000000"/>
     <use xlink:href="#m54f8292746" x="264.130212" y="302.466462" style="stroke: #000000"/>
     <use xlink:href="#m54f8292746" x="315.844864" y="302.466462" style="stroke: #000000"/>
     <use xlink:href="#m54f8292746" x="314.010542" y="302.466462" style="stroke: #000000"/>
     <use xlink:href="#m54f8292746" x="359.180979" y="302.466462" style="stroke: #000000"/>
     <use xlink:href="#m54f8292746" x="292.707236" y="302.466462" style="stroke: #000000"/>
     <use xlink:href="#m54f8292746" x="320.308537" y="302.466462" style="stroke: #000000"/>
     <use xlink:href="#m54f8292746" x="299.314933" y="302.466462" style="stroke: #000000"/>
     <use xlink:href="#m54f8292746" x="326.696281" y="302.466462" style="stroke: #000000"/>
     <use xlink:href="#m54f8292746" x="342.784581" y="302.466462" style="stroke: #000000"/>
    </g>
   </g>
   <g id="patch_3">
    <path d="M 57.6 307.584 
L 57.6 41.472 
" style="fill: none; stroke: #cccccc; stroke-linejoin: miter; stroke-linecap: square"/>
   </g>
   <g id="patch_4">
    <path d="M 414.72 307.584 
L 414.72 41.472 
" style="fill: none; stroke: #cccccc; stroke-linejoin: miter; stroke-linecap: square"/>
   </g>
   <g id="patch_5">
    <path d="M 57.6 307.584 
L 414.72 307.584 
" style="fill: none; stroke: #cccccc; stroke-linejoin: miter; stroke-linecap: square"/>
   </g>
   <g id="patch_6">
    <path d="M 57.6 41.472 
L 414.72 41.472 
" style="fill: none; stroke: #cccccc; stroke-linejoin: miter; stroke-linecap: square"/>
   </g>
  </g>
 </g>
 <defs>
  <clipPath id="p0afc110be6">
   <rect x="57.6" y="41.472" width="357.12" height="266.112"/>
  </clipPath>
 </defs>
</svg>
