<?xml version="1.0" encoding="utf-8" standalone="no"?>
<!DOCTYPE svg PUBLIC "-//W3C//DTD SVG 1.1//EN"
  "http://www.w3.org/Graphics/SVG/1.1/DTD/svg11.dtd">
<svg xmlns:xlink="http://www.w3.org/1999/xlink" width="864pt" height="288pt" viewBox="0 0 864 288" xmlns="http://www.w3.org/2000/svg" version="1.1">
 <metadata>
  <rdf:RDF xmlns:dc="http://purl.org/dc/elements/1.1/" xmlns:cc="http://creativecommons.org/ns#" xmlns:rdf="http://www.w3.org/1999/02/22-rdf-syntax-ns#">
   <cc:Work>
    <dc:type rdf:resource="http://purl.org/dc/dcmitype/StillImage"/>
    <dc:date>2023-09-14T09:24:17.243011</dc:date>
    <dc:format>image/svg+xml</dc:format>
    <dc:creator>
     <cc:Agent>
      <dc:title>Matplotlib v3.7.1, https://matplotlib.org/</dc:title>
     </cc:Agent>
    </dc:creator>
   </cc:Work>
  </rdf:RDF>
 </metadata>
 <defs>
  <style type="text/css">*{stroke-linejoin: round; stroke-linecap: butt}</style>
 </defs>
 <g id="figure_1">
  <g id="patch_1">
   <path d="M 0 288 
L 864 288 
L 864 0 
L 0 0 
z
" style="fill: #ffffff"/>
  </g>
  <g id="axes_1">
   <g id="patch_2">
    <path d="M 108 256.32 
L 434.634146 256.32 
L 434.634146 34.56 
L 108 34.56 
z
" style="fill: #ffffff"/>
   </g>
   <g id="matplotlib.axis_1">
    <g id="xtick_1">
     <g id="line2d_1">
      <path d="M 108 256.32 
L 108 34.56 
" clip-path="url(#p108a8b19ba)" style="fill: none; stroke: #cccccc; stroke-width: 0.8; stroke-linecap: round"/>
     </g>
     <g id="line2d_2"/>
     <g id="text_1">
      <!-- −4 -->
      <g style="fill: #262626" transform="translate(102.299219 267.066875) scale(0.1 -0.1)">
       <defs>
        <path id="LiberationSans-2212" d="M 316 1900 
L 316 2356 
L 3425 2356 
L 3425 1900 
L 316 1900 
z
" transform="scale(0.015625)"/>
        <path id="LiberationSans-34" d="M 2753 997 
L 2753 0 
L 2222 0 
L 2222 997 
L 147 997 
L 147 1434 
L 2163 4403 
L 2753 4403 
L 2753 1441 
L 3372 1441 
L 3372 997 
L 2753 997 
z
M 2222 3769 
Q 2216 3750 2134 3603 
Q 2053 3456 2013 3397 
L 884 1734 
L 716 1503 
L 666 1441 
L 2222 1441 
L 2222 3769 
z
" transform="scale(0.015625)"/>
       </defs>
       <use xlink:href="#LiberationSans-2212"/>
       <use xlink:href="#LiberationSans-34" x="58.398438"/>
      </g>
     </g>
    </g>
    <g id="xtick_2">
     <g id="line2d_3">
      <path d="M 158.251407 256.32 
L 158.251407 34.56 
" clip-path="url(#p108a8b19ba)" style="fill: none; stroke: #cccccc; stroke-width: 0.8; stroke-linecap: round"/>
     </g>
     <g id="line2d_4"/>
     <g id="text_2">
      <!-- −2 -->
      <g style="fill: #262626" transform="translate(152.550626 267.066875) scale(0.1 -0.1)">
       <defs>
        <path id="LiberationSans-32" d="M 322 0 
L 322 397 
Q 481 763 711 1042 
Q 941 1322 1194 1548 
Q 1447 1775 1695 1969 
Q 1944 2163 2144 2356 
Q 2344 2550 2467 2762 
Q 2591 2975 2591 3244 
Q 2591 3606 2378 3806 
Q 2166 4006 1788 4006 
Q 1428 4006 1195 3811 
Q 963 3616 922 3263 
L 347 3316 
Q 409 3844 795 4156 
Q 1181 4469 1788 4469 
Q 2453 4469 2811 4155 
Q 3169 3841 3169 3263 
Q 3169 3006 3051 2753 
Q 2934 2500 2703 2247 
Q 2472 1994 1819 1463 
Q 1459 1169 1246 933 
Q 1034 697 941 478 
L 3238 478 
L 3238 0 
L 322 0 
z
" transform="scale(0.015625)"/>
       </defs>
       <use xlink:href="#LiberationSans-2212"/>
       <use xlink:href="#LiberationSans-32" x="58.398438"/>
      </g>
     </g>
    </g>
    <g id="xtick_3">
     <g id="line2d_5">
      <path d="M 208.502814 256.32 
L 208.502814 34.56 
" clip-path="url(#p108a8b19ba)" style="fill: none; stroke: #cccccc; stroke-width: 0.8; stroke-linecap: round"/>
     </g>
     <g id="line2d_6"/>
     <g id="text_3">
      <!-- 0 -->
      <g style="fill: #262626" transform="translate(205.722346 267.066875) scale(0.1 -0.1)">
       <defs>
        <path id="LiberationSans-30" d="M 3309 2203 
Q 3309 1100 2920 518 
Q 2531 -63 1772 -63 
Q 1013 -63 631 515 
Q 250 1094 250 2203 
Q 250 3338 620 3903 
Q 991 4469 1791 4469 
Q 2569 4469 2939 3897 
Q 3309 3325 3309 2203 
z
M 2738 2203 
Q 2738 3156 2517 3584 
Q 2297 4013 1791 4013 
Q 1272 4013 1045 3591 
Q 819 3169 819 2203 
Q 819 1266 1048 831 
Q 1278 397 1778 397 
Q 2275 397 2506 840 
Q 2738 1284 2738 2203 
z
" transform="scale(0.015625)"/>
       </defs>
       <use xlink:href="#LiberationSans-30"/>
      </g>
     </g>
    </g>
    <g id="xtick_4">
     <g id="line2d_7">
      <path d="M 258.754221 256.32 
L 258.754221 34.56 
" clip-path="url(#p108a8b19ba)" style="fill: none; stroke: #cccccc; stroke-width: 0.8; stroke-linecap: round"/>
     </g>
     <g id="line2d_8"/>
     <g id="text_4">
      <!-- 2 -->
      <g style="fill: #262626" transform="translate(255.973753 267.066875) scale(0.1 -0.1)">
       <use xlink:href="#LiberationSans-32"/>
      </g>
     </g>
    </g>
    <g id="xtick_5">
     <g id="line2d_9">
      <path d="M 309.005629 256.32 
L 309.005629 34.56 
" clip-path="url(#p108a8b19ba)" style="fill: none; stroke: #cccccc; stroke-width: 0.8; stroke-linecap: round"/>
     </g>
     <g id="line2d_10"/>
     <g id="text_5">
      <!-- 4 -->
      <g style="fill: #262626" transform="translate(306.22516 267.066875) scale(0.1 -0.1)">
       <use xlink:href="#LiberationSans-34"/>
      </g>
     </g>
    </g>
    <g id="xtick_6">
     <g id="line2d_11">
      <path d="M 359.257036 256.32 
L 359.257036 34.56 
" clip-path="url(#p108a8b19ba)" style="fill: none; stroke: #cccccc; stroke-width: 0.8; stroke-linecap: round"/>
     </g>
     <g id="line2d_12"/>
     <g id="text_6">
      <!-- 6 -->
      <g style="fill: #262626" transform="translate(356.476567 267.066875) scale(0.1 -0.1)">
       <defs>
        <path id="LiberationSans-36" d="M 3278 1441 
Q 3278 744 2900 340 
Q 2522 -63 1856 -63 
Q 1113 -63 719 490 
Q 325 1044 325 2100 
Q 325 3244 734 3856 
Q 1144 4469 1900 4469 
Q 2897 4469 3156 3572 
L 2619 3475 
Q 2453 4013 1894 4013 
Q 1413 4013 1148 3564 
Q 884 3116 884 2266 
Q 1038 2550 1316 2698 
Q 1594 2847 1953 2847 
Q 2563 2847 2920 2465 
Q 3278 2084 3278 1441 
z
M 2706 1416 
Q 2706 1894 2472 2153 
Q 2238 2413 1819 2413 
Q 1425 2413 1183 2183 
Q 941 1953 941 1550 
Q 941 1041 1192 716 
Q 1444 391 1838 391 
Q 2244 391 2475 664 
Q 2706 938 2706 1416 
z
" transform="scale(0.015625)"/>
       </defs>
       <use xlink:href="#LiberationSans-36"/>
      </g>
     </g>
    </g>
    <g id="xtick_7">
     <g id="line2d_13">
      <path d="M 409.508443 256.32 
L 409.508443 34.56 
" clip-path="url(#p108a8b19ba)" style="fill: none; stroke: #cccccc; stroke-width: 0.8; stroke-linecap: round"/>
     </g>
     <g id="line2d_14"/>
     <g id="text_7">
      <!-- 8 -->
      <g style="fill: #262626" transform="translate(406.727974 267.066875) scale(0.1 -0.1)">
       <defs>
        <path id="LiberationSans-38" d="M 3281 1228 
Q 3281 619 2893 278 
Q 2506 -63 1781 -63 
Q 1075 -63 676 271 
Q 278 606 278 1222 
Q 278 1653 525 1947 
Q 772 2241 1156 2303 
L 1156 2316 
Q 797 2400 589 2681 
Q 381 2963 381 3341 
Q 381 3844 757 4156 
Q 1134 4469 1769 4469 
Q 2419 4469 2795 4162 
Q 3172 3856 3172 3334 
Q 3172 2956 2962 2675 
Q 2753 2394 2391 2322 
L 2391 2309 
Q 2813 2241 3047 1952 
Q 3281 1663 3281 1228 
z
M 2588 3303 
Q 2588 4050 1769 4050 
Q 1372 4050 1164 3862 
Q 956 3675 956 3303 
Q 956 2925 1170 2726 
Q 1384 2528 1775 2528 
Q 2172 2528 2380 2711 
Q 2588 2894 2588 3303 
z
M 2697 1281 
Q 2697 1691 2453 1898 
Q 2209 2106 1769 2106 
Q 1341 2106 1100 1882 
Q 859 1659 859 1269 
Q 859 359 1788 359 
Q 2247 359 2472 579 
Q 2697 800 2697 1281 
z
" transform="scale(0.015625)"/>
       </defs>
       <use xlink:href="#LiberationSans-38"/>
      </g>
     </g>
    </g>
   </g>
   <g id="matplotlib.axis_2">
    <g id="ytick_1">
     <g id="line2d_15">
      <path d="M 108 242.46 
L 434.634146 242.46 
" clip-path="url(#p108a8b19ba)" style="fill: none; stroke: #cccccc; stroke-width: 0.8; stroke-linecap: round"/>
     </g>
     <g id="line2d_16"/>
     <g id="text_8">
      <!-- 0.00 -->
      <g style="fill: #262626" transform="translate(85.039062 246.083438) scale(0.1 -0.1)">
       <defs>
        <path id="LiberationSans-2e" d="M 584 0 
L 584 684 
L 1194 684 
L 1194 0 
L 584 0 
z
" transform="scale(0.015625)"/>
       </defs>
       <use xlink:href="#LiberationSans-30"/>
       <use xlink:href="#LiberationSans-2e" x="55.615234"/>
       <use xlink:href="#LiberationSans-30" x="83.398438"/>
       <use xlink:href="#LiberationSans-30" x="139.013672"/>
      </g>
     </g>
    </g>
    <g id="ytick_2">
     <g id="line2d_17">
      <path d="M 108 207.81 
L 434.634146 207.81 
" clip-path="url(#p108a8b19ba)" style="fill: none; stroke: #cccccc; stroke-width: 0.8; stroke-linecap: round"/>
     </g>
     <g id="line2d_18"/>
     <g id="text_9">
      <!-- 0.05 -->
      <g style="fill: #262626" transform="translate(85.039062 211.433437) scale(0.1 -0.1)">
       <defs>
        <path id="LiberationSans-35" d="M 3291 1434 
Q 3291 738 2877 337 
Q 2463 -63 1728 -63 
Q 1113 -63 734 206 
Q 356 475 256 984 
L 825 1050 
Q 1003 397 1741 397 
Q 2194 397 2450 670 
Q 2706 944 2706 1422 
Q 2706 1838 2448 2094 
Q 2191 2350 1753 2350 
Q 1525 2350 1328 2278 
Q 1131 2206 934 2034 
L 384 2034 
L 531 4403 
L 3034 4403 
L 3034 3925 
L 1044 3925 
L 959 2528 
Q 1325 2809 1869 2809 
Q 2519 2809 2905 2428 
Q 3291 2047 3291 1434 
z
" transform="scale(0.015625)"/>
       </defs>
       <use xlink:href="#LiberationSans-30"/>
       <use xlink:href="#LiberationSans-2e" x="55.615234"/>
       <use xlink:href="#LiberationSans-30" x="83.398438"/>
       <use xlink:href="#LiberationSans-35" x="139.013672"/>
      </g>
     </g>
    </g>
    <g id="ytick_3">
     <g id="line2d_19">
      <path d="M 108 173.16 
L 434.634146 173.16 
" clip-path="url(#p108a8b19ba)" style="fill: none; stroke: #cccccc; stroke-width: 0.8; stroke-linecap: round"/>
     </g>
     <g id="line2d_20"/>
     <g id="text_10">
      <!-- 0.10 -->
      <g style="fill: #262626" transform="translate(85.039062 176.783437) scale(0.1 -0.1)">
       <defs>
        <path id="LiberationSans-31" d="M 488 0 
L 488 478 
L 1609 478 
L 1609 3866 
L 616 3156 
L 616 3688 
L 1656 4403 
L 2175 4403 
L 2175 478 
L 3247 478 
L 3247 0 
L 488 0 
z
" transform="scale(0.015625)"/>
       </defs>
       <use xlink:href="#LiberationSans-30"/>
       <use xlink:href="#LiberationSans-2e" x="55.615234"/>
       <use xlink:href="#LiberationSans-31" x="83.398438"/>
       <use xlink:href="#LiberationSans-30" x="139.013672"/>
      </g>
     </g>
    </g>
    <g id="ytick_4">
     <g id="line2d_21">
      <path d="M 108 138.51 
L 434.634146 138.51 
" clip-path="url(#p108a8b19ba)" style="fill: none; stroke: #cccccc; stroke-width: 0.8; stroke-linecap: round"/>
     </g>
     <g id="line2d_22"/>
     <g id="text_11">
      <!-- 0.15 -->
      <g style="fill: #262626" transform="translate(85.039062 142.133437) scale(0.1 -0.1)">
       <use xlink:href="#LiberationSans-30"/>
       <use xlink:href="#LiberationSans-2e" x="55.615234"/>
       <use xlink:href="#LiberationSans-31" x="83.398438"/>
       <use xlink:href="#LiberationSans-35" x="139.013672"/>
      </g>
     </g>
    </g>
    <g id="ytick_5">
     <g id="line2d_23">
      <path d="M 108 103.86 
L 434.634146 103.86 
" clip-path="url(#p108a8b19ba)" style="fill: none; stroke: #cccccc; stroke-width: 0.8; stroke-linecap: round"/>
     </g>
     <g id="line2d_24"/>
     <g id="text_12">
      <!-- 0.20 -->
      <g style="fill: #262626" transform="translate(85.039062 107.483438) scale(0.1 -0.1)">
       <use xlink:href="#LiberationSans-30"/>
       <use xlink:href="#LiberationSans-2e" x="55.615234"/>
       <use xlink:href="#LiberationSans-32" x="83.398438"/>
       <use xlink:href="#LiberationSans-30" x="139.013672"/>
      </g>
     </g>
    </g>
    <g id="ytick_6">
     <g id="line2d_25">
      <path d="M 108 69.21 
L 434.634146 69.21 
" clip-path="url(#p108a8b19ba)" style="fill: none; stroke: #cccccc; stroke-width: 0.8; stroke-linecap: round"/>
     </g>
     <g id="line2d_26"/>
     <g id="text_13">
      <!-- 0.25 -->
      <g style="fill: #262626" transform="translate(85.039062 72.833437) scale(0.1 -0.1)">
       <use xlink:href="#LiberationSans-30"/>
       <use xlink:href="#LiberationSans-2e" x="55.615234"/>
       <use xlink:href="#LiberationSans-32" x="83.398438"/>
       <use xlink:href="#LiberationSans-35" x="139.013672"/>
      </g>
     </g>
    </g>
    <g id="ytick_7">
     <g id="line2d_27">
      <path d="M 108 34.56 
L 434.634146 34.56 
" clip-path="url(#p108a8b19ba)" style="fill: none; stroke: #cccccc; stroke-width: 0.8; stroke-linecap: round"/>
     </g>
     <g id="line2d_28"/>
     <g id="text_14">
      <!-- 0.30 -->
      <g style="fill: #262626" transform="translate(85.039062 38.183437) scale(0.1 -0.1)">
       <defs>
        <path id="LiberationSans-33" d="M 3278 1216 
Q 3278 606 2890 271 
Q 2503 -63 1784 -63 
Q 1116 -63 717 239 
Q 319 541 244 1131 
L 825 1184 
Q 938 403 1784 403 
Q 2209 403 2451 612 
Q 2694 822 2694 1234 
Q 2694 1594 2417 1795 
Q 2141 1997 1619 1997 
L 1300 1997 
L 1300 2484 
L 1606 2484 
Q 2069 2484 2323 2686 
Q 2578 2888 2578 3244 
Q 2578 3597 2370 3801 
Q 2163 4006 1753 4006 
Q 1381 4006 1151 3815 
Q 922 3625 884 3278 
L 319 3322 
Q 381 3863 767 4166 
Q 1153 4469 1759 4469 
Q 2422 4469 2789 4161 
Q 3156 3853 3156 3303 
Q 3156 2881 2920 2617 
Q 2684 2353 2234 2259 
L 2234 2247 
Q 2728 2194 3003 1916 
Q 3278 1638 3278 1216 
z
" transform="scale(0.015625)"/>
       </defs>
       <use xlink:href="#LiberationSans-30"/>
       <use xlink:href="#LiberationSans-2e" x="55.615234"/>
       <use xlink:href="#LiberationSans-33" x="83.398438"/>
       <use xlink:href="#LiberationSans-30" x="139.013672"/>
      </g>
     </g>
    </g>
   </g>
   <g id="patch_3">
    <path d="M 82.874296 242.46 
L 124.750469 242.46 
L 124.750469 242.46 
L 82.874296 242.46 
z
" clip-path="url(#p108a8b19ba)" style="fill: #1f77b4"/>
   </g>
   <g id="patch_4">
    <path d="M 124.750469 242.46 
L 166.626642 242.46 
L 166.626642 221.67 
L 124.750469 221.67 
z
" clip-path="url(#p108a8b19ba)" style="fill: #1f77b4"/>
   </g>
   <g id="patch_5">
    <path d="M 166.626642 242.46 
L 208.502814 242.46 
L 208.502814 180.09 
L 166.626642 180.09 
z
" clip-path="url(#p108a8b19ba)" style="fill: #1f77b4"/>
   </g>
   <g id="patch_6">
    <path d="M 208.502814 242.46 
L 250.378987 242.46 
L 250.378987 200.88 
L 208.502814 200.88 
z
" clip-path="url(#p108a8b19ba)" style="fill: #1f77b4"/>
   </g>
   <g id="patch_7">
    <path d="M 250.378987 242.46 
L 292.255159 242.46 
L 292.255159 221.67 
L 250.378987 221.67 
z
" clip-path="url(#p108a8b19ba)" style="fill: #1f77b4"/>
   </g>
   <g id="patch_8">
    <path d="M 292.255159 242.46 
L 334.131332 242.46 
L 334.131332 96.93 
L 292.255159 96.93 
z
" clip-path="url(#p108a8b19ba)" style="fill: #1f77b4"/>
   </g>
   <g id="patch_9">
    <path d="M 334.131332 242.46 
L 376.007505 242.46 
L 376.007505 138.51 
L 334.131332 138.51 
z
" clip-path="url(#p108a8b19ba)" style="fill: #1f77b4"/>
   </g>
   <g id="patch_10">
    <path d="M 376.007505 242.46 
L 417.883677 242.46 
L 417.883677 221.67 
L 376.007505 221.67 
z
" clip-path="url(#p108a8b19ba)" style="fill: #1f77b4"/>
   </g>
   <g id="patch_11">
    <path d="M 417.883677 242.46 
L 459.75985 242.46 
L 459.75985 242.46 
L 417.883677 242.46 
z
" clip-path="url(#p108a8b19ba)" style="fill: #1f77b4"/>
   </g>
   <g id="line2d_29">
    <defs>
     <path id="mad2810829a" d="M 0 3 
L 0 -3 
" style="stroke: #000000"/>
    </defs>
    <g clip-path="url(#p108a8b19ba)">
     <use xlink:href="#mad2810829a" x="249.315634" y="249.39" style="stroke: #000000"/>
     <use xlink:href="#mad2810829a" x="193.132004" y="249.39" style="stroke: #000000"/>
     <use xlink:href="#mad2810829a" x="195.232127" y="249.39" style="stroke: #000000"/>
     <use xlink:href="#mad2810829a" x="181.543723" y="249.39" style="stroke: #000000"/>
     <use xlink:href="#mad2810829a" x="230.24679" y="249.39" style="stroke: #000000"/>
     <use xlink:href="#mad2810829a" x="150.675035" y="249.39" style="stroke: #000000"/>
     <use xlink:href="#mad2810829a" x="377.970955" y="249.39" style="stroke: #000000"/>
     <use xlink:href="#mad2810829a" x="315.005473" y="249.39" style="stroke: #000000"/>
     <use xlink:href="#mad2810829a" x="342.147414" y="249.39" style="stroke: #000000"/>
     <use xlink:href="#mad2810829a" x="327.865726" y="249.39" style="stroke: #000000"/>
     <use xlink:href="#mad2810829a" x="370.867823" y="249.39" style="stroke: #000000"/>
     <use xlink:href="#mad2810829a" x="282.368847" y="249.39" style="stroke: #000000"/>
     <use xlink:href="#mad2810829a" x="326.030373" y="249.39" style="stroke: #000000"/>
     <use xlink:href="#mad2810829a" x="324.481696" y="249.39" style="stroke: #000000"/>
     <use xlink:href="#mad2810829a" x="362.618087" y="249.39" style="stroke: #000000"/>
     <use xlink:href="#mad2810829a" x="306.49579" y="249.39" style="stroke: #000000"/>
     <use xlink:href="#mad2810829a" x="329.798952" y="249.39" style="stroke: #000000"/>
     <use xlink:href="#mad2810829a" x="312.074522" y="249.39" style="stroke: #000000"/>
     <use xlink:href="#mad2810829a" x="335.191982" y="249.39" style="stroke: #000000"/>
     <use xlink:href="#mad2810829a" x="348.774974" y="249.39" style="stroke: #000000"/>
    </g>
   </g>
   <g id="patch_12">
    <path d="M 108 256.32 
L 108 34.56 
" style="fill: none; stroke: #cccccc; stroke-linejoin: miter; stroke-linecap: square"/>
   </g>
   <g id="patch_13">
    <path d="M 434.634146 256.32 
L 434.634146 34.56 
" style="fill: none; stroke: #cccccc; stroke-linejoin: miter; stroke-linecap: square"/>
   </g>
   <g id="patch_14">
    <path d="M 108 256.32 
L 434.634146 256.32 
" style="fill: none; stroke: #cccccc; stroke-linejoin: miter; stroke-linecap: square"/>
   </g>
   <g id="patch_15">
    <path d="M 108 34.56 
L 434.634146 34.56 
" style="fill: none; stroke: #cccccc; stroke-linejoin: miter; stroke-linecap: square"/>
   </g>
  </g>
  <g id="axes_2">
   <g id="patch_16">
    <path d="M 450.965854 256.32 
L 777.6 256.32 
L 777.6 34.56 
L 450.965854 34.56 
z
" style="fill: #ffffff"/>
   </g>
   <g id="matplotlib.axis_3">
    <g id="xtick_8">
     <g id="line2d_30">
      <path d="M 450.965854 256.32 
L 450.965854 34.56 
" clip-path="url(#p5a77bcc11f)" style="fill: none; stroke: #cccccc; stroke-width: 0.8; stroke-linecap: round"/>
     </g>
     <g id="line2d_31"/>
     <g id="text_15">
      <!-- −4 -->
      <g style="fill: #262626" transform="translate(445.265072 267.066875) scale(0.1 -0.1)">
       <use xlink:href="#LiberationSans-2212"/>
       <use xlink:href="#LiberationSans-34" x="58.398438"/>
      </g>
     </g>
    </g>
    <g id="xtick_9">
     <g id="line2d_32">
      <path d="M 501.217261 256.32 
L 501.217261 34.56 
" clip-path="url(#p5a77bcc11f)" style="fill: none; stroke: #cccccc; stroke-width: 0.8; stroke-linecap: round"/>
     </g>
     <g id="line2d_33"/>
     <g id="text_16">
      <!-- −2 -->
      <g style="fill: #262626" transform="translate(495.51648 267.066875) scale(0.1 -0.1)">
       <use xlink:href="#LiberationSans-2212"/>
       <use xlink:href="#LiberationSans-32" x="58.398438"/>
      </g>
     </g>
    </g>
    <g id="xtick_10">
     <g id="line2d_34">
      <path d="M 551.468668 256.32 
L 551.468668 34.56 
" clip-path="url(#p5a77bcc11f)" style="fill: none; stroke: #cccccc; stroke-width: 0.8; stroke-linecap: round"/>
     </g>
     <g id="line2d_35"/>
     <g id="text_17">
      <!-- 0 -->
      <g style="fill: #262626" transform="translate(548.688199 267.066875) scale(0.1 -0.1)">
       <use xlink:href="#LiberationSans-30"/>
      </g>
     </g>
    </g>
    <g id="xtick_11">
     <g id="line2d_36">
      <path d="M 601.720075 256.32 
L 601.720075 34.56 
" clip-path="url(#p5a77bcc11f)" style="fill: none; stroke: #cccccc; stroke-width: 0.8; stroke-linecap: round"/>
     </g>
     <g id="line2d_37"/>
     <g id="text_18">
      <!-- 2 -->
      <g style="fill: #262626" transform="translate(598.939606 267.066875) scale(0.1 -0.1)">
       <use xlink:href="#LiberationSans-32"/>
      </g>
     </g>
    </g>
    <g id="xtick_12">
     <g id="line2d_38">
      <path d="M 651.971482 256.32 
L 651.971482 34.56 
" clip-path="url(#p5a77bcc11f)" style="fill: none; stroke: #cccccc; stroke-width: 0.8; stroke-linecap: round"/>
     </g>
     <g id="line2d_39"/>
     <g id="text_19">
      <!-- 4 -->
      <g style="fill: #262626" transform="translate(649.191013 267.066875) scale(0.1 -0.1)">
       <use xlink:href="#LiberationSans-34"/>
      </g>
     </g>
    </g>
    <g id="xtick_13">
     <g id="line2d_40">
      <path d="M 702.222889 256.32 
L 702.222889 34.56 
" clip-path="url(#p5a77bcc11f)" style="fill: none; stroke: #cccccc; stroke-width: 0.8; stroke-linecap: round"/>
     </g>
     <g id="line2d_41"/>
     <g id="text_20">
      <!-- 6 -->
      <g style="fill: #262626" transform="translate(699.442421 267.066875) scale(0.1 -0.1)">
       <use xlink:href="#LiberationSans-36"/>
      </g>
     </g>
    </g>
    <g id="xtick_14">
     <g id="line2d_42">
      <path d="M 752.474296 256.32 
L 752.474296 34.56 
" clip-path="url(#p5a77bcc11f)" style="fill: none; stroke: #cccccc; stroke-width: 0.8; stroke-linecap: round"/>
     </g>
     <g id="line2d_43"/>
     <g id="text_21">
      <!-- 8 -->
      <g style="fill: #262626" transform="translate(749.693828 267.066875) scale(0.1 -0.1)">
       <use xlink:href="#LiberationSans-38"/>
      </g>
     </g>
    </g>
   </g>
   <g id="matplotlib.axis_4">
    <g id="ytick_8">
     <g id="line2d_44">
      <path d="M 450.965854 242.46 
L 777.6 242.46 
" clip-path="url(#p5a77bcc11f)" style="fill: none; stroke: #cccccc; stroke-width: 0.8; stroke-linecap: round"/>
     </g>
     <g id="line2d_45"/>
    </g>
    <g id="ytick_9">
     <g id="line2d_46">
      <path d="M 450.965854 207.81 
L 777.6 207.81 
" clip-path="url(#p5a77bcc11f)" style="fill: none; stroke: #cccccc; stroke-width: 0.8; stroke-linecap: round"/>
     </g>
     <g id="line2d_47"/>
    </g>
    <g id="ytick_10">
     <g id="line2d_48">
      <path d="M 450.965854 173.16 
L 777.6 173.16 
" clip-path="url(#p5a77bcc11f)" style="fill: none; stroke: #cccccc; stroke-width: 0.8; stroke-linecap: round"/>
     </g>
     <g id="line2d_49"/>
    </g>
    <g id="ytick_11">
     <g id="line2d_50">
      <path d="M 450.965854 138.51 
L 777.6 138.51 
" clip-path="url(#p5a77bcc11f)" style="fill: none; stroke: #cccccc; stroke-width: 0.8; stroke-linecap: round"/>
     </g>
     <g id="line2d_51"/>
    </g>
    <g id="ytick_12">
     <g id="line2d_52">
      <path d="M 450.965854 103.86 
L 777.6 103.86 
" clip-path="url(#p5a77bcc11f)" style="fill: none; stroke: #cccccc; stroke-width: 0.8; stroke-linecap: round"/>
     </g>
     <g id="line2d_53"/>
    </g>
    <g id="ytick_13">
     <g id="line2d_54">
      <path d="M 450.965854 69.21 
L 777.6 69.21 
" clip-path="url(#p5a77bcc11f)" style="fill: none; stroke: #cccccc; stroke-width: 0.8; stroke-linecap: round"/>
     </g>
     <g id="line2d_55"/>
    </g>
    <g id="ytick_14">
     <g id="line2d_56">
      <path d="M 450.965854 34.56 
L 777.6 34.56 
" clip-path="url(#p5a77bcc11f)" style="fill: none; stroke: #cccccc; stroke-width: 0.8; stroke-linecap: round"/>
     </g>
     <g id="line2d_57"/>
    </g>
   </g>
   <g id="patch_17">
    <path d="M 440.915572 242.46 
L 482.791745 242.46 
L 482.791745 242.46 
L 440.915572 242.46 
z
" clip-path="url(#p5a77bcc11f)" style="fill: #1f77b4"/>
   </g>
   <g id="patch_18">
    <path d="M 482.791745 242.46 
L 524.667917 242.46 
L 524.667917 200.88 
L 482.791745 200.88 
z
" clip-path="url(#p5a77bcc11f)" style="fill: #1f77b4"/>
   </g>
   <g id="patch_19">
    <path d="M 524.667917 242.46 
L 566.54409 242.46 
L 566.54409 200.88 
L 524.667917 200.88 
z
" clip-path="url(#p5a77bcc11f)" style="fill: #1f77b4"/>
   </g>
   <g id="patch_20">
    <path d="M 566.54409 242.46 
L 608.420263 242.46 
L 608.420263 200.88 
L 566.54409 200.88 
z
" clip-path="url(#p5a77bcc11f)" style="fill: #1f77b4"/>
   </g>
   <g id="patch_21">
    <path d="M 608.420263 242.46 
L 650.296435 242.46 
L 650.296435 200.88 
L 608.420263 200.88 
z
" clip-path="url(#p5a77bcc11f)" style="fill: #1f77b4"/>
   </g>
   <g id="patch_22">
    <path d="M 650.296435 242.46 
L 692.172608 242.46 
L 692.172608 55.35 
L 650.296435 55.35 
z
" clip-path="url(#p5a77bcc11f)" style="fill: #1f77b4"/>
   </g>
   <g id="patch_23">
    <path d="M 692.172608 242.46 
L 734.04878 242.46 
L 734.04878 180.09 
L 692.172608 180.09 
z
" clip-path="url(#p5a77bcc11f)" style="fill: #1f77b4"/>
   </g>
   <g id="patch_24">
    <path d="M 734.04878 242.46 
L 775.924953 242.46 
L 775.924953 242.46 
L 734.04878 242.46 
z
" clip-path="url(#p5a77bcc11f)" style="fill: #1f77b4"/>
   </g>
   <g id="patch_25">
    <path d="M 775.924953 242.46 
L 817.801126 242.46 
L 817.801126 242.46 
L 775.924953 242.46 
z
" clip-path="url(#p5a77bcc11f)" style="fill: #1f77b4"/>
   </g>
   <g id="line2d_58">
    <g clip-path="url(#p5a77bcc11f)">
     <use xlink:href="#mad2810829a" x="592.281488" y="249.39" style="stroke: #000000"/>
     <use xlink:href="#mad2810829a" x="536.097858" y="249.39" style="stroke: #000000"/>
     <use xlink:href="#mad2810829a" x="538.197981" y="249.39" style="stroke: #000000"/>
     <use xlink:href="#mad2810829a" x="524.509576" y="249.39" style="stroke: #000000"/>
     <use xlink:href="#mad2810829a" x="573.212643" y="249.39" style="stroke: #000000"/>
     <use xlink:href="#mad2810829a" x="493.640889" y="249.39" style="stroke: #000000"/>
     <use xlink:href="#mad2810829a" x="720.936809" y="249.39" style="stroke: #000000"/>
     <use xlink:href="#mad2810829a" x="657.971327" y="249.39" style="stroke: #000000"/>
     <use xlink:href="#mad2810829a" x="685.113267" y="249.39" style="stroke: #000000"/>
     <use xlink:href="#mad2810829a" x="670.83158" y="249.39" style="stroke: #000000"/>
     <use xlink:href="#mad2810829a" x="713.833676" y="249.39" style="stroke: #000000"/>
     <use xlink:href="#mad2810829a" x="625.334701" y="249.39" style="stroke: #000000"/>
     <use xlink:href="#mad2810829a" x="668.996227" y="249.39" style="stroke: #000000"/>
     <use xlink:href="#mad2810829a" x="667.44755" y="249.39" style="stroke: #000000"/>
     <use xlink:href="#mad2810829a" x="705.583941" y="249.39" style="stroke: #000000"/>
     <use xlink:href="#mad2810829a" x="649.461644" y="249.39" style="stroke: #000000"/>
     <use xlink:href="#mad2810829a" x="672.764806" y="249.39" style="stroke: #000000"/>
     <use xlink:href="#mad2810829a" x="655.040375" y="249.39" style="stroke: #000000"/>
     <use xlink:href="#mad2810829a" x="678.157836" y="249.39" style="stroke: #000000"/>
     <use xlink:href="#mad2810829a" x="691.740828" y="249.39" style="stroke: #000000"/>
    </g>
   </g>
   <g id="patch_26">
    <path d="M 450.965854 256.32 
L 450.965854 34.56 
" style="fill: none; stroke: #cccccc; stroke-linejoin: miter; stroke-linecap: square"/>
   </g>
   <g id="patch_27">
    <path d="M 777.6 256.32 
L 777.6 34.56 
" style="fill: none; stroke: #cccccc; stroke-linejoin: miter; stroke-linecap: square"/>
   </g>
   <g id="patch_28">
    <path d="M 450.965854 256.32 
L 777.6 256.32 
" style="fill: none; stroke: #cccccc; stroke-linejoin: miter; stroke-linecap: square"/>
   </g>
   <g id="patch_29">
    <path d="M 450.965854 34.56 
L 777.6 34.56 
" style="fill: none; stroke: #cccccc; stroke-linejoin: miter; stroke-linecap: square"/>
   </g>
  </g>
 </g>
 <defs>
  <clipPath id="p108a8b19ba">
   <rect x="108" y="34.56" width="326.634146" height="221.76"/>
  </clipPath>
  <clipPath id="p5a77bcc11f">
   <rect x="450.965854" y="34.56" width="326.634146" height="221.76"/>
  </clipPath>
 </defs>
</svg>
