<?xml version="1.0" encoding="utf-8" standalone="no"?>
<!DOCTYPE svg PUBLIC "-//W3C//DTD SVG 1.1//EN"
  "http://www.w3.org/Graphics/SVG/1.1/DTD/svg11.dtd">
<svg xmlns:xlink="http://www.w3.org/1999/xlink" width="460.8pt" height="345.6pt" viewBox="0 0 460.8 345.6" xmlns="http://www.w3.org/2000/svg" version="1.1">
 <metadata>
  <rdf:RDF xmlns:dc="http://purl.org/dc/elements/1.1/" xmlns:cc="http://creativecommons.org/ns#" xmlns:rdf="http://www.w3.org/1999/02/22-rdf-syntax-ns#">
   <cc:Work>
    <dc:type rdf:resource="http://purl.org/dc/dcmitype/StillImage"/>
    <dc:date>2023-09-14T09:24:17.727953</dc:date>
    <dc:format>image/svg+xml</dc:format>
    <dc:creator>
     <cc:Agent>
      <dc:title>Matplotlib v3.7.1, https://matplotlib.org/</dc:title>
     </cc:Agent>
    </dc:creator>
   </cc:Work>
  </rdf:RDF>
 </metadata>
 <defs>
  <style type="text/css">*{stroke-linejoin: round; stroke-linecap: butt}</style>
 </defs>
 <g id="figure_1">
  <g id="patch_1">
   <path d="M 0 345.6 
L 460.8 345.6 
L 460.8 0 
L 0 0 
z
" style="fill: #ffffff"/>
  </g>
  <g id="axes_1">
   <g id="patch_2">
    <path d="M 57.6 307.584 
L 414.72 307.584 
L 414.72 41.472 
L 57.6 41.472 
z
" style="fill: #ffffff"/>
   </g>
   <g id="matplotlib.axis_1">
    <g id="xtick_1">
     <g id="line2d_1">
      <path d="M 73.832727 307.584 
L 73.832727 41.472 
" clip-path="url(#p713b2fb663)" style="fill: none; stroke: #cccccc; stroke-width: 0.8; stroke-linecap: round"/>
     </g>
     <g id="line2d_2"/>
     <g id="text_1">
      <!-- −4 -->
      <g style="fill: #262626" transform="translate(68.131946 318.330875) scale(0.1 -0.1)">
       <defs>
        <path id="LiberationSans-2212" d="M 316 1900 
L 316 2356 
L 3425 2356 
L 3425 1900 
L 316 1900 
z
" transform="scale(0.015625)"/>
        <path id="LiberationSans-34" d="M 2753 997 
L 2753 0 
L 2222 0 
L 2222 997 
L 147 997 
L 147 1434 
L 2163 4403 
L 2753 4403 
L 2753 1441 
L 3372 1441 
L 3372 997 
L 2753 997 
z
M 2222 3769 
Q 2216 3750 2134 3603 
Q 2053 3456 2013 3397 
L 884 1734 
L 716 1503 
L 666 1441 
L 2222 1441 
L 2222 3769 
z
" transform="scale(0.015625)"/>
       </defs>
       <use xlink:href="#LiberationSans-2212"/>
       <use xlink:href="#LiberationSans-34" x="58.398438"/>
      </g>
     </g>
    </g>
    <g id="xtick_2">
     <g id="line2d_3">
      <path d="M 127.941818 307.584 
L 127.941818 41.472 
" clip-path="url(#p713b2fb663)" style="fill: none; stroke: #cccccc; stroke-width: 0.8; stroke-linecap: round"/>
     </g>
     <g id="line2d_4"/>
     <g id="text_2">
      <!-- −2 -->
      <g style="fill: #262626" transform="translate(122.241037 318.330875) scale(0.1 -0.1)">
       <defs>
        <path id="LiberationSans-32" d="M 322 0 
L 322 397 
Q 481 763 711 1042 
Q 941 1322 1194 1548 
Q 1447 1775 1695 1969 
Q 1944 2163 2144 2356 
Q 2344 2550 2467 2762 
Q 2591 2975 2591 3244 
Q 2591 3606 2378 3806 
Q 2166 4006 1788 4006 
Q 1428 4006 1195 3811 
Q 963 3616 922 3263 
L 347 3316 
Q 409 3844 795 4156 
Q 1181 4469 1788 4469 
Q 2453 4469 2811 4155 
Q 3169 3841 3169 3263 
Q 3169 3006 3051 2753 
Q 2934 2500 2703 2247 
Q 2472 1994 1819 1463 
Q 1459 1169 1246 933 
Q 1034 697 941 478 
L 3238 478 
L 3238 0 
L 322 0 
z
" transform="scale(0.015625)"/>
       </defs>
       <use xlink:href="#LiberationSans-2212"/>
       <use xlink:href="#LiberationSans-32" x="58.398438"/>
      </g>
     </g>
    </g>
    <g id="xtick_3">
     <g id="line2d_5">
      <path d="M 182.050909 307.584 
L 182.050909 41.472 
" clip-path="url(#p713b2fb663)" style="fill: none; stroke: #cccccc; stroke-width: 0.8; stroke-linecap: round"/>
     </g>
     <g id="line2d_6"/>
     <g id="text_3">
      <!-- 0 -->
      <g style="fill: #262626" transform="translate(179.27044 318.330875) scale(0.1 -0.1)">
       <defs>
        <path id="LiberationSans-30" d="M 3309 2203 
Q 3309 1100 2920 518 
Q 2531 -63 1772 -63 
Q 1013 -63 631 515 
Q 250 1094 250 2203 
Q 250 3338 620 3903 
Q 991 4469 1791 4469 
Q 2569 4469 2939 3897 
Q 3309 3325 3309 2203 
z
M 2738 2203 
Q 2738 3156 2517 3584 
Q 2297 4013 1791 4013 
Q 1272 4013 1045 3591 
Q 819 3169 819 2203 
Q 819 1266 1048 831 
Q 1278 397 1778 397 
Q 2275 397 2506 840 
Q 2738 1284 2738 2203 
z
" transform="scale(0.015625)"/>
       </defs>
       <use xlink:href="#LiberationSans-30"/>
      </g>
     </g>
    </g>
    <g id="xtick_4">
     <g id="line2d_7">
      <path d="M 236.16 307.584 
L 236.16 41.472 
" clip-path="url(#p713b2fb663)" style="fill: none; stroke: #cccccc; stroke-width: 0.8; stroke-linecap: round"/>
     </g>
     <g id="line2d_8"/>
     <g id="text_4">
      <!-- 2 -->
      <g style="fill: #262626" transform="translate(233.379531 318.330875) scale(0.1 -0.1)">
       <use xlink:href="#LiberationSans-32"/>
      </g>
     </g>
    </g>
    <g id="xtick_5">
     <g id="line2d_9">
      <path d="M 290.269091 307.584 
L 290.269091 41.472 
" clip-path="url(#p713b2fb663)" style="fill: none; stroke: #cccccc; stroke-width: 0.8; stroke-linecap: round"/>
     </g>
     <g id="line2d_10"/>
     <g id="text_5">
      <!-- 4 -->
      <g style="fill: #262626" transform="translate(287.488622 318.330875) scale(0.1 -0.1)">
       <use xlink:href="#LiberationSans-34"/>
      </g>
     </g>
    </g>
    <g id="xtick_6">
     <g id="line2d_11">
      <path d="M 344.378182 307.584 
L 344.378182 41.472 
" clip-path="url(#p713b2fb663)" style="fill: none; stroke: #cccccc; stroke-width: 0.8; stroke-linecap: round"/>
     </g>
     <g id="line2d_12"/>
     <g id="text_6">
      <!-- 6 -->
      <g style="fill: #262626" transform="translate(341.597713 318.330875) scale(0.1 -0.1)">
       <defs>
        <path id="LiberationSans-36" d="M 3278 1441 
Q 3278 744 2900 340 
Q 2522 -63 1856 -63 
Q 1113 -63 719 490 
Q 325 1044 325 2100 
Q 325 3244 734 3856 
Q 1144 4469 1900 4469 
Q 2897 4469 3156 3572 
L 2619 3475 
Q 2453 4013 1894 4013 
Q 1413 4013 1148 3564 
Q 884 3116 884 2266 
Q 1038 2550 1316 2698 
Q 1594 2847 1953 2847 
Q 2563 2847 2920 2465 
Q 3278 2084 3278 1441 
z
M 2706 1416 
Q 2706 1894 2472 2153 
Q 2238 2413 1819 2413 
Q 1425 2413 1183 2183 
Q 941 1953 941 1550 
Q 941 1041 1192 716 
Q 1444 391 1838 391 
Q 2244 391 2475 664 
Q 2706 938 2706 1416 
z
" transform="scale(0.015625)"/>
       </defs>
       <use xlink:href="#LiberationSans-36"/>
      </g>
     </g>
    </g>
    <g id="xtick_7">
     <g id="line2d_13">
      <path d="M 398.487273 307.584 
L 398.487273 41.472 
" clip-path="url(#p713b2fb663)" style="fill: none; stroke: #cccccc; stroke-width: 0.8; stroke-linecap: round"/>
     </g>
     <g id="line2d_14"/>
     <g id="text_7">
      <!-- 8 -->
      <g style="fill: #262626" transform="translate(395.706804 318.330875) scale(0.1 -0.1)">
       <defs>
        <path id="LiberationSans-38" d="M 3281 1228 
Q 3281 619 2893 278 
Q 2506 -63 1781 -63 
Q 1075 -63 676 271 
Q 278 606 278 1222 
Q 278 1653 525 1947 
Q 772 2241 1156 2303 
L 1156 2316 
Q 797 2400 589 2681 
Q 381 2963 381 3341 
Q 381 3844 757 4156 
Q 1134 4469 1769 4469 
Q 2419 4469 2795 4162 
Q 3172 3856 3172 3334 
Q 3172 2956 2962 2675 
Q 2753 2394 2391 2322 
L 2391 2309 
Q 2813 2241 3047 1952 
Q 3281 1663 3281 1228 
z
M 2588 3303 
Q 2588 4050 1769 4050 
Q 1372 4050 1164 3862 
Q 956 3675 956 3303 
Q 956 2925 1170 2726 
Q 1384 2528 1775 2528 
Q 2172 2528 2380 2711 
Q 2588 2894 2588 3303 
z
M 2697 1281 
Q 2697 1691 2453 1898 
Q 2209 2106 1769 2106 
Q 1341 2106 1100 1882 
Q 859 1659 859 1269 
Q 859 359 1788 359 
Q 2247 359 2472 579 
Q 2697 800 2697 1281 
z
" transform="scale(0.015625)"/>
       </defs>
       <use xlink:href="#LiberationSans-38"/>
      </g>
     </g>
    </g>
   </g>
   <g id="matplotlib.axis_2">
    <g id="ytick_1">
     <g id="line2d_15">
      <path d="M 57.6 285.408 
L 414.72 285.408 
" clip-path="url(#p713b2fb663)" style="fill: none; stroke: #cccccc; stroke-width: 0.8; stroke-linecap: round"/>
     </g>
     <g id="line2d_16"/>
     <g id="text_8">
      <!-- 0.00 -->
      <g style="fill: #262626" transform="translate(34.639063 289.031437) scale(0.1 -0.1)">
       <defs>
        <path id="LiberationSans-2e" d="M 584 0 
L 584 684 
L 1194 684 
L 1194 0 
L 584 0 
z
" transform="scale(0.015625)"/>
       </defs>
       <use xlink:href="#LiberationSans-30"/>
       <use xlink:href="#LiberationSans-2e" x="55.615234"/>
       <use xlink:href="#LiberationSans-30" x="83.398438"/>
       <use xlink:href="#LiberationSans-30" x="139.013672"/>
      </g>
     </g>
    </g>
    <g id="ytick_2">
     <g id="line2d_17">
      <path d="M 57.6 229.968 
L 414.72 229.968 
" clip-path="url(#p713b2fb663)" style="fill: none; stroke: #cccccc; stroke-width: 0.8; stroke-linecap: round"/>
     </g>
     <g id="line2d_18"/>
     <g id="text_9">
      <!-- 0.05 -->
      <g style="fill: #262626" transform="translate(34.639063 233.591437) scale(0.1 -0.1)">
       <defs>
        <path id="LiberationSans-35" d="M 3291 1434 
Q 3291 738 2877 337 
Q 2463 -63 1728 -63 
Q 1113 -63 734 206 
Q 356 475 256 984 
L 825 1050 
Q 1003 397 1741 397 
Q 2194 397 2450 670 
Q 2706 944 2706 1422 
Q 2706 1838 2448 2094 
Q 2191 2350 1753 2350 
Q 1525 2350 1328 2278 
Q 1131 2206 934 2034 
L 384 2034 
L 531 4403 
L 3034 4403 
L 3034 3925 
L 1044 3925 
L 959 2528 
Q 1325 2809 1869 2809 
Q 2519 2809 2905 2428 
Q 3291 2047 3291 1434 
z
" transform="scale(0.015625)"/>
       </defs>
       <use xlink:href="#LiberationSans-30"/>
       <use xlink:href="#LiberationSans-2e" x="55.615234"/>
       <use xlink:href="#LiberationSans-30" x="83.398438"/>
       <use xlink:href="#LiberationSans-35" x="139.013672"/>
      </g>
     </g>
    </g>
    <g id="ytick_3">
     <g id="line2d_19">
      <path d="M 57.6 174.528 
L 414.72 174.528 
" clip-path="url(#p713b2fb663)" style="fill: none; stroke: #cccccc; stroke-width: 0.8; stroke-linecap: round"/>
     </g>
     <g id="line2d_20"/>
     <g id="text_10">
      <!-- 0.10 -->
      <g style="fill: #262626" transform="translate(34.639063 178.151437) scale(0.1 -0.1)">
       <defs>
        <path id="LiberationSans-31" d="M 488 0 
L 488 478 
L 1609 478 
L 1609 3866 
L 616 3156 
L 616 3688 
L 1656 4403 
L 2175 4403 
L 2175 478 
L 3247 478 
L 3247 0 
L 488 0 
z
" transform="scale(0.015625)"/>
       </defs>
       <use xlink:href="#LiberationSans-30"/>
       <use xlink:href="#LiberationSans-2e" x="55.615234"/>
       <use xlink:href="#LiberationSans-31" x="83.398438"/>
       <use xlink:href="#LiberationSans-30" x="139.013672"/>
      </g>
     </g>
    </g>
    <g id="ytick_4">
     <g id="line2d_21">
      <path d="M 57.6 119.088 
L 414.72 119.088 
" clip-path="url(#p713b2fb663)" style="fill: none; stroke: #cccccc; stroke-width: 0.8; stroke-linecap: round"/>
     </g>
     <g id="line2d_22"/>
     <g id="text_11">
      <!-- 0.15 -->
      <g style="fill: #262626" transform="translate(34.639063 122.711437) scale(0.1 -0.1)">
       <use xlink:href="#LiberationSans-30"/>
       <use xlink:href="#LiberationSans-2e" x="55.615234"/>
       <use xlink:href="#LiberationSans-31" x="83.398438"/>
       <use xlink:href="#LiberationSans-35" x="139.013672"/>
      </g>
     </g>
    </g>
    <g id="ytick_5">
     <g id="line2d_23">
      <path d="M 57.6 63.648 
L 414.72 63.648 
" clip-path="url(#p713b2fb663)" style="fill: none; stroke: #cccccc; stroke-width: 0.8; stroke-linecap: round"/>
     </g>
     <g id="line2d_24"/>
     <g id="text_12">
      <!-- 0.20 -->
      <g style="fill: #262626" transform="translate(34.639063 67.271437) scale(0.1 -0.1)">
       <use xlink:href="#LiberationSans-30"/>
       <use xlink:href="#LiberationSans-2e" x="55.615234"/>
       <use xlink:href="#LiberationSans-32" x="83.398438"/>
       <use xlink:href="#LiberationSans-30" x="139.013672"/>
      </g>
     </g>
    </g>
   </g>
   <g id="PolyCollection_1">
    <path d="M 73.832727 285.408 
L 73.832727 279.750621 
L 74.157707 279.627136 
L 74.482686 279.50169 
L 74.807666 279.374269 
L 75.132645 279.244863 
L 75.457625 279.113458 
L 75.782604 278.980042 
L 76.107584 278.844605 
L 76.432563 278.707134 
L 76.757543 278.56762 
L 77.082523 278.426051 
L 77.407502 278.282418 
L 77.732482 278.136711 
L 78.057461 277.98892 
L 78.382441 277.839037 
L 78.70742 277.687054 
L 79.0324 277.532962 
L 79.357379 277.376753 
L 79.682359 277.21842 
L 80.007338 277.057957 
L 80.332318 276.895356 
L 80.657297 276.730613 
L 80.982277 276.56372 
L 81.307256 276.394674 
L 81.632236 276.223469 
L 81.957215 276.050101 
L 82.282195 275.874565 
L 82.607174 275.69686 
L 82.932154 275.51698 
L 83.257133 275.334925 
L 83.582113 275.150692 
L 83.907093 274.964279 
L 84.232072 274.775684 
L 84.557052 274.584908 
L 84.882031 274.391949 
L 85.207011 274.196808 
L 85.53199 273.999485 
L 85.85697 273.799981 
L 86.181949 273.598297 
L 86.506929 273.394436 
L 86.831908 273.188399 
L 87.156888 272.980189 
L 87.481867 272.769809 
L 87.806847 272.557263 
L 88.131826 272.342554 
L 88.456806 272.125687 
L 88.781785 271.906666 
L 89.106765 271.685497 
L 89.431744 271.462185 
L 89.756724 271.236736 
L 90.081704 271.009157 
L 90.406683 270.779453 
L 90.731663 270.547632 
L 91.056642 270.313701 
L 91.381622 270.077669 
L 91.706601 269.839543 
L 92.031581 269.599331 
L 92.35656 269.357043 
L 92.68154 269.112688 
L 93.006519 268.866275 
L 93.331499 268.617814 
L 93.656478 268.367315 
L 93.981458 268.114788 
L 94.306437 267.860245 
L 94.631417 267.603696 
L 94.956396 267.345152 
L 95.281376 267.084625 
L 95.606355 266.822127 
L 95.931335 266.55767 
L 96.256314 266.291266 
L 96.581294 266.022928 
L 96.906274 265.752668 
L 97.231253 265.4805 
L 97.556233 265.206437 
L 97.881212 264.930492 
L 98.206192 264.652679 
L 98.531171 264.373012 
L 98.856151 264.091504 
L 99.18113 263.80817 
L 99.50611 263.523025 
L 99.831089 263.236083 
L 100.156069 262.947358 
L 100.481048 262.656865 
L 100.806028 262.36462 
L 101.131007 262.070637 
L 101.455987 261.774932 
L 101.780966 261.477519 
L 102.105946 261.178416 
L 102.430925 260.877636 
L 102.755905 260.575197 
L 103.080885 260.271113 
L 103.405864 259.9654 
L 103.730844 259.658076 
L 104.055823 259.349154 
L 104.380803 259.038653 
L 104.705782 258.726588 
L 105.030762 258.412976 
L 105.355741 258.097832 
L 105.680721 257.781174 
L 106.0057 257.463019 
L 106.33068 257.143382 
L 106.655659 256.82228 
L 106.980639 256.499732 
L 107.305618 256.175753 
L 107.630598 255.85036 
L 107.955577 255.523571 
L 108.280557 255.195403 
L 108.605536 254.865873 
L 108.930516 254.534998 
L 109.255495 254.202797 
L 109.580475 253.869286 
L 109.905455 253.534484 
L 110.230434 253.198408 
L 110.555414 252.861077 
L 110.880393 252.522507 
L 111.205373 252.182719 
L 111.530352 251.841729 
L 111.855332 251.499557 
L 112.180311 251.156221 
L 112.505291 250.81174 
L 112.83027 250.466133 
L 113.15525 250.119419 
L 113.480229 249.771618 
L 113.805209 249.42275 
L 114.130188 249.072833 
L 114.455168 248.72189 
L 114.780147 248.369939 
L 115.105127 248.017001 
L 115.430106 247.663098 
L 115.755086 247.30825 
L 116.080066 246.952479 
L 116.405045 246.595807 
L 116.730025 246.238256 
L 117.055004 245.879848 
L 117.379984 245.520606 
L 117.704963 245.160553 
L 118.029943 244.799714 
L 118.354922 244.438112 
L 118.679902 244.07577 
L 119.004881 243.712716 
L 119.329861 243.348972 
L 119.65484 242.984566 
L 119.97982 242.619524 
L 120.304799 242.253872 
L 120.629779 241.887637 
L 120.954758 241.520848 
L 121.279738 241.153533 
L 121.604717 240.78572 
L 121.929697 240.417439 
L 122.254676 240.048721 
L 122.579656 239.679595 
L 122.904636 239.310094 
L 123.229615 238.940248 
L 123.554595 238.570092 
L 123.879574 238.199657 
L 124.204554 237.828978 
L 124.529533 237.458089 
L 124.854513 237.087026 
L 125.179492 236.715824 
L 125.504472 236.344522 
L 125.829451 235.973155 
L 126.154431 235.601762 
L 126.47941 235.230382 
L 126.80439 234.859055 
L 127.129369 234.487822 
L 127.454349 234.116723 
L 127.779328 233.7458 
L 128.104308 233.375097 
L 128.429287 233.004658 
L 128.754267 232.634526 
L 129.079247 232.264746 
L 129.404226 231.895366 
L 129.729206 231.526431 
L 130.054185 231.15799 
L 130.379165 230.79009 
L 130.704144 230.422781 
L 131.029124 230.056114 
L 131.354103 229.690138 
L 131.679083 229.324906 
L 132.004062 228.960471 
L 132.329042 228.596884 
L 132.654021 228.2342 
L 132.979001 227.872475 
L 133.30398 227.511762 
L 133.62896 227.15212 
L 133.953939 226.793603 
L 134.278919 226.436272 
L 134.603898 226.080182 
L 134.928878 225.725394 
L 135.253857 225.371968 
L 135.578837 225.019963 
L 135.903817 224.66944 
L 136.228796 224.320462 
L 136.553776 223.97309 
L 136.878755 223.627386 
L 137.203735 223.283415 
L 137.528714 222.94124 
L 137.853694 222.600924 
L 138.178673 222.262533 
L 138.503653 221.926132 
L 138.828632 221.591786 
L 139.153612 221.259562 
L 139.478591 220.929524 
L 139.803571 220.60174 
L 140.12855 220.276276 
L 140.45353 219.953199 
L 140.778509 219.632576 
L 141.103489 219.314475 
L 141.428468 218.998962 
L 141.753448 218.686106 
L 142.078428 218.375973 
L 142.403407 218.068631 
L 142.728387 217.764147 
L 143.053366 217.462589 
L 143.378346 217.164024 
L 143.703325 216.868518 
L 144.028305 216.576138 
L 144.353284 216.286952 
L 144.678264 216.001023 
L 145.003243 215.71842 
L 145.328223 215.439206 
L 145.653202 215.163446 
L 145.978182 214.891206 
L 146.303161 214.622548 
L 146.628141 214.357536 
L 146.95312 214.096232 
L 147.2781 213.838698 
L 147.603079 213.584995 
L 147.928059 213.335183 
L 148.253038 213.089322 
L 148.578018 212.84747 
L 148.902998 212.609685 
L 149.227977 212.376023 
L 149.552957 212.146539 
L 149.877936 211.921288 
L 150.202916 211.700323 
L 150.527895 211.483696 
L 150.852875 211.271459 
L 151.177854 211.06366 
L 151.502834 210.860347 
L 151.827813 210.661569 
L 152.152793 210.467369 
L 152.477772 210.277792 
L 152.802752 210.092881 
L 153.127731 209.912676 
L 153.452711 209.737216 
L 153.77769 209.56654 
L 154.10267 209.400684 
L 154.427649 209.239681 
L 154.752629 209.083565 
L 155.077609 208.932366 
L 155.402588 208.786114 
L 155.727568 208.644835 
L 156.052547 208.508555 
L 156.377527 208.377298 
L 156.702506 208.251085 
L 157.027486 208.129935 
L 157.352465 208.013867 
L 157.677445 207.902896 
L 158.002424 207.797035 
L 158.327404 207.696296 
L 158.652383 207.600689 
L 158.977363 207.510222 
L 159.302342 207.424898 
L 159.627322 207.344722 
L 159.952301 207.269695 
L 160.277281 207.199816 
L 160.60226 207.135081 
L 160.92724 207.075486 
L 161.252219 207.021023 
L 161.577199 206.971682 
L 161.902179 206.927451 
L 162.227158 206.888317 
L 162.552138 206.854264 
L 162.877117 206.825273 
L 163.202097 206.801325 
L 163.527076 206.782396 
L 163.852056 206.768462 
L 164.177035 206.759497 
L 164.502015 206.755471 
L 164.826994 206.756354 
L 165.151974 206.762113 
L 165.476953 206.772713 
L 165.801933 206.788117 
L 166.126912 206.808286 
L 166.451892 206.833179 
L 166.776871 206.862754 
L 167.101851 206.896965 
L 167.42683 206.935766 
L 167.75181 206.979108 
L 168.07679 207.026941 
L 168.401769 207.079212 
L 168.726749 207.135869 
L 169.051728 207.196856 
L 169.376708 207.262114 
L 169.701687 207.331586 
L 170.026667 207.40521 
L 170.351646 207.482925 
L 170.676626 207.564668 
L 171.001605 207.650373 
L 171.326585 207.739974 
L 171.651564 207.833404 
L 171.976544 207.930593 
L 172.301523 208.031471 
L 172.626503 208.135967 
L 172.951482 208.244008 
L 173.276462 208.355521 
L 173.601441 208.47043 
L 173.926421 208.588661 
L 174.2514 208.710136 
L 174.57638 208.834778 
L 174.90136 208.962508 
L 175.226339 209.093249 
L 175.551319 209.226919 
L 175.876298 209.363439 
L 176.201278 209.502728 
L 176.526257 209.644704 
L 176.851237 209.789285 
L 177.176216 209.93639 
L 177.501196 210.085934 
L 177.826175 210.237837 
L 178.151155 210.392014 
L 178.476134 210.548381 
L 178.801114 210.706857 
L 179.126093 210.867357 
L 179.451073 211.029798 
L 179.776052 211.194097 
L 180.101032 211.36017 
L 180.426011 211.527934 
L 180.750991 211.697308 
L 181.075971 211.868207 
L 181.40095 212.040551 
L 181.72593 212.214258 
L 182.050909 212.389246 
L 182.375889 212.565435 
L 182.700868 212.742744 
L 183.025848 212.921095 
L 183.350827 213.100408 
L 183.675807 213.280606 
L 184.000786 213.461611 
L 184.325766 213.643346 
L 184.650745 213.825736 
L 184.975725 214.008707 
L 185.300704 214.192184 
L 185.625684 214.376095 
L 185.950663 214.560368 
L 186.275643 214.744932 
L 186.600622 214.929718 
L 186.925602 215.114656 
L 187.250581 215.299681 
L 187.575561 215.484726 
L 187.900541 215.669725 
L 188.22552 215.854616 
L 188.5505 216.039335 
L 188.875479 216.223823 
L 189.200459 216.408018 
L 189.525438 216.591864 
L 189.850418 216.775302 
L 190.175397 216.958277 
L 190.500377 217.140735 
L 190.825356 217.322622 
L 191.150336 217.503889 
L 191.475315 217.684484 
L 191.800295 217.86436 
L 192.125274 218.043468 
L 192.450254 218.221764 
L 192.775233 218.399204 
L 193.100213 218.575744 
L 193.425192 218.751343 
L 193.750172 218.925962 
L 194.075152 219.099562 
L 194.400131 219.272106 
L 194.725111 219.443559 
L 195.05009 219.613886 
L 195.37507 219.783056 
L 195.700049 219.951036 
L 196.025029 220.117798 
L 196.350008 220.283311 
L 196.674988 220.44755 
L 196.999967 220.610488 
L 197.324947 220.772101 
L 197.649926 220.932365 
L 197.974906 221.091259 
L 198.299885 221.248761 
L 198.624865 221.404852 
L 198.949844 221.559515 
L 199.274824 221.71273 
L 199.599803 221.864483 
L 199.924783 222.014757 
L 200.249762 222.16354 
L 200.574742 222.310818 
L 200.899722 222.456579 
L 201.224701 222.600811 
L 201.549681 222.743505 
L 201.87466 222.884651 
L 202.19964 223.024241 
L 202.524619 223.162267 
L 202.849599 223.298721 
L 203.174578 223.433597 
L 203.499558 223.56689 
L 203.824537 223.698595 
L 204.149517 223.828706 
L 204.474496 223.95722 
L 204.799476 224.084133 
L 205.124455 224.209442 
L 205.449435 224.333144 
L 205.774414 224.455236 
L 206.099394 224.575717 
L 206.424373 224.694584 
L 206.749353 224.811836 
L 207.074333 224.927471 
L 207.399312 225.041486 
L 207.724292 225.153882 
L 208.049271 225.264655 
L 208.374251 225.373805 
L 208.69923 225.481329 
L 209.02421 225.587227 
L 209.349189 225.691494 
L 209.674169 225.79413 
L 209.999148 225.895132 
L 210.324128 225.994496 
L 210.649107 226.09222 
L 210.974087 226.188298 
L 211.299066 226.282728 
L 211.624046 226.375504 
L 211.949025 226.466621 
L 212.274005 226.556073 
L 212.598984 226.643854 
L 212.923964 226.729955 
L 213.248943 226.814369 
L 213.573923 226.897087 
L 213.898903 226.978099 
L 214.223882 227.057395 
L 214.548862 227.134964 
L 214.873841 227.210792 
L 215.198821 227.284868 
L 215.5238 227.357176 
L 215.84878 227.427702 
L 216.173759 227.496429 
L 216.498739 227.563339 
L 216.823718 227.628414 
L 217.148698 227.691635 
L 217.473677 227.752981 
L 217.798657 227.812429 
L 218.123636 227.869956 
L 218.448616 227.925538 
L 218.773595 227.979149 
L 219.098575 228.030762 
L 219.423554 228.080349 
L 219.748534 228.12788 
L 220.073514 228.173323 
L 220.398493 228.216648 
L 220.723473 228.257819 
L 221.048452 228.296802 
L 221.373432 228.33356 
L 221.698411 228.368056 
L 222.023391 228.400249 
L 222.34837 228.4301 
L 222.67335 228.457567 
L 222.998329 228.482605 
L 223.323309 228.505169 
L 223.648288 228.525214 
L 223.973268 228.542691 
L 224.298247 228.557552 
L 224.623227 228.569745 
L 224.948206 228.579218 
L 225.273186 228.585918 
L 225.598165 228.58979 
L 225.923145 228.590778 
L 226.248124 228.588823 
L 226.573104 228.583868 
L 226.898084 228.57585 
L 227.223063 228.56471 
L 227.548043 228.550383 
L 227.873022 228.532805 
L 228.198002 228.511911 
L 228.522981 228.487633 
L 228.847961 228.459903 
L 229.17294 228.428652 
L 229.49792 228.393809 
L 229.822899 228.355302 
L 230.147879 228.313058 
L 230.472858 228.267003 
L 230.797838 228.217062 
L 231.122817 228.163159 
L 231.447797 228.105215 
L 231.772776 228.043153 
L 232.097756 227.976893 
L 232.422735 227.906355 
L 232.747715 227.831458 
L 233.072695 227.75212 
L 233.397674 227.668257 
L 233.722654 227.579786 
L 234.047633 227.486623 
L 234.372613 227.388681 
L 234.697592 227.285876 
L 235.022572 227.178121 
L 235.347551 227.065329 
L 235.672531 226.947411 
L 235.99751 226.82428 
L 236.32249 226.695847 
L 236.647469 226.562023 
L 236.972449 226.422719 
L 237.297428 226.277844 
L 237.622408 226.127309 
L 237.947387 225.971023 
L 238.272367 225.808897 
L 238.597346 225.640838 
L 238.922326 225.466757 
L 239.247305 225.286563 
L 239.572285 225.100166 
L 239.897265 224.907474 
L 240.222244 224.708397 
L 240.547224 224.502845 
L 240.872203 224.290728 
L 241.197183 224.071957 
L 241.522162 223.846441 
L 241.847142 223.614091 
L 242.172121 223.374821 
L 242.497101 223.12854 
L 242.82208 222.875162 
L 243.14706 222.614601 
L 243.472039 222.346769 
L 243.797019 222.071582 
L 244.121998 221.788955 
L 244.446978 221.498804 
L 244.771957 221.201047 
L 245.096937 220.895602 
L 245.421916 220.582388 
L 245.746896 220.261325 
L 246.071876 219.932335 
L 246.396855 219.59534 
L 246.721835 219.250266 
L 247.046814 218.897036 
L 247.371794 218.535578 
L 247.696773 218.16582 
L 248.021753 217.787691 
L 248.346732 217.401124 
L 248.671712 217.00605 
L 248.996691 216.602404 
L 249.321671 216.190123 
L 249.64665 215.769145 
L 249.97163 215.33941 
L 250.296609 214.90086 
L 250.621589 214.453439 
L 250.946568 213.997093 
L 251.271548 213.531769 
L 251.596527 213.057419 
L 251.921507 212.573994 
L 252.246486 212.08145 
L 252.571466 211.579744 
L 252.896446 211.068834 
L 253.221425 210.548683 
L 253.546405 210.019256 
L 253.871384 209.480519 
L 254.196364 208.932442 
L 254.521343 208.374997 
L 254.846323 207.808159 
L 255.171302 207.231906 
L 255.496282 206.646218 
L 255.821261 206.051079 
L 256.146241 205.446475 
L 256.47122 204.832396 
L 256.7962 204.208833 
L 257.121179 203.575782 
L 257.446159 202.933243 
L 257.771138 202.281215 
L 258.096118 201.619705 
L 258.421097 200.94872 
L 258.746077 200.268271 
L 259.071057 199.578374 
L 259.396036 198.879047 
L 259.721016 198.17031 
L 260.045995 197.45219 
L 260.370975 196.724715 
L 260.695954 195.987915 
L 261.020934 195.241828 
L 261.345913 194.486493 
L 261.670893 193.721951 
L 261.995872 192.948249 
L 262.320852 192.165439 
L 262.645831 191.373572 
L 262.970811 190.572708 
L 263.29579 189.762907 
L 263.62077 188.944235 
L 263.945749 188.11676 
L 264.270729 187.280555 
L 264.595708 186.435697 
L 264.920688 185.582266 
L 265.245667 184.720348 
L 265.570647 183.850028 
L 265.895627 182.971402 
L 266.220606 182.084563 
L 266.545586 181.189612 
L 266.870565 180.286654 
L 267.195545 179.375795 
L 267.520524 178.457148 
L 267.845504 177.530828 
L 268.170483 176.596955 
L 268.495463 175.655653 
L 268.820442 174.707049 
L 269.145422 173.751274 
L 269.470401 172.788464 
L 269.795381 171.818757 
L 270.12036 170.842297 
L 270.44534 169.85923 
L 270.770319 168.869708 
L 271.095299 167.873884 
L 271.420278 166.871917 
L 271.745258 165.863969 
L 272.070238 164.850205 
L 272.395217 163.830795 
L 272.720197 162.805912 
L 273.045176 161.775733 
L 273.370156 160.740437 
L 273.695135 159.700209 
L 274.020115 158.655236 
L 274.345094 157.605708 
L 274.670074 156.55182 
L 274.995053 155.493768 
L 275.320033 154.431755 
L 275.645012 153.365983 
L 275.969992 152.296659 
L 276.294971 151.223995 
L 276.619951 150.148203 
L 276.94493 149.0695 
L 277.26991 147.988105 
L 277.594889 146.904239 
L 277.919869 145.818128 
L 278.244848 144.73 
L 278.569828 143.640083 
L 278.894808 142.548612 
L 279.219787 141.455822 
L 279.544767 140.361949 
L 279.869746 139.267233 
L 280.194726 138.171918 
L 280.519705 137.076247 
L 280.844685 135.980465 
L 281.169664 134.884822 
L 281.494644 133.789568 
L 281.819623 132.694953 
L 282.144603 131.601232 
L 282.469582 130.508659 
L 282.794562 129.417491 
L 283.119541 128.327985 
L 283.444521 127.240401 
L 283.7695 126.154997 
L 284.09448 125.072037 
L 284.419459 123.99178 
L 284.744439 122.914491 
L 285.069419 121.840432 
L 285.394398 120.769868 
L 285.719378 119.703063 
L 286.044357 118.640282 
L 286.369337 117.581789 
L 286.694316 116.52785 
L 287.019296 115.47873 
L 287.344275 114.434694 
L 287.669255 113.396006 
L 287.994234 112.362931 
L 288.319214 111.335733 
L 288.644193 110.314675 
L 288.969173 109.300018 
L 289.294152 108.292025 
L 289.619132 107.290956 
L 289.944111 106.297071 
L 290.269091 105.310628 
L 290.59407 104.331883 
L 290.91905 103.361093 
L 291.244029 102.39851 
L 291.569009 101.444386 
L 291.893989 100.498973 
L 292.218968 99.562517 
L 292.543948 98.635266 
L 292.868927 97.717462 
L 293.193907 96.809349 
L 293.518886 95.911163 
L 293.843866 95.023144 
L 294.168845 94.145523 
L 294.493825 93.278533 
L 294.818804 92.422401 
L 295.143784 91.577352 
L 295.468763 90.74361 
L 295.793743 89.921392 
L 296.118722 89.110914 
L 296.443702 88.312388 
L 296.768681 87.526022 
L 297.093661 86.752022 
L 297.41864 85.990589 
L 297.74362 85.24192 
L 298.0686 84.506208 
L 298.393579 83.783642 
L 298.718559 83.074409 
L 299.043538 82.378688 
L 299.368518 81.696656 
L 299.693497 81.028487 
L 300.018477 80.374347 
L 300.343456 79.734401 
L 300.668436 79.108807 
L 300.993415 78.497719 
L 301.318395 77.901286 
L 301.643374 77.319653 
L 301.968354 76.75296 
L 302.293333 76.201342 
L 302.618313 75.664928 
L 302.943292 75.143843 
L 303.268272 74.638207 
L 303.593251 74.148134 
L 303.918231 73.673734 
L 304.24321 73.215111 
L 304.56819 72.772363 
L 304.89317 72.345586 
L 305.218149 71.934865 
L 305.543129 71.540286 
L 305.868108 71.161925 
L 306.193088 70.799854 
L 306.518067 70.454141 
L 306.843047 70.124847 
L 307.168026 69.812027 
L 307.493006 69.515733 
L 307.817985 69.236009 
L 308.142965 68.972896 
L 308.467944 68.726427 
L 308.792924 68.496632 
L 309.117903 68.283534 
L 309.442883 68.087151 
L 309.767862 67.907495 
L 310.092842 67.744576 
L 310.417821 67.598393 
L 310.742801 67.468944 
L 311.067781 67.356222 
L 311.39276 67.260211 
L 311.71774 67.180894 
L 312.042719 67.118246 
L 312.367699 67.072238 
L 312.692678 67.042836 
L 313.017658 67.030001 
L 313.342637 67.033689 
L 313.667617 67.05385 
L 313.992596 67.090432 
L 314.317576 67.143376 
L 314.642555 67.212618 
L 314.967535 67.298091 
L 315.292514 67.399722 
L 315.617494 67.517434 
L 315.942473 67.651147 
L 316.267453 67.800774 
L 316.592432 67.966226 
L 316.917412 68.147408 
L 317.242391 68.344223 
L 317.567371 68.556569 
L 317.892351 68.784339 
L 318.21733 69.027424 
L 318.54231 69.28571 
L 318.867289 69.55908 
L 319.192269 69.847415 
L 319.517248 70.150588 
L 319.842228 70.468474 
L 320.167207 70.800941 
L 320.492187 71.147855 
L 320.817166 71.509081 
L 321.142146 71.884478 
L 321.467125 72.273903 
L 321.792105 72.677212 
L 322.117084 73.094256 
L 322.442064 73.524885 
L 322.767043 73.968947 
L 323.092023 74.426286 
L 323.417002 74.896745 
L 323.741982 75.380166 
L 324.066962 75.876385 
L 324.391941 76.385241 
L 324.716921 76.906569 
L 325.0419 77.440201 
L 325.36688 77.985971 
L 325.691859 78.543707 
L 326.016839 79.113241 
L 326.341818 79.694399 
L 326.666798 80.287009 
L 326.991777 80.890896 
L 327.316757 81.505886 
L 327.641736 82.131802 
L 327.966716 82.768468 
L 328.291695 83.415707 
L 328.616675 84.073341 
L 328.941654 84.741192 
L 329.266634 85.419082 
L 329.591613 86.106832 
L 329.916593 86.804263 
L 330.241572 87.511198 
L 330.566552 88.227456 
L 330.891532 88.952861 
L 331.216511 89.687232 
L 331.541491 90.430394 
L 331.86647 91.182167 
L 332.19145 91.942375 
L 332.516429 92.710842 
L 332.841409 93.487392 
L 333.166388 94.271849 
L 333.491368 95.06404 
L 333.816347 95.863791 
L 334.141327 96.670929 
L 334.466306 97.485283 
L 334.791286 98.306683 
L 335.116265 99.134959 
L 335.441245 99.969943 
L 335.766224 100.811468 
L 336.091204 101.659369 
L 336.416183 102.513481 
L 336.741163 103.373641 
L 337.066143 104.239689 
L 337.391122 105.111464 
L 337.716102 105.988808 
L 338.041081 106.871563 
L 338.366061 107.759575 
L 338.69104 108.652691 
L 339.01602 109.550757 
L 339.340999 110.453624 
L 339.665979 111.361144 
L 339.990958 112.273169 
L 340.315938 113.189555 
L 340.640917 114.110159 
L 340.965897 115.034839 
L 341.290876 115.963455 
L 341.615856 116.89587 
L 341.940835 117.831948 
L 342.265815 118.771555 
L 342.590794 119.714559 
L 342.915774 120.66083 
L 343.240753 121.610239 
L 343.565733 122.562659 
L 343.890713 123.517966 
L 344.215692 124.476037 
L 344.540672 125.436752 
L 344.865651 126.39999 
L 345.190631 127.365635 
L 345.51561 128.333572 
L 345.84059 129.303686 
L 346.165569 130.275865 
L 346.490549 131.25 
L 346.815528 132.225983 
L 347.140508 133.203706 
L 347.465487 134.183065 
L 347.790467 135.163957 
L 348.115446 136.14628 
L 348.440426 137.129934 
L 348.765405 138.114821 
L 349.090385 139.100844 
L 349.415364 140.087908 
L 349.740344 141.07592 
L 350.065324 142.064787 
L 350.390303 143.054419 
L 350.715283 144.044727 
L 351.040262 145.035622 
L 351.365242 146.027018 
L 351.690221 147.018831 
L 352.015201 148.010976 
L 352.34018 149.00337 
L 352.66516 149.995933 
L 352.990139 150.988584 
L 353.315119 151.981245 
L 353.640098 152.973836 
L 353.965078 153.966282 
L 354.290057 154.958507 
L 354.615037 155.950436 
L 354.940016 156.941994 
L 355.264996 157.933109 
L 355.589975 158.92371 
L 355.914955 159.913724 
L 356.239934 160.903082 
L 356.564914 161.891714 
L 356.889894 162.879551 
L 357.214873 163.866525 
L 357.539853 164.852568 
L 357.864832 165.837615 
L 358.189812 166.821597 
L 358.514791 167.804451 
L 358.839771 168.786111 
L 359.16475 169.766512 
L 359.48973 170.745591 
L 359.814709 171.723283 
L 360.139689 172.699526 
L 360.464668 173.674256 
L 360.789648 174.647412 
L 361.114627 175.618931 
L 361.439607 176.588752 
L 361.764586 177.556813 
L 362.089566 178.523053 
L 362.414545 179.487411 
L 362.739525 180.449827 
L 363.064505 181.41024 
L 363.389484 182.368589 
L 363.714464 183.324816 
L 364.039443 184.278859 
L 364.364423 185.230659 
L 364.689402 186.180157 
L 365.014382 187.127293 
L 365.339361 188.072008 
L 365.664341 189.014242 
L 365.98932 189.953937 
L 366.3143 190.891033 
L 366.639279 191.825471 
L 366.964259 192.757193 
L 367.289238 193.686139 
L 367.614218 194.612251 
L 367.939197 195.535471 
L 368.264177 196.45574 
L 368.589156 197.372999 
L 368.914136 198.287189 
L 369.239115 199.198254 
L 369.564095 200.106133 
L 369.889075 201.01077 
L 370.214054 201.912106 
L 370.539034 202.810083 
L 370.864013 203.704644 
L 371.188993 204.59573 
L 371.513972 205.483285 
L 371.838952 206.36725 
L 372.163931 207.247569 
L 372.488911 208.124185 
L 372.81389 208.997041 
L 373.13887 209.866079 
L 373.463849 210.731245 
L 373.788829 211.592481 
L 374.113808 212.449731 
L 374.438788 213.302941 
L 374.763767 214.152055 
L 375.088747 214.997017 
L 375.413726 215.837773 
L 375.738706 216.674269 
L 376.063686 217.506451 
L 376.388665 218.334266 
L 376.713645 219.15766 
L 377.038624 219.97658 
L 377.363604 220.790975 
L 377.688583 221.600793 
L 378.013563 222.405982 
L 378.338542 223.206493 
L 378.663522 224.002274 
L 378.988501 224.793278 
L 379.313481 225.579454 
L 379.63846 226.360755 
L 379.96344 227.137132 
L 380.288419 227.90854 
L 380.613399 228.674933 
L 380.938378 229.436264 
L 381.263358 230.192489 
L 381.588337 230.943564 
L 381.913317 231.689447 
L 382.238296 232.430095 
L 382.563276 233.165467 
L 382.888256 233.895522 
L 383.213235 234.620221 
L 383.538215 235.339525 
L 383.863194 236.053397 
L 384.188174 236.761799 
L 384.513153 237.464696 
L 384.838133 238.162054 
L 385.163112 238.853838 
L 385.488092 239.540017 
L 385.813071 240.220558 
L 386.138051 240.895431 
L 386.46303 241.564607 
L 386.78801 242.228057 
L 387.112989 242.885754 
L 387.437969 243.537672 
L 387.762948 244.183787 
L 388.087928 244.824075 
L 388.412907 245.458514 
L 388.737887 246.087082 
L 389.062867 246.709758 
L 389.387846 247.326526 
L 389.712826 247.937366 
L 390.037805 248.542263 
L 390.362785 249.141202 
L 390.687764 249.734169 
L 391.012744 250.321151 
L 391.337723 250.902137 
L 391.662703 251.477118 
L 391.987682 252.046084 
L 392.312662 252.609029 
L 392.637641 253.165946 
L 392.962621 253.716831 
L 393.2876 254.26168 
L 393.61258 254.800491 
L 393.937559 255.333264 
L 394.262539 255.859998 
L 394.587518 256.380695 
L 394.912498 256.895359 
L 395.237477 257.403994 
L 395.562457 257.906605 
L 395.887437 258.403199 
L 396.212416 258.893785 
L 396.537396 259.378371 
L 396.862375 259.856969 
L 397.187355 260.32959 
L 397.512334 260.796248 
L 397.837314 261.256957 
L 398.162293 261.711732 
L 398.487273 262.16059 
L 398.487273 285.408 
L 398.487273 285.408 
L 398.162293 285.408 
L 397.837314 285.408 
L 397.512334 285.408 
L 397.187355 285.408 
L 396.862375 285.408 
L 396.537396 285.408 
L 396.212416 285.408 
L 395.887437 285.408 
L 395.562457 285.408 
L 395.237477 285.408 
L 394.912498 285.408 
L 394.587518 285.408 
L 394.262539 285.408 
L 393.937559 285.408 
L 393.61258 285.408 
L 393.2876 285.408 
L 392.962621 285.408 
L 392.637641 285.408 
L 392.312662 285.408 
L 391.987682 285.408 
L 391.662703 285.408 
L 391.337723 285.408 
L 391.012744 285.408 
L 390.687764 285.408 
L 390.362785 285.408 
L 390.037805 285.408 
L 389.712826 285.408 
L 389.387846 285.408 
L 389.062867 285.408 
L 388.737887 285.408 
L 388.412907 285.408 
L 388.087928 285.408 
L 387.762948 285.408 
L 387.437969 285.408 
L 387.112989 285.408 
L 386.78801 285.408 
L 386.46303 285.408 
L 386.138051 285.408 
L 385.813071 285.408 
L 385.488092 285.408 
L 385.163112 285.408 
L 384.838133 285.408 
L 384.513153 285.408 
L 384.188174 285.408 
L 383.863194 285.408 
L 383.538215 285.408 
L 383.213235 285.408 
L 382.888256 285.408 
L 382.563276 285.408 
L 382.238296 285.408 
L 381.913317 285.408 
L 381.588337 285.408 
L 381.263358 285.408 
L 380.938378 285.408 
L 380.613399 285.408 
L 380.288419 285.408 
L 379.96344 285.408 
L 379.63846 285.408 
L 379.313481 285.408 
L 378.988501 285.408 
L 378.663522 285.408 
L 378.338542 285.408 
L 378.013563 285.408 
L 377.688583 285.408 
L 377.363604 285.408 
L 377.038624 285.408 
L 376.713645 285.408 
L 376.388665 285.408 
L 376.063686 285.408 
L 375.738706 285.408 
L 375.413726 285.408 
L 375.088747 285.408 
L 374.763767 285.408 
L 374.438788 285.408 
L 374.113808 285.408 
L 373.788829 285.408 
L 373.463849 285.408 
L 373.13887 285.408 
L 372.81389 285.408 
L 372.488911 285.408 
L 372.163931 285.408 
L 371.838952 285.408 
L 371.513972 285.408 
L 371.188993 285.408 
L 370.864013 285.408 
L 370.539034 285.408 
L 370.214054 285.408 
L 369.889075 285.408 
L 369.564095 285.408 
L 369.239115 285.408 
L 368.914136 285.408 
L 368.589156 285.408 
L 368.264177 285.408 
L 367.939197 285.408 
L 367.614218 285.408 
L 367.289238 285.408 
L 366.964259 285.408 
L 366.639279 285.408 
L 366.3143 285.408 
L 365.98932 285.408 
L 365.664341 285.408 
L 365.339361 285.408 
L 365.014382 285.408 
L 364.689402 285.408 
L 364.364423 285.408 
L 364.039443 285.408 
L 363.714464 285.408 
L 363.389484 285.408 
L 363.064505 285.408 
L 362.739525 285.408 
L 362.414545 285.408 
L 362.089566 285.408 
L 361.764586 285.408 
L 361.439607 285.408 
L 361.114627 285.408 
L 360.789648 285.408 
L 360.464668 285.408 
L 360.139689 285.408 
L 359.814709 285.408 
L 359.48973 285.408 
L 359.16475 285.408 
L 358.839771 285.408 
L 358.514791 285.408 
L 358.189812 285.408 
L 357.864832 285.408 
L 357.539853 285.408 
L 357.214873 285.408 
L 356.889894 285.408 
L 356.564914 285.408 
L 356.239934 285.408 
L 355.914955 285.408 
L 355.589975 285.408 
L 355.264996 285.408 
L 354.940016 285.408 
L 354.615037 285.408 
L 354.290057 285.408 
L 353.965078 285.408 
L 353.640098 285.408 
L 353.315119 285.408 
L 352.990139 285.408 
L 352.66516 285.408 
L 352.34018 285.408 
L 352.015201 285.408 
L 351.690221 285.408 
L 351.365242 285.408 
L 351.040262 285.408 
L 350.715283 285.408 
L 350.390303 285.408 
L 350.065324 285.408 
L 349.740344 285.408 
L 349.415364 285.408 
L 349.090385 285.408 
L 348.765405 285.408 
L 348.440426 285.408 
L 348.115446 285.408 
L 347.790467 285.408 
L 347.465487 285.408 
L 347.140508 285.408 
L 346.815528 285.408 
L 346.490549 285.408 
L 346.165569 285.408 
L 345.84059 285.408 
L 345.51561 285.408 
L 345.190631 285.408 
L 344.865651 285.408 
L 344.540672 285.408 
L 344.215692 285.408 
L 343.890713 285.408 
L 343.565733 285.408 
L 343.240753 285.408 
L 342.915774 285.408 
L 342.590794 285.408 
L 342.265815 285.408 
L 341.940835 285.408 
L 341.615856 285.408 
L 341.290876 285.408 
L 340.965897 285.408 
L 340.640917 285.408 
L 340.315938 285.408 
L 339.990958 285.408 
L 339.665979 285.408 
L 339.340999 285.408 
L 339.01602 285.408 
L 338.69104 285.408 
L 338.366061 285.408 
L 338.041081 285.408 
L 337.716102 285.408 
L 337.391122 285.408 
L 337.066143 285.408 
L 336.741163 285.408 
L 336.416183 285.408 
L 336.091204 285.408 
L 335.766224 285.408 
L 335.441245 285.408 
L 335.116265 285.408 
L 334.791286 285.408 
L 334.466306 285.408 
L 334.141327 285.408 
L 333.816347 285.408 
L 333.491368 285.408 
L 333.166388 285.408 
L 332.841409 285.408 
L 332.516429 285.408 
L 332.19145 285.408 
L 331.86647 285.408 
L 331.541491 285.408 
L 331.216511 285.408 
L 330.891532 285.408 
L 330.566552 285.408 
L 330.241572 285.408 
L 329.916593 285.408 
L 329.591613 285.408 
L 329.266634 285.408 
L 328.941654 285.408 
L 328.616675 285.408 
L 328.291695 285.408 
L 327.966716 285.408 
L 327.641736 285.408 
L 327.316757 285.408 
L 326.991777 285.408 
L 326.666798 285.408 
L 326.341818 285.408 
L 326.016839 285.408 
L 325.691859 285.408 
L 325.36688 285.408 
L 325.0419 285.408 
L 324.716921 285.408 
L 324.391941 285.408 
L 324.066962 285.408 
L 323.741982 285.408 
L 323.417002 285.408 
L 323.092023 285.408 
L 322.767043 285.408 
L 322.442064 285.408 
L 322.117084 285.408 
L 321.792105 285.408 
L 321.467125 285.408 
L 321.142146 285.408 
L 320.817166 285.408 
L 320.492187 285.408 
L 320.167207 285.408 
L 319.842228 285.408 
L 319.517248 285.408 
L 319.192269 285.408 
L 318.867289 285.408 
L 318.54231 285.408 
L 318.21733 285.408 
L 317.892351 285.408 
L 317.567371 285.408 
L 317.242391 285.408 
L 316.917412 285.408 
L 316.592432 285.408 
L 316.267453 285.408 
L 315.942473 285.408 
L 315.617494 285.408 
L 315.292514 285.408 
L 314.967535 285.408 
L 314.642555 285.408 
L 314.317576 285.408 
L 313.992596 285.408 
L 313.667617 285.408 
L 313.342637 285.408 
L 313.017658 285.408 
L 312.692678 285.408 
L 312.367699 285.408 
L 312.042719 285.408 
L 311.71774 285.408 
L 311.39276 285.408 
L 311.067781 285.408 
L 310.742801 285.408 
L 310.417821 285.408 
L 310.092842 285.408 
L 309.767862 285.408 
L 309.442883 285.408 
L 309.117903 285.408 
L 308.792924 285.408 
L 308.467944 285.408 
L 308.142965 285.408 
L 307.817985 285.408 
L 307.493006 285.408 
L 307.168026 285.408 
L 306.843047 285.408 
L 306.518067 285.408 
L 306.193088 285.408 
L 305.868108 285.408 
L 305.543129 285.408 
L 305.218149 285.408 
L 304.89317 285.408 
L 304.56819 285.408 
L 304.24321 285.408 
L 303.918231 285.408 
L 303.593251 285.408 
L 303.268272 285.408 
L 302.943292 285.408 
L 302.618313 285.408 
L 302.293333 285.408 
L 301.968354 285.408 
L 301.643374 285.408 
L 301.318395 285.408 
L 300.993415 285.408 
L 300.668436 285.408 
L 300.343456 285.408 
L 300.018477 285.408 
L 299.693497 285.408 
L 299.368518 285.408 
L 299.043538 285.408 
L 298.718559 285.408 
L 298.393579 285.408 
L 298.0686 285.408 
L 297.74362 285.408 
L 297.41864 285.408 
L 297.093661 285.408 
L 296.768681 285.408 
L 296.443702 285.408 
L 296.118722 285.408 
L 295.793743 285.408 
L 295.468763 285.408 
L 295.143784 285.408 
L 294.818804 285.408 
L 294.493825 285.408 
L 294.168845 285.408 
L 293.843866 285.408 
L 293.518886 285.408 
L 293.193907 285.408 
L 292.868927 285.408 
L 292.543948 285.408 
L 292.218968 285.408 
L 291.893989 285.408 
L 291.569009 285.408 
L 291.244029 285.408 
L 290.91905 285.408 
L 290.59407 285.408 
L 290.269091 285.408 
L 289.944111 285.408 
L 289.619132 285.408 
L 289.294152 285.408 
L 288.969173 285.408 
L 288.644193 285.408 
L 288.319214 285.408 
L 287.994234 285.408 
L 287.669255 285.408 
L 287.344275 285.408 
L 287.019296 285.408 
L 286.694316 285.408 
L 286.369337 285.408 
L 286.044357 285.408 
L 285.719378 285.408 
L 285.394398 285.408 
L 285.069419 285.408 
L 284.744439 285.408 
L 284.419459 285.408 
L 284.09448 285.408 
L 283.7695 285.408 
L 283.444521 285.408 
L 283.119541 285.408 
L 282.794562 285.408 
L 282.469582 285.408 
L 282.144603 285.408 
L 281.819623 285.408 
L 281.494644 285.408 
L 281.169664 285.408 
L 280.844685 285.408 
L 280.519705 285.408 
L 280.194726 285.408 
L 279.869746 285.408 
L 279.544767 285.408 
L 279.219787 285.408 
L 278.894808 285.408 
L 278.569828 285.408 
L 278.244848 285.408 
L 277.919869 285.408 
L 277.594889 285.408 
L 277.26991 285.408 
L 276.94493 285.408 
L 276.619951 285.408 
L 276.294971 285.408 
L 275.969992 285.408 
L 275.645012 285.408 
L 275.320033 285.408 
L 274.995053 285.408 
L 274.670074 285.408 
L 274.345094 285.408 
L 274.020115 285.408 
L 273.695135 285.408 
L 273.370156 285.408 
L 273.045176 285.408 
L 272.720197 285.408 
L 272.395217 285.408 
L 272.070238 285.408 
L 271.745258 285.408 
L 271.420278 285.408 
L 271.095299 285.408 
L 270.770319 285.408 
L 270.44534 285.408 
L 270.12036 285.408 
L 269.795381 285.408 
L 269.470401 285.408 
L 269.145422 285.408 
L 268.820442 285.408 
L 268.495463 285.408 
L 268.170483 285.408 
L 267.845504 285.408 
L 267.520524 285.408 
L 267.195545 285.408 
L 266.870565 285.408 
L 266.545586 285.408 
L 266.220606 285.408 
L 265.895627 285.408 
L 265.570647 285.408 
L 265.245667 285.408 
L 264.920688 285.408 
L 264.595708 285.408 
L 264.270729 285.408 
L 263.945749 285.408 
L 263.62077 285.408 
L 263.29579 285.408 
L 262.970811 285.408 
L 262.645831 285.408 
L 262.320852 285.408 
L 261.995872 285.408 
L 261.670893 285.408 
L 261.345913 285.408 
L 261.020934 285.408 
L 260.695954 285.408 
L 260.370975 285.408 
L 260.045995 285.408 
L 259.721016 285.408 
L 259.396036 285.408 
L 259.071057 285.408 
L 258.746077 285.408 
L 258.421097 285.408 
L 258.096118 285.408 
L 257.771138 285.408 
L 257.446159 285.408 
L 257.121179 285.408 
L 256.7962 285.408 
L 256.47122 285.408 
L 256.146241 285.408 
L 255.821261 285.408 
L 255.496282 285.408 
L 255.171302 285.408 
L 254.846323 285.408 
L 254.521343 285.408 
L 254.196364 285.408 
L 253.871384 285.408 
L 253.546405 285.408 
L 253.221425 285.408 
L 252.896446 285.408 
L 252.571466 285.408 
L 252.246486 285.408 
L 251.921507 285.408 
L 251.596527 285.408 
L 251.271548 285.408 
L 250.946568 285.408 
L 250.621589 285.408 
L 250.296609 285.408 
L 249.97163 285.408 
L 249.64665 285.408 
L 249.321671 285.408 
L 248.996691 285.408 
L 248.671712 285.408 
L 248.346732 285.408 
L 248.021753 285.408 
L 247.696773 285.408 
L 247.371794 285.408 
L 247.046814 285.408 
L 246.721835 285.408 
L 246.396855 285.408 
L 246.071876 285.408 
L 245.746896 285.408 
L 245.421916 285.408 
L 245.096937 285.408 
L 244.771957 285.408 
L 244.446978 285.408 
L 244.121998 285.408 
L 243.797019 285.408 
L 243.472039 285.408 
L 243.14706 285.408 
L 242.82208 285.408 
L 242.497101 285.408 
L 242.172121 285.408 
L 241.847142 285.408 
L 241.522162 285.408 
L 241.197183 285.408 
L 240.872203 285.408 
L 240.547224 285.408 
L 240.222244 285.408 
L 239.897265 285.408 
L 239.572285 285.408 
L 239.247305 285.408 
L 238.922326 285.408 
L 238.597346 285.408 
L 238.272367 285.408 
L 237.947387 285.408 
L 237.622408 285.408 
L 237.297428 285.408 
L 236.972449 285.408 
L 236.647469 285.408 
L 236.32249 285.408 
L 235.99751 285.408 
L 235.672531 285.408 
L 235.347551 285.408 
L 235.022572 285.408 
L 234.697592 285.408 
L 234.372613 285.408 
L 234.047633 285.408 
L 233.722654 285.408 
L 233.397674 285.408 
L 233.072695 285.408 
L 232.747715 285.408 
L 232.422735 285.408 
L 232.097756 285.408 
L 231.772776 285.408 
L 231.447797 285.408 
L 231.122817 285.408 
L 230.797838 285.408 
L 230.472858 285.408 
L 230.147879 285.408 
L 229.822899 285.408 
L 229.49792 285.408 
L 229.17294 285.408 
L 228.847961 285.408 
L 228.522981 285.408 
L 228.198002 285.408 
L 227.873022 285.408 
L 227.548043 285.408 
L 227.223063 285.408 
L 226.898084 285.408 
L 226.573104 285.408 
L 226.248124 285.408 
L 225.923145 285.408 
L 225.598165 285.408 
L 225.273186 285.408 
L 224.948206 285.408 
L 224.623227 285.408 
L 224.298247 285.408 
L 223.973268 285.408 
L 223.648288 285.408 
L 223.323309 285.408 
L 222.998329 285.408 
L 222.67335 285.408 
L 222.34837 285.408 
L 222.023391 285.408 
L 221.698411 285.408 
L 221.373432 285.408 
L 221.048452 285.408 
L 220.723473 285.408 
L 220.398493 285.408 
L 220.073514 285.408 
L 219.748534 285.408 
L 219.423554 285.408 
L 219.098575 285.408 
L 218.773595 285.408 
L 218.448616 285.408 
L 218.123636 285.408 
L 217.798657 285.408 
L 217.473677 285.408 
L 217.148698 285.408 
L 216.823718 285.408 
L 216.498739 285.408 
L 216.173759 285.408 
L 215.84878 285.408 
L 215.5238 285.408 
L 215.198821 285.408 
L 214.873841 285.408 
L 214.548862 285.408 
L 214.223882 285.408 
L 213.898903 285.408 
L 213.573923 285.408 
L 213.248943 285.408 
L 212.923964 285.408 
L 212.598984 285.408 
L 212.274005 285.408 
L 211.949025 285.408 
L 211.624046 285.408 
L 211.299066 285.408 
L 210.974087 285.408 
L 210.649107 285.408 
L 210.324128 285.408 
L 209.999148 285.408 
L 209.674169 285.408 
L 209.349189 285.408 
L 209.02421 285.408 
L 208.69923 285.408 
L 208.374251 285.408 
L 208.049271 285.408 
L 207.724292 285.408 
L 207.399312 285.408 
L 207.074333 285.408 
L 206.749353 285.408 
L 206.424373 285.408 
L 206.099394 285.408 
L 205.774414 285.408 
L 205.449435 285.408 
L 205.124455 285.408 
L 204.799476 285.408 
L 204.474496 285.408 
L 204.149517 285.408 
L 203.824537 285.408 
L 203.499558 285.408 
L 203.174578 285.408 
L 202.849599 285.408 
L 202.524619 285.408 
L 202.19964 285.408 
L 201.87466 285.408 
L 201.549681 285.408 
L 201.224701 285.408 
L 200.899722 285.408 
L 200.574742 285.408 
L 200.249762 285.408 
L 199.924783 285.408 
L 199.599803 285.408 
L 199.274824 285.408 
L 198.949844 285.408 
L 198.624865 285.408 
L 198.299885 285.408 
L 197.974906 285.408 
L 197.649926 285.408 
L 197.324947 285.408 
L 196.999967 285.408 
L 196.674988 285.408 
L 196.350008 285.408 
L 196.025029 285.408 
L 195.700049 285.408 
L 195.37507 285.408 
L 195.05009 285.408 
L 194.725111 285.408 
L 194.400131 285.408 
L 194.075152 285.408 
L 193.750172 285.408 
L 193.425192 285.408 
L 193.100213 285.408 
L 192.775233 285.408 
L 192.450254 285.408 
L 192.125274 285.408 
L 191.800295 285.408 
L 191.475315 285.408 
L 191.150336 285.408 
L 190.825356 285.408 
L 190.500377 285.408 
L 190.175397 285.408 
L 189.850418 285.408 
L 189.525438 285.408 
L 189.200459 285.408 
L 188.875479 285.408 
L 188.5505 285.408 
L 188.22552 285.408 
L 187.900541 285.408 
L 187.575561 285.408 
L 187.250581 285.408 
L 186.925602 285.408 
L 186.600622 285.408 
L 186.275643 285.408 
L 185.950663 285.408 
L 185.625684 285.408 
L 185.300704 285.408 
L 184.975725 285.408 
L 184.650745 285.408 
L 184.325766 285.408 
L 184.000786 285.408 
L 183.675807 285.408 
L 183.350827 285.408 
L 183.025848 285.408 
L 182.700868 285.408 
L 182.375889 285.408 
L 182.050909 285.408 
L 181.72593 285.408 
L 181.40095 285.408 
L 181.075971 285.408 
L 180.750991 285.408 
L 180.426011 285.408 
L 180.101032 285.408 
L 179.776052 285.408 
L 179.451073 285.408 
L 179.126093 285.408 
L 178.801114 285.408 
L 178.476134 285.408 
L 178.151155 285.408 
L 177.826175 285.408 
L 177.501196 285.408 
L 177.176216 285.408 
L 176.851237 285.408 
L 176.526257 285.408 
L 176.201278 285.408 
L 175.876298 285.408 
L 175.551319 285.408 
L 175.226339 285.408 
L 174.90136 285.408 
L 174.57638 285.408 
L 174.2514 285.408 
L 173.926421 285.408 
L 173.601441 285.408 
L 173.276462 285.408 
L 172.951482 285.408 
L 172.626503 285.408 
L 172.301523 285.408 
L 171.976544 285.408 
L 171.651564 285.408 
L 171.326585 285.408 
L 171.001605 285.408 
L 170.676626 285.408 
L 170.351646 285.408 
L 170.026667 285.408 
L 169.701687 285.408 
L 169.376708 285.408 
L 169.051728 285.408 
L 168.726749 285.408 
L 168.401769 285.408 
L 168.07679 285.408 
L 167.75181 285.408 
L 167.42683 285.408 
L 167.101851 285.408 
L 166.776871 285.408 
L 166.451892 285.408 
L 166.126912 285.408 
L 165.801933 285.408 
L 165.476953 285.408 
L 165.151974 285.408 
L 164.826994 285.408 
L 164.502015 285.408 
L 164.177035 285.408 
L 163.852056 285.408 
L 163.527076 285.408 
L 163.202097 285.408 
L 162.877117 285.408 
L 162.552138 285.408 
L 162.227158 285.408 
L 161.902179 285.408 
L 161.577199 285.408 
L 161.252219 285.408 
L 160.92724 285.408 
L 160.60226 285.408 
L 160.277281 285.408 
L 159.952301 285.408 
L 159.627322 285.408 
L 159.302342 285.408 
L 158.977363 285.408 
L 158.652383 285.408 
L 158.327404 285.408 
L 158.002424 285.408 
L 157.677445 285.408 
L 157.352465 285.408 
L 157.027486 285.408 
L 156.702506 285.408 
L 156.377527 285.408 
L 156.052547 285.408 
L 155.727568 285.408 
L 155.402588 285.408 
L 155.077609 285.408 
L 154.752629 285.408 
L 154.427649 285.408 
L 154.10267 285.408 
L 153.77769 285.408 
L 153.452711 285.408 
L 153.127731 285.408 
L 152.802752 285.408 
L 152.477772 285.408 
L 152.152793 285.408 
L 151.827813 285.408 
L 151.502834 285.408 
L 151.177854 285.408 
L 150.852875 285.408 
L 150.527895 285.408 
L 150.202916 285.408 
L 149.877936 285.408 
L 149.552957 285.408 
L 149.227977 285.408 
L 148.902998 285.408 
L 148.578018 285.408 
L 148.253038 285.408 
L 147.928059 285.408 
L 147.603079 285.408 
L 147.2781 285.408 
L 146.95312 285.408 
L 146.628141 285.408 
L 146.303161 285.408 
L 145.978182 285.408 
L 145.653202 285.408 
L 145.328223 285.408 
L 145.003243 285.408 
L 144.678264 285.408 
L 144.353284 285.408 
L 144.028305 285.408 
L 143.703325 285.408 
L 143.378346 285.408 
L 143.053366 285.408 
L 142.728387 285.408 
L 142.403407 285.408 
L 142.078428 285.408 
L 141.753448 285.408 
L 141.428468 285.408 
L 141.103489 285.408 
L 140.778509 285.408 
L 140.45353 285.408 
L 140.12855 285.408 
L 139.803571 285.408 
L 139.478591 285.408 
L 139.153612 285.408 
L 138.828632 285.408 
L 138.503653 285.408 
L 138.178673 285.408 
L 137.853694 285.408 
L 137.528714 285.408 
L 137.203735 285.408 
L 136.878755 285.408 
L 136.553776 285.408 
L 136.228796 285.408 
L 135.903817 285.408 
L 135.578837 285.408 
L 135.253857 285.408 
L 134.928878 285.408 
L 134.603898 285.408 
L 134.278919 285.408 
L 133.953939 285.408 
L 133.62896 285.408 
L 133.30398 285.408 
L 132.979001 285.408 
L 132.654021 285.408 
L 132.329042 285.408 
L 132.004062 285.408 
L 131.679083 285.408 
L 131.354103 285.408 
L 131.029124 285.408 
L 130.704144 285.408 
L 130.379165 285.408 
L 130.054185 285.408 
L 129.729206 285.408 
L 129.404226 285.408 
L 129.079247 285.408 
L 128.754267 285.408 
L 128.429287 285.408 
L 128.104308 285.408 
L 127.779328 285.408 
L 127.454349 285.408 
L 127.129369 285.408 
L 126.80439 285.408 
L 126.47941 285.408 
L 126.154431 285.408 
L 125.829451 285.408 
L 125.504472 285.408 
L 125.179492 285.408 
L 124.854513 285.408 
L 124.529533 285.408 
L 124.204554 285.408 
L 123.879574 285.408 
L 123.554595 285.408 
L 123.229615 285.408 
L 122.904636 285.408 
L 122.579656 285.408 
L 122.254676 285.408 
L 121.929697 285.408 
L 121.604717 285.408 
L 121.279738 285.408 
L 120.954758 285.408 
L 120.629779 285.408 
L 120.304799 285.408 
L 119.97982 285.408 
L 119.65484 285.408 
L 119.329861 285.408 
L 119.004881 285.408 
L 118.679902 285.408 
L 118.354922 285.408 
L 118.029943 285.408 
L 117.704963 285.408 
L 117.379984 285.408 
L 117.055004 285.408 
L 116.730025 285.408 
L 116.405045 285.408 
L 116.080066 285.408 
L 115.755086 285.408 
L 115.430106 285.408 
L 115.105127 285.408 
L 114.780147 285.408 
L 114.455168 285.408 
L 114.130188 285.408 
L 113.805209 285.408 
L 113.480229 285.408 
L 113.15525 285.408 
L 112.83027 285.408 
L 112.505291 285.408 
L 112.180311 285.408 
L 111.855332 285.408 
L 111.530352 285.408 
L 111.205373 285.408 
L 110.880393 285.408 
L 110.555414 285.408 
L 110.230434 285.408 
L 109.905455 285.408 
L 109.580475 285.408 
L 109.255495 285.408 
L 108.930516 285.408 
L 108.605536 285.408 
L 108.280557 285.408 
L 107.955577 285.408 
L 107.630598 285.408 
L 107.305618 285.408 
L 106.980639 285.408 
L 106.655659 285.408 
L 106.33068 285.408 
L 106.0057 285.408 
L 105.680721 285.408 
L 105.355741 285.408 
L 105.030762 285.408 
L 104.705782 285.408 
L 104.380803 285.408 
L 104.055823 285.408 
L 103.730844 285.408 
L 103.405864 285.408 
L 103.080885 285.408 
L 102.755905 285.408 
L 102.430925 285.408 
L 102.105946 285.408 
L 101.780966 285.408 
L 101.455987 285.408 
L 101.131007 285.408 
L 100.806028 285.408 
L 100.481048 285.408 
L 100.156069 285.408 
L 99.831089 285.408 
L 99.50611 285.408 
L 99.18113 285.408 
L 98.856151 285.408 
L 98.531171 285.408 
L 98.206192 285.408 
L 97.881212 285.408 
L 97.556233 285.408 
L 97.231253 285.408 
L 96.906274 285.408 
L 96.581294 285.408 
L 96.256314 285.408 
L 95.931335 285.408 
L 95.606355 285.408 
L 95.281376 285.408 
L 94.956396 285.408 
L 94.631417 285.408 
L 94.306437 285.408 
L 93.981458 285.408 
L 93.656478 285.408 
L 93.331499 285.408 
L 93.006519 285.408 
L 92.68154 285.408 
L 92.35656 285.408 
L 92.031581 285.408 
L 91.706601 285.408 
L 91.381622 285.408 
L 91.056642 285.408 
L 90.731663 285.408 
L 90.406683 285.408 
L 90.081704 285.408 
L 89.756724 285.408 
L 89.431744 285.408 
L 89.106765 285.408 
L 88.781785 285.408 
L 88.456806 285.408 
L 88.131826 285.408 
L 87.806847 285.408 
L 87.481867 285.408 
L 87.156888 285.408 
L 86.831908 285.408 
L 86.506929 285.408 
L 86.181949 285.408 
L 85.85697 285.408 
L 85.53199 285.408 
L 85.207011 285.408 
L 84.882031 285.408 
L 84.557052 285.408 
L 84.232072 285.408 
L 83.907093 285.408 
L 83.582113 285.408 
L 83.257133 285.408 
L 82.932154 285.408 
L 82.607174 285.408 
L 82.282195 285.408 
L 81.957215 285.408 
L 81.632236 285.408 
L 81.307256 285.408 
L 80.982277 285.408 
L 80.657297 285.408 
L 80.332318 285.408 
L 80.007338 285.408 
L 79.682359 285.408 
L 79.357379 285.408 
L 79.0324 285.408 
L 78.70742 285.408 
L 78.382441 285.408 
L 78.057461 285.408 
L 77.732482 285.408 
L 77.407502 285.408 
L 77.082523 285.408 
L 76.757543 285.408 
L 76.432563 285.408 
L 76.107584 285.408 
L 75.782604 285.408 
L 75.457625 285.408 
L 75.132645 285.408 
L 74.807666 285.408 
L 74.482686 285.408 
L 74.157707 285.408 
L 73.832727 285.408 
z
" clip-path="url(#p713b2fb663)" style="fill: #1f77b4; fill-opacity: 0.5"/>
   </g>
   <g id="line2d_25">
    <defs>
     <path id="mae964e3c52" d="M 0 3 
L 0 -3 
" style="stroke: #000000"/>
    </defs>
    <g clip-path="url(#p713b2fb663)">
     <use xlink:href="#mae964e3c52" x="225.996835" y="296.496" style="stroke: #000000"/>
     <use xlink:href="#mae964e3c52" x="165.500117" y="296.496" style="stroke: #000000"/>
     <use xlink:href="#mae964e3c52" x="167.761462" y="296.496" style="stroke: #000000"/>
     <use xlink:href="#mae964e3c52" x="153.022231" y="296.496" style="stroke: #000000"/>
     <use xlink:href="#mae964e3c52" x="205.464119" y="296.496" style="stroke: #000000"/>
     <use xlink:href="#mae964e3c52" x="119.783826" y="296.496" style="stroke: #000000"/>
     <use xlink:href="#mae964e3c52" x="364.528726" y="296.496" style="stroke: #000000"/>
     <use xlink:href="#mae964e3c52" x="296.72953" y="296.496" style="stroke: #000000"/>
     <use xlink:href="#mae964e3c52" x="325.955094" y="296.496" style="stroke: #000000"/>
     <use xlink:href="#mae964e3c52" x="310.577034" y="296.496" style="stroke: #000000"/>
     <use xlink:href="#mae964e3c52" x="356.880302" y="296.496" style="stroke: #000000"/>
     <use xlink:href="#mae964e3c52" x="261.587466" y="296.496" style="stroke: #000000"/>
     <use xlink:href="#mae964e3c52" x="308.600785" y="296.496" style="stroke: #000000"/>
     <use xlink:href="#mae964e3c52" x="306.93322" y="296.496" style="stroke: #000000"/>
     <use xlink:href="#mae964e3c52" x="347.997253" y="296.496" style="stroke: #000000"/>
     <use xlink:href="#mae964e3c52" x="287.566578" y="296.496" style="stroke: #000000"/>
     <use xlink:href="#mae964e3c52" x="312.65867" y="296.496" style="stroke: #000000"/>
     <use xlink:href="#mae964e3c52" x="293.573576" y="296.496" style="stroke: #000000"/>
     <use xlink:href="#mae964e3c52" x="318.46571" y="296.496" style="stroke: #000000"/>
     <use xlink:href="#mae964e3c52" x="333.091437" y="296.496" style="stroke: #000000"/>
    </g>
   </g>
   <g id="patch_3">
    <path d="M 57.6 307.584 
L 57.6 41.472 
" style="fill: none; stroke: #cccccc; stroke-linejoin: miter; stroke-linecap: square"/>
   </g>
   <g id="patch_4">
    <path d="M 414.72 307.584 
L 414.72 41.472 
" style="fill: none; stroke: #cccccc; stroke-linejoin: miter; stroke-linecap: square"/>
   </g>
   <g id="patch_5">
    <path d="M 57.6 307.584 
L 414.72 307.584 
" style="fill: none; stroke: #cccccc; stroke-linejoin: miter; stroke-linecap: square"/>
   </g>
   <g id="patch_6">
    <path d="M 57.6 41.472 
L 414.72 41.472 
" style="fill: none; stroke: #cccccc; stroke-linejoin: miter; stroke-linecap: square"/>
   </g>
  </g>
 </g>
 <defs>
  <clipPath id="p713b2fb663">
   <rect x="57.6" y="41.472" width="357.12" height="266.112"/>
  </clipPath>
 </defs>
</svg>
