<?xml version="1.0" encoding="utf-8" standalone="no"?>
<!DOCTYPE svg PUBLIC "-//W3C//DTD SVG 1.1//EN"
  "http://www.w3.org/Graphics/SVG/1.1/DTD/svg11.dtd">
<svg xmlns:xlink="http://www.w3.org/1999/xlink" width="460.8pt" height="345.6pt" viewBox="0 0 460.8 345.6" xmlns="http://www.w3.org/2000/svg" version="1.1">
 <metadata>
  <rdf:RDF xmlns:dc="http://purl.org/dc/elements/1.1/" xmlns:cc="http://creativecommons.org/ns#" xmlns:rdf="http://www.w3.org/1999/02/22-rdf-syntax-ns#">
   <cc:Work>
    <dc:type rdf:resource="http://purl.org/dc/dcmitype/StillImage"/>
    <dc:date>2023-09-14T09:24:19.166510</dc:date>
    <dc:format>image/svg+xml</dc:format>
    <dc:creator>
     <cc:Agent>
      <dc:title>Matplotlib v3.7.1, https://matplotlib.org/</dc:title>
     </cc:Agent>
    </dc:creator>
   </cc:Work>
  </rdf:RDF>
 </metadata>
 <defs>
  <style type="text/css">*{stroke-linejoin: round; stroke-linecap: butt}</style>
 </defs>
 <g id="figure_1">
  <g id="patch_1">
   <path d="M 0 345.6 
L 460.8 345.6 
L 460.8 0 
L 0 0 
z
" style="fill: #ffffff"/>
  </g>
  <g id="axes_1">
   <g id="patch_2">
    <path d="M 57.6 307.584 
L 414.72 307.584 
L 414.72 41.472 
L 57.6 41.472 
z
" style="fill: #ffffff"/>
   </g>
   <g id="matplotlib.axis_1">
    <g id="xtick_1">
     <g id="line2d_1">
      <path d="M 73.832727 307.584 
L 73.832727 41.472 
" clip-path="url(#pf84f32cdd8)" style="fill: none; stroke: #cccccc; stroke-width: 0.8; stroke-linecap: round"/>
     </g>
     <g id="line2d_2"/>
     <g id="text_1">
      <!-- −4 -->
      <g style="fill: #262626" transform="translate(68.131946 318.330875) scale(0.1 -0.1)">
       <defs>
        <path id="LiberationSans-2212" d="M 316 1900 
L 316 2356 
L 3425 2356 
L 3425 1900 
L 316 1900 
z
" transform="scale(0.015625)"/>
        <path id="LiberationSans-34" d="M 2753 997 
L 2753 0 
L 2222 0 
L 2222 997 
L 147 997 
L 147 1434 
L 2163 4403 
L 2753 4403 
L 2753 1441 
L 3372 1441 
L 3372 997 
L 2753 997 
z
M 2222 3769 
Q 2216 3750 2134 3603 
Q 2053 3456 2013 3397 
L 884 1734 
L 716 1503 
L 666 1441 
L 2222 1441 
L 2222 3769 
z
" transform="scale(0.015625)"/>
       </defs>
       <use xlink:href="#LiberationSans-2212"/>
       <use xlink:href="#LiberationSans-34" x="58.398438"/>
      </g>
     </g>
    </g>
    <g id="xtick_2">
     <g id="line2d_3">
      <path d="M 127.941818 307.584 
L 127.941818 41.472 
" clip-path="url(#pf84f32cdd8)" style="fill: none; stroke: #cccccc; stroke-width: 0.8; stroke-linecap: round"/>
     </g>
     <g id="line2d_4"/>
     <g id="text_2">
      <!-- −2 -->
      <g style="fill: #262626" transform="translate(122.241037 318.330875) scale(0.1 -0.1)">
       <defs>
        <path id="LiberationSans-32" d="M 322 0 
L 322 397 
Q 481 763 711 1042 
Q 941 1322 1194 1548 
Q 1447 1775 1695 1969 
Q 1944 2163 2144 2356 
Q 2344 2550 2467 2762 
Q 2591 2975 2591 3244 
Q 2591 3606 2378 3806 
Q 2166 4006 1788 4006 
Q 1428 4006 1195 3811 
Q 963 3616 922 3263 
L 347 3316 
Q 409 3844 795 4156 
Q 1181 4469 1788 4469 
Q 2453 4469 2811 4155 
Q 3169 3841 3169 3263 
Q 3169 3006 3051 2753 
Q 2934 2500 2703 2247 
Q 2472 1994 1819 1463 
Q 1459 1169 1246 933 
Q 1034 697 941 478 
L 3238 478 
L 3238 0 
L 322 0 
z
" transform="scale(0.015625)"/>
       </defs>
       <use xlink:href="#LiberationSans-2212"/>
       <use xlink:href="#LiberationSans-32" x="58.398438"/>
      </g>
     </g>
    </g>
    <g id="xtick_3">
     <g id="line2d_5">
      <path d="M 182.050909 307.584 
L 182.050909 41.472 
" clip-path="url(#pf84f32cdd8)" style="fill: none; stroke: #cccccc; stroke-width: 0.8; stroke-linecap: round"/>
     </g>
     <g id="line2d_6"/>
     <g id="text_3">
      <!-- 0 -->
      <g style="fill: #262626" transform="translate(179.27044 318.330875) scale(0.1 -0.1)">
       <defs>
        <path id="LiberationSans-30" d="M 3309 2203 
Q 3309 1100 2920 518 
Q 2531 -63 1772 -63 
Q 1013 -63 631 515 
Q 250 1094 250 2203 
Q 250 3338 620 3903 
Q 991 4469 1791 4469 
Q 2569 4469 2939 3897 
Q 3309 3325 3309 2203 
z
M 2738 2203 
Q 2738 3156 2517 3584 
Q 2297 4013 1791 4013 
Q 1272 4013 1045 3591 
Q 819 3169 819 2203 
Q 819 1266 1048 831 
Q 1278 397 1778 397 
Q 2275 397 2506 840 
Q 2738 1284 2738 2203 
z
" transform="scale(0.015625)"/>
       </defs>
       <use xlink:href="#LiberationSans-30"/>
      </g>
     </g>
    </g>
    <g id="xtick_4">
     <g id="line2d_7">
      <path d="M 236.16 307.584 
L 236.16 41.472 
" clip-path="url(#pf84f32cdd8)" style="fill: none; stroke: #cccccc; stroke-width: 0.8; stroke-linecap: round"/>
     </g>
     <g id="line2d_8"/>
     <g id="text_4">
      <!-- 2 -->
      <g style="fill: #262626" transform="translate(233.379531 318.330875) scale(0.1 -0.1)">
       <use xlink:href="#LiberationSans-32"/>
      </g>
     </g>
    </g>
    <g id="xtick_5">
     <g id="line2d_9">
      <path d="M 290.269091 307.584 
L 290.269091 41.472 
" clip-path="url(#pf84f32cdd8)" style="fill: none; stroke: #cccccc; stroke-width: 0.8; stroke-linecap: round"/>
     </g>
     <g id="line2d_10"/>
     <g id="text_5">
      <!-- 4 -->
      <g style="fill: #262626" transform="translate(287.488622 318.330875) scale(0.1 -0.1)">
       <use xlink:href="#LiberationSans-34"/>
      </g>
     </g>
    </g>
    <g id="xtick_6">
     <g id="line2d_11">
      <path d="M 344.378182 307.584 
L 344.378182 41.472 
" clip-path="url(#pf84f32cdd8)" style="fill: none; stroke: #cccccc; stroke-width: 0.8; stroke-linecap: round"/>
     </g>
     <g id="line2d_12"/>
     <g id="text_6">
      <!-- 6 -->
      <g style="fill: #262626" transform="translate(341.597713 318.330875) scale(0.1 -0.1)">
       <defs>
        <path id="LiberationSans-36" d="M 3278 1441 
Q 3278 744 2900 340 
Q 2522 -63 1856 -63 
Q 1113 -63 719 490 
Q 325 1044 325 2100 
Q 325 3244 734 3856 
Q 1144 4469 1900 4469 
Q 2897 4469 3156 3572 
L 2619 3475 
Q 2453 4013 1894 4013 
Q 1413 4013 1148 3564 
Q 884 3116 884 2266 
Q 1038 2550 1316 2698 
Q 1594 2847 1953 2847 
Q 2563 2847 2920 2465 
Q 3278 2084 3278 1441 
z
M 2706 1416 
Q 2706 1894 2472 2153 
Q 2238 2413 1819 2413 
Q 1425 2413 1183 2183 
Q 941 1953 941 1550 
Q 941 1041 1192 716 
Q 1444 391 1838 391 
Q 2244 391 2475 664 
Q 2706 938 2706 1416 
z
" transform="scale(0.015625)"/>
       </defs>
       <use xlink:href="#LiberationSans-36"/>
      </g>
     </g>
    </g>
    <g id="xtick_7">
     <g id="line2d_13">
      <path d="M 398.487273 307.584 
L 398.487273 41.472 
" clip-path="url(#pf84f32cdd8)" style="fill: none; stroke: #cccccc; stroke-width: 0.8; stroke-linecap: round"/>
     </g>
     <g id="line2d_14"/>
     <g id="text_7">
      <!-- 8 -->
      <g style="fill: #262626" transform="translate(395.706804 318.330875) scale(0.1 -0.1)">
       <defs>
        <path id="LiberationSans-38" d="M 3281 1228 
Q 3281 619 2893 278 
Q 2506 -63 1781 -63 
Q 1075 -63 676 271 
Q 278 606 278 1222 
Q 278 1653 525 1947 
Q 772 2241 1156 2303 
L 1156 2316 
Q 797 2400 589 2681 
Q 381 2963 381 3341 
Q 381 3844 757 4156 
Q 1134 4469 1769 4469 
Q 2419 4469 2795 4162 
Q 3172 3856 3172 3334 
Q 3172 2956 2962 2675 
Q 2753 2394 2391 2322 
L 2391 2309 
Q 2813 2241 3047 1952 
Q 3281 1663 3281 1228 
z
M 2588 3303 
Q 2588 4050 1769 4050 
Q 1372 4050 1164 3862 
Q 956 3675 956 3303 
Q 956 2925 1170 2726 
Q 1384 2528 1775 2528 
Q 2172 2528 2380 2711 
Q 2588 2894 2588 3303 
z
M 2697 1281 
Q 2697 1691 2453 1898 
Q 2209 2106 1769 2106 
Q 1341 2106 1100 1882 
Q 859 1659 859 1269 
Q 859 359 1788 359 
Q 2247 359 2472 579 
Q 2697 800 2697 1281 
z
" transform="scale(0.015625)"/>
       </defs>
       <use xlink:href="#LiberationSans-38"/>
      </g>
     </g>
    </g>
   </g>
   <g id="matplotlib.axis_2">
    <g id="ytick_1">
     <g id="line2d_15">
      <path d="M 57.6 285.408 
L 414.72 285.408 
" clip-path="url(#pf84f32cdd8)" style="fill: none; stroke: #cccccc; stroke-width: 0.8; stroke-linecap: round"/>
     </g>
     <g id="line2d_16"/>
     <g id="text_8">
      <!-- 0.00 -->
      <g style="fill: #262626" transform="translate(34.639063 289.031437) scale(0.1 -0.1)">
       <defs>
        <path id="LiberationSans-2e" d="M 584 0 
L 584 684 
L 1194 684 
L 1194 0 
L 584 0 
z
" transform="scale(0.015625)"/>
       </defs>
       <use xlink:href="#LiberationSans-30"/>
       <use xlink:href="#LiberationSans-2e" x="55.615234"/>
       <use xlink:href="#LiberationSans-30" x="83.398438"/>
       <use xlink:href="#LiberationSans-30" x="139.013672"/>
      </g>
     </g>
    </g>
    <g id="ytick_2">
     <g id="line2d_17">
      <path d="M 57.6 229.968 
L 414.72 229.968 
" clip-path="url(#pf84f32cdd8)" style="fill: none; stroke: #cccccc; stroke-width: 0.8; stroke-linecap: round"/>
     </g>
     <g id="line2d_18"/>
     <g id="text_9">
      <!-- 0.05 -->
      <g style="fill: #262626" transform="translate(34.639063 233.591437) scale(0.1 -0.1)">
       <defs>
        <path id="LiberationSans-35" d="M 3291 1434 
Q 3291 738 2877 337 
Q 2463 -63 1728 -63 
Q 1113 -63 734 206 
Q 356 475 256 984 
L 825 1050 
Q 1003 397 1741 397 
Q 2194 397 2450 670 
Q 2706 944 2706 1422 
Q 2706 1838 2448 2094 
Q 2191 2350 1753 2350 
Q 1525 2350 1328 2278 
Q 1131 2206 934 2034 
L 384 2034 
L 531 4403 
L 3034 4403 
L 3034 3925 
L 1044 3925 
L 959 2528 
Q 1325 2809 1869 2809 
Q 2519 2809 2905 2428 
Q 3291 2047 3291 1434 
z
" transform="scale(0.015625)"/>
       </defs>
       <use xlink:href="#LiberationSans-30"/>
       <use xlink:href="#LiberationSans-2e" x="55.615234"/>
       <use xlink:href="#LiberationSans-30" x="83.398438"/>
       <use xlink:href="#LiberationSans-35" x="139.013672"/>
      </g>
     </g>
    </g>
    <g id="ytick_3">
     <g id="line2d_19">
      <path d="M 57.6 174.528 
L 414.72 174.528 
" clip-path="url(#pf84f32cdd8)" style="fill: none; stroke: #cccccc; stroke-width: 0.8; stroke-linecap: round"/>
     </g>
     <g id="line2d_20"/>
     <g id="text_10">
      <!-- 0.10 -->
      <g style="fill: #262626" transform="translate(34.639063 178.151437) scale(0.1 -0.1)">
       <defs>
        <path id="LiberationSans-31" d="M 488 0 
L 488 478 
L 1609 478 
L 1609 3866 
L 616 3156 
L 616 3688 
L 1656 4403 
L 2175 4403 
L 2175 478 
L 3247 478 
L 3247 0 
L 488 0 
z
" transform="scale(0.015625)"/>
       </defs>
       <use xlink:href="#LiberationSans-30"/>
       <use xlink:href="#LiberationSans-2e" x="55.615234"/>
       <use xlink:href="#LiberationSans-31" x="83.398438"/>
       <use xlink:href="#LiberationSans-30" x="139.013672"/>
      </g>
     </g>
    </g>
    <g id="ytick_4">
     <g id="line2d_21">
      <path d="M 57.6 119.088 
L 414.72 119.088 
" clip-path="url(#pf84f32cdd8)" style="fill: none; stroke: #cccccc; stroke-width: 0.8; stroke-linecap: round"/>
     </g>
     <g id="line2d_22"/>
     <g id="text_11">
      <!-- 0.15 -->
      <g style="fill: #262626" transform="translate(34.639063 122.711437) scale(0.1 -0.1)">
       <use xlink:href="#LiberationSans-30"/>
       <use xlink:href="#LiberationSans-2e" x="55.615234"/>
       <use xlink:href="#LiberationSans-31" x="83.398438"/>
       <use xlink:href="#LiberationSans-35" x="139.013672"/>
      </g>
     </g>
    </g>
    <g id="ytick_5">
     <g id="line2d_23">
      <path d="M 57.6 63.648 
L 414.72 63.648 
" clip-path="url(#pf84f32cdd8)" style="fill: none; stroke: #cccccc; stroke-width: 0.8; stroke-linecap: round"/>
     </g>
     <g id="line2d_24"/>
     <g id="text_12">
      <!-- 0.20 -->
      <g style="fill: #262626" transform="translate(34.639063 67.271437) scale(0.1 -0.1)">
       <use xlink:href="#LiberationSans-30"/>
       <use xlink:href="#LiberationSans-2e" x="55.615234"/>
       <use xlink:href="#LiberationSans-32" x="83.398438"/>
       <use xlink:href="#LiberationSans-30" x="139.013672"/>
      </g>
     </g>
    </g>
   </g>
   <g id="PolyCollection_1">
    <path d="M 73.832727 285.408 
L 73.832727 278.093809 
L 74.157707 277.960761 
L 74.482686 277.825986 
L 74.807666 277.689475 
L 75.132645 277.551219 
L 75.457625 277.411211 
L 75.782604 277.269444 
L 76.107584 277.12591 
L 76.432563 276.980601 
L 76.757543 276.833511 
L 77.082523 276.684633 
L 77.407502 276.53396 
L 77.732482 276.381487 
L 78.057461 276.227206 
L 78.382441 276.071113 
L 78.70742 275.913202 
L 79.0324 275.753467 
L 79.357379 275.591904 
L 79.682359 275.428508 
L 80.007338 275.263274 
L 80.332318 275.096197 
L 80.657297 274.927275 
L 80.982277 274.756503 
L 81.307256 274.583878 
L 81.632236 274.409396 
L 81.957215 274.233054 
L 82.282195 274.054851 
L 82.607174 273.874783 
L 82.932154 273.692849 
L 83.257133 273.509046 
L 83.582113 273.323373 
L 83.907093 273.135829 
L 84.232072 272.946413 
L 84.557052 272.755123 
L 84.882031 272.56196 
L 85.207011 272.366923 
L 85.53199 272.170012 
L 85.85697 271.971228 
L 86.181949 271.770572 
L 86.506929 271.568044 
L 86.831908 271.363645 
L 87.156888 271.157378 
L 87.481867 270.949243 
L 87.806847 270.739243 
L 88.131826 270.527381 
L 88.456806 270.313658 
L 88.781785 270.098079 
L 89.106765 269.880645 
L 89.431744 269.661361 
L 89.756724 269.44023 
L 90.081704 269.217257 
L 90.406683 268.992445 
L 90.731663 268.7658 
L 91.056642 268.537326 
L 91.381622 268.307029 
L 91.706601 268.074913 
L 92.031581 267.840986 
L 92.35656 267.605252 
L 92.68154 267.367718 
L 93.006519 267.12839 
L 93.331499 266.887277 
L 93.656478 266.644384 
L 93.981458 266.399719 
L 94.306437 266.15329 
L 94.631417 265.905105 
L 94.956396 265.655173 
L 95.281376 265.403501 
L 95.606355 265.150098 
L 95.931335 264.894975 
L 96.256314 264.638139 
L 96.581294 264.379602 
L 96.906274 264.119371 
L 97.231253 263.857459 
L 97.556233 263.593876 
L 97.881212 263.328631 
L 98.206192 263.061737 
L 98.531171 262.793205 
L 98.856151 262.523046 
L 99.18113 262.251271 
L 99.50611 261.977895 
L 99.831089 261.702927 
L 100.156069 261.426382 
L 100.481048 261.148273 
L 100.806028 260.868612 
L 101.131007 260.587413 
L 101.455987 260.304691 
L 101.780966 260.020458 
L 102.105946 259.734729 
L 102.430925 259.44752 
L 102.755905 259.158845 
L 103.080885 258.868719 
L 103.405864 258.577158 
L 103.730844 258.284177 
L 104.055823 257.989792 
L 104.380803 257.694021 
L 104.705782 257.396878 
L 105.030762 257.098382 
L 105.355741 256.79855 
L 105.680721 256.497399 
L 106.0057 256.194946 
L 106.33068 255.89121 
L 106.655659 255.58621 
L 106.980639 255.279963 
L 107.305618 254.972489 
L 107.630598 254.663806 
L 107.955577 254.353936 
L 108.280557 254.042896 
L 108.605536 253.730708 
L 108.930516 253.417392 
L 109.255495 253.102969 
L 109.580475 252.787459 
L 109.905455 252.470884 
L 110.230434 252.153266 
L 110.555414 251.834627 
L 110.880393 251.514988 
L 111.205373 251.194373 
L 111.530352 250.872805 
L 111.855332 250.550306 
L 112.180311 250.226901 
L 112.505291 249.902613 
L 112.83027 249.577466 
L 113.15525 249.251486 
L 113.480229 248.924696 
L 113.805209 248.597123 
L 114.130188 248.268791 
L 114.455168 247.939727 
L 114.780147 247.609956 
L 115.105127 247.279507 
L 115.430106 246.948404 
L 115.755086 246.616677 
L 116.080066 246.284351 
L 116.405045 245.951456 
L 116.730025 245.618019 
L 117.055004 245.28407 
L 117.379984 244.949637 
L 117.704963 244.614749 
L 118.029943 244.279437 
L 118.354922 243.943731 
L 118.679902 243.60766 
L 119.004881 243.271256 
L 119.329861 242.93455 
L 119.65484 242.597573 
L 119.97982 242.260357 
L 120.304799 241.922935 
L 120.629779 241.58534 
L 120.954758 241.247603 
L 121.279738 240.909758 
L 121.604717 240.57184 
L 121.929697 240.233881 
L 122.254676 239.895917 
L 122.579656 239.557982 
L 122.904636 239.220112 
L 123.229615 238.882341 
L 123.554595 238.544705 
L 123.879574 238.207241 
L 124.204554 237.869985 
L 124.529533 237.532973 
L 124.854513 237.196244 
L 125.179492 236.859834 
L 125.504472 236.523781 
L 125.829451 236.188123 
L 126.154431 235.852899 
L 126.47941 235.518148 
L 126.80439 235.183908 
L 127.129369 234.850219 
L 127.454349 234.51712 
L 127.779328 234.184652 
L 128.104308 233.852854 
L 128.429287 233.521768 
L 128.754267 233.191434 
L 129.079247 232.861892 
L 129.404226 232.533185 
L 129.729206 232.205353 
L 130.054185 231.878439 
L 130.379165 231.552485 
L 130.704144 231.227532 
L 131.029124 230.903624 
L 131.354103 230.580802 
L 131.679083 230.25911 
L 132.004062 229.938591 
L 132.329042 229.619287 
L 132.654021 229.301243 
L 132.979001 228.984501 
L 133.30398 228.669105 
L 133.62896 228.355099 
L 133.953939 228.042526 
L 134.278919 227.731431 
L 134.603898 227.421857 
L 134.928878 227.113849 
L 135.253857 226.807451 
L 135.578837 226.502706 
L 135.903817 226.199659 
L 136.228796 225.898354 
L 136.553776 225.598835 
L 136.878755 225.301146 
L 137.203735 225.005332 
L 137.528714 224.711436 
L 137.853694 224.419502 
L 138.178673 224.129574 
L 138.503653 223.841696 
L 138.828632 223.555911 
L 139.153612 223.272262 
L 139.478591 222.990794 
L 139.803571 222.711549 
L 140.12855 222.434569 
L 140.45353 222.159899 
L 140.778509 221.887579 
L 141.103489 221.617652 
L 141.428468 221.350161 
L 141.753448 221.085146 
L 142.078428 220.822649 
L 142.403407 220.562711 
L 142.728387 220.305372 
L 143.053366 220.050673 
L 143.378346 219.798653 
L 143.703325 219.549352 
L 144.028305 219.302809 
L 144.353284 219.059062 
L 144.678264 218.818149 
L 145.003243 218.580108 
L 145.328223 218.344976 
L 145.653202 218.112789 
L 145.978182 217.883583 
L 146.303161 217.657394 
L 146.628141 217.434255 
L 146.95312 217.214203 
L 147.2781 216.997269 
L 147.603079 216.783487 
L 147.928059 216.572888 
L 148.253038 216.365505 
L 148.578018 216.161369 
L 148.902998 215.960508 
L 149.227977 215.762953 
L 149.552957 215.568732 
L 149.877936 215.377873 
L 150.202916 215.190403 
L 150.527895 215.006347 
L 150.852875 214.825732 
L 151.177854 214.648582 
L 151.502834 214.47492 
L 151.827813 214.304769 
L 152.152793 214.138151 
L 152.477772 213.975087 
L 152.802752 213.815596 
L 153.127731 213.659699 
L 153.452711 213.507412 
L 153.77769 213.358754 
L 154.10267 213.21374 
L 154.427649 213.072386 
L 154.752629 212.934705 
L 155.077609 212.800712 
L 155.402588 212.670417 
L 155.727568 212.543833 
L 156.052547 212.420968 
L 156.377527 212.301834 
L 156.702506 212.186436 
L 157.027486 212.074783 
L 157.352465 211.966879 
L 157.677445 211.862731 
L 158.002424 211.762341 
L 158.327404 211.665712 
L 158.652383 211.572846 
L 158.977363 211.483743 
L 159.302342 211.398402 
L 159.627322 211.316822 
L 159.952301 211.238999 
L 160.277281 211.16493 
L 160.60226 211.09461 
L 160.92724 211.028031 
L 161.252219 210.965188 
L 161.577199 210.906072 
L 161.902179 210.850672 
L 162.227158 210.798979 
L 162.552138 210.750981 
L 162.877117 210.706664 
L 163.202097 210.666016 
L 163.527076 210.629021 
L 163.852056 210.595663 
L 164.177035 210.565924 
L 164.502015 210.539788 
L 164.826994 210.517234 
L 165.151974 210.498242 
L 165.476953 210.482792 
L 165.801933 210.47086 
L 166.126912 210.462424 
L 166.451892 210.457459 
L 166.776871 210.45594 
L 167.101851 210.45784 
L 167.42683 210.463133 
L 167.75181 210.471789 
L 168.07679 210.483781 
L 168.401769 210.499078 
L 168.726749 210.517649 
L 169.051728 210.539462 
L 169.376708 210.564485 
L 169.701687 210.592684 
L 170.026667 210.624024 
L 170.351646 210.658471 
L 170.676626 210.695989 
L 171.001605 210.73654 
L 171.326585 210.780087 
L 171.651564 210.826593 
L 171.976544 210.876017 
L 172.301523 210.92832 
L 172.626503 210.983463 
L 172.951482 211.041403 
L 173.276462 211.102099 
L 173.601441 211.16551 
L 173.926421 211.231591 
L 174.2514 211.3003 
L 174.57638 211.371593 
L 174.90136 211.445424 
L 175.226339 211.52175 
L 175.551319 211.600524 
L 175.876298 211.681701 
L 176.201278 211.765234 
L 176.526257 211.851076 
L 176.851237 211.93918 
L 177.176216 212.029499 
L 177.501196 212.121985 
L 177.826175 212.216589 
L 178.151155 212.313263 
L 178.476134 212.411959 
L 178.801114 212.512626 
L 179.126093 212.615216 
L 179.451073 212.71968 
L 179.776052 212.825967 
L 180.101032 212.934029 
L 180.426011 213.043814 
L 180.750991 213.155273 
L 181.075971 213.268357 
L 181.40095 213.383013 
L 181.72593 213.499194 
L 182.050909 213.616847 
L 182.375889 213.735923 
L 182.700868 213.856372 
L 183.025848 213.978143 
L 183.350827 214.101186 
L 183.675807 214.225451 
L 184.000786 214.350888 
L 184.325766 214.477448 
L 184.650745 214.60508 
L 184.975725 214.733735 
L 185.300704 214.863363 
L 185.625684 214.993916 
L 185.950663 215.125344 
L 186.275643 215.257598 
L 186.600622 215.390631 
L 186.925602 215.524392 
L 187.250581 215.658835 
L 187.575561 215.793912 
L 187.900541 215.929575 
L 188.22552 216.065777 
L 188.5505 216.202471 
L 188.875479 216.339611 
L 189.200459 216.47715 
L 189.525438 216.615042 
L 189.850418 216.753243 
L 190.175397 216.891706 
L 190.500377 217.030388 
L 190.825356 217.169243 
L 191.150336 217.308229 
L 191.475315 217.4473 
L 191.800295 217.586415 
L 192.125274 217.725529 
L 192.450254 217.864602 
L 192.775233 218.003591 
L 193.100213 218.142454 
L 193.425192 218.281151 
L 193.750172 218.41964 
L 194.075152 218.557882 
L 194.400131 218.695837 
L 194.725111 218.833465 
L 195.05009 218.970727 
L 195.37507 219.107585 
L 195.700049 219.244001 
L 196.025029 219.379936 
L 196.350008 219.515355 
L 196.674988 219.650219 
L 196.999967 219.784493 
L 197.324947 219.91814 
L 197.649926 220.051125 
L 197.974906 220.183413 
L 198.299885 220.314968 
L 198.624865 220.445756 
L 198.949844 220.575742 
L 199.274824 220.704894 
L 199.599803 220.833178 
L 199.924783 220.960561 
L 200.249762 221.087009 
L 200.574742 221.212491 
L 200.899722 221.336974 
L 201.224701 221.460426 
L 201.549681 221.582817 
L 201.87466 221.704114 
L 202.19964 221.824287 
L 202.524619 221.943305 
L 202.849599 222.061138 
L 203.174578 222.177755 
L 203.499558 222.293125 
L 203.824537 222.40722 
L 204.149517 222.52001 
L 204.474496 222.631464 
L 204.799476 222.741554 
L 205.124455 222.85025 
L 205.449435 222.957523 
L 205.774414 223.063344 
L 206.099394 223.167684 
L 206.424373 223.270515 
L 206.749353 223.371806 
L 207.074333 223.47153 
L 207.399312 223.569658 
L 207.724292 223.66616 
L 208.049271 223.761009 
L 208.374251 223.854175 
L 208.69923 223.945629 
L 209.02421 224.035342 
L 209.349189 224.123286 
L 209.674169 224.20943 
L 209.999148 224.293747 
L 210.324128 224.376206 
L 210.649107 224.456778 
L 210.974087 224.535433 
L 211.299066 224.612141 
L 211.624046 224.686873 
L 211.949025 224.759597 
L 212.274005 224.830284 
L 212.598984 224.898903 
L 212.923964 224.965422 
L 213.248943 225.029811 
L 213.573923 225.092037 
L 213.898903 225.152069 
L 214.223882 225.209875 
L 214.548862 225.265422 
L 214.873841 225.318676 
L 215.198821 225.369606 
L 215.5238 225.418177 
L 215.84878 225.464356 
L 216.173759 225.508107 
L 216.498739 225.549397 
L 216.823718 225.58819 
L 217.148698 225.62445 
L 217.473677 225.658142 
L 217.798657 225.689228 
L 218.123636 225.717673 
L 218.448616 225.743438 
L 218.773595 225.766486 
L 219.098575 225.786778 
L 219.423554 225.804276 
L 219.748534 225.81894 
L 220.073514 225.830731 
L 220.398493 225.839608 
L 220.723473 225.845531 
L 221.048452 225.848458 
L 221.373432 225.848348 
L 221.698411 225.845158 
L 222.023391 225.838846 
L 222.34837 225.829368 
L 222.67335 225.816681 
L 222.998329 225.80074 
L 223.323309 225.781501 
L 223.648288 225.758918 
L 223.973268 225.732946 
L 224.298247 225.703538 
L 224.623227 225.670648 
L 224.948206 225.634228 
L 225.273186 225.594231 
L 225.598165 225.550608 
L 225.923145 225.503312 
L 226.248124 225.452292 
L 226.573104 225.3975 
L 226.898084 225.338886 
L 227.223063 225.276399 
L 227.548043 225.209988 
L 227.873022 225.139602 
L 228.198002 225.06519 
L 228.522981 224.9867 
L 228.847961 224.904079 
L 229.17294 224.817275 
L 229.49792 224.726235 
L 229.822899 224.630906 
L 230.147879 224.531233 
L 230.472858 224.427164 
L 230.797838 224.318644 
L 231.122817 224.205618 
L 231.447797 224.088033 
L 231.772776 223.965833 
L 232.097756 223.838964 
L 232.422735 223.70737 
L 232.747715 223.570996 
L 233.072695 223.429787 
L 233.397674 223.283687 
L 233.722654 223.132641 
L 234.047633 222.976594 
L 234.372613 222.815489 
L 234.697592 222.649271 
L 235.022572 222.477885 
L 235.347551 222.301276 
L 235.672531 222.119387 
L 235.99751 221.932164 
L 236.32249 221.739551 
L 236.647469 221.541495 
L 236.972449 221.337939 
L 237.297428 221.12883 
L 237.622408 220.914114 
L 237.947387 220.693736 
L 238.272367 220.467644 
L 238.597346 220.235783 
L 238.922326 219.998102 
L 239.247305 219.754548 
L 239.572285 219.505068 
L 239.897265 219.249613 
L 240.222244 218.98813 
L 240.547224 218.72057 
L 240.872203 218.446883 
L 241.197183 218.167021 
L 241.522162 217.880934 
L 241.847142 217.588575 
L 242.172121 217.289897 
L 242.497101 216.984855 
L 242.82208 216.673402 
L 243.14706 216.355495 
L 243.472039 216.03109 
L 243.797019 215.700144 
L 244.121998 215.362616 
L 244.446978 215.018465 
L 244.771957 214.667652 
L 245.096937 214.310137 
L 245.421916 213.945884 
L 245.746896 213.574857 
L 246.071876 213.197019 
L 246.396855 212.812338 
L 246.721835 212.420781 
L 247.046814 212.022316 
L 247.371794 211.616913 
L 247.696773 211.204545 
L 248.021753 210.785183 
L 248.346732 210.358801 
L 248.671712 209.925377 
L 248.996691 209.484886 
L 249.321671 209.037307 
L 249.64665 208.582622 
L 249.97163 208.120811 
L 250.296609 207.651859 
L 250.621589 207.175751 
L 250.946568 206.692473 
L 251.271548 206.202014 
L 251.596527 205.704366 
L 251.921507 205.19952 
L 252.246486 204.687471 
L 252.571466 204.168214 
L 252.896446 203.641748 
L 253.221425 203.108073 
L 253.546405 202.56719 
L 253.871384 202.019103 
L 254.196364 201.463819 
L 254.521343 200.901345 
L 254.846323 200.331692 
L 255.171302 199.754871 
L 255.496282 199.170897 
L 255.821261 198.579787 
L 256.146241 197.981558 
L 256.47122 197.376233 
L 256.7962 196.763833 
L 257.121179 196.144386 
L 257.446159 195.517917 
L 257.771138 194.884457 
L 258.096118 194.244039 
L 258.421097 193.596696 
L 258.746077 192.942467 
L 259.071057 192.28139 
L 259.396036 191.613506 
L 259.721016 190.938861 
L 260.045995 190.257501 
L 260.370975 189.569474 
L 260.695954 188.874832 
L 261.020934 188.173629 
L 261.345913 187.465921 
L 261.670893 186.751768 
L 261.995872 186.031229 
L 262.320852 185.30437 
L 262.645831 184.571257 
L 262.970811 183.831957 
L 263.29579 183.086543 
L 263.62077 182.335088 
L 263.945749 181.577669 
L 264.270729 180.814365 
L 264.595708 180.045256 
L 264.920688 179.270426 
L 265.245667 178.489962 
L 265.570647 177.703953 
L 265.895627 176.91249 
L 266.220606 176.115667 
L 266.545586 175.313579 
L 266.870565 174.506326 
L 267.195545 173.694009 
L 267.520524 172.876731 
L 267.845504 172.054599 
L 268.170483 171.227721 
L 268.495463 170.396207 
L 268.820442 169.560171 
L 269.145422 168.719729 
L 269.470401 167.874999 
L 269.795381 167.0261 
L 270.12036 166.173155 
L 270.44534 165.31629 
L 270.770319 164.455631 
L 271.095299 163.591307 
L 271.420278 162.72345 
L 271.745258 161.852194 
L 272.070238 160.977674 
L 272.395217 160.100029 
L 272.720197 159.219397 
L 273.045176 158.335923 
L 273.370156 157.449748 
L 273.695135 156.56102 
L 274.020115 155.669886 
L 274.345094 154.776495 
L 274.670074 153.881001 
L 274.995053 152.983556 
L 275.320033 152.084315 
L 275.645012 151.183436 
L 275.969992 150.281076 
L 276.294971 149.377397 
L 276.619951 148.47256 
L 276.94493 147.566729 
L 277.26991 146.660069 
L 277.594889 145.752745 
L 277.919869 144.844926 
L 278.244848 143.93678 
L 278.569828 143.028479 
L 278.894808 142.120194 
L 279.219787 141.212097 
L 279.544767 140.304363 
L 279.869746 139.397166 
L 280.194726 138.490683 
L 280.519705 137.585091 
L 280.844685 136.680567 
L 281.169664 135.77729 
L 281.494644 134.875439 
L 281.819623 133.975195 
L 282.144603 133.076739 
L 282.469582 132.180252 
L 282.794562 131.285916 
L 283.119541 130.393913 
L 283.444521 129.504426 
L 283.7695 128.617639 
L 284.09448 127.733735 
L 284.419459 126.852897 
L 284.744439 125.975309 
L 285.069419 125.101156 
L 285.394398 124.23062 
L 285.719378 123.363887 
L 286.044357 122.501138 
L 286.369337 121.642559 
L 286.694316 120.788332 
L 287.019296 119.938639 
L 287.344275 119.093665 
L 287.669255 118.253589 
L 287.994234 117.418595 
L 288.319214 116.588863 
L 288.644193 115.764573 
L 288.969173 114.945904 
L 289.294152 114.133036 
L 289.619132 113.326146 
L 289.944111 112.525411 
L 290.269091 111.731007 
L 290.59407 110.943109 
L 290.91905 110.16189 
L 291.244029 109.387522 
L 291.569009 108.620178 
L 291.893989 107.860027 
L 292.218968 107.107236 
L 292.543948 106.361975 
L 292.868927 105.624407 
L 293.193907 104.894696 
L 293.518886 104.173006 
L 293.843866 103.459496 
L 294.168845 102.754325 
L 294.493825 102.057651 
L 294.818804 101.369627 
L 295.143784 100.690408 
L 295.468763 100.020144 
L 295.793743 99.358985 
L 296.118722 98.707077 
L 296.443702 98.064564 
L 296.768681 97.43159 
L 297.093661 96.808295 
L 297.41864 96.194817 
L 297.74362 95.59129 
L 298.0686 94.997849 
L 298.393579 94.414624 
L 298.718559 93.841742 
L 299.043538 93.27933 
L 299.368518 92.72751 
L 299.693497 92.186402 
L 300.018477 91.656125 
L 300.343456 91.136792 
L 300.668436 90.628516 
L 300.993415 90.131407 
L 301.318395 89.64557 
L 301.643374 89.171108 
L 301.968354 88.708124 
L 302.293333 88.256713 
L 302.618313 87.816971 
L 302.943292 87.38899 
L 303.268272 86.972857 
L 303.593251 86.568659 
L 303.918231 86.176478 
L 304.24321 85.796393 
L 304.56819 85.428481 
L 304.89317 85.072814 
L 305.218149 84.729462 
L 305.543129 84.398492 
L 305.868108 84.079968 
L 306.193088 83.77395 
L 306.518067 83.480495 
L 306.843047 83.199656 
L 307.168026 82.931484 
L 307.493006 82.676028 
L 307.817985 82.43333 
L 308.142965 82.203431 
L 308.467944 81.98637 
L 308.792924 81.78218 
L 309.117903 81.590893 
L 309.442883 81.412535 
L 309.767862 81.247133 
L 310.092842 81.094707 
L 310.417821 80.955275 
L 310.742801 80.828852 
L 311.067781 80.71545 
L 311.39276 80.615077 
L 311.71774 80.527738 
L 312.042719 80.453436 
L 312.367699 80.392169 
L 312.692678 80.343934 
L 313.017658 80.308722 
L 313.342637 80.286523 
L 313.667617 80.277324 
L 313.992596 80.281108 
L 314.317576 80.297856 
L 314.642555 80.327544 
L 314.967535 80.370148 
L 315.292514 80.425639 
L 315.617494 80.493985 
L 315.942473 80.575152 
L 316.267453 80.669103 
L 316.592432 80.775798 
L 316.917412 80.895194 
L 317.242391 81.027245 
L 317.567371 81.171904 
L 317.892351 81.329119 
L 318.21733 81.498836 
L 318.54231 81.681001 
L 318.867289 81.875553 
L 319.192269 82.082432 
L 319.517248 82.301574 
L 319.842228 82.532913 
L 320.167207 82.776381 
L 320.492187 83.031906 
L 320.817166 83.299416 
L 321.142146 83.578835 
L 321.467125 83.870086 
L 321.792105 84.173089 
L 322.117084 84.487762 
L 322.442064 84.814021 
L 322.767043 85.151781 
L 323.092023 85.500953 
L 323.417002 85.861448 
L 323.741982 86.233175 
L 324.066962 86.61604 
L 324.391941 87.009948 
L 324.716921 87.414801 
L 325.0419 87.830502 
L 325.36688 88.256951 
L 325.691859 88.694046 
L 326.016839 89.141683 
L 326.341818 89.599758 
L 326.666798 90.068166 
L 326.991777 90.546798 
L 327.316757 91.035546 
L 327.641736 91.534302 
L 327.966716 92.042952 
L 328.291695 92.561386 
L 328.616675 93.089489 
L 328.941654 93.627148 
L 329.266634 94.174248 
L 329.591613 94.730672 
L 329.916593 95.296303 
L 330.241572 95.871023 
L 330.566552 96.454714 
L 330.891532 97.047256 
L 331.216511 97.648529 
L 331.541491 98.258412 
L 331.86647 98.876784 
L 332.19145 99.503522 
L 332.516429 100.138506 
L 332.841409 100.781611 
L 333.166388 101.432714 
L 333.491368 102.091692 
L 333.816347 102.758421 
L 334.141327 103.432776 
L 334.466306 104.114634 
L 334.791286 104.803869 
L 335.116265 105.500357 
L 335.441245 106.203972 
L 335.766224 106.914591 
L 336.091204 107.632086 
L 336.416183 108.356335 
L 336.741163 109.087212 
L 337.066143 109.824591 
L 337.391122 110.568348 
L 337.716102 111.318359 
L 338.041081 112.074499 
L 338.366061 112.836643 
L 338.69104 113.604668 
L 339.01602 114.37845 
L 339.340999 115.157866 
L 339.665979 115.942793 
L 339.990958 116.733107 
L 340.315938 117.528687 
L 340.640917 118.32941 
L 340.965897 119.135156 
L 341.290876 119.945803 
L 341.615856 120.76123 
L 341.940835 121.581319 
L 342.265815 122.405949 
L 342.590794 123.235001 
L 342.915774 124.068358 
L 343.240753 124.905902 
L 343.565733 125.747515 
L 343.890713 126.593082 
L 344.215692 127.442486 
L 344.540672 128.295612 
L 344.865651 129.152347 
L 345.190631 130.012575 
L 345.51561 130.876186 
L 345.84059 131.743065 
L 346.165569 132.613102 
L 346.490549 133.486186 
L 346.815528 134.362207 
L 347.140508 135.241056 
L 347.465487 136.122624 
L 347.790467 137.006804 
L 348.115446 137.893488 
L 348.440426 138.782572 
L 348.765405 139.673949 
L 349.090385 140.567515 
L 349.415364 141.463167 
L 349.740344 142.360802 
L 350.065324 143.260317 
L 350.390303 144.161613 
L 350.715283 145.064588 
L 351.040262 145.969143 
L 351.365242 146.87518 
L 351.690221 147.7826 
L 352.015201 148.691308 
L 352.34018 149.601206 
L 352.66516 150.5122 
L 352.990139 151.424195 
L 353.315119 152.337097 
L 353.640098 153.250815 
L 353.965078 154.165255 
L 354.290057 155.080327 
L 354.615037 155.995941 
L 354.940016 156.912007 
L 355.264996 157.828437 
L 355.589975 158.745143 
L 355.914955 159.662037 
L 356.239934 160.579034 
L 356.564914 161.496048 
L 356.889894 162.412996 
L 357.214873 163.329792 
L 357.539853 164.246354 
L 357.864832 165.1626 
L 358.189812 166.078448 
L 358.514791 166.993818 
L 358.839771 167.90863 
L 359.16475 168.822804 
L 359.48973 169.736263 
L 359.814709 170.648928 
L 360.139689 171.560724 
L 360.464668 172.471573 
L 360.789648 173.3814 
L 361.114627 174.290131 
L 361.439607 175.197691 
L 361.764586 176.104008 
L 362.089566 177.009009 
L 362.414545 177.912623 
L 362.739525 178.814777 
L 363.064505 179.715402 
L 363.389484 180.614427 
L 363.714464 181.511785 
L 364.039443 182.407406 
L 364.364423 183.301222 
L 364.689402 184.193168 
L 365.014382 185.083176 
L 365.339361 185.971181 
L 365.664341 186.857118 
L 365.98932 187.740922 
L 366.3143 188.62253 
L 366.639279 189.501879 
L 366.964259 190.378906 
L 367.289238 191.253549 
L 367.614218 192.125749 
L 367.939197 192.995443 
L 368.264177 193.862572 
L 368.589156 194.727078 
L 368.914136 195.588901 
L 369.239115 196.447983 
L 369.564095 197.304268 
L 369.889075 198.157699 
L 370.214054 199.008219 
L 370.539034 199.855773 
L 370.864013 200.700307 
L 371.188993 201.541766 
L 371.513972 202.380098 
L 371.838952 203.215248 
L 372.163931 204.047165 
L 372.488911 204.875797 
L 372.81389 205.701094 
L 373.13887 206.523005 
L 373.463849 207.34148 
L 373.788829 208.15647 
L 374.113808 208.967927 
L 374.438788 209.775804 
L 374.763767 210.580053 
L 375.088747 211.380627 
L 375.413726 212.177481 
L 375.738706 212.97057 
L 376.063686 213.759849 
L 376.388665 214.545275 
L 376.713645 215.326804 
L 377.038624 216.104395 
L 377.363604 216.878004 
L 377.688583 217.647591 
L 378.013563 218.413117 
L 378.338542 219.17454 
L 378.663522 219.931822 
L 378.988501 220.684924 
L 379.313481 221.43381 
L 379.63846 222.178441 
L 379.96344 222.918783 
L 380.288419 223.654799 
L 380.613399 224.386454 
L 380.938378 225.113715 
L 381.263358 225.836548 
L 381.588337 226.55492 
L 381.913317 227.268801 
L 382.238296 227.978158 
L 382.563276 228.682961 
L 382.888256 229.383181 
L 383.213235 230.078789 
L 383.538215 230.769756 
L 383.863194 231.456057 
L 384.188174 232.137663 
L 384.513153 232.814549 
L 384.838133 233.48669 
L 385.163112 234.154063 
L 385.488092 234.816643 
L 385.813071 235.474408 
L 386.138051 236.127337 
L 386.46303 236.775407 
L 386.78801 237.418599 
L 387.112989 238.056894 
L 387.437969 238.690273 
L 387.762948 239.318719 
L 388.087928 239.942213 
L 388.412907 240.56074 
L 388.737887 241.174286 
L 389.062867 241.782834 
L 389.387846 242.386372 
L 389.712826 242.984887 
L 390.037805 243.578366 
L 390.362785 244.166799 
L 390.687764 244.750175 
L 391.012744 245.328485 
L 391.337723 245.90172 
L 391.662703 246.469872 
L 391.987682 247.032934 
L 392.312662 247.590899 
L 392.637641 248.143763 
L 392.962621 248.691521 
L 393.2876 249.23417 
L 393.61258 249.771705 
L 393.937559 250.304126 
L 394.262539 250.831431 
L 394.587518 251.35362 
L 394.912498 251.870693 
L 395.237477 252.382651 
L 395.562457 252.889497 
L 395.887437 253.391232 
L 396.212416 253.887862 
L 396.537396 254.37939 
L 396.862375 254.865822 
L 397.187355 255.347163 
L 397.512334 255.823421 
L 397.837314 256.294603 
L 398.162293 256.760718 
L 398.487273 257.221775 
L 398.487273 285.408 
L 398.487273 285.408 
L 398.162293 285.408 
L 397.837314 285.408 
L 397.512334 285.408 
L 397.187355 285.408 
L 396.862375 285.408 
L 396.537396 285.408 
L 396.212416 285.408 
L 395.887437 285.408 
L 395.562457 285.408 
L 395.237477 285.408 
L 394.912498 285.408 
L 394.587518 285.408 
L 394.262539 285.408 
L 393.937559 285.408 
L 393.61258 285.408 
L 393.2876 285.408 
L 392.962621 285.408 
L 392.637641 285.408 
L 392.312662 285.408 
L 391.987682 285.408 
L 391.662703 285.408 
L 391.337723 285.408 
L 391.012744 285.408 
L 390.687764 285.408 
L 390.362785 285.408 
L 390.037805 285.408 
L 389.712826 285.408 
L 389.387846 285.408 
L 389.062867 285.408 
L 388.737887 285.408 
L 388.412907 285.408 
L 388.087928 285.408 
L 387.762948 285.408 
L 387.437969 285.408 
L 387.112989 285.408 
L 386.78801 285.408 
L 386.46303 285.408 
L 386.138051 285.408 
L 385.813071 285.408 
L 385.488092 285.408 
L 385.163112 285.408 
L 384.838133 285.408 
L 384.513153 285.408 
L 384.188174 285.408 
L 383.863194 285.408 
L 383.538215 285.408 
L 383.213235 285.408 
L 382.888256 285.408 
L 382.563276 285.408 
L 382.238296 285.408 
L 381.913317 285.408 
L 381.588337 285.408 
L 381.263358 285.408 
L 380.938378 285.408 
L 380.613399 285.408 
L 380.288419 285.408 
L 379.96344 285.408 
L 379.63846 285.408 
L 379.313481 285.408 
L 378.988501 285.408 
L 378.663522 285.408 
L 378.338542 285.408 
L 378.013563 285.408 
L 377.688583 285.408 
L 377.363604 285.408 
L 377.038624 285.408 
L 376.713645 285.408 
L 376.388665 285.408 
L 376.063686 285.408 
L 375.738706 285.408 
L 375.413726 285.408 
L 375.088747 285.408 
L 374.763767 285.408 
L 374.438788 285.408 
L 374.113808 285.408 
L 373.788829 285.408 
L 373.463849 285.408 
L 373.13887 285.408 
L 372.81389 285.408 
L 372.488911 285.408 
L 372.163931 285.408 
L 371.838952 285.408 
L 371.513972 285.408 
L 371.188993 285.408 
L 370.864013 285.408 
L 370.539034 285.408 
L 370.214054 285.408 
L 369.889075 285.408 
L 369.564095 285.408 
L 369.239115 285.408 
L 368.914136 285.408 
L 368.589156 285.408 
L 368.264177 285.408 
L 367.939197 285.408 
L 367.614218 285.408 
L 367.289238 285.408 
L 366.964259 285.408 
L 366.639279 285.408 
L 366.3143 285.408 
L 365.98932 285.408 
L 365.664341 285.408 
L 365.339361 285.408 
L 365.014382 285.408 
L 364.689402 285.408 
L 364.364423 285.408 
L 364.039443 285.408 
L 363.714464 285.408 
L 363.389484 285.408 
L 363.064505 285.408 
L 362.739525 285.408 
L 362.414545 285.408 
L 362.089566 285.408 
L 361.764586 285.408 
L 361.439607 285.408 
L 361.114627 285.408 
L 360.789648 285.408 
L 360.464668 285.408 
L 360.139689 285.408 
L 359.814709 285.408 
L 359.48973 285.408 
L 359.16475 285.408 
L 358.839771 285.408 
L 358.514791 285.408 
L 358.189812 285.408 
L 357.864832 285.408 
L 357.539853 285.408 
L 357.214873 285.408 
L 356.889894 285.408 
L 356.564914 285.408 
L 356.239934 285.408 
L 355.914955 285.408 
L 355.589975 285.408 
L 355.264996 285.408 
L 354.940016 285.408 
L 354.615037 285.408 
L 354.290057 285.408 
L 353.965078 285.408 
L 353.640098 285.408 
L 353.315119 285.408 
L 352.990139 285.408 
L 352.66516 285.408 
L 352.34018 285.408 
L 352.015201 285.408 
L 351.690221 285.408 
L 351.365242 285.408 
L 351.040262 285.408 
L 350.715283 285.408 
L 350.390303 285.408 
L 350.065324 285.408 
L 349.740344 285.408 
L 349.415364 285.408 
L 349.090385 285.408 
L 348.765405 285.408 
L 348.440426 285.408 
L 348.115446 285.408 
L 347.790467 285.408 
L 347.465487 285.408 
L 347.140508 285.408 
L 346.815528 285.408 
L 346.490549 285.408 
L 346.165569 285.408 
L 345.84059 285.408 
L 345.51561 285.408 
L 345.190631 285.408 
L 344.865651 285.408 
L 344.540672 285.408 
L 344.215692 285.408 
L 343.890713 285.408 
L 343.565733 285.408 
L 343.240753 285.408 
L 342.915774 285.408 
L 342.590794 285.408 
L 342.265815 285.408 
L 341.940835 285.408 
L 341.615856 285.408 
L 341.290876 285.408 
L 340.965897 285.408 
L 340.640917 285.408 
L 340.315938 285.408 
L 339.990958 285.408 
L 339.665979 285.408 
L 339.340999 285.408 
L 339.01602 285.408 
L 338.69104 285.408 
L 338.366061 285.408 
L 338.041081 285.408 
L 337.716102 285.408 
L 337.391122 285.408 
L 337.066143 285.408 
L 336.741163 285.408 
L 336.416183 285.408 
L 336.091204 285.408 
L 335.766224 285.408 
L 335.441245 285.408 
L 335.116265 285.408 
L 334.791286 285.408 
L 334.466306 285.408 
L 334.141327 285.408 
L 333.816347 285.408 
L 333.491368 285.408 
L 333.166388 285.408 
L 332.841409 285.408 
L 332.516429 285.408 
L 332.19145 285.408 
L 331.86647 285.408 
L 331.541491 285.408 
L 331.216511 285.408 
L 330.891532 285.408 
L 330.566552 285.408 
L 330.241572 285.408 
L 329.916593 285.408 
L 329.591613 285.408 
L 329.266634 285.408 
L 328.941654 285.408 
L 328.616675 285.408 
L 328.291695 285.408 
L 327.966716 285.408 
L 327.641736 285.408 
L 327.316757 285.408 
L 326.991777 285.408 
L 326.666798 285.408 
L 326.341818 285.408 
L 326.016839 285.408 
L 325.691859 285.408 
L 325.36688 285.408 
L 325.0419 285.408 
L 324.716921 285.408 
L 324.391941 285.408 
L 324.066962 285.408 
L 323.741982 285.408 
L 323.417002 285.408 
L 323.092023 285.408 
L 322.767043 285.408 
L 322.442064 285.408 
L 322.117084 285.408 
L 321.792105 285.408 
L 321.467125 285.408 
L 321.142146 285.408 
L 320.817166 285.408 
L 320.492187 285.408 
L 320.167207 285.408 
L 319.842228 285.408 
L 319.517248 285.408 
L 319.192269 285.408 
L 318.867289 285.408 
L 318.54231 285.408 
L 318.21733 285.408 
L 317.892351 285.408 
L 317.567371 285.408 
L 317.242391 285.408 
L 316.917412 285.408 
L 316.592432 285.408 
L 316.267453 285.408 
L 315.942473 285.408 
L 315.617494 285.408 
L 315.292514 285.408 
L 314.967535 285.408 
L 314.642555 285.408 
L 314.317576 285.408 
L 313.992596 285.408 
L 313.667617 285.408 
L 313.342637 285.408 
L 313.017658 285.408 
L 312.692678 285.408 
L 312.367699 285.408 
L 312.042719 285.408 
L 311.71774 285.408 
L 311.39276 285.408 
L 311.067781 285.408 
L 310.742801 285.408 
L 310.417821 285.408 
L 310.092842 285.408 
L 309.767862 285.408 
L 309.442883 285.408 
L 309.117903 285.408 
L 308.792924 285.408 
L 308.467944 285.408 
L 308.142965 285.408 
L 307.817985 285.408 
L 307.493006 285.408 
L 307.168026 285.408 
L 306.843047 285.408 
L 306.518067 285.408 
L 306.193088 285.408 
L 305.868108 285.408 
L 305.543129 285.408 
L 305.218149 285.408 
L 304.89317 285.408 
L 304.56819 285.408 
L 304.24321 285.408 
L 303.918231 285.408 
L 303.593251 285.408 
L 303.268272 285.408 
L 302.943292 285.408 
L 302.618313 285.408 
L 302.293333 285.408 
L 301.968354 285.408 
L 301.643374 285.408 
L 301.318395 285.408 
L 300.993415 285.408 
L 300.668436 285.408 
L 300.343456 285.408 
L 300.018477 285.408 
L 299.693497 285.408 
L 299.368518 285.408 
L 299.043538 285.408 
L 298.718559 285.408 
L 298.393579 285.408 
L 298.0686 285.408 
L 297.74362 285.408 
L 297.41864 285.408 
L 297.093661 285.408 
L 296.768681 285.408 
L 296.443702 285.408 
L 296.118722 285.408 
L 295.793743 285.408 
L 295.468763 285.408 
L 295.143784 285.408 
L 294.818804 285.408 
L 294.493825 285.408 
L 294.168845 285.408 
L 293.843866 285.408 
L 293.518886 285.408 
L 293.193907 285.408 
L 292.868927 285.408 
L 292.543948 285.408 
L 292.218968 285.408 
L 291.893989 285.408 
L 291.569009 285.408 
L 291.244029 285.408 
L 290.91905 285.408 
L 290.59407 285.408 
L 290.269091 285.408 
L 289.944111 285.408 
L 289.619132 285.408 
L 289.294152 285.408 
L 288.969173 285.408 
L 288.644193 285.408 
L 288.319214 285.408 
L 287.994234 285.408 
L 287.669255 285.408 
L 287.344275 285.408 
L 287.019296 285.408 
L 286.694316 285.408 
L 286.369337 285.408 
L 286.044357 285.408 
L 285.719378 285.408 
L 285.394398 285.408 
L 285.069419 285.408 
L 284.744439 285.408 
L 284.419459 285.408 
L 284.09448 285.408 
L 283.7695 285.408 
L 283.444521 285.408 
L 283.119541 285.408 
L 282.794562 285.408 
L 282.469582 285.408 
L 282.144603 285.408 
L 281.819623 285.408 
L 281.494644 285.408 
L 281.169664 285.408 
L 280.844685 285.408 
L 280.519705 285.408 
L 280.194726 285.408 
L 279.869746 285.408 
L 279.544767 285.408 
L 279.219787 285.408 
L 278.894808 285.408 
L 278.569828 285.408 
L 278.244848 285.408 
L 277.919869 285.408 
L 277.594889 285.408 
L 277.26991 285.408 
L 276.94493 285.408 
L 276.619951 285.408 
L 276.294971 285.408 
L 275.969992 285.408 
L 275.645012 285.408 
L 275.320033 285.408 
L 274.995053 285.408 
L 274.670074 285.408 
L 274.345094 285.408 
L 274.020115 285.408 
L 273.695135 285.408 
L 273.370156 285.408 
L 273.045176 285.408 
L 272.720197 285.408 
L 272.395217 285.408 
L 272.070238 285.408 
L 271.745258 285.408 
L 271.420278 285.408 
L 271.095299 285.408 
L 270.770319 285.408 
L 270.44534 285.408 
L 270.12036 285.408 
L 269.795381 285.408 
L 269.470401 285.408 
L 269.145422 285.408 
L 268.820442 285.408 
L 268.495463 285.408 
L 268.170483 285.408 
L 267.845504 285.408 
L 267.520524 285.408 
L 267.195545 285.408 
L 266.870565 285.408 
L 266.545586 285.408 
L 266.220606 285.408 
L 265.895627 285.408 
L 265.570647 285.408 
L 265.245667 285.408 
L 264.920688 285.408 
L 264.595708 285.408 
L 264.270729 285.408 
L 263.945749 285.408 
L 263.62077 285.408 
L 263.29579 285.408 
L 262.970811 285.408 
L 262.645831 285.408 
L 262.320852 285.408 
L 261.995872 285.408 
L 261.670893 285.408 
L 261.345913 285.408 
L 261.020934 285.408 
L 260.695954 285.408 
L 260.370975 285.408 
L 260.045995 285.408 
L 259.721016 285.408 
L 259.396036 285.408 
L 259.071057 285.408 
L 258.746077 285.408 
L 258.421097 285.408 
L 258.096118 285.408 
L 257.771138 285.408 
L 257.446159 285.408 
L 257.121179 285.408 
L 256.7962 285.408 
L 256.47122 285.408 
L 256.146241 285.408 
L 255.821261 285.408 
L 255.496282 285.408 
L 255.171302 285.408 
L 254.846323 285.408 
L 254.521343 285.408 
L 254.196364 285.408 
L 253.871384 285.408 
L 253.546405 285.408 
L 253.221425 285.408 
L 252.896446 285.408 
L 252.571466 285.408 
L 252.246486 285.408 
L 251.921507 285.408 
L 251.596527 285.408 
L 251.271548 285.408 
L 250.946568 285.408 
L 250.621589 285.408 
L 250.296609 285.408 
L 249.97163 285.408 
L 249.64665 285.408 
L 249.321671 285.408 
L 248.996691 285.408 
L 248.671712 285.408 
L 248.346732 285.408 
L 248.021753 285.408 
L 247.696773 285.408 
L 247.371794 285.408 
L 247.046814 285.408 
L 246.721835 285.408 
L 246.396855 285.408 
L 246.071876 285.408 
L 245.746896 285.408 
L 245.421916 285.408 
L 245.096937 285.408 
L 244.771957 285.408 
L 244.446978 285.408 
L 244.121998 285.408 
L 243.797019 285.408 
L 243.472039 285.408 
L 243.14706 285.408 
L 242.82208 285.408 
L 242.497101 285.408 
L 242.172121 285.408 
L 241.847142 285.408 
L 241.522162 285.408 
L 241.197183 285.408 
L 240.872203 285.408 
L 240.547224 285.408 
L 240.222244 285.408 
L 239.897265 285.408 
L 239.572285 285.408 
L 239.247305 285.408 
L 238.922326 285.408 
L 238.597346 285.408 
L 238.272367 285.408 
L 237.947387 285.408 
L 237.622408 285.408 
L 237.297428 285.408 
L 236.972449 285.408 
L 236.647469 285.408 
L 236.32249 285.408 
L 235.99751 285.408 
L 235.672531 285.408 
L 235.347551 285.408 
L 235.022572 285.408 
L 234.697592 285.408 
L 234.372613 285.408 
L 234.047633 285.408 
L 233.722654 285.408 
L 233.397674 285.408 
L 233.072695 285.408 
L 232.747715 285.408 
L 232.422735 285.408 
L 232.097756 285.408 
L 231.772776 285.408 
L 231.447797 285.408 
L 231.122817 285.408 
L 230.797838 285.408 
L 230.472858 285.408 
L 230.147879 285.408 
L 229.822899 285.408 
L 229.49792 285.408 
L 229.17294 285.408 
L 228.847961 285.408 
L 228.522981 285.408 
L 228.198002 285.408 
L 227.873022 285.408 
L 227.548043 285.408 
L 227.223063 285.408 
L 226.898084 285.408 
L 226.573104 285.408 
L 226.248124 285.408 
L 225.923145 285.408 
L 225.598165 285.408 
L 225.273186 285.408 
L 224.948206 285.408 
L 224.623227 285.408 
L 224.298247 285.408 
L 223.973268 285.408 
L 223.648288 285.408 
L 223.323309 285.408 
L 222.998329 285.408 
L 222.67335 285.408 
L 222.34837 285.408 
L 222.023391 285.408 
L 221.698411 285.408 
L 221.373432 285.408 
L 221.048452 285.408 
L 220.723473 285.408 
L 220.398493 285.408 
L 220.073514 285.408 
L 219.748534 285.408 
L 219.423554 285.408 
L 219.098575 285.408 
L 218.773595 285.408 
L 218.448616 285.408 
L 218.123636 285.408 
L 217.798657 285.408 
L 217.473677 285.408 
L 217.148698 285.408 
L 216.823718 285.408 
L 216.498739 285.408 
L 216.173759 285.408 
L 215.84878 285.408 
L 215.5238 285.408 
L 215.198821 285.408 
L 214.873841 285.408 
L 214.548862 285.408 
L 214.223882 285.408 
L 213.898903 285.408 
L 213.573923 285.408 
L 213.248943 285.408 
L 212.923964 285.408 
L 212.598984 285.408 
L 212.274005 285.408 
L 211.949025 285.408 
L 211.624046 285.408 
L 211.299066 285.408 
L 210.974087 285.408 
L 210.649107 285.408 
L 210.324128 285.408 
L 209.999148 285.408 
L 209.674169 285.408 
L 209.349189 285.408 
L 209.02421 285.408 
L 208.69923 285.408 
L 208.374251 285.408 
L 208.049271 285.408 
L 207.724292 285.408 
L 207.399312 285.408 
L 207.074333 285.408 
L 206.749353 285.408 
L 206.424373 285.408 
L 206.099394 285.408 
L 205.774414 285.408 
L 205.449435 285.408 
L 205.124455 285.408 
L 204.799476 285.408 
L 204.474496 285.408 
L 204.149517 285.408 
L 203.824537 285.408 
L 203.499558 285.408 
L 203.174578 285.408 
L 202.849599 285.408 
L 202.524619 285.408 
L 202.19964 285.408 
L 201.87466 285.408 
L 201.549681 285.408 
L 201.224701 285.408 
L 200.899722 285.408 
L 200.574742 285.408 
L 200.249762 285.408 
L 199.924783 285.408 
L 199.599803 285.408 
L 199.274824 285.408 
L 198.949844 285.408 
L 198.624865 285.408 
L 198.299885 285.408 
L 197.974906 285.408 
L 197.649926 285.408 
L 197.324947 285.408 
L 196.999967 285.408 
L 196.674988 285.408 
L 196.350008 285.408 
L 196.025029 285.408 
L 195.700049 285.408 
L 195.37507 285.408 
L 195.05009 285.408 
L 194.725111 285.408 
L 194.400131 285.408 
L 194.075152 285.408 
L 193.750172 285.408 
L 193.425192 285.408 
L 193.100213 285.408 
L 192.775233 285.408 
L 192.450254 285.408 
L 192.125274 285.408 
L 191.800295 285.408 
L 191.475315 285.408 
L 191.150336 285.408 
L 190.825356 285.408 
L 190.500377 285.408 
L 190.175397 285.408 
L 189.850418 285.408 
L 189.525438 285.408 
L 189.200459 285.408 
L 188.875479 285.408 
L 188.5505 285.408 
L 188.22552 285.408 
L 187.900541 285.408 
L 187.575561 285.408 
L 187.250581 285.408 
L 186.925602 285.408 
L 186.600622 285.408 
L 186.275643 285.408 
L 185.950663 285.408 
L 185.625684 285.408 
L 185.300704 285.408 
L 184.975725 285.408 
L 184.650745 285.408 
L 184.325766 285.408 
L 184.000786 285.408 
L 183.675807 285.408 
L 183.350827 285.408 
L 183.025848 285.408 
L 182.700868 285.408 
L 182.375889 285.408 
L 182.050909 285.408 
L 181.72593 285.408 
L 181.40095 285.408 
L 181.075971 285.408 
L 180.750991 285.408 
L 180.426011 285.408 
L 180.101032 285.408 
L 179.776052 285.408 
L 179.451073 285.408 
L 179.126093 285.408 
L 178.801114 285.408 
L 178.476134 285.408 
L 178.151155 285.408 
L 177.826175 285.408 
L 177.501196 285.408 
L 177.176216 285.408 
L 176.851237 285.408 
L 176.526257 285.408 
L 176.201278 285.408 
L 175.876298 285.408 
L 175.551319 285.408 
L 175.226339 285.408 
L 174.90136 285.408 
L 174.57638 285.408 
L 174.2514 285.408 
L 173.926421 285.408 
L 173.601441 285.408 
L 173.276462 285.408 
L 172.951482 285.408 
L 172.626503 285.408 
L 172.301523 285.408 
L 171.976544 285.408 
L 171.651564 285.408 
L 171.326585 285.408 
L 171.001605 285.408 
L 170.676626 285.408 
L 170.351646 285.408 
L 170.026667 285.408 
L 169.701687 285.408 
L 169.376708 285.408 
L 169.051728 285.408 
L 168.726749 285.408 
L 168.401769 285.408 
L 168.07679 285.408 
L 167.75181 285.408 
L 167.42683 285.408 
L 167.101851 285.408 
L 166.776871 285.408 
L 166.451892 285.408 
L 166.126912 285.408 
L 165.801933 285.408 
L 165.476953 285.408 
L 165.151974 285.408 
L 164.826994 285.408 
L 164.502015 285.408 
L 164.177035 285.408 
L 163.852056 285.408 
L 163.527076 285.408 
L 163.202097 285.408 
L 162.877117 285.408 
L 162.552138 285.408 
L 162.227158 285.408 
L 161.902179 285.408 
L 161.577199 285.408 
L 161.252219 285.408 
L 160.92724 285.408 
L 160.60226 285.408 
L 160.277281 285.408 
L 159.952301 285.408 
L 159.627322 285.408 
L 159.302342 285.408 
L 158.977363 285.408 
L 158.652383 285.408 
L 158.327404 285.408 
L 158.002424 285.408 
L 157.677445 285.408 
L 157.352465 285.408 
L 157.027486 285.408 
L 156.702506 285.408 
L 156.377527 285.408 
L 156.052547 285.408 
L 155.727568 285.408 
L 155.402588 285.408 
L 155.077609 285.408 
L 154.752629 285.408 
L 154.427649 285.408 
L 154.10267 285.408 
L 153.77769 285.408 
L 153.452711 285.408 
L 153.127731 285.408 
L 152.802752 285.408 
L 152.477772 285.408 
L 152.152793 285.408 
L 151.827813 285.408 
L 151.502834 285.408 
L 151.177854 285.408 
L 150.852875 285.408 
L 150.527895 285.408 
L 150.202916 285.408 
L 149.877936 285.408 
L 149.552957 285.408 
L 149.227977 285.408 
L 148.902998 285.408 
L 148.578018 285.408 
L 148.253038 285.408 
L 147.928059 285.408 
L 147.603079 285.408 
L 147.2781 285.408 
L 146.95312 285.408 
L 146.628141 285.408 
L 146.303161 285.408 
L 145.978182 285.408 
L 145.653202 285.408 
L 145.328223 285.408 
L 145.003243 285.408 
L 144.678264 285.408 
L 144.353284 285.408 
L 144.028305 285.408 
L 143.703325 285.408 
L 143.378346 285.408 
L 143.053366 285.408 
L 142.728387 285.408 
L 142.403407 285.408 
L 142.078428 285.408 
L 141.753448 285.408 
L 141.428468 285.408 
L 141.103489 285.408 
L 140.778509 285.408 
L 140.45353 285.408 
L 140.12855 285.408 
L 139.803571 285.408 
L 139.478591 285.408 
L 139.153612 285.408 
L 138.828632 285.408 
L 138.503653 285.408 
L 138.178673 285.408 
L 137.853694 285.408 
L 137.528714 285.408 
L 137.203735 285.408 
L 136.878755 285.408 
L 136.553776 285.408 
L 136.228796 285.408 
L 135.903817 285.408 
L 135.578837 285.408 
L 135.253857 285.408 
L 134.928878 285.408 
L 134.603898 285.408 
L 134.278919 285.408 
L 133.953939 285.408 
L 133.62896 285.408 
L 133.30398 285.408 
L 132.979001 285.408 
L 132.654021 285.408 
L 132.329042 285.408 
L 132.004062 285.408 
L 131.679083 285.408 
L 131.354103 285.408 
L 131.029124 285.408 
L 130.704144 285.408 
L 130.379165 285.408 
L 130.054185 285.408 
L 129.729206 285.408 
L 129.404226 285.408 
L 129.079247 285.408 
L 128.754267 285.408 
L 128.429287 285.408 
L 128.104308 285.408 
L 127.779328 285.408 
L 127.454349 285.408 
L 127.129369 285.408 
L 126.80439 285.408 
L 126.47941 285.408 
L 126.154431 285.408 
L 125.829451 285.408 
L 125.504472 285.408 
L 125.179492 285.408 
L 124.854513 285.408 
L 124.529533 285.408 
L 124.204554 285.408 
L 123.879574 285.408 
L 123.554595 285.408 
L 123.229615 285.408 
L 122.904636 285.408 
L 122.579656 285.408 
L 122.254676 285.408 
L 121.929697 285.408 
L 121.604717 285.408 
L 121.279738 285.408 
L 120.954758 285.408 
L 120.629779 285.408 
L 120.304799 285.408 
L 119.97982 285.408 
L 119.65484 285.408 
L 119.329861 285.408 
L 119.004881 285.408 
L 118.679902 285.408 
L 118.354922 285.408 
L 118.029943 285.408 
L 117.704963 285.408 
L 117.379984 285.408 
L 117.055004 285.408 
L 116.730025 285.408 
L 116.405045 285.408 
L 116.080066 285.408 
L 115.755086 285.408 
L 115.430106 285.408 
L 115.105127 285.408 
L 114.780147 285.408 
L 114.455168 285.408 
L 114.130188 285.408 
L 113.805209 285.408 
L 113.480229 285.408 
L 113.15525 285.408 
L 112.83027 285.408 
L 112.505291 285.408 
L 112.180311 285.408 
L 111.855332 285.408 
L 111.530352 285.408 
L 111.205373 285.408 
L 110.880393 285.408 
L 110.555414 285.408 
L 110.230434 285.408 
L 109.905455 285.408 
L 109.580475 285.408 
L 109.255495 285.408 
L 108.930516 285.408 
L 108.605536 285.408 
L 108.280557 285.408 
L 107.955577 285.408 
L 107.630598 285.408 
L 107.305618 285.408 
L 106.980639 285.408 
L 106.655659 285.408 
L 106.33068 285.408 
L 106.0057 285.408 
L 105.680721 285.408 
L 105.355741 285.408 
L 105.030762 285.408 
L 104.705782 285.408 
L 104.380803 285.408 
L 104.055823 285.408 
L 103.730844 285.408 
L 103.405864 285.408 
L 103.080885 285.408 
L 102.755905 285.408 
L 102.430925 285.408 
L 102.105946 285.408 
L 101.780966 285.408 
L 101.455987 285.408 
L 101.131007 285.408 
L 100.806028 285.408 
L 100.481048 285.408 
L 100.156069 285.408 
L 99.831089 285.408 
L 99.50611 285.408 
L 99.18113 285.408 
L 98.856151 285.408 
L 98.531171 285.408 
L 98.206192 285.408 
L 97.881212 285.408 
L 97.556233 285.408 
L 97.231253 285.408 
L 96.906274 285.408 
L 96.581294 285.408 
L 96.256314 285.408 
L 95.931335 285.408 
L 95.606355 285.408 
L 95.281376 285.408 
L 94.956396 285.408 
L 94.631417 285.408 
L 94.306437 285.408 
L 93.981458 285.408 
L 93.656478 285.408 
L 93.331499 285.408 
L 93.006519 285.408 
L 92.68154 285.408 
L 92.35656 285.408 
L 92.031581 285.408 
L 91.706601 285.408 
L 91.381622 285.408 
L 91.056642 285.408 
L 90.731663 285.408 
L 90.406683 285.408 
L 90.081704 285.408 
L 89.756724 285.408 
L 89.431744 285.408 
L 89.106765 285.408 
L 88.781785 285.408 
L 88.456806 285.408 
L 88.131826 285.408 
L 87.806847 285.408 
L 87.481867 285.408 
L 87.156888 285.408 
L 86.831908 285.408 
L 86.506929 285.408 
L 86.181949 285.408 
L 85.85697 285.408 
L 85.53199 285.408 
L 85.207011 285.408 
L 84.882031 285.408 
L 84.557052 285.408 
L 84.232072 285.408 
L 83.907093 285.408 
L 83.582113 285.408 
L 83.257133 285.408 
L 82.932154 285.408 
L 82.607174 285.408 
L 82.282195 285.408 
L 81.957215 285.408 
L 81.632236 285.408 
L 81.307256 285.408 
L 80.982277 285.408 
L 80.657297 285.408 
L 80.332318 285.408 
L 80.007338 285.408 
L 79.682359 285.408 
L 79.357379 285.408 
L 79.0324 285.408 
L 78.70742 285.408 
L 78.382441 285.408 
L 78.057461 285.408 
L 77.732482 285.408 
L 77.407502 285.408 
L 77.082523 285.408 
L 76.757543 285.408 
L 76.432563 285.408 
L 76.107584 285.408 
L 75.782604 285.408 
L 75.457625 285.408 
L 75.132645 285.408 
L 74.807666 285.408 
L 74.482686 285.408 
L 74.157707 285.408 
L 73.832727 285.408 
z
" clip-path="url(#pf84f32cdd8)" style="fill: #1f77b4; fill-opacity: 0.5"/>
   </g>
   <g id="line2d_25">
    <defs>
     <path id="m182252f2e5" d="M 0 3 
L 0 -3 
" style="stroke: #000000"/>
    </defs>
    <g clip-path="url(#pf84f32cdd8)">
     <use xlink:href="#m182252f2e5" x="225.996835" y="296.496" style="stroke: #000000"/>
     <use xlink:href="#m182252f2e5" x="165.500117" y="296.496" style="stroke: #000000"/>
     <use xlink:href="#m182252f2e5" x="167.761462" y="296.496" style="stroke: #000000"/>
     <use xlink:href="#m182252f2e5" x="153.022231" y="296.496" style="stroke: #000000"/>
     <use xlink:href="#m182252f2e5" x="205.464119" y="296.496" style="stroke: #000000"/>
     <use xlink:href="#m182252f2e5" x="119.783826" y="296.496" style="stroke: #000000"/>
     <use xlink:href="#m182252f2e5" x="364.528726" y="296.496" style="stroke: #000000"/>
     <use xlink:href="#m182252f2e5" x="296.72953" y="296.496" style="stroke: #000000"/>
     <use xlink:href="#m182252f2e5" x="325.955094" y="296.496" style="stroke: #000000"/>
     <use xlink:href="#m182252f2e5" x="310.577034" y="296.496" style="stroke: #000000"/>
     <use xlink:href="#m182252f2e5" x="356.880302" y="296.496" style="stroke: #000000"/>
     <use xlink:href="#m182252f2e5" x="261.587466" y="296.496" style="stroke: #000000"/>
     <use xlink:href="#m182252f2e5" x="308.600785" y="296.496" style="stroke: #000000"/>
     <use xlink:href="#m182252f2e5" x="306.93322" y="296.496" style="stroke: #000000"/>
     <use xlink:href="#m182252f2e5" x="347.997253" y="296.496" style="stroke: #000000"/>
     <use xlink:href="#m182252f2e5" x="287.566578" y="296.496" style="stroke: #000000"/>
     <use xlink:href="#m182252f2e5" x="312.65867" y="296.496" style="stroke: #000000"/>
     <use xlink:href="#m182252f2e5" x="293.573576" y="296.496" style="stroke: #000000"/>
     <use xlink:href="#m182252f2e5" x="318.46571" y="296.496" style="stroke: #000000"/>
     <use xlink:href="#m182252f2e5" x="333.091437" y="296.496" style="stroke: #000000"/>
    </g>
   </g>
   <g id="patch_3">
    <path d="M 57.6 307.584 
L 57.6 41.472 
" style="fill: none; stroke: #cccccc; stroke-linejoin: miter; stroke-linecap: square"/>
   </g>
   <g id="patch_4">
    <path d="M 414.72 307.584 
L 414.72 41.472 
" style="fill: none; stroke: #cccccc; stroke-linejoin: miter; stroke-linecap: square"/>
   </g>
   <g id="patch_5">
    <path d="M 57.6 307.584 
L 414.72 307.584 
" style="fill: none; stroke: #cccccc; stroke-linejoin: miter; stroke-linecap: square"/>
   </g>
   <g id="patch_6">
    <path d="M 57.6 41.472 
L 414.72 41.472 
" style="fill: none; stroke: #cccccc; stroke-linejoin: miter; stroke-linecap: square"/>
   </g>
  </g>
 </g>
 <defs>
  <clipPath id="pf84f32cdd8">
   <rect x="57.6" y="41.472" width="357.12" height="266.112"/>
  </clipPath>
 </defs>
</svg>
