<?xml version="1.0" encoding="utf-8" standalone="no"?>
<!DOCTYPE svg PUBLIC "-//W3C//DTD SVG 1.1//EN"
  "http://www.w3.org/Graphics/SVG/1.1/DTD/svg11.dtd">
<svg xmlns:xlink="http://www.w3.org/1999/xlink" width="460.8pt" height="345.6pt" viewBox="0 0 460.8 345.6" xmlns="http://www.w3.org/2000/svg" version="1.1">
 <metadata>
  <rdf:RDF xmlns:dc="http://purl.org/dc/elements/1.1/" xmlns:cc="http://creativecommons.org/ns#" xmlns:rdf="http://www.w3.org/1999/02/22-rdf-syntax-ns#">
   <cc:Work>
    <dc:type rdf:resource="http://purl.org/dc/dcmitype/StillImage"/>
    <dc:date>2023-08-23T08:34:05.307191</dc:date>
    <dc:format>image/svg+xml</dc:format>
    <dc:creator>
     <cc:Agent>
      <dc:title>Matplotlib v3.7.1, https://matplotlib.org/</dc:title>
     </cc:Agent>
    </dc:creator>
   </cc:Work>
  </rdf:RDF>
 </metadata>
 <defs>
  <style type="text/css">*{stroke-linejoin: round; stroke-linecap: butt}</style>
 </defs>
 <g id="figure_1">
  <g id="patch_1">
   <path d="M 0 345.6 
L 460.8 345.6 
L 460.8 0 
L 0 0 
z
" style="fill: #ffffff"/>
  </g>
  <g id="axes_1">
   <g id="patch_2">
    <path d="M 57.6 162.432 
L 414.72 162.432 
L 414.72 41.472 
L 57.6 41.472 
z
" style="fill: #ffffff"/>
   </g>
   <g id="matplotlib.axis_1">
    <g id="xtick_1">
     <g id="line2d_1">
      <path d="M 57.6 162.432 
L 57.6 41.472 
" clip-path="url(#p1b704f5116)" style="fill: none; stroke: #cccccc; stroke-width: 0.8; stroke-linecap: round"/>
     </g>
     <g id="line2d_2"/>
    </g>
    <g id="xtick_2">
     <g id="line2d_3">
      <path d="M 129.024 162.432 
L 129.024 41.472 
" clip-path="url(#p1b704f5116)" style="fill: none; stroke: #cccccc; stroke-width: 0.8; stroke-linecap: round"/>
     </g>
     <g id="line2d_4"/>
    </g>
    <g id="xtick_3">
     <g id="line2d_5">
      <path d="M 200.448 162.432 
L 200.448 41.472 
" clip-path="url(#p1b704f5116)" style="fill: none; stroke: #cccccc; stroke-width: 0.8; stroke-linecap: round"/>
     </g>
     <g id="line2d_6"/>
    </g>
    <g id="xtick_4">
     <g id="line2d_7">
      <path d="M 271.872 162.432 
L 271.872 41.472 
" clip-path="url(#p1b704f5116)" style="fill: none; stroke: #cccccc; stroke-width: 0.8; stroke-linecap: round"/>
     </g>
     <g id="line2d_8"/>
    </g>
    <g id="xtick_5">
     <g id="line2d_9">
      <path d="M 343.296 162.432 
L 343.296 41.472 
" clip-path="url(#p1b704f5116)" style="fill: none; stroke: #cccccc; stroke-width: 0.8; stroke-linecap: round"/>
     </g>
     <g id="line2d_10"/>
    </g>
    <g id="xtick_6">
     <g id="line2d_11">
      <path d="M 414.72 162.432 
L 414.72 41.472 
" clip-path="url(#p1b704f5116)" style="fill: none; stroke: #cccccc; stroke-width: 0.8; stroke-linecap: round"/>
     </g>
     <g id="line2d_12"/>
    </g>
    <g id="text_1">
     <!-- x -->
     <g style="fill: #262626" transform="translate(233.66 173.678875) scale(0.1 -0.1)">
      <defs>
       <path id="LiberationSans-78" d="M 2503 0 
L 1594 1388 
L 678 0 
L 72 0 
L 1275 1738 
L 128 3381 
L 750 3381 
L 1594 2066 
L 2431 3381 
L 3059 3381 
L 1913 1744 
L 3131 0 
L 2503 0 
z
" transform="scale(0.015625)"/>
      </defs>
      <use xlink:href="#LiberationSans-78"/>
     </g>
    </g>
   </g>
   <g id="matplotlib.axis_2">
    <g id="ytick_1">
     <g id="line2d_13">
      <path d="M 57.6 162.432 
L 414.72 162.432 
" clip-path="url(#p1b704f5116)" style="fill: none; stroke: #cccccc; stroke-width: 0.8; stroke-linecap: round"/>
     </g>
     <g id="line2d_14"/>
     <g id="text_2">
      <!-- −1.5 -->
      <g style="fill: #262626" transform="translate(34.359375 166.055438) scale(0.1 -0.1)">
       <defs>
        <path id="LiberationSans-2212" d="M 316 1900 
L 316 2356 
L 3425 2356 
L 3425 1900 
L 316 1900 
z
" transform="scale(0.015625)"/>
        <path id="LiberationSans-31" d="M 488 0 
L 488 478 
L 1609 478 
L 1609 3866 
L 616 3156 
L 616 3688 
L 1656 4403 
L 2175 4403 
L 2175 478 
L 3247 478 
L 3247 0 
L 488 0 
z
" transform="scale(0.015625)"/>
        <path id="LiberationSans-2e" d="M 584 0 
L 584 684 
L 1194 684 
L 1194 0 
L 584 0 
z
" transform="scale(0.015625)"/>
        <path id="LiberationSans-35" d="M 3291 1434 
Q 3291 738 2877 337 
Q 2463 -63 1728 -63 
Q 1113 -63 734 206 
Q 356 475 256 984 
L 825 1050 
Q 1003 397 1741 397 
Q 2194 397 2450 670 
Q 2706 944 2706 1422 
Q 2706 1838 2448 2094 
Q 2191 2350 1753 2350 
Q 1525 2350 1328 2278 
Q 1131 2206 934 2034 
L 384 2034 
L 531 4403 
L 3034 4403 
L 3034 3925 
L 1044 3925 
L 959 2528 
Q 1325 2809 1869 2809 
Q 2519 2809 2905 2428 
Q 3291 2047 3291 1434 
z
" transform="scale(0.015625)"/>
       </defs>
       <use xlink:href="#LiberationSans-2212"/>
       <use xlink:href="#LiberationSans-31" x="58.398438"/>
       <use xlink:href="#LiberationSans-2e" x="114.013672"/>
       <use xlink:href="#LiberationSans-35" x="141.796875"/>
      </g>
     </g>
    </g>
    <g id="ytick_2">
     <g id="line2d_15">
      <path d="M 57.6 142.272 
L 414.72 142.272 
" clip-path="url(#p1b704f5116)" style="fill: none; stroke: #cccccc; stroke-width: 0.8; stroke-linecap: round"/>
     </g>
     <g id="line2d_16"/>
     <g id="text_3">
      <!-- −1.0 -->
      <g style="fill: #262626" transform="translate(34.359375 145.895437) scale(0.1 -0.1)">
       <defs>
        <path id="LiberationSans-30" d="M 3309 2203 
Q 3309 1100 2920 518 
Q 2531 -63 1772 -63 
Q 1013 -63 631 515 
Q 250 1094 250 2203 
Q 250 3338 620 3903 
Q 991 4469 1791 4469 
Q 2569 4469 2939 3897 
Q 3309 3325 3309 2203 
z
M 2738 2203 
Q 2738 3156 2517 3584 
Q 2297 4013 1791 4013 
Q 1272 4013 1045 3591 
Q 819 3169 819 2203 
Q 819 1266 1048 831 
Q 1278 397 1778 397 
Q 2275 397 2506 840 
Q 2738 1284 2738 2203 
z
" transform="scale(0.015625)"/>
       </defs>
       <use xlink:href="#LiberationSans-2212"/>
       <use xlink:href="#LiberationSans-31" x="58.398438"/>
       <use xlink:href="#LiberationSans-2e" x="114.013672"/>
       <use xlink:href="#LiberationSans-30" x="141.796875"/>
      </g>
     </g>
    </g>
    <g id="ytick_3">
     <g id="line2d_17">
      <path d="M 57.6 122.112 
L 414.72 122.112 
" clip-path="url(#p1b704f5116)" style="fill: none; stroke: #cccccc; stroke-width: 0.8; stroke-linecap: round"/>
     </g>
     <g id="line2d_18"/>
     <g id="text_4">
      <!-- −0.5 -->
      <g style="fill: #262626" transform="translate(34.359375 125.735437) scale(0.1 -0.1)">
       <use xlink:href="#LiberationSans-2212"/>
       <use xlink:href="#LiberationSans-30" x="58.398438"/>
       <use xlink:href="#LiberationSans-2e" x="114.013672"/>
       <use xlink:href="#LiberationSans-35" x="141.796875"/>
      </g>
     </g>
    </g>
    <g id="ytick_4">
     <g id="line2d_19">
      <path d="M 57.6 101.952 
L 414.72 101.952 
" clip-path="url(#p1b704f5116)" style="fill: none; stroke: #cccccc; stroke-width: 0.8; stroke-linecap: round"/>
     </g>
     <g id="line2d_20"/>
     <g id="text_5">
      <!-- 0.0 -->
      <g style="fill: #262626" transform="translate(40.2 105.575437) scale(0.1 -0.1)">
       <use xlink:href="#LiberationSans-30"/>
       <use xlink:href="#LiberationSans-2e" x="55.615234"/>
       <use xlink:href="#LiberationSans-30" x="83.398438"/>
      </g>
     </g>
    </g>
    <g id="ytick_5">
     <g id="line2d_21">
      <path d="M 57.6 81.792 
L 414.72 81.792 
" clip-path="url(#p1b704f5116)" style="fill: none; stroke: #cccccc; stroke-width: 0.8; stroke-linecap: round"/>
     </g>
     <g id="line2d_22"/>
     <g id="text_6">
      <!-- 0.5 -->
      <g style="fill: #262626" transform="translate(40.2 85.415437) scale(0.1 -0.1)">
       <use xlink:href="#LiberationSans-30"/>
       <use xlink:href="#LiberationSans-2e" x="55.615234"/>
       <use xlink:href="#LiberationSans-35" x="83.398438"/>
      </g>
     </g>
    </g>
    <g id="ytick_6">
     <g id="line2d_23">
      <path d="M 57.6 61.632 
L 414.72 61.632 
" clip-path="url(#p1b704f5116)" style="fill: none; stroke: #cccccc; stroke-width: 0.8; stroke-linecap: round"/>
     </g>
     <g id="line2d_24"/>
     <g id="text_7">
      <!-- 1.0 -->
      <g style="fill: #262626" transform="translate(40.2 65.255438) scale(0.1 -0.1)">
       <use xlink:href="#LiberationSans-31"/>
       <use xlink:href="#LiberationSans-2e" x="55.615234"/>
       <use xlink:href="#LiberationSans-30" x="83.398438"/>
      </g>
     </g>
    </g>
    <g id="ytick_7">
     <g id="line2d_25">
      <path d="M 57.6 41.472 
L 414.72 41.472 
" clip-path="url(#p1b704f5116)" style="fill: none; stroke: #cccccc; stroke-width: 0.8; stroke-linecap: round"/>
     </g>
     <g id="line2d_26"/>
     <g id="text_8">
      <!-- 1.5 -->
      <g style="fill: #262626" transform="translate(40.2 45.095438) scale(0.1 -0.1)">
       <use xlink:href="#LiberationSans-31"/>
       <use xlink:href="#LiberationSans-2e" x="55.615234"/>
       <use xlink:href="#LiberationSans-35" x="83.398438"/>
      </g>
     </g>
    </g>
    <g id="text_9">
     <!-- y -->
     <g style="fill: #262626" transform="translate(28.284375 104.452) rotate(-90) scale(0.1 -0.1)">
      <defs>
       <path id="LiberationSans-79" d="M 597 -1328 
Q 366 -1328 209 -1294 
L 209 -872 
Q 328 -891 472 -891 
Q 997 -891 1303 -119 
L 1356 16 
L 16 3381 
L 616 3381 
L 1328 1513 
Q 1344 1469 1366 1408 
Q 1388 1347 1506 1000 
Q 1625 653 1634 613 
L 1853 1228 
L 2594 3381 
L 3188 3381 
L 1888 0 
Q 1678 -541 1497 -805 
Q 1316 -1069 1095 -1198 
Q 875 -1328 597 -1328 
z
" transform="scale(0.015625)"/>
      </defs>
      <use xlink:href="#LiberationSans-79"/>
     </g>
    </g>
   </g>
   <g id="PathCollection_1">
    <defs>
     <path id="m0510ffe64b" d="M 0 3 
C 0.795609 3 1.55874 2.683901 2.12132 2.12132 
C 2.683901 1.55874 3 0.795609 3 0 
C 3 -0.795609 2.683901 -1.55874 2.12132 -2.12132 
C 1.55874 -2.683901 0.795609 -3 0 -3 
C -0.795609 -3 -1.55874 -2.683901 -2.12132 -2.12132 
C -2.683901 -1.55874 -3 -0.795609 -3 0 
C -3 0.795609 -2.683901 1.55874 -2.12132 2.12132 
C -1.55874 2.683901 -0.795609 3 0 3 
z
" style="stroke: #0000ff"/>
    </defs>
    <g clip-path="url(#p1b704f5116)">
     <use xlink:href="#m0510ffe64b" x="206.526898" y="139.260451" style="fill: #0000ff; stroke: #0000ff"/>
     <use xlink:href="#m0510ffe64b" x="314.842283" y="73.279755" style="fill: #0000ff; stroke: #0000ff"/>
     <use xlink:href="#m0510ffe64b" x="57.640846" y="104.612348" style="fill: #0000ff; stroke: #0000ff"/>
     <use xlink:href="#m0510ffe64b" x="165.569008" y="97.24565" style="fill: #0000ff; stroke: #0000ff"/>
     <use xlink:href="#m0510ffe64b" x="110.009464" y="66.351669" style="fill: #0000ff; stroke: #0000ff"/>
     <use xlink:href="#m0510ffe64b" x="90.575959" y="68.845655" style="fill: #0000ff; stroke: #0000ff"/>
     <use xlink:href="#m0510ffe64b" x="124.117247" y="56.644168" style="fill: #0000ff; stroke: #0000ff"/>
     <use xlink:href="#m0510ffe64b" x="181.006647" y="111.414096" style="fill: #0000ff; stroke: #0000ff"/>
     <use xlink:href="#m0510ffe64b" x="199.2936" y="132.372035" style="fill: #0000ff; stroke: #0000ff"/>
     <use xlink:href="#m0510ffe64b" x="250.022232" y="136.989403" style="fill: #0000ff; stroke: #0000ff"/>
     <use xlink:href="#m0510ffe64b" x="207.302745" y="139.946116" style="fill: #0000ff; stroke: #0000ff"/>
     <use xlink:href="#m0510ffe64b" x="302.305588" y="73.403686" style="fill: #0000ff; stroke: #0000ff"/>
     <use xlink:href="#m0510ffe64b" x="130.613987" y="65.8674" style="fill: #0000ff; stroke: #0000ff"/>
     <use xlink:href="#m0510ffe64b" x="371.193299" y="80.325061" style="fill: #0000ff; stroke: #0000ff"/>
     <use xlink:href="#m0510ffe64b" x="67.380657" y="90.277083" style="fill: #0000ff; stroke: #0000ff"/>
     <use xlink:href="#m0510ffe64b" x="297.037357" y="76.98804" style="fill: #0000ff; stroke: #0000ff"/>
     <use xlink:href="#m0510ffe64b" x="206.627891" y="136.063988" style="fill: #0000ff; stroke: #0000ff"/>
     <use xlink:href="#m0510ffe64b" x="257.119312" y="125.323613" style="fill: #0000ff; stroke: #0000ff"/>
     <use xlink:href="#m0510ffe64b" x="107.734984" y="60.98216" style="fill: #0000ff; stroke: #0000ff"/>
     <use xlink:href="#m0510ffe64b" x="128.346004" y="66.397473" style="fill: #0000ff; stroke: #0000ff"/>
     <use xlink:href="#m0510ffe64b" x="343.5619" y="66.712495" style="fill: #0000ff; stroke: #0000ff"/>
     <use xlink:href="#m0510ffe64b" x="403.385574" y="113.641764" style="fill: #0000ff; stroke: #0000ff"/>
     <use xlink:href="#m0510ffe64b" x="169.530043" y="102.497877" style="fill: #0000ff; stroke: #0000ff"/>
     <use xlink:href="#m0510ffe64b" x="304.842253" y="75.506494" style="fill: #0000ff; stroke: #0000ff"/>
     <use xlink:href="#m0510ffe64b" x="370.576094" y="73.820122" style="fill: #0000ff; stroke: #0000ff"/>
     <use xlink:href="#m0510ffe64b" x="377.081932" y="79.624963" style="fill: #0000ff; stroke: #0000ff"/>
     <use xlink:href="#m0510ffe64b" x="87.970989" y="70.497124" style="fill: #0000ff; stroke: #0000ff"/>
     <use xlink:href="#m0510ffe64b" x="71.547244" y="83.033486" style="fill: #0000ff; stroke: #0000ff"/>
     <use xlink:href="#m0510ffe64b" x="118.249839" y="65.001055" style="fill: #0000ff; stroke: #0000ff"/>
     <use xlink:href="#m0510ffe64b" x="371.202251" y="72.713216" style="fill: #0000ff; stroke: #0000ff"/>
     <use xlink:href="#m0510ffe64b" x="92.721621" y="66.320519" style="fill: #0000ff; stroke: #0000ff"/>
     <use xlink:href="#m0510ffe64b" x="207.985955" y="138.512633" style="fill: #0000ff; stroke: #0000ff"/>
     <use xlink:href="#m0510ffe64b" x="399.681509" y="106.171736" style="fill: #0000ff; stroke: #0000ff"/>
     <use xlink:href="#m0510ffe64b" x="248.003987" y="135.089521" style="fill: #0000ff; stroke: #0000ff"/>
     <use xlink:href="#m0510ffe64b" x="304.683155" y="73.453341" style="fill: #0000ff; stroke: #0000ff"/>
     <use xlink:href="#m0510ffe64b" x="170.276942" y="96.370968" style="fill: #0000ff; stroke: #0000ff"/>
     <use xlink:href="#m0510ffe64b" x="302.763211" y="70.981956" style="fill: #0000ff; stroke: #0000ff"/>
     <use xlink:href="#m0510ffe64b" x="355.66152" y="72.050276" style="fill: #0000ff; stroke: #0000ff"/>
     <use xlink:href="#m0510ffe64b" x="64.13111" y="100.441869" style="fill: #0000ff; stroke: #0000ff"/>
     <use xlink:href="#m0510ffe64b" x="325.491538" y="66.145717" style="fill: #0000ff; stroke: #0000ff"/>
     <use xlink:href="#m0510ffe64b" x="410.742072" y="119.345066" style="fill: #0000ff; stroke: #0000ff"/>
     <use xlink:href="#m0510ffe64b" x="324.784918" y="60.861851" style="fill: #0000ff; stroke: #0000ff"/>
     <use xlink:href="#m0510ffe64b" x="157.752158" y="87.341445" style="fill: #0000ff; stroke: #0000ff"/>
     <use xlink:href="#m0510ffe64b" x="339.467434" y="69.815879" style="fill: #0000ff; stroke: #0000ff"/>
     <use xlink:href="#m0510ffe64b" x="94.464071" y="68.573494" style="fill: #0000ff; stroke: #0000ff"/>
     <use xlink:href="#m0510ffe64b" x="217.551736" y="137.839854" style="fill: #0000ff; stroke: #0000ff"/>
     <use xlink:href="#m0510ffe64b" x="382.077626" y="87.62281" style="fill: #0000ff; stroke: #0000ff"/>
     <use xlink:href="#m0510ffe64b" x="162.455485" y="90.653934" style="fill: #0000ff; stroke: #0000ff"/>
     <use xlink:href="#m0510ffe64b" x="160.370329" y="92.33342" style="fill: #0000ff; stroke: #0000ff"/>
     <use xlink:href="#m0510ffe64b" x="104.035804" y="63.90771" style="fill: #0000ff; stroke: #0000ff"/>
    </g>
   </g>
   <g id="line2d_27">
    <path d="M 57.6 101.688008 
L 60.817297 98.88602 
L 64.392072 95.456976 
L 68.681802 91.020983 
L 82.265946 76.714917 
L 85.840721 73.405651 
L 89.058018 70.733749 
L 91.917838 68.637213 
L 94.777658 66.822448 
L 97.28 65.473465 
L 99.782342 64.349152 
L 102.284685 63.446965 
L 104.787027 62.761219 
L 107.289369 62.283977 
L 110.149189 61.981915 
L 113.009009 61.925382 
L 115.868829 62.100205 
L 118.728649 62.493744 
L 121.588468 63.095589 
L 124.805766 64.01196 
L 128.023063 65.174646 
L 131.24036 66.579571 
L 134.457658 68.224961 
L 137.674955 70.110021 
L 140.892252 72.233558 
L 144.467027 74.869121 
L 148.041802 77.787349 
L 151.974054 81.3073 
L 155.906306 85.125239 
L 160.553514 89.97028 
L 165.915676 95.910641 
L 173.78018 105.004323 
L 183.074595 115.684528 
L 188.079279 121.110502 
L 192.369009 125.451811 
L 196.301261 129.115988 
L 199.876036 132.144739 
L 203.093333 134.599412 
L 206.310631 136.778971 
L 209.527928 138.669062 
L 212.387748 140.096481 
L 215.247568 141.2786 
L 218.107387 142.208899 
L 220.967207 142.88111 
L 223.46955 143.252605 
L 225.971892 143.41725 
L 228.474234 143.370465 
L 230.976577 143.107553 
L 233.478919 142.623856 
L 235.981261 141.914978 
L 238.483604 140.977103 
L 240.985946 139.80736 
L 243.488288 138.404238 
L 245.990631 136.768023 
L 248.85045 134.615971 
L 251.71027 132.170787 
L 254.57009 129.445522 
L 257.787387 126.068192 
L 261.362162 121.970763 
L 265.294414 117.115999 
L 270.299099 110.564868 
L 283.883243 92.542487 
L 287.815495 87.782277 
L 291.39027 83.802343 
L 294.607568 80.556127 
L 297.467387 77.965609 
L 300.327207 75.66848 
L 303.187027 73.671628 
L 306.046847 71.973952 
L 308.906667 70.566661 
L 311.766486 69.433886 
L 314.626306 68.553608 
L 317.486126 67.898875 
L 320.703423 67.393952 
L 324.278198 67.066827 
L 328.567928 66.915464 
L 333.93009 66.965005 
L 341.07964 67.269589 
L 346.799279 67.707455 
L 351.089009 68.239072 
L 354.663784 68.899065 
L 357.881081 69.726751 
L 360.740901 70.695081 
L 363.600721 71.920384 
L 366.103063 73.227597 
L 368.605405 74.770233 
L 371.107748 76.556864 
L 373.967568 78.898316 
L 376.827387 81.547271 
L 380.044685 84.860515 
L 383.619459 88.882749 
L 388.624144 94.900003 
L 396.488649 104.383536 
L 400.063423 108.329329 
L 402.923243 111.187559 
L 405.783063 113.719069 
L 408.285405 115.632748 
L 410.787748 117.245595 
L 412.932613 118.381701 
L 414.72 119.15446 
L 414.72 119.15446 
" clip-path="url(#p1b704f5116)" style="fill: none; stroke: #ff0000; stroke-width: 1.5; stroke-linecap: round"/>
   </g>
   <g id="patch_3">
    <path d="M 57.6 162.432 
L 57.6 41.472 
" style="fill: none; stroke: #cccccc; stroke-linejoin: miter; stroke-linecap: square"/>
   </g>
   <g id="patch_4">
    <path d="M 414.72 162.432 
L 414.72 41.472 
" style="fill: none; stroke: #cccccc; stroke-linejoin: miter; stroke-linecap: square"/>
   </g>
   <g id="patch_5">
    <path d="M 57.6 162.432 
L 414.72 162.432 
" style="fill: none; stroke: #cccccc; stroke-linejoin: miter; stroke-linecap: square"/>
   </g>
   <g id="patch_6">
    <path d="M 57.6 41.472 
L 414.72 41.472 
" style="fill: none; stroke: #cccccc; stroke-linejoin: miter; stroke-linecap: square"/>
   </g>
   <g id="text_10">
    <!-- Ridge Regression ($L_2$ Regularization) -->
    <g style="fill: #262626" transform="translate(136.56 35.472) scale(0.12 -0.12)">
     <defs>
      <path id="LiberationSans-52" d="M 3638 0 
L 2494 1828 
L 1122 1828 
L 1122 0 
L 525 0 
L 525 4403 
L 2597 4403 
Q 3341 4403 3745 4070 
Q 4150 3738 4150 3144 
Q 4150 2653 3864 2318 
Q 3578 1984 3075 1897 
L 4325 0 
L 3638 0 
z
M 3550 3138 
Q 3550 3522 3289 3723 
Q 3028 3925 2538 3925 
L 1122 3925 
L 1122 2300 
L 2563 2300 
Q 3034 2300 3292 2520 
Q 3550 2741 3550 3138 
z
" transform="scale(0.015625)"/>
      <path id="LiberationSans-69" d="M 428 4100 
L 428 4638 
L 991 4638 
L 991 4100 
L 428 4100 
z
M 428 0 
L 428 3381 
L 991 3381 
L 991 0 
L 428 0 
z
" transform="scale(0.015625)"/>
      <path id="LiberationSans-64" d="M 2566 544 
Q 2409 219 2151 78 
Q 1894 -63 1513 -63 
Q 872 -63 570 368 
Q 269 800 269 1675 
Q 269 3444 1513 3444 
Q 1897 3444 2153 3303 
Q 2409 3163 2566 2856 
L 2572 2856 
L 2566 3234 
L 2566 4638 
L 3128 4638 
L 3128 697 
Q 3128 169 3147 0 
L 2609 0 
Q 2600 50 2589 231 
Q 2578 413 2578 544 
L 2566 544 
z
M 859 1694 
Q 859 984 1046 678 
Q 1234 372 1656 372 
Q 2134 372 2350 703 
Q 2566 1034 2566 1731 
Q 2566 2403 2350 2715 
Q 2134 3028 1663 3028 
Q 1238 3028 1048 2714 
Q 859 2400 859 1694 
z
" transform="scale(0.015625)"/>
      <path id="LiberationSans-67" d="M 1713 -1328 
Q 1159 -1328 831 -1111 
Q 503 -894 409 -494 
L 975 -413 
Q 1031 -647 1223 -773 
Q 1416 -900 1728 -900 
Q 2569 -900 2569 84 
L 2569 628 
L 2563 628 
Q 2403 303 2125 139 
Q 1847 -25 1475 -25 
Q 853 -25 561 387 
Q 269 800 269 1684 
Q 269 2581 583 3007 
Q 897 3434 1538 3434 
Q 1897 3434 2161 3270 
Q 2425 3106 2569 2803 
L 2575 2803 
Q 2575 2897 2587 3128 
Q 2600 3359 2613 3381 
L 3147 3381 
Q 3128 3213 3128 2681 
L 3128 97 
Q 3128 -1328 1713 -1328 
z
M 2569 1691 
Q 2569 2103 2456 2401 
Q 2344 2700 2139 2858 
Q 1934 3016 1675 3016 
Q 1244 3016 1047 2703 
Q 850 2391 850 1691 
Q 850 997 1034 694 
Q 1219 391 1666 391 
Q 1931 391 2137 547 
Q 2344 703 2456 995 
Q 2569 1288 2569 1691 
z
" transform="scale(0.015625)"/>
      <path id="LiberationSans-65" d="M 863 1572 
Q 863 991 1103 675 
Q 1344 359 1806 359 
Q 2172 359 2392 506 
Q 2613 653 2691 878 
L 3184 738 
Q 2881 -63 1806 -63 
Q 1056 -63 664 384 
Q 272 831 272 1713 
Q 272 2550 664 2997 
Q 1056 3444 1784 3444 
Q 3275 3444 3275 1647 
L 3275 1572 
L 863 1572 
z
M 2694 2003 
Q 2647 2538 2422 2783 
Q 2197 3028 1775 3028 
Q 1366 3028 1127 2754 
Q 888 2481 869 2003 
L 2694 2003 
z
" transform="scale(0.015625)"/>
      <path id="LiberationSans-20" transform="scale(0.015625)"/>
      <path id="LiberationSans-72" d="M 444 0 
L 444 2594 
Q 444 2950 425 3381 
L 956 3381 
Q 981 2806 981 2691 
L 994 2691 
Q 1128 3125 1303 3284 
Q 1478 3444 1797 3444 
Q 1909 3444 2025 3413 
L 2025 2897 
Q 1913 2928 1725 2928 
Q 1375 2928 1190 2626 
Q 1006 2325 1006 1763 
L 1006 0 
L 444 0 
z
" transform="scale(0.015625)"/>
      <path id="LiberationSans-73" d="M 2969 934 
Q 2969 456 2608 196 
Q 2247 -63 1597 -63 
Q 966 -63 623 145 
Q 281 353 178 794 
L 675 891 
Q 747 619 972 492 
Q 1197 366 1597 366 
Q 2025 366 2223 497 
Q 2422 628 2422 891 
Q 2422 1091 2284 1216 
Q 2147 1341 1841 1422 
L 1438 1528 
Q 953 1653 748 1773 
Q 544 1894 428 2066 
Q 313 2238 313 2488 
Q 313 2950 642 3192 
Q 972 3434 1603 3434 
Q 2163 3434 2492 3237 
Q 2822 3041 2909 2606 
L 2403 2544 
Q 2356 2769 2151 2889 
Q 1947 3009 1603 3009 
Q 1222 3009 1040 2893 
Q 859 2778 859 2544 
Q 859 2400 934 2306 
Q 1009 2213 1156 2147 
Q 1303 2081 1775 1966 
Q 2222 1853 2419 1758 
Q 2616 1663 2730 1547 
Q 2844 1431 2906 1279 
Q 2969 1128 2969 934 
z
" transform="scale(0.015625)"/>
      <path id="LiberationSans-6f" d="M 3291 1694 
Q 3291 806 2900 371 
Q 2509 -63 1766 -63 
Q 1025 -63 647 389 
Q 269 841 269 1694 
Q 269 3444 1784 3444 
Q 2559 3444 2925 3017 
Q 3291 2591 3291 1694 
z
M 2700 1694 
Q 2700 2394 2492 2711 
Q 2284 3028 1794 3028 
Q 1300 3028 1079 2704 
Q 859 2381 859 1694 
Q 859 1025 1076 689 
Q 1294 353 1759 353 
Q 2266 353 2483 678 
Q 2700 1003 2700 1694 
z
" transform="scale(0.015625)"/>
      <path id="LiberationSans-6e" d="M 2578 0 
L 2578 2144 
Q 2578 2478 2512 2662 
Q 2447 2847 2303 2928 
Q 2159 3009 1881 3009 
Q 1475 3009 1240 2731 
Q 1006 2453 1006 1959 
L 1006 0 
L 444 0 
L 444 2659 
Q 444 3250 425 3381 
L 956 3381 
Q 959 3366 962 3297 
Q 966 3228 970 3139 
Q 975 3050 981 2803 
L 991 2803 
Q 1184 3153 1439 3298 
Q 1694 3444 2072 3444 
Q 2628 3444 2886 3167 
Q 3144 2891 3144 2253 
L 3144 0 
L 2578 0 
z
" transform="scale(0.015625)"/>
      <path id="LiberationSans-28" d="M 397 1663 
Q 397 2566 680 3284 
Q 963 4003 1550 4638 
L 2094 4638 
Q 1509 3988 1236 3256 
Q 963 2525 963 1656 
Q 963 791 1233 62 
Q 1503 -666 2094 -1325 
L 1550 -1325 
Q 959 -688 678 32 
Q 397 753 397 1650 
L 397 1663 
z
" transform="scale(0.015625)"/>
      <path id="DejaVuSans-Oblique-4c" d="M 1075 4666 
L 1709 4666 
L 909 525 
L 3181 525 
L 3078 0 
L 172 0 
L 1075 4666 
z
" transform="scale(0.015625)"/>
      <path id="DejaVuSans-32" d="M 1228 531 
L 3431 531 
L 3431 0 
L 469 0 
L 469 531 
Q 828 903 1448 1529 
Q 2069 2156 2228 2338 
Q 2531 2678 2651 2914 
Q 2772 3150 2772 3378 
Q 2772 3750 2511 3984 
Q 2250 4219 1831 4219 
Q 1534 4219 1204 4116 
Q 875 4013 500 3803 
L 500 4441 
Q 881 4594 1212 4672 
Q 1544 4750 1819 4750 
Q 2544 4750 2975 4387 
Q 3406 4025 3406 3419 
Q 3406 3131 3298 2873 
Q 3191 2616 2906 2266 
Q 2828 2175 2409 1742 
Q 1991 1309 1228 531 
z
" transform="scale(0.015625)"/>
      <path id="LiberationSans-75" d="M 981 3381 
L 981 1238 
Q 981 903 1047 718 
Q 1113 534 1256 453 
Q 1400 372 1678 372 
Q 2084 372 2318 650 
Q 2553 928 2553 1422 
L 2553 3381 
L 3116 3381 
L 3116 722 
Q 3116 131 3134 0 
L 2603 0 
Q 2600 16 2597 84 
Q 2594 153 2589 242 
Q 2584 331 2578 578 
L 2569 578 
Q 2375 228 2120 82 
Q 1866 -63 1488 -63 
Q 931 -63 673 214 
Q 416 491 416 1128 
L 416 3381 
L 981 3381 
z
" transform="scale(0.015625)"/>
      <path id="LiberationSans-6c" d="M 431 0 
L 431 4638 
L 994 4638 
L 994 0 
L 431 0 
z
" transform="scale(0.015625)"/>
      <path id="LiberationSans-61" d="M 1294 -63 
Q 784 -63 528 206 
Q 272 475 272 944 
Q 272 1469 617 1750 
Q 963 2031 1731 2050 
L 2491 2063 
L 2491 2247 
Q 2491 2659 2316 2837 
Q 2141 3016 1766 3016 
Q 1388 3016 1216 2887 
Q 1044 2759 1009 2478 
L 422 2531 
Q 566 3444 1778 3444 
Q 2416 3444 2737 3151 
Q 3059 2859 3059 2306 
L 3059 850 
Q 3059 600 3125 473 
Q 3191 347 3375 347 
Q 3456 347 3559 369 
L 3559 19 
Q 3347 -31 3125 -31 
Q 2813 -31 2670 133 
Q 2528 297 2509 647 
L 2491 647 
Q 2275 259 1989 98 
Q 1703 -63 1294 -63 
z
M 1422 359 
Q 1731 359 1972 500 
Q 2213 641 2352 886 
Q 2491 1131 2491 1391 
L 2491 1669 
L 1875 1656 
Q 1478 1650 1273 1575 
Q 1069 1500 959 1344 
Q 850 1188 850 934 
Q 850 659 998 509 
Q 1147 359 1422 359 
z
" transform="scale(0.015625)"/>
      <path id="LiberationSans-7a" d="M 259 0 
L 259 428 
L 2150 2947 
L 366 2947 
L 366 3381 
L 2816 3381 
L 2816 2953 
L 922 434 
L 2881 434 
L 2881 0 
L 259 0 
z
" transform="scale(0.015625)"/>
      <path id="LiberationSans-74" d="M 1731 25 
Q 1453 -50 1163 -50 
Q 488 -50 488 716 
L 488 2972 
L 97 2972 
L 97 3381 
L 509 3381 
L 675 4138 
L 1050 4138 
L 1050 3381 
L 1675 3381 
L 1675 2972 
L 1050 2972 
L 1050 838 
Q 1050 594 1129 495 
Q 1209 397 1406 397 
Q 1519 397 1731 441 
L 1731 25 
z
" transform="scale(0.015625)"/>
      <path id="LiberationSans-29" d="M 1734 1650 
Q 1734 747 1451 28 
Q 1169 -691 581 -1325 
L 38 -1325 
Q 625 -669 897 57 
Q 1169 784 1169 1656 
Q 1169 2528 895 3256 
Q 622 3984 38 4638 
L 581 4638 
Q 1172 4000 1453 3279 
Q 1734 2559 1734 1663 
L 1734 1650 
z
" transform="scale(0.015625)"/>
     </defs>
     <use xlink:href="#LiberationSans-52" transform="translate(0 0.09375)"/>
     <use xlink:href="#LiberationSans-69" transform="translate(72.216797 0.09375)"/>
     <use xlink:href="#LiberationSans-64" transform="translate(94.433594 0.09375)"/>
     <use xlink:href="#LiberationSans-67" transform="translate(150.048828 0.09375)"/>
     <use xlink:href="#LiberationSans-65" transform="translate(205.664062 0.09375)"/>
     <use xlink:href="#LiberationSans-20" transform="translate(261.279297 0.09375)"/>
     <use xlink:href="#LiberationSans-52" transform="translate(289.0625 0.09375)"/>
     <use xlink:href="#LiberationSans-65" transform="translate(361.279297 0.09375)"/>
     <use xlink:href="#LiberationSans-67" transform="translate(416.894531 0.09375)"/>
     <use xlink:href="#LiberationSans-72" transform="translate(472.509766 0.09375)"/>
     <use xlink:href="#LiberationSans-65" transform="translate(505.810547 0.09375)"/>
     <use xlink:href="#LiberationSans-73" transform="translate(561.425781 0.09375)"/>
     <use xlink:href="#LiberationSans-73" transform="translate(611.425781 0.09375)"/>
     <use xlink:href="#LiberationSans-69" transform="translate(661.425781 0.09375)"/>
     <use xlink:href="#LiberationSans-6f" transform="translate(683.642578 0.09375)"/>
     <use xlink:href="#LiberationSans-6e" transform="translate(739.257812 0.09375)"/>
     <use xlink:href="#LiberationSans-20" transform="translate(794.873047 0.09375)"/>
     <use xlink:href="#LiberationSans-28" transform="translate(822.65625 0.09375)"/>
     <use xlink:href="#DejaVuSans-Oblique-4c" transform="translate(855.957031 0.09375)"/>
     <use xlink:href="#DejaVuSans-32" transform="translate(911.669922 -16.3125) scale(0.7)"/>
     <use xlink:href="#LiberationSans-20" transform="translate(958.94043 0.09375)"/>
     <use xlink:href="#LiberationSans-52" transform="translate(986.723633 0.09375)"/>
     <use xlink:href="#LiberationSans-65" transform="translate(1058.94043 0.09375)"/>
     <use xlink:href="#LiberationSans-67" transform="translate(1114.555664 0.09375)"/>
     <use xlink:href="#LiberationSans-75" transform="translate(1170.170898 0.09375)"/>
     <use xlink:href="#LiberationSans-6c" transform="translate(1225.786133 0.09375)"/>
     <use xlink:href="#LiberationSans-61" transform="translate(1248.00293 0.09375)"/>
     <use xlink:href="#LiberationSans-72" transform="translate(1303.618164 0.09375)"/>
     <use xlink:href="#LiberationSans-69" transform="translate(1336.918945 0.09375)"/>
     <use xlink:href="#LiberationSans-7a" transform="translate(1359.135742 0.09375)"/>
     <use xlink:href="#LiberationSans-61" transform="translate(1409.135742 0.09375)"/>
     <use xlink:href="#LiberationSans-74" transform="translate(1464.750977 0.09375)"/>
     <use xlink:href="#LiberationSans-69" transform="translate(1492.53418 0.09375)"/>
     <use xlink:href="#LiberationSans-6f" transform="translate(1514.750977 0.09375)"/>
     <use xlink:href="#LiberationSans-6e" transform="translate(1570.366211 0.09375)"/>
     <use xlink:href="#LiberationSans-29" transform="translate(1625.981445 0.09375)"/>
    </g>
   </g>
  </g>
  <g id="axes_2">
   <g id="patch_7">
    <path d="M 57.6 307.584 
L 414.72 307.584 
L 414.72 186.624 
L 57.6 186.624 
z
" style="fill: #ffffff"/>
   </g>
   <g id="matplotlib.axis_3">
    <g id="xtick_7">
     <g id="line2d_28">
      <path d="M 57.6 307.584 
L 57.6 186.624 
" clip-path="url(#p8fa585d67c)" style="fill: none; stroke: #cccccc; stroke-width: 0.8; stroke-linecap: round"/>
     </g>
     <g id="line2d_29"/>
     <g id="text_11">
      <!-- 0 -->
      <g style="fill: #262626" transform="translate(54.819531 318.330875) scale(0.1 -0.1)">
       <use xlink:href="#LiberationSans-30"/>
      </g>
     </g>
    </g>
    <g id="xtick_8">
     <g id="line2d_30">
      <path d="M 129.024 307.584 
L 129.024 186.624 
" clip-path="url(#p8fa585d67c)" style="fill: none; stroke: #cccccc; stroke-width: 0.8; stroke-linecap: round"/>
     </g>
     <g id="line2d_31"/>
     <g id="text_12">
      <!-- 2 -->
      <g style="fill: #262626" transform="translate(126.243531 318.330875) scale(0.1 -0.1)">
       <defs>
        <path id="LiberationSans-32" d="M 322 0 
L 322 397 
Q 481 763 711 1042 
Q 941 1322 1194 1548 
Q 1447 1775 1695 1969 
Q 1944 2163 2144 2356 
Q 2344 2550 2467 2762 
Q 2591 2975 2591 3244 
Q 2591 3606 2378 3806 
Q 2166 4006 1788 4006 
Q 1428 4006 1195 3811 
Q 963 3616 922 3263 
L 347 3316 
Q 409 3844 795 4156 
Q 1181 4469 1788 4469 
Q 2453 4469 2811 4155 
Q 3169 3841 3169 3263 
Q 3169 3006 3051 2753 
Q 2934 2500 2703 2247 
Q 2472 1994 1819 1463 
Q 1459 1169 1246 933 
Q 1034 697 941 478 
L 3238 478 
L 3238 0 
L 322 0 
z
" transform="scale(0.015625)"/>
       </defs>
       <use xlink:href="#LiberationSans-32"/>
      </g>
     </g>
    </g>
    <g id="xtick_9">
     <g id="line2d_32">
      <path d="M 200.448 307.584 
L 200.448 186.624 
" clip-path="url(#p8fa585d67c)" style="fill: none; stroke: #cccccc; stroke-width: 0.8; stroke-linecap: round"/>
     </g>
     <g id="line2d_33"/>
     <g id="text_13">
      <!-- 4 -->
      <g style="fill: #262626" transform="translate(197.667531 318.330875) scale(0.1 -0.1)">
       <defs>
        <path id="LiberationSans-34" d="M 2753 997 
L 2753 0 
L 2222 0 
L 2222 997 
L 147 997 
L 147 1434 
L 2163 4403 
L 2753 4403 
L 2753 1441 
L 3372 1441 
L 3372 997 
L 2753 997 
z
M 2222 3769 
Q 2216 3750 2134 3603 
Q 2053 3456 2013 3397 
L 884 1734 
L 716 1503 
L 666 1441 
L 2222 1441 
L 2222 3769 
z
" transform="scale(0.015625)"/>
       </defs>
       <use xlink:href="#LiberationSans-34"/>
      </g>
     </g>
    </g>
    <g id="xtick_10">
     <g id="line2d_34">
      <path d="M 271.872 307.584 
L 271.872 186.624 
" clip-path="url(#p8fa585d67c)" style="fill: none; stroke: #cccccc; stroke-width: 0.8; stroke-linecap: round"/>
     </g>
     <g id="line2d_35"/>
     <g id="text_14">
      <!-- 6 -->
      <g style="fill: #262626" transform="translate(269.091531 318.330875) scale(0.1 -0.1)">
       <defs>
        <path id="LiberationSans-36" d="M 3278 1441 
Q 3278 744 2900 340 
Q 2522 -63 1856 -63 
Q 1113 -63 719 490 
Q 325 1044 325 2100 
Q 325 3244 734 3856 
Q 1144 4469 1900 4469 
Q 2897 4469 3156 3572 
L 2619 3475 
Q 2453 4013 1894 4013 
Q 1413 4013 1148 3564 
Q 884 3116 884 2266 
Q 1038 2550 1316 2698 
Q 1594 2847 1953 2847 
Q 2563 2847 2920 2465 
Q 3278 2084 3278 1441 
z
M 2706 1416 
Q 2706 1894 2472 2153 
Q 2238 2413 1819 2413 
Q 1425 2413 1183 2183 
Q 941 1953 941 1550 
Q 941 1041 1192 716 
Q 1444 391 1838 391 
Q 2244 391 2475 664 
Q 2706 938 2706 1416 
z
" transform="scale(0.015625)"/>
       </defs>
       <use xlink:href="#LiberationSans-36"/>
      </g>
     </g>
    </g>
    <g id="xtick_11">
     <g id="line2d_36">
      <path d="M 343.296 307.584 
L 343.296 186.624 
" clip-path="url(#p8fa585d67c)" style="fill: none; stroke: #cccccc; stroke-width: 0.8; stroke-linecap: round"/>
     </g>
     <g id="line2d_37"/>
     <g id="text_15">
      <!-- 8 -->
      <g style="fill: #262626" transform="translate(340.515531 318.330875) scale(0.1 -0.1)">
       <defs>
        <path id="LiberationSans-38" d="M 3281 1228 
Q 3281 619 2893 278 
Q 2506 -63 1781 -63 
Q 1075 -63 676 271 
Q 278 606 278 1222 
Q 278 1653 525 1947 
Q 772 2241 1156 2303 
L 1156 2316 
Q 797 2400 589 2681 
Q 381 2963 381 3341 
Q 381 3844 757 4156 
Q 1134 4469 1769 4469 
Q 2419 4469 2795 4162 
Q 3172 3856 3172 3334 
Q 3172 2956 2962 2675 
Q 2753 2394 2391 2322 
L 2391 2309 
Q 2813 2241 3047 1952 
Q 3281 1663 3281 1228 
z
M 2588 3303 
Q 2588 4050 1769 4050 
Q 1372 4050 1164 3862 
Q 956 3675 956 3303 
Q 956 2925 1170 2726 
Q 1384 2528 1775 2528 
Q 2172 2528 2380 2711 
Q 2588 2894 2588 3303 
z
M 2697 1281 
Q 2697 1691 2453 1898 
Q 2209 2106 1769 2106 
Q 1341 2106 1100 1882 
Q 859 1659 859 1269 
Q 859 359 1788 359 
Q 2247 359 2472 579 
Q 2697 800 2697 1281 
z
" transform="scale(0.015625)"/>
       </defs>
       <use xlink:href="#LiberationSans-38"/>
      </g>
     </g>
    </g>
    <g id="xtick_12">
     <g id="line2d_38">
      <path d="M 414.72 307.584 
L 414.72 186.624 
" clip-path="url(#p8fa585d67c)" style="fill: none; stroke: #cccccc; stroke-width: 0.8; stroke-linecap: round"/>
     </g>
     <g id="line2d_39"/>
     <g id="text_16">
      <!-- 10 -->
      <g style="fill: #262626" transform="translate(409.159063 318.330875) scale(0.1 -0.1)">
       <use xlink:href="#LiberationSans-31"/>
       <use xlink:href="#LiberationSans-30" x="55.615234"/>
      </g>
     </g>
    </g>
    <g id="text_17">
     <!-- basis location -->
     <g style="fill: #262626" transform="translate(205.86625 331.65275) scale(0.1 -0.1)">
      <defs>
       <path id="LiberationSans-62" d="M 3291 1706 
Q 3291 -63 2047 -63 
Q 1663 -63 1408 76 
Q 1153 216 994 525 
L 988 525 
Q 988 428 975 229 
Q 963 31 956 0 
L 413 0 
Q 431 169 431 697 
L 431 4638 
L 994 4638 
L 994 3316 
Q 994 3113 981 2838 
L 994 2838 
Q 1150 3163 1408 3303 
Q 1666 3444 2047 3444 
Q 2688 3444 2989 3012 
Q 3291 2581 3291 1706 
z
M 2700 1688 
Q 2700 2397 2512 2703 
Q 2325 3009 1903 3009 
Q 1428 3009 1211 2684 
Q 994 2359 994 1653 
Q 994 988 1206 670 
Q 1419 353 1897 353 
Q 2322 353 2511 667 
Q 2700 981 2700 1688 
z
" transform="scale(0.015625)"/>
       <path id="LiberationSans-63" d="M 859 1706 
Q 859 1031 1071 706 
Q 1284 381 1713 381 
Q 2013 381 2214 543 
Q 2416 706 2463 1044 
L 3031 1006 
Q 2966 519 2616 228 
Q 2266 -63 1728 -63 
Q 1019 -63 645 385 
Q 272 834 272 1694 
Q 272 2547 647 2995 
Q 1022 3444 1722 3444 
Q 2241 3444 2583 3175 
Q 2925 2906 3013 2434 
L 2434 2391 
Q 2391 2672 2212 2837 
Q 2034 3003 1706 3003 
Q 1259 3003 1059 2706 
Q 859 2409 859 1706 
z
" transform="scale(0.015625)"/>
      </defs>
      <use xlink:href="#LiberationSans-62"/>
      <use xlink:href="#LiberationSans-61" x="55.615234"/>
      <use xlink:href="#LiberationSans-73" x="111.230469"/>
      <use xlink:href="#LiberationSans-69" x="161.230469"/>
      <use xlink:href="#LiberationSans-73" x="183.447266"/>
      <use xlink:href="#LiberationSans-20" x="233.447266"/>
      <use xlink:href="#LiberationSans-6c" x="261.230469"/>
      <use xlink:href="#LiberationSans-6f" x="283.447266"/>
      <use xlink:href="#LiberationSans-63" x="339.0625"/>
      <use xlink:href="#LiberationSans-61" x="389.0625"/>
      <use xlink:href="#LiberationSans-74" x="444.677734"/>
      <use xlink:href="#LiberationSans-69" x="472.460938"/>
      <use xlink:href="#LiberationSans-6f" x="494.677734"/>
      <use xlink:href="#LiberationSans-6e" x="550.292969"/>
     </g>
    </g>
   </g>
   <g id="matplotlib.axis_4">
    <g id="ytick_8">
     <g id="line2d_40">
      <path d="M 57.6 307.455122 
L 414.72 307.455122 
" clip-path="url(#p8fa585d67c)" style="fill: none; stroke: #cccccc; stroke-width: 0.8; stroke-linecap: round"/>
     </g>
     <g id="line2d_41"/>
     <g id="text_18">
      <!-- −0.4 -->
      <g style="fill: #262626" transform="translate(34.359375 311.07856) scale(0.1 -0.1)">
       <use xlink:href="#LiberationSans-2212"/>
       <use xlink:href="#LiberationSans-30" x="58.398438"/>
       <use xlink:href="#LiberationSans-2e" x="114.013672"/>
       <use xlink:href="#LiberationSans-34" x="141.796875"/>
      </g>
     </g>
    </g>
    <g id="ytick_9">
     <g id="line2d_42">
      <path d="M 57.6 276.340524 
L 414.72 276.340524 
" clip-path="url(#p8fa585d67c)" style="fill: none; stroke: #cccccc; stroke-width: 0.8; stroke-linecap: round"/>
     </g>
     <g id="line2d_43"/>
     <g id="text_19">
      <!-- −0.2 -->
      <g style="fill: #262626" transform="translate(34.359375 279.963962) scale(0.1 -0.1)">
       <use xlink:href="#LiberationSans-2212"/>
       <use xlink:href="#LiberationSans-30" x="58.398438"/>
       <use xlink:href="#LiberationSans-2e" x="114.013672"/>
       <use xlink:href="#LiberationSans-32" x="141.796875"/>
      </g>
     </g>
    </g>
    <g id="ytick_10">
     <g id="line2d_44">
      <path d="M 57.6 245.225926 
L 414.72 245.225926 
" clip-path="url(#p8fa585d67c)" style="fill: none; stroke: #cccccc; stroke-width: 0.8; stroke-linecap: round"/>
     </g>
     <g id="line2d_45"/>
     <g id="text_20">
      <!-- 0.0 -->
      <g style="fill: #262626" transform="translate(40.2 248.849364) scale(0.1 -0.1)">
       <use xlink:href="#LiberationSans-30"/>
       <use xlink:href="#LiberationSans-2e" x="55.615234"/>
       <use xlink:href="#LiberationSans-30" x="83.398438"/>
      </g>
     </g>
    </g>
    <g id="ytick_11">
     <g id="line2d_46">
      <path d="M 57.6 214.111328 
L 414.72 214.111328 
" clip-path="url(#p8fa585d67c)" style="fill: none; stroke: #cccccc; stroke-width: 0.8; stroke-linecap: round"/>
     </g>
     <g id="line2d_47"/>
     <g id="text_21">
      <!-- 0.2 -->
      <g style="fill: #262626" transform="translate(40.2 217.734765) scale(0.1 -0.1)">
       <use xlink:href="#LiberationSans-30"/>
       <use xlink:href="#LiberationSans-2e" x="55.615234"/>
       <use xlink:href="#LiberationSans-32" x="83.398438"/>
      </g>
     </g>
    </g>
    <g id="text_22">
     <!-- coefficient -->
     <g style="fill: #262626" transform="translate(28.284375 269.527437) rotate(-90) scale(0.1 -0.1)">
      <defs>
       <path id="LiberationSans-66" d="M 1128 2972 
L 1128 0 
L 566 0 
L 566 2972 
L 91 2972 
L 91 3381 
L 566 3381 
L 566 3763 
Q 566 4225 769 4428 
Q 972 4631 1391 4631 
Q 1625 4631 1788 4594 
L 1788 4166 
Q 1647 4191 1538 4191 
Q 1322 4191 1225 4081 
Q 1128 3972 1128 3684 
L 1128 3381 
L 1788 3381 
L 1788 2972 
L 1128 2972 
z
" transform="scale(0.015625)"/>
      </defs>
      <use xlink:href="#LiberationSans-63"/>
      <use xlink:href="#LiberationSans-6f" x="50"/>
      <use xlink:href="#LiberationSans-65" x="105.615234"/>
      <use xlink:href="#LiberationSans-66" x="161.230469"/>
      <use xlink:href="#LiberationSans-66" x="187.263672"/>
      <use xlink:href="#LiberationSans-69" x="215.046875"/>
      <use xlink:href="#LiberationSans-63" x="237.263672"/>
      <use xlink:href="#LiberationSans-69" x="287.263672"/>
      <use xlink:href="#LiberationSans-65" x="309.480469"/>
      <use xlink:href="#LiberationSans-6e" x="365.095703"/>
      <use xlink:href="#LiberationSans-74" x="420.710938"/>
     </g>
    </g>
   </g>
   <g id="line2d_48">
    <path d="M 57.640846 278.060841 
L 69.81675 228.32645 
L 81.992654 195.715525 
L 94.168559 195.946374 
L 106.344463 207.606619 
L 118.520367 207.883709 
L 130.696272 202.894309 
L 142.872176 207.969579 
L 155.04808 220.839107 
L 167.223985 232.632534 
L 179.399889 245.70488 
L 191.575794 262.547527 
L 203.751698 274.10068 
L 215.927602 274.925285 
L 228.103507 273.98019 
L 240.279411 277.363622 
L 252.455315 275.778072 
L 264.63122 259.829782 
L 276.807124 235.317399 
L 288.983028 214.960009 
L 301.158933 203.956893 
L 313.334837 201.577498 
L 325.510742 208.521371 
L 337.686646 220.085356 
L 349.86255 220.717255 
L 362.038455 204.197056 
L 374.214359 192.122182 
L 386.390263 211.712545 
L 398.566168 259.241266 
L 410.742072 302.085818 
" clip-path="url(#p8fa585d67c)" style="fill: none; stroke: #1f77b4; stroke-width: 1.5; stroke-linecap: round"/>
   </g>
   <g id="patch_8">
    <path d="M 57.6 307.584 
L 57.6 186.624 
" style="fill: none; stroke: #cccccc; stroke-linejoin: miter; stroke-linecap: square"/>
   </g>
   <g id="patch_9">
    <path d="M 414.72 307.584 
L 414.72 186.624 
" style="fill: none; stroke: #cccccc; stroke-linejoin: miter; stroke-linecap: square"/>
   </g>
   <g id="patch_10">
    <path d="M 57.6 307.584 
L 414.72 307.584 
" style="fill: none; stroke: #cccccc; stroke-linejoin: miter; stroke-linecap: square"/>
   </g>
   <g id="patch_11">
    <path d="M 57.6 186.624 
L 414.72 186.624 
" style="fill: none; stroke: #cccccc; stroke-linejoin: miter; stroke-linecap: square"/>
   </g>
  </g>
 </g>
 <defs>
  <clipPath id="p1b704f5116">
   <rect x="57.6" y="41.472" width="357.12" height="120.96"/>
  </clipPath>
  <clipPath id="p8fa585d67c">
   <rect x="57.6" y="186.624" width="357.12" height="120.96"/>
  </clipPath>
 </defs>
</svg>
