<?xml version="1.0" encoding="utf-8" standalone="no"?>
<!DOCTYPE svg PUBLIC "-//W3C//DTD SVG 1.1//EN"
  "http://www.w3.org/Graphics/SVG/1.1/DTD/svg11.dtd">
<svg xmlns:xlink="http://www.w3.org/1999/xlink" width="460.8pt" height="345.6pt" viewBox="0 0 460.8 345.6" xmlns="http://www.w3.org/2000/svg" version="1.1">
 <metadata>
  <rdf:RDF xmlns:dc="http://purl.org/dc/elements/1.1/" xmlns:cc="http://creativecommons.org/ns#" xmlns:rdf="http://www.w3.org/1999/02/22-rdf-syntax-ns#">
   <cc:Work>
    <dc:type rdf:resource="http://purl.org/dc/dcmitype/StillImage"/>
    <dc:date>2023-08-23T08:34:04.830883</dc:date>
    <dc:format>image/svg+xml</dc:format>
    <dc:creator>
     <cc:Agent>
      <dc:title>Matplotlib v3.7.1, https://matplotlib.org/</dc:title>
     </cc:Agent>
    </dc:creator>
   </cc:Work>
  </rdf:RDF>
 </metadata>
 <defs>
  <style type="text/css">*{stroke-linejoin: round; stroke-linecap: butt}</style>
 </defs>
 <g id="figure_1">
  <g id="patch_1">
   <path d="M 0 345.6 
L 460.8 345.6 
L 460.8 0 
L 0 0 
z
" style="fill: #ffffff"/>
  </g>
  <g id="axes_1">
   <g id="patch_2">
    <path d="M 57.6 307.584 
L 414.72 307.584 
L 414.72 41.472 
L 57.6 41.472 
z
" style="fill: #ffffff"/>
   </g>
   <g id="matplotlib.axis_1">
    <g id="xtick_1">
     <g id="line2d_1">
      <path d="M 73.832727 307.584 
L 73.832727 41.472 
" clip-path="url(#paa369cc3cf)" style="fill: none; stroke: #cccccc; stroke-width: 0.8; stroke-linecap: round"/>
     </g>
     <g id="line2d_2"/>
     <g id="text_1">
      <!-- 0 -->
      <g style="fill: #262626" transform="translate(71.052259 318.330875) scale(0.1 -0.1)">
       <defs>
        <path id="LiberationSans-30" d="M 3309 2203 
Q 3309 1100 2920 518 
Q 2531 -63 1772 -63 
Q 1013 -63 631 515 
Q 250 1094 250 2203 
Q 250 3338 620 3903 
Q 991 4469 1791 4469 
Q 2569 4469 2939 3897 
Q 3309 3325 3309 2203 
z
M 2738 2203 
Q 2738 3156 2517 3584 
Q 2297 4013 1791 4013 
Q 1272 4013 1045 3591 
Q 819 3169 819 2203 
Q 819 1266 1048 831 
Q 1278 397 1778 397 
Q 2275 397 2506 840 
Q 2738 1284 2738 2203 
z
" transform="scale(0.015625)"/>
       </defs>
       <use xlink:href="#LiberationSans-30"/>
      </g>
     </g>
    </g>
    <g id="xtick_2">
     <g id="line2d_3">
      <path d="M 138.763636 307.584 
L 138.763636 41.472 
" clip-path="url(#paa369cc3cf)" style="fill: none; stroke: #cccccc; stroke-width: 0.8; stroke-linecap: round"/>
     </g>
     <g id="line2d_4"/>
     <g id="text_2">
      <!-- 2 -->
      <g style="fill: #262626" transform="translate(135.983168 318.330875) scale(0.1 -0.1)">
       <defs>
        <path id="LiberationSans-32" d="M 322 0 
L 322 397 
Q 481 763 711 1042 
Q 941 1322 1194 1548 
Q 1447 1775 1695 1969 
Q 1944 2163 2144 2356 
Q 2344 2550 2467 2762 
Q 2591 2975 2591 3244 
Q 2591 3606 2378 3806 
Q 2166 4006 1788 4006 
Q 1428 4006 1195 3811 
Q 963 3616 922 3263 
L 347 3316 
Q 409 3844 795 4156 
Q 1181 4469 1788 4469 
Q 2453 4469 2811 4155 
Q 3169 3841 3169 3263 
Q 3169 3006 3051 2753 
Q 2934 2500 2703 2247 
Q 2472 1994 1819 1463 
Q 1459 1169 1246 933 
Q 1034 697 941 478 
L 3238 478 
L 3238 0 
L 322 0 
z
" transform="scale(0.015625)"/>
       </defs>
       <use xlink:href="#LiberationSans-32"/>
      </g>
     </g>
    </g>
    <g id="xtick_3">
     <g id="line2d_5">
      <path d="M 203.694545 307.584 
L 203.694545 41.472 
" clip-path="url(#paa369cc3cf)" style="fill: none; stroke: #cccccc; stroke-width: 0.8; stroke-linecap: round"/>
     </g>
     <g id="line2d_6"/>
     <g id="text_3">
      <!-- 4 -->
      <g style="fill: #262626" transform="translate(200.914077 318.330875) scale(0.1 -0.1)">
       <defs>
        <path id="LiberationSans-34" d="M 2753 997 
L 2753 0 
L 2222 0 
L 2222 997 
L 147 997 
L 147 1434 
L 2163 4403 
L 2753 4403 
L 2753 1441 
L 3372 1441 
L 3372 997 
L 2753 997 
z
M 2222 3769 
Q 2216 3750 2134 3603 
Q 2053 3456 2013 3397 
L 884 1734 
L 716 1503 
L 666 1441 
L 2222 1441 
L 2222 3769 
z
" transform="scale(0.015625)"/>
       </defs>
       <use xlink:href="#LiberationSans-34"/>
      </g>
     </g>
    </g>
    <g id="xtick_4">
     <g id="line2d_7">
      <path d="M 268.625455 307.584 
L 268.625455 41.472 
" clip-path="url(#paa369cc3cf)" style="fill: none; stroke: #cccccc; stroke-width: 0.8; stroke-linecap: round"/>
     </g>
     <g id="line2d_8"/>
     <g id="text_4">
      <!-- 6 -->
      <g style="fill: #262626" transform="translate(265.844986 318.330875) scale(0.1 -0.1)">
       <defs>
        <path id="LiberationSans-36" d="M 3278 1441 
Q 3278 744 2900 340 
Q 2522 -63 1856 -63 
Q 1113 -63 719 490 
Q 325 1044 325 2100 
Q 325 3244 734 3856 
Q 1144 4469 1900 4469 
Q 2897 4469 3156 3572 
L 2619 3475 
Q 2453 4013 1894 4013 
Q 1413 4013 1148 3564 
Q 884 3116 884 2266 
Q 1038 2550 1316 2698 
Q 1594 2847 1953 2847 
Q 2563 2847 2920 2465 
Q 3278 2084 3278 1441 
z
M 2706 1416 
Q 2706 1894 2472 2153 
Q 2238 2413 1819 2413 
Q 1425 2413 1183 2183 
Q 941 1953 941 1550 
Q 941 1041 1192 716 
Q 1444 391 1838 391 
Q 2244 391 2475 664 
Q 2706 938 2706 1416 
z
" transform="scale(0.015625)"/>
       </defs>
       <use xlink:href="#LiberationSans-36"/>
      </g>
     </g>
    </g>
    <g id="xtick_5">
     <g id="line2d_9">
      <path d="M 333.556364 307.584 
L 333.556364 41.472 
" clip-path="url(#paa369cc3cf)" style="fill: none; stroke: #cccccc; stroke-width: 0.8; stroke-linecap: round"/>
     </g>
     <g id="line2d_10"/>
     <g id="text_5">
      <!-- 8 -->
      <g style="fill: #262626" transform="translate(330.775895 318.330875) scale(0.1 -0.1)">
       <defs>
        <path id="LiberationSans-38" d="M 3281 1228 
Q 3281 619 2893 278 
Q 2506 -63 1781 -63 
Q 1075 -63 676 271 
Q 278 606 278 1222 
Q 278 1653 525 1947 
Q 772 2241 1156 2303 
L 1156 2316 
Q 797 2400 589 2681 
Q 381 2963 381 3341 
Q 381 3844 757 4156 
Q 1134 4469 1769 4469 
Q 2419 4469 2795 4162 
Q 3172 3856 3172 3334 
Q 3172 2956 2962 2675 
Q 2753 2394 2391 2322 
L 2391 2309 
Q 2813 2241 3047 1952 
Q 3281 1663 3281 1228 
z
M 2588 3303 
Q 2588 4050 1769 4050 
Q 1372 4050 1164 3862 
Q 956 3675 956 3303 
Q 956 2925 1170 2726 
Q 1384 2528 1775 2528 
Q 2172 2528 2380 2711 
Q 2588 2894 2588 3303 
z
M 2697 1281 
Q 2697 1691 2453 1898 
Q 2209 2106 1769 2106 
Q 1341 2106 1100 1882 
Q 859 1659 859 1269 
Q 859 359 1788 359 
Q 2247 359 2472 579 
Q 2697 800 2697 1281 
z
" transform="scale(0.015625)"/>
       </defs>
       <use xlink:href="#LiberationSans-38"/>
      </g>
     </g>
    </g>
    <g id="xtick_6">
     <g id="line2d_11">
      <path d="M 398.487273 307.584 
L 398.487273 41.472 
" clip-path="url(#paa369cc3cf)" style="fill: none; stroke: #cccccc; stroke-width: 0.8; stroke-linecap: round"/>
     </g>
     <g id="line2d_12"/>
     <g id="text_6">
      <!-- 10 -->
      <g style="fill: #262626" transform="translate(392.926335 318.330875) scale(0.1 -0.1)">
       <defs>
        <path id="LiberationSans-31" d="M 488 0 
L 488 478 
L 1609 478 
L 1609 3866 
L 616 3156 
L 616 3688 
L 1656 4403 
L 2175 4403 
L 2175 478 
L 3247 478 
L 3247 0 
L 488 0 
z
" transform="scale(0.015625)"/>
       </defs>
       <use xlink:href="#LiberationSans-31"/>
       <use xlink:href="#LiberationSans-30" x="55.615234"/>
      </g>
     </g>
    </g>
   </g>
   <g id="matplotlib.axis_2">
    <g id="ytick_1">
     <g id="line2d_13">
      <path d="M 57.6 302.08042 
L 414.72 302.08042 
" clip-path="url(#paa369cc3cf)" style="fill: none; stroke: #cccccc; stroke-width: 0.8; stroke-linecap: round"/>
     </g>
     <g id="line2d_14"/>
     <g id="text_7">
      <!-- −1.0 -->
      <g style="fill: #262626" transform="translate(34.359375 305.703858) scale(0.1 -0.1)">
       <defs>
        <path id="LiberationSans-2212" d="M 316 1900 
L 316 2356 
L 3425 2356 
L 3425 1900 
L 316 1900 
z
" transform="scale(0.015625)"/>
        <path id="LiberationSans-2e" d="M 584 0 
L 584 684 
L 1194 684 
L 1194 0 
L 584 0 
z
" transform="scale(0.015625)"/>
       </defs>
       <use xlink:href="#LiberationSans-2212"/>
       <use xlink:href="#LiberationSans-31" x="58.398438"/>
       <use xlink:href="#LiberationSans-2e" x="114.013672"/>
       <use xlink:href="#LiberationSans-30" x="141.796875"/>
      </g>
     </g>
    </g>
    <g id="ytick_2">
     <g id="line2d_15">
      <path d="M 57.6 243.571285 
L 414.72 243.571285 
" clip-path="url(#paa369cc3cf)" style="fill: none; stroke: #cccccc; stroke-width: 0.8; stroke-linecap: round"/>
     </g>
     <g id="line2d_16"/>
     <g id="text_8">
      <!-- −0.5 -->
      <g style="fill: #262626" transform="translate(34.359375 247.194723) scale(0.1 -0.1)">
       <defs>
        <path id="LiberationSans-35" d="M 3291 1434 
Q 3291 738 2877 337 
Q 2463 -63 1728 -63 
Q 1113 -63 734 206 
Q 356 475 256 984 
L 825 1050 
Q 1003 397 1741 397 
Q 2194 397 2450 670 
Q 2706 944 2706 1422 
Q 2706 1838 2448 2094 
Q 2191 2350 1753 2350 
Q 1525 2350 1328 2278 
Q 1131 2206 934 2034 
L 384 2034 
L 531 4403 
L 3034 4403 
L 3034 3925 
L 1044 3925 
L 959 2528 
Q 1325 2809 1869 2809 
Q 2519 2809 2905 2428 
Q 3291 2047 3291 1434 
z
" transform="scale(0.015625)"/>
       </defs>
       <use xlink:href="#LiberationSans-2212"/>
       <use xlink:href="#LiberationSans-30" x="58.398438"/>
       <use xlink:href="#LiberationSans-2e" x="114.013672"/>
       <use xlink:href="#LiberationSans-35" x="141.796875"/>
      </g>
     </g>
    </g>
    <g id="ytick_3">
     <g id="line2d_17">
      <path d="M 57.6 185.062151 
L 414.72 185.062151 
" clip-path="url(#paa369cc3cf)" style="fill: none; stroke: #cccccc; stroke-width: 0.8; stroke-linecap: round"/>
     </g>
     <g id="line2d_18"/>
     <g id="text_9">
      <!-- 0.0 -->
      <g style="fill: #262626" transform="translate(40.2 188.685588) scale(0.1 -0.1)">
       <use xlink:href="#LiberationSans-30"/>
       <use xlink:href="#LiberationSans-2e" x="55.615234"/>
       <use xlink:href="#LiberationSans-30" x="83.398438"/>
      </g>
     </g>
    </g>
    <g id="ytick_4">
     <g id="line2d_19">
      <path d="M 57.6 126.553016 
L 414.72 126.553016 
" clip-path="url(#paa369cc3cf)" style="fill: none; stroke: #cccccc; stroke-width: 0.8; stroke-linecap: round"/>
     </g>
     <g id="line2d_20"/>
     <g id="text_10">
      <!-- 0.5 -->
      <g style="fill: #262626" transform="translate(40.2 130.176453) scale(0.1 -0.1)">
       <use xlink:href="#LiberationSans-30"/>
       <use xlink:href="#LiberationSans-2e" x="55.615234"/>
       <use xlink:href="#LiberationSans-35" x="83.398438"/>
      </g>
     </g>
    </g>
    <g id="ytick_5">
     <g id="line2d_21">
      <path d="M 57.6 68.043881 
L 414.72 68.043881 
" clip-path="url(#paa369cc3cf)" style="fill: none; stroke: #cccccc; stroke-width: 0.8; stroke-linecap: round"/>
     </g>
     <g id="line2d_22"/>
     <g id="text_11">
      <!-- 1.0 -->
      <g style="fill: #262626" transform="translate(40.2 71.667319) scale(0.1 -0.1)">
       <use xlink:href="#LiberationSans-31"/>
       <use xlink:href="#LiberationSans-2e" x="55.615234"/>
       <use xlink:href="#LiberationSans-30" x="83.398438"/>
      </g>
     </g>
    </g>
   </g>
   <g id="PathCollection_1">
    <defs>
     <path id="mf1d63d01c6" d="M 0 3 
C 0.795609 3 1.55874 2.683901 2.12132 2.12132 
C 2.683901 1.55874 3 0.795609 3 0 
C 3 -0.795609 2.683901 -1.55874 2.12132 -2.12132 
C 1.55874 -2.683901 0.795609 -3 0 -3 
C -0.795609 -3 -1.55874 -2.683901 -2.12132 -2.12132 
C -2.683901 -1.55874 -3 -0.795609 -3 0 
C -3 0.795609 -2.683901 1.55874 -2.12132 2.12132 
C -1.55874 2.683901 -0.795609 3 0 3 
z
" style="stroke: #0000ff"/>
    </defs>
    <g clip-path="url(#paa369cc3cf)">
     <use xlink:href="#mf1d63d01c6" x="209.220817" y="293.340186" style="fill: #0000ff; stroke: #0000ff"/>
     <use xlink:href="#mf1d63d01c6" x="307.689348" y="101.848449" style="fill: #0000ff; stroke: #0000ff"/>
     <use xlink:href="#mf1d63d01c6" x="73.86986" y="192.783117" style="fill: #0000ff; stroke: #0000ff"/>
     <use xlink:href="#mf1d63d01c6" x="171.986371" y="171.403198" style="fill: #0000ff; stroke: #0000ff"/>
     <use xlink:href="#mf1d63d01c6" x="121.477694" y="81.741488" style="fill: #0000ff; stroke: #0000ff"/>
     <use xlink:href="#mf1d63d01c6" x="103.810872" y="88.979631" style="fill: #0000ff; stroke: #0000ff"/>
     <use xlink:href="#mf1d63d01c6" x="134.302952" y="53.568" style="fill: #0000ff; stroke: #0000ff"/>
     <use xlink:href="#mf1d63d01c6" x="186.020588" y="212.523414" style="fill: #0000ff; stroke: #0000ff"/>
     <use xlink:href="#mf1d63d01c6" x="202.645091" y="273.348359" style="fill: #0000ff; stroke: #0000ff"/>
     <use xlink:href="#mf1d63d01c6" x="248.762029" y="286.749063" style="fill: #0000ff; stroke: #0000ff"/>
     <use xlink:href="#mf1d63d01c6" x="209.926132" y="295.33015" style="fill: #0000ff; stroke: #0000ff"/>
     <use xlink:href="#mf1d63d01c6" x="296.292353" y="102.208125" style="fill: #0000ff; stroke: #0000ff"/>
     <use xlink:href="#mf1d63d01c6" x="140.209079" y="80.336025" style="fill: #0000ff; stroke: #0000ff"/>
     <use xlink:href="#mf1d63d01c6" x="358.917544" y="122.295608" style="fill: #0000ff; stroke: #0000ff"/>
     <use xlink:href="#mf1d63d01c6" x="82.724234" y="151.178752" style="fill: #0000ff; stroke: #0000ff"/>
     <use xlink:href="#mf1d63d01c6" x="291.503052" y="112.610777" style="fill: #0000ff; stroke: #0000ff"/>
     <use xlink:href="#mf1d63d01c6" x="209.312628" y="284.063285" style="fill: #0000ff; stroke: #0000ff"/>
     <use xlink:href="#mf1d63d01c6" x="255.21392" y="252.892153" style="fill: #0000ff; stroke: #0000ff"/>
     <use xlink:href="#mf1d63d01c6" x="119.409985" y="66.157892" style="fill: #0000ff; stroke: #0000ff"/>
     <use xlink:href="#mf1d63d01c6" x="138.147276" y="81.874423" style="fill: #0000ff; stroke: #0000ff"/>
     <use xlink:href="#mf1d63d01c6" x="333.798091" y="82.78869" style="fill: #0000ff; stroke: #0000ff"/>
     <use xlink:href="#mf1d63d01c6" x="388.183249" y="218.988636" style="fill: #0000ff; stroke: #0000ff"/>
     <use xlink:href="#mf1d63d01c6" x="175.587311" y="186.646416" style="fill: #0000ff; stroke: #0000ff"/>
     <use xlink:href="#mf1d63d01c6" x="298.598411" y="108.310976" style="fill: #0000ff; stroke: #0000ff"/>
     <use xlink:href="#mf1d63d01c6" x="358.356449" y="103.416722" style="fill: #0000ff; stroke: #0000ff"/>
     <use xlink:href="#mf1d63d01c6" x="364.270847" y="120.263757" style="fill: #0000ff; stroke: #0000ff"/>
     <use xlink:href="#mf1d63d01c6" x="101.442717" y="93.772588" style="fill: #0000ff; stroke: #0000ff"/>
     <use xlink:href="#mf1d63d01c6" x="86.51204" y="130.156106" style="fill: #0000ff; stroke: #0000ff"/>
     <use xlink:href="#mf1d63d01c6" x="128.968945" y="77.821684" style="fill: #0000ff; stroke: #0000ff"/>
     <use xlink:href="#mf1d63d01c6" x="358.925683" y="100.204215" style="fill: #0000ff; stroke: #0000ff"/>
     <use xlink:href="#mf1d63d01c6" x="105.761474" y="81.651082" style="fill: #0000ff; stroke: #0000ff"/>
     <use xlink:href="#mf1d63d01c6" x="210.547232" y="291.169839" style="fill: #0000ff; stroke: #0000ff"/>
     <use xlink:href="#mf1d63d01c6" x="384.815917" y="197.308832" style="fill: #0000ff; stroke: #0000ff"/>
     <use xlink:href="#mf1d63d01c6" x="246.927261" y="281.235151" style="fill: #0000ff; stroke: #0000ff"/>
     <use xlink:href="#mf1d63d01c6" x="298.453777" y="102.352235" style="fill: #0000ff; stroke: #0000ff"/>
     <use xlink:href="#mf1d63d01c6" x="176.266311" y="168.864664" style="fill: #0000ff; stroke: #0000ff"/>
     <use xlink:href="#mf1d63d01c6" x="296.708374" y="95.179687" style="fill: #0000ff; stroke: #0000ff"/>
     <use xlink:href="#mf1d63d01c6" x="344.797745" y="98.280205" style="fill: #0000ff; stroke: #0000ff"/>
     <use xlink:href="#mf1d63d01c6" x="79.7701" y="180.67939" style="fill: #0000ff; stroke: #0000ff"/>
     <use xlink:href="#mf1d63d01c6" x="317.370489" y="81.143765" style="fill: #0000ff; stroke: #0000ff"/>
     <use xlink:href="#mf1d63d01c6" x="394.870975" y="235.540981" style="fill: #0000ff; stroke: #0000ff"/>
     <use xlink:href="#mf1d63d01c6" x="316.728108" y="65.808723" style="fill: #0000ff; stroke: #0000ff"/>
     <use xlink:href="#mf1d63d01c6" x="164.880144" y="142.65883" style="fill: #0000ff; stroke: #0000ff"/>
     <use xlink:href="#mf1d63d01c6" x="330.075849" y="91.795454" style="fill: #0000ff; stroke: #0000ff"/>
     <use xlink:href="#mf1d63d01c6" x="107.34552" y="88.189755" style="fill: #0000ff; stroke: #0000ff"/>
     <use xlink:href="#mf1d63d01c6" x="219.243396" y="289.217275" style="fill: #0000ff; stroke: #0000ff"/>
     <use xlink:href="#mf1d63d01c6" x="368.812387" y="143.47542" style="fill: #0000ff; stroke: #0000ff"/>
     <use xlink:href="#mf1d63d01c6" x="169.155895" y="152.272464" style="fill: #0000ff; stroke: #0000ff"/>
     <use xlink:href="#mf1d63d01c6" x="167.260299" y="157.146733" style="fill: #0000ff; stroke: #0000ff"/>
     <use xlink:href="#mf1d63d01c6" x="116.047094" y="74.648536" style="fill: #0000ff; stroke: #0000ff"/>
    </g>
   </g>
   <g id="line2d_23">
    <path d="M 73.832727 181.730333 
L 75.132645 179.944479 
L 76.432563 177.721962 
L 78.057461 174.397976 
L 79.682359 170.545055 
L 81.632236 165.333711 
L 83.907093 158.603063 
L 86.831908 149.203712 
L 91.381622 133.685642 
L 97.881212 111.582518 
L 101.131007 101.28079 
L 104.055823 92.725505 
L 106.655659 85.816091 
L 108.930516 80.378181 
L 111.205373 75.557301 
L 113.15525 71.945447 
L 115.105127 68.83435 
L 116.730025 66.635197 
L 118.354922 64.800757 
L 119.97982 63.335705 
L 121.279738 62.431651 
L 122.579656 61.76665 
L 123.879574 61.34079 
L 125.179492 61.153539 
L 126.47941 61.203773 
L 127.779328 61.489803 
L 129.079247 62.009405 
L 130.379165 62.759841 
L 131.679083 63.73789 
L 133.30398 65.274881 
L 134.928878 67.15359 
L 136.553776 69.364887 
L 138.503653 72.443253 
L 140.45353 75.967075 
L 142.403407 79.915804 
L 144.678264 85.030304 
L 147.2781 91.499312 
L 149.877936 98.57761 
L 152.802752 107.192503 
L 156.052547 117.467439 
L 159.952301 130.598764 
L 164.502015 146.737763 
L 171.651564 173.049328 
L 180.101032 203.992083 
L 184.975725 220.988778 
L 188.875479 233.819238 
L 192.450254 244.821748 
L 195.700049 254.089641 
L 198.624865 261.762751 
L 201.224701 268.006999 
L 203.824537 273.673839 
L 206.099394 278.135243 
L 208.374251 282.114348 
L 210.324128 285.129606 
L 212.274005 287.771201 
L 214.223882 290.032233 
L 215.84878 291.621619 
L 217.473677 292.940208 
L 219.098575 293.986025 
L 220.723473 294.757707 
L 222.34837 295.254496 
L 223.973268 295.476238 
L 225.598165 295.423374 
L 227.223063 295.096943 
L 228.847961 294.498566 
L 230.472858 293.630444 
L 232.097756 292.495351 
L 233.722654 291.096621 
L 235.347551 289.43814 
L 237.297428 287.111366 
L 239.247305 284.425617 
L 241.197183 281.390624 
L 243.472039 277.422815 
L 245.746896 273.013167 
L 248.346732 267.459055 
L 250.946568 261.388286 
L 253.871384 253.986276 
L 257.121179 245.116199 
L 260.695954 234.668435 
L 264.595708 222.577533 
L 269.470401 206.682528 
L 276.294971 183.557272 
L 286.694316 148.303442 
L 291.569009 132.588815 
L 295.468763 120.70983 
L 299.043538 110.516194 
L 302.293333 101.932862 
L 305.218149 94.839193 
L 307.817985 89.086168 
L 310.417821 83.894147 
L 312.692678 79.84013 
L 314.967535 76.266243 
L 316.917412 73.600787 
L 318.867289 71.315141 
L 320.492187 69.708308 
L 322.117084 68.378201 
L 323.741982 67.329744 
L 325.36688 66.567227 
L 326.991777 66.094283 
L 328.291695 65.926431 
L 329.591613 65.947001 
L 330.891532 66.156892 
L 332.19145 66.556699 
L 333.816347 67.323937 
L 335.441245 68.388218 
L 337.066143 69.748622 
L 338.69104 71.403424 
L 340.315938 73.35007 
L 342.265815 76.066432 
L 344.215692 79.190585 
L 346.165569 82.713172 
L 348.440426 87.311333 
L 350.715283 92.415277 
L 353.315119 98.835705 
L 355.914955 105.841268 
L 358.839771 114.360107 
L 362.089566 124.522195 
L 365.98932 137.51113 
L 370.864013 154.599654 
L 382.888256 197.135168 
L 386.46303 208.71423 
L 389.387846 217.408826 
L 391.662703 223.549879 
L 393.937559 229.039869 
L 395.887437 233.149875 
L 397.512334 236.103907 
L 398.487273 237.653033 
L 398.487273 237.653033 
" clip-path="url(#paa369cc3cf)" style="fill: none; stroke: #ff0000; stroke-width: 1.5; stroke-linecap: round"/>
   </g>
   <g id="patch_3">
    <path d="M 57.6 307.584 
L 57.6 41.472 
" style="fill: none; stroke: #cccccc; stroke-linejoin: miter; stroke-linecap: square"/>
   </g>
   <g id="patch_4">
    <path d="M 414.72 307.584 
L 414.72 41.472 
" style="fill: none; stroke: #cccccc; stroke-linejoin: miter; stroke-linecap: square"/>
   </g>
   <g id="patch_5">
    <path d="M 57.6 307.584 
L 414.72 307.584 
" style="fill: none; stroke: #cccccc; stroke-linejoin: miter; stroke-linecap: square"/>
   </g>
   <g id="patch_6">
    <path d="M 57.6 41.472 
L 414.72 41.472 
" style="fill: none; stroke: #cccccc; stroke-linejoin: miter; stroke-linecap: square"/>
   </g>
  </g>
 </g>
 <defs>
  <clipPath id="paa369cc3cf">
   <rect x="57.6" y="41.472" width="357.12" height="266.112"/>
  </clipPath>
 </defs>
</svg>
