<?xml version="1.0" encoding="utf-8" standalone="no"?>
<!DOCTYPE svg PUBLIC "-//W3C//DTD SVG 1.1//EN"
  "http://www.w3.org/Graphics/SVG/1.1/DTD/svg11.dtd">
<svg xmlns:xlink="http://www.w3.org/1999/xlink" width="460.8pt" height="345.6pt" viewBox="0 0 460.8 345.6" xmlns="http://www.w3.org/2000/svg" version="1.1">
 <metadata>
  <rdf:RDF xmlns:dc="http://purl.org/dc/elements/1.1/" xmlns:cc="http://creativecommons.org/ns#" xmlns:rdf="http://www.w3.org/1999/02/22-rdf-syntax-ns#">
   <cc:Work>
    <dc:type rdf:resource="http://purl.org/dc/dcmitype/StillImage"/>
    <dc:date>2023-08-23T08:34:04.726340</dc:date>
    <dc:format>image/svg+xml</dc:format>
    <dc:creator>
     <cc:Agent>
      <dc:title>Matplotlib v3.7.1, https://matplotlib.org/</dc:title>
     </cc:Agent>
    </dc:creator>
   </cc:Work>
  </rdf:RDF>
 </metadata>
 <defs>
  <style type="text/css">*{stroke-linejoin: round; stroke-linecap: butt}</style>
 </defs>
 <g id="figure_1">
  <g id="patch_1">
   <path d="M 0 345.6 
L 460.8 345.6 
L 460.8 0 
L 0 0 
z
" style="fill: #ffffff"/>
  </g>
  <g id="axes_1">
   <g id="patch_2">
    <path d="M 57.6 307.584 
L 414.72 307.584 
L 414.72 41.472 
L 57.6 41.472 
z
" style="fill: #ffffff"/>
   </g>
   <g id="matplotlib.axis_1">
    <g id="xtick_1">
     <g id="line2d_1">
      <path d="M 73.832727 307.584 
L 73.832727 41.472 
" clip-path="url(#p8ed1b52b16)" style="fill: none; stroke: #cccccc; stroke-width: 0.8; stroke-linecap: round"/>
     </g>
     <g id="line2d_2"/>
     <g id="text_1">
      <!-- 0 -->
      <g style="fill: #262626" transform="translate(71.052259 318.330875) scale(0.1 -0.1)">
       <defs>
        <path id="LiberationSans-30" d="M 3309 2203 
Q 3309 1100 2920 518 
Q 2531 -63 1772 -63 
Q 1013 -63 631 515 
Q 250 1094 250 2203 
Q 250 3338 620 3903 
Q 991 4469 1791 4469 
Q 2569 4469 2939 3897 
Q 3309 3325 3309 2203 
z
M 2738 2203 
Q 2738 3156 2517 3584 
Q 2297 4013 1791 4013 
Q 1272 4013 1045 3591 
Q 819 3169 819 2203 
Q 819 1266 1048 831 
Q 1278 397 1778 397 
Q 2275 397 2506 840 
Q 2738 1284 2738 2203 
z
" transform="scale(0.015625)"/>
       </defs>
       <use xlink:href="#LiberationSans-30"/>
      </g>
     </g>
    </g>
    <g id="xtick_2">
     <g id="line2d_3">
      <path d="M 138.763636 307.584 
L 138.763636 41.472 
" clip-path="url(#p8ed1b52b16)" style="fill: none; stroke: #cccccc; stroke-width: 0.8; stroke-linecap: round"/>
     </g>
     <g id="line2d_4"/>
     <g id="text_2">
      <!-- 2 -->
      <g style="fill: #262626" transform="translate(135.983168 318.330875) scale(0.1 -0.1)">
       <defs>
        <path id="LiberationSans-32" d="M 322 0 
L 322 397 
Q 481 763 711 1042 
Q 941 1322 1194 1548 
Q 1447 1775 1695 1969 
Q 1944 2163 2144 2356 
Q 2344 2550 2467 2762 
Q 2591 2975 2591 3244 
Q 2591 3606 2378 3806 
Q 2166 4006 1788 4006 
Q 1428 4006 1195 3811 
Q 963 3616 922 3263 
L 347 3316 
Q 409 3844 795 4156 
Q 1181 4469 1788 4469 
Q 2453 4469 2811 4155 
Q 3169 3841 3169 3263 
Q 3169 3006 3051 2753 
Q 2934 2500 2703 2247 
Q 2472 1994 1819 1463 
Q 1459 1169 1246 933 
Q 1034 697 941 478 
L 3238 478 
L 3238 0 
L 322 0 
z
" transform="scale(0.015625)"/>
       </defs>
       <use xlink:href="#LiberationSans-32"/>
      </g>
     </g>
    </g>
    <g id="xtick_3">
     <g id="line2d_5">
      <path d="M 203.694545 307.584 
L 203.694545 41.472 
" clip-path="url(#p8ed1b52b16)" style="fill: none; stroke: #cccccc; stroke-width: 0.8; stroke-linecap: round"/>
     </g>
     <g id="line2d_6"/>
     <g id="text_3">
      <!-- 4 -->
      <g style="fill: #262626" transform="translate(200.914077 318.330875) scale(0.1 -0.1)">
       <defs>
        <path id="LiberationSans-34" d="M 2753 997 
L 2753 0 
L 2222 0 
L 2222 997 
L 147 997 
L 147 1434 
L 2163 4403 
L 2753 4403 
L 2753 1441 
L 3372 1441 
L 3372 997 
L 2753 997 
z
M 2222 3769 
Q 2216 3750 2134 3603 
Q 2053 3456 2013 3397 
L 884 1734 
L 716 1503 
L 666 1441 
L 2222 1441 
L 2222 3769 
z
" transform="scale(0.015625)"/>
       </defs>
       <use xlink:href="#LiberationSans-34"/>
      </g>
     </g>
    </g>
    <g id="xtick_4">
     <g id="line2d_7">
      <path d="M 268.625455 307.584 
L 268.625455 41.472 
" clip-path="url(#p8ed1b52b16)" style="fill: none; stroke: #cccccc; stroke-width: 0.8; stroke-linecap: round"/>
     </g>
     <g id="line2d_8"/>
     <g id="text_4">
      <!-- 6 -->
      <g style="fill: #262626" transform="translate(265.844986 318.330875) scale(0.1 -0.1)">
       <defs>
        <path id="LiberationSans-36" d="M 3278 1441 
Q 3278 744 2900 340 
Q 2522 -63 1856 -63 
Q 1113 -63 719 490 
Q 325 1044 325 2100 
Q 325 3244 734 3856 
Q 1144 4469 1900 4469 
Q 2897 4469 3156 3572 
L 2619 3475 
Q 2453 4013 1894 4013 
Q 1413 4013 1148 3564 
Q 884 3116 884 2266 
Q 1038 2550 1316 2698 
Q 1594 2847 1953 2847 
Q 2563 2847 2920 2465 
Q 3278 2084 3278 1441 
z
M 2706 1416 
Q 2706 1894 2472 2153 
Q 2238 2413 1819 2413 
Q 1425 2413 1183 2183 
Q 941 1953 941 1550 
Q 941 1041 1192 716 
Q 1444 391 1838 391 
Q 2244 391 2475 664 
Q 2706 938 2706 1416 
z
" transform="scale(0.015625)"/>
       </defs>
       <use xlink:href="#LiberationSans-36"/>
      </g>
     </g>
    </g>
    <g id="xtick_5">
     <g id="line2d_9">
      <path d="M 333.556364 307.584 
L 333.556364 41.472 
" clip-path="url(#p8ed1b52b16)" style="fill: none; stroke: #cccccc; stroke-width: 0.8; stroke-linecap: round"/>
     </g>
     <g id="line2d_10"/>
     <g id="text_5">
      <!-- 8 -->
      <g style="fill: #262626" transform="translate(330.775895 318.330875) scale(0.1 -0.1)">
       <defs>
        <path id="LiberationSans-38" d="M 3281 1228 
Q 3281 619 2893 278 
Q 2506 -63 1781 -63 
Q 1075 -63 676 271 
Q 278 606 278 1222 
Q 278 1653 525 1947 
Q 772 2241 1156 2303 
L 1156 2316 
Q 797 2400 589 2681 
Q 381 2963 381 3341 
Q 381 3844 757 4156 
Q 1134 4469 1769 4469 
Q 2419 4469 2795 4162 
Q 3172 3856 3172 3334 
Q 3172 2956 2962 2675 
Q 2753 2394 2391 2322 
L 2391 2309 
Q 2813 2241 3047 1952 
Q 3281 1663 3281 1228 
z
M 2588 3303 
Q 2588 4050 1769 4050 
Q 1372 4050 1164 3862 
Q 956 3675 956 3303 
Q 956 2925 1170 2726 
Q 1384 2528 1775 2528 
Q 2172 2528 2380 2711 
Q 2588 2894 2588 3303 
z
M 2697 1281 
Q 2697 1691 2453 1898 
Q 2209 2106 1769 2106 
Q 1341 2106 1100 1882 
Q 859 1659 859 1269 
Q 859 359 1788 359 
Q 2247 359 2472 579 
Q 2697 800 2697 1281 
z
" transform="scale(0.015625)"/>
       </defs>
       <use xlink:href="#LiberationSans-38"/>
      </g>
     </g>
    </g>
    <g id="xtick_6">
     <g id="line2d_11">
      <path d="M 398.487273 307.584 
L 398.487273 41.472 
" clip-path="url(#p8ed1b52b16)" style="fill: none; stroke: #cccccc; stroke-width: 0.8; stroke-linecap: round"/>
     </g>
     <g id="line2d_12"/>
     <g id="text_6">
      <!-- 10 -->
      <g style="fill: #262626" transform="translate(392.926335 318.330875) scale(0.1 -0.1)">
       <defs>
        <path id="LiberationSans-31" d="M 488 0 
L 488 478 
L 1609 478 
L 1609 3866 
L 616 3156 
L 616 3688 
L 1656 4403 
L 2175 4403 
L 2175 478 
L 3247 478 
L 3247 0 
L 488 0 
z
" transform="scale(0.015625)"/>
       </defs>
       <use xlink:href="#LiberationSans-31"/>
       <use xlink:href="#LiberationSans-30" x="55.615234"/>
      </g>
     </g>
    </g>
   </g>
   <g id="matplotlib.axis_2">
    <g id="ytick_1">
     <g id="line2d_13">
      <path d="M 57.6 283.270141 
L 414.72 283.270141 
" clip-path="url(#p8ed1b52b16)" style="fill: none; stroke: #cccccc; stroke-width: 0.8; stroke-linecap: round"/>
     </g>
     <g id="line2d_14"/>
     <g id="text_7">
      <!-- −5 -->
      <g style="fill: #262626" transform="translate(42.698437 286.893578) scale(0.1 -0.1)">
       <defs>
        <path id="LiberationSans-2212" d="M 316 1900 
L 316 2356 
L 3425 2356 
L 3425 1900 
L 316 1900 
z
" transform="scale(0.015625)"/>
        <path id="LiberationSans-35" d="M 3291 1434 
Q 3291 738 2877 337 
Q 2463 -63 1728 -63 
Q 1113 -63 734 206 
Q 356 475 256 984 
L 825 1050 
Q 1003 397 1741 397 
Q 2194 397 2450 670 
Q 2706 944 2706 1422 
Q 2706 1838 2448 2094 
Q 2191 2350 1753 2350 
Q 1525 2350 1328 2278 
Q 1131 2206 934 2034 
L 384 2034 
L 531 4403 
L 3034 4403 
L 3034 3925 
L 1044 3925 
L 959 2528 
Q 1325 2809 1869 2809 
Q 2519 2809 2905 2428 
Q 3291 2047 3291 1434 
z
" transform="scale(0.015625)"/>
       </defs>
       <use xlink:href="#LiberationSans-2212"/>
       <use xlink:href="#LiberationSans-35" x="58.398438"/>
      </g>
     </g>
    </g>
    <g id="ytick_2">
     <g id="line2d_15">
      <path d="M 57.6 226.619337 
L 414.72 226.619337 
" clip-path="url(#p8ed1b52b16)" style="fill: none; stroke: #cccccc; stroke-width: 0.8; stroke-linecap: round"/>
     </g>
     <g id="line2d_16"/>
     <g id="text_8">
      <!-- 0 -->
      <g style="fill: #262626" transform="translate(48.539062 230.242774) scale(0.1 -0.1)">
       <use xlink:href="#LiberationSans-30"/>
      </g>
     </g>
    </g>
    <g id="ytick_3">
     <g id="line2d_17">
      <path d="M 57.6 169.968532 
L 414.72 169.968532 
" clip-path="url(#p8ed1b52b16)" style="fill: none; stroke: #cccccc; stroke-width: 0.8; stroke-linecap: round"/>
     </g>
     <g id="line2d_18"/>
     <g id="text_9">
      <!-- 5 -->
      <g style="fill: #262626" transform="translate(48.539062 173.59197) scale(0.1 -0.1)">
       <use xlink:href="#LiberationSans-35"/>
      </g>
     </g>
    </g>
    <g id="ytick_4">
     <g id="line2d_19">
      <path d="M 57.6 113.317728 
L 414.72 113.317728 
" clip-path="url(#p8ed1b52b16)" style="fill: none; stroke: #cccccc; stroke-width: 0.8; stroke-linecap: round"/>
     </g>
     <g id="line2d_20"/>
     <g id="text_10">
      <!-- 10 -->
      <g style="fill: #262626" transform="translate(42.978125 116.941166) scale(0.1 -0.1)">
       <use xlink:href="#LiberationSans-31"/>
       <use xlink:href="#LiberationSans-30" x="55.615234"/>
      </g>
     </g>
    </g>
    <g id="ytick_5">
     <g id="line2d_21">
      <path d="M 57.6 56.666924 
L 414.72 56.666924 
" clip-path="url(#p8ed1b52b16)" style="fill: none; stroke: #cccccc; stroke-width: 0.8; stroke-linecap: round"/>
     </g>
     <g id="line2d_22"/>
     <g id="text_11">
      <!-- 15 -->
      <g style="fill: #262626" transform="translate(42.978125 60.290361) scale(0.1 -0.1)">
       <use xlink:href="#LiberationSans-31"/>
       <use xlink:href="#LiberationSans-35" x="55.615234"/>
      </g>
     </g>
    </g>
   </g>
   <g id="PathCollection_1">
    <defs>
     <path id="med073f1b46" d="M 0 3 
C 0.795609 3 1.55874 2.683901 2.12132 2.12132 
C 2.683901 1.55874 3 0.795609 3 0 
C 3 -0.795609 2.683901 -1.55874 2.12132 -2.12132 
C 1.55874 -2.683901 0.795609 -3 0 -3 
C -0.795609 -3 -1.55874 -2.683901 -2.12132 -2.12132 
C -2.683901 -1.55874 -3 -0.795609 -3 0 
C -3 0.795609 -2.683901 1.55874 -2.12132 2.12132 
C -1.55874 2.683901 -0.795609 3 0 3 
z
" style="stroke: #0000ff"/>
    </defs>
    <g clip-path="url(#p8ed1b52b16)">
     <use xlink:href="#med073f1b46" x="209.220817" y="196.55739" style="fill: #0000ff; stroke: #0000ff"/>
     <use xlink:href="#med073f1b46" x="307.689348" y="129.618609" style="fill: #0000ff; stroke: #0000ff"/>
     <use xlink:href="#med073f1b46" x="73.86986" y="290.84955" style="fill: #0000ff; stroke: #0000ff"/>
     <use xlink:href="#med073f1b46" x="171.986371" y="214.904099" style="fill: #0000ff; stroke: #0000ff"/>
     <use xlink:href="#med073f1b46" x="121.477694" y="262.67409" style="fill: #0000ff; stroke: #0000ff"/>
     <use xlink:href="#med073f1b46" x="103.810872" y="259.689951" style="fill: #0000ff; stroke: #0000ff"/>
     <use xlink:href="#med073f1b46" x="134.302952" y="222.257152" style="fill: #0000ff; stroke: #0000ff"/>
     <use xlink:href="#med073f1b46" x="186.020588" y="196.557489" style="fill: #0000ff; stroke: #0000ff"/>
     <use xlink:href="#med073f1b46" x="202.645091" y="195.534882" style="fill: #0000ff; stroke: #0000ff"/>
     <use xlink:href="#med073f1b46" x="248.762029" y="171.229514" style="fill: #0000ff; stroke: #0000ff"/>
     <use xlink:href="#med073f1b46" x="209.926132" y="196.744739" style="fill: #0000ff; stroke: #0000ff"/>
     <use xlink:href="#med073f1b46" x="296.292353" y="108.821415" style="fill: #0000ff; stroke: #0000ff"/>
     <use xlink:href="#med073f1b46" x="140.209079" y="236.364943" style="fill: #0000ff; stroke: #0000ff"/>
     <use xlink:href="#med073f1b46" x="358.917544" y="91.503168" style="fill: #0000ff; stroke: #0000ff"/>
     <use xlink:href="#med073f1b46" x="82.724234" y="274.900921" style="fill: #0000ff; stroke: #0000ff"/>
     <use xlink:href="#med073f1b46" x="291.503052" y="107.543818" style="fill: #0000ff; stroke: #0000ff"/>
     <use xlink:href="#med073f1b46" x="209.312628" y="187.34611" style="fill: #0000ff; stroke: #0000ff"/>
     <use xlink:href="#med073f1b46" x="255.21392" y="149.676218" style="fill: #0000ff; stroke: #0000ff"/>
     <use xlink:href="#med073f1b46" x="119.409985" y="248.057031" style="fill: #0000ff; stroke: #0000ff"/>
     <use xlink:href="#med073f1b46" x="138.147276" y="242.370753" style="fill: #0000ff; stroke: #0000ff"/>
     <use xlink:href="#med073f1b46" x="333.798091" y="114.763761" style="fill: #0000ff; stroke: #0000ff"/>
     <use xlink:href="#med073f1b46" x="388.183249" y="67.817062" style="fill: #0000ff; stroke: #0000ff"/>
     <use xlink:href="#med073f1b46" x="175.587311" y="214.614019" style="fill: #0000ff; stroke: #0000ff"/>
     <use xlink:href="#med073f1b46" x="298.598411" y="119.741074" style="fill: #0000ff; stroke: #0000ff"/>
     <use xlink:href="#med073f1b46" x="358.356449" y="75.171723" style="fill: #0000ff; stroke: #0000ff"/>
     <use xlink:href="#med073f1b46" x="364.270847" y="69.999857" style="fill: #0000ff; stroke: #0000ff"/>
     <use xlink:href="#med073f1b46" x="101.442717" y="260.763099" style="fill: #0000ff; stroke: #0000ff"/>
     <use xlink:href="#med073f1b46" x="86.51204" y="264.391409" style="fill: #0000ff; stroke: #0000ff"/>
     <use xlink:href="#med073f1b46" x="128.968945" y="253.333471" style="fill: #0000ff; stroke: #0000ff"/>
     <use xlink:href="#med073f1b46" x="358.925683" y="70.085027" style="fill: #0000ff; stroke: #0000ff"/>
     <use xlink:href="#med073f1b46" x="105.761474" y="255.172854" style="fill: #0000ff; stroke: #0000ff"/>
     <use xlink:href="#med073f1b46" x="210.547232" y="191.223238" style="fill: #0000ff; stroke: #0000ff"/>
     <use xlink:href="#med073f1b46" x="384.815917" y="60.674303" style="fill: #0000ff; stroke: #0000ff"/>
     <use xlink:href="#med073f1b46" x="246.927261" y="163.309412" style="fill: #0000ff; stroke: #0000ff"/>
     <use xlink:href="#med073f1b46" x="298.453777" y="113.667018" style="fill: #0000ff; stroke: #0000ff"/>
     <use xlink:href="#med073f1b46" x="176.266311" y="194.553515" style="fill: #0000ff; stroke: #0000ff"/>
     <use xlink:href="#med073f1b46" x="296.708374" y="102.943901" style="fill: #0000ff; stroke: #0000ff"/>
     <use xlink:href="#med073f1b46" x="344.797745" y="109.963807" style="fill: #0000ff; stroke: #0000ff"/>
     <use xlink:href="#med073f1b46" x="79.7701" y="295.488" style="fill: #0000ff; stroke: #0000ff"/>
     <use xlink:href="#med073f1b46" x="317.370489" y="119.000705" style="fill: #0000ff; stroke: #0000ff"/>
     <use xlink:href="#med073f1b46" x="394.870975" y="57.377791" style="fill: #0000ff; stroke: #0000ff"/>
     <use xlink:href="#med073f1b46" x="316.728108" y="103.806262" style="fill: #0000ff; stroke: #0000ff"/>
     <use xlink:href="#med073f1b46" x="164.880144" y="216.144435" style="fill: #0000ff; stroke: #0000ff"/>
     <use xlink:href="#med073f1b46" x="330.075849" y="127.328771" style="fill: #0000ff; stroke: #0000ff"/>
     <use xlink:href="#med073f1b46" x="107.34552" y="263.348136" style="fill: #0000ff; stroke: #0000ff"/>
     <use xlink:href="#med073f1b46" x="219.243396" y="172.394941" style="fill: #0000ff; stroke: #0000ff"/>
     <use xlink:href="#med073f1b46" x="368.812387" y="74.772467" style="fill: #0000ff; stroke: #0000ff"/>
     <use xlink:href="#med073f1b46" x="169.155895" y="208.102521" style="fill: #0000ff; stroke: #0000ff"/>
     <use xlink:href="#med073f1b46" x="167.260299" y="220.578337" style="fill: #0000ff; stroke: #0000ff"/>
     <use xlink:href="#med073f1b46" x="116.047094" y="256.079869" style="fill: #0000ff; stroke: #0000ff"/>
    </g>
   </g>
   <g id="line2d_23">
    <path d="M 73.832727 283.254019 
L 398.487273 53.568 
L 398.487273 53.568 
" clip-path="url(#p8ed1b52b16)" style="fill: none; stroke: #ff0000; stroke-width: 1.5; stroke-linecap: round"/>
   </g>
   <g id="patch_3">
    <path d="M 57.6 307.584 
L 57.6 41.472 
" style="fill: none; stroke: #cccccc; stroke-linejoin: miter; stroke-linecap: square"/>
   </g>
   <g id="patch_4">
    <path d="M 414.72 307.584 
L 414.72 41.472 
" style="fill: none; stroke: #cccccc; stroke-linejoin: miter; stroke-linecap: square"/>
   </g>
   <g id="patch_5">
    <path d="M 57.6 307.584 
L 414.72 307.584 
" style="fill: none; stroke: #cccccc; stroke-linejoin: miter; stroke-linecap: square"/>
   </g>
   <g id="patch_6">
    <path d="M 57.6 41.472 
L 414.72 41.472 
" style="fill: none; stroke: #cccccc; stroke-linejoin: miter; stroke-linecap: square"/>
   </g>
  </g>
 </g>
 <defs>
  <clipPath id="p8ed1b52b16">
   <rect x="57.6" y="41.472" width="357.12" height="266.112"/>
  </clipPath>
 </defs>
</svg>
