<?xml version="1.0" encoding="utf-8" standalone="no"?>
<!DOCTYPE svg PUBLIC "-//W3C//DTD SVG 1.1//EN"
  "http://www.w3.org/Graphics/SVG/1.1/DTD/svg11.dtd">
<svg xmlns:xlink="http://www.w3.org/1999/xlink" width="460.8pt" height="345.6pt" viewBox="0 0 460.8 345.6" xmlns="http://www.w3.org/2000/svg" version="1.1">
 <metadata>
  <rdf:RDF xmlns:dc="http://purl.org/dc/elements/1.1/" xmlns:cc="http://creativecommons.org/ns#" xmlns:rdf="http://www.w3.org/1999/02/22-rdf-syntax-ns#">
   <cc:Work>
    <dc:type rdf:resource="http://purl.org/dc/dcmitype/StillImage"/>
    <dc:date>2023-08-27T19:49:49.760830</dc:date>
    <dc:format>image/svg+xml</dc:format>
    <dc:creator>
     <cc:Agent>
      <dc:title>Matplotlib v3.7.1, https://matplotlib.org/</dc:title>
     </cc:Agent>
    </dc:creator>
   </cc:Work>
  </rdf:RDF>
 </metadata>
 <defs>
  <style type="text/css">*{stroke-linejoin: round; stroke-linecap: butt}</style>
 </defs>
 <g id="figure_1">
  <g id="patch_1">
   <path d="M 0 345.6 
L 460.8 345.6 
L 460.8 0 
L 0 0 
z
" style="fill: #ffffff"/>
  </g>
  <g id="axes_1">
   <g id="patch_2">
    <path d="M 57.6 307.584 
L 414.72 307.584 
L 414.72 41.472 
L 57.6 41.472 
z
" style="fill: #ffffff"/>
   </g>
   <g id="matplotlib.axis_1">
    <g id="xtick_1">
     <g id="line2d_1">
      <path d="M 88.036378 307.584 
L 88.036378 41.472 
" clip-path="url(#pb893d77f45)" style="fill: none; stroke: #cccccc; stroke-width: 0.8; stroke-linecap: round"/>
     </g>
     <g id="line2d_2"/>
     <g id="text_1">
      <!-- −1.0 -->
      <g style="fill: #262626" transform="translate(78.166065 318.330875) scale(0.1 -0.1)">
       <defs>
        <path id="LiberationSans-2212" d="M 316 1900 
L 316 2356 
L 3425 2356 
L 3425 1900 
L 316 1900 
z
" transform="scale(0.015625)"/>
        <path id="LiberationSans-31" d="M 488 0 
L 488 478 
L 1609 478 
L 1609 3866 
L 616 3156 
L 616 3688 
L 1656 4403 
L 2175 4403 
L 2175 478 
L 3247 478 
L 3247 0 
L 488 0 
z
" transform="scale(0.015625)"/>
        <path id="LiberationSans-2e" d="M 584 0 
L 584 684 
L 1194 684 
L 1194 0 
L 584 0 
z
" transform="scale(0.015625)"/>
        <path id="LiberationSans-30" d="M 3309 2203 
Q 3309 1100 2920 518 
Q 2531 -63 1772 -63 
Q 1013 -63 631 515 
Q 250 1094 250 2203 
Q 250 3338 620 3903 
Q 991 4469 1791 4469 
Q 2569 4469 2939 3897 
Q 3309 3325 3309 2203 
z
M 2738 2203 
Q 2738 3156 2517 3584 
Q 2297 4013 1791 4013 
Q 1272 4013 1045 3591 
Q 819 3169 819 2203 
Q 819 1266 1048 831 
Q 1278 397 1778 397 
Q 2275 397 2506 840 
Q 2738 1284 2738 2203 
z
" transform="scale(0.015625)"/>
       </defs>
       <use xlink:href="#LiberationSans-2212"/>
       <use xlink:href="#LiberationSans-31" x="58.398438"/>
       <use xlink:href="#LiberationSans-2e" x="114.013672"/>
       <use xlink:href="#LiberationSans-30" x="141.796875"/>
      </g>
     </g>
    </g>
    <g id="xtick_2">
     <g id="line2d_3">
      <path d="M 161.089394 307.584 
L 161.089394 41.472 
" clip-path="url(#pb893d77f45)" style="fill: none; stroke: #cccccc; stroke-width: 0.8; stroke-linecap: round"/>
     </g>
     <g id="line2d_4"/>
     <g id="text_2">
      <!-- −0.5 -->
      <g style="fill: #262626" transform="translate(151.219082 318.330875) scale(0.1 -0.1)">
       <defs>
        <path id="LiberationSans-35" d="M 3291 1434 
Q 3291 738 2877 337 
Q 2463 -63 1728 -63 
Q 1113 -63 734 206 
Q 356 475 256 984 
L 825 1050 
Q 1003 397 1741 397 
Q 2194 397 2450 670 
Q 2706 944 2706 1422 
Q 2706 1838 2448 2094 
Q 2191 2350 1753 2350 
Q 1525 2350 1328 2278 
Q 1131 2206 934 2034 
L 384 2034 
L 531 4403 
L 3034 4403 
L 3034 3925 
L 1044 3925 
L 959 2528 
Q 1325 2809 1869 2809 
Q 2519 2809 2905 2428 
Q 3291 2047 3291 1434 
z
" transform="scale(0.015625)"/>
       </defs>
       <use xlink:href="#LiberationSans-2212"/>
       <use xlink:href="#LiberationSans-30" x="58.398438"/>
       <use xlink:href="#LiberationSans-2e" x="114.013672"/>
       <use xlink:href="#LiberationSans-35" x="141.796875"/>
      </g>
     </g>
    </g>
    <g id="xtick_3">
     <g id="line2d_5">
      <path d="M 234.142411 307.584 
L 234.142411 41.472 
" clip-path="url(#pb893d77f45)" style="fill: none; stroke: #cccccc; stroke-width: 0.8; stroke-linecap: round"/>
     </g>
     <g id="line2d_6"/>
     <g id="text_3">
      <!-- 0.0 -->
      <g style="fill: #262626" transform="translate(227.192411 318.330875) scale(0.1 -0.1)">
       <use xlink:href="#LiberationSans-30"/>
       <use xlink:href="#LiberationSans-2e" x="55.615234"/>
       <use xlink:href="#LiberationSans-30" x="83.398438"/>
      </g>
     </g>
    </g>
    <g id="xtick_4">
     <g id="line2d_7">
      <path d="M 307.195427 307.584 
L 307.195427 41.472 
" clip-path="url(#pb893d77f45)" style="fill: none; stroke: #cccccc; stroke-width: 0.8; stroke-linecap: round"/>
     </g>
     <g id="line2d_8"/>
     <g id="text_4">
      <!-- 0.5 -->
      <g style="fill: #262626" transform="translate(300.245427 318.330875) scale(0.1 -0.1)">
       <use xlink:href="#LiberationSans-30"/>
       <use xlink:href="#LiberationSans-2e" x="55.615234"/>
       <use xlink:href="#LiberationSans-35" x="83.398438"/>
      </g>
     </g>
    </g>
    <g id="xtick_5">
     <g id="line2d_9">
      <path d="M 380.248444 307.584 
L 380.248444 41.472 
" clip-path="url(#pb893d77f45)" style="fill: none; stroke: #cccccc; stroke-width: 0.8; stroke-linecap: round"/>
     </g>
     <g id="line2d_10"/>
     <g id="text_5">
      <!-- 1.0 -->
      <g style="fill: #262626" transform="translate(373.298444 318.330875) scale(0.1 -0.1)">
       <use xlink:href="#LiberationSans-31"/>
       <use xlink:href="#LiberationSans-2e" x="55.615234"/>
       <use xlink:href="#LiberationSans-30" x="83.398438"/>
      </g>
     </g>
    </g>
   </g>
   <g id="matplotlib.axis_2">
    <g id="ytick_1">
     <g id="line2d_11">
      <path d="M 57.6 295.048718 
L 414.72 295.048718 
" clip-path="url(#pb893d77f45)" style="fill: none; stroke: #cccccc; stroke-width: 0.8; stroke-linecap: round"/>
     </g>
     <g id="line2d_12"/>
     <g id="text_6">
      <!-- −1.0 -->
      <g style="fill: #262626" transform="translate(34.359375 298.672155) scale(0.1 -0.1)">
       <use xlink:href="#LiberationSans-2212"/>
       <use xlink:href="#LiberationSans-31" x="58.398438"/>
       <use xlink:href="#LiberationSans-2e" x="114.013672"/>
       <use xlink:href="#LiberationSans-30" x="141.796875"/>
      </g>
     </g>
    </g>
    <g id="ytick_2">
     <g id="line2d_13">
      <path d="M 57.6 241.055457 
L 414.72 241.055457 
" clip-path="url(#pb893d77f45)" style="fill: none; stroke: #cccccc; stroke-width: 0.8; stroke-linecap: round"/>
     </g>
     <g id="line2d_14"/>
     <g id="text_7">
      <!-- −0.5 -->
      <g style="fill: #262626" transform="translate(34.359375 244.678895) scale(0.1 -0.1)">
       <use xlink:href="#LiberationSans-2212"/>
       <use xlink:href="#LiberationSans-30" x="58.398438"/>
       <use xlink:href="#LiberationSans-2e" x="114.013672"/>
       <use xlink:href="#LiberationSans-35" x="141.796875"/>
      </g>
     </g>
    </g>
    <g id="ytick_3">
     <g id="line2d_15">
      <path d="M 57.6 187.062197 
L 414.72 187.062197 
" clip-path="url(#pb893d77f45)" style="fill: none; stroke: #cccccc; stroke-width: 0.8; stroke-linecap: round"/>
     </g>
     <g id="line2d_16"/>
     <g id="text_8">
      <!-- 0.0 -->
      <g style="fill: #262626" transform="translate(40.2 190.685634) scale(0.1 -0.1)">
       <use xlink:href="#LiberationSans-30"/>
       <use xlink:href="#LiberationSans-2e" x="55.615234"/>
       <use xlink:href="#LiberationSans-30" x="83.398438"/>
      </g>
     </g>
    </g>
    <g id="ytick_4">
     <g id="line2d_17">
      <path d="M 57.6 133.068936 
L 414.72 133.068936 
" clip-path="url(#pb893d77f45)" style="fill: none; stroke: #cccccc; stroke-width: 0.8; stroke-linecap: round"/>
     </g>
     <g id="line2d_18"/>
     <g id="text_9">
      <!-- 0.5 -->
      <g style="fill: #262626" transform="translate(40.2 136.692374) scale(0.1 -0.1)">
       <use xlink:href="#LiberationSans-30"/>
       <use xlink:href="#LiberationSans-2e" x="55.615234"/>
       <use xlink:href="#LiberationSans-35" x="83.398438"/>
      </g>
     </g>
    </g>
    <g id="ytick_5">
     <g id="line2d_19">
      <path d="M 57.6 79.075676 
L 414.72 79.075676 
" clip-path="url(#pb893d77f45)" style="fill: none; stroke: #cccccc; stroke-width: 0.8; stroke-linecap: round"/>
     </g>
     <g id="line2d_20"/>
     <g id="text_10">
      <!-- 1.0 -->
      <g style="fill: #262626" transform="translate(40.2 82.699113) scale(0.1 -0.1)">
       <use xlink:href="#LiberationSans-31"/>
       <use xlink:href="#LiberationSans-2e" x="55.615234"/>
       <use xlink:href="#LiberationSans-30" x="83.398438"/>
      </g>
     </g>
    </g>
   </g>
   <g id="PathCollection_1">
    <defs>
     <path id="C0_0_b744ba61b1" d="M 0 3.535534 
C 0.937635 3.535534 1.836992 3.163008 2.5 2.5 
C 3.163008 1.836992 3.535534 0.937635 3.535534 -0 
C 3.535534 -0.937635 3.163008 -1.836992 2.5 -2.5 
C 1.836992 -3.163008 0.937635 -3.535534 0 -3.535534 
C -0.937635 -3.535534 -1.836992 -3.163008 -2.5 -2.5 
C -3.163008 -1.836992 -3.535534 -0.937635 -3.535534 0 
C -3.535534 0.937635 -3.163008 1.836992 -2.5 2.5 
C -1.836992 3.163008 -0.937635 3.535534 0 3.535534 
z
"/>
    </defs>
    <g clip-path="url(#pb893d77f45)">
     <use xlink:href="#C0_0_b744ba61b1" x="361.007141" y="169.276587" style="fill: #ff0000; stroke: #ff0000"/>
    </g>
    <g clip-path="url(#pb893d77f45)">
     <use xlink:href="#C0_0_b744ba61b1" x="148.983008" y="74.545403" style="fill: #ff0000; stroke: #ff0000"/>
    </g>
    <g clip-path="url(#pb893d77f45)">
     <use xlink:href="#C0_0_b744ba61b1" x="248.856229" y="197.506126" style="fill: #ffff00; stroke: #ffff00"/>
    </g>
    <g clip-path="url(#pb893d77f45)">
     <use xlink:href="#C0_0_b744ba61b1" x="159.820468" y="250.805755" style="fill: #ff0000; stroke: #ff0000"/>
    </g>
    <g clip-path="url(#pb893d77f45)">
     <use xlink:href="#C0_0_b744ba61b1" x="217.566149" y="188.694945" style="fill: #ffff00; stroke: #ffff00"/>
    </g>
    <g clip-path="url(#pb893d77f45)">
     <use xlink:href="#C0_0_b744ba61b1" x="122.995303" y="122.900171" style="fill: #ff0000; stroke: #ff0000"/>
    </g>
    <g clip-path="url(#pb893d77f45)">
     <use xlink:href="#C0_0_b744ba61b1" x="233.648463" y="199.118364" style="fill: #ffff00; stroke: #ffff00"/>
    </g>
    <g clip-path="url(#pb893d77f45)">
     <use xlink:href="#C0_0_b744ba61b1" x="326.832156" y="271.741024" style="fill: #ff0000; stroke: #ff0000"/>
    </g>
    <g clip-path="url(#pb893d77f45)">
     <use xlink:href="#C0_0_b744ba61b1" x="197.183985" y="194.627321" style="fill: #ffff00; stroke: #ffff00"/>
    </g>
    <g clip-path="url(#pb893d77f45)">
     <use xlink:href="#C0_0_b744ba61b1" x="108.836328" y="117.049011" style="fill: #ff0000; stroke: #ff0000"/>
    </g>
    <g clip-path="url(#pb893d77f45)">
     <use xlink:href="#C0_0_b744ba61b1" x="241.289175" y="196.671607" style="fill: #ffff00; stroke: #ffff00"/>
    </g>
    <g clip-path="url(#pb893d77f45)">
     <use xlink:href="#C0_0_b744ba61b1" x="285.706879" y="78.176702" style="fill: #ff0000; stroke: #ff0000"/>
    </g>
    <g clip-path="url(#pb893d77f45)">
     <use xlink:href="#C0_0_b744ba61b1" x="231.685494" y="180.8836" style="fill: #ffff00; stroke: #ffff00"/>
    </g>
    <g clip-path="url(#pb893d77f45)">
     <use xlink:href="#C0_0_b744ba61b1" x="119.611596" y="254.615914" style="fill: #ff0000; stroke: #ff0000"/>
    </g>
    <g clip-path="url(#pb893d77f45)">
     <use xlink:href="#C0_0_b744ba61b1" x="224.207779" y="210.512481" style="fill: #ffff00; stroke: #ffff00"/>
    </g>
    <g clip-path="url(#pb893d77f45)">
     <use xlink:href="#C0_0_b744ba61b1" x="251.499843" y="199.028752" style="fill: #ffff00; stroke: #ffff00"/>
    </g>
    <g clip-path="url(#pb893d77f45)">
     <use xlink:href="#C0_0_b744ba61b1" x="159.349013" y="273.244395" style="fill: #ff0000; stroke: #ff0000"/>
    </g>
    <g clip-path="url(#pb893d77f45)">
     <use xlink:href="#C0_0_b744ba61b1" x="264.534714" y="89.110013" style="fill: #ff0000; stroke: #ff0000"/>
    </g>
    <g clip-path="url(#pb893d77f45)">
     <use xlink:href="#C0_0_b744ba61b1" x="261.255289" y="179.604678" style="fill: #ffff00; stroke: #ffff00"/>
    </g>
    <g clip-path="url(#pb893d77f45)">
     <use xlink:href="#C0_0_b744ba61b1" x="240.318868" y="73.681221" style="fill: #ff0000; stroke: #ff0000"/>
    </g>
    <g clip-path="url(#pb893d77f45)">
     <use xlink:href="#C0_0_b744ba61b1" x="333.571328" y="246.715325" style="fill: #ff0000; stroke: #ff0000"/>
    </g>
    <g clip-path="url(#pb893d77f45)">
     <use xlink:href="#C0_0_b744ba61b1" x="223.727757" y="183.431604" style="fill: #ffff00; stroke: #ffff00"/>
    </g>
    <g clip-path="url(#pb893d77f45)">
     <use xlink:href="#C0_0_b744ba61b1" x="222.705646" y="169.766173" style="fill: #ffff00; stroke: #ffff00"/>
    </g>
    <g clip-path="url(#pb893d77f45)">
     <use xlink:href="#C0_0_b744ba61b1" x="378.44518" y="181.655865" style="fill: #ff0000; stroke: #ff0000"/>
    </g>
    <g clip-path="url(#pb893d77f45)">
     <use xlink:href="#C0_0_b744ba61b1" x="257.613964" y="173.132543" style="fill: #ffff00; stroke: #ffff00"/>
    </g>
    <g clip-path="url(#pb893d77f45)">
     <use xlink:href="#C0_0_b744ba61b1" x="111.814932" y="157.082331" style="fill: #ff0000; stroke: #ff0000"/>
    </g>
    <g clip-path="url(#pb893d77f45)">
     <use xlink:href="#C0_0_b744ba61b1" x="243.635263" y="184.3554" style="fill: #ffff00; stroke: #ffff00"/>
    </g>
    <g clip-path="url(#pb893d77f45)">
     <use xlink:href="#C0_0_b744ba61b1" x="230.403588" y="198.944977" style="fill: #ffff00; stroke: #ffff00"/>
    </g>
    <g clip-path="url(#pb893d77f45)">
     <use xlink:href="#C0_0_b744ba61b1" x="242.373858" y="190.003131" style="fill: #ffff00; stroke: #ffff00"/>
    </g>
    <g clip-path="url(#pb893d77f45)">
     <use xlink:href="#C0_0_b744ba61b1" x="82.478836" y="192.016627" style="fill: #ff0000; stroke: #ff0000"/>
    </g>
    <g clip-path="url(#pb893d77f45)">
     <use xlink:href="#C0_0_b744ba61b1" x="246.465519" y="184.120109" style="fill: #ffff00; stroke: #ffff00"/>
    </g>
    <g clip-path="url(#pb893d77f45)">
     <use xlink:href="#C0_0_b744ba61b1" x="173.639132" y="106.90689" style="fill: #ff0000; stroke: #ff0000"/>
    </g>
    <g clip-path="url(#pb893d77f45)">
     <use xlink:href="#C0_0_b744ba61b1" x="378.943296" y="189.820609" style="fill: #ff0000; stroke: #ff0000"/>
    </g>
    <g clip-path="url(#pb893d77f45)">
     <use xlink:href="#C0_0_b744ba61b1" x="215.179858" y="188.321888" style="fill: #ffff00; stroke: #ffff00"/>
    </g>
    <g clip-path="url(#pb893d77f45)">
     <use xlink:href="#C0_0_b744ba61b1" x="256.845301" y="174.442902" style="fill: #ffff00; stroke: #ffff00"/>
    </g>
    <g clip-path="url(#pb893d77f45)">
     <use xlink:href="#C0_0_b744ba61b1" x="213.727472" y="186.235104" style="fill: #ffff00; stroke: #ffff00"/>
    </g>
    <g clip-path="url(#pb893d77f45)">
     <use xlink:href="#C0_0_b744ba61b1" x="277.799776" y="208.899776" style="fill: #ffff00; stroke: #ffff00"/>
    </g>
    <g clip-path="url(#pb893d77f45)">
     <use xlink:href="#C0_0_b744ba61b1" x="227.100991" y="175.769949" style="fill: #ffff00; stroke: #ffff00"/>
    </g>
    <g clip-path="url(#pb893d77f45)">
     <use xlink:href="#C0_0_b744ba61b1" x="239.33649" y="195.322161" style="fill: #ffff00; stroke: #ffff00"/>
    </g>
    <g clip-path="url(#pb893d77f45)">
     <use xlink:href="#C0_0_b744ba61b1" x="200.038077" y="194.633407" style="fill: #ffff00; stroke: #ffff00"/>
    </g>
    <g clip-path="url(#pb893d77f45)">
     <use xlink:href="#C0_0_b744ba61b1" x="310.877165" y="278.174251" style="fill: #ff0000; stroke: #ff0000"/>
    </g>
    <g clip-path="url(#pb893d77f45)">
     <use xlink:href="#C0_0_b744ba61b1" x="227.760509" y="167.822929" style="fill: #ffff00; stroke: #ffff00"/>
    </g>
    <g clip-path="url(#pb893d77f45)">
     <use xlink:href="#C0_0_b744ba61b1" x="243.192961" y="175.075942" style="fill: #ffff00; stroke: #ffff00"/>
    </g>
    <g clip-path="url(#pb893d77f45)">
     <use xlink:href="#C0_0_b744ba61b1" x="271.712655" y="181.58994" style="fill: #ffff00; stroke: #ffff00"/>
    </g>
    <g clip-path="url(#pb893d77f45)">
     <use xlink:href="#C0_0_b744ba61b1" x="219.409155" y="167.571046" style="fill: #ffff00; stroke: #ffff00"/>
    </g>
    <g clip-path="url(#pb893d77f45)">
     <use xlink:href="#C0_0_b744ba61b1" x="207.158515" y="187.495684" style="fill: #ffff00; stroke: #ffff00"/>
    </g>
    <g clip-path="url(#pb893d77f45)">
     <use xlink:href="#C0_0_b744ba61b1" x="226.265912" y="53.568" style="fill: #ff0000; stroke: #ff0000"/>
    </g>
    <g clip-path="url(#pb893d77f45)">
     <use xlink:href="#C0_0_b744ba61b1" x="195.210075" y="102.15422" style="fill: #ff0000; stroke: #ff0000"/>
    </g>
    <g clip-path="url(#pb893d77f45)">
     <use xlink:href="#C0_0_b744ba61b1" x="132.027809" y="104.471436" style="fill: #ff0000; stroke: #ff0000"/>
    </g>
    <g clip-path="url(#pb893d77f45)">
     <use xlink:href="#C0_0_b744ba61b1" x="216.461067" y="187.972803" style="fill: #ffff00; stroke: #ffff00"/>
    </g>
    <g clip-path="url(#pb893d77f45)">
     <use xlink:href="#C0_0_b744ba61b1" x="121.384182" y="218.204445" style="fill: #ff0000; stroke: #ff0000"/>
    </g>
    <g clip-path="url(#pb893d77f45)">
     <use xlink:href="#C0_0_b744ba61b1" x="371.937132" y="258.667748" style="fill: #ff0000; stroke: #ff0000"/>
    </g>
    <g clip-path="url(#pb893d77f45)">
     <use xlink:href="#C0_0_b744ba61b1" x="248.034359" y="168.847026" style="fill: #ffff00; stroke: #ffff00"/>
    </g>
    <g clip-path="url(#pb893d77f45)">
     <use xlink:href="#C0_0_b744ba61b1" x="236.360541" y="285.921749" style="fill: #ff0000; stroke: #ff0000"/>
    </g>
    <g clip-path="url(#pb893d77f45)">
     <use xlink:href="#C0_0_b744ba61b1" x="362.490792" y="248.298407" style="fill: #ff0000; stroke: #ff0000"/>
    </g>
    <g clip-path="url(#pb893d77f45)">
     <use xlink:href="#C0_0_b744ba61b1" x="313.595778" y="93.592918" style="fill: #ff0000; stroke: #ff0000"/>
    </g>
    <g clip-path="url(#pb893d77f45)">
     <use xlink:href="#C0_0_b744ba61b1" x="256.842242" y="159.268867" style="fill: #ffff00; stroke: #ffff00"/>
    </g>
    <g clip-path="url(#pb893d77f45)">
     <use xlink:href="#C0_0_b744ba61b1" x="87.931577" y="195.406639" style="fill: #ff0000; stroke: #ff0000"/>
    </g>
    <g clip-path="url(#pb893d77f45)">
     <use xlink:href="#C0_0_b744ba61b1" x="206.125596" y="195.752517" style="fill: #ffff00; stroke: #ffff00"/>
    </g>
    <g clip-path="url(#pb893d77f45)">
     <use xlink:href="#C0_0_b744ba61b1" x="218.518517" y="295.488" style="fill: #ff0000; stroke: #ff0000"/>
    </g>
    <g clip-path="url(#pb893d77f45)">
     <use xlink:href="#C0_0_b744ba61b1" x="258.01252" y="210.034891" style="fill: #ffff00; stroke: #ffff00"/>
    </g>
    <g clip-path="url(#pb893d77f45)">
     <use xlink:href="#C0_0_b744ba61b1" x="398.487273" y="230.16391" style="fill: #ff0000; stroke: #ff0000"/>
    </g>
    <g clip-path="url(#pb893d77f45)">
     <use xlink:href="#C0_0_b744ba61b1" x="226.830154" y="183.419185" style="fill: #ffff00; stroke: #ffff00"/>
    </g>
    <g clip-path="url(#pb893d77f45)">
     <use xlink:href="#C0_0_b744ba61b1" x="192.257646" y="77.595559" style="fill: #ff0000; stroke: #ff0000"/>
    </g>
    <g clip-path="url(#pb893d77f45)">
     <use xlink:href="#C0_0_b744ba61b1" x="228.548496" y="187.832774" style="fill: #ffff00; stroke: #ffff00"/>
    </g>
    <g clip-path="url(#pb893d77f45)">
     <use xlink:href="#C0_0_b744ba61b1" x="95.158972" y="129.31147" style="fill: #ff0000; stroke: #ff0000"/>
    </g>
    <g clip-path="url(#pb893d77f45)">
     <use xlink:href="#C0_0_b744ba61b1" x="261.289982" y="184.132856" style="fill: #ffff00; stroke: #ffff00"/>
    </g>
    <g clip-path="url(#pb893d77f45)">
     <use xlink:href="#C0_0_b744ba61b1" x="350.260968" y="130.384906" style="fill: #ff0000; stroke: #ff0000"/>
    </g>
    <g clip-path="url(#pb893d77f45)">
     <use xlink:href="#C0_0_b744ba61b1" x="220.426482" y="196.264544" style="fill: #ffff00; stroke: #ffff00"/>
    </g>
    <g clip-path="url(#pb893d77f45)">
     <use xlink:href="#C0_0_b744ba61b1" x="329.585612" y="91.762551" style="fill: #ff0000; stroke: #ff0000"/>
    </g>
    <g clip-path="url(#pb893d77f45)">
     <use xlink:href="#C0_0_b744ba61b1" x="242.970394" y="195.668307" style="fill: #ffff00; stroke: #ffff00"/>
    </g>
    <g clip-path="url(#pb893d77f45)">
     <use xlink:href="#C0_0_b744ba61b1" x="190.495297" y="293.690289" style="fill: #ff0000; stroke: #ff0000"/>
    </g>
    <g clip-path="url(#pb893d77f45)">
     <use xlink:href="#C0_0_b744ba61b1" x="233.336741" y="158.330965" style="fill: #ffff00; stroke: #ffff00"/>
    </g>
    <g clip-path="url(#pb893d77f45)">
     <use xlink:href="#C0_0_b744ba61b1" x="397.545472" y="158.491762" style="fill: #ff0000; stroke: #ff0000"/>
    </g>
    <g clip-path="url(#pb893d77f45)">
     <use xlink:href="#C0_0_b744ba61b1" x="202.986498" y="181.462906" style="fill: #ffff00; stroke: #ffff00"/>
    </g>
    <g clip-path="url(#pb893d77f45)">
     <use xlink:href="#C0_0_b744ba61b1" x="176.200605" y="290.505717" style="fill: #ff0000; stroke: #ff0000"/>
    </g>
    <g clip-path="url(#pb893d77f45)">
     <use xlink:href="#C0_0_b744ba61b1" x="223.174715" y="198.802632" style="fill: #ffff00; stroke: #ffff00"/>
    </g>
    <g clip-path="url(#pb893d77f45)">
     <use xlink:href="#C0_0_b744ba61b1" x="265.311959" y="192.182081" style="fill: #ffff00; stroke: #ffff00"/>
    </g>
    <g clip-path="url(#pb893d77f45)">
     <use xlink:href="#C0_0_b744ba61b1" x="268.605872" y="144.718492" style="fill: #ffff00; stroke: #ffff00"/>
    </g>
    <g clip-path="url(#pb893d77f45)">
     <use xlink:href="#C0_0_b744ba61b1" x="73.832727" y="178.027228" style="fill: #ff0000; stroke: #ff0000"/>
    </g>
    <g clip-path="url(#pb893d77f45)">
     <use xlink:href="#C0_0_b744ba61b1" x="268.998268" y="169.159812" style="fill: #ffff00; stroke: #ffff00"/>
    </g>
    <g clip-path="url(#pb893d77f45)">
     <use xlink:href="#C0_0_b744ba61b1" x="358.872997" y="132.040014" style="fill: #ff0000; stroke: #ff0000"/>
    </g>
    <g clip-path="url(#pb893d77f45)">
     <use xlink:href="#C0_0_b744ba61b1" x="232.855284" y="188.677811" style="fill: #ffff00; stroke: #ffff00"/>
    </g>
    <g clip-path="url(#pb893d77f45)">
     <use xlink:href="#C0_0_b744ba61b1" x="298.054881" y="88.217551" style="fill: #ff0000; stroke: #ff0000"/>
    </g>
    <g clip-path="url(#pb893d77f45)">
     <use xlink:href="#C0_0_b744ba61b1" x="213.08577" y="175.50919" style="fill: #ffff00; stroke: #ffff00"/>
    </g>
    <g clip-path="url(#pb893d77f45)">
     <use xlink:href="#C0_0_b744ba61b1" x="197.916368" y="286.912157" style="fill: #ff0000; stroke: #ff0000"/>
    </g>
    <g clip-path="url(#pb893d77f45)">
     <use xlink:href="#C0_0_b744ba61b1" x="83.471155" y="215.730621" style="fill: #ff0000; stroke: #ff0000"/>
    </g>
    <g clip-path="url(#pb893d77f45)">
     <use xlink:href="#C0_0_b744ba61b1" x="160.485575" y="283.488359" style="fill: #ff0000; stroke: #ff0000"/>
    </g>
    <g clip-path="url(#pb893d77f45)">
     <use xlink:href="#C0_0_b744ba61b1" x="226.60853" y="196.359102" style="fill: #ffff00; stroke: #ffff00"/>
    </g>
    <g clip-path="url(#pb893d77f45)">
     <use xlink:href="#C0_0_b744ba61b1" x="279.041302" y="266.608707" style="fill: #ff0000; stroke: #ff0000"/>
    </g>
    <g clip-path="url(#pb893d77f45)">
     <use xlink:href="#C0_0_b744ba61b1" x="345.777599" y="138.276187" style="fill: #ff0000; stroke: #ff0000"/>
    </g>
    <g clip-path="url(#pb893d77f45)">
     <use xlink:href="#C0_0_b744ba61b1" x="99.83802" y="181.103538" style="fill: #ff0000; stroke: #ff0000"/>
    </g>
    <g clip-path="url(#pb893d77f45)">
     <use xlink:href="#C0_0_b744ba61b1" x="255.512834" y="181.094182" style="fill: #ffff00; stroke: #ffff00"/>
    </g>
    <g clip-path="url(#pb893d77f45)">
     <use xlink:href="#C0_0_b744ba61b1" x="233.271034" y="166.025139" style="fill: #ffff00; stroke: #ffff00"/>
    </g>
    <g clip-path="url(#pb893d77f45)">
     <use xlink:href="#C0_0_b744ba61b1" x="125.524919" y="237.446555" style="fill: #ff0000; stroke: #ff0000"/>
    </g>
    <g clip-path="url(#pb893d77f45)">
     <use xlink:href="#C0_0_b744ba61b1" x="391.922693" y="172.02409" style="fill: #ff0000; stroke: #ff0000"/>
    </g>
    <g clip-path="url(#pb893d77f45)">
     <use xlink:href="#C0_0_b744ba61b1" x="230.949263" y="188.200477" style="fill: #ffff00; stroke: #ffff00"/>
    </g>
    <g clip-path="url(#pb893d77f45)">
     <use xlink:href="#C0_0_b744ba61b1" x="355.894945" y="232.057318" style="fill: #ff0000; stroke: #ff0000"/>
    </g>
    <g clip-path="url(#pb893d77f45)">
     <use xlink:href="#C0_0_b744ba61b1" x="316.325799" y="280.071444" style="fill: #ff0000; stroke: #ff0000"/>
    </g>
    <g clip-path="url(#pb893d77f45)">
     <use xlink:href="#C0_0_b744ba61b1" x="256.056324" y="289.859324" style="fill: #ff0000; stroke: #ff0000"/>
    </g>
   </g>
   <g id="PathCollection_2">
    <defs>
     <path id="C1_0_23ea314029" d="M 0 8.660254 
C 2.296726 8.660254 4.499694 7.747755 6.123724 6.123724 
C 7.747755 4.499694 8.660254 2.296726 8.660254 -0 
C 8.660254 -2.296726 7.747755 -4.499694 6.123724 -6.123724 
C 4.499694 -7.747755 2.296726 -8.660254 0 -8.660254 
C -2.296726 -8.660254 -4.499694 -7.747755 -6.123724 -6.123724 
C -7.747755 -4.499694 -8.660254 -2.296726 -8.660254 0 
C -8.660254 2.296726 -7.747755 4.499694 -6.123724 6.123724 
C -4.499694 7.747755 -2.296726 8.660254 0 8.660254 
z
"/>
    </defs>
    <g clip-path="url(#pb893d77f45)">
     <use xlink:href="#C1_0_23ea314029" x="361.007141" y="169.276587" style="fill: none; stroke: #000000"/>
    </g>
    <g clip-path="url(#pb893d77f45)">
     <use xlink:href="#C1_0_23ea314029" x="159.820468" y="250.805755" style="fill: none; stroke: #000000"/>
    </g>
    <g clip-path="url(#pb893d77f45)">
     <use xlink:href="#C1_0_23ea314029" x="264.534714" y="89.110013" style="fill: none; stroke: #000000"/>
    </g>
    <g clip-path="url(#pb893d77f45)">
     <use xlink:href="#C1_0_23ea314029" x="333.571328" y="246.715325" style="fill: none; stroke: #000000"/>
    </g>
    <g clip-path="url(#pb893d77f45)">
     <use xlink:href="#C1_0_23ea314029" x="111.814932" y="157.082331" style="fill: none; stroke: #000000"/>
    </g>
    <g clip-path="url(#pb893d77f45)">
     <use xlink:href="#C1_0_23ea314029" x="195.210075" y="102.15422" style="fill: none; stroke: #000000"/>
    </g>
    <g clip-path="url(#pb893d77f45)">
     <use xlink:href="#C1_0_23ea314029" x="121.384182" y="218.204445" style="fill: none; stroke: #000000"/>
    </g>
    <g clip-path="url(#pb893d77f45)">
     <use xlink:href="#C1_0_23ea314029" x="279.041302" y="266.608707" style="fill: none; stroke: #000000"/>
    </g>
    <g clip-path="url(#pb893d77f45)">
     <use xlink:href="#C1_0_23ea314029" x="345.777599" y="138.276187" style="fill: none; stroke: #000000"/>
    </g>
    <g clip-path="url(#pb893d77f45)">
     <use xlink:href="#C1_0_23ea314029" x="197.183985" y="194.627321" style="fill: none; stroke: #000000"/>
    </g>
    <g clip-path="url(#pb893d77f45)">
     <use xlink:href="#C1_0_23ea314029" x="277.799776" y="208.899776" style="fill: none; stroke: #000000"/>
    </g>
    <g clip-path="url(#pb893d77f45)">
     <use xlink:href="#C1_0_23ea314029" x="268.605872" y="144.718492" style="fill: none; stroke: #000000"/>
    </g>
   </g>
   <g id="PathCollection_3"/>
   <g id="PathCollection_4">
    <path d="M 230.002759 271.219523 
L 242.317241 271.25251 
L 247.290137 270.878897 
L 254.631724 270.452994 
L 266.946207 269.015167 
L 279.26069 266.812023 
L 291.575172 263.729698 
L 297.949934 261.702621 
L 303.889655 259.941668 
L 316.204138 255.367027 
L 322.474913 252.526345 
L 328.518621 249.599368 
L 339.157402 243.350069 
L 340.833103 242.16441 
L 350.926175 234.173793 
L 353.147586 231.699525 
L 359.019047 224.997517 
L 363.771427 215.821241 
L 365.462069 209.362965 
L 366.257473 206.644966 
L 367.031945 197.46869 
L 366.149198 188.292414 
L 365.462069 185.559881 
L 364.246623 179.116138 
L 361.547549 169.939862 
L 357.920685 160.763586 
L 353.295874 151.58731 
L 353.147586 151.330949 
L 348.517699 142.411034 
L 342.620484 133.234759 
L 340.833103 130.767312 
L 335.864462 124.058483 
L 328.518621 115.891098 
L 327.482085 114.882207 
L 316.7422 105.705931 
L 316.204138 105.281742 
L 303.889655 97.887176 
L 300.441444 96.529655 
L 291.575172 92.974138 
L 279.26069 90.188326 
L 266.946207 89.027643 
L 254.631724 89.084665 
L 242.317241 90.15744 
L 230.002759 92.165749 
L 217.688276 95.117606 
L 213.041557 96.529655 
L 205.373793 98.61165 
L 193.05931 102.723337 
L 185.485965 105.705931 
L 180.744828 107.54493 
L 168.430345 112.920928 
L 164.266861 114.882207 
L 156.115862 119.043181 
L 147.116488 124.058483 
L 143.801379 126.231666 
L 133.45793 133.234759 
L 131.486897 134.958206 
L 122.717854 142.411034 
L 119.172414 146.787719 
L 114.882146 151.58731 
L 109.685301 160.763586 
L 106.966822 169.939862 
L 106.857931 171.030426 
L 105.810191 179.116138 
L 106.775188 188.292414 
L 106.857931 188.544605 
L 109.094758 197.46869 
L 113.203058 206.644966 
L 119.172414 215.238086 
L 119.526152 215.821241 
L 126.87728 224.997517 
L 131.486897 229.389255 
L 136.407591 234.173793 
L 143.801379 240.098924 
L 148.127443 243.350069 
L 156.115862 248.705436 
L 162.767285 252.526345 
L 168.430345 255.661276 
L 180.744828 261.045058 
L 182.664789 261.702621 
L 193.05931 265.488998 
L 205.373793 268.49579 
L 217.688276 270.299174 
L 226.002541 270.878897 
L 230.002759 271.219523 
z
" clip-path="url(#pb893d77f45)" style="fill: none; stroke-dasharray: 5.55,2.4; stroke-dashoffset: 0; stroke: #000000; stroke-opacity: 0.5; stroke-width: 1.5"/>
   </g>
   <g id="PathCollection_5">
    <path d="M 205.373793 235.602455 
L 217.688276 239.106424 
L 230.002759 241.122752 
L 242.317241 241.838277 
L 254.631724 241.343106 
L 266.946207 239.63435 
L 279.26069 236.604549 
L 286.046078 234.173793 
L 291.575172 232.005228 
L 303.889655 225.364936 
L 304.445906 224.997517 
L 315.436742 215.821241 
L 316.204138 214.921968 
L 322.384642 206.644966 
L 326.390336 197.46869 
L 328.143128 188.292414 
L 328.058348 179.116138 
L 326.362229 169.939862 
L 323.125838 160.763586 
L 318.267629 151.58731 
L 316.204138 148.623651 
L 311.411703 142.411034 
L 303.889655 134.890345 
L 301.824262 133.234759 
L 291.575172 126.400689 
L 286.443056 124.058483 
L 279.26069 121.106207 
L 266.946207 118.188976 
L 254.631724 117.135719 
L 242.317241 117.635288 
L 230.002759 119.521219 
L 217.688276 122.740017 
L 213.985333 124.058483 
L 205.373793 127.300233 
L 193.202638 133.234759 
L 193.05931 133.314801 
L 180.744828 141.367354 
L 179.322564 142.411034 
L 169.464119 151.58731 
L 168.430345 152.92898 
L 162.577759 160.763586 
L 158.432274 169.939862 
L 156.647741 179.116138 
L 157.043881 188.292414 
L 159.641852 197.46869 
L 164.658878 206.644966 
L 168.430345 211.256059 
L 172.471869 215.821241 
L 180.744828 222.75414 
L 183.926595 224.997517 
L 193.05931 230.335381 
L 201.794747 234.173793 
L 205.373793 235.602455 
z
" clip-path="url(#pb893d77f45)" style="fill: none; stroke: #000000; stroke-opacity: 0.5; stroke-width: 1.5"/>
   </g>
   <g id="PathCollection_6">
    <path d="M 242.317241 217.022597 
L 254.631724 216.464886 
L 257.756624 215.821241 
L 266.946207 213.56402 
L 279.26069 207.902019 
L 281.132707 206.644966 
L 290.656864 197.46869 
L 291.575172 195.899109 
L 295.082509 188.292414 
L 296.245359 179.116138 
L 294.620483 169.939862 
L 291.575172 163.47417 
L 289.989482 160.763586 
L 281.074306 151.58731 
L 279.26069 150.240528 
L 266.946207 144.285735 
L 258.469562 142.411034 
L 254.631724 141.712022 
L 242.317241 141.805561 
L 238.980186 142.411034 
L 230.002759 144.30196 
L 217.688276 149.216648 
L 213.522396 151.58731 
L 205.373793 157.771484 
L 202.21459 160.763586 
L 196.078925 169.939862 
L 193.53355 179.116138 
L 194.531575 188.292414 
L 199.279326 197.46869 
L 205.373793 203.835658 
L 208.969186 206.644966 
L 217.688276 211.431425 
L 230.002759 215.551164 
L 231.9611 215.821241 
L 242.317241 217.022597 
z
" clip-path="url(#pb893d77f45)" style="fill: none; stroke-dasharray: 5.55,2.4; stroke-dashoffset: 0; stroke: #000000; stroke-opacity: 0.5; stroke-width: 1.5"/>
   </g>
   <g id="patch_3">
    <path d="M 57.6 307.584 
L 57.6 41.472 
" style="fill: none; stroke: #cccccc; stroke-linejoin: miter; stroke-linecap: square"/>
   </g>
   <g id="patch_4">
    <path d="M 414.72 307.584 
L 414.72 41.472 
" style="fill: none; stroke: #cccccc; stroke-linejoin: miter; stroke-linecap: square"/>
   </g>
   <g id="patch_5">
    <path d="M 57.6 307.584 
L 414.72 307.584 
" style="fill: none; stroke: #cccccc; stroke-linejoin: miter; stroke-linecap: square"/>
   </g>
   <g id="patch_6">
    <path d="M 57.6 41.472 
L 414.72 41.472 
" style="fill: none; stroke: #cccccc; stroke-linejoin: miter; stroke-linecap: square"/>
   </g>
  </g>
 </g>
 <defs>
  <clipPath id="pb893d77f45">
   <rect x="57.6" y="41.472" width="357.12" height="266.112"/>
  </clipPath>
 </defs>
</svg>
