<?xml version="1.0" encoding="utf-8" standalone="no"?>
<!DOCTYPE svg PUBLIC "-//W3C//DTD SVG 1.1//EN"
  "http://www.w3.org/Graphics/SVG/1.1/DTD/svg11.dtd">
<svg xmlns:xlink="http://www.w3.org/1999/xlink" width="460.8pt" height="345.6pt" viewBox="0 0 460.8 345.6" xmlns="http://www.w3.org/2000/svg" version="1.1">
 <metadata>
  <rdf:RDF xmlns:dc="http://purl.org/dc/elements/1.1/" xmlns:cc="http://creativecommons.org/ns#" xmlns:rdf="http://www.w3.org/1999/02/22-rdf-syntax-ns#">
   <cc:Work>
    <dc:type rdf:resource="http://purl.org/dc/dcmitype/StillImage"/>
    <dc:date>2023-07-30T18:17:28.098929</dc:date>
    <dc:format>image/svg+xml</dc:format>
    <dc:creator>
     <cc:Agent>
      <dc:title>Matplotlib v3.7.1, https://matplotlib.org/</dc:title>
     </cc:Agent>
    </dc:creator>
   </cc:Work>
  </rdf:RDF>
 </metadata>
 <defs>
  <style type="text/css">*{stroke-linejoin: round; stroke-linecap: butt}</style>
 </defs>
 <g id="figure_1">
  <g id="patch_1">
   <path d="M 0 345.6 
L 460.8 345.6 
L 460.8 0 
L 0 0 
z
" style="fill: #ffffff"/>
  </g>
  <g id="axes_1">
   <g id="patch_2">
    <path d="M 57.6 307.584 
L 414.72 307.584 
L 414.72 41.472 
L 57.6 41.472 
z
" style="fill: #ffffff"/>
   </g>
   <g id="matplotlib.axis_1">
    <g id="xtick_1">
     <g id="line2d_1">
      <path d="M 65.701319 307.584 
L 65.701319 41.472 
" clip-path="url(#p20dd7b4790)" style="fill: none; stroke: #cccccc; stroke-width: 0.8; stroke-linecap: round"/>
     </g>
     <g id="line2d_2"/>
     <g id="text_1">
      <!-- −6 -->
      <g style="fill: #262626" transform="translate(60.000538 318.330875) scale(0.1 -0.1)">
       <defs>
        <path id="LiberationSans-2212" d="M 316 1900 
L 316 2356 
L 3425 2356 
L 3425 1900 
L 316 1900 
z
" transform="scale(0.015625)"/>
        <path id="LiberationSans-36" d="M 3278 1441 
Q 3278 744 2900 340 
Q 2522 -63 1856 -63 
Q 1113 -63 719 490 
Q 325 1044 325 2100 
Q 325 3244 734 3856 
Q 1144 4469 1900 4469 
Q 2897 4469 3156 3572 
L 2619 3475 
Q 2453 4013 1894 4013 
Q 1413 4013 1148 3564 
Q 884 3116 884 2266 
Q 1038 2550 1316 2698 
Q 1594 2847 1953 2847 
Q 2563 2847 2920 2465 
Q 3278 2084 3278 1441 
z
M 2706 1416 
Q 2706 1894 2472 2153 
Q 2238 2413 1819 2413 
Q 1425 2413 1183 2183 
Q 941 1953 941 1550 
Q 941 1041 1192 716 
Q 1444 391 1838 391 
Q 2244 391 2475 664 
Q 2706 938 2706 1416 
z
" transform="scale(0.015625)"/>
       </defs>
       <use xlink:href="#LiberationSans-2212"/>
       <use xlink:href="#LiberationSans-36" x="58.398438"/>
      </g>
     </g>
    </g>
    <g id="xtick_2">
     <g id="line2d_3">
      <path d="M 110.57826 307.584 
L 110.57826 41.472 
" clip-path="url(#p20dd7b4790)" style="fill: none; stroke: #cccccc; stroke-width: 0.8; stroke-linecap: round"/>
     </g>
     <g id="line2d_4"/>
     <g id="text_2">
      <!-- −4 -->
      <g style="fill: #262626" transform="translate(104.877478 318.330875) scale(0.1 -0.1)">
       <defs>
        <path id="LiberationSans-34" d="M 2753 997 
L 2753 0 
L 2222 0 
L 2222 997 
L 147 997 
L 147 1434 
L 2163 4403 
L 2753 4403 
L 2753 1441 
L 3372 1441 
L 3372 997 
L 2753 997 
z
M 2222 3769 
Q 2216 3750 2134 3603 
Q 2053 3456 2013 3397 
L 884 1734 
L 716 1503 
L 666 1441 
L 2222 1441 
L 2222 3769 
z
" transform="scale(0.015625)"/>
       </defs>
       <use xlink:href="#LiberationSans-2212"/>
       <use xlink:href="#LiberationSans-34" x="58.398438"/>
      </g>
     </g>
    </g>
    <g id="xtick_3">
     <g id="line2d_5">
      <path d="M 155.4552 307.584 
L 155.4552 41.472 
" clip-path="url(#p20dd7b4790)" style="fill: none; stroke: #cccccc; stroke-width: 0.8; stroke-linecap: round"/>
     </g>
     <g id="line2d_6"/>
     <g id="text_3">
      <!-- −2 -->
      <g style="fill: #262626" transform="translate(149.754419 318.330875) scale(0.1 -0.1)">
       <defs>
        <path id="LiberationSans-32" d="M 322 0 
L 322 397 
Q 481 763 711 1042 
Q 941 1322 1194 1548 
Q 1447 1775 1695 1969 
Q 1944 2163 2144 2356 
Q 2344 2550 2467 2762 
Q 2591 2975 2591 3244 
Q 2591 3606 2378 3806 
Q 2166 4006 1788 4006 
Q 1428 4006 1195 3811 
Q 963 3616 922 3263 
L 347 3316 
Q 409 3844 795 4156 
Q 1181 4469 1788 4469 
Q 2453 4469 2811 4155 
Q 3169 3841 3169 3263 
Q 3169 3006 3051 2753 
Q 2934 2500 2703 2247 
Q 2472 1994 1819 1463 
Q 1459 1169 1246 933 
Q 1034 697 941 478 
L 3238 478 
L 3238 0 
L 322 0 
z
" transform="scale(0.015625)"/>
       </defs>
       <use xlink:href="#LiberationSans-2212"/>
       <use xlink:href="#LiberationSans-32" x="58.398438"/>
      </g>
     </g>
    </g>
    <g id="xtick_4">
     <g id="line2d_7">
      <path d="M 200.33214 307.584 
L 200.33214 41.472 
" clip-path="url(#p20dd7b4790)" style="fill: none; stroke: #cccccc; stroke-width: 0.8; stroke-linecap: round"/>
     </g>
     <g id="line2d_8"/>
     <g id="text_4">
      <!-- 0 -->
      <g style="fill: #262626" transform="translate(197.551672 318.330875) scale(0.1 -0.1)">
       <defs>
        <path id="LiberationSans-30" d="M 3309 2203 
Q 3309 1100 2920 518 
Q 2531 -63 1772 -63 
Q 1013 -63 631 515 
Q 250 1094 250 2203 
Q 250 3338 620 3903 
Q 991 4469 1791 4469 
Q 2569 4469 2939 3897 
Q 3309 3325 3309 2203 
z
M 2738 2203 
Q 2738 3156 2517 3584 
Q 2297 4013 1791 4013 
Q 1272 4013 1045 3591 
Q 819 3169 819 2203 
Q 819 1266 1048 831 
Q 1278 397 1778 397 
Q 2275 397 2506 840 
Q 2738 1284 2738 2203 
z
" transform="scale(0.015625)"/>
       </defs>
       <use xlink:href="#LiberationSans-30"/>
      </g>
     </g>
    </g>
    <g id="xtick_5">
     <g id="line2d_9">
      <path d="M 245.209081 307.584 
L 245.209081 41.472 
" clip-path="url(#p20dd7b4790)" style="fill: none; stroke: #cccccc; stroke-width: 0.8; stroke-linecap: round"/>
     </g>
     <g id="line2d_10"/>
     <g id="text_5">
      <!-- 2 -->
      <g style="fill: #262626" transform="translate(242.428612 318.330875) scale(0.1 -0.1)">
       <use xlink:href="#LiberationSans-32"/>
      </g>
     </g>
    </g>
    <g id="xtick_6">
     <g id="line2d_11">
      <path d="M 290.086021 307.584 
L 290.086021 41.472 
" clip-path="url(#p20dd7b4790)" style="fill: none; stroke: #cccccc; stroke-width: 0.8; stroke-linecap: round"/>
     </g>
     <g id="line2d_12"/>
     <g id="text_6">
      <!-- 4 -->
      <g style="fill: #262626" transform="translate(287.305552 318.330875) scale(0.1 -0.1)">
       <use xlink:href="#LiberationSans-34"/>
      </g>
     </g>
    </g>
    <g id="xtick_7">
     <g id="line2d_13">
      <path d="M 334.962961 307.584 
L 334.962961 41.472 
" clip-path="url(#p20dd7b4790)" style="fill: none; stroke: #cccccc; stroke-width: 0.8; stroke-linecap: round"/>
     </g>
     <g id="line2d_14"/>
     <g id="text_7">
      <!-- 6 -->
      <g style="fill: #262626" transform="translate(332.182493 318.330875) scale(0.1 -0.1)">
       <use xlink:href="#LiberationSans-36"/>
      </g>
     </g>
    </g>
    <g id="xtick_8">
     <g id="line2d_15">
      <path d="M 379.839902 307.584 
L 379.839902 41.472 
" clip-path="url(#p20dd7b4790)" style="fill: none; stroke: #cccccc; stroke-width: 0.8; stroke-linecap: round"/>
     </g>
     <g id="line2d_16"/>
     <g id="text_8">
      <!-- 8 -->
      <g style="fill: #262626" transform="translate(377.059433 318.330875) scale(0.1 -0.1)">
       <defs>
        <path id="LiberationSans-38" d="M 3281 1228 
Q 3281 619 2893 278 
Q 2506 -63 1781 -63 
Q 1075 -63 676 271 
Q 278 606 278 1222 
Q 278 1653 525 1947 
Q 772 2241 1156 2303 
L 1156 2316 
Q 797 2400 589 2681 
Q 381 2963 381 3341 
Q 381 3844 757 4156 
Q 1134 4469 1769 4469 
Q 2419 4469 2795 4162 
Q 3172 3856 3172 3334 
Q 3172 2956 2962 2675 
Q 2753 2394 2391 2322 
L 2391 2309 
Q 2813 2241 3047 1952 
Q 3281 1663 3281 1228 
z
M 2588 3303 
Q 2588 4050 1769 4050 
Q 1372 4050 1164 3862 
Q 956 3675 956 3303 
Q 956 2925 1170 2726 
Q 1384 2528 1775 2528 
Q 2172 2528 2380 2711 
Q 2588 2894 2588 3303 
z
M 2697 1281 
Q 2697 1691 2453 1898 
Q 2209 2106 1769 2106 
Q 1341 2106 1100 1882 
Q 859 1659 859 1269 
Q 859 359 1788 359 
Q 2247 359 2472 579 
Q 2697 800 2697 1281 
z
" transform="scale(0.015625)"/>
       </defs>
       <use xlink:href="#LiberationSans-38"/>
      </g>
     </g>
    </g>
   </g>
   <g id="matplotlib.axis_2">
    <g id="ytick_1">
     <g id="line2d_17">
      <path d="M 57.6 307.584 
L 414.72 307.584 
" clip-path="url(#p20dd7b4790)" style="fill: none; stroke: #cccccc; stroke-width: 0.8; stroke-linecap: round"/>
     </g>
     <g id="line2d_18"/>
     <g id="text_9">
      <!-- 0.0 -->
      <g style="fill: #262626" transform="translate(40.2 311.207437) scale(0.1 -0.1)">
       <defs>
        <path id="LiberationSans-2e" d="M 584 0 
L 584 684 
L 1194 684 
L 1194 0 
L 584 0 
z
" transform="scale(0.015625)"/>
       </defs>
       <use xlink:href="#LiberationSans-30"/>
       <use xlink:href="#LiberationSans-2e" x="55.615234"/>
       <use xlink:href="#LiberationSans-30" x="83.398438"/>
      </g>
     </g>
    </g>
    <g id="ytick_2">
     <g id="line2d_19">
      <path d="M 57.6 257.095662 
L 414.72 257.095662 
" clip-path="url(#p20dd7b4790)" style="fill: none; stroke: #cccccc; stroke-width: 0.8; stroke-linecap: round"/>
     </g>
     <g id="line2d_20"/>
     <g id="text_10">
      <!-- 0.1 -->
      <g style="fill: #262626" transform="translate(40.2 260.719099) scale(0.1 -0.1)">
       <defs>
        <path id="LiberationSans-31" d="M 488 0 
L 488 478 
L 1609 478 
L 1609 3866 
L 616 3156 
L 616 3688 
L 1656 4403 
L 2175 4403 
L 2175 478 
L 3247 478 
L 3247 0 
L 488 0 
z
" transform="scale(0.015625)"/>
       </defs>
       <use xlink:href="#LiberationSans-30"/>
       <use xlink:href="#LiberationSans-2e" x="55.615234"/>
       <use xlink:href="#LiberationSans-31" x="83.398438"/>
      </g>
     </g>
    </g>
    <g id="ytick_3">
     <g id="line2d_21">
      <path d="M 57.6 206.607323 
L 414.72 206.607323 
" clip-path="url(#p20dd7b4790)" style="fill: none; stroke: #cccccc; stroke-width: 0.8; stroke-linecap: round"/>
     </g>
     <g id="line2d_22"/>
     <g id="text_11">
      <!-- 0.2 -->
      <g style="fill: #262626" transform="translate(40.2 210.230761) scale(0.1 -0.1)">
       <use xlink:href="#LiberationSans-30"/>
       <use xlink:href="#LiberationSans-2e" x="55.615234"/>
       <use xlink:href="#LiberationSans-32" x="83.398438"/>
      </g>
     </g>
    </g>
    <g id="ytick_4">
     <g id="line2d_23">
      <path d="M 57.6 156.118985 
L 414.72 156.118985 
" clip-path="url(#p20dd7b4790)" style="fill: none; stroke: #cccccc; stroke-width: 0.8; stroke-linecap: round"/>
     </g>
     <g id="line2d_24"/>
     <g id="text_12">
      <!-- 0.3 -->
      <g style="fill: #262626" transform="translate(40.2 159.742422) scale(0.1 -0.1)">
       <defs>
        <path id="LiberationSans-33" d="M 3278 1216 
Q 3278 606 2890 271 
Q 2503 -63 1784 -63 
Q 1116 -63 717 239 
Q 319 541 244 1131 
L 825 1184 
Q 938 403 1784 403 
Q 2209 403 2451 612 
Q 2694 822 2694 1234 
Q 2694 1594 2417 1795 
Q 2141 1997 1619 1997 
L 1300 1997 
L 1300 2484 
L 1606 2484 
Q 2069 2484 2323 2686 
Q 2578 2888 2578 3244 
Q 2578 3597 2370 3801 
Q 2163 4006 1753 4006 
Q 1381 4006 1151 3815 
Q 922 3625 884 3278 
L 319 3322 
Q 381 3863 767 4166 
Q 1153 4469 1759 4469 
Q 2422 4469 2789 4161 
Q 3156 3853 3156 3303 
Q 3156 2881 2920 2617 
Q 2684 2353 2234 2259 
L 2234 2247 
Q 2728 2194 3003 1916 
Q 3278 1638 3278 1216 
z
" transform="scale(0.015625)"/>
       </defs>
       <use xlink:href="#LiberationSans-30"/>
       <use xlink:href="#LiberationSans-2e" x="55.615234"/>
       <use xlink:href="#LiberationSans-33" x="83.398438"/>
      </g>
     </g>
    </g>
    <g id="ytick_5">
     <g id="line2d_25">
      <path d="M 57.6 105.630646 
L 414.72 105.630646 
" clip-path="url(#p20dd7b4790)" style="fill: none; stroke: #cccccc; stroke-width: 0.8; stroke-linecap: round"/>
     </g>
     <g id="line2d_26"/>
     <g id="text_13">
      <!-- 0.4 -->
      <g style="fill: #262626" transform="translate(40.2 109.254084) scale(0.1 -0.1)">
       <use xlink:href="#LiberationSans-30"/>
       <use xlink:href="#LiberationSans-2e" x="55.615234"/>
       <use xlink:href="#LiberationSans-34" x="83.398438"/>
      </g>
     </g>
    </g>
    <g id="ytick_6">
     <g id="line2d_27">
      <path d="M 57.6 55.142308 
L 414.72 55.142308 
" clip-path="url(#p20dd7b4790)" style="fill: none; stroke: #cccccc; stroke-width: 0.8; stroke-linecap: round"/>
     </g>
     <g id="line2d_28"/>
     <g id="text_14">
      <!-- 0.5 -->
      <g style="fill: #262626" transform="translate(40.2 58.765745) scale(0.1 -0.1)">
       <defs>
        <path id="LiberationSans-35" d="M 3291 1434 
Q 3291 738 2877 337 
Q 2463 -63 1728 -63 
Q 1113 -63 734 206 
Q 356 475 256 984 
L 825 1050 
Q 1003 397 1741 397 
Q 2194 397 2450 670 
Q 2706 944 2706 1422 
Q 2706 1838 2448 2094 
Q 2191 2350 1753 2350 
Q 1525 2350 1328 2278 
Q 1131 2206 934 2034 
L 384 2034 
L 531 4403 
L 3034 4403 
L 3034 3925 
L 1044 3925 
L 959 2528 
Q 1325 2809 1869 2809 
Q 2519 2809 2905 2428 
Q 3291 2047 3291 1434 
z
" transform="scale(0.015625)"/>
       </defs>
       <use xlink:href="#LiberationSans-30"/>
       <use xlink:href="#LiberationSans-2e" x="55.615234"/>
       <use xlink:href="#LiberationSans-35" x="83.398438"/>
      </g>
     </g>
    </g>
   </g>
   <g id="patch_3">
    <path d="M 135.644843 307.584 
L 135.644843 303.684923 
L 138.550354 303.684923 
L 138.550354 303.684923 
L 141.455865 303.684923 
L 141.455865 307.584 
L 144.361376 307.584 
L 144.361376 307.584 
L 147.266887 307.584 
L 147.266887 303.684923 
L 150.172398 303.684923 
L 150.172398 303.684923 
L 153.077909 303.684923 
L 153.077909 295.886769 
L 155.98342 295.886769 
L 155.98342 303.684923 
L 158.888931 303.684923 
L 158.888931 264.694154 
L 161.794442 264.694154 
L 161.794442 280.290462 
L 164.699953 280.290462 
L 164.699953 268.593231 
L 167.605464 268.593231 
L 167.605464 249.097846 
L 170.510975 249.097846 
L 170.510975 206.208 
L 173.416486 206.208 
L 173.416486 233.501538 
L 176.321997 233.501538 
L 176.321997 190.611692 
L 179.227508 190.611692 
L 179.227508 175.015385 
L 182.133018 175.015385 
L 182.133018 155.52 
L 185.038529 155.52 
L 185.038529 69.740308 
L 187.94404 69.740308 
L 187.94404 104.832 
L 190.849551 104.832 
L 190.849551 89.235692 
L 193.755062 89.235692 
L 193.755062 54.144 
L 196.660573 54.144 
L 196.660573 69.740308 
L 199.566084 69.740308 
L 199.566084 155.52 
L 202.471595 155.52 
L 202.471595 61.942154 
L 205.377106 61.942154 
L 205.377106 73.639385 
L 208.282617 73.639385 
L 208.282617 77.538462 
L 211.188128 77.538462 
L 211.188128 112.630154 
L 214.093639 112.630154 
L 214.093639 128.226462 
L 216.99915 128.226462 
L 216.99915 128.226462 
L 219.904661 128.226462 
L 219.904661 178.914462 
L 222.810172 178.914462 
L 222.810172 198.409846 
L 225.715683 198.409846 
L 225.715683 217.905231 
L 228.621194 217.905231 
L 228.621194 233.501538 
L 231.526705 233.501538 
L 231.526705 256.896 
L 234.432216 256.896 
L 234.432216 272.492308 
L 237.337727 272.492308 
L 237.337727 272.492308 
L 240.243238 272.492308 
L 240.243238 295.886769 
L 243.148749 295.886769 
L 243.148749 299.785846 
L 246.05426 299.785846 
L 246.05426 295.886769 
L 248.959771 295.886769 
L 248.959771 303.684923 
L 251.865282 303.684923 
L 251.865282 307.584 
L 248.959771 307.584 
L 248.959771 307.584 
L 246.05426 307.584 
L 246.05426 307.584 
L 243.148749 307.584 
L 243.148749 307.584 
L 240.243238 307.584 
L 240.243238 307.584 
L 237.337727 307.584 
L 237.337727 307.584 
L 234.432216 307.584 
L 234.432216 307.584 
L 231.526705 307.584 
L 231.526705 307.584 
L 228.621194 307.584 
L 228.621194 307.584 
L 225.715683 307.584 
L 225.715683 307.584 
L 222.810172 307.584 
L 222.810172 307.584 
L 219.904661 307.584 
L 219.904661 307.584 
L 216.99915 307.584 
L 216.99915 307.584 
L 214.093639 307.584 
L 214.093639 307.584 
L 211.188128 307.584 
L 211.188128 307.584 
L 208.282617 307.584 
L 208.282617 307.584 
L 205.377106 307.584 
L 205.377106 307.584 
L 202.471595 307.584 
L 202.471595 307.584 
L 199.566084 307.584 
L 199.566084 307.584 
L 196.660573 307.584 
L 196.660573 307.584 
L 193.755062 307.584 
L 193.755062 307.584 
L 190.849551 307.584 
L 190.849551 307.584 
L 187.94404 307.584 
L 187.94404 307.584 
L 185.038529 307.584 
L 185.038529 307.584 
L 182.133018 307.584 
L 182.133018 307.584 
L 179.227508 307.584 
L 179.227508 307.584 
L 176.321997 307.584 
L 176.321997 307.584 
L 173.416486 307.584 
L 173.416486 307.584 
L 170.510975 307.584 
L 170.510975 307.584 
L 167.605464 307.584 
L 167.605464 307.584 
L 164.699953 307.584 
L 164.699953 307.584 
L 161.794442 307.584 
L 161.794442 307.584 
L 158.888931 307.584 
L 158.888931 307.584 
L 155.98342 307.584 
L 155.98342 307.584 
L 153.077909 307.584 
L 153.077909 307.584 
L 150.172398 307.584 
L 150.172398 307.584 
L 147.266887 307.584 
L 147.266887 307.584 
L 144.361376 307.584 
L 144.361376 307.584 
L 141.455865 307.584 
L 141.455865 307.584 
L 138.550354 307.584 
L 138.550354 307.584 
z
" clip-path="url(#p20dd7b4790)" style="fill: #1f77b4; opacity: 0.3"/>
   </g>
   <g id="patch_4">
    <path d="M 73.832727 307.584 
L 73.832727 301.638979 
L 77.64392 301.638979 
L 77.64392 304.61149 
L 81.455113 304.61149 
L 81.455113 304.61149 
L 85.266306 304.61149 
L 85.266306 301.638979 
L 89.077499 301.638979 
L 89.077499 304.61149 
L 92.888692 304.61149 
L 92.888692 307.584 
L 96.699885 307.584 
L 96.699885 286.776427 
L 100.511078 286.776427 
L 100.511078 295.693958 
L 104.322271 295.693958 
L 104.322271 289.748937 
L 108.133464 289.748937 
L 108.133464 292.721448 
L 111.944657 292.721448 
L 111.944657 274.886385 
L 115.75585 274.886385 
L 115.75585 260.023833 
L 119.567043 260.023833 
L 119.567043 262.996344 
L 123.378236 262.996344 
L 123.378236 197.601114 
L 127.189429 197.601114 
L 127.189429 227.326219 
L 131.000622 227.326219 
L 131.000622 188.683583 
L 134.811815 188.683583 
L 134.811815 167.87601 
L 138.623008 167.87601 
L 138.623008 120.315844 
L 142.4342 120.315844 
L 142.4342 123.288354 
L 146.245393 123.288354 
L 146.245393 153.013458 
L 150.056586 153.013458 
L 150.056586 105.453291 
L 153.867779 105.453291 
L 153.867779 111.398312 
L 157.678972 111.398312 
L 157.678972 141.123417 
L 161.490165 141.123417 
L 161.490165 120.315844 
L 165.301358 120.315844 
L 165.301358 129.233375 
L 169.112551 129.233375 
L 169.112551 141.123417 
L 172.923744 141.123417 
L 172.923744 179.766052 
L 176.734937 179.766052 
L 176.734937 188.683583 
L 180.54613 188.683583 
L 180.54613 200.573625 
L 184.357323 200.573625 
L 184.357323 218.408687 
L 188.168516 218.408687 
L 188.168516 260.023833 
L 191.979709 260.023833 
L 191.979709 251.106302 
L 195.790902 251.106302 
L 195.790902 265.968854 
L 199.602095 265.968854 
L 199.602095 265.968854 
L 203.413288 265.968854 
L 203.413288 286.776427 
L 207.224481 286.776427 
L 207.224481 286.776427 
L 211.035674 286.776427 
L 211.035674 301.638979 
L 214.846867 301.638979 
L 214.846867 301.638979 
L 218.65806 301.638979 
L 218.65806 304.61149 
L 222.469253 304.61149 
L 222.469253 304.61149 
L 226.280446 304.61149 
L 226.280446 307.584 
L 222.469253 307.584 
L 222.469253 307.584 
L 218.65806 307.584 
L 218.65806 307.584 
L 214.846867 307.584 
L 214.846867 307.584 
L 211.035674 307.584 
L 211.035674 307.584 
L 207.224481 307.584 
L 207.224481 307.584 
L 203.413288 307.584 
L 203.413288 307.584 
L 199.602095 307.584 
L 199.602095 307.584 
L 195.790902 307.584 
L 195.790902 307.584 
L 191.979709 307.584 
L 191.979709 307.584 
L 188.168516 307.584 
L 188.168516 307.584 
L 184.357323 307.584 
L 184.357323 307.584 
L 180.54613 307.584 
L 180.54613 307.584 
L 176.734937 307.584 
L 176.734937 307.584 
L 172.923744 307.584 
L 172.923744 307.584 
L 169.112551 307.584 
L 169.112551 307.584 
L 165.301358 307.584 
L 165.301358 307.584 
L 161.490165 307.584 
L 161.490165 307.584 
L 157.678972 307.584 
L 157.678972 307.584 
L 153.867779 307.584 
L 153.867779 307.584 
L 150.056586 307.584 
L 150.056586 307.584 
L 146.245393 307.584 
L 146.245393 307.584 
L 142.4342 307.584 
L 142.4342 307.584 
L 138.623008 307.584 
L 138.623008 307.584 
L 134.811815 307.584 
L 134.811815 307.584 
L 131.000622 307.584 
L 131.000622 307.584 
L 127.189429 307.584 
L 127.189429 307.584 
L 123.378236 307.584 
L 123.378236 307.584 
L 119.567043 307.584 
L 119.567043 307.584 
L 115.75585 307.584 
L 115.75585 307.584 
L 111.944657 307.584 
L 111.944657 307.584 
L 108.133464 307.584 
L 108.133464 307.584 
L 104.322271 307.584 
L 104.322271 307.584 
L 100.511078 307.584 
L 100.511078 307.584 
L 96.699885 307.584 
L 96.699885 307.584 
L 92.888692 307.584 
L 92.888692 307.584 
L 89.077499 307.584 
L 89.077499 307.584 
L 85.266306 307.584 
L 85.266306 307.584 
L 81.455113 307.584 
L 81.455113 307.584 
L 77.64392 307.584 
L 77.64392 307.584 
z
" clip-path="url(#p20dd7b4790)" style="fill: #ff7f0e; opacity: 0.3"/>
   </g>
   <g id="patch_5">
    <path d="M 128.87259 307.584 
L 128.87259 304.222518 
L 135.612957 304.222518 
L 135.612957 305.903259 
L 142.353324 305.903259 
L 142.353324 305.903259 
L 149.093691 305.903259 
L 149.093691 307.584 
L 155.834058 307.584 
L 155.834058 302.541777 
L 162.574425 302.541777 
L 162.574425 305.903259 
L 169.314792 305.903259 
L 169.314792 289.09585 
L 176.055159 289.09585 
L 176.055159 302.541777 
L 182.795526 302.541777 
L 182.795526 284.053627 
L 189.535893 284.053627 
L 189.535893 282.372886 
L 196.276261 282.372886 
L 196.276261 270.6077 
L 203.016628 270.6077 
L 203.016628 272.288441 
L 209.756995 272.288441 
L 209.756995 265.565477 
L 216.497362 265.565477 
L 216.497362 252.11955 
L 223.237729 252.11955 
L 223.237729 240.354363 
L 229.978096 240.354363 
L 229.978096 203.378063 
L 236.718463 203.378063 
L 236.718463 231.950658 
L 243.45883 231.950658 
L 243.45883 230.269918 
L 250.199197 230.269918 
L 250.199197 221.866213 
L 256.939564 221.866213 
L 256.939564 211.781767 
L 263.679931 211.781767 
L 263.679931 193.293617 
L 270.420298 193.293617 
L 270.420298 226.908436 
L 277.160665 226.908436 
L 277.160665 220.185472 
L 283.901032 220.185472 
L 283.901032 191.612876 
L 290.6414 191.612876 
L 290.6414 236.992881 
L 297.381767 236.992881 
L 297.381767 223.546954 
L 304.122134 223.546954 
L 304.122134 240.354363 
L 310.862501 240.354363 
L 310.862501 233.631399 
L 317.602868 233.631399 
L 317.602868 255.481031 
L 324.343235 255.481031 
L 324.343235 265.565477 
L 331.083602 265.565477 
L 331.083602 279.011404 
L 337.823969 279.011404 
L 337.823969 268.926959 
L 344.564336 268.926959 
L 344.564336 292.457332 
L 351.304703 292.457332 
L 351.304703 290.776591 
L 358.04507 290.776591 
L 358.04507 297.499554 
L 364.785437 297.499554 
L 364.785437 295.818814 
L 371.525804 295.818814 
L 371.525804 304.222518 
L 378.266172 304.222518 
L 378.266172 305.903259 
L 385.006539 305.903259 
L 385.006539 307.584 
L 391.746906 307.584 
L 391.746906 302.541777 
L 398.487273 302.541777 
L 398.487273 307.584 
L 391.746906 307.584 
L 391.746906 307.584 
L 385.006539 307.584 
L 385.006539 307.584 
L 378.266172 307.584 
L 378.266172 307.584 
L 371.525804 307.584 
L 371.525804 307.584 
L 364.785437 307.584 
L 364.785437 307.584 
L 358.04507 307.584 
L 358.04507 307.584 
L 351.304703 307.584 
L 351.304703 307.584 
L 344.564336 307.584 
L 344.564336 307.584 
L 337.823969 307.584 
L 337.823969 307.584 
L 331.083602 307.584 
L 331.083602 307.584 
L 324.343235 307.584 
L 324.343235 307.584 
L 317.602868 307.584 
L 317.602868 307.584 
L 310.862501 307.584 
L 310.862501 307.584 
L 304.122134 307.584 
L 304.122134 307.584 
L 297.381767 307.584 
L 297.381767 307.584 
L 290.6414 307.584 
L 290.6414 307.584 
L 283.901032 307.584 
L 283.901032 307.584 
L 277.160665 307.584 
L 277.160665 307.584 
L 270.420298 307.584 
L 270.420298 307.584 
L 263.679931 307.584 
L 263.679931 307.584 
L 256.939564 307.584 
L 256.939564 307.584 
L 250.199197 307.584 
L 250.199197 307.584 
L 243.45883 307.584 
L 243.45883 307.584 
L 236.718463 307.584 
L 236.718463 307.584 
L 229.978096 307.584 
L 229.978096 307.584 
L 223.237729 307.584 
L 223.237729 307.584 
L 216.497362 307.584 
L 216.497362 307.584 
L 209.756995 307.584 
L 209.756995 307.584 
L 203.016628 307.584 
L 203.016628 307.584 
L 196.276261 307.584 
L 196.276261 307.584 
L 189.535893 307.584 
L 189.535893 307.584 
L 182.795526 307.584 
L 182.795526 307.584 
L 176.055159 307.584 
L 176.055159 307.584 
L 169.314792 307.584 
L 169.314792 307.584 
L 162.574425 307.584 
L 162.574425 307.584 
L 155.834058 307.584 
L 155.834058 307.584 
L 149.093691 307.584 
L 149.093691 307.584 
L 142.353324 307.584 
L 142.353324 307.584 
L 135.612957 307.584 
L 135.612957 307.584 
z
" clip-path="url(#p20dd7b4790)" style="fill: #2ca02c; opacity: 0.3"/>
   </g>
   <g id="patch_6">
    <path d="M 57.6 307.584 
L 57.6 41.472 
" style="fill: none; stroke: #cccccc; stroke-linejoin: miter; stroke-linecap: square"/>
   </g>
   <g id="patch_7">
    <path d="M 414.72 307.584 
L 414.72 41.472 
" style="fill: none; stroke: #cccccc; stroke-linejoin: miter; stroke-linecap: square"/>
   </g>
   <g id="patch_8">
    <path d="M 57.6 307.584 
L 414.72 307.584 
" style="fill: none; stroke: #cccccc; stroke-linejoin: miter; stroke-linecap: square"/>
   </g>
   <g id="patch_9">
    <path d="M 57.6 41.472 
L 414.72 41.472 
" style="fill: none; stroke: #cccccc; stroke-linejoin: miter; stroke-linecap: square"/>
   </g>
  </g>
 </g>
 <defs>
  <clipPath id="p20dd7b4790">
   <rect x="57.6" y="41.472" width="357.12" height="266.112"/>
  </clipPath>
 </defs>
</svg>
