<?xml version="1.0" encoding="utf-8" standalone="no"?>
<!DOCTYPE svg PUBLIC "-//W3C//DTD SVG 1.1//EN"
  "http://www.w3.org/Graphics/SVG/1.1/DTD/svg11.dtd">
<svg xmlns:xlink="http://www.w3.org/1999/xlink" width="460.8pt" height="345.6pt" viewBox="0 0 460.8 345.6" xmlns="http://www.w3.org/2000/svg" version="1.1">
 <metadata>
  <rdf:RDF xmlns:dc="http://purl.org/dc/elements/1.1/" xmlns:cc="http://creativecommons.org/ns#" xmlns:rdf="http://www.w3.org/1999/02/22-rdf-syntax-ns#">
   <cc:Work>
    <dc:type rdf:resource="http://purl.org/dc/dcmitype/StillImage"/>
    <dc:date>2023-07-30T19:53:39.335298</dc:date>
    <dc:format>image/svg+xml</dc:format>
    <dc:creator>
     <cc:Agent>
      <dc:title>Matplotlib v3.7.1, https://matplotlib.org/</dc:title>
     </cc:Agent>
    </dc:creator>
   </cc:Work>
  </rdf:RDF>
 </metadata>
 <defs>
  <style type="text/css">*{stroke-linejoin: round; stroke-linecap: butt}</style>
 </defs>
 <g id="figure_1">
  <g id="patch_1">
   <path d="M 0 345.6 
L 460.8 345.6 
L 460.8 0 
L 0 0 
z
" style="fill: #ffffff"/>
  </g>
  <g id="axes_1">
   <g id="patch_2">
    <path d="M 57.6 307.584 
L 414.72 307.584 
L 414.72 41.472 
L 57.6 41.472 
z
" style="fill: #ffffff"/>
   </g>
   <g id="matplotlib.axis_1">
    <g id="xtick_1">
     <g id="line2d_1">
      <path d="M 73.832727 307.584 
L 73.832727 41.472 
" clip-path="url(#p323838093f)" style="fill: none; stroke: #cccccc; stroke-width: 0.8; stroke-linecap: round"/>
     </g>
     <g id="line2d_2"/>
     <g id="text_1">
      <!-- 0 -->
      <g style="fill: #262626" transform="translate(71.052259 318.330875) scale(0.1 -0.1)">
       <defs>
        <path id="LiberationSans-30" d="M 3309 2203 
Q 3309 1100 2920 518 
Q 2531 -63 1772 -63 
Q 1013 -63 631 515 
Q 250 1094 250 2203 
Q 250 3338 620 3903 
Q 991 4469 1791 4469 
Q 2569 4469 2939 3897 
Q 3309 3325 3309 2203 
z
M 2738 2203 
Q 2738 3156 2517 3584 
Q 2297 4013 1791 4013 
Q 1272 4013 1045 3591 
Q 819 3169 819 2203 
Q 819 1266 1048 831 
Q 1278 397 1778 397 
Q 2275 397 2506 840 
Q 2738 1284 2738 2203 
z
" transform="scale(0.015625)"/>
       </defs>
       <use xlink:href="#LiberationSans-30"/>
      </g>
     </g>
    </g>
    <g id="xtick_2">
     <g id="line2d_3">
      <path d="M 138.763636 307.584 
L 138.763636 41.472 
" clip-path="url(#p323838093f)" style="fill: none; stroke: #cccccc; stroke-width: 0.8; stroke-linecap: round"/>
     </g>
     <g id="line2d_4"/>
     <g id="text_2">
      <!-- 2 -->
      <g style="fill: #262626" transform="translate(135.983168 318.330875) scale(0.1 -0.1)">
       <defs>
        <path id="LiberationSans-32" d="M 322 0 
L 322 397 
Q 481 763 711 1042 
Q 941 1322 1194 1548 
Q 1447 1775 1695 1969 
Q 1944 2163 2144 2356 
Q 2344 2550 2467 2762 
Q 2591 2975 2591 3244 
Q 2591 3606 2378 3806 
Q 2166 4006 1788 4006 
Q 1428 4006 1195 3811 
Q 963 3616 922 3263 
L 347 3316 
Q 409 3844 795 4156 
Q 1181 4469 1788 4469 
Q 2453 4469 2811 4155 
Q 3169 3841 3169 3263 
Q 3169 3006 3051 2753 
Q 2934 2500 2703 2247 
Q 2472 1994 1819 1463 
Q 1459 1169 1246 933 
Q 1034 697 941 478 
L 3238 478 
L 3238 0 
L 322 0 
z
" transform="scale(0.015625)"/>
       </defs>
       <use xlink:href="#LiberationSans-32"/>
      </g>
     </g>
    </g>
    <g id="xtick_3">
     <g id="line2d_5">
      <path d="M 203.694545 307.584 
L 203.694545 41.472 
" clip-path="url(#p323838093f)" style="fill: none; stroke: #cccccc; stroke-width: 0.8; stroke-linecap: round"/>
     </g>
     <g id="line2d_6"/>
     <g id="text_3">
      <!-- 4 -->
      <g style="fill: #262626" transform="translate(200.914077 318.330875) scale(0.1 -0.1)">
       <defs>
        <path id="LiberationSans-34" d="M 2753 997 
L 2753 0 
L 2222 0 
L 2222 997 
L 147 997 
L 147 1434 
L 2163 4403 
L 2753 4403 
L 2753 1441 
L 3372 1441 
L 3372 997 
L 2753 997 
z
M 2222 3769 
Q 2216 3750 2134 3603 
Q 2053 3456 2013 3397 
L 884 1734 
L 716 1503 
L 666 1441 
L 2222 1441 
L 2222 3769 
z
" transform="scale(0.015625)"/>
       </defs>
       <use xlink:href="#LiberationSans-34"/>
      </g>
     </g>
    </g>
    <g id="xtick_4">
     <g id="line2d_7">
      <path d="M 268.625455 307.584 
L 268.625455 41.472 
" clip-path="url(#p323838093f)" style="fill: none; stroke: #cccccc; stroke-width: 0.8; stroke-linecap: round"/>
     </g>
     <g id="line2d_8"/>
     <g id="text_4">
      <!-- 6 -->
      <g style="fill: #262626" transform="translate(265.844986 318.330875) scale(0.1 -0.1)">
       <defs>
        <path id="LiberationSans-36" d="M 3278 1441 
Q 3278 744 2900 340 
Q 2522 -63 1856 -63 
Q 1113 -63 719 490 
Q 325 1044 325 2100 
Q 325 3244 734 3856 
Q 1144 4469 1900 4469 
Q 2897 4469 3156 3572 
L 2619 3475 
Q 2453 4013 1894 4013 
Q 1413 4013 1148 3564 
Q 884 3116 884 2266 
Q 1038 2550 1316 2698 
Q 1594 2847 1953 2847 
Q 2563 2847 2920 2465 
Q 3278 2084 3278 1441 
z
M 2706 1416 
Q 2706 1894 2472 2153 
Q 2238 2413 1819 2413 
Q 1425 2413 1183 2183 
Q 941 1953 941 1550 
Q 941 1041 1192 716 
Q 1444 391 1838 391 
Q 2244 391 2475 664 
Q 2706 938 2706 1416 
z
" transform="scale(0.015625)"/>
       </defs>
       <use xlink:href="#LiberationSans-36"/>
      </g>
     </g>
    </g>
    <g id="xtick_5">
     <g id="line2d_9">
      <path d="M 333.556364 307.584 
L 333.556364 41.472 
" clip-path="url(#p323838093f)" style="fill: none; stroke: #cccccc; stroke-width: 0.8; stroke-linecap: round"/>
     </g>
     <g id="line2d_10"/>
     <g id="text_5">
      <!-- 8 -->
      <g style="fill: #262626" transform="translate(330.775895 318.330875) scale(0.1 -0.1)">
       <defs>
        <path id="LiberationSans-38" d="M 3281 1228 
Q 3281 619 2893 278 
Q 2506 -63 1781 -63 
Q 1075 -63 676 271 
Q 278 606 278 1222 
Q 278 1653 525 1947 
Q 772 2241 1156 2303 
L 1156 2316 
Q 797 2400 589 2681 
Q 381 2963 381 3341 
Q 381 3844 757 4156 
Q 1134 4469 1769 4469 
Q 2419 4469 2795 4162 
Q 3172 3856 3172 3334 
Q 3172 2956 2962 2675 
Q 2753 2394 2391 2322 
L 2391 2309 
Q 2813 2241 3047 1952 
Q 3281 1663 3281 1228 
z
M 2588 3303 
Q 2588 4050 1769 4050 
Q 1372 4050 1164 3862 
Q 956 3675 956 3303 
Q 956 2925 1170 2726 
Q 1384 2528 1775 2528 
Q 2172 2528 2380 2711 
Q 2588 2894 2588 3303 
z
M 2697 1281 
Q 2697 1691 2453 1898 
Q 2209 2106 1769 2106 
Q 1341 2106 1100 1882 
Q 859 1659 859 1269 
Q 859 359 1788 359 
Q 2247 359 2472 579 
Q 2697 800 2697 1281 
z
" transform="scale(0.015625)"/>
       </defs>
       <use xlink:href="#LiberationSans-38"/>
      </g>
     </g>
    </g>
    <g id="xtick_6">
     <g id="line2d_11">
      <path d="M 398.487273 307.584 
L 398.487273 41.472 
" clip-path="url(#p323838093f)" style="fill: none; stroke: #cccccc; stroke-width: 0.8; stroke-linecap: round"/>
     </g>
     <g id="line2d_12"/>
     <g id="text_6">
      <!-- 10 -->
      <g style="fill: #262626" transform="translate(392.926335 318.330875) scale(0.1 -0.1)">
       <defs>
        <path id="LiberationSans-31" d="M 488 0 
L 488 478 
L 1609 478 
L 1609 3866 
L 616 3156 
L 616 3688 
L 1656 4403 
L 2175 4403 
L 2175 478 
L 3247 478 
L 3247 0 
L 488 0 
z
" transform="scale(0.015625)"/>
       </defs>
       <use xlink:href="#LiberationSans-31"/>
       <use xlink:href="#LiberationSans-30" x="55.615234"/>
      </g>
     </g>
    </g>
   </g>
   <g id="matplotlib.axis_2">
    <g id="ytick_1">
     <g id="line2d_13">
      <path d="M 57.6 304.389818 
L 414.72 304.389818 
" clip-path="url(#p323838093f)" style="fill: none; stroke: #cccccc; stroke-width: 0.8; stroke-linecap: round"/>
     </g>
     <g id="line2d_14"/>
     <g id="text_7">
      <!-- −4 -->
      <g style="fill: #262626" transform="translate(42.698437 308.013256) scale(0.1 -0.1)">
       <defs>
        <path id="LiberationSans-2212" d="M 316 1900 
L 316 2356 
L 3425 2356 
L 3425 1900 
L 316 1900 
z
" transform="scale(0.015625)"/>
       </defs>
       <use xlink:href="#LiberationSans-2212"/>
       <use xlink:href="#LiberationSans-34" x="58.398438"/>
      </g>
     </g>
    </g>
    <g id="ytick_2">
     <g id="line2d_15">
      <path d="M 57.6 271.924364 
L 414.72 271.924364 
" clip-path="url(#p323838093f)" style="fill: none; stroke: #cccccc; stroke-width: 0.8; stroke-linecap: round"/>
     </g>
     <g id="line2d_16"/>
     <g id="text_8">
      <!-- −3 -->
      <g style="fill: #262626" transform="translate(42.698437 275.547801) scale(0.1 -0.1)">
       <defs>
        <path id="LiberationSans-33" d="M 3278 1216 
Q 3278 606 2890 271 
Q 2503 -63 1784 -63 
Q 1116 -63 717 239 
Q 319 541 244 1131 
L 825 1184 
Q 938 403 1784 403 
Q 2209 403 2451 612 
Q 2694 822 2694 1234 
Q 2694 1594 2417 1795 
Q 2141 1997 1619 1997 
L 1300 1997 
L 1300 2484 
L 1606 2484 
Q 2069 2484 2323 2686 
Q 2578 2888 2578 3244 
Q 2578 3597 2370 3801 
Q 2163 4006 1753 4006 
Q 1381 4006 1151 3815 
Q 922 3625 884 3278 
L 319 3322 
Q 381 3863 767 4166 
Q 1153 4469 1759 4469 
Q 2422 4469 2789 4161 
Q 3156 3853 3156 3303 
Q 3156 2881 2920 2617 
Q 2684 2353 2234 2259 
L 2234 2247 
Q 2728 2194 3003 1916 
Q 3278 1638 3278 1216 
z
" transform="scale(0.015625)"/>
       </defs>
       <use xlink:href="#LiberationSans-2212"/>
       <use xlink:href="#LiberationSans-33" x="58.398438"/>
      </g>
     </g>
    </g>
    <g id="ytick_3">
     <g id="line2d_17">
      <path d="M 57.6 239.458909 
L 414.72 239.458909 
" clip-path="url(#p323838093f)" style="fill: none; stroke: #cccccc; stroke-width: 0.8; stroke-linecap: round"/>
     </g>
     <g id="line2d_18"/>
     <g id="text_9">
      <!-- −2 -->
      <g style="fill: #262626" transform="translate(42.698437 243.082347) scale(0.1 -0.1)">
       <use xlink:href="#LiberationSans-2212"/>
       <use xlink:href="#LiberationSans-32" x="58.398438"/>
      </g>
     </g>
    </g>
    <g id="ytick_4">
     <g id="line2d_19">
      <path d="M 57.6 206.993455 
L 414.72 206.993455 
" clip-path="url(#p323838093f)" style="fill: none; stroke: #cccccc; stroke-width: 0.8; stroke-linecap: round"/>
     </g>
     <g id="line2d_20"/>
     <g id="text_10">
      <!-- −1 -->
      <g style="fill: #262626" transform="translate(42.698437 210.616892) scale(0.1 -0.1)">
       <use xlink:href="#LiberationSans-2212"/>
       <use xlink:href="#LiberationSans-31" x="58.398438"/>
      </g>
     </g>
    </g>
    <g id="ytick_5">
     <g id="line2d_21">
      <path d="M 57.6 174.528 
L 414.72 174.528 
" clip-path="url(#p323838093f)" style="fill: none; stroke: #cccccc; stroke-width: 0.8; stroke-linecap: round"/>
     </g>
     <g id="line2d_22"/>
     <g id="text_11">
      <!-- 0 -->
      <g style="fill: #262626" transform="translate(48.539062 178.151437) scale(0.1 -0.1)">
       <use xlink:href="#LiberationSans-30"/>
      </g>
     </g>
    </g>
    <g id="ytick_6">
     <g id="line2d_23">
      <path d="M 57.6 142.062545 
L 414.72 142.062545 
" clip-path="url(#p323838093f)" style="fill: none; stroke: #cccccc; stroke-width: 0.8; stroke-linecap: round"/>
     </g>
     <g id="line2d_24"/>
     <g id="text_12">
      <!-- 1 -->
      <g style="fill: #262626" transform="translate(48.539062 145.685983) scale(0.1 -0.1)">
       <use xlink:href="#LiberationSans-31"/>
      </g>
     </g>
    </g>
    <g id="ytick_7">
     <g id="line2d_25">
      <path d="M 57.6 109.597091 
L 414.72 109.597091 
" clip-path="url(#p323838093f)" style="fill: none; stroke: #cccccc; stroke-width: 0.8; stroke-linecap: round"/>
     </g>
     <g id="line2d_26"/>
     <g id="text_13">
      <!-- 2 -->
      <g style="fill: #262626" transform="translate(48.539062 113.220528) scale(0.1 -0.1)">
       <use xlink:href="#LiberationSans-32"/>
      </g>
     </g>
    </g>
    <g id="ytick_8">
     <g id="line2d_27">
      <path d="M 57.6 77.131636 
L 414.72 77.131636 
" clip-path="url(#p323838093f)" style="fill: none; stroke: #cccccc; stroke-width: 0.8; stroke-linecap: round"/>
     </g>
     <g id="line2d_28"/>
     <g id="text_14">
      <!-- 3 -->
      <g style="fill: #262626" transform="translate(48.539062 80.755074) scale(0.1 -0.1)">
       <use xlink:href="#LiberationSans-33"/>
      </g>
     </g>
    </g>
    <g id="ytick_9">
     <g id="line2d_29">
      <path d="M 57.6 44.666182 
L 414.72 44.666182 
" clip-path="url(#p323838093f)" style="fill: none; stroke: #cccccc; stroke-width: 0.8; stroke-linecap: round"/>
     </g>
     <g id="line2d_30"/>
     <g id="text_15">
      <!-- 4 -->
      <g style="fill: #262626" transform="translate(48.539062 48.289619) scale(0.1 -0.1)">
       <use xlink:href="#LiberationSans-34"/>
      </g>
     </g>
    </g>
   </g>
   <g id="line2d_31">
    <path d="M 73.832727 174.528 
L 83.582113 164.924489 
L 88.781785 160.101629 
L 93.331499 156.180536 
L 97.231253 153.103191 
L 100.806028 150.552527 
L 104.055823 148.484987 
L 107.305618 146.678181 
L 110.230434 145.289991 
L 113.15525 144.138942 
L 116.080066 143.234371 
L 119.004881 142.583614 
L 121.604717 142.222557 
L 124.204554 142.068557 
L 126.80439 142.122603 
L 129.404226 142.384348 
L 132.004062 142.852114 
L 134.928878 143.620827 
L 137.853694 144.64022 
L 140.778509 145.902025 
L 143.703325 147.396007 
L 146.95312 149.313496 
L 150.202916 151.483424 
L 153.77769 154.135914 
L 157.677445 157.310037 
L 162.227158 161.32338 
L 167.42683 166.22225 
L 174.90136 173.603524 
L 185.625684 184.179584 
L 190.825356 188.999448 
L 195.37507 192.91697 
L 199.274824 195.990603 
L 202.849599 198.537384 
L 206.099394 200.601037 
L 209.349189 202.403656 
L 212.274005 203.787855 
L 215.198821 204.934735 
L 218.123636 205.834994 
L 221.048452 206.48133 
L 223.648288 206.838396 
L 226.248124 206.988372 
L 228.847961 206.930297 
L 231.447797 206.664543 
L 234.047633 206.192814 
L 236.972449 205.419728 
L 239.897265 204.396087 
L 242.82208 203.130194 
L 245.746896 201.632317 
L 248.996691 199.710765 
L 252.246486 197.537091 
L 255.821261 194.880893 
L 259.721016 191.703268 
L 264.270729 187.686619 
L 269.470401 182.785078 
L 276.94493 175.402158 
L 287.669255 164.828366 
L 292.868927 160.01151 
L 297.41864 156.097568 
L 301.318395 153.027655 
L 304.89317 150.484761 
L 308.142965 148.425001 
L 311.39276 146.626575 
L 314.317576 145.246371 
L 317.242391 144.103662 
L 320.167207 143.207717 
L 323.092023 142.565803 
L 325.691859 142.212729 
L 328.291695 142.066776 
L 330.891532 142.12888 
L 333.491368 142.398642 
L 336.091204 142.874334 
L 339.01602 143.651791 
L 341.940835 144.679677 
L 344.865651 145.949655 
L 347.790467 147.451424 
L 351.040262 149.377035 
L 354.290057 151.554449 
L 357.864832 154.214349 
L 361.764586 157.395469 
L 366.3143 161.415414 
L 371.513972 166.319614 
L 379.313481 174.029073 
L 389.712826 184.275661 
L 394.912498 189.089498 
L 398.487273 192.189893 
L 398.487273 192.189893 
" clip-path="url(#p323838093f)" style="fill: none; stroke: #000000; stroke-width: 1.5; stroke-linecap: round"/>
   </g>
   <g id="line2d_32">
    <path d="M 73.832727 206.993455 
L 76.432563 206.889413 
L 79.0324 206.577954 
L 81.632236 206.061074 
L 84.557052 205.238218 
L 87.481867 204.166279 
L 90.406683 202.853952 
L 93.331499 201.311881 
L 96.581294 199.344288 
L 100.156069 196.893807 
L 103.730844 194.172431 
L 107.630598 190.933514 
L 112.180311 186.859433 
L 117.704963 181.595338 
L 126.80439 172.554172 
L 134.928878 164.590575 
L 140.12855 159.788795 
L 144.678264 155.892737 
L 148.578018 152.841366 
L 152.152793 150.317834 
L 155.402588 148.277437 
L 158.652383 146.499851 
L 161.577199 145.139494 
L 164.502015 144.0175 
L 167.42683 143.142968 
L 170.351646 142.522992 
L 172.951482 142.189715 
L 175.551319 142.063707 
L 178.151155 142.145776 
L 180.750991 142.435395 
L 183.350827 142.930708 
L 186.275643 143.7298 
L 189.200459 144.778689 
L 192.125274 146.068866 
L 195.05009 147.589868 
L 198.299885 149.535525 
L 201.549681 151.731399 
L 205.124455 154.409552 
L 209.02421 157.607881 
L 213.573923 161.644019 
L 219.098575 166.876659 
L 227.223063 174.928475 
L 236.647469 184.203612 
L 241.847142 189.021974 
L 246.396855 192.937707 
L 250.296609 196.009481 
L 253.871384 198.554319 
L 257.121179 200.616026 
L 260.370975 202.416549 
L 263.29579 203.798751 
L 266.220606 204.943545 
L 269.145422 205.841648 
L 272.070238 206.485773 
L 274.670074 206.840843 
L 277.26991 206.988808 
L 279.869746 206.928719 
L 282.469582 206.66096 
L 285.069419 206.187249 
L 287.994234 205.411977 
L 290.91905 204.386214 
L 293.843866 203.118278 
L 296.768681 201.618455 
L 300.018477 199.694872 
L 303.268272 197.519328 
L 306.843047 194.861278 
L 310.742801 191.681904 
L 315.292514 187.663606 
L 320.492187 182.760734 
L 328.291695 175.052093 
L 338.69104 164.80435 
L 343.890713 159.989001 
L 348.440426 156.076853 
L 352.34018 153.008803 
L 355.914955 150.467856 
L 359.16475 148.410043 
L 362.414545 146.613715 
L 365.339361 145.23551 
L 368.264177 144.094888 
L 371.188993 143.201101 
L 374.113808 142.561398 
L 376.713645 142.210321 
L 379.313481 142.066379 
L 381.913317 142.130498 
L 384.513153 142.402264 
L 387.112989 142.879937 
L 390.037805 143.659579 
L 392.962621 144.689586 
L 395.887437 145.961605 
L 398.487273 147.287161 
L 398.487273 147.287161 
" clip-path="url(#p323838093f)" style="fill: none; stroke-dasharray: 5.55,2.4; stroke-dashoffset: 0; stroke: #000000; stroke-width: 1.5"/>
   </g>
   <g id="line2d_33">
    <path d="M 73.832727 174.528 
L 83.582113 184.131511 
L 88.781785 188.954371 
L 93.331499 192.875464 
L 97.231253 195.952809 
L 100.806028 198.503473 
L 104.055823 200.571013 
L 107.305618 202.377819 
L 110.230434 203.766009 
L 113.15525 204.917058 
L 116.080066 205.821629 
L 119.004881 206.472386 
L 121.604717 206.833443 
L 124.204554 206.987443 
L 126.80439 206.933397 
L 129.404226 206.671652 
L 132.004062 206.203886 
L 134.928878 205.435173 
L 137.853694 204.41578 
L 140.778509 203.153975 
L 143.703325 201.659993 
L 146.95312 199.742504 
L 150.202916 197.572576 
L 153.77769 194.920086 
L 157.677445 191.745963 
L 162.227158 187.73262 
L 167.42683 182.83375 
L 174.90136 175.452476 
L 185.625684 164.876416 
L 190.825356 160.056552 
L 195.37507 156.13903 
L 199.274824 153.065397 
L 202.849599 150.518616 
L 206.099394 148.454963 
L 209.349189 146.652344 
L 212.274005 145.268145 
L 215.198821 144.121265 
L 218.123636 143.221006 
L 221.048452 142.57467 
L 223.648288 142.217604 
L 226.248124 142.067628 
L 228.847961 142.125703 
L 231.447797 142.391457 
L 234.047633 142.863186 
L 236.972449 143.636272 
L 239.897265 144.659913 
L 242.82208 145.925806 
L 245.746896 147.423683 
L 248.996691 149.345235 
L 252.246486 151.518909 
L 255.821261 154.175107 
L 259.721016 157.352732 
L 264.270729 161.369381 
L 269.470401 166.270922 
L 276.94493 173.653842 
L 287.669255 184.227634 
L 292.868927 189.04449 
L 297.41864 192.958432 
L 301.318395 196.028345 
L 304.89317 198.571239 
L 308.142965 200.630999 
L 311.39276 202.429425 
L 314.317576 203.809629 
L 317.242391 204.952338 
L 320.167207 205.848283 
L 323.092023 206.490197 
L 325.691859 206.843271 
L 328.291695 206.989224 
L 330.891532 206.92712 
L 333.491368 206.657358 
L 336.091204 206.181666 
L 339.01602 205.404209 
L 341.940835 204.376323 
L 344.865651 203.106345 
L 347.790467 201.604576 
L 351.040262 199.678965 
L 354.290057 197.501551 
L 357.864832 194.841651 
L 361.764586 191.660531 
L 366.3143 187.640586 
L 371.513972 182.736386 
L 379.313481 175.026927 
L 389.712826 164.780339 
L 394.912498 159.966502 
L 398.487273 156.866107 
L 398.487273 156.866107 
" clip-path="url(#p323838093f)" style="fill: none; stroke-dasharray: 9.6,2.4,1.5,2.4; stroke-dashoffset: 0; stroke: #000000; stroke-width: 1.5"/>
   </g>
   <g id="line2d_34">
    <path d="M 73.832727 142.062545 
L 76.432563 142.166587 
L 79.0324 142.478046 
L 81.632236 142.994926 
L 84.557052 143.817782 
L 87.481867 144.889721 
L 90.406683 146.202048 
L 93.331499 147.744119 
L 96.581294 149.711712 
L 100.156069 152.162193 
L 103.730844 154.883569 
L 107.630598 158.122486 
L 112.180311 162.196567 
L 117.704963 167.460662 
L 126.80439 176.501828 
L 134.928878 184.465425 
L 140.12855 189.267205 
L 144.678264 193.163263 
L 148.578018 196.214634 
L 152.152793 198.738166 
L 155.402588 200.778563 
L 158.652383 202.556149 
L 161.577199 203.916506 
L 164.502015 205.0385 
L 167.42683 205.913032 
L 170.351646 206.533008 
L 172.951482 206.866285 
L 175.551319 206.992293 
L 178.151155 206.910224 
L 180.750991 206.620605 
L 183.350827 206.125292 
L 186.275643 205.3262 
L 189.200459 204.277311 
L 192.125274 202.987134 
L 195.05009 201.466132 
L 198.299885 199.520475 
L 201.549681 197.324601 
L 205.124455 194.646448 
L 209.02421 191.448119 
L 213.573923 187.411981 
L 219.098575 182.179341 
L 227.223063 174.127525 
L 236.647469 164.852388 
L 241.847142 160.034026 
L 246.396855 156.118293 
L 250.296609 153.046519 
L 253.871384 150.501681 
L 257.121179 148.439974 
L 260.370975 146.639451 
L 263.29579 145.257249 
L 266.220606 144.112455 
L 269.145422 143.214352 
L 272.070238 142.570227 
L 274.670074 142.215157 
L 277.26991 142.067192 
L 279.869746 142.127281 
L 282.469582 142.39504 
L 285.069419 142.868751 
L 287.994234 143.644023 
L 290.91905 144.669786 
L 293.843866 145.937722 
L 296.768681 147.437545 
L 300.018477 149.361128 
L 303.268272 151.536672 
L 306.843047 154.194722 
L 310.742801 157.374096 
L 315.292514 161.392394 
L 320.492187 166.295266 
L 328.291695 174.003907 
L 338.69104 184.25165 
L 343.890713 189.066999 
L 348.440426 192.979147 
L 352.34018 196.047197 
L 355.914955 198.588144 
L 359.16475 200.645957 
L 362.414545 202.442285 
L 365.339361 203.82049 
L 368.264177 204.961112 
L 371.188993 205.854899 
L 374.113808 206.494602 
L 376.713645 206.845679 
L 379.313481 206.989621 
L 381.913317 206.925502 
L 384.513153 206.653736 
L 387.112989 206.176063 
L 390.037805 205.396421 
L 392.962621 204.366414 
L 395.887437 203.094395 
L 398.487273 201.768839 
L 398.487273 201.768839 
" clip-path="url(#p323838093f)" style="fill: none; stroke-dasharray: 1.5,2.475; stroke-dashoffset: 0; stroke: #000000; stroke-width: 1.5"/>
   </g>
   <g id="patch_3">
    <path d="M 57.6 307.584 
L 57.6 41.472 
" style="fill: none; stroke: #cccccc; stroke-linejoin: miter; stroke-linecap: square"/>
   </g>
   <g id="patch_4">
    <path d="M 414.72 307.584 
L 414.72 41.472 
" style="fill: none; stroke: #cccccc; stroke-linejoin: miter; stroke-linecap: square"/>
   </g>
   <g id="patch_5">
    <path d="M 57.6 307.584 
L 414.72 307.584 
" style="fill: none; stroke: #cccccc; stroke-linejoin: miter; stroke-linecap: square"/>
   </g>
   <g id="patch_6">
    <path d="M 57.6 41.472 
L 414.72 41.472 
" style="fill: none; stroke: #cccccc; stroke-linejoin: miter; stroke-linecap: square"/>
   </g>
   <g id="legend_1">
    <g id="line2d_35">
     <path d="M 352.154375 278.687125 
L 362.154375 278.687125 
L 372.154375 278.687125 
" style="fill: none; stroke-dasharray: 9.6,2.4,1.5,2.4; stroke-dashoffset: 0; stroke: #000000; stroke-width: 1.5"/>
    </g>
    <g id="text_16">
     <!-- line C -->
     <g style="fill: #262626" transform="translate(380.154375 282.187125) scale(0.1 -0.1)">
      <defs>
       <path id="LiberationSans-6c" d="M 431 0 
L 431 4638 
L 994 4638 
L 994 0 
L 431 0 
z
" transform="scale(0.015625)"/>
       <path id="LiberationSans-69" d="M 428 4100 
L 428 4638 
L 991 4638 
L 991 4100 
L 428 4100 
z
M 428 0 
L 428 3381 
L 991 3381 
L 991 0 
L 428 0 
z
" transform="scale(0.015625)"/>
       <path id="LiberationSans-6e" d="M 2578 0 
L 2578 2144 
Q 2578 2478 2512 2662 
Q 2447 2847 2303 2928 
Q 2159 3009 1881 3009 
Q 1475 3009 1240 2731 
Q 1006 2453 1006 1959 
L 1006 0 
L 444 0 
L 444 2659 
Q 444 3250 425 3381 
L 956 3381 
Q 959 3366 962 3297 
Q 966 3228 970 3139 
Q 975 3050 981 2803 
L 991 2803 
Q 1184 3153 1439 3298 
Q 1694 3444 2072 3444 
Q 2628 3444 2886 3167 
Q 3144 2891 3144 2253 
L 3144 0 
L 2578 0 
z
" transform="scale(0.015625)"/>
       <path id="LiberationSans-65" d="M 863 1572 
Q 863 991 1103 675 
Q 1344 359 1806 359 
Q 2172 359 2392 506 
Q 2613 653 2691 878 
L 3184 738 
Q 2881 -63 1806 -63 
Q 1056 -63 664 384 
Q 272 831 272 1713 
Q 272 2550 664 2997 
Q 1056 3444 1784 3444 
Q 3275 3444 3275 1647 
L 3275 1572 
L 863 1572 
z
M 2694 2003 
Q 2647 2538 2422 2783 
Q 2197 3028 1775 3028 
Q 1366 3028 1127 2754 
Q 888 2481 869 2003 
L 2694 2003 
z
" transform="scale(0.015625)"/>
       <path id="LiberationSans-20" transform="scale(0.015625)"/>
       <path id="LiberationSans-43" d="M 2475 3981 
Q 1744 3981 1337 3511 
Q 931 3041 931 2222 
Q 931 1413 1354 920 
Q 1778 428 2500 428 
Q 3425 428 3891 1344 
L 4378 1100 
Q 4106 531 3614 234 
Q 3122 -63 2472 -63 
Q 1806 -63 1320 214 
Q 834 491 579 1005 
Q 325 1519 325 2222 
Q 325 3275 894 3872 
Q 1463 4469 2469 4469 
Q 3172 4469 3644 4194 
Q 4116 3919 4338 3378 
L 3772 3191 
Q 3619 3575 3280 3778 
Q 2941 3981 2475 3981 
z
" transform="scale(0.015625)"/>
      </defs>
      <use xlink:href="#LiberationSans-6c"/>
      <use xlink:href="#LiberationSans-69" x="22.216797"/>
      <use xlink:href="#LiberationSans-6e" x="44.433594"/>
      <use xlink:href="#LiberationSans-65" x="100.048828"/>
      <use xlink:href="#LiberationSans-20" x="155.664062"/>
      <use xlink:href="#LiberationSans-43" x="183.447266"/>
     </g>
    </g>
    <g id="line2d_36">
     <path d="M 352.154375 293.009 
L 362.154375 293.009 
L 372.154375 293.009 
" style="fill: none; stroke-dasharray: 1.5,2.475; stroke-dashoffset: 0; stroke: #000000; stroke-width: 1.5"/>
    </g>
    <g id="text_17">
     <!-- line D -->
     <g style="fill: #262626" transform="translate(380.154375 296.509) scale(0.1 -0.1)">
      <defs>
       <path id="LiberationSans-44" d="M 4316 2247 
Q 4316 1566 4050 1055 
Q 3784 544 3296 272 
Q 2809 0 2172 0 
L 525 0 
L 525 4403 
L 1981 4403 
Q 3100 4403 3708 3842 
Q 4316 3281 4316 2247 
z
M 3716 2247 
Q 3716 3066 3267 3495 
Q 2819 3925 1969 3925 
L 1122 3925 
L 1122 478 
L 2103 478 
Q 2588 478 2955 690 
Q 3322 903 3519 1303 
Q 3716 1703 3716 2247 
z
" transform="scale(0.015625)"/>
      </defs>
      <use xlink:href="#LiberationSans-6c"/>
      <use xlink:href="#LiberationSans-69" x="22.216797"/>
      <use xlink:href="#LiberationSans-6e" x="44.433594"/>
      <use xlink:href="#LiberationSans-65" x="100.048828"/>
      <use xlink:href="#LiberationSans-20" x="155.664062"/>
      <use xlink:href="#LiberationSans-44" x="183.447266"/>
     </g>
    </g>
   </g>
   <g id="legend_2">
    <g id="line2d_37">
     <path d="M 352.705938 54.218875 
L 362.705938 54.218875 
L 372.705938 54.218875 
" style="fill: none; stroke: #000000; stroke-width: 1.5; stroke-linecap: round"/>
    </g>
    <g id="text_18">
     <!-- line A -->
     <g style="fill: #262626" transform="translate(380.705938 57.718875) scale(0.1 -0.1)">
      <defs>
       <path id="LiberationSans-41" d="M 3647 0 
L 3144 1288 
L 1138 1288 
L 631 0 
L 13 0 
L 1809 4403 
L 2488 4403 
L 4256 0 
L 3647 0 
z
M 2141 3953 
L 2113 3866 
Q 2034 3606 1881 3200 
L 1319 1753 
L 2966 1753 
L 2400 3206 
Q 2313 3422 2225 3694 
L 2141 3953 
z
" transform="scale(0.015625)"/>
      </defs>
      <use xlink:href="#LiberationSans-6c"/>
      <use xlink:href="#LiberationSans-69" x="22.216797"/>
      <use xlink:href="#LiberationSans-6e" x="44.433594"/>
      <use xlink:href="#LiberationSans-65" x="100.048828"/>
      <use xlink:href="#LiberationSans-20" x="155.664062"/>
      <use xlink:href="#LiberationSans-41" x="177.947266"/>
     </g>
    </g>
    <g id="line2d_38">
     <path d="M 352.705938 68.54075 
L 362.705938 68.54075 
L 372.705938 68.54075 
" style="fill: none; stroke-dasharray: 5.55,2.4; stroke-dashoffset: 0; stroke: #000000; stroke-width: 1.5"/>
    </g>
    <g id="text_19">
     <!-- line B -->
     <g style="fill: #262626" transform="translate(380.705938 72.04075) scale(0.1 -0.1)">
      <defs>
       <path id="LiberationSans-42" d="M 3931 1241 
Q 3931 653 3503 326 
Q 3075 0 2313 0 
L 525 0 
L 525 4403 
L 2125 4403 
Q 3675 4403 3675 3334 
Q 3675 2944 3456 2678 
Q 3238 2413 2838 2322 
Q 3363 2259 3647 1970 
Q 3931 1681 3931 1241 
z
M 3075 3263 
Q 3075 3619 2831 3772 
Q 2588 3925 2125 3925 
L 1122 3925 
L 1122 2531 
L 2125 2531 
Q 2603 2531 2839 2711 
Q 3075 2891 3075 3263 
z
M 3328 1288 
Q 3328 2066 2234 2066 
L 1122 2066 
L 1122 478 
L 2281 478 
Q 2828 478 3078 681 
Q 3328 884 3328 1288 
z
" transform="scale(0.015625)"/>
      </defs>
      <use xlink:href="#LiberationSans-6c"/>
      <use xlink:href="#LiberationSans-69" x="22.216797"/>
      <use xlink:href="#LiberationSans-6e" x="44.433594"/>
      <use xlink:href="#LiberationSans-65" x="100.048828"/>
      <use xlink:href="#LiberationSans-20" x="155.664062"/>
      <use xlink:href="#LiberationSans-42" x="183.447266"/>
     </g>
    </g>
   </g>
  </g>
 </g>
 <defs>
  <clipPath id="p323838093f">
   <rect x="57.6" y="41.472" width="357.12" height="266.112"/>
  </clipPath>
 </defs>
</svg>
