<?xml version="1.0" encoding="utf-8" standalone="no"?>
<!DOCTYPE svg PUBLIC "-//W3C//DTD SVG 1.1//EN"
  "http://www.w3.org/Graphics/SVG/1.1/DTD/svg11.dtd">
<svg xmlns:xlink="http://www.w3.org/1999/xlink" width="460.8pt" height="345.6pt" viewBox="0 0 460.8 345.6" xmlns="http://www.w3.org/2000/svg" version="1.1">
 <metadata>
  <rdf:RDF xmlns:dc="http://purl.org/dc/elements/1.1/" xmlns:cc="http://creativecommons.org/ns#" xmlns:rdf="http://www.w3.org/1999/02/22-rdf-syntax-ns#">
   <cc:Work>
    <dc:type rdf:resource="http://purl.org/dc/dcmitype/StillImage"/>
    <dc:date>2023-07-30T19:42:25.864494</dc:date>
    <dc:format>image/svg+xml</dc:format>
    <dc:creator>
     <cc:Agent>
      <dc:title>Matplotlib v3.7.1, https://matplotlib.org/</dc:title>
     </cc:Agent>
    </dc:creator>
   </cc:Work>
  </rdf:RDF>
 </metadata>
 <defs>
  <style type="text/css">*{stroke-linejoin: round; stroke-linecap: butt}</style>
 </defs>
 <g id="figure_1">
  <g id="patch_1">
   <path d="M 0 345.6 
L 460.8 345.6 
L 460.8 0 
L 0 0 
z
" style="fill: #ffffff"/>
  </g>
  <g id="axes_1">
   <g id="patch_2">
    <path d="M 57.6 307.584 
L 414.72 307.584 
L 414.72 41.472 
L 57.6 41.472 
z
" style="fill: #ffffff"/>
   </g>
   <g id="matplotlib.axis_1">
    <g id="xtick_1">
     <g id="line2d_1">
      <path d="M 73.832727 307.584 
L 73.832727 41.472 
" clip-path="url(#p8eb5b49bcf)" style="fill: none; stroke: #cccccc; stroke-width: 0.8; stroke-linecap: round"/>
     </g>
     <g id="line2d_2"/>
     <g id="text_1">
      <!-- 0 -->
      <g style="fill: #262626" transform="translate(71.052259 318.330875) scale(0.1 -0.1)">
       <defs>
        <path id="LiberationSans-30" d="M 3309 2203 
Q 3309 1100 2920 518 
Q 2531 -63 1772 -63 
Q 1013 -63 631 515 
Q 250 1094 250 2203 
Q 250 3338 620 3903 
Q 991 4469 1791 4469 
Q 2569 4469 2939 3897 
Q 3309 3325 3309 2203 
z
M 2738 2203 
Q 2738 3156 2517 3584 
Q 2297 4013 1791 4013 
Q 1272 4013 1045 3591 
Q 819 3169 819 2203 
Q 819 1266 1048 831 
Q 1278 397 1778 397 
Q 2275 397 2506 840 
Q 2738 1284 2738 2203 
z
" transform="scale(0.015625)"/>
       </defs>
       <use xlink:href="#LiberationSans-30"/>
      </g>
     </g>
    </g>
    <g id="xtick_2">
     <g id="line2d_3">
      <path d="M 138.763636 307.584 
L 138.763636 41.472 
" clip-path="url(#p8eb5b49bcf)" style="fill: none; stroke: #cccccc; stroke-width: 0.8; stroke-linecap: round"/>
     </g>
     <g id="line2d_4"/>
     <g id="text_2">
      <!-- 2 -->
      <g style="fill: #262626" transform="translate(135.983168 318.330875) scale(0.1 -0.1)">
       <defs>
        <path id="LiberationSans-32" d="M 322 0 
L 322 397 
Q 481 763 711 1042 
Q 941 1322 1194 1548 
Q 1447 1775 1695 1969 
Q 1944 2163 2144 2356 
Q 2344 2550 2467 2762 
Q 2591 2975 2591 3244 
Q 2591 3606 2378 3806 
Q 2166 4006 1788 4006 
Q 1428 4006 1195 3811 
Q 963 3616 922 3263 
L 347 3316 
Q 409 3844 795 4156 
Q 1181 4469 1788 4469 
Q 2453 4469 2811 4155 
Q 3169 3841 3169 3263 
Q 3169 3006 3051 2753 
Q 2934 2500 2703 2247 
Q 2472 1994 1819 1463 
Q 1459 1169 1246 933 
Q 1034 697 941 478 
L 3238 478 
L 3238 0 
L 322 0 
z
" transform="scale(0.015625)"/>
       </defs>
       <use xlink:href="#LiberationSans-32"/>
      </g>
     </g>
    </g>
    <g id="xtick_3">
     <g id="line2d_5">
      <path d="M 203.694545 307.584 
L 203.694545 41.472 
" clip-path="url(#p8eb5b49bcf)" style="fill: none; stroke: #cccccc; stroke-width: 0.8; stroke-linecap: round"/>
     </g>
     <g id="line2d_6"/>
     <g id="text_3">
      <!-- 4 -->
      <g style="fill: #262626" transform="translate(200.914077 318.330875) scale(0.1 -0.1)">
       <defs>
        <path id="LiberationSans-34" d="M 2753 997 
L 2753 0 
L 2222 0 
L 2222 997 
L 147 997 
L 147 1434 
L 2163 4403 
L 2753 4403 
L 2753 1441 
L 3372 1441 
L 3372 997 
L 2753 997 
z
M 2222 3769 
Q 2216 3750 2134 3603 
Q 2053 3456 2013 3397 
L 884 1734 
L 716 1503 
L 666 1441 
L 2222 1441 
L 2222 3769 
z
" transform="scale(0.015625)"/>
       </defs>
       <use xlink:href="#LiberationSans-34"/>
      </g>
     </g>
    </g>
    <g id="xtick_4">
     <g id="line2d_7">
      <path d="M 268.625455 307.584 
L 268.625455 41.472 
" clip-path="url(#p8eb5b49bcf)" style="fill: none; stroke: #cccccc; stroke-width: 0.8; stroke-linecap: round"/>
     </g>
     <g id="line2d_8"/>
     <g id="text_4">
      <!-- 6 -->
      <g style="fill: #262626" transform="translate(265.844986 318.330875) scale(0.1 -0.1)">
       <defs>
        <path id="LiberationSans-36" d="M 3278 1441 
Q 3278 744 2900 340 
Q 2522 -63 1856 -63 
Q 1113 -63 719 490 
Q 325 1044 325 2100 
Q 325 3244 734 3856 
Q 1144 4469 1900 4469 
Q 2897 4469 3156 3572 
L 2619 3475 
Q 2453 4013 1894 4013 
Q 1413 4013 1148 3564 
Q 884 3116 884 2266 
Q 1038 2550 1316 2698 
Q 1594 2847 1953 2847 
Q 2563 2847 2920 2465 
Q 3278 2084 3278 1441 
z
M 2706 1416 
Q 2706 1894 2472 2153 
Q 2238 2413 1819 2413 
Q 1425 2413 1183 2183 
Q 941 1953 941 1550 
Q 941 1041 1192 716 
Q 1444 391 1838 391 
Q 2244 391 2475 664 
Q 2706 938 2706 1416 
z
" transform="scale(0.015625)"/>
       </defs>
       <use xlink:href="#LiberationSans-36"/>
      </g>
     </g>
    </g>
    <g id="xtick_5">
     <g id="line2d_9">
      <path d="M 333.556364 307.584 
L 333.556364 41.472 
" clip-path="url(#p8eb5b49bcf)" style="fill: none; stroke: #cccccc; stroke-width: 0.8; stroke-linecap: round"/>
     </g>
     <g id="line2d_10"/>
     <g id="text_5">
      <!-- 8 -->
      <g style="fill: #262626" transform="translate(330.775895 318.330875) scale(0.1 -0.1)">
       <defs>
        <path id="LiberationSans-38" d="M 3281 1228 
Q 3281 619 2893 278 
Q 2506 -63 1781 -63 
Q 1075 -63 676 271 
Q 278 606 278 1222 
Q 278 1653 525 1947 
Q 772 2241 1156 2303 
L 1156 2316 
Q 797 2400 589 2681 
Q 381 2963 381 3341 
Q 381 3844 757 4156 
Q 1134 4469 1769 4469 
Q 2419 4469 2795 4162 
Q 3172 3856 3172 3334 
Q 3172 2956 2962 2675 
Q 2753 2394 2391 2322 
L 2391 2309 
Q 2813 2241 3047 1952 
Q 3281 1663 3281 1228 
z
M 2588 3303 
Q 2588 4050 1769 4050 
Q 1372 4050 1164 3862 
Q 956 3675 956 3303 
Q 956 2925 1170 2726 
Q 1384 2528 1775 2528 
Q 2172 2528 2380 2711 
Q 2588 2894 2588 3303 
z
M 2697 1281 
Q 2697 1691 2453 1898 
Q 2209 2106 1769 2106 
Q 1341 2106 1100 1882 
Q 859 1659 859 1269 
Q 859 359 1788 359 
Q 2247 359 2472 579 
Q 2697 800 2697 1281 
z
" transform="scale(0.015625)"/>
       </defs>
       <use xlink:href="#LiberationSans-38"/>
      </g>
     </g>
    </g>
    <g id="xtick_6">
     <g id="line2d_11">
      <path d="M 398.487273 307.584 
L 398.487273 41.472 
" clip-path="url(#p8eb5b49bcf)" style="fill: none; stroke: #cccccc; stroke-width: 0.8; stroke-linecap: round"/>
     </g>
     <g id="line2d_12"/>
     <g id="text_6">
      <!-- 10 -->
      <g style="fill: #262626" transform="translate(392.926335 318.330875) scale(0.1 -0.1)">
       <defs>
        <path id="LiberationSans-31" d="M 488 0 
L 488 478 
L 1609 478 
L 1609 3866 
L 616 3156 
L 616 3688 
L 1656 4403 
L 2175 4403 
L 2175 478 
L 3247 478 
L 3247 0 
L 488 0 
z
" transform="scale(0.015625)"/>
       </defs>
       <use xlink:href="#LiberationSans-31"/>
       <use xlink:href="#LiberationSans-30" x="55.615234"/>
      </g>
     </g>
    </g>
   </g>
   <g id="matplotlib.axis_2">
    <g id="ytick_1">
     <g id="line2d_13">
      <path d="M 57.6 295.488 
L 414.72 295.488 
" clip-path="url(#p8eb5b49bcf)" style="fill: none; stroke: #cccccc; stroke-width: 0.8; stroke-linecap: round"/>
     </g>
     <g id="line2d_14"/>
     <g id="text_7">
      <!-- −1.00 -->
      <g style="fill: #262626" transform="translate(28.798437 299.111437) scale(0.1 -0.1)">
       <defs>
        <path id="LiberationSans-2212" d="M 316 1900 
L 316 2356 
L 3425 2356 
L 3425 1900 
L 316 1900 
z
" transform="scale(0.015625)"/>
        <path id="LiberationSans-2e" d="M 584 0 
L 584 684 
L 1194 684 
L 1194 0 
L 584 0 
z
" transform="scale(0.015625)"/>
       </defs>
       <use xlink:href="#LiberationSans-2212"/>
       <use xlink:href="#LiberationSans-31" x="58.398438"/>
       <use xlink:href="#LiberationSans-2e" x="114.013672"/>
       <use xlink:href="#LiberationSans-30" x="141.796875"/>
       <use xlink:href="#LiberationSans-30" x="197.412109"/>
      </g>
     </g>
    </g>
    <g id="ytick_2">
     <g id="line2d_15">
      <path d="M 57.6 265.248 
L 414.72 265.248 
" clip-path="url(#p8eb5b49bcf)" style="fill: none; stroke: #cccccc; stroke-width: 0.8; stroke-linecap: round"/>
     </g>
     <g id="line2d_16"/>
     <g id="text_8">
      <!-- −0.75 -->
      <g style="fill: #262626" transform="translate(28.798437 268.871437) scale(0.1 -0.1)">
       <defs>
        <path id="LiberationSans-37" d="M 3238 3947 
Q 2563 2916 2284 2331 
Q 2006 1747 1867 1178 
Q 1728 609 1728 0 
L 1141 0 
Q 1141 844 1498 1776 
Q 1856 2709 2694 3925 
L 328 3925 
L 328 4403 
L 3238 4403 
L 3238 3947 
z
" transform="scale(0.015625)"/>
        <path id="LiberationSans-35" d="M 3291 1434 
Q 3291 738 2877 337 
Q 2463 -63 1728 -63 
Q 1113 -63 734 206 
Q 356 475 256 984 
L 825 1050 
Q 1003 397 1741 397 
Q 2194 397 2450 670 
Q 2706 944 2706 1422 
Q 2706 1838 2448 2094 
Q 2191 2350 1753 2350 
Q 1525 2350 1328 2278 
Q 1131 2206 934 2034 
L 384 2034 
L 531 4403 
L 3034 4403 
L 3034 3925 
L 1044 3925 
L 959 2528 
Q 1325 2809 1869 2809 
Q 2519 2809 2905 2428 
Q 3291 2047 3291 1434 
z
" transform="scale(0.015625)"/>
       </defs>
       <use xlink:href="#LiberationSans-2212"/>
       <use xlink:href="#LiberationSans-30" x="58.398438"/>
       <use xlink:href="#LiberationSans-2e" x="114.013672"/>
       <use xlink:href="#LiberationSans-37" x="141.796875"/>
       <use xlink:href="#LiberationSans-35" x="197.412109"/>
      </g>
     </g>
    </g>
    <g id="ytick_3">
     <g id="line2d_17">
      <path d="M 57.6 235.008 
L 414.72 235.008 
" clip-path="url(#p8eb5b49bcf)" style="fill: none; stroke: #cccccc; stroke-width: 0.8; stroke-linecap: round"/>
     </g>
     <g id="line2d_18"/>
     <g id="text_9">
      <!-- −0.50 -->
      <g style="fill: #262626" transform="translate(28.798437 238.631437) scale(0.1 -0.1)">
       <use xlink:href="#LiberationSans-2212"/>
       <use xlink:href="#LiberationSans-30" x="58.398438"/>
       <use xlink:href="#LiberationSans-2e" x="114.013672"/>
       <use xlink:href="#LiberationSans-35" x="141.796875"/>
       <use xlink:href="#LiberationSans-30" x="197.412109"/>
      </g>
     </g>
    </g>
    <g id="ytick_4">
     <g id="line2d_19">
      <path d="M 57.6 204.768 
L 414.72 204.768 
" clip-path="url(#p8eb5b49bcf)" style="fill: none; stroke: #cccccc; stroke-width: 0.8; stroke-linecap: round"/>
     </g>
     <g id="line2d_20"/>
     <g id="text_10">
      <!-- −0.25 -->
      <g style="fill: #262626" transform="translate(28.798437 208.391437) scale(0.1 -0.1)">
       <use xlink:href="#LiberationSans-2212"/>
       <use xlink:href="#LiberationSans-30" x="58.398438"/>
       <use xlink:href="#LiberationSans-2e" x="114.013672"/>
       <use xlink:href="#LiberationSans-32" x="141.796875"/>
       <use xlink:href="#LiberationSans-35" x="197.412109"/>
      </g>
     </g>
    </g>
    <g id="ytick_5">
     <g id="line2d_21">
      <path d="M 57.6 174.528 
L 414.72 174.528 
" clip-path="url(#p8eb5b49bcf)" style="fill: none; stroke: #cccccc; stroke-width: 0.8; stroke-linecap: round"/>
     </g>
     <g id="line2d_22"/>
     <g id="text_11">
      <!-- 0.00 -->
      <g style="fill: #262626" transform="translate(34.639063 178.151437) scale(0.1 -0.1)">
       <use xlink:href="#LiberationSans-30"/>
       <use xlink:href="#LiberationSans-2e" x="55.615234"/>
       <use xlink:href="#LiberationSans-30" x="83.398438"/>
       <use xlink:href="#LiberationSans-30" x="139.013672"/>
      </g>
     </g>
    </g>
    <g id="ytick_6">
     <g id="line2d_23">
      <path d="M 57.6 144.288 
L 414.72 144.288 
" clip-path="url(#p8eb5b49bcf)" style="fill: none; stroke: #cccccc; stroke-width: 0.8; stroke-linecap: round"/>
     </g>
     <g id="line2d_24"/>
     <g id="text_12">
      <!-- 0.25 -->
      <g style="fill: #262626" transform="translate(34.639063 147.911438) scale(0.1 -0.1)">
       <use xlink:href="#LiberationSans-30"/>
       <use xlink:href="#LiberationSans-2e" x="55.615234"/>
       <use xlink:href="#LiberationSans-32" x="83.398438"/>
       <use xlink:href="#LiberationSans-35" x="139.013672"/>
      </g>
     </g>
    </g>
    <g id="ytick_7">
     <g id="line2d_25">
      <path d="M 57.6 114.048 
L 414.72 114.048 
" clip-path="url(#p8eb5b49bcf)" style="fill: none; stroke: #cccccc; stroke-width: 0.8; stroke-linecap: round"/>
     </g>
     <g id="line2d_26"/>
     <g id="text_13">
      <!-- 0.50 -->
      <g style="fill: #262626" transform="translate(34.639063 117.671437) scale(0.1 -0.1)">
       <use xlink:href="#LiberationSans-30"/>
       <use xlink:href="#LiberationSans-2e" x="55.615234"/>
       <use xlink:href="#LiberationSans-35" x="83.398438"/>
       <use xlink:href="#LiberationSans-30" x="139.013672"/>
      </g>
     </g>
    </g>
    <g id="ytick_8">
     <g id="line2d_27">
      <path d="M 57.6 83.808 
L 414.72 83.808 
" clip-path="url(#p8eb5b49bcf)" style="fill: none; stroke: #cccccc; stroke-width: 0.8; stroke-linecap: round"/>
     </g>
     <g id="line2d_28"/>
     <g id="text_14">
      <!-- 0.75 -->
      <g style="fill: #262626" transform="translate(34.639063 87.431438) scale(0.1 -0.1)">
       <use xlink:href="#LiberationSans-30"/>
       <use xlink:href="#LiberationSans-2e" x="55.615234"/>
       <use xlink:href="#LiberationSans-37" x="83.398438"/>
       <use xlink:href="#LiberationSans-35" x="139.013672"/>
      </g>
     </g>
    </g>
    <g id="ytick_9">
     <g id="line2d_29">
      <path d="M 57.6 53.568 
L 414.72 53.568 
" clip-path="url(#p8eb5b49bcf)" style="fill: none; stroke: #cccccc; stroke-width: 0.8; stroke-linecap: round"/>
     </g>
     <g id="line2d_30"/>
     <g id="text_15">
      <!-- 1.00 -->
      <g style="fill: #262626" transform="translate(34.639063 57.191438) scale(0.1 -0.1)">
       <use xlink:href="#LiberationSans-31"/>
       <use xlink:href="#LiberationSans-2e" x="55.615234"/>
       <use xlink:href="#LiberationSans-30" x="83.398438"/>
       <use xlink:href="#LiberationSans-30" x="139.013672"/>
      </g>
     </g>
    </g>
   </g>
   <g id="line2d_31">
    <path d="M 73.832727 174.528 
L 82.607174 142.232659 
L 87.481867 125.158866 
L 91.381622 112.282039 
L 94.956396 101.262014 
L 98.206192 92.010554 
L 101.131007 84.388114 
L 103.730844 78.224584 
L 106.0057 73.336576 
L 108.280557 68.945196 
L 110.555414 65.071995 
L 112.505291 62.179018 
L 114.455168 59.691186 
L 116.080066 57.933995 
L 117.704963 56.468812 
L 119.329861 55.299306 
L 120.954758 54.428407 
L 122.579656 53.858295 
L 123.879574 53.619758 
L 125.179492 53.575035 
L 126.47941 53.724199 
L 127.779328 54.06701 
L 129.079247 54.602919 
L 130.704144 55.543011 
L 132.329042 56.7811 
L 133.953939 58.314083 
L 135.578837 60.138122 
L 137.528714 62.704681 
L 139.478591 65.674488 
L 141.428468 69.036835 
L 143.703325 73.439447 
L 145.978182 78.338182 
L 148.578018 84.513285 
L 151.177854 91.265328 
L 154.10267 99.496981 
L 157.352465 109.35393 
L 160.92724 120.946213 
L 165.151974 135.471411 
L 170.351646 154.228279 
L 188.5505 220.732644 
L 192.450254 233.795368 
L 196.025029 245.023586 
L 199.274824 254.493504 
L 202.19964 262.334469 
L 204.799476 268.70819 
L 207.399312 274.478273 
L 209.674169 279.00275 
L 211.949025 283.014487 
L 213.898903 286.030022 
L 215.84878 288.643468 
L 217.798657 290.845398 
L 219.423554 292.360214 
L 221.048452 293.579922 
L 222.67335 294.501466 
L 224.298247 295.122538 
L 225.598165 295.401985 
L 226.898084 295.487673 
L 228.198002 295.379463 
L 229.49792 295.07753 
L 230.797838 294.582357 
L 232.422735 293.692885 
L 234.047633 292.504967 
L 235.672531 291.021578 
L 237.297428 289.246432 
L 239.247305 286.737449 
L 241.197183 283.823825 
L 243.14706 280.516066 
L 245.421916 276.174862 
L 247.696773 271.334795 
L 250.296609 265.223017 
L 252.896446 258.529938 
L 255.821261 250.35894 
L 259.071057 240.561755 
L 262.645831 229.025251 
L 266.870565 214.551634 
L 272.070238 195.835734 
L 290.91905 127.034153 
L 294.818804 114.04562 
L 298.393579 102.900823 
L 301.643374 93.518666 
L 304.56819 85.765649 
L 307.168026 79.476635 
L 309.767862 73.796844 
L 312.042719 69.355497 
L 314.317576 65.430316 
L 316.267453 62.491375 
L 318.21733 59.956452 
L 319.842228 58.159281 
L 321.467125 56.653553 
L 323.092023 55.443041 
L 324.716921 54.530774 
L 326.341818 53.919039 
L 327.641736 53.647088 
L 328.941654 53.568909 
L 330.241572 53.684625 
L 331.541491 53.994053 
L 332.841409 54.496695 
L 334.466306 55.395449 
L 336.091204 56.592569 
L 337.716102 58.085056 
L 339.340999 59.869173 
L 341.290876 62.388722 
L 343.240753 65.312659 
L 345.190631 68.630441 
L 347.465487 72.982924 
L 349.740344 77.833769 
L 352.34018 83.957187 
L 354.940016 90.661109 
L 357.864832 98.843268 
L 361.114627 108.651459 
L 364.689402 120.198248 
L 368.914136 134.681397 
L 374.113808 153.404906 
L 392.962621 222.194276 
L 396.862375 235.172726 
L 398.487273 240.332794 
L 398.487273 240.332794 
" clip-path="url(#p8eb5b49bcf)" style="fill: none; stroke: #1f77b4; stroke-width: 1.5; stroke-linecap: round"/>
   </g>
   <g id="line2d_32">
    <path d="M 73.832727 53.568 
L 75.132645 53.664949 
L 76.432563 53.95564 
L 77.732482 54.439608 
L 79.357379 55.315151 
L 80.982277 56.489261 
L 82.607174 57.958997 
L 84.232072 59.720678 
L 86.181949 62.2138 
L 88.131826 65.111942 
L 90.081704 68.404651 
L 92.35656 72.728918 
L 94.631417 77.552795 
L 97.231253 83.647087 
L 99.831089 90.32387 
L 102.755905 98.47809 
L 106.0057 108.258722 
L 109.580475 119.779746 
L 113.480229 133.099364 
L 118.354922 150.565133 
L 126.47941 180.673181 
L 133.953939 208.078665 
L 138.503653 223.982727 
L 142.403407 236.854346 
L 145.978182 247.868579 
L 148.902998 256.225188 
L 151.827813 263.919172 
L 154.427649 270.151415 
L 157.027486 275.770769 
L 159.302342 280.156529 
L 161.577199 284.023885 
L 163.527076 286.911696 
L 165.476953 289.394237 
L 167.101851 291.146937 
L 168.726749 292.607566 
L 170.351646 293.772467 
L 171.976544 294.638722 
L 173.601441 295.204162 
L 174.90136 295.438949 
L 176.201278 295.479917 
L 177.501196 295.327001 
L 178.801114 294.980445 
L 180.101032 294.440804 
L 181.72593 293.496076 
L 183.350827 292.253395 
L 184.975725 290.715872 
L 186.600622 288.887358 
L 188.5505 286.315533 
L 190.500377 283.340587 
L 192.450254 279.97325 
L 194.725111 275.565026 
L 196.999967 270.660932 
L 199.599803 264.480048 
L 202.19964 257.722625 
L 205.124455 249.485444 
L 208.374251 239.623053 
L 211.949025 228.025699 
L 216.173759 213.495826 
L 221.373432 194.735271 
L 239.572285 128.236707 
L 243.472039 115.178904 
L 247.046814 103.956233 
L 250.296609 94.492161 
L 253.221425 86.657061 
L 255.821261 80.288995 
L 258.421097 74.524943 
L 260.695954 70.006021 
L 262.970811 66.000072 
L 264.920688 62.98966 
L 266.870565 60.38147 
L 268.820442 58.184907 
L 270.44534 56.674634 
L 272.070238 55.459524 
L 273.695135 54.542618 
L 275.320033 53.926214 
L 276.619951 53.650515 
L 277.919869 53.568582 
L 279.219787 53.680545 
L 280.519705 53.986225 
L 281.819623 54.485133 
L 283.444521 55.379246 
L 285.069419 56.571765 
L 286.694316 58.059704 
L 288.319214 59.839336 
L 290.269091 62.353603 
L 292.218968 65.272384 
L 294.168845 68.585156 
L 296.443702 72.932 
L 298.718559 77.777458 
L 301.318395 83.895058 
L 303.918231 90.59356 
L 306.843047 98.770141 
L 310.092842 108.572832 
L 313.667617 120.114482 
L 317.892351 134.592869 
L 323.092023 153.31258 
L 341.940835 222.108076 
L 345.84059 235.091572 
L 349.415364 246.23072 
L 352.66516 255.606947 
L 355.589975 263.35403 
L 358.189812 269.637332 
L 360.789648 275.311042 
L 363.064505 279.746792 
L 365.339361 283.66615 
L 367.289238 286.59994 
L 369.239115 289.129585 
L 370.864013 290.922275 
L 372.488911 292.423456 
L 374.113808 293.629371 
L 375.738706 294.536998 
L 377.363604 295.144064 
L 378.663522 295.412266 
L 379.96344 295.486691 
L 381.263358 295.367222 
L 382.563276 295.054047 
L 383.863194 294.547671 
L 385.488092 293.644277 
L 387.112989 292.442557 
L 388.737887 290.945522 
L 390.362785 289.156921 
L 392.312662 286.632092 
L 394.262539 283.703 
L 396.212416 280.38021 
L 398.487273 276.022092 
L 398.487273 276.022092 
" clip-path="url(#p8eb5b49bcf)" style="fill: none; stroke: #ff7f0e; stroke-width: 1.5; stroke-linecap: round"/>
   </g>
   <g id="line2d_33">
    <path d="M 73.832727 174.528 
L 82.607174 206.823341 
L 87.481867 223.897134 
L 91.381622 236.773961 
L 94.956396 247.793986 
L 98.206192 257.045446 
L 101.131007 264.667886 
L 103.730844 270.831416 
L 106.0057 275.719424 
L 108.280557 280.110804 
L 110.555414 283.984005 
L 112.505291 286.876982 
L 114.455168 289.364814 
L 116.080066 291.122005 
L 117.704963 292.587188 
L 119.329861 293.756694 
L 120.954758 294.627593 
L 122.579656 295.197705 
L 123.879574 295.436242 
L 125.179492 295.480965 
L 126.47941 295.331801 
L 127.779328 294.98899 
L 129.079247 294.453081 
L 130.704144 293.512989 
L 132.329042 292.2749 
L 133.953939 290.741917 
L 135.578837 288.917878 
L 137.528714 286.351319 
L 139.478591 283.381512 
L 141.428468 280.019165 
L 143.703325 275.616553 
L 145.978182 270.717818 
L 148.578018 264.542715 
L 151.177854 257.790672 
L 154.10267 249.559019 
L 157.352465 239.70207 
L 160.92724 228.109787 
L 165.151974 213.584589 
L 170.351646 194.827721 
L 188.5505 128.323356 
L 192.450254 115.260632 
L 196.025029 104.032414 
L 199.274824 94.562496 
L 202.19964 86.721531 
L 204.799476 80.34781 
L 207.399312 74.577727 
L 209.674169 70.05325 
L 211.949025 66.041513 
L 213.898903 63.025978 
L 215.84878 60.412532 
L 217.798657 58.210602 
L 219.423554 56.695786 
L 221.048452 55.476078 
L 222.67335 54.554534 
L 224.298247 53.933462 
L 225.598165 53.654015 
L 226.898084 53.568327 
L 228.198002 53.676537 
L 229.49792 53.97847 
L 230.797838 54.473643 
L 232.422735 55.363115 
L 234.047633 56.551033 
L 235.672531 58.034422 
L 237.297428 59.809568 
L 239.247305 62.318551 
L 241.197183 65.232175 
L 243.14706 68.539934 
L 245.421916 72.881138 
L 247.696773 77.721205 
L 250.296609 83.832983 
L 252.896446 90.526062 
L 255.821261 98.69706 
L 259.071057 108.494245 
L 262.645831 120.030749 
L 266.870565 134.504366 
L 272.070238 153.220266 
L 290.91905 222.021847 
L 294.818804 235.01038 
L 298.393579 246.155177 
L 301.643374 255.537334 
L 304.56819 263.290351 
L 307.168026 269.579365 
L 309.767862 275.259156 
L 312.042719 279.700503 
L 314.317576 283.625684 
L 316.267453 286.564625 
L 318.21733 289.099548 
L 319.842228 290.896719 
L 321.467125 292.402447 
L 323.092023 293.612959 
L 324.716921 294.525226 
L 326.341818 295.136961 
L 327.641736 295.408912 
L 328.941654 295.487091 
L 330.241572 295.371375 
L 331.541491 295.061947 
L 332.841409 294.559305 
L 334.466306 293.660551 
L 336.091204 292.463431 
L 337.716102 290.970944 
L 339.340999 289.186827 
L 341.290876 286.667278 
L 343.240753 283.743341 
L 345.190631 280.425559 
L 347.465487 276.073076 
L 349.740344 271.222231 
L 352.34018 265.098813 
L 354.940016 258.394891 
L 357.864832 250.212732 
L 361.114627 240.404541 
L 364.689402 228.857752 
L 368.914136 214.374603 
L 374.113808 195.651094 
L 392.962621 126.861724 
L 396.862375 113.883274 
L 398.487273 108.723206 
L 398.487273 108.723206 
" clip-path="url(#p8eb5b49bcf)" style="fill: none; stroke: #2ca02c; stroke-width: 1.5; stroke-linecap: round"/>
   </g>
   <g id="line2d_34">
    <path d="M 73.832727 295.488 
L 75.132645 295.391051 
L 76.432563 295.10036 
L 77.732482 294.616392 
L 79.357379 293.740849 
L 80.982277 292.566739 
L 82.607174 291.097003 
L 84.232072 289.335322 
L 86.181949 286.8422 
L 88.131826 283.944058 
L 90.081704 280.651349 
L 92.35656 276.327082 
L 94.631417 271.503205 
L 97.231253 265.408913 
L 99.831089 258.73213 
L 102.755905 250.57791 
L 106.0057 240.797278 
L 109.580475 229.276254 
L 113.480229 215.956636 
L 118.354922 198.490867 
L 126.47941 168.382819 
L 133.953939 140.977335 
L 138.503653 125.073273 
L 142.403407 112.201654 
L 145.978182 101.187421 
L 148.902998 92.830812 
L 151.827813 85.136828 
L 154.427649 78.904585 
L 157.027486 73.285231 
L 159.302342 68.899471 
L 161.577199 65.032115 
L 163.527076 62.144304 
L 165.476953 59.661763 
L 167.101851 57.909063 
L 168.726749 56.448434 
L 170.351646 55.283533 
L 171.976544 54.417278 
L 173.601441 53.851838 
L 174.90136 53.617051 
L 176.201278 53.576083 
L 177.501196 53.728999 
L 178.801114 54.075555 
L 180.101032 54.615196 
L 181.72593 55.559924 
L 183.350827 56.802605 
L 184.975725 58.340128 
L 186.600622 60.168642 
L 188.5505 62.740467 
L 190.500377 65.715413 
L 192.450254 69.08275 
L 194.725111 73.490974 
L 196.999967 78.395068 
L 199.599803 84.575952 
L 202.19964 91.333375 
L 205.124455 99.570556 
L 208.374251 109.432947 
L 211.949025 121.030301 
L 216.173759 135.560174 
L 221.373432 154.320729 
L 239.572285 220.819293 
L 243.472039 233.877096 
L 247.046814 245.099767 
L 250.296609 254.563839 
L 253.221425 262.398939 
L 255.821261 268.767005 
L 258.421097 274.531057 
L 260.695954 279.049979 
L 262.970811 283.055928 
L 264.920688 286.06634 
L 266.870565 288.67453 
L 268.820442 290.871093 
L 270.44534 292.381366 
L 272.070238 293.596476 
L 273.695135 294.513382 
L 275.320033 295.129786 
L 276.619951 295.405485 
L 277.919869 295.487418 
L 279.219787 295.375455 
L 280.519705 295.069775 
L 281.819623 294.570867 
L 283.444521 293.676754 
L 285.069419 292.484235 
L 286.694316 290.996296 
L 288.319214 289.216664 
L 290.269091 286.702397 
L 292.218968 283.783616 
L 294.168845 280.470844 
L 296.443702 276.124 
L 298.718559 271.278542 
L 301.318395 265.160942 
L 303.918231 258.46244 
L 306.843047 250.285859 
L 310.092842 240.483168 
L 313.667617 228.941518 
L 317.892351 214.463131 
L 323.092023 195.74342 
L 341.940835 126.947924 
L 345.84059 113.964428 
L 349.415364 102.82528 
L 352.66516 93.449053 
L 355.589975 85.70197 
L 358.189812 79.418668 
L 360.789648 73.744958 
L 363.064505 69.309208 
L 365.339361 65.38985 
L 367.289238 62.45606 
L 369.239115 59.926415 
L 370.864013 58.133725 
L 372.488911 56.632544 
L 374.113808 55.426629 
L 375.738706 54.519002 
L 377.363604 53.911936 
L 378.663522 53.643734 
L 379.96344 53.569309 
L 381.263358 53.688778 
L 382.563276 54.001953 
L 383.863194 54.508329 
L 385.488092 55.411723 
L 387.112989 56.613443 
L 388.737887 58.110478 
L 390.362785 59.899079 
L 392.312662 62.423908 
L 394.262539 65.353 
L 396.212416 68.67579 
L 398.487273 73.033908 
L 398.487273 73.033908 
" clip-path="url(#p8eb5b49bcf)" style="fill: none; stroke: #d62728; stroke-width: 1.5; stroke-linecap: round"/>
   </g>
   <g id="line2d_35">
    <path d="M 73.832727 295.488 
L 75.132645 295.391051 
L 76.432563 295.10036 
L 77.732482 294.616392 
L 79.357379 293.740849 
L 80.982277 292.566739 
L 82.607174 291.097003 
L 84.232072 289.335322 
L 86.181949 286.8422 
L 88.131826 283.944058 
L 90.081704 280.651349 
L 92.35656 276.327082 
L 94.631417 271.503205 
L 97.231253 265.408913 
L 99.831089 258.73213 
L 102.755905 250.57791 
L 106.0057 240.797278 
L 109.580475 229.276254 
L 113.480229 215.956636 
L 118.354922 198.490867 
L 126.47941 168.382819 
L 133.953939 140.977335 
L 138.503653 125.073273 
L 142.403407 112.201654 
L 145.978182 101.187421 
L 148.902998 92.830812 
L 151.827813 85.136828 
L 154.427649 78.904585 
L 157.027486 73.285231 
L 159.302342 68.899471 
L 161.577199 65.032115 
L 163.527076 62.144304 
L 165.476953 59.661763 
L 167.101851 57.909063 
L 168.726749 56.448434 
L 170.351646 55.283533 
L 171.976544 54.417278 
L 173.601441 53.851838 
L 174.90136 53.617051 
L 176.201278 53.576083 
L 177.501196 53.728999 
L 178.801114 54.075555 
L 180.101032 54.615196 
L 181.72593 55.559924 
L 183.350827 56.802605 
L 184.975725 58.340128 
L 186.600622 60.168642 
L 188.5505 62.740467 
L 190.500377 65.715413 
L 192.450254 69.08275 
L 194.725111 73.490974 
L 196.999967 78.395068 
L 199.599803 84.575952 
L 202.19964 91.333375 
L 205.124455 99.570556 
L 208.374251 109.432947 
L 211.949025 121.030301 
L 216.173759 135.560174 
L 221.373432 154.320729 
L 239.572285 220.819293 
L 243.472039 233.877096 
L 247.046814 245.099767 
L 250.296609 254.563839 
L 253.221425 262.398939 
L 255.821261 268.767005 
L 258.421097 274.531057 
L 260.695954 279.049979 
L 262.970811 283.055928 
L 264.920688 286.06634 
L 266.870565 288.67453 
L 268.820442 290.871093 
L 270.44534 292.381366 
L 272.070238 293.596476 
L 273.695135 294.513382 
L 275.320033 295.129786 
L 276.619951 295.405485 
L 277.919869 295.487418 
L 279.219787 295.375455 
L 280.519705 295.069775 
L 281.819623 294.570867 
L 283.444521 293.676754 
L 285.069419 292.484235 
L 286.694316 290.996296 
L 288.319214 289.216664 
L 290.269091 286.702397 
L 292.218968 283.783616 
L 294.168845 280.470844 
L 296.443702 276.124 
L 298.718559 271.278542 
L 301.318395 265.160942 
L 303.918231 258.46244 
L 306.843047 250.285859 
L 310.092842 240.483168 
L 313.667617 228.941518 
L 317.892351 214.463131 
L 323.092023 195.74342 
L 341.940835 126.947924 
L 345.84059 113.964428 
L 349.415364 102.82528 
L 352.66516 93.449053 
L 355.589975 85.70197 
L 358.189812 79.418668 
L 360.789648 73.744958 
L 363.064505 69.309208 
L 365.339361 65.38985 
L 367.289238 62.45606 
L 369.239115 59.926415 
L 370.864013 58.133725 
L 372.488911 56.632544 
L 374.113808 55.426629 
L 375.738706 54.519002 
L 377.363604 53.911936 
L 378.663522 53.643734 
L 379.96344 53.569309 
L 381.263358 53.688778 
L 382.563276 54.001953 
L 383.863194 54.508329 
L 385.488092 55.411723 
L 387.112989 56.613443 
L 388.737887 58.110478 
L 390.362785 59.899079 
L 392.312662 62.423908 
L 394.262539 65.353 
L 396.212416 68.67579 
L 398.487273 73.033908 
L 398.487273 73.033908 
" clip-path="url(#p8eb5b49bcf)" style="fill: none; stroke: #9467bd; stroke-width: 1.5; stroke-linecap: round"/>
   </g>
   <g id="patch_3">
    <path d="M 57.6 307.584 
L 57.6 41.472 
" style="fill: none; stroke: #cccccc; stroke-linejoin: miter; stroke-linecap: square"/>
   </g>
   <g id="patch_4">
    <path d="M 414.72 307.584 
L 414.72 41.472 
" style="fill: none; stroke: #cccccc; stroke-linejoin: miter; stroke-linecap: square"/>
   </g>
   <g id="patch_5">
    <path d="M 57.6 307.584 
L 414.72 307.584 
" style="fill: none; stroke: #cccccc; stroke-linejoin: miter; stroke-linecap: square"/>
   </g>
   <g id="patch_6">
    <path d="M 57.6 41.472 
L 414.72 41.472 
" style="fill: none; stroke: #cccccc; stroke-linejoin: miter; stroke-linecap: square"/>
   </g>
   <g id="legend_1">
    <g id="patch_7">
     <path d="M 343.47625 197.510812 
L 407.72 197.510812 
Q 409.72 197.510812 409.72 195.510812 
L 409.72 153.545187 
Q 409.72 151.545187 407.72 151.545187 
L 343.47625 151.545187 
Q 341.47625 151.545187 341.47625 153.545187 
L 341.47625 195.510812 
Q 341.47625 197.510812 343.47625 197.510812 
z
" style="fill: #ffffff; opacity: 0.8; stroke: #cccccc; stroke-linejoin: miter"/>
    </g>
    <g id="line2d_36">
     <path d="M 345.47625 159.292062 
L 355.47625 159.292062 
L 365.47625 159.292062 
" style="fill: none; stroke: #1f77b4; stroke-width: 1.5; stroke-linecap: round"/>
    </g>
    <g id="text_16">
     <!-- first -->
     <g style="fill: #262626" transform="translate(373.47625 162.792062) scale(0.1 -0.1)">
      <defs>
       <path id="LiberationSans-66" d="M 1128 2972 
L 1128 0 
L 566 0 
L 566 2972 
L 91 2972 
L 91 3381 
L 566 3381 
L 566 3763 
Q 566 4225 769 4428 
Q 972 4631 1391 4631 
Q 1625 4631 1788 4594 
L 1788 4166 
Q 1647 4191 1538 4191 
Q 1322 4191 1225 4081 
Q 1128 3972 1128 3684 
L 1128 3381 
L 1788 3381 
L 1788 2972 
L 1128 2972 
z
" transform="scale(0.015625)"/>
       <path id="LiberationSans-69" d="M 428 4100 
L 428 4638 
L 991 4638 
L 991 4100 
L 428 4100 
z
M 428 0 
L 428 3381 
L 991 3381 
L 991 0 
L 428 0 
z
" transform="scale(0.015625)"/>
       <path id="LiberationSans-72" d="M 444 0 
L 444 2594 
Q 444 2950 425 3381 
L 956 3381 
Q 981 2806 981 2691 
L 994 2691 
Q 1128 3125 1303 3284 
Q 1478 3444 1797 3444 
Q 1909 3444 2025 3413 
L 2025 2897 
Q 1913 2928 1725 2928 
Q 1375 2928 1190 2626 
Q 1006 2325 1006 1763 
L 1006 0 
L 444 0 
z
" transform="scale(0.015625)"/>
       <path id="LiberationSans-73" d="M 2969 934 
Q 2969 456 2608 196 
Q 2247 -63 1597 -63 
Q 966 -63 623 145 
Q 281 353 178 794 
L 675 891 
Q 747 619 972 492 
Q 1197 366 1597 366 
Q 2025 366 2223 497 
Q 2422 628 2422 891 
Q 2422 1091 2284 1216 
Q 2147 1341 1841 1422 
L 1438 1528 
Q 953 1653 748 1773 
Q 544 1894 428 2066 
Q 313 2238 313 2488 
Q 313 2950 642 3192 
Q 972 3434 1603 3434 
Q 2163 3434 2492 3237 
Q 2822 3041 2909 2606 
L 2403 2544 
Q 2356 2769 2151 2889 
Q 1947 3009 1603 3009 
Q 1222 3009 1040 2893 
Q 859 2778 859 2544 
Q 859 2400 934 2306 
Q 1009 2213 1156 2147 
Q 1303 2081 1775 1966 
Q 2222 1853 2419 1758 
Q 2616 1663 2730 1547 
Q 2844 1431 2906 1279 
Q 2969 1128 2969 934 
z
" transform="scale(0.015625)"/>
       <path id="LiberationSans-74" d="M 1731 25 
Q 1453 -50 1163 -50 
Q 488 -50 488 716 
L 488 2972 
L 97 2972 
L 97 3381 
L 509 3381 
L 675 4138 
L 1050 4138 
L 1050 3381 
L 1675 3381 
L 1675 2972 
L 1050 2972 
L 1050 838 
Q 1050 594 1129 495 
Q 1209 397 1406 397 
Q 1519 397 1731 441 
L 1731 25 
z
" transform="scale(0.015625)"/>
      </defs>
      <use xlink:href="#LiberationSans-66"/>
      <use xlink:href="#LiberationSans-69" x="27.783203"/>
      <use xlink:href="#LiberationSans-72" x="50"/>
      <use xlink:href="#LiberationSans-73" x="83.300781"/>
      <use xlink:href="#LiberationSans-74" x="133.300781"/>
     </g>
    </g>
    <g id="line2d_37">
     <path d="M 345.47625 173.613937 
L 355.47625 173.613937 
L 365.47625 173.613937 
" style="fill: none; stroke: #ff7f0e; stroke-width: 1.5; stroke-linecap: round"/>
    </g>
    <g id="text_17">
     <!-- second -->
     <g style="fill: #262626" transform="translate(373.47625 177.113937) scale(0.1 -0.1)">
      <defs>
       <path id="LiberationSans-65" d="M 863 1572 
Q 863 991 1103 675 
Q 1344 359 1806 359 
Q 2172 359 2392 506 
Q 2613 653 2691 878 
L 3184 738 
Q 2881 -63 1806 -63 
Q 1056 -63 664 384 
Q 272 831 272 1713 
Q 272 2550 664 2997 
Q 1056 3444 1784 3444 
Q 3275 3444 3275 1647 
L 3275 1572 
L 863 1572 
z
M 2694 2003 
Q 2647 2538 2422 2783 
Q 2197 3028 1775 3028 
Q 1366 3028 1127 2754 
Q 888 2481 869 2003 
L 2694 2003 
z
" transform="scale(0.015625)"/>
       <path id="LiberationSans-63" d="M 859 1706 
Q 859 1031 1071 706 
Q 1284 381 1713 381 
Q 2013 381 2214 543 
Q 2416 706 2463 1044 
L 3031 1006 
Q 2966 519 2616 228 
Q 2266 -63 1728 -63 
Q 1019 -63 645 385 
Q 272 834 272 1694 
Q 272 2547 647 2995 
Q 1022 3444 1722 3444 
Q 2241 3444 2583 3175 
Q 2925 2906 3013 2434 
L 2434 2391 
Q 2391 2672 2212 2837 
Q 2034 3003 1706 3003 
Q 1259 3003 1059 2706 
Q 859 2409 859 1706 
z
" transform="scale(0.015625)"/>
       <path id="LiberationSans-6f" d="M 3291 1694 
Q 3291 806 2900 371 
Q 2509 -63 1766 -63 
Q 1025 -63 647 389 
Q 269 841 269 1694 
Q 269 3444 1784 3444 
Q 2559 3444 2925 3017 
Q 3291 2591 3291 1694 
z
M 2700 1694 
Q 2700 2394 2492 2711 
Q 2284 3028 1794 3028 
Q 1300 3028 1079 2704 
Q 859 2381 859 1694 
Q 859 1025 1076 689 
Q 1294 353 1759 353 
Q 2266 353 2483 678 
Q 2700 1003 2700 1694 
z
" transform="scale(0.015625)"/>
       <path id="LiberationSans-6e" d="M 2578 0 
L 2578 2144 
Q 2578 2478 2512 2662 
Q 2447 2847 2303 2928 
Q 2159 3009 1881 3009 
Q 1475 3009 1240 2731 
Q 1006 2453 1006 1959 
L 1006 0 
L 444 0 
L 444 2659 
Q 444 3250 425 3381 
L 956 3381 
Q 959 3366 962 3297 
Q 966 3228 970 3139 
Q 975 3050 981 2803 
L 991 2803 
Q 1184 3153 1439 3298 
Q 1694 3444 2072 3444 
Q 2628 3444 2886 3167 
Q 3144 2891 3144 2253 
L 3144 0 
L 2578 0 
z
" transform="scale(0.015625)"/>
       <path id="LiberationSans-64" d="M 2566 544 
Q 2409 219 2151 78 
Q 1894 -63 1513 -63 
Q 872 -63 570 368 
Q 269 800 269 1675 
Q 269 3444 1513 3444 
Q 1897 3444 2153 3303 
Q 2409 3163 2566 2856 
L 2572 2856 
L 2566 3234 
L 2566 4638 
L 3128 4638 
L 3128 697 
Q 3128 169 3147 0 
L 2609 0 
Q 2600 50 2589 231 
Q 2578 413 2578 544 
L 2566 544 
z
M 859 1694 
Q 859 984 1046 678 
Q 1234 372 1656 372 
Q 2134 372 2350 703 
Q 2566 1034 2566 1731 
Q 2566 2403 2350 2715 
Q 2134 3028 1663 3028 
Q 1238 3028 1048 2714 
Q 859 2400 859 1694 
z
" transform="scale(0.015625)"/>
      </defs>
      <use xlink:href="#LiberationSans-73"/>
      <use xlink:href="#LiberationSans-65" x="50"/>
      <use xlink:href="#LiberationSans-63" x="105.615234"/>
      <use xlink:href="#LiberationSans-6f" x="155.615234"/>
      <use xlink:href="#LiberationSans-6e" x="211.230469"/>
      <use xlink:href="#LiberationSans-64" x="266.845703"/>
     </g>
    </g>
    <g id="line2d_38">
     <path d="M 345.47625 187.935812 
L 355.47625 187.935812 
L 365.47625 187.935812 
" style="fill: none; stroke: #9467bd; stroke-width: 1.5; stroke-linecap: round"/>
    </g>
    <g id="text_18">
     <!-- forth -->
     <g style="fill: #262626" transform="translate(373.47625 191.435812) scale(0.1 -0.1)">
      <defs>
       <path id="LiberationSans-68" d="M 991 2803 
Q 1172 3134 1426 3289 
Q 1681 3444 2072 3444 
Q 2622 3444 2883 3170 
Q 3144 2897 3144 2253 
L 3144 0 
L 2578 0 
L 2578 2144 
Q 2578 2500 2512 2673 
Q 2447 2847 2297 2928 
Q 2147 3009 1881 3009 
Q 1484 3009 1245 2734 
Q 1006 2459 1006 1994 
L 1006 0 
L 444 0 
L 444 4638 
L 1006 4638 
L 1006 3431 
Q 1006 3241 995 3037 
Q 984 2834 981 2803 
L 991 2803 
z
" transform="scale(0.015625)"/>
      </defs>
      <use xlink:href="#LiberationSans-66"/>
      <use xlink:href="#LiberationSans-6f" x="27.783203"/>
      <use xlink:href="#LiberationSans-72" x="83.398438"/>
      <use xlink:href="#LiberationSans-74" x="116.699219"/>
      <use xlink:href="#LiberationSans-68" x="144.482422"/>
     </g>
    </g>
   </g>
  </g>
 </g>
 <defs>
  <clipPath id="p8eb5b49bcf">
   <rect x="57.6" y="41.472" width="357.12" height="266.112"/>
  </clipPath>
 </defs>
</svg>
