<?xml version="1.0" encoding="utf-8" standalone="no"?>
<!DOCTYPE svg PUBLIC "-//W3C//DTD SVG 1.1//EN"
  "http://www.w3.org/Graphics/SVG/1.1/DTD/svg11.dtd">
<svg xmlns:xlink="http://www.w3.org/1999/xlink" width="460.8pt" height="345.6pt" viewBox="0 0 460.8 345.6" xmlns="http://www.w3.org/2000/svg" version="1.1">
 <metadata>
  <rdf:RDF xmlns:dc="http://purl.org/dc/elements/1.1/" xmlns:cc="http://creativecommons.org/ns#" xmlns:rdf="http://www.w3.org/1999/02/22-rdf-syntax-ns#">
   <cc:Work>
    <dc:type rdf:resource="http://purl.org/dc/dcmitype/StillImage"/>
    <dc:date>2023-08-12T23:29:39.744328</dc:date>
    <dc:format>image/svg+xml</dc:format>
    <dc:creator>
     <cc:Agent>
      <dc:title>Matplotlib v3.7.1, https://matplotlib.org/</dc:title>
     </cc:Agent>
    </dc:creator>
   </cc:Work>
  </rdf:RDF>
 </metadata>
 <defs>
  <style type="text/css">*{stroke-linejoin: round; stroke-linecap: butt}</style>
 </defs>
 <g id="figure_1">
  <g id="patch_1">
   <path d="M 0 345.6 
L 460.8 345.6 
L 460.8 0 
L 0 0 
z
" style="fill: #ffffff"/>
  </g>
  <g id="axes_1">
   <g id="patch_2">
    <path d="M 57.6 307.584 
L 414.72 307.584 
L 414.72 41.472 
L 57.6 41.472 
z
" style="fill: #eaeaf2"/>
   </g>
   <g id="matplotlib.axis_1">
    <g id="xtick_1">
     <g id="line2d_1">
      <path d="M 97.011147 307.584 
L 97.011147 41.472 
" clip-path="url(#pacb3124c4b)" style="fill: none; stroke: #ffffff; stroke-linecap: round"/>
     </g>
     <g id="text_1">
      <!-- −0.2 -->
      <g style="fill: #262626" transform="translate(83.6556 325.442281) scale(0.11 -0.11)">
       <defs>
        <path id="DejaVuSans-2212" d="M 678 2272 
L 4684 2272 
L 4684 1741 
L 678 1741 
L 678 2272 
z
" transform="scale(0.015625)"/>
        <path id="DejaVuSans-30" d="M 2034 4250 
Q 1547 4250 1301 3770 
Q 1056 3291 1056 2328 
Q 1056 1369 1301 889 
Q 1547 409 2034 409 
Q 2525 409 2770 889 
Q 3016 1369 3016 2328 
Q 3016 3291 2770 3770 
Q 2525 4250 2034 4250 
z
M 2034 4750 
Q 2819 4750 3233 4129 
Q 3647 3509 3647 2328 
Q 3647 1150 3233 529 
Q 2819 -91 2034 -91 
Q 1250 -91 836 529 
Q 422 1150 422 2328 
Q 422 3509 836 4129 
Q 1250 4750 2034 4750 
z
" transform="scale(0.015625)"/>
        <path id="DejaVuSans-2e" d="M 684 794 
L 1344 794 
L 1344 0 
L 684 0 
L 684 794 
z
" transform="scale(0.015625)"/>
        <path id="DejaVuSans-32" d="M 1228 531 
L 3431 531 
L 3431 0 
L 469 0 
L 469 531 
Q 828 903 1448 1529 
Q 2069 2156 2228 2338 
Q 2531 2678 2651 2914 
Q 2772 3150 2772 3378 
Q 2772 3750 2511 3984 
Q 2250 4219 1831 4219 
Q 1534 4219 1204 4116 
Q 875 4013 500 3803 
L 500 4441 
Q 881 4594 1212 4672 
Q 1544 4750 1819 4750 
Q 2544 4750 2975 4387 
Q 3406 4025 3406 3419 
Q 3406 3131 3298 2873 
Q 3191 2616 2906 2266 
Q 2828 2175 2409 1742 
Q 1991 1309 1228 531 
z
" transform="scale(0.015625)"/>
       </defs>
       <use xlink:href="#DejaVuSans-2212"/>
       <use xlink:href="#DejaVuSans-30" x="83.789062"/>
       <use xlink:href="#DejaVuSans-2e" x="147.412109"/>
       <use xlink:href="#DejaVuSans-32" x="179.199219"/>
      </g>
     </g>
    </g>
    <g id="xtick_2">
     <g id="line2d_2">
      <path d="M 171.903442 307.584 
L 171.903442 41.472 
" clip-path="url(#pacb3124c4b)" style="fill: none; stroke: #ffffff; stroke-linecap: round"/>
     </g>
     <g id="text_2">
      <!-- 0.0 -->
      <g style="fill: #262626" transform="translate(163.156723 325.442281) scale(0.11 -0.11)">
       <use xlink:href="#DejaVuSans-30"/>
       <use xlink:href="#DejaVuSans-2e" x="63.623047"/>
       <use xlink:href="#DejaVuSans-30" x="95.410156"/>
      </g>
     </g>
    </g>
    <g id="xtick_3">
     <g id="line2d_3">
      <path d="M 246.795737 307.584 
L 246.795737 41.472 
" clip-path="url(#pacb3124c4b)" style="fill: none; stroke: #ffffff; stroke-linecap: round"/>
     </g>
     <g id="text_3">
      <!-- 0.2 -->
      <g style="fill: #262626" transform="translate(238.049018 325.442281) scale(0.11 -0.11)">
       <use xlink:href="#DejaVuSans-30"/>
       <use xlink:href="#DejaVuSans-2e" x="63.623047"/>
       <use xlink:href="#DejaVuSans-32" x="95.410156"/>
      </g>
     </g>
    </g>
    <g id="xtick_4">
     <g id="line2d_4">
      <path d="M 321.688032 307.584 
L 321.688032 41.472 
" clip-path="url(#pacb3124c4b)" style="fill: none; stroke: #ffffff; stroke-linecap: round"/>
     </g>
     <g id="text_4">
      <!-- 0.4 -->
      <g style="fill: #262626" transform="translate(312.941314 325.442281) scale(0.11 -0.11)">
       <defs>
        <path id="DejaVuSans-34" d="M 2419 4116 
L 825 1625 
L 2419 1625 
L 2419 4116 
z
M 2253 4666 
L 3047 4666 
L 3047 1625 
L 3713 1625 
L 3713 1100 
L 3047 1100 
L 3047 0 
L 2419 0 
L 2419 1100 
L 313 1100 
L 313 1709 
L 2253 4666 
z
" transform="scale(0.015625)"/>
       </defs>
       <use xlink:href="#DejaVuSans-30"/>
       <use xlink:href="#DejaVuSans-2e" x="63.623047"/>
       <use xlink:href="#DejaVuSans-34" x="95.410156"/>
      </g>
     </g>
    </g>
    <g id="xtick_5">
     <g id="line2d_5">
      <path d="M 396.580328 307.584 
L 396.580328 41.472 
" clip-path="url(#pacb3124c4b)" style="fill: none; stroke: #ffffff; stroke-linecap: round"/>
     </g>
     <g id="text_5">
      <!-- 0.6 -->
      <g style="fill: #262626" transform="translate(387.833609 325.442281) scale(0.11 -0.11)">
       <defs>
        <path id="DejaVuSans-36" d="M 2113 2584 
Q 1688 2584 1439 2293 
Q 1191 2003 1191 1497 
Q 1191 994 1439 701 
Q 1688 409 2113 409 
Q 2538 409 2786 701 
Q 3034 994 3034 1497 
Q 3034 2003 2786 2293 
Q 2538 2584 2113 2584 
z
M 3366 4563 
L 3366 3988 
Q 3128 4100 2886 4159 
Q 2644 4219 2406 4219 
Q 1781 4219 1451 3797 
Q 1122 3375 1075 2522 
Q 1259 2794 1537 2939 
Q 1816 3084 2150 3084 
Q 2853 3084 3261 2657 
Q 3669 2231 3669 1497 
Q 3669 778 3244 343 
Q 2819 -91 2113 -91 
Q 1303 -91 875 529 
Q 447 1150 447 2328 
Q 447 3434 972 4092 
Q 1497 4750 2381 4750 
Q 2619 4750 2861 4703 
Q 3103 4656 3366 4563 
z
" transform="scale(0.015625)"/>
       </defs>
       <use xlink:href="#DejaVuSans-30"/>
       <use xlink:href="#DejaVuSans-2e" x="63.623047"/>
       <use xlink:href="#DejaVuSans-36" x="95.410156"/>
      </g>
     </g>
    </g>
    <g id="text_6">
     <!-- split_frac -->
     <g style="fill: #262626" transform="translate(208.984688 340.848062) scale(0.12 -0.12)">
      <defs>
       <path id="DejaVuSans-73" d="M 2834 3397 
L 2834 2853 
Q 2591 2978 2328 3040 
Q 2066 3103 1784 3103 
Q 1356 3103 1142 2972 
Q 928 2841 928 2578 
Q 928 2378 1081 2264 
Q 1234 2150 1697 2047 
L 1894 2003 
Q 2506 1872 2764 1633 
Q 3022 1394 3022 966 
Q 3022 478 2636 193 
Q 2250 -91 1575 -91 
Q 1294 -91 989 -36 
Q 684 19 347 128 
L 347 722 
Q 666 556 975 473 
Q 1284 391 1588 391 
Q 1994 391 2212 530 
Q 2431 669 2431 922 
Q 2431 1156 2273 1281 
Q 2116 1406 1581 1522 
L 1381 1569 
Q 847 1681 609 1914 
Q 372 2147 372 2553 
Q 372 3047 722 3315 
Q 1072 3584 1716 3584 
Q 2034 3584 2315 3537 
Q 2597 3491 2834 3397 
z
" transform="scale(0.015625)"/>
       <path id="DejaVuSans-70" d="M 1159 525 
L 1159 -1331 
L 581 -1331 
L 581 3500 
L 1159 3500 
L 1159 2969 
Q 1341 3281 1617 3432 
Q 1894 3584 2278 3584 
Q 2916 3584 3314 3078 
Q 3713 2572 3713 1747 
Q 3713 922 3314 415 
Q 2916 -91 2278 -91 
Q 1894 -91 1617 61 
Q 1341 213 1159 525 
z
M 3116 1747 
Q 3116 2381 2855 2742 
Q 2594 3103 2138 3103 
Q 1681 3103 1420 2742 
Q 1159 2381 1159 1747 
Q 1159 1113 1420 752 
Q 1681 391 2138 391 
Q 2594 391 2855 752 
Q 3116 1113 3116 1747 
z
" transform="scale(0.015625)"/>
       <path id="DejaVuSans-6c" d="M 603 4863 
L 1178 4863 
L 1178 0 
L 603 0 
L 603 4863 
z
" transform="scale(0.015625)"/>
       <path id="DejaVuSans-69" d="M 603 3500 
L 1178 3500 
L 1178 0 
L 603 0 
L 603 3500 
z
M 603 4863 
L 1178 4863 
L 1178 4134 
L 603 4134 
L 603 4863 
z
" transform="scale(0.015625)"/>
       <path id="DejaVuSans-74" d="M 1172 4494 
L 1172 3500 
L 2356 3500 
L 2356 3053 
L 1172 3053 
L 1172 1153 
Q 1172 725 1289 603 
Q 1406 481 1766 481 
L 2356 481 
L 2356 0 
L 1766 0 
Q 1100 0 847 248 
Q 594 497 594 1153 
L 594 3053 
L 172 3053 
L 172 3500 
L 594 3500 
L 594 4494 
L 1172 4494 
z
" transform="scale(0.015625)"/>
       <path id="DejaVuSans-5f" d="M 3263 -1063 
L 3263 -1509 
L -63 -1509 
L -63 -1063 
L 3263 -1063 
z
" transform="scale(0.015625)"/>
       <path id="DejaVuSans-66" d="M 2375 4863 
L 2375 4384 
L 1825 4384 
Q 1516 4384 1395 4259 
Q 1275 4134 1275 3809 
L 1275 3500 
L 2222 3500 
L 2222 3053 
L 1275 3053 
L 1275 0 
L 697 0 
L 697 3053 
L 147 3053 
L 147 3500 
L 697 3500 
L 697 3744 
Q 697 4328 969 4595 
Q 1241 4863 1831 4863 
L 2375 4863 
z
" transform="scale(0.015625)"/>
       <path id="DejaVuSans-72" d="M 2631 2963 
Q 2534 3019 2420 3045 
Q 2306 3072 2169 3072 
Q 1681 3072 1420 2755 
Q 1159 2438 1159 1844 
L 1159 0 
L 581 0 
L 581 3500 
L 1159 3500 
L 1159 2956 
Q 1341 3275 1631 3429 
Q 1922 3584 2338 3584 
Q 2397 3584 2469 3576 
Q 2541 3569 2628 3553 
L 2631 2963 
z
" transform="scale(0.015625)"/>
       <path id="DejaVuSans-61" d="M 2194 1759 
Q 1497 1759 1228 1600 
Q 959 1441 959 1056 
Q 959 750 1161 570 
Q 1363 391 1709 391 
Q 2188 391 2477 730 
Q 2766 1069 2766 1631 
L 2766 1759 
L 2194 1759 
z
M 3341 1997 
L 3341 0 
L 2766 0 
L 2766 531 
Q 2569 213 2275 61 
Q 1981 -91 1556 -91 
Q 1019 -91 701 211 
Q 384 513 384 1019 
Q 384 1609 779 1909 
Q 1175 2209 1959 2209 
L 2766 2209 
L 2766 2266 
Q 2766 2663 2505 2880 
Q 2244 3097 1772 3097 
Q 1472 3097 1187 3025 
Q 903 2953 641 2809 
L 641 3341 
Q 956 3463 1253 3523 
Q 1550 3584 1831 3584 
Q 2591 3584 2966 3190 
Q 3341 2797 3341 1997 
z
" transform="scale(0.015625)"/>
       <path id="DejaVuSans-63" d="M 3122 3366 
L 3122 2828 
Q 2878 2963 2633 3030 
Q 2388 3097 2138 3097 
Q 1578 3097 1268 2742 
Q 959 2388 959 1747 
Q 959 1106 1268 751 
Q 1578 397 2138 397 
Q 2388 397 2633 464 
Q 2878 531 3122 666 
L 3122 134 
Q 2881 22 2623 -34 
Q 2366 -91 2075 -91 
Q 1284 -91 818 406 
Q 353 903 353 1747 
Q 353 2603 823 3093 
Q 1294 3584 2113 3584 
Q 2378 3584 2631 3529 
Q 2884 3475 3122 3366 
z
" transform="scale(0.015625)"/>
      </defs>
      <use xlink:href="#DejaVuSans-73"/>
      <use xlink:href="#DejaVuSans-70" x="52.099609"/>
      <use xlink:href="#DejaVuSans-6c" x="115.576172"/>
      <use xlink:href="#DejaVuSans-69" x="143.359375"/>
      <use xlink:href="#DejaVuSans-74" x="171.142578"/>
      <use xlink:href="#DejaVuSans-5f" x="210.351562"/>
      <use xlink:href="#DejaVuSans-66" x="260.351562"/>
      <use xlink:href="#DejaVuSans-72" x="295.556641"/>
      <use xlink:href="#DejaVuSans-61" x="336.669922"/>
      <use xlink:href="#DejaVuSans-63" x="397.949219"/>
     </g>
    </g>
   </g>
   <g id="matplotlib.axis_2">
    <g id="ytick_1">
     <g id="line2d_6">
      <path d="M 57.6 307.584 
L 414.72 307.584 
" clip-path="url(#pacb3124c4b)" style="fill: none; stroke: #ffffff; stroke-linecap: round"/>
     </g>
     <g id="text_7">
      <!-- 0 -->
      <g style="fill: #262626" transform="translate(41.10125 311.763141) scale(0.11 -0.11)">
       <use xlink:href="#DejaVuSans-30"/>
      </g>
     </g>
    </g>
    <g id="ytick_2">
     <g id="line2d_7">
      <path d="M 57.6 274.974057 
L 414.72 274.974057 
" clip-path="url(#pacb3124c4b)" style="fill: none; stroke: #ffffff; stroke-linecap: round"/>
     </g>
     <g id="text_8">
      <!-- 1 -->
      <g style="fill: #262626" transform="translate(41.10125 279.153197) scale(0.11 -0.11)">
       <defs>
        <path id="DejaVuSans-31" d="M 794 531 
L 1825 531 
L 1825 4091 
L 703 3866 
L 703 4441 
L 1819 4666 
L 2450 4666 
L 2450 531 
L 3481 531 
L 3481 0 
L 794 0 
L 794 531 
z
" transform="scale(0.015625)"/>
       </defs>
       <use xlink:href="#DejaVuSans-31"/>
      </g>
     </g>
    </g>
    <g id="ytick_3">
     <g id="line2d_8">
      <path d="M 57.6 242.364113 
L 414.72 242.364113 
" clip-path="url(#pacb3124c4b)" style="fill: none; stroke: #ffffff; stroke-linecap: round"/>
     </g>
     <g id="text_9">
      <!-- 2 -->
      <g style="fill: #262626" transform="translate(41.10125 246.543254) scale(0.11 -0.11)">
       <use xlink:href="#DejaVuSans-32"/>
      </g>
     </g>
    </g>
    <g id="ytick_4">
     <g id="line2d_9">
      <path d="M 57.6 209.75417 
L 414.72 209.75417 
" clip-path="url(#pacb3124c4b)" style="fill: none; stroke: #ffffff; stroke-linecap: round"/>
     </g>
     <g id="text_10">
      <!-- 3 -->
      <g style="fill: #262626" transform="translate(41.10125 213.933311) scale(0.11 -0.11)">
       <defs>
        <path id="DejaVuSans-33" d="M 2597 2516 
Q 3050 2419 3304 2112 
Q 3559 1806 3559 1356 
Q 3559 666 3084 287 
Q 2609 -91 1734 -91 
Q 1441 -91 1130 -33 
Q 819 25 488 141 
L 488 750 
Q 750 597 1062 519 
Q 1375 441 1716 441 
Q 2309 441 2620 675 
Q 2931 909 2931 1356 
Q 2931 1769 2642 2001 
Q 2353 2234 1838 2234 
L 1294 2234 
L 1294 2753 
L 1863 2753 
Q 2328 2753 2575 2939 
Q 2822 3125 2822 3475 
Q 2822 3834 2567 4026 
Q 2313 4219 1838 4219 
Q 1578 4219 1281 4162 
Q 984 4106 628 3988 
L 628 4550 
Q 988 4650 1302 4700 
Q 1616 4750 1894 4750 
Q 2613 4750 3031 4423 
Q 3450 4097 3450 3541 
Q 3450 3153 3228 2886 
Q 3006 2619 2597 2516 
z
" transform="scale(0.015625)"/>
       </defs>
       <use xlink:href="#DejaVuSans-33"/>
      </g>
     </g>
    </g>
    <g id="ytick_5">
     <g id="line2d_10">
      <path d="M 57.6 177.144227 
L 414.72 177.144227 
" clip-path="url(#pacb3124c4b)" style="fill: none; stroke: #ffffff; stroke-linecap: round"/>
     </g>
     <g id="text_11">
      <!-- 4 -->
      <g style="fill: #262626" transform="translate(41.10125 181.323367) scale(0.11 -0.11)">
       <use xlink:href="#DejaVuSans-34"/>
      </g>
     </g>
    </g>
    <g id="ytick_6">
     <g id="line2d_11">
      <path d="M 57.6 144.534284 
L 414.72 144.534284 
" clip-path="url(#pacb3124c4b)" style="fill: none; stroke: #ffffff; stroke-linecap: round"/>
     </g>
     <g id="text_12">
      <!-- 5 -->
      <g style="fill: #262626" transform="translate(41.10125 148.713424) scale(0.11 -0.11)">
       <defs>
        <path id="DejaVuSans-35" d="M 691 4666 
L 3169 4666 
L 3169 4134 
L 1269 4134 
L 1269 2991 
Q 1406 3038 1543 3061 
Q 1681 3084 1819 3084 
Q 2600 3084 3056 2656 
Q 3513 2228 3513 1497 
Q 3513 744 3044 326 
Q 2575 -91 1722 -91 
Q 1428 -91 1123 -41 
Q 819 9 494 109 
L 494 744 
Q 775 591 1075 516 
Q 1375 441 1709 441 
Q 2250 441 2565 725 
Q 2881 1009 2881 1497 
Q 2881 1984 2565 2268 
Q 2250 2553 1709 2553 
Q 1456 2553 1204 2497 
Q 953 2441 691 2322 
L 691 4666 
z
" transform="scale(0.015625)"/>
       </defs>
       <use xlink:href="#DejaVuSans-35"/>
      </g>
     </g>
    </g>
    <g id="ytick_7">
     <g id="line2d_12">
      <path d="M 57.6 111.92434 
L 414.72 111.92434 
" clip-path="url(#pacb3124c4b)" style="fill: none; stroke: #ffffff; stroke-linecap: round"/>
     </g>
     <g id="text_13">
      <!-- 6 -->
      <g style="fill: #262626" transform="translate(41.10125 116.103481) scale(0.11 -0.11)">
       <use xlink:href="#DejaVuSans-36"/>
      </g>
     </g>
    </g>
    <g id="ytick_8">
     <g id="line2d_13">
      <path d="M 57.6 79.314397 
L 414.72 79.314397 
" clip-path="url(#pacb3124c4b)" style="fill: none; stroke: #ffffff; stroke-linecap: round"/>
     </g>
     <g id="text_14">
      <!-- 7 -->
      <g style="fill: #262626" transform="translate(41.10125 83.493538) scale(0.11 -0.11)">
       <defs>
        <path id="DejaVuSans-37" d="M 525 4666 
L 3525 4666 
L 3525 4397 
L 1831 0 
L 1172 0 
L 2766 4134 
L 525 4134 
L 525 4666 
z
" transform="scale(0.015625)"/>
       </defs>
       <use xlink:href="#DejaVuSans-37"/>
      </g>
     </g>
    </g>
    <g id="ytick_9">
     <g id="line2d_14">
      <path d="M 57.6 46.704454 
L 414.72 46.704454 
" clip-path="url(#pacb3124c4b)" style="fill: none; stroke: #ffffff; stroke-linecap: round"/>
     </g>
     <g id="text_15">
      <!-- 8 -->
      <g style="fill: #262626" transform="translate(41.10125 50.883594) scale(0.11 -0.11)">
       <defs>
        <path id="DejaVuSans-38" d="M 2034 2216 
Q 1584 2216 1326 1975 
Q 1069 1734 1069 1313 
Q 1069 891 1326 650 
Q 1584 409 2034 409 
Q 2484 409 2743 651 
Q 3003 894 3003 1313 
Q 3003 1734 2745 1975 
Q 2488 2216 2034 2216 
z
M 1403 2484 
Q 997 2584 770 2862 
Q 544 3141 544 3541 
Q 544 4100 942 4425 
Q 1341 4750 2034 4750 
Q 2731 4750 3128 4425 
Q 3525 4100 3525 3541 
Q 3525 3141 3298 2862 
Q 3072 2584 2669 2484 
Q 3125 2378 3379 2068 
Q 3634 1759 3634 1313 
Q 3634 634 3220 271 
Q 2806 -91 2034 -91 
Q 1263 -91 848 271 
Q 434 634 434 1313 
Q 434 1759 690 2068 
Q 947 2378 1403 2484 
z
M 1172 3481 
Q 1172 3119 1398 2916 
Q 1625 2713 2034 2713 
Q 2441 2713 2670 2916 
Q 2900 3119 2900 3481 
Q 2900 3844 2670 4047 
Q 2441 4250 2034 4250 
Q 1625 4250 1398 4047 
Q 1172 3844 1172 3481 
z
" transform="scale(0.015625)"/>
       </defs>
       <use xlink:href="#DejaVuSans-38"/>
      </g>
     </g>
    </g>
    <g id="text_16">
     <!-- Density -->
     <g style="fill: #262626" transform="translate(34.605625 197.338313) rotate(-90) scale(0.12 -0.12)">
      <defs>
       <path id="DejaVuSans-44" d="M 1259 4147 
L 1259 519 
L 2022 519 
Q 2988 519 3436 956 
Q 3884 1394 3884 2338 
Q 3884 3275 3436 3711 
Q 2988 4147 2022 4147 
L 1259 4147 
z
M 628 4666 
L 1925 4666 
Q 3281 4666 3915 4102 
Q 4550 3538 4550 2338 
Q 4550 1131 3912 565 
Q 3275 0 1925 0 
L 628 0 
L 628 4666 
z
" transform="scale(0.015625)"/>
       <path id="DejaVuSans-65" d="M 3597 1894 
L 3597 1613 
L 953 1613 
Q 991 1019 1311 708 
Q 1631 397 2203 397 
Q 2534 397 2845 478 
Q 3156 559 3463 722 
L 3463 178 
Q 3153 47 2828 -22 
Q 2503 -91 2169 -91 
Q 1331 -91 842 396 
Q 353 884 353 1716 
Q 353 2575 817 3079 
Q 1281 3584 2069 3584 
Q 2775 3584 3186 3129 
Q 3597 2675 3597 1894 
z
M 3022 2063 
Q 3016 2534 2758 2815 
Q 2500 3097 2075 3097 
Q 1594 3097 1305 2825 
Q 1016 2553 972 2059 
L 3022 2063 
z
" transform="scale(0.015625)"/>
       <path id="DejaVuSans-6e" d="M 3513 2113 
L 3513 0 
L 2938 0 
L 2938 2094 
Q 2938 2591 2744 2837 
Q 2550 3084 2163 3084 
Q 1697 3084 1428 2787 
Q 1159 2491 1159 1978 
L 1159 0 
L 581 0 
L 581 3500 
L 1159 3500 
L 1159 2956 
Q 1366 3272 1645 3428 
Q 1925 3584 2291 3584 
Q 2894 3584 3203 3211 
Q 3513 2838 3513 2113 
z
" transform="scale(0.015625)"/>
       <path id="DejaVuSans-79" d="M 2059 -325 
Q 1816 -950 1584 -1140 
Q 1353 -1331 966 -1331 
L 506 -1331 
L 506 -850 
L 844 -850 
Q 1081 -850 1212 -737 
Q 1344 -625 1503 -206 
L 1606 56 
L 191 3500 
L 800 3500 
L 1894 763 
L 2988 3500 
L 3597 3500 
L 2059 -325 
z
" transform="scale(0.015625)"/>
      </defs>
      <use xlink:href="#DejaVuSans-44"/>
      <use xlink:href="#DejaVuSans-65" x="77.001953"/>
      <use xlink:href="#DejaVuSans-6e" x="138.525391"/>
      <use xlink:href="#DejaVuSans-73" x="201.904297"/>
      <use xlink:href="#DejaVuSans-69" x="254.003906"/>
      <use xlink:href="#DejaVuSans-74" x="281.787109"/>
      <use xlink:href="#DejaVuSans-79" x="320.996094"/>
     </g>
    </g>
   </g>
   <g id="PolyCollection_1">
    <defs>
     <path id="ma893813de7" d="M 108.668901 -38.016682 
L 108.668901 -38.016 
L 110.125275 -38.016 
L 111.581649 -38.016 
L 113.038022 -38.016 
L 114.494396 -38.016 
L 115.95077 -38.016 
L 117.407144 -38.016 
L 118.863517 -38.016 
L 120.319891 -38.016 
L 121.776265 -38.016 
L 123.232639 -38.016 
L 124.689012 -38.016 
L 126.145386 -38.016 
L 127.60176 -38.016 
L 129.058133 -38.016 
L 130.514507 -38.016 
L 131.970881 -38.016 
L 133.427255 -38.016 
L 134.883628 -38.016 
L 136.340002 -38.016 
L 137.796376 -38.016 
L 139.252749 -38.016 
L 140.709123 -38.016 
L 142.165497 -38.016 
L 143.621871 -38.016 
L 145.078244 -38.016 
L 146.534618 -38.016 
L 147.990992 -38.016 
L 149.447366 -38.016 
L 150.903739 -38.016 
L 152.360113 -38.016 
L 153.816487 -38.016 
L 155.27286 -38.016 
L 156.729234 -38.016 
L 158.185608 -38.016 
L 159.641982 -38.016 
L 161.098355 -38.016 
L 162.554729 -38.016 
L 164.011103 -38.016 
L 165.467477 -38.016 
L 166.92385 -38.016 
L 168.380224 -38.016 
L 169.836598 -38.016 
L 171.292971 -38.016 
L 172.749345 -38.016 
L 174.205719 -38.016 
L 175.662093 -38.016 
L 177.118466 -38.016 
L 178.57484 -38.016 
L 180.031214 -38.016 
L 181.487588 -38.016 
L 182.943961 -38.016 
L 184.400335 -38.016 
L 185.856709 -38.016 
L 187.313082 -38.016 
L 188.769456 -38.016 
L 190.22583 -38.016 
L 191.682204 -38.016 
L 193.138577 -38.016 
L 194.594951 -38.016 
L 196.051325 -38.016 
L 197.507699 -38.016 
L 198.964072 -38.016 
L 200.420446 -38.016 
L 201.87682 -38.016 
L 203.333193 -38.016 
L 204.789567 -38.016 
L 206.245941 -38.016 
L 207.702315 -38.016 
L 209.158688 -38.016 
L 210.615062 -38.016 
L 212.071436 -38.016 
L 213.52781 -38.016 
L 214.984183 -38.016 
L 216.440557 -38.016 
L 217.896931 -38.016 
L 219.353304 -38.016 
L 220.809678 -38.016 
L 222.266052 -38.016 
L 223.722426 -38.016 
L 225.178799 -38.016 
L 226.635173 -38.016 
L 228.091547 -38.016 
L 229.547921 -38.016 
L 231.004294 -38.016 
L 232.460668 -38.016 
L 233.917042 -38.016 
L 235.373415 -38.016 
L 236.829789 -38.016 
L 238.286163 -38.016 
L 239.742537 -38.016 
L 241.19891 -38.016 
L 242.655284 -38.016 
L 244.111658 -38.016 
L 245.568031 -38.016 
L 247.024405 -38.016 
L 248.480779 -38.016 
L 249.937153 -38.016 
L 251.393526 -38.016 
L 252.8499 -38.016 
L 254.306274 -38.016 
L 255.762648 -38.016 
L 257.219021 -38.016 
L 258.675395 -38.016 
L 260.131769 -38.016 
L 261.588142 -38.016 
L 263.044516 -38.016 
L 264.50089 -38.016 
L 265.957264 -38.016 
L 267.413637 -38.016 
L 268.870011 -38.016 
L 270.326385 -38.016 
L 271.782759 -38.016 
L 273.239132 -38.016 
L 274.695506 -38.016 
L 276.15188 -38.016 
L 277.608253 -38.016 
L 279.064627 -38.016 
L 280.521001 -38.016 
L 281.977375 -38.016 
L 283.433748 -38.016 
L 284.890122 -38.016 
L 286.346496 -38.016 
L 287.80287 -38.016 
L 289.259243 -38.016 
L 290.715617 -38.016 
L 292.171991 -38.016 
L 293.628364 -38.016 
L 295.084738 -38.016 
L 296.541112 -38.016 
L 297.997486 -38.016 
L 299.453859 -38.016 
L 300.910233 -38.016 
L 302.366607 -38.016 
L 303.822981 -38.016 
L 305.279354 -38.016 
L 306.735728 -38.016 
L 308.192102 -38.016 
L 309.648475 -38.016 
L 311.104849 -38.016 
L 312.561223 -38.016 
L 314.017597 -38.016 
L 315.47397 -38.016 
L 316.930344 -38.016 
L 318.386718 -38.016 
L 319.843092 -38.016 
L 321.299465 -38.016 
L 322.755839 -38.016 
L 324.212213 -38.016 
L 325.668586 -38.016 
L 327.12496 -38.016 
L 328.581334 -38.016 
L 330.037708 -38.016 
L 331.494081 -38.016 
L 332.950455 -38.016 
L 334.406829 -38.016 
L 335.863203 -38.016 
L 337.319576 -38.016 
L 338.77595 -38.016 
L 340.232324 -38.016 
L 341.688697 -38.016 
L 343.145071 -38.016 
L 344.601445 -38.016 
L 346.057819 -38.016 
L 347.514192 -38.016 
L 348.970566 -38.016 
L 350.42694 -38.016 
L 351.883313 -38.016 
L 353.339687 -38.016 
L 354.796061 -38.016 
L 356.252435 -38.016 
L 357.708808 -38.016 
L 359.165182 -38.016 
L 360.621556 -38.016 
L 362.07793 -38.016 
L 363.534303 -38.016 
L 364.990677 -38.016 
L 366.447051 -38.016 
L 367.903424 -38.016 
L 369.359798 -38.016 
L 370.816172 -38.016 
L 372.272546 -38.016 
L 373.728919 -38.016 
L 375.185293 -38.016 
L 376.641667 -38.016 
L 378.098041 -38.016 
L 379.554414 -38.016 
L 381.010788 -38.016 
L 382.467162 -38.016 
L 383.923535 -38.016 
L 385.379909 -38.016 
L 386.836283 -38.016 
L 388.292657 -38.016 
L 389.74903 -38.016 
L 391.205404 -38.016 
L 392.661778 -38.016 
L 394.118152 -38.016 
L 395.574525 -38.016 
L 397.030899 -38.016 
L 398.487273 -38.016 
L 398.487273 -38.016682 
L 398.487273 -38.016682 
L 397.030899 -38.018395 
L 395.574525 -38.022851 
L 394.118152 -38.031964 
L 392.661778 -38.046299 
L 391.205404 -38.062846 
L 389.74903 -38.075 
L 388.292657 -38.076532 
L 386.836283 -38.06659 
L 385.379909 -38.050442 
L 383.923535 -38.035101 
L 382.467162 -38.024629 
L 381.010788 -38.019176 
L 379.554414 -38.016952 
L 378.098041 -38.016232 
L 376.641667 -38.016046 
L 375.185293 -38.016007 
L 373.728919 -38.016001 
L 372.272546 -38.016 
L 370.816172 -38.016 
L 369.359798 -38.016 
L 367.903424 -38.016 
L 366.447051 -38.016 
L 364.990677 -38.016 
L 363.534303 -38.016 
L 362.07793 -38.016 
L 360.621556 -38.016 
L 359.165182 -38.016001 
L 357.708808 -38.016005 
L 356.252435 -38.016029 
L 354.796061 -38.016156 
L 353.339687 -38.016672 
L 351.883313 -38.018365 
L 350.42694 -38.022781 
L 348.970566 -38.031834 
L 347.514192 -38.046121 
L 346.057819 -38.062676 
L 344.601445 -38.074925 
L 343.145071 -38.076635 
L 341.688697 -38.067007 
L 340.232324 -38.051692 
L 338.77595 -38.038815 
L 337.319576 -38.034542 
L 335.863203 -38.041585 
L 334.406829 -38.05936 
L 332.950455 -38.083718 
L 331.494081 -38.10718 
L 330.037708 -38.121398 
L 328.581334 -38.12106 
L 327.12496 -38.106773 
L 325.668586 -38.085398 
L 324.212213 -38.067755 
L 322.755839 -38.064786 
L 321.299465 -38.08384 
L 319.843092 -38.125897 
L 318.386718 -38.184012 
L 316.930344 -38.244369 
L 315.47397 -38.29149 
L 314.017597 -38.315849 
L 312.561223 -38.31888 
L 311.104849 -38.31221 
L 309.648475 -38.313233 
L 308.192102 -38.340429 
L 306.735728 -38.408595 
L 305.279354 -38.523468 
L 303.822981 -38.678148 
L 302.366607 -38.853883 
L 300.910233 -39.02472 
L 299.453859 -39.166061 
L 297.997486 -39.268612 
L 296.541112 -39.350968 
L 295.084738 -39.453855 
L 293.628364 -39.611135 
L 292.171991 -39.824115 
L 290.715617 -40.071812 
L 289.259243 -40.347847 
L 287.80287 -40.67745 
L 286.346496 -41.09546 
L 284.890122 -41.622251 
L 283.433748 -42.274045 
L 281.977375 -43.089036 
L 280.521001 -44.126757 
L 279.064627 -45.438862 
L 277.608253 -47.049295 
L 276.15188 -48.959175 
L 274.695506 -51.148426 
L 273.239132 -53.562649 
L 271.782759 -56.126965 
L 270.326385 -58.813473 
L 268.870011 -61.702794 
L 267.413637 -64.95558 
L 265.957264 -68.704003 
L 264.50089 -72.972529 
L 263.044516 -77.720565 
L 261.588142 -82.966738 
L 260.131769 -88.832582 
L 258.675395 -95.41009 
L 257.219021 -102.593353 
L 255.762648 -110.112706 
L 254.306274 -117.786094 
L 252.8499 -125.72137 
L 251.393526 -134.23165 
L 249.937153 -143.525367 
L 248.480779 -153.441175 
L 247.024405 -163.429361 
L 245.568031 -172.783837 
L 244.111658 -180.973534 
L 242.655284 -187.859074 
L 241.19891 -193.664399 
L 239.742537 -198.77873 
L 238.286163 -203.566365 
L 236.829789 -208.240883 
L 235.373415 -212.749342 
L 233.917042 -216.711107 
L 232.460668 -219.560542 
L 231.004294 -220.895957 
L 229.547921 -220.784328 
L 228.091547 -219.754431 
L 226.635173 -218.486279 
L 225.178799 -217.47149 
L 223.722426 -216.892966 
L 222.266052 -216.718454 
L 220.809678 -216.820877 
L 219.353304 -216.994241 
L 217.896931 -216.918776 
L 216.440557 -216.208679 
L 214.984183 -214.551132 
L 213.52781 -211.802145 
L 212.071436 -207.965413 
L 210.615062 -203.135093 
L 209.158688 -197.480361 
L 207.702315 -191.238443 
L 206.245941 -184.678646 
L 204.789567 -178.074899 
L 203.333193 -171.712597 
L 201.87682 -165.883167 
L 200.420446 -160.831854 
L 198.964072 -156.711596 
L 197.507699 -153.599633 
L 196.051325 -151.52283 
L 194.594951 -150.410774 
L 193.138577 -150.035329 
L 191.682204 -150.061674 
L 190.22583 -150.182016 
L 188.769456 -150.168002 
L 187.313082 -149.780556 
L 185.856709 -148.66412 
L 184.400335 -146.364664 
L 182.943961 -142.45574 
L 181.487588 -136.657603 
L 180.031214 -128.894615 
L 178.57484 -119.329023 
L 177.118466 -108.395406 
L 175.662093 -96.779299 
L 174.205719 -85.287957 
L 172.749345 -74.670551 
L 171.292971 -65.486882 
L 169.836598 -58.038916 
L 168.380224 -52.338315 
L 166.92385 -48.142692 
L 165.467477 -45.090679 
L 164.011103 -42.862797 
L 162.554729 -41.257659 
L 161.098355 -40.162065 
L 159.641982 -39.482154 
L 158.185608 -39.103445 
L 156.729234 -38.900149 
L 155.27286 -38.771837 
L 153.816487 -38.668095 
L 152.360113 -38.579727 
L 150.903739 -38.510848 
L 149.447366 -38.458907 
L 147.990992 -38.412638 
L 146.534618 -38.360392 
L 145.078244 -38.298206 
L 143.621871 -38.231073 
L 142.165497 -38.16759 
L 140.709123 -38.114169 
L 139.252749 -38.073513 
L 137.796376 -38.045771 
L 136.340002 -38.029282 
L 134.883628 -38.021004 
L 133.427255 -38.01757 
L 131.970881 -38.016413 
L 130.514507 -38.016132 
L 129.058133 -38.016247 
L 127.60176 -38.016954 
L 126.145386 -38.019176 
L 124.689012 -38.024629 
L 123.232639 -38.035101 
L 121.776265 -38.050442 
L 120.319891 -38.06659 
L 118.863517 -38.076532 
L 117.407144 -38.075 
L 115.95077 -38.062846 
L 114.494396 -38.046299 
L 113.038022 -38.031964 
L 111.581649 -38.022851 
L 110.125275 -38.018395 
L 108.668901 -38.016682 
z
" style="stroke: #4c72b0"/>
    </defs>
    <g clip-path="url(#pacb3124c4b)">
     <use xlink:href="#ma893813de7" x="0" y="345.6" style="fill: #4c72b0; fill-opacity: 0.25; stroke: #4c72b0"/>
    </g>
   </g>
   <g id="PolyCollection_2">
    <defs>
     <path id="m48a62c8f56" d="M 73.832727 -38.017384 
L 73.832727 -38.016 
L 75.11379 -38.016 
L 76.394853 -38.016 
L 77.675916 -38.016 
L 78.956978 -38.016 
L 80.238041 -38.016 
L 81.519104 -38.016 
L 82.800167 -38.016 
L 84.08123 -38.016 
L 85.362293 -38.016 
L 86.643355 -38.016 
L 87.924418 -38.016 
L 89.205481 -38.016 
L 90.486544 -38.016 
L 91.767607 -38.016 
L 93.048669 -38.016 
L 94.329732 -38.016 
L 95.610795 -38.016 
L 96.891858 -38.016 
L 98.172921 -38.016 
L 99.453983 -38.016 
L 100.735046 -38.016 
L 102.016109 -38.016 
L 103.297172 -38.016 
L 104.578235 -38.016 
L 105.859297 -38.016 
L 107.14036 -38.016 
L 108.421423 -38.016 
L 109.702486 -38.016 
L 110.983549 -38.016 
L 112.264611 -38.016 
L 113.545674 -38.016 
L 114.826737 -38.016 
L 116.1078 -38.016 
L 117.388863 -38.016 
L 118.669925 -38.016 
L 119.950988 -38.016 
L 121.232051 -38.016 
L 122.513114 -38.016 
L 123.794177 -38.016 
L 125.075239 -38.016 
L 126.356302 -38.016 
L 127.637365 -38.016 
L 128.918428 -38.016 
L 130.199491 -38.016 
L 131.480553 -38.016 
L 132.761616 -38.016 
L 134.042679 -38.016 
L 135.323742 -38.016 
L 136.604805 -38.016 
L 137.885867 -38.016 
L 139.16693 -38.016 
L 140.447993 -38.016 
L 141.729056 -38.016 
L 143.010119 -38.016 
L 144.291181 -38.016 
L 145.572244 -38.016 
L 146.853307 -38.016 
L 148.13437 -38.016 
L 149.415433 -38.016 
L 150.696496 -38.016 
L 151.977558 -38.016 
L 153.258621 -38.016 
L 154.539684 -38.016 
L 155.820747 -38.016 
L 157.10181 -38.016 
L 158.382872 -38.016 
L 159.663935 -38.016 
L 160.944998 -38.016 
L 162.226061 -38.016 
L 163.507124 -38.016 
L 164.788186 -38.016 
L 166.069249 -38.016 
L 167.350312 -38.016 
L 168.631375 -38.016 
L 169.912438 -38.016 
L 171.1935 -38.016 
L 172.474563 -38.016 
L 173.755626 -38.016 
L 175.036689 -38.016 
L 176.317752 -38.016 
L 177.598814 -38.016 
L 178.879877 -38.016 
L 180.16094 -38.016 
L 181.442003 -38.016 
L 182.723066 -38.016 
L 184.004128 -38.016 
L 185.285191 -38.016 
L 186.566254 -38.016 
L 187.847317 -38.016 
L 189.12838 -38.016 
L 190.409442 -38.016 
L 191.690505 -38.016 
L 192.971568 -38.016 
L 194.252631 -38.016 
L 195.533694 -38.016 
L 196.814756 -38.016 
L 198.095819 -38.016 
L 199.376882 -38.016 
L 200.657945 -38.016 
L 201.939008 -38.016 
L 203.22007 -38.016 
L 204.501133 -38.016 
L 205.782196 -38.016 
L 207.063259 -38.016 
L 208.344322 -38.016 
L 209.625385 -38.016 
L 210.906447 -38.016 
L 212.18751 -38.016 
L 213.468573 -38.016 
L 214.749636 -38.016 
L 216.030699 -38.016 
L 217.311761 -38.016 
L 218.592824 -38.016 
L 219.873887 -38.016 
L 221.15495 -38.016 
L 222.436013 -38.016 
L 223.717075 -38.016 
L 224.998138 -38.016 
L 226.279201 -38.016 
L 227.560264 -38.016 
L 228.841327 -38.016 
L 230.122389 -38.016 
L 231.403452 -38.016 
L 232.684515 -38.016 
L 233.965578 -38.016 
L 235.246641 -38.016 
L 236.527703 -38.016 
L 237.808766 -38.016 
L 239.089829 -38.016 
L 240.370892 -38.016 
L 241.651955 -38.016 
L 242.933017 -38.016 
L 244.21408 -38.016 
L 245.495143 -38.016 
L 246.776206 -38.016 
L 248.057269 -38.016 
L 249.338331 -38.016 
L 250.619394 -38.016 
L 251.900457 -38.016 
L 253.18152 -38.016 
L 254.462583 -38.016 
L 255.743645 -38.016 
L 257.024708 -38.016 
L 258.305771 -38.016 
L 259.586834 -38.016 
L 260.867897 -38.016 
L 262.148959 -38.016 
L 263.430022 -38.016 
L 264.711085 -38.016 
L 265.992148 -38.016 
L 267.273211 -38.016 
L 268.554273 -38.016 
L 269.835336 -38.016 
L 271.116399 -38.016 
L 272.397462 -38.016 
L 273.678525 -38.016 
L 274.959588 -38.016 
L 276.24065 -38.016 
L 277.521713 -38.016 
L 278.802776 -38.016 
L 280.083839 -38.016 
L 281.364902 -38.016 
L 282.645964 -38.016 
L 283.927027 -38.016 
L 285.20809 -38.016 
L 286.489153 -38.016 
L 287.770216 -38.016 
L 289.051278 -38.016 
L 290.332341 -38.016 
L 291.613404 -38.016 
L 292.894467 -38.016 
L 294.17553 -38.016 
L 295.456592 -38.016 
L 296.737655 -38.016 
L 298.018718 -38.016 
L 299.299781 -38.016 
L 300.580844 -38.016 
L 301.861906 -38.016 
L 303.142969 -38.016 
L 304.424032 -38.016 
L 305.705095 -38.016 
L 306.986158 -38.016 
L 308.26722 -38.016 
L 309.548283 -38.016 
L 310.829346 -38.016 
L 312.110409 -38.016 
L 313.391472 -38.016 
L 314.672534 -38.016 
L 315.953597 -38.016 
L 317.23466 -38.016 
L 318.515723 -38.016 
L 319.796786 -38.016 
L 321.077848 -38.016 
L 322.358911 -38.016 
L 323.639974 -38.016 
L 324.921037 -38.016 
L 326.2021 -38.016 
L 327.483162 -38.016 
L 328.764225 -38.016 
L 328.764225 -38.017384 
L 328.764225 -38.017384 
L 327.483162 -38.020377 
L 326.2021 -38.027683 
L 324.921037 -38.042312 
L 323.639974 -38.065995 
L 322.358911 -38.096153 
L 321.077848 -38.124421 
L 319.796786 -38.139745 
L 318.515723 -38.135184 
L 317.23466 -38.112948 
L 315.953597 -38.082941 
L 314.672534 -38.056449 
L 313.391472 -38.04102 
L 312.110409 -38.040011 
L 310.829346 -38.054739 
L 309.548283 -38.085255 
L 308.26722 -38.12861 
L 306.986158 -38.177304 
L 305.705095 -38.221051 
L 304.424032 -38.251838 
L 303.142969 -38.269026 
L 301.861906 -38.281321 
L 300.580844 -38.30497 
L 299.299781 -38.359328 
L 298.018718 -38.460731 
L 296.737655 -38.615322 
L 295.456592 -38.81375 
L 294.17553 -39.033342 
L 292.894467 -39.24972 
L 291.613404 -39.450059 
L 290.332341 -39.63662 
L 289.051278 -39.81907 
L 287.770216 -40.006044 
L 286.489153 -40.205313 
L 285.20809 -40.43008 
L 283.927027 -40.700803 
L 282.645964 -41.037097 
L 281.364902 -41.447419 
L 280.083839 -41.929218 
L 278.802776 -42.478984 
L 277.521713 -43.096781 
L 276.24065 -43.778747 
L 274.959588 -44.514324 
L 273.678525 -45.304334 
L 272.397462 -46.185918 
L 271.116399 -47.233391 
L 269.835336 -48.526978 
L 268.554273 -50.116314 
L 267.273211 -52.01182 
L 265.992148 -54.210618 
L 264.711085 -56.733449 
L 263.430022 -59.643469 
L 262.148959 -63.040096 
L 260.867897 -67.047895 
L 259.586834 -71.817482 
L 258.305771 -77.519789 
L 257.024708 -84.300395 
L 255.743645 -92.210062 
L 254.462583 -101.18214 
L 253.18152 -111.093529 
L 251.900457 -121.853027 
L 250.619394 -133.437479 
L 249.338331 -145.870798 
L 248.057269 -159.195655 
L 246.776206 -173.443765 
L 245.495143 -188.552279 
L 244.21408 -204.219174 
L 242.933017 -219.812063 
L 241.651955 -234.485493 
L 240.370892 -247.517034 
L 239.089829 -258.63776 
L 237.808766 -268.060491 
L 236.527703 -276.14451 
L 235.246641 -282.973873 
L 233.965578 -288.193164 
L 232.684515 -291.18774 
L 231.403452 -291.456 
L 230.122389 -288.993971 
L 228.841327 -284.51791 
L 227.560264 -279.31538 
L 226.279201 -274.678562 
L 224.998138 -271.250018 
L 223.717075 -268.768056 
L 222.436013 -266.373626 
L 221.15495 -263.1707 
L 219.873887 -258.613855 
L 218.592824 -252.579715 
L 217.311761 -245.280821 
L 216.030699 -237.187907 
L 214.749636 -228.931453 
L 213.468573 -221.074391 
L 212.18751 -213.807127 
L 210.906447 -206.796304 
L 209.625385 -199.361893 
L 208.344322 -190.897912 
L 207.063259 -181.254207 
L 205.782196 -170.834915 
L 204.501133 -160.39049 
L 203.22007 -150.69151 
L 201.939008 -142.290959 
L 200.657945 -135.419827 
L 199.376882 -129.953799 
L 198.095819 -125.469887 
L 196.814756 -121.471471 
L 195.533694 -117.692445 
L 194.252631 -114.213515 
L 192.971568 -111.271038 
L 191.690505 -108.975808 
L 190.409442 -107.233057 
L 189.12838 -105.874917 
L 187.847317 -104.771862 
L 186.566254 -103.777923 
L 185.285191 -102.619387 
L 184.004128 -100.912898 
L 182.723066 -98.330514 
L 181.442003 -94.758087 
L 180.16094 -90.311542 
L 178.879877 -85.220906 
L 177.598814 -79.698589 
L 176.317752 -73.898347 
L 175.036689 -67.974768 
L 173.755626 -62.158294 
L 172.474563 -56.752963 
L 171.1935 -52.046355 
L 169.912438 -48.206596 
L 168.631375 -45.245934 
L 167.350312 -43.061704 
L 166.069249 -41.504288 
L 164.788186 -40.423803 
L 163.507124 -39.687443 
L 162.226061 -39.184213 
L 160.944998 -38.82937 
L 159.663935 -38.568008 
L 158.382872 -38.372674 
L 157.10181 -38.234353 
L 155.820747 -38.151692 
L 154.539684 -38.123434 
L 153.258621 -38.144289 
L 151.977558 -38.201725 
L 150.696496 -38.274002 
L 149.415433 -38.333452 
L 148.13437 -38.356415 
L 146.853307 -38.334007 
L 145.572244 -38.275331 
L 144.291181 -38.20079 
L 143.010119 -38.130933 
L 141.729056 -38.078208 
L 140.447993 -38.045174 
L 139.16693 -38.027798 
L 137.885867 -38.020095 
L 136.604805 -38.017215 
L 135.323742 -38.016307 
L 134.042679 -38.016066 
L 132.761616 -38.016012 
L 131.480553 -38.016002 
L 130.199491 -38.016 
L 128.918428 -38.016 
L 127.637365 -38.016 
L 126.356302 -38.016 
L 125.075239 -38.016 
L 123.794177 -38.016001 
L 122.513114 -38.016005 
L 121.232051 -38.016029 
L 119.950988 -38.016145 
L 118.669925 -38.016606 
L 117.388863 -38.018137 
L 116.1078 -38.022359 
L 114.826737 -38.031965 
L 113.545674 -38.049818 
L 112.264611 -38.07644 
L 110.983549 -38.107141 
L 109.702486 -38.13196 
L 108.421423 -38.140483 
L 107.14036 -38.12875 
L 105.859297 -38.102165 
L 104.578235 -38.071558 
L 103.297172 -38.046226 
L 102.016109 -38.029874 
L 100.735046 -38.021373 
L 99.453983 -38.017756 
L 98.172921 -38.016485 
L 96.891858 -38.01612 
L 95.610795 -38.016063 
L 94.329732 -38.016198 
L 93.048669 -38.016786 
L 91.767607 -38.01868 
L 90.486544 -38.023713 
L 89.205481 -38.034733 
L 87.924418 -38.054386 
L 86.643355 -38.082367 
L 85.362293 -38.112813 
L 84.08123 -38.135157 
L 82.800167 -38.139741 
L 81.519104 -38.124421 
L 80.238041 -38.096153 
L 78.956978 -38.065995 
L 77.675916 -38.042312 
L 76.394853 -38.027683 
L 75.11379 -38.020377 
L 73.832727 -38.017384 
z
" style="stroke: #dd8452"/>
    </defs>
    <g clip-path="url(#pacb3124c4b)">
     <use xlink:href="#m48a62c8f56" x="0" y="345.6" style="fill: #dd8452; fill-opacity: 0.25; stroke: #dd8452"/>
    </g>
   </g>
   <g id="patch_3">
    <path d="M 57.6 307.584 
L 57.6 41.472 
" style="fill: none; stroke: #ffffff; stroke-width: 1.25; stroke-linejoin: miter; stroke-linecap: square"/>
   </g>
   <g id="patch_4">
    <path d="M 414.72 307.584 
L 414.72 41.472 
" style="fill: none; stroke: #ffffff; stroke-width: 1.25; stroke-linejoin: miter; stroke-linecap: square"/>
   </g>
   <g id="patch_5">
    <path d="M 57.6 307.584 
L 414.72 307.584 
" style="fill: none; stroke: #ffffff; stroke-width: 1.25; stroke-linejoin: miter; stroke-linecap: square"/>
   </g>
   <g id="patch_6">
    <path d="M 57.6 41.472 
L 414.72 41.472 
" style="fill: none; stroke: #ffffff; stroke-width: 1.25; stroke-linejoin: miter; stroke-linecap: square"/>
   </g>
   <g id="legend_1">
    <g id="patch_7">
     <path d="M 331.639063 82.563875 
L 407.02 82.563875 
Q 409.22 82.563875 409.22 80.363875 
L 409.22 49.172 
Q 409.22 46.972 407.02 46.972 
L 331.639063 46.972 
Q 329.439063 46.972 329.439063 49.172 
L 329.439063 80.363875 
Q 329.439063 82.563875 331.639063 82.563875 
z
" style="fill: #eaeaf2; opacity: 0.8; stroke: #cccccc; stroke-linejoin: miter"/>
    </g>
    <g id="patch_8">
     <path d="M 333.839063 59.730281 
L 355.839063 59.730281 
L 355.839063 52.030281 
L 333.839063 52.030281 
z
" style="fill: #4c72b0; fill-opacity: 0.25; stroke: #4c72b0; stroke-linejoin: miter"/>
    </g>
    <g id="text_17">
     <!-- men -->
     <g style="fill: #262626" transform="translate(364.639063 59.730281) scale(0.11 -0.11)">
      <defs>
       <path id="DejaVuSans-6d" d="M 3328 2828 
Q 3544 3216 3844 3400 
Q 4144 3584 4550 3584 
Q 5097 3584 5394 3201 
Q 5691 2819 5691 2113 
L 5691 0 
L 5113 0 
L 5113 2094 
Q 5113 2597 4934 2840 
Q 4756 3084 4391 3084 
Q 3944 3084 3684 2787 
Q 3425 2491 3425 1978 
L 3425 0 
L 2847 0 
L 2847 2094 
Q 2847 2600 2669 2842 
Q 2491 3084 2119 3084 
Q 1678 3084 1418 2786 
Q 1159 2488 1159 1978 
L 1159 0 
L 581 0 
L 581 3500 
L 1159 3500 
L 1159 2956 
Q 1356 3278 1631 3431 
Q 1906 3584 2284 3584 
Q 2666 3584 2933 3390 
Q 3200 3197 3328 2828 
z
" transform="scale(0.015625)"/>
      </defs>
      <use xlink:href="#DejaVuSans-6d"/>
      <use xlink:href="#DejaVuSans-65" x="97.412109"/>
      <use xlink:href="#DejaVuSans-6e" x="158.935547"/>
     </g>
    </g>
    <g id="patch_9">
     <path d="M 333.839063 75.876219 
L 355.839063 75.876219 
L 355.839063 68.176219 
L 333.839063 68.176219 
z
" style="fill: #dd8452; fill-opacity: 0.25; stroke: #dd8452; stroke-linejoin: miter"/>
    </g>
    <g id="text_18">
     <!-- women -->
     <g style="fill: #262626" transform="translate(364.639063 75.876219) scale(0.11 -0.11)">
      <defs>
       <path id="DejaVuSans-77" d="M 269 3500 
L 844 3500 
L 1563 769 
L 2278 3500 
L 2956 3500 
L 3675 769 
L 4391 3500 
L 4966 3500 
L 4050 0 
L 3372 0 
L 2619 2869 
L 1863 0 
L 1184 0 
L 269 3500 
z
" transform="scale(0.015625)"/>
       <path id="DejaVuSans-6f" d="M 1959 3097 
Q 1497 3097 1228 2736 
Q 959 2375 959 1747 
Q 959 1119 1226 758 
Q 1494 397 1959 397 
Q 2419 397 2687 759 
Q 2956 1122 2956 1747 
Q 2956 2369 2687 2733 
Q 2419 3097 1959 3097 
z
M 1959 3584 
Q 2709 3584 3137 3096 
Q 3566 2609 3566 1747 
Q 3566 888 3137 398 
Q 2709 -91 1959 -91 
Q 1206 -91 779 398 
Q 353 888 353 1747 
Q 353 2609 779 3096 
Q 1206 3584 1959 3584 
z
" transform="scale(0.015625)"/>
      </defs>
      <use xlink:href="#DejaVuSans-77"/>
      <use xlink:href="#DejaVuSans-6f" x="81.787109"/>
      <use xlink:href="#DejaVuSans-6d" x="142.96875"/>
      <use xlink:href="#DejaVuSans-65" x="240.380859"/>
      <use xlink:href="#DejaVuSans-6e" x="301.904297"/>
     </g>
    </g>
   </g>
  </g>
 </g>
 <defs>
  <clipPath id="pacb3124c4b">
   <rect x="57.6" y="41.472" width="357.12" height="266.112"/>
  </clipPath>
 </defs>
</svg>
