<?xml version="1.0" encoding="utf-8" standalone="no"?>
<!DOCTYPE svg PUBLIC "-//W3C//DTD SVG 1.1//EN"
  "http://www.w3.org/Graphics/SVG/1.1/DTD/svg11.dtd">
<svg xmlns:xlink="http://www.w3.org/1999/xlink" width="460.8pt" height="345.6pt" viewBox="0 0 460.8 345.6" xmlns="http://www.w3.org/2000/svg" version="1.1">
 <metadata>
  <rdf:RDF xmlns:dc="http://purl.org/dc/elements/1.1/" xmlns:cc="http://creativecommons.org/ns#" xmlns:rdf="http://www.w3.org/1999/02/22-rdf-syntax-ns#">
   <cc:Work>
    <dc:type rdf:resource="http://purl.org/dc/dcmitype/StillImage"/>
    <dc:date>2023-08-12T23:29:40.013643</dc:date>
    <dc:format>image/svg+xml</dc:format>
    <dc:creator>
     <cc:Agent>
      <dc:title>Matplotlib v3.7.1, https://matplotlib.org/</dc:title>
     </cc:Agent>
    </dc:creator>
   </cc:Work>
  </rdf:RDF>
 </metadata>
 <defs>
  <style type="text/css">*{stroke-linejoin: round; stroke-linecap: butt}</style>
 </defs>
 <g id="figure_1">
  <g id="patch_1">
   <path d="M 0 345.6 
L 460.8 345.6 
L 460.8 0 
L 0 0 
z
" style="fill: #ffffff"/>
  </g>
  <g id="axes_1">
   <g id="patch_2">
    <path d="M 57.6 307.584 
L 414.72 307.584 
L 414.72 41.472 
L 57.6 41.472 
z
" style="fill: #eaeaf2"/>
   </g>
   <g id="matplotlib.axis_1">
    <g id="xtick_1">
     <g id="text_1">
      <!-- M -->
      <g style="fill: #262626" transform="translate(142.134531 325.442281) scale(0.11 -0.11)">
       <defs>
        <path id="DejaVuSans-4d" d="M 628 4666 
L 1569 4666 
L 2759 1491 
L 3956 4666 
L 4897 4666 
L 4897 0 
L 4281 0 
L 4281 4097 
L 3078 897 
L 2444 897 
L 1241 4097 
L 1241 0 
L 628 0 
L 628 4666 
z
" transform="scale(0.015625)"/>
       </defs>
       <use xlink:href="#DejaVuSans-4d"/>
      </g>
     </g>
    </g>
    <g id="xtick_2">
     <g id="text_2">
      <!-- W -->
      <g style="fill: #262626" transform="translate(320.001875 325.442281) scale(0.11 -0.11)">
       <defs>
        <path id="DejaVuSans-57" d="M 213 4666 
L 850 4666 
L 1831 722 
L 2809 4666 
L 3519 4666 
L 4500 722 
L 5478 4666 
L 6119 4666 
L 4947 0 
L 4153 0 
L 3169 4050 
L 2175 0 
L 1381 0 
L 213 4666 
z
" transform="scale(0.015625)"/>
       </defs>
       <use xlink:href="#DejaVuSans-57"/>
      </g>
     </g>
    </g>
    <g id="text_3">
     <!-- gender -->
     <g style="fill: #262626" transform="translate(214.889062 340.848062) scale(0.12 -0.12)">
      <defs>
       <path id="DejaVuSans-67" d="M 2906 1791 
Q 2906 2416 2648 2759 
Q 2391 3103 1925 3103 
Q 1463 3103 1205 2759 
Q 947 2416 947 1791 
Q 947 1169 1205 825 
Q 1463 481 1925 481 
Q 2391 481 2648 825 
Q 2906 1169 2906 1791 
z
M 3481 434 
Q 3481 -459 3084 -895 
Q 2688 -1331 1869 -1331 
Q 1566 -1331 1297 -1286 
Q 1028 -1241 775 -1147 
L 775 -588 
Q 1028 -725 1275 -790 
Q 1522 -856 1778 -856 
Q 2344 -856 2625 -561 
Q 2906 -266 2906 331 
L 2906 616 
Q 2728 306 2450 153 
Q 2172 0 1784 0 
Q 1141 0 747 490 
Q 353 981 353 1791 
Q 353 2603 747 3093 
Q 1141 3584 1784 3584 
Q 2172 3584 2450 3431 
Q 2728 3278 2906 2969 
L 2906 3500 
L 3481 3500 
L 3481 434 
z
" transform="scale(0.015625)"/>
       <path id="DejaVuSans-65" d="M 3597 1894 
L 3597 1613 
L 953 1613 
Q 991 1019 1311 708 
Q 1631 397 2203 397 
Q 2534 397 2845 478 
Q 3156 559 3463 722 
L 3463 178 
Q 3153 47 2828 -22 
Q 2503 -91 2169 -91 
Q 1331 -91 842 396 
Q 353 884 353 1716 
Q 353 2575 817 3079 
Q 1281 3584 2069 3584 
Q 2775 3584 3186 3129 
Q 3597 2675 3597 1894 
z
M 3022 2063 
Q 3016 2534 2758 2815 
Q 2500 3097 2075 3097 
Q 1594 3097 1305 2825 
Q 1016 2553 972 2059 
L 3022 2063 
z
" transform="scale(0.015625)"/>
       <path id="DejaVuSans-6e" d="M 3513 2113 
L 3513 0 
L 2938 0 
L 2938 2094 
Q 2938 2591 2744 2837 
Q 2550 3084 2163 3084 
Q 1697 3084 1428 2787 
Q 1159 2491 1159 1978 
L 1159 0 
L 581 0 
L 581 3500 
L 1159 3500 
L 1159 2956 
Q 1366 3272 1645 3428 
Q 1925 3584 2291 3584 
Q 2894 3584 3203 3211 
Q 3513 2838 3513 2113 
z
" transform="scale(0.015625)"/>
       <path id="DejaVuSans-64" d="M 2906 2969 
L 2906 4863 
L 3481 4863 
L 3481 0 
L 2906 0 
L 2906 525 
Q 2725 213 2448 61 
Q 2172 -91 1784 -91 
Q 1150 -91 751 415 
Q 353 922 353 1747 
Q 353 2572 751 3078 
Q 1150 3584 1784 3584 
Q 2172 3584 2448 3432 
Q 2725 3281 2906 2969 
z
M 947 1747 
Q 947 1113 1208 752 
Q 1469 391 1925 391 
Q 2381 391 2643 752 
Q 2906 1113 2906 1747 
Q 2906 2381 2643 2742 
Q 2381 3103 1925 3103 
Q 1469 3103 1208 2742 
Q 947 2381 947 1747 
z
" transform="scale(0.015625)"/>
       <path id="DejaVuSans-72" d="M 2631 2963 
Q 2534 3019 2420 3045 
Q 2306 3072 2169 3072 
Q 1681 3072 1420 2755 
Q 1159 2438 1159 1844 
L 1159 0 
L 581 0 
L 581 3500 
L 1159 3500 
L 1159 2956 
Q 1341 3275 1631 3429 
Q 1922 3584 2338 3584 
Q 2397 3584 2469 3576 
Q 2541 3569 2628 3553 
L 2631 2963 
z
" transform="scale(0.015625)"/>
      </defs>
      <use xlink:href="#DejaVuSans-67"/>
      <use xlink:href="#DejaVuSans-65" x="63.476562"/>
      <use xlink:href="#DejaVuSans-6e" x="125"/>
      <use xlink:href="#DejaVuSans-64" x="188.378906"/>
      <use xlink:href="#DejaVuSans-65" x="251.855469"/>
      <use xlink:href="#DejaVuSans-72" x="313.378906"/>
     </g>
    </g>
   </g>
   <g id="matplotlib.axis_2">
    <g id="ytick_1">
     <g id="line2d_1">
      <path d="M 57.6 280.235035 
L 414.72 280.235035 
" clip-path="url(#p757cfb3815)" style="fill: none; stroke: #ffffff; stroke-linecap: round"/>
     </g>
     <g id="text_4">
      <!-- −0.2 -->
      <g style="fill: #262626" transform="translate(21.388906 284.414175) scale(0.11 -0.11)">
       <defs>
        <path id="DejaVuSans-2212" d="M 678 2272 
L 4684 2272 
L 4684 1741 
L 678 1741 
L 678 2272 
z
" transform="scale(0.015625)"/>
        <path id="DejaVuSans-30" d="M 2034 4250 
Q 1547 4250 1301 3770 
Q 1056 3291 1056 2328 
Q 1056 1369 1301 889 
Q 1547 409 2034 409 
Q 2525 409 2770 889 
Q 3016 1369 3016 2328 
Q 3016 3291 2770 3770 
Q 2525 4250 2034 4250 
z
M 2034 4750 
Q 2819 4750 3233 4129 
Q 3647 3509 3647 2328 
Q 3647 1150 3233 529 
Q 2819 -91 2034 -91 
Q 1250 -91 836 529 
Q 422 1150 422 2328 
Q 422 3509 836 4129 
Q 1250 4750 2034 4750 
z
" transform="scale(0.015625)"/>
        <path id="DejaVuSans-2e" d="M 684 794 
L 1344 794 
L 1344 0 
L 684 0 
L 684 794 
z
" transform="scale(0.015625)"/>
        <path id="DejaVuSans-32" d="M 1228 531 
L 3431 531 
L 3431 0 
L 469 0 
L 469 531 
Q 828 903 1448 1529 
Q 2069 2156 2228 2338 
Q 2531 2678 2651 2914 
Q 2772 3150 2772 3378 
Q 2772 3750 2511 3984 
Q 2250 4219 1831 4219 
Q 1534 4219 1204 4116 
Q 875 4013 500 3803 
L 500 4441 
Q 881 4594 1212 4672 
Q 1544 4750 1819 4750 
Q 2544 4750 2975 4387 
Q 3406 4025 3406 3419 
Q 3406 3131 3298 2873 
Q 3191 2616 2906 2266 
Q 2828 2175 2409 1742 
Q 1991 1309 1228 531 
z
" transform="scale(0.015625)"/>
       </defs>
       <use xlink:href="#DejaVuSans-2212"/>
       <use xlink:href="#DejaVuSans-30" x="83.789062"/>
       <use xlink:href="#DejaVuSans-2e" x="147.412109"/>
       <use xlink:href="#DejaVuSans-32" x="179.199219"/>
      </g>
     </g>
    </g>
    <g id="ytick_2">
     <g id="line2d_2">
      <path d="M 57.6 223.319537 
L 414.72 223.319537 
" clip-path="url(#p757cfb3815)" style="fill: none; stroke: #ffffff; stroke-linecap: round"/>
     </g>
     <g id="text_5">
      <!-- 0.0 -->
      <g style="fill: #262626" transform="translate(30.606563 227.498677) scale(0.11 -0.11)">
       <use xlink:href="#DejaVuSans-30"/>
       <use xlink:href="#DejaVuSans-2e" x="63.623047"/>
       <use xlink:href="#DejaVuSans-30" x="95.410156"/>
      </g>
     </g>
    </g>
    <g id="ytick_3">
     <g id="line2d_3">
      <path d="M 57.6 166.404038 
L 414.72 166.404038 
" clip-path="url(#p757cfb3815)" style="fill: none; stroke: #ffffff; stroke-linecap: round"/>
     </g>
     <g id="text_6">
      <!-- 0.2 -->
      <g style="fill: #262626" transform="translate(30.606563 170.583179) scale(0.11 -0.11)">
       <use xlink:href="#DejaVuSans-30"/>
       <use xlink:href="#DejaVuSans-2e" x="63.623047"/>
       <use xlink:href="#DejaVuSans-32" x="95.410156"/>
      </g>
     </g>
    </g>
    <g id="ytick_4">
     <g id="line2d_4">
      <path d="M 57.6 109.48854 
L 414.72 109.48854 
" clip-path="url(#p757cfb3815)" style="fill: none; stroke: #ffffff; stroke-linecap: round"/>
     </g>
     <g id="text_7">
      <!-- 0.4 -->
      <g style="fill: #262626" transform="translate(30.606563 113.667681) scale(0.11 -0.11)">
       <defs>
        <path id="DejaVuSans-34" d="M 2419 4116 
L 825 1625 
L 2419 1625 
L 2419 4116 
z
M 2253 4666 
L 3047 4666 
L 3047 1625 
L 3713 1625 
L 3713 1100 
L 3047 1100 
L 3047 0 
L 2419 0 
L 2419 1100 
L 313 1100 
L 313 1709 
L 2253 4666 
z
" transform="scale(0.015625)"/>
       </defs>
       <use xlink:href="#DejaVuSans-30"/>
       <use xlink:href="#DejaVuSans-2e" x="63.623047"/>
       <use xlink:href="#DejaVuSans-34" x="95.410156"/>
      </g>
     </g>
    </g>
    <g id="ytick_5">
     <g id="line2d_5">
      <path d="M 57.6 52.573042 
L 414.72 52.573042 
" clip-path="url(#p757cfb3815)" style="fill: none; stroke: #ffffff; stroke-linecap: round"/>
     </g>
     <g id="text_8">
      <!-- 0.6 -->
      <g style="fill: #262626" transform="translate(30.606563 56.752183) scale(0.11 -0.11)">
       <defs>
        <path id="DejaVuSans-36" d="M 2113 2584 
Q 1688 2584 1439 2293 
Q 1191 2003 1191 1497 
Q 1191 994 1439 701 
Q 1688 409 2113 409 
Q 2538 409 2786 701 
Q 3034 994 3034 1497 
Q 3034 2003 2786 2293 
Q 2538 2584 2113 2584 
z
M 3366 4563 
L 3366 3988 
Q 3128 4100 2886 4159 
Q 2644 4219 2406 4219 
Q 1781 4219 1451 3797 
Q 1122 3375 1075 2522 
Q 1259 2794 1537 2939 
Q 1816 3084 2150 3084 
Q 2853 3084 3261 2657 
Q 3669 2231 3669 1497 
Q 3669 778 3244 343 
Q 2819 -91 2113 -91 
Q 1303 -91 875 529 
Q 447 1150 447 2328 
Q 447 3434 972 4092 
Q 1497 4750 2381 4750 
Q 2619 4750 2861 4703 
Q 3103 4656 3366 4563 
z
" transform="scale(0.015625)"/>
       </defs>
       <use xlink:href="#DejaVuSans-30"/>
       <use xlink:href="#DejaVuSans-2e" x="63.623047"/>
       <use xlink:href="#DejaVuSans-36" x="95.410156"/>
      </g>
     </g>
    </g>
    <g id="text_9">
     <!-- split_frac -->
     <g style="fill: #262626" transform="translate(14.559531 201.703312) rotate(-90) scale(0.12 -0.12)">
      <defs>
       <path id="DejaVuSans-73" d="M 2834 3397 
L 2834 2853 
Q 2591 2978 2328 3040 
Q 2066 3103 1784 3103 
Q 1356 3103 1142 2972 
Q 928 2841 928 2578 
Q 928 2378 1081 2264 
Q 1234 2150 1697 2047 
L 1894 2003 
Q 2506 1872 2764 1633 
Q 3022 1394 3022 966 
Q 3022 478 2636 193 
Q 2250 -91 1575 -91 
Q 1294 -91 989 -36 
Q 684 19 347 128 
L 347 722 
Q 666 556 975 473 
Q 1284 391 1588 391 
Q 1994 391 2212 530 
Q 2431 669 2431 922 
Q 2431 1156 2273 1281 
Q 2116 1406 1581 1522 
L 1381 1569 
Q 847 1681 609 1914 
Q 372 2147 372 2553 
Q 372 3047 722 3315 
Q 1072 3584 1716 3584 
Q 2034 3584 2315 3537 
Q 2597 3491 2834 3397 
z
" transform="scale(0.015625)"/>
       <path id="DejaVuSans-70" d="M 1159 525 
L 1159 -1331 
L 581 -1331 
L 581 3500 
L 1159 3500 
L 1159 2969 
Q 1341 3281 1617 3432 
Q 1894 3584 2278 3584 
Q 2916 3584 3314 3078 
Q 3713 2572 3713 1747 
Q 3713 922 3314 415 
Q 2916 -91 2278 -91 
Q 1894 -91 1617 61 
Q 1341 213 1159 525 
z
M 3116 1747 
Q 3116 2381 2855 2742 
Q 2594 3103 2138 3103 
Q 1681 3103 1420 2742 
Q 1159 2381 1159 1747 
Q 1159 1113 1420 752 
Q 1681 391 2138 391 
Q 2594 391 2855 752 
Q 3116 1113 3116 1747 
z
" transform="scale(0.015625)"/>
       <path id="DejaVuSans-6c" d="M 603 4863 
L 1178 4863 
L 1178 0 
L 603 0 
L 603 4863 
z
" transform="scale(0.015625)"/>
       <path id="DejaVuSans-69" d="M 603 3500 
L 1178 3500 
L 1178 0 
L 603 0 
L 603 3500 
z
M 603 4863 
L 1178 4863 
L 1178 4134 
L 603 4134 
L 603 4863 
z
" transform="scale(0.015625)"/>
       <path id="DejaVuSans-74" d="M 1172 4494 
L 1172 3500 
L 2356 3500 
L 2356 3053 
L 1172 3053 
L 1172 1153 
Q 1172 725 1289 603 
Q 1406 481 1766 481 
L 2356 481 
L 2356 0 
L 1766 0 
Q 1100 0 847 248 
Q 594 497 594 1153 
L 594 3053 
L 172 3053 
L 172 3500 
L 594 3500 
L 594 4494 
L 1172 4494 
z
" transform="scale(0.015625)"/>
       <path id="DejaVuSans-5f" d="M 3263 -1063 
L 3263 -1509 
L -63 -1509 
L -63 -1063 
L 3263 -1063 
z
" transform="scale(0.015625)"/>
       <path id="DejaVuSans-66" d="M 2375 4863 
L 2375 4384 
L 1825 4384 
Q 1516 4384 1395 4259 
Q 1275 4134 1275 3809 
L 1275 3500 
L 2222 3500 
L 2222 3053 
L 1275 3053 
L 1275 0 
L 697 0 
L 697 3053 
L 147 3053 
L 147 3500 
L 697 3500 
L 697 3744 
Q 697 4328 969 4595 
Q 1241 4863 1831 4863 
L 2375 4863 
z
" transform="scale(0.015625)"/>
       <path id="DejaVuSans-61" d="M 2194 1759 
Q 1497 1759 1228 1600 
Q 959 1441 959 1056 
Q 959 750 1161 570 
Q 1363 391 1709 391 
Q 2188 391 2477 730 
Q 2766 1069 2766 1631 
L 2766 1759 
L 2194 1759 
z
M 3341 1997 
L 3341 0 
L 2766 0 
L 2766 531 
Q 2569 213 2275 61 
Q 1981 -91 1556 -91 
Q 1019 -91 701 211 
Q 384 513 384 1019 
Q 384 1609 779 1909 
Q 1175 2209 1959 2209 
L 2766 2209 
L 2766 2266 
Q 2766 2663 2505 2880 
Q 2244 3097 1772 3097 
Q 1472 3097 1187 3025 
Q 903 2953 641 2809 
L 641 3341 
Q 956 3463 1253 3523 
Q 1550 3584 1831 3584 
Q 2591 3584 2966 3190 
Q 3341 2797 3341 1997 
z
" transform="scale(0.015625)"/>
       <path id="DejaVuSans-63" d="M 3122 3366 
L 3122 2828 
Q 2878 2963 2633 3030 
Q 2388 3097 2138 3097 
Q 1578 3097 1268 2742 
Q 959 2388 959 1747 
Q 959 1106 1268 751 
Q 1578 397 2138 397 
Q 2388 397 2633 464 
Q 2878 531 3122 666 
L 3122 134 
Q 2881 22 2623 -34 
Q 2366 -91 2075 -91 
Q 1284 -91 818 406 
Q 353 903 353 1747 
Q 353 2603 823 3093 
Q 1294 3584 2113 3584 
Q 2378 3584 2631 3529 
Q 2884 3475 3122 3366 
z
" transform="scale(0.015625)"/>
      </defs>
      <use xlink:href="#DejaVuSans-73"/>
      <use xlink:href="#DejaVuSans-70" x="52.099609"/>
      <use xlink:href="#DejaVuSans-6c" x="115.576172"/>
      <use xlink:href="#DejaVuSans-69" x="143.359375"/>
      <use xlink:href="#DejaVuSans-74" x="171.142578"/>
      <use xlink:href="#DejaVuSans-5f" x="210.351562"/>
      <use xlink:href="#DejaVuSans-66" x="260.351562"/>
      <use xlink:href="#DejaVuSans-72" x="295.556641"/>
      <use xlink:href="#DejaVuSans-61" x="336.669922"/>
      <use xlink:href="#DejaVuSans-63" x="397.949219"/>
     </g>
    </g>
   </g>
   <g id="PolyCollection_1">
    <defs>
     <path id="m904261a56d" d="M 146.882345 -76.668616 
L 146.877655 -76.668616 
L 146.870642 -78.844003 
L 146.863087 -81.019391 
L 146.866158 -83.194779 
L 146.874869 -85.370166 
L 146.879139 -87.545554 
L 146.87993 -89.720942 
L 146.879889 -91.89633 
L 146.878687 -94.071717 
L 146.87221 -96.247105 
L 146.854091 -98.422493 
L 146.822524 -100.59788 
L 146.786229 -102.773268 
L 146.758177 -104.948656 
L 146.726864 -107.124044 
L 146.676257 -109.299431 
L 146.596805 -111.474819 
L 146.359293 -113.650207 
L 145.71862 -115.825595 
L 144.441902 -118.000982 
L 142.064445 -120.17637 
L 137.934015 -122.351758 
L 132.10537 -124.527145 
L 125.70835 -126.702533 
L 120.342847 -128.877921 
L 116.97462 -131.053309 
L 115.53393 -133.228696 
L 115.228812 -135.404084 
L 115.274237 -137.579472 
L 115.123414 -139.754859 
L 114.137939 -141.930247 
L 112.046031 -144.105635 
L 108.977501 -146.281023 
L 105.370376 -148.45641 
L 101.829336 -150.631798 
L 98.929493 -152.807186 
L 97.093181 -154.982574 
L 96.410695 -157.157961 
L 96.426128 -159.333349 
L 96.424088 -161.508737 
L 96.018511 -163.684124 
L 95.358486 -165.859512 
L 95.526734 -168.0349 
L 97.250221 -170.210288 
L 99.759745 -172.385675 
L 102.451282 -174.561063 
L 105.767225 -176.736451 
L 110.371279 -178.911838 
L 115.871809 -181.087226 
L 121.001146 -183.262614 
L 125.423845 -185.438002 
L 129.585069 -187.613389 
L 133.250932 -189.788777 
L 136.20117 -191.964165 
L 138.603047 -194.139553 
L 140.4585 -196.31494 
L 141.972868 -198.490328 
L 143.330313 -200.665716 
L 144.432205 -202.841103 
L 145.211495 -205.016491 
L 145.706334 -207.191879 
L 146.024672 -209.367267 
L 146.227794 -211.542654 
L 146.372097 -213.718042 
L 146.474304 -215.89343 
L 146.525732 -218.068817 
L 146.592294 -220.244205 
L 146.688187 -222.419593 
L 146.765526 -224.594981 
L 146.795477 -226.770368 
L 146.794858 -228.945756 
L 146.79998 -231.121144 
L 146.827756 -233.296532 
L 146.857818 -235.471919 
L 146.866291 -237.647307 
L 146.856597 -239.822695 
L 146.849771 -241.998082 
L 146.857743 -244.17347 
L 146.870687 -246.348858 
L 146.874561 -248.524246 
L 146.867947 -250.699633 
L 146.86267 -252.875021 
L 146.86857 -255.050409 
L 146.876584 -257.225796 
L 146.879538 -259.401184 
L 146.879972 -261.576572 
L 146.879999 -263.75196 
L 146.88 -265.927347 
L 146.88 -268.102735 
L 146.88 -270.278123 
L 146.88 -272.453511 
L 146.88 -274.628898 
L 146.879998 -276.804286 
L 146.879935 -278.979674 
L 146.879139 -281.155061 
L 146.874869 -283.330449 
L 146.866158 -285.505837 
L 146.863087 -287.681225 
L 146.870642 -289.856612 
L 146.877655 -292.032 
L 146.882345 -292.032 
L 146.882345 -292.032 
L 146.889358 -289.856612 
L 146.896913 -287.681225 
L 146.893842 -285.505837 
L 146.885131 -283.330449 
L 146.880861 -281.155061 
L 146.880065 -278.979674 
L 146.880002 -276.804286 
L 146.88 -274.628898 
L 146.88 -272.453511 
L 146.88 -270.278123 
L 146.88 -268.102735 
L 146.88 -265.927347 
L 146.880001 -263.75196 
L 146.880028 -261.576572 
L 146.880462 -259.401184 
L 146.883416 -257.225796 
L 146.89143 -255.050409 
L 146.89733 -252.875021 
L 146.892053 -250.699633 
L 146.885439 -248.524246 
L 146.889313 -246.348858 
L 146.902257 -244.17347 
L 146.910229 -241.998082 
L 146.903403 -239.822695 
L 146.893709 -237.647307 
L 146.902182 -235.471919 
L 146.932244 -233.296532 
L 146.96002 -231.121144 
L 146.965142 -228.945756 
L 146.964523 -226.770368 
L 146.994474 -224.594981 
L 147.071813 -222.419593 
L 147.167706 -220.244205 
L 147.234268 -218.068817 
L 147.285696 -215.89343 
L 147.387903 -213.718042 
L 147.532206 -211.542654 
L 147.735328 -209.367267 
L 148.053666 -207.191879 
L 148.548505 -205.016491 
L 149.327795 -202.841103 
L 150.429687 -200.665716 
L 151.787132 -198.490328 
L 153.3015 -196.31494 
L 155.156953 -194.139553 
L 157.55883 -191.964165 
L 160.509068 -189.788777 
L 164.174931 -187.613389 
L 168.336155 -185.438002 
L 172.758854 -183.262614 
L 177.888191 -181.087226 
L 183.388721 -178.911838 
L 187.992775 -176.736451 
L 191.308718 -174.561063 
L 194.000255 -172.385675 
L 196.509779 -170.210288 
L 198.233266 -168.0349 
L 198.401514 -165.859512 
L 197.741489 -163.684124 
L 197.335912 -161.508737 
L 197.333872 -159.333349 
L 197.349305 -157.157961 
L 196.666819 -154.982574 
L 194.830507 -152.807186 
L 191.930664 -150.631798 
L 188.389624 -148.45641 
L 184.782499 -146.281023 
L 181.713969 -144.105635 
L 179.622061 -141.930247 
L 178.636586 -139.754859 
L 178.485763 -137.579472 
L 178.531188 -135.404084 
L 178.22607 -133.228696 
L 176.78538 -131.053309 
L 173.417153 -128.877921 
L 168.05165 -126.702533 
L 161.65463 -124.527145 
L 155.825985 -122.351758 
L 151.695555 -120.17637 
L 149.318098 -118.000982 
L 148.04138 -115.825595 
L 147.400707 -113.650207 
L 147.163195 -111.474819 
L 147.083743 -109.299431 
L 147.033136 -107.124044 
L 147.001823 -104.948656 
L 146.973771 -102.773268 
L 146.937476 -100.59788 
L 146.905909 -98.422493 
L 146.88779 -96.247105 
L 146.881313 -94.071717 
L 146.880111 -91.89633 
L 146.88007 -89.720942 
L 146.880861 -87.545554 
L 146.885131 -85.370166 
L 146.893842 -83.194779 
L 146.896913 -81.019391 
L 146.889358 -78.844003 
L 146.882345 -76.668616 
z
" style="stroke: #797979; stroke-width: 1.5"/>
    </defs>
    <g clip-path="url(#p757cfb3815)">
     <use xlink:href="#m904261a56d" x="0" y="345.6" style="fill: #b4d4df; stroke: #797979; stroke-width: 1.5"/>
    </g>
   </g>
   <g id="PolyCollection_2">
    <defs>
     <path id="mac89d9d4dc" d="M 325.444756 -50.112 
L 325.435244 -50.112 
L 325.422722 -52.021245 
L 325.407346 -53.930491 
L 325.407894 -55.839736 
L 325.423578 -57.748982 
L 325.43563 -59.658227 
L 325.439395 -61.567473 
L 325.439955 -63.476718 
L 325.43996 -65.385964 
L 325.439458 -67.295209 
L 325.435959 -69.204455 
L 325.424341 -71.1137 
L 325.408432 -73.022946 
L 325.406891 -74.932191 
L 325.421935 -76.841437 
L 325.434872 -78.750682 
L 325.439243 -80.659928 
L 325.439942 -82.569173 
L 325.439998 -84.478418 
L 325.44 -86.387664 
L 325.44 -88.296909 
L 325.44 -90.206155 
L 325.439998 -92.1154 
L 325.439957 -94.024646 
L 325.439364 -95.933891 
L 325.434888 -97.843137 
L 325.416974 -99.752382 
L 325.379844 -101.661628 
L 325.346785 -103.570873 
L 325.354593 -105.480119 
L 325.392484 -107.389364 
L 325.409202 -109.29861 
L 325.372499 -111.207855 
L 325.275029 -113.117101 
L 325.098038 -115.026346 
L 324.744379 -116.935592 
L 324.003187 -118.844837 
L 322.57783 -120.754082 
L 320.2288 -122.663328 
L 317.139904 -124.572573 
L 313.88929 -126.481819 
L 310.917408 -128.391064 
L 308.609774 -130.30031 
L 307.312938 -132.209555 
L 306.686128 -134.118801 
L 306.045277 -136.028046 
L 305.027978 -137.937292 
L 303.369088 -139.846537 
L 301.273879 -141.755783 
L 298.742934 -143.665028 
L 294.932757 -145.574274 
L 289.625424 -147.483519 
L 283.894721 -149.392765 
L 279.127743 -151.30201 
L 275.190968 -153.211255 
L 270.914162 -155.120501 
L 266.425844 -157.029746 
L 262.897463 -158.938992 
L 260.886197 -160.848237 
L 259.527643 -162.757483 
L 257.226853 -164.666728 
L 254.575099 -166.575974 
L 254.016 -168.485219 
L 256.283478 -170.394465 
L 260.377786 -172.30371 
L 265.982581 -174.212956 
L 273.538326 -176.122201 
L 282.175405 -178.031447 
L 290.388828 -179.940692 
L 297.633388 -181.849938 
L 303.942589 -183.759183 
L 309.329463 -185.668428 
L 313.613251 -187.577674 
L 316.720065 -189.486919 
L 318.922574 -191.396165 
L 320.532737 -193.30541 
L 321.75263 -195.214656 
L 322.641041 -197.123901 
L 323.236455 -199.033147 
L 323.681223 -200.942392 
L 324.063156 -202.851638 
L 324.375142 -204.760883 
L 324.61182 -206.670129 
L 324.772175 -208.579374 
L 324.887007 -210.48862 
L 324.988888 -212.397865 
L 325.096642 -214.307111 
L 325.217381 -216.216356 
L 325.314596 -218.125602 
L 325.358091 -220.034847 
L 325.368346 -221.944092 
L 325.380938 -223.853338 
L 325.406147 -225.762583 
L 325.427749 -227.671829 
L 325.433387 -229.581074 
L 325.423346 -231.49032 
L 325.407882 -233.399565 
L 325.407346 -235.308811 
L 325.422722 -237.218056 
L 325.435244 -239.127302 
L 325.444756 -239.127302 
L 325.444756 -239.127302 
L 325.457278 -237.218056 
L 325.472654 -235.308811 
L 325.472118 -233.399565 
L 325.456654 -231.49032 
L 325.446613 -229.581074 
L 325.452251 -227.671829 
L 325.473853 -225.762583 
L 325.499062 -223.853338 
L 325.511654 -221.944092 
L 325.521909 -220.034847 
L 325.565404 -218.125602 
L 325.662619 -216.216356 
L 325.783358 -214.307111 
L 325.891112 -212.397865 
L 325.992993 -210.48862 
L 326.107825 -208.579374 
L 326.26818 -206.670129 
L 326.504858 -204.760883 
L 326.816844 -202.851638 
L 327.198777 -200.942392 
L 327.643545 -199.033147 
L 328.238959 -197.123901 
L 329.12737 -195.214656 
L 330.347263 -193.30541 
L 331.957426 -191.396165 
L 334.159935 -189.486919 
L 337.266749 -187.577674 
L 341.550537 -185.668428 
L 346.937411 -183.759183 
L 353.246612 -181.849938 
L 360.491172 -179.940692 
L 368.704595 -178.031447 
L 377.341674 -176.122201 
L 384.897419 -174.212956 
L 390.502214 -172.30371 
L 394.596522 -170.394465 
L 396.864 -168.485219 
L 396.304901 -166.575974 
L 393.653147 -164.666728 
L 391.352357 -162.757483 
L 389.993803 -160.848237 
L 387.982537 -158.938992 
L 384.454156 -157.029746 
L 379.965838 -155.120501 
L 375.689032 -153.211255 
L 371.752257 -151.30201 
L 366.985279 -149.392765 
L 361.254576 -147.483519 
L 355.947243 -145.574274 
L 352.137066 -143.665028 
L 349.606121 -141.755783 
L 347.510912 -139.846537 
L 345.852022 -137.937292 
L 344.834723 -136.028046 
L 344.193872 -134.118801 
L 343.567062 -132.209555 
L 342.270226 -130.30031 
L 339.962592 -128.391064 
L 336.99071 -126.481819 
L 333.740096 -124.572573 
L 330.6512 -122.663328 
L 328.30217 -120.754082 
L 326.876813 -118.844837 
L 326.135621 -116.935592 
L 325.781962 -115.026346 
L 325.604971 -113.117101 
L 325.507501 -111.207855 
L 325.470798 -109.29861 
L 325.487516 -107.389364 
L 325.525407 -105.480119 
L 325.533215 -103.570873 
L 325.500156 -101.661628 
L 325.463026 -99.752382 
L 325.445112 -97.843137 
L 325.440636 -95.933891 
L 325.440043 -94.024646 
L 325.440002 -92.1154 
L 325.44 -90.206155 
L 325.44 -88.296909 
L 325.44 -86.387664 
L 325.440002 -84.478418 
L 325.440058 -82.569173 
L 325.440757 -80.659928 
L 325.445128 -78.750682 
L 325.458065 -76.841437 
L 325.473109 -74.932191 
L 325.471568 -73.022946 
L 325.455659 -71.1137 
L 325.444041 -69.204455 
L 325.440542 -67.295209 
L 325.44004 -65.385964 
L 325.440045 -63.476718 
L 325.440605 -61.567473 
L 325.44437 -59.658227 
L 325.456422 -57.748982 
L 325.472106 -55.839736 
L 325.472654 -53.930491 
L 325.457278 -52.021245 
L 325.444756 -50.112 
z
" style="stroke: #797979; stroke-width: 1.5"/>
    </defs>
    <g clip-path="url(#p757cfb3815)">
     <use xlink:href="#mac89d9d4dc" x="0" y="345.6" style="fill: #f6bfc7; stroke: #797979; stroke-width: 1.5"/>
    </g>
   </g>
   <g id="line2d_6">
    <path d="M 146.88 240.48986 
L 146.88 132.862134 
" clip-path="url(#p757cfb3815)" style="fill: none; stroke: #797979; stroke-width: 1.5; stroke-linecap: round"/>
   </g>
   <g id="line2d_7">
    <path d="M 146.88 200.552426 
L 146.88 173.450193 
" clip-path="url(#p757cfb3815)" style="fill: none; stroke: #797979; stroke-width: 4.5; stroke-linecap: round"/>
   </g>
   <g id="line2d_8">
    <path d="M 325.44 224.92631 
L 325.44 142.729042 
" clip-path="url(#p757cfb3815)" style="fill: none; stroke: #797979; stroke-width: 1.5; stroke-linecap: round"/>
   </g>
   <g id="line2d_9">
    <path d="M 325.44 194.1898 
L 325.44 173.591926 
" clip-path="url(#p757cfb3815)" style="fill: none; stroke: #797979; stroke-width: 4.5; stroke-linecap: round"/>
   </g>
   <g id="patch_3">
    <path d="M 57.6 307.584 
L 57.6 41.472 
" style="fill: none; stroke: #ffffff; stroke-width: 1.25; stroke-linejoin: miter; stroke-linecap: square"/>
   </g>
   <g id="patch_4">
    <path d="M 414.72 307.584 
L 414.72 41.472 
" style="fill: none; stroke: #ffffff; stroke-width: 1.25; stroke-linejoin: miter; stroke-linecap: square"/>
   </g>
   <g id="patch_5">
    <path d="M 57.6 307.584 
L 414.72 307.584 
" style="fill: none; stroke: #ffffff; stroke-width: 1.25; stroke-linejoin: miter; stroke-linecap: square"/>
   </g>
   <g id="patch_6">
    <path d="M 57.6 41.472 
L 414.72 41.472 
" style="fill: none; stroke: #ffffff; stroke-width: 1.25; stroke-linejoin: miter; stroke-linecap: square"/>
   </g>
   <g id="PathCollection_1">
    <defs>
     <path id="ma255dfdb92" d="M 0 1.5 
C 0.397805 1.5 0.77937 1.341951 1.06066 1.06066 
C 1.341951 0.77937 1.5 0.397805 1.5 0 
C 1.5 -0.397805 1.341951 -0.77937 1.06066 -1.06066 
C 0.77937 -1.341951 0.397805 -1.5 0 -1.5 
C -0.397805 -1.5 -0.77937 -1.341951 -1.06066 -1.06066 
C -1.341951 -0.77937 -1.5 -0.397805 -1.5 0 
C -1.5 0.397805 -1.341951 0.77937 -1.06066 1.06066 
C -0.77937 1.341951 -0.397805 1.5 0 1.5 
z
" style="stroke: #797979"/>
    </defs>
    <g clip-path="url(#p757cfb3815)">
     <use xlink:href="#ma255dfdb92" x="146.88" y="186.273654" style="fill: #ffffff; stroke: #797979"/>
    </g>
   </g>
   <g id="PathCollection_2">
    <g clip-path="url(#p757cfb3815)">
     <use xlink:href="#ma255dfdb92" x="325.44" y="182.968997" style="fill: #ffffff; stroke: #797979"/>
    </g>
   </g>
  </g>
 </g>
 <defs>
  <clipPath id="p757cfb3815">
   <rect x="57.6" y="41.472" width="357.12" height="266.112"/>
  </clipPath>
 </defs>
</svg>
