<?xml version="1.0" encoding="utf-8" standalone="no"?>
<!DOCTYPE svg PUBLIC "-//W3C//DTD SVG 1.1//EN"
  "http://www.w3.org/Graphics/SVG/1.1/DTD/svg11.dtd">
<svg xmlns:xlink="http://www.w3.org/1999/xlink" width="460.8pt" height="345.6pt" viewBox="0 0 460.8 345.6" xmlns="http://www.w3.org/2000/svg" version="1.1">
 <metadata>
  <rdf:RDF xmlns:dc="http://purl.org/dc/elements/1.1/" xmlns:cc="http://creativecommons.org/ns#" xmlns:rdf="http://www.w3.org/1999/02/22-rdf-syntax-ns#">
   <cc:Work>
    <dc:type rdf:resource="http://purl.org/dc/dcmitype/StillImage"/>
    <dc:date>2023-08-08T07:34:04.801454</dc:date>
    <dc:format>image/svg+xml</dc:format>
    <dc:creator>
     <cc:Agent>
      <dc:title>Matplotlib v3.7.1, https://matplotlib.org/</dc:title>
     </cc:Agent>
    </dc:creator>
   </cc:Work>
  </rdf:RDF>
 </metadata>
 <defs>
  <style type="text/css">*{stroke-linejoin: round; stroke-linecap: butt}</style>
 </defs>
 <g id="figure_1">
  <g id="patch_1">
   <path d="M 0 345.6 
L 460.8 345.6 
L 460.8 0 
L 0 0 
z
" style="fill: #ffffff"/>
  </g>
  <g id="patch_2">
   <path d="M 103.104 307.584 
L 369.216 307.584 
L 369.216 41.472 
L 103.104 41.472 
z
" style="fill: #ffffff"/>
  </g>
  <g id="axes_1">
   <g id="Poly3DCollection_1">
    <path d="M 252.587701 116.316038 
L 233.448368 116.111399 
L 252.144836 120.835446 
z
" clip-path="url(#pd4ec4cd73b)" style="fill: #161616"/>
    <path d="M 252.144836 120.835446 
L 271.89915 118.685658 
L 252.587701 116.316038 
z
" clip-path="url(#pd4ec4cd73b)" style="fill: #1c1c1c"/>
    <path d="M 252.144836 120.835446 
L 233.448368 116.111399 
L 233.635545 120.610289 
z
" clip-path="url(#pd4ec4cd73b)" style="fill: #212121"/>
    <path d="M 233.822829 125.111742 
L 252.144836 120.835446 
L 233.635545 120.610289 
z
" clip-path="url(#pd4ec4cd73b)" style="fill: #414141"/>
    <path d="M 251.701383 125.360847 
L 252.144836 120.835446 
L 233.822829 125.111742 
z
" clip-path="url(#pd4ec4cd73b)" style="fill: #535353"/>
    <path d="M 252.144836 120.835446 
L 270.648517 123.103827 
L 271.89915 118.685658 
z
" clip-path="url(#pd4ec4cd73b)" style="fill: #2e2e2e"/>
    <path d="M 233.822829 125.111742 
L 251.257342 129.892253 
L 251.701383 125.360847 
z
" clip-path="url(#pd4ec4cd73b)" style="fill: #6a6a6a"/>
    <path d="M 233.822829 125.111742 
L 234.010219 129.615761 
L 251.257342 129.892253 
z
" clip-path="url(#pd4ec4cd73b)" style="fill: #767676"/>
    <path d="M 252.144836 120.835446 
L 251.701383 125.360847 
L 269.395559 127.530213 
z
" clip-path="url(#pd4ec4cd73b)" style="fill: #555555"/>
    <path d="M 215.913134 122.359824 
L 233.635545 120.610289 
L 233.448368 116.111399 
z
" clip-path="url(#pd4ec4cd73b)" style="fill: #1d1d1d"/>
    <path d="M 250.812711 134.429675 
L 251.257342 129.892253 
L 234.010219 129.615761 
z
" clip-path="url(#pd4ec4cd73b)" style="fill: #909090"/>
    <path d="M 234.010219 129.615761 
L 234.197717 134.122348 
L 250.812711 134.429675 
z
" clip-path="url(#pd4ec4cd73b)" style="fill: #9d9d9d"/>
    <path d="M 269.395559 127.530213 
L 270.648517 123.103827 
L 252.144836 120.835446 
z
" clip-path="url(#pd4ec4cd73b)" style="fill: #4a4a4a"/>
    <path d="M 269.395559 127.530213 
L 251.701383 125.360847 
L 251.257342 129.892253 
z
" clip-path="url(#pd4ec4cd73b)" style="fill: #6d6d6d"/>
    <path d="M 233.822829 125.111742 
L 233.635545 120.610289 
L 215.913134 122.359824 
z
" clip-path="url(#pd4ec4cd73b)" style="fill: #3c3c3c"/>
    <path d="M 217.102971 131.129192 
L 234.010219 129.615761 
L 233.822829 125.111742 
z
" clip-path="url(#pd4ec4cd73b)" style="fill: #757575"/>
    <path d="M 217.697604 135.51177 
L 234.197717 134.122348 
L 234.010219 129.615761 
z
" clip-path="url(#pd4ec4cd73b)" style="fill: #9e9e9e"/>
    <path d="M 234.197717 134.122348 
L 234.385321 138.631505 
L 250.367489 138.973126 
z
" clip-path="url(#pd4ec4cd73b)" style="fill: #c5c5c5"/>
    <path d="M 250.812711 134.429675 
L 234.197717 134.122348 
L 250.367489 138.973126 
z
" clip-path="url(#pd4ec4cd73b)" style="fill: #b9b9b9"/>
    <path d="M 234.385321 138.631505 
L 234.197717 134.122348 
L 217.697604 135.51177 
z
" clip-path="url(#pd4ec4cd73b)" style="fill: #bbbbbb"/>
    <path d="M 250.367489 138.973126 
L 234.385321 138.631505 
L 234.573032 143.143234 
z
" clip-path="url(#pd4ec4cd73b)" style="fill: #dadada"/>
    <path d="M 218.886299 144.272716 
L 234.573032 143.143234 
L 234.385321 138.631505 
z
" clip-path="url(#pd4ec4cd73b)" style="fill: #e4e4e4"/>
    <path d="M 234.573032 143.143234 
L 219.48036 148.651085 
L 234.76085 147.657538 
z
" clip-path="url(#pd4ec4cd73b)" style="fill: #f9f9f9"/>
    <path d="M 234.573032 143.143234 
L 218.886299 144.272716 
L 219.48036 148.651085 
z
" clip-path="url(#pd4ec4cd73b)" style="fill: #f5f5f5"/>
    <path d="M 234.385321 138.631505 
L 218.292047 139.892945 
L 218.886299 144.272716 
z
" clip-path="url(#pd4ec4cd73b)" style="fill: #dcdcdc"/>
    <path d="M 234.010219 129.615761 
L 217.102971 131.129192 
L 217.697604 135.51177 
z
" clip-path="url(#pd4ec4cd73b)" style="fill: #909090"/>
    <path d="M 216.508148 126.745211 
L 217.102971 131.129192 
L 233.822829 125.111742 
z
" clip-path="url(#pd4ec4cd73b)" style="fill: #686868"/>
    <path d="M 215.317929 117.973032 
L 215.913134 122.359824 
L 233.448368 116.111399 
z
" clip-path="url(#pd4ec4cd73b)" style="fill: #0d0d0d"/>
    <path d="M 249.921676 143.522617 
L 234.573032 143.143234 
L 234.76085 147.657538 
z
" clip-path="url(#pd4ec4cd73b)" style="fill: #f2f2f2"/>
    <path d="M 217.697604 135.51177 
L 218.292047 139.892945 
L 234.385321 138.631505 
z
" clip-path="url(#pd4ec4cd73b)" style="fill: #c6c6c6"/>
    <path d="M 215.913134 122.359824 
L 216.508148 126.745211 
L 233.822829 125.111742 
z
" clip-path="url(#pd4ec4cd73b)" style="fill: #4b4b4b"/>
    <path d="M 251.257342 129.892253 
L 268.140268 131.964837 
L 269.395559 127.530213 
z
" clip-path="url(#pd4ec4cd73b)" style="fill: #797979"/>
    <path d="M 234.573032 143.143234 
L 249.921676 143.522617 
L 250.367489 138.973126 
z
" clip-path="url(#pd4ec4cd73b)" style="fill: #e1e1e1"/>
    <path d="M 251.257342 129.892253 
L 250.812711 134.429675 
L 266.882639 136.407723 
z
" clip-path="url(#pd4ec4cd73b)" style="fill: #9d9d9d"/>
    <path d="M 290.497588 123.237323 
L 271.89915 118.685658 
L 270.648517 123.103827 
z
" clip-path="url(#pd4ec4cd73b)" style="fill: #272727"/>
    <path d="M 266.882639 136.407723 
L 250.812711 134.429675 
L 250.367489 138.973126 
z
" clip-path="url(#pd4ec4cd73b)" style="fill: #b8b8b8"/>
    <path d="M 234.76085 147.657538 
L 249.47527 148.078161 
L 249.921676 143.522617 
z
" clip-path="url(#pd4ec4cd73b)" style="fill: #f6f6f6"/>
    <path d="M 266.882639 136.407723 
L 268.140268 131.964837 
L 251.257342 129.892253 
z
" clip-path="url(#pd4ec4cd73b)" style="fill: #909090"/>
    <path d="M 219.48036 148.651085 
L 218.886299 144.272716 
L 203.480609 146.955302 
z
" clip-path="url(#pd4ec4cd73b)" style="fill: #f6f6f6"/>
    <path d="M 218.886299 144.272716 
L 218.292047 139.892945 
L 203.480609 146.955302 
z
" clip-path="url(#pd4ec4cd73b)" style="fill: #e7e7e7"/>
    <path d="M 269.395559 127.530213 
L 286.140797 131.588363 
L 270.648517 123.103827 
z
" clip-path="url(#pd4ec4cd73b)" style="fill: #5b5b5b"/>
    <path d="M 250.367489 138.973126 
L 249.921676 143.522617 
L 264.360337 145.318375 
z
" clip-path="url(#pd4ec4cd73b)" style="fill: #dedede"/>
    <path d="M 201.977849 138.567016 
L 218.292047 139.892945 
L 217.697604 135.51177 
z
" clip-path="url(#pd4ec4cd73b)" style="fill: #bdbdbd"/>
    <path d="M 250.367489 138.973126 
L 265.622664 140.858895 
L 266.882639 136.407723 
z
" clip-path="url(#pd4ec4cd73b)" style="fill: #c2c2c2"/>
    <path d="M 204.230593 151.141654 
L 219.48036 148.651085 
L 203.480609 146.955302 
z
" clip-path="url(#pd4ec4cd73b)" style="fill: #fcfcfc"/>
    <path d="M 217.102971 131.129192 
L 201.977849 138.567016 
L 217.697604 135.51177 
z
" clip-path="url(#pd4ec4cd73b)" style="fill: #9e9e9e"/>
    <path d="M 270.648517 123.103827 
L 288.321481 127.408456 
L 290.497588 123.237323 
z
" clip-path="url(#pd4ec4cd73b)" style="fill: #393939"/>
    <path d="M 203.480609 146.955302 
L 218.292047 139.892945 
L 202.729695 142.76376 
z
" clip-path="url(#pd4ec4cd73b)" style="fill: #dedede"/>
    <path d="M 217.102971 131.129192 
L 216.508148 126.745211 
L 200.471354 130.157888 
z
" clip-path="url(#pd4ec4cd73b)" style="fill: #666666"/>
    <path d="M 249.921676 143.522617 
L 249.47527 148.078161 
L 263.095653 149.786187 
z
" clip-path="url(#pd4ec4cd73b)" style="fill: #f4f4f4"/>
    <path d="M 264.360337 145.318375 
L 265.622664 140.858895 
L 250.367489 138.973126 
z
" clip-path="url(#pd4ec4cd73b)" style="fill: #d4d4d4"/>
    <path d="M 269.395559 127.530213 
L 268.140268 131.964837 
L 283.95552 135.777072 
z
" clip-path="url(#pd4ec4cd73b)" style="fill: #7a7a7a"/>
    <path d="M 286.140797 131.588363 
L 288.321481 127.408456 
L 270.648517 123.103827 
z
" clip-path="url(#pd4ec4cd73b)" style="fill: #535353"/>
    <path d="M 199.716703 125.945484 
L 216.508148 126.745211 
L 215.913134 122.359824 
z
" clip-path="url(#pd4ec4cd73b)" style="fill: #383838"/>
    <path d="M 202.729695 142.76376 
L 218.292047 139.892945 
L 201.977849 138.567016 
z
" clip-path="url(#pd4ec4cd73b)" style="fill: #c8c8c8"/>
    <path d="M 199.716703 125.945484 
L 215.913134 122.359824 
L 215.317929 117.973032 
z
" clip-path="url(#pd4ec4cd73b)" style="fill: #171717"/>
    <path d="M 283.95552 135.777072 
L 268.140268 131.964837 
L 266.882639 136.407723 
z
" clip-path="url(#pd4ec4cd73b)" style="fill: #919191"/>
    <path d="M 249.921676 143.522617 
L 263.095653 149.786187 
L 264.360337 145.318375 
z
" clip-path="url(#pd4ec4cd73b)" style="fill: #ececec"/>
    <path d="M 201.225069 134.365062 
L 201.977849 138.567016 
L 217.102971 131.129192 
z
" clip-path="url(#pd4ec4cd73b)" style="fill: #8f8f8f"/>
    <path d="M 283.95552 135.777072 
L 286.140797 131.588363 
L 269.395559 127.530213 
z
" clip-path="url(#pd4ec4cd73b)" style="fill: #717171"/>
    <path d="M 200.471354 130.157888 
L 201.225069 134.365062 
L 217.102971 131.129192 
z
" clip-path="url(#pd4ec4cd73b)" style="fill: #727272"/>
    <path d="M 281.765637 139.974611 
L 266.882639 136.407723 
L 265.622664 140.858895 
z
" clip-path="url(#pd4ec4cd73b)" style="fill: #b5b5b5"/>
    <path d="M 203.480609 146.955302 
L 189.667793 155.157697 
L 204.230593 151.141654 
z
" clip-path="url(#pd4ec4cd73b)" style="fill: #fefefe"/>
    <path d="M 200.471354 130.157888 
L 216.508148 126.745211 
L 199.716703 125.945484 
z
" clip-path="url(#pd4ec4cd73b)" style="fill: #484848"/>
    <path d="M 215.317929 117.973032 
L 198.961112 121.72784 
L 199.716703 125.945484 
z
" clip-path="url(#pd4ec4cd73b)" style="fill: #070707"/>
    <path d="M 283.95552 135.777072 
L 266.882639 136.407723 
L 281.765637 139.974611 
z
" clip-path="url(#pd4ec4cd73b)" style="fill: #9d9d9d"/>
    <path d="M 203.480609 146.955302 
L 202.729695 142.76376 
L 188.354575 147.19309 
z
" clip-path="url(#pd4ec4cd73b)" style="fill: #dfdfdf"/>
    <path d="M 264.360337 145.318375 
L 277.371994 148.39629 
L 265.622664 140.858895 
z
" clip-path="url(#pd4ec4cd73b)" style="fill: #dadada"/>
    <path d="M 290.497588 123.237323 
L 288.321481 127.408456 
L 304.32927 133.660945 
z
" clip-path="url(#pd4ec4cd73b)" style="fill: #404040"/>
    <path d="M 188.354575 147.19309 
L 202.729695 142.76376 
L 201.977849 138.567016 
z
" clip-path="url(#pd4ec4cd73b)" style="fill: #c9c9c9"/>
    <path d="M 203.480609 146.955302 
L 189.011867 151.179535 
L 189.667793 155.157697 
z
" clip-path="url(#pd4ec4cd73b)" style="fill: #f8f8f8"/>
    <path d="M 265.622664 140.858895 
L 279.571133 144.181008 
L 281.765637 139.974611 
z
" clip-path="url(#pd4ec4cd73b)" style="fill: #bebebe"/>
    <path d="M 264.360337 145.318375 
L 263.095653 149.786187 
L 277.371994 148.39629 
z
" clip-path="url(#pd4ec4cd73b)" style="fill: #e8e8e8"/>
    <path d="M 301.176323 137.430684 
L 288.321481 127.408456 
L 286.140797 131.588363 
z
" clip-path="url(#pd4ec4cd73b)" style="fill: #616161"/>
    <path d="M 188.354575 147.19309 
L 189.011867 151.179535 
L 203.480609 146.955302 
z
" clip-path="url(#pd4ec4cd73b)" style="fill: #e9e9e9"/>
    <path d="M 277.371994 148.39629 
L 279.571133 144.181008 
L 265.622664 140.858895 
z
" clip-path="url(#pd4ec4cd73b)" style="fill: #cfcfcf"/>
    <path d="M 187.035878 139.195249 
L 201.977849 138.567016 
L 201.225069 134.365062 
z
" clip-path="url(#pd4ec4cd73b)" style="fill: #8f8f8f"/>
    <path d="M 187.035878 139.195249 
L 201.225069 134.365062 
L 200.471354 130.157888 
z
" clip-path="url(#pd4ec4cd73b)" style="fill: #727272"/>
    <path d="M 286.140797 131.588363 
L 283.95552 135.777072 
L 301.176323 137.430684 
z
" clip-path="url(#pd4ec4cd73b)" style="fill: #757575"/>
    <path d="M 304.32927 133.660945 
L 307.475868 129.898797 
L 290.497588 123.237323 
z
" clip-path="url(#pd4ec4cd73b)" style="fill: #393939"/>
    <path d="M 201.977849 138.567016 
L 187.695914 143.198337 
L 188.354575 147.19309 
z
" clip-path="url(#pd4ec4cd73b)" style="fill: #bebebe"/>
    <path d="M 277.371994 148.39629 
L 263.095653 149.786187 
L 275.168204 152.620487 
z
" clip-path="url(#pd4ec4cd73b)" style="fill: #ededed"/>
    <path d="M 200.471354 130.157888 
L 199.716703 125.945484 
L 185.711667 131.163965 
z
" clip-path="url(#pd4ec4cd73b)" style="fill: #333333"/>
    <path d="M 187.695914 143.198337 
L 201.977849 138.567016 
L 187.035878 139.195249 
z
" clip-path="url(#pd4ec4cd73b)" style="fill: #9e9e9e"/>
    <path d="M 301.176323 137.430684 
L 304.32927 133.660945 
L 288.321481 127.408456 
z
" clip-path="url(#pd4ec4cd73b)" style="fill: #5b5b5b"/>
    <path d="M 185.711667 131.163965 
L 199.716703 125.945484 
L 198.961112 121.72784 
z
" clip-path="url(#pd4ec4cd73b)" style="fill: #131313"/>
    <path d="M 281.765637 139.974611 
L 294.851303 144.993028 
L 283.95552 135.777072 
z
" clip-path="url(#pd4ec4cd73b)" style="fill: #9c9c9c"/>
    <path d="M 176.492813 160.662142 
L 189.667793 155.157697 
L 189.011867 151.179535 
z
" clip-path="url(#pd4ec4cd73b)" style="fill: #ffffff"/>
    <path d="M 281.765637 139.974611 
L 279.571133 144.181008 
L 294.851303 144.993028 
z
" clip-path="url(#pd4ec4cd73b)" style="fill: #b2b2b2"/>
    <path d="M 200.471354 130.157888 
L 186.374464 135.183801 
L 187.035878 139.195249 
z
" clip-path="url(#pd4ec4cd73b)" style="fill: #646464"/>
    <path d="M 301.176323 137.430684 
L 283.95552 135.777072 
L 298.017007 141.208037 
z
" clip-path="url(#pd4ec4cd73b)" style="fill: #7f7f7f"/>
    <path d="M 185.711667 131.163965 
L 186.374464 135.183801 
L 200.471354 130.157888 
z
" clip-path="url(#pd4ec4cd73b)" style="fill: #464646"/>
    <path d="M 283.95552 135.777072 
L 294.851303 144.993028 
L 298.017007 141.208037 
z
" clip-path="url(#pd4ec4cd73b)" style="fill: #919191"/>
    <path d="M 279.571133 144.181008 
L 277.371994 148.39629 
L 288.500654 152.586015 
z
" clip-path="url(#pd4ec4cd73b)" style="fill: #d4d4d4"/>
    <path d="M 188.354575 147.19309 
L 175.82182 153.067713 
L 189.011867 151.179535 
z
" clip-path="url(#pd4ec4cd73b)" style="fill: #e0e0e0"/>
    <path d="M 198.961112 121.72784 
L 185.047483 127.135717 
L 185.711667 131.163965 
z
" clip-path="url(#pd4ec4cd73b)" style="fill: #020202"/>
    <path d="M 285.31567 156.394058 
L 277.371994 148.39629 
L 275.168204 152.620487 
z
" clip-path="url(#pd4ec4cd73b)" style="fill: #e8e8e8"/>
    <path d="M 294.851303 144.993028 
L 279.571133 144.181008 
L 291.679192 148.785679 
z
" clip-path="url(#pd4ec4cd73b)" style="fill: #bbbbbb"/>
    <path d="M 189.011867 151.179535 
L 176.157777 156.870131 
L 176.492813 160.662142 
z
" clip-path="url(#pd4ec4cd73b)" style="fill: #f9f9f9"/>
    <path d="M 188.354575 147.19309 
L 187.695914 143.198337 
L 175.484941 149.254844 
z
" clip-path="url(#pd4ec4cd73b)" style="fill: #bebebe"/>
    <path d="M 288.500654 152.586015 
L 291.679192 148.785679 
L 279.571133 144.181008 
z
" clip-path="url(#pd4ec4cd73b)" style="fill: #cacaca"/>
    <path d="M 187.035878 139.195249 
L 175.484941 149.254844 
L 187.695914 143.198337 
z
" clip-path="url(#pd4ec4cd73b)" style="fill: #9e9e9e"/>
    <path d="M 175.82182 153.067713 
L 176.157777 156.870131 
L 189.011867 151.179535 
z
" clip-path="url(#pd4ec4cd73b)" style="fill: #eaeaea"/>
    <path d="M 307.475868 129.898797 
L 304.32927 133.660945 
L 317.856284 141.685553 
z
" clip-path="url(#pd4ec4cd73b)" style="fill: #4e4e4e"/>
    <path d="M 288.500654 152.586015 
L 277.371994 148.39629 
L 285.31567 156.394058 
z
" clip-path="url(#pd4ec4cd73b)" style="fill: #dfdfdf"/>
    <path d="M 304.32927 133.660945 
L 301.176323 137.430684 
L 313.769519 144.875428 
z
" clip-path="url(#pd4ec4cd73b)" style="fill: #676767"/>
    <path d="M 175.484941 149.254844 
L 175.82182 153.067713 
L 188.354575 147.19309 
z
" clip-path="url(#pd4ec4cd73b)" style="fill: #cacaca"/>
    <path d="M 187.035878 139.195249 
L 186.374464 135.183801 
L 174.808396 141.597582 
z
" clip-path="url(#pd4ec4cd73b)" style="fill: #646464"/>
    <path d="M 313.769519 144.875428 
L 301.176323 137.430684 
L 298.017007 141.208037 
z
" clip-path="url(#pd4ec4cd73b)" style="fill: #797979"/>
    <path d="M 174.808396 141.597582 
L 186.374464 135.183801 
L 185.711667 131.163965 
z
" clip-path="url(#pd4ec4cd73b)" style="fill: #444444"/>
    <path d="M 321.936545 138.500754 
L 307.475868 129.898797 
L 317.856284 141.685553 
z
" clip-path="url(#pd4ec4cd73b)" style="fill: #484848"/>
    <path d="M 298.017007 141.208037 
L 294.851303 144.993028 
L 305.576412 151.27046 
z
" clip-path="url(#pd4ec4cd73b)" style="fill: #9a9a9a"/>
    <path d="M 175.147134 145.431481 
L 175.484941 149.254844 
L 187.035878 139.195249 
z
" clip-path="url(#pd4ec4cd73b)" style="fill: #8f8f8f"/>
    <path d="M 305.576412 151.27046 
L 294.851303 144.993028 
L 291.679192 148.785679 
z
" clip-path="url(#pd4ec4cd73b)" style="fill: #aeaeae"/>
    <path d="M 313.769519 144.875428 
L 317.856284 141.685553 
L 304.32927 133.660945 
z
" clip-path="url(#pd4ec4cd73b)" style="fill: #626262"/>
    <path d="M 176.492813 160.662142 
L 176.157777 156.870131 
L 165.429053 167.541212 
z
" clip-path="url(#pd4ec4cd73b)" style="fill: #ffffff"/>
    <path d="M 187.035878 139.195249 
L 174.808396 141.597582 
L 175.147134 145.431481 
z
" clip-path="url(#pd4ec4cd73b)" style="fill: #717171"/>
    <path d="M 185.711667 131.163965 
L 185.047483 127.135717 
L 174.128112 133.897998 
z
" clip-path="url(#pd4ec4cd73b)"/>
    <path d="M 301.470039 154.47564 
L 291.679192 148.785679 
L 288.500654 152.586015 
z
" clip-path="url(#pd4ec4cd73b)" style="fill: #c7c7c7"/>
    <path d="M 298.017007 141.208037 
L 309.676233 148.070394 
L 313.769519 144.875428 
z
" clip-path="url(#pd4ec4cd73b)" style="fill: #838383"/>
    <path d="M 165.596544 163.87982 
L 176.157777 156.870131 
L 175.82182 153.067713 
z
" clip-path="url(#pd4ec4cd73b)" style="fill: #eaeaea"/>
    <path d="M 305.576412 151.27046 
L 309.676233 148.070394 
L 298.017007 141.208037 
z
" clip-path="url(#pd4ec4cd73b)" style="fill: #919191"/>
    <path d="M 297.357099 157.685947 
L 288.500654 152.586015 
L 285.31567 156.394058 
z
" clip-path="url(#pd4ec4cd73b)" style="fill: #dbdbdb"/>
    <path d="M 185.711667 131.163965 
L 174.468724 137.753102 
L 174.808396 141.597582 
z
" clip-path="url(#pd4ec4cd73b)" style="fill: #303030"/>
    <path d="M 174.128112 133.897998 
L 174.468724 137.753102 
L 185.711667 131.163965 
z
" clip-path="url(#pd4ec4cd73b)" style="fill: #0f0f0f"/>
    <path d="M 291.679192 148.785679 
L 301.470039 154.47564 
L 305.576412 151.27046 
z
" clip-path="url(#pd4ec4cd73b)" style="fill: #b6b6b6"/>
    <path d="M 176.157777 156.870131 
L 165.596544 163.87982 
L 165.429053 167.541212 
z
" clip-path="url(#pd4ec4cd73b)" style="fill: #f9f9f9"/>
    <path d="M 175.82182 153.067713 
L 175.484941 149.254844 
L 165.933106 156.522482 
z
" clip-path="url(#pd4ec4cd73b)" style="fill: #bebebe"/>
    <path d="M 301.470039 154.47564 
L 288.500654 152.586015 
L 297.357099 157.685947 
z
" clip-path="url(#pd4ec4cd73b)" style="fill: #cccccc"/>
    <path d="M 165.933106 156.522482 
L 175.484941 149.254844 
L 175.147134 145.431481 
z
" clip-path="url(#pd4ec4cd73b)" style="fill: #9e9e9e"/>
    <path d="M 285.31567 156.394058 
L 293.237576 160.901391 
L 297.357099 157.685947 
z
" clip-path="url(#pd4ec4cd73b)" style="fill: #dedede"/>
    <path d="M 175.82182 153.067713 
L 165.764561 160.206928 
L 165.596544 163.87982 
z
" clip-path="url(#pd4ec4cd73b)" style="fill: #e1e1e1"/>
    <path d="M 333.031792 148.770012 
L 321.936545 138.500754 
L 317.856284 141.685553 
z
" clip-path="url(#pd4ec4cd73b)" style="fill: #545454"/>
    <path d="M 165.933106 156.522482 
L 165.764561 160.206928 
L 175.82182 153.067713 
z
" clip-path="url(#pd4ec4cd73b)" style="fill: #cbcbcb"/>
    <path d="M 328.141158 151.214368 
L 317.856284 141.685553 
L 313.769519 144.875428 
z
" clip-path="url(#pd4ec4cd73b)" style="fill: #696969"/>
    <path d="M 175.147134 145.431481 
L 174.808396 141.597582 
L 166.271793 149.118709 
z
" clip-path="url(#pd4ec4cd73b)" style="fill: #636363"/>
    <path d="M 309.676233 148.070394 
L 318.347297 156.109372 
L 313.769519 144.875428 
z
" clip-path="url(#pd4ec4cd73b)" style="fill: #848484"/>
    <path d="M 174.808396 141.597582 
L 174.468724 137.753102 
L 166.271793 149.118709 
z
" clip-path="url(#pd4ec4cd73b)" style="fill: #434343"/>
    <path d="M 305.576412 151.27046 
L 318.347297 156.109372 
L 309.676233 148.070394 
z
" clip-path="url(#pd4ec4cd73b)" style="fill: #939393"/>
    <path d="M 175.147134 145.431481 
L 166.102183 152.826427 
L 165.933106 156.522482 
z
" clip-path="url(#pd4ec4cd73b)" style="fill: #8f8f8f"/>
    <path d="M 305.576412 151.27046 
L 301.470039 154.47564 
L 308.536609 161.012786 
z
" clip-path="url(#pd4ec4cd73b)" style="fill: #b2b2b2"/>
    <path d="M 166.44194 145.399271 
L 174.468724 137.753102 
L 174.128112 133.897998 
z
" clip-path="url(#pd4ec4cd73b)" style="fill: #0f0f0f"/>
    <path d="M 166.271793 149.118709 
L 166.102183 152.826427 
L 175.147134 145.431481 
z
" clip-path="url(#pd4ec4cd73b)" style="fill: #717171"/>
    <path d="M 303.624941 163.467653 
L 301.470039 154.47564 
L 297.357099 157.685947 
z
" clip-path="url(#pd4ec4cd73b)" style="fill: #c5c5c5"/>
    <path d="M 328.141158 151.214368 
L 333.031792 148.770012 
L 317.856284 141.685553 
z
" clip-path="url(#pd4ec4cd73b)" style="fill: #5f5f5f"/>
    <path d="M 165.429053 167.541212 
L 165.596544 163.87982 
L 157.977538 171.982308 
z
" clip-path="url(#pd4ec4cd73b)" style="fill: #f9f9f9"/>
    <path d="M 297.357099 157.685947 
L 293.237576 160.901391 
L 303.624941 163.467653 
z
" clip-path="url(#pd4ec4cd73b)" style="fill: #d2d2d2"/>
    <path d="M 313.769519 144.875428 
L 323.246328 153.66082 
L 328.141158 151.214368 
z
" clip-path="url(#pd4ec4cd73b)" style="fill: #717171"/>
    <path d="M 318.347297 156.109372 
L 323.246328 153.66082 
L 313.769519 144.875428 
z
" clip-path="url(#pd4ec4cd73b)" style="fill: #7e7e7e"/>
    <path d="M 174.468724 137.753102 
L 166.44194 145.399271 
L 166.271793 149.118709 
z
" clip-path="url(#pd4ec4cd73b)" style="fill: #303030"/>
    <path d="M 313.444059 158.560026 
L 318.347297 156.109372 
L 305.576412 151.27046 
z
" clip-path="url(#pd4ec4cd73b)" style="fill: #9a9a9a"/>
    <path d="M 158.766348 168.358704 
L 165.596544 163.87982 
L 165.764561 160.206928 
z
" clip-path="url(#pd4ec4cd73b)" style="fill: #e0e0e0"/>
    <path d="M 305.576412 151.27046 
L 308.536609 161.012786 
L 313.444059 158.560026 
z
" clip-path="url(#pd4ec4cd73b)" style="fill: #a8a8a8"/>
    <path d="M 308.536609 161.012786 
L 301.470039 154.47564 
L 303.624941 163.467653 
z
" clip-path="url(#pd4ec4cd73b)" style="fill: #bebebe"/>
    <path d="M 157.977538 171.982308 
L 157.19125 175.594327 
L 165.429053 167.541212 
z
" clip-path="url(#pd4ec4cd73b)" style="fill: #ffffff"/>
    <path d="M 174.128112 133.897998 
L 166.612624 141.668059 
L 166.44194 145.399271 
z
" clip-path="url(#pd4ec4cd73b)"/>
    <path d="M 303.624941 163.467653 
L 293.237576 160.901391 
L 298.709051 165.924632 
z
" clip-path="url(#pd4ec4cd73b)" style="fill: #d4d4d4"/>
    <path d="M 165.764561 160.206928 
L 165.933106 156.522482 
L 159.557692 164.723459 
z
" clip-path="url(#pd4ec4cd73b)" style="fill: #bebebe"/>
    <path d="M 159.557692 164.723459 
L 165.933106 156.522482 
L 166.102183 152.826427 
z
" clip-path="url(#pd4ec4cd73b)" style="fill: #9e9e9e"/>
    <path d="M 157.977538 171.982308 
L 165.596544 163.87982 
L 158.766348 168.358704 
z
" clip-path="url(#pd4ec4cd73b)" style="fill: #e9e9e9"/>
    <path d="M 160.351583 161.076516 
L 166.102183 152.826427 
L 166.271793 149.118709 
z
" clip-path="url(#pd4ec4cd73b)" style="fill: #717171"/>
    <path d="M 159.557692 164.723459 
L 158.766348 168.358704 
L 165.764561 160.206928 
z
" clip-path="url(#pd4ec4cd73b)" style="fill: #cacaca"/>
    <path d="M 334.520586 161.885621 
L 333.031792 148.770012 
L 328.141158 151.214368 
z
" clip-path="url(#pd4ec4cd73b)" style="fill: #666666"/>
    <path d="M 323.246328 153.66082 
L 334.520586 161.885621 
L 328.141158 151.214368 
z
" clip-path="url(#pd4ec4cd73b)" style="fill: #717171"/>
    <path d="M 323.246328 153.66082 
L 318.347297 156.109372 
L 323.53717 165.004081 
z
" clip-path="url(#pd4ec4cd73b)" style="fill: #878787"/>
    <path d="M 313.444059 158.560026 
L 318.046551 166.563002 
L 318.347297 156.109372 
z
" clip-path="url(#pd4ec4cd73b)" style="fill: #999999"/>
    <path d="M 166.44194 145.399271 
L 161.947052 153.747313 
L 166.271793 149.118709 
z
" clip-path="url(#pd4ec4cd73b)" style="fill: #303030"/>
    <path d="M 159.557692 164.723459 
L 166.102183 152.826427 
L 160.351583 161.076516 
z
" clip-path="url(#pd4ec4cd73b)" style="fill: #8f8f8f"/>
    <path d="M 313.444059 158.560026 
L 308.536609 161.012786 
L 318.046551 166.563002 
z
" clip-path="url(#pd4ec4cd73b)" style="fill: #a7a7a7"/>
    <path d="M 308.536609 161.012786 
L 303.624941 163.467653 
L 307.067489 169.680227 
z
" clip-path="url(#pd4ec4cd73b)" style="fill: #bebebe"/>
    <path d="M 307.067489 169.680227 
L 303.624941 163.467653 
L 298.709051 165.924632 
z
" clip-path="url(#pd4ec4cd73b)" style="fill: #c8c8c8"/>
    <path d="M 161.947052 153.747313 
L 166.44194 145.399271 
L 166.612624 141.668059 
z
" clip-path="url(#pd4ec4cd73b)" style="fill: #0f0f0f"/>
    <path d="M 166.271793 149.118709 
L 161.148032 157.41782 
L 160.351583 161.076516 
z
" clip-path="url(#pd4ec4cd73b)" style="fill: #646464"/>
    <path d="M 157.977538 171.982308 
L 153.88284 180.868136 
L 157.19125 175.594327 
z
" clip-path="url(#pd4ec4cd73b)" style="fill: #f8f8f8"/>
    <path d="M 166.271793 149.118709 
L 161.947052 153.747313 
L 161.148032 157.41782 
z
" clip-path="url(#pd4ec4cd73b)" style="fill: #444444"/>
    <path d="M 340.013382 160.326081 
L 333.031792 148.770012 
L 334.520586 161.885621 
z
" clip-path="url(#pd4ec4cd73b)" style="fill: #656565"/>
    <path d="M 323.53717 165.004081 
L 329.028515 163.444954 
L 323.246328 153.66082 
z
" clip-path="url(#pd4ec4cd73b)" style="fill: #838383"/>
    <path d="M 323.246328 153.66082 
L 329.028515 163.444954 
L 334.520586 161.885621 
z
" clip-path="url(#pd4ec4cd73b)" style="fill: #7a7a7a"/>
    <path d="M 318.347297 156.109372 
L 318.046551 166.563002 
L 323.53717 165.004081 
z
" clip-path="url(#pd4ec4cd73b)" style="fill: #939393"/>
    <path d="M 158.766348 168.358704 
L 153.88284 180.868136 
L 157.977538 171.982308 
z
" clip-path="url(#pd4ec4cd73b)" style="fill: #e9e9e9"/>
    <path d="M 307.067489 169.680227 
L 312.556658 168.121718 
L 308.536609 161.012786 
z
" clip-path="url(#pd4ec4cd73b)" style="fill: #b5b5b5"/>
    <path d="M 308.536609 161.012786 
L 312.556658 168.121718 
L 318.046551 166.563002 
z
" clip-path="url(#pd4ec4cd73b)" style="fill: #ababab"/>
    <path d="M 298.709051 165.924632 
L 301.579046 171.23853 
L 307.067489 169.680227 
z
" clip-path="url(#pd4ec4cd73b)" style="fill: #c9c9c9"/>
    <path d="M 161.947052 153.747313 
L 166.612624 141.668059 
L 162.748656 150.064938 
z
" clip-path="url(#pd4ec4cd73b)"/>
    <path d="M 155.326248 177.198733 
L 158.766348 168.358704 
L 159.557692 164.723459 
z
" clip-path="url(#pd4ec4cd73b)" style="fill: #cacaca"/>
    <path d="M 157.19125 175.594327 
L 153.88284 180.868136 
L 152.443623 184.526886 
z
" clip-path="url(#pd4ec4cd73b)" style="fill: #fefefe"/>
    <path d="M 160.351583 161.076516 
L 158.225708 169.827781 
L 159.557692 164.723459 
z
" clip-path="url(#pd4ec4cd73b)" style="fill: #8f8f8f"/>
    <path d="M 155.326248 177.198733 
L 153.88284 180.868136 
L 158.766348 168.358704 
z
" clip-path="url(#pd4ec4cd73b)" style="fill: #dfdfdf"/>
    <path d="M 161.148032 157.41782 
L 158.225708 169.827781 
L 160.351583 161.076516 
z
" clip-path="url(#pd4ec4cd73b)" style="fill: #717171"/>
    <path d="M 159.557692 164.723459 
L 156.773864 173.51863 
L 155.326248 177.198733 
z
" clip-path="url(#pd4ec4cd73b)" style="fill: #bebebe"/>
    <path d="M 307.067489 169.680227 
L 301.579046 171.23853 
L 301.768814 176.614255 
z
" clip-path="url(#pd4ec4cd73b)" style="fill: #c1c1c1"/>
    <path d="M 159.681797 166.126137 
L 161.148032 157.41782 
L 161.947052 153.747313 
z
" clip-path="url(#pd4ec4cd73b)" style="fill: #464646"/>
    <path d="M 313.309793 175.494984 
L 312.556658 168.121718 
L 307.067489 169.680227 
z
" clip-path="url(#pd4ec4cd73b)" style="fill: #b0b0b0"/>
    <path d="M 318.046551 166.563002 
L 312.556658 168.121718 
L 313.309793 175.494984 
z
" clip-path="url(#pd4ec4cd73b)" style="fill: #a5a5a5"/>
    <path d="M 158.225708 169.827781 
L 156.773864 173.51863 
L 159.557692 164.723459 
z
" clip-path="url(#pd4ec4cd73b)" style="fill: #9e9e9e"/>
    <path d="M 318.046551 166.563002 
L 324.880471 174.372833 
L 323.53717 165.004081 
z
" clip-path="url(#pd4ec4cd73b)" style="fill: #949494"/>
    <path d="M 323.53717 165.004081 
L 324.880471 174.372833 
L 329.028515 163.444954 
z
" clip-path="url(#pd4ec4cd73b)" style="fill: #8a8a8a"/>
    <path d="M 329.028515 163.444954 
L 336.480962 173.247791 
L 334.520586 161.885621 
z
" clip-path="url(#pd4ec4cd73b)" style="fill: #7b7b7b"/>
    <path d="M 340.013382 160.326081 
L 334.520586 161.885621 
L 336.480962 173.247791 
z
" clip-path="url(#pd4ec4cd73b)" style="fill: #717171"/>
    <path d="M 162.748656 150.064938 
L 162.606789 158.690278 
L 161.947052 153.747313 
z
" clip-path="url(#pd4ec4cd73b)" style="fill: #020202"/>
    <path d="M 159.681797 166.126137 
L 158.225708 169.827781 
L 161.148032 157.41782 
z
" clip-path="url(#pd4ec4cd73b)" style="fill: #656565"/>
    <path d="M 301.768814 176.614255 
L 307.535599 176.054979 
L 307.067489 169.680227 
z
" clip-path="url(#pd4ec4cd73b)" style="fill: #b9b9b9"/>
    <path d="M 307.067489 169.680227 
L 307.535599 176.054979 
L 313.309793 175.494984 
z
" clip-path="url(#pd4ec4cd73b)" style="fill: #b2b2b2"/>
    <path d="M 313.309793 175.494984 
L 319.091413 174.934269 
L 318.046551 166.563002 
z
" clip-path="url(#pd4ec4cd73b)" style="fill: #9f9f9f"/>
    <path d="M 152.443623 184.526886 
L 153.88284 180.868136 
L 153.779961 190.145769 
z
" clip-path="url(#pd4ec4cd73b)" style="fill: #f7f7f7"/>
    <path d="M 161.947052 153.747313 
L 161.142151 162.413652 
L 159.681797 166.126137 
z
" clip-path="url(#pd4ec4cd73b)" style="fill: #333333"/>
    <path d="M 318.046551 166.563002 
L 319.091413 174.934269 
L 324.880471 174.372833 
z
" clip-path="url(#pd4ec4cd73b)" style="fill: #999999"/>
    <path d="M 324.880471 174.372833 
L 330.676983 173.810674 
L 329.028515 163.444954 
z
" clip-path="url(#pd4ec4cd73b)" style="fill: #888888"/>
    <path d="M 153.779961 190.145769 
L 153.88284 180.868136 
L 155.326248 177.198733 
z
" clip-path="url(#pd4ec4cd73b)" style="fill: #e7e7e7"/>
    <path d="M 162.606789 158.690278 
L 161.142151 162.413652 
L 161.947052 153.747313 
z
" clip-path="url(#pd4ec4cd73b)" style="fill: #131313"/>
    <path d="M 330.676983 173.810674 
L 336.480962 173.247791 
L 329.028515 163.444954 
z
" clip-path="url(#pd4ec4cd73b)" style="fill: #828282"/>
    <path d="M 336.480962 173.247791 
L 342.292424 172.684182 
L 340.013382 160.326081 
z
" clip-path="url(#pd4ec4cd73b)" style="fill: #727272"/>
    <path d="M 156.773864 173.51863 
L 155.817473 186.334455 
L 155.326248 177.198733 
z
" clip-path="url(#pd4ec4cd73b)" style="fill: #c8c8c8"/>
    <path d="M 153.779961 190.145769 
L 151.747038 193.948499 
L 152.443623 184.526886 
z
" clip-path="url(#pd4ec4cd73b)" style="fill: #fcfcfc"/>
    <path d="M 156.773864 173.51863 
L 158.225708 169.827781 
L 159.906327 178.685956 
z
" clip-path="url(#pd4ec4cd73b)" style="fill: #8f8f8f"/>
    <path d="M 304.976376 182.31096 
L 307.535599 176.054979 
L 301.768814 176.614255 
z
" clip-path="url(#pd4ec4cd73b)" style="fill: #b0b0b0"/>
    <path d="M 155.326248 177.198733 
L 155.817473 186.334455 
L 153.779961 190.145769 
z
" clip-path="url(#pd4ec4cd73b)" style="fill: #dddddd"/>
    <path d="M 161.957701 174.848714 
L 158.225708 169.827781 
L 159.681797 166.126137 
z
" clip-path="url(#pd4ec4cd73b)" style="fill: #666666"/>
    <path d="M 313.309793 175.494984 
L 307.535599 176.054979 
L 304.976376 182.31096 
z
" clip-path="url(#pd4ec4cd73b)" style="fill: #a9a9a9"/>
    <path d="M 313.309793 175.494984 
L 310.695388 182.800804 
L 319.091413 174.934269 
z
" clip-path="url(#pd4ec4cd73b)" style="fill: #9f9f9f"/>
    <path d="M 156.773864 173.51863 
L 157.85959 182.514527 
L 155.817473 186.334455 
z
" clip-path="url(#pd4ec4cd73b)" style="fill: #bdbdbd"/>
    <path d="M 159.681797 166.126137 
L 161.142151 162.413652 
L 164.013726 171.002769 
z
" clip-path="url(#pd4ec4cd73b)" style="fill: #363636"/>
    <path d="M 159.906327 178.685956 
L 157.85959 182.514527 
L 156.773864 173.51863 
z
" clip-path="url(#pd4ec4cd73b)" style="fill: #9e9e9e"/>
    <path d="M 324.880471 174.372833 
L 319.091413 174.934269 
L 322.17619 183.784156 
z
" clip-path="url(#pd4ec4cd73b)" style="fill: #959595"/>
    <path d="M 301.768814 176.614255 
L 299.271552 181.822332 
L 304.976376 182.31096 
z
" clip-path="url(#pd4ec4cd73b)" style="fill: #adadad"/>
    <path d="M 164.013726 171.002769 
L 161.142151 162.413652 
L 162.606789 158.690278 
z
" clip-path="url(#pd4ec4cd73b)" style="fill: #151515"/>
    <path d="M 322.17619 183.784156 
L 330.676983 173.810674 
L 324.880471 174.372833 
z
" clip-path="url(#pd4ec4cd73b)" style="fill: #8f8f8f"/>
    <path d="M 159.906327 178.685956 
L 158.225708 169.827781 
L 161.957701 174.848714 
z
" clip-path="url(#pd4ec4cd73b)" style="fill: #737373"/>
    <path d="M 336.480962 173.247791 
L 330.676983 173.810674 
L 327.938087 184.277673 
z
" clip-path="url(#pd4ec4cd73b)" style="fill: #878787"/>
    <path d="M 304.976376 182.31096 
L 310.695388 182.800804 
L 313.309793 175.494984 
z
" clip-path="url(#pd4ec4cd73b)" style="fill: #a3a3a3"/>
    <path d="M 164.013726 171.002769 
L 161.957701 174.848714 
L 159.681797 166.126137 
z
" clip-path="url(#pd4ec4cd73b)" style="fill: #4a4a4a"/>
    <path d="M 319.091413 174.934269 
L 310.695388 182.800804 
L 316.428642 183.291868 
z
" clip-path="url(#pd4ec4cd73b)" style="fill: #9c9c9c"/>
    <path d="M 339.505139 185.268412 
L 342.292424 172.684182 
L 336.480962 173.247791 
z
" clip-path="url(#pd4ec4cd73b)" style="fill: #7d7d7d"/>
    <path d="M 322.17619 183.784156 
L 319.091413 174.934269 
L 316.428642 183.291868 
z
" clip-path="url(#pd4ec4cd73b)" style="fill: #989898"/>
    <path d="M 164.013726 171.002769 
L 162.606789 158.690278 
L 166.074419 167.148094 
z
" clip-path="url(#pd4ec4cd73b)" style="fill: #080808"/>
    <path d="M 153.779961 190.145769 
L 155.497175 203.379789 
L 151.747038 193.948499 
z
" clip-path="url(#pd4ec4cd73b)" style="fill: #fafafa"/>
    <path d="M 327.938087 184.277673 
L 330.676983 173.810674 
L 322.17619 183.784156 
z
" clip-path="url(#pd4ec4cd73b)" style="fill: #8e8e8e"/>
    <path d="M 160.442443 195.316149 
L 153.779961 190.145769 
L 155.817473 186.334455 
z
" clip-path="url(#pd4ec4cd73b)" style="fill: #dcdcdc"/>
    <path d="M 336.480962 173.247791 
L 327.938087 184.277673 
L 333.714385 184.772423 
z
" clip-path="url(#pd4ec4cd73b)" style="fill: #878787"/>
    <path d="M 304.976376 182.31096 
L 299.271552 181.822332 
L 294.153966 186.635201 
z
" clip-path="url(#pd4ec4cd73b)" style="fill: #a0a0a0"/>
    <path d="M 155.817473 186.334455 
L 157.85959 182.514527 
L 160.442443 195.316149 
z
" clip-path="url(#pd4ec4cd73b)" style="fill: #c6c6c6"/>
    <path d="M 336.480962 173.247791 
L 333.714385 184.772423 
L 339.505139 185.268412 
z
" clip-path="url(#pd4ec4cd73b)" style="fill: #848484"/>
    <path d="M 165.400455 187.23173 
L 157.85959 182.514527 
L 159.906327 178.685956 
z
" clip-path="url(#pd4ec4cd73b)" style="fill: #909090"/>
    <path d="M 304.749546 189.693881 
L 310.695388 182.800804 
L 304.976376 182.31096 
z
" clip-path="url(#pd4ec4cd73b)" style="fill: #9d9d9d"/>
    <path d="M 159.906327 178.685956 
L 161.957701 174.848714 
L 165.400455 187.23173 
z
" clip-path="url(#pd4ec4cd73b)" style="fill: #737373"/>
    <path d="M 157.968219 199.350561 
L 155.497175 203.379789 
L 153.779961 190.145769 
z
" clip-path="url(#pd4ec4cd73b)" style="fill: #f3f3f3"/>
    <path d="M 157.968219 199.350561 
L 153.779961 190.145769 
L 160.442443 195.316149 
z
" clip-path="url(#pd4ec4cd73b)" style="fill: #e4e4e4"/>
    <path d="M 161.957701 174.848714 
L 164.013726 171.002769 
L 170.371258 179.126454 
z
" clip-path="url(#pd4ec4cd73b)" style="fill: #3c3c3c"/>
    <path d="M 294.153966 186.635201 
L 299.442198 188.161782 
L 304.976376 182.31096 
z
" clip-path="url(#pd4ec4cd73b)" style="fill: #9a9a9a"/>
    <path d="M 310.695388 182.800804 
L 310.076112 191.231528 
L 316.428642 183.291868 
z
" clip-path="url(#pd4ec4cd73b)" style="fill: #999999"/>
    <path d="M 157.85959 182.514527 
L 162.919853 191.276542 
L 160.442443 195.316149 
z
" clip-path="url(#pd4ec4cd73b)" style="fill: #bbbbbb"/>
    <path d="M 170.371258 179.126454 
L 164.013726 171.002769 
L 166.074419 167.148094 
z
" clip-path="url(#pd4ec4cd73b)" style="fill: #1a1a1a"/>
    <path d="M 316.428642 183.291868 
L 310.076112 191.231528 
L 322.17619 183.784156 
z
" clip-path="url(#pd4ec4cd73b)" style="fill: #959595"/>
    <path d="M 165.400455 187.23173 
L 162.919853 191.276542 
L 157.85959 182.514527 
z
" clip-path="url(#pd4ec4cd73b)" style="fill: #9e9e9e"/>
    <path d="M 304.976376 182.31096 
L 299.442198 188.161782 
L 304.749546 189.693881 
z
" clip-path="url(#pd4ec4cd73b)" style="fill: #9a9a9a"/>
    <path d="M 161.957701 174.848714 
L 167.884254 183.181704 
L 165.400455 187.23173 
z
" clip-path="url(#pd4ec4cd73b)" style="fill: #686868"/>
    <path d="M 170.371258 179.126454 
L 167.884254 183.181704 
L 161.957701 174.848714 
z
" clip-path="url(#pd4ec4cd73b)" style="fill: #4e4e4e"/>
    <path d="M 304.749546 189.693881 
L 310.076112 191.231528 
L 310.695388 182.800804 
z
" clip-path="url(#pd4ec4cd73b)" style="fill: #999999"/>
    <path d="M 320.78732 194.323588 
L 327.938087 184.277673 
L 322.17619 183.784156 
z
" clip-path="url(#pd4ec4cd73b)" style="fill: #939393"/>
    <path d="M 166.074419 167.148094 
L 172.861472 175.065968 
L 170.371258 179.126454 
z
" clip-path="url(#pd4ec4cd73b)" style="fill: #0e0e0e"/>
    <path d="M 327.938087 184.277673 
L 326.172174 195.878061 
L 333.714385 184.772423 
z
" clip-path="url(#pd4ec4cd73b)" style="fill: #909090"/>
    <path d="M 299.442198 188.161782 
L 286.56008 190.830094 
L 294.153966 186.635201 
z
" clip-path="url(#pd4ec4cd73b)" style="fill: #909090"/>
    <path d="M 322.17619 183.784156 
L 310.076112 191.231528 
L 315.422002 192.774754 
z
" clip-path="url(#pd4ec4cd73b)" style="fill: #959595"/>
    <path d="M 339.505139 185.268412 
L 333.714385 184.772423 
L 326.172174 195.878061 
z
" clip-path="url(#pd4ec4cd73b)" style="fill: #8d8d8d"/>
    <path d="M 315.422002 192.774754 
L 320.78732 194.323588 
L 322.17619 183.784156 
z
" clip-path="url(#pd4ec4cd73b)" style="fill: #959595"/>
    <path d="M 166.524215 207.964014 
L 155.497175 203.379789 
L 157.968219 199.350561 
z
" clip-path="url(#pd4ec4cd73b)" style="fill: #f2f2f2"/>
    <path d="M 160.442443 195.316149 
L 166.524215 207.964014 
L 157.968219 199.350561 
z
" clip-path="url(#pd4ec4cd73b)" style="fill: #e1e1e1"/>
    <path d="M 295.658565 195.829578 
L 299.442198 188.161782 
L 304.749546 189.693881 
z
" clip-path="url(#pd4ec4cd73b)" style="fill: #939393"/>
    <path d="M 160.442443 195.316149 
L 162.919853 191.276542 
L 171.855098 199.349223 
z
" clip-path="url(#pd4ec4cd73b)" style="fill: #bababa"/>
    <path d="M 320.78732 194.323588 
L 326.172174 195.878061 
L 327.938087 184.277673 
z
" clip-path="url(#pd4ec4cd73b)" style="fill: #939393"/>
    <path d="M 171.855098 199.349223 
L 162.919853 191.276542 
L 165.400455 187.23173 
z
" clip-path="url(#pd4ec4cd73b)" style="fill: #9d9d9d"/>
    <path d="M 291.099005 193.324167 
L 286.56008 190.830094 
L 299.442198 188.161782 
z
" clip-path="url(#pd4ec4cd73b)" style="fill: #8d8d8d"/>
    <path d="M 165.400455 187.23173 
L 167.884254 183.181704 
L 177.186818 190.733078 
z
" clip-path="url(#pd4ec4cd73b)" style="fill: #6a6a6a"/>
    <path d="M 177.186818 190.733078 
L 167.884254 183.181704 
L 170.371258 179.126454 
z
" clip-path="url(#pd4ec4cd73b)" style="fill: #515151"/>
    <path d="M 170.371258 179.126454 
L 172.861472 175.065968 
L 182.519377 182.115579 
z
" clip-path="url(#pd4ec4cd73b)" style="fill: #141414"/>
    <path d="M 304.749546 189.693881 
L 310.076112 191.231528 
L 300.238899 198.346405 
z
" clip-path="url(#pd4ec4cd73b)" style="fill: #959595"/>
    <path d="M 291.099005 193.324167 
L 299.442198 188.161782 
L 295.658565 195.829578 
z
" clip-path="url(#pd4ec4cd73b)" style="fill: #909090"/>
    <path d="M 331.57667 197.438205 
L 339.505139 185.268412 
L 326.172174 195.878061 
z
" clip-path="url(#pd4ec4cd73b)" style="fill: #909090"/>
    <path d="M 163.859088 212.270902 
L 155.497175 203.379789 
L 166.524215 207.964014 
z
" clip-path="url(#pd4ec4cd73b)" style="fill: #f6f6f6"/>
    <path d="M 300.238899 198.346405 
L 310.076112 191.231528 
L 315.422002 192.774754 
z
" clip-path="url(#pd4ec4cd73b)" style="fill: #959595"/>
    <path d="M 169.189552 203.656788 
L 166.524215 207.964014 
L 160.442443 195.316149 
z
" clip-path="url(#pd4ec4cd73b)" style="fill: #d8d8d8"/>
    <path d="M 160.442443 195.316149 
L 171.855098 199.349223 
L 169.189552 203.656788 
z
" clip-path="url(#pd4ec4cd73b)" style="fill: #c5c5c5"/>
    <path d="M 174.520853 195.04132 
L 171.855098 199.349223 
L 165.400455 187.23173 
z
" clip-path="url(#pd4ec4cd73b)" style="fill: #909090"/>
    <path d="M 177.186818 190.733078 
L 174.520853 195.04132 
L 165.400455 187.23173 
z
" clip-path="url(#pd4ec4cd73b)" style="fill: #777777"/>
    <path d="M 300.238899 198.346405 
L 295.658565 195.829578 
L 304.749546 189.693881 
z
" clip-path="url(#pd4ec4cd73b)" style="fill: #939393"/>
    <path d="M 179.852993 186.424498 
L 177.186818 190.733078 
L 170.371258 179.126454 
z
" clip-path="url(#pd4ec4cd73b)" style="fill: #434343"/>
    <path d="M 170.371258 179.126454 
L 182.519377 182.115579 
L 179.852993 186.424498 
z
" clip-path="url(#pd4ec4cd73b)" style="fill: #242424"/>
    <path d="M 280.232301 197.528501 
L 286.56008 190.830094 
L 291.099005 193.324167 
z
" clip-path="url(#pd4ec4cd73b)" style="fill: #848484"/>
    <path d="M 315.422002 192.774754 
L 320.78732 194.323588 
L 309.462465 203.41462 
z
" clip-path="url(#pd4ec4cd73b)" style="fill: #999999"/>
    <path d="M 276.716901 194.193076 
L 286.56008 190.830094 
L 280.232301 197.528501 
z
" clip-path="url(#pd4ec4cd73b)" style="fill: #7d7d7d"/>
    <path d="M 291.099005 193.324167 
L 295.658565 195.829578 
L 280.232301 197.528501 
z
" clip-path="url(#pd4ec4cd73b)" style="fill: #878787"/>
    <path d="M 300.238899 198.346405 
L 315.422002 192.774754 
L 304.840152 200.874726 
z
" clip-path="url(#pd4ec4cd73b)" style="fill: #959595"/>
    <path d="M 309.462465 203.41462 
L 320.78732 194.323588 
L 326.172174 195.878061 
z
" clip-path="url(#pd4ec4cd73b)" style="fill: #999999"/>
    <path d="M 304.840152 200.874726 
L 315.422002 192.774754 
L 309.462465 203.41462 
z
" clip-path="url(#pd4ec4cd73b)" style="fill: #999999"/>
    <path d="M 177.186818 190.733078 
L 179.852993 186.424498 
L 191.944195 192.58488 
z
" clip-path="url(#pd4ec4cd73b)" style="fill: #484848"/>
    <path d="M 191.944195 192.58488 
L 179.852993 186.424498 
L 182.519377 182.115579 
z
" clip-path="url(#pd4ec4cd73b)" style="fill: #292929"/>
    <path d="M 174.520853 195.04132 
L 177.186818 190.733078 
L 189.412712 197.145355 
z
" clip-path="url(#pd4ec4cd73b)" style="fill: #6d6d6d"/>
    <path d="M 314.105985 205.966166 
L 326.172174 195.878061 
L 331.57667 197.438205 
z
" clip-path="url(#pd4ec4cd73b)" style="fill: #9a9a9a"/>
    <path d="M 171.855098 199.349223 
L 174.520853 195.04132 
L 186.87805 201.711557 
z
" clip-path="url(#pd4ec4cd73b)" style="fill: #909090"/>
    <path d="M 166.524215 207.964014 
L 169.189552 203.656788 
L 181.799166 210.861183 
z
" clip-path="url(#pd4ec4cd73b)" style="fill: #d6d6d6"/>
    <path d="M 181.799166 210.861183 
L 169.189552 203.656788 
L 171.855098 199.349223 
z
" clip-path="url(#pd4ec4cd73b)" style="fill: #c2c2c2"/>
    <path d="M 280.232301 197.528501 
L 295.658565 195.829578 
L 283.765897 200.88119 
z
" clip-path="url(#pd4ec4cd73b)" style="fill: #878787"/>
    <path d="M 176.707494 220.033845 
L 163.859088 212.270902 
L 166.524215 207.964014 
z
" clip-path="url(#pd4ec4cd73b)" style="fill: #f4f4f4"/>
    <path d="M 295.658565 195.829578 
L 300.238899 198.346405 
L 287.317828 204.251277 
z
" clip-path="url(#pd4ec4cd73b)" style="fill: #919191"/>
    <path d="M 280.232301 197.528501 
L 264.940658 196.525048 
L 276.716901 194.193076 
z
" clip-path="url(#pd4ec4cd73b)" style="fill: #727272"/>
    <path d="M 194.472506 188.030121 
L 191.944195 192.58488 
L 182.519377 182.115579 
z
" clip-path="url(#pd4ec4cd73b)" style="fill: #1f1f1f"/>
    <path d="M 326.172174 195.878061 
L 314.105985 205.966166 
L 309.462465 203.41462 
z
" clip-path="url(#pd4ec4cd73b)" style="fill: #9d9d9d"/>
    <path d="M 191.944195 192.58488 
L 189.412712 197.145355 
L 177.186818 190.733078 
z
" clip-path="url(#pd4ec4cd73b)" style="fill: #585858"/>
    <path d="M 287.317828 204.251277 
L 300.238899 198.346405 
L 304.840152 200.874726 
z
" clip-path="url(#pd4ec4cd73b)" style="fill: #949494"/>
    <path d="M 283.765897 200.88119 
L 295.658565 195.829578 
L 287.317828 204.251277 
z
" clip-path="url(#pd4ec4cd73b)" style="fill: #8e8e8e"/>
    <path d="M 174.520853 195.04132 
L 189.412712 197.145355 
L 186.87805 201.711557 
z
" clip-path="url(#pd4ec4cd73b)" style="fill: #797979"/>
    <path d="M 186.87805 201.711557 
L 184.340204 206.283496 
L 171.855098 199.349223 
z
" clip-path="url(#pd4ec4cd73b)" style="fill: #9d9d9d"/>
    <path d="M 171.855098 199.349223 
L 184.340204 206.283496 
L 181.799166 210.861183 
z
" clip-path="url(#pd4ec4cd73b)" style="fill: #b6b6b6"/>
    <path d="M 181.799166 210.861183 
L 179.254932 215.444629 
L 166.524215 207.964014 
z
" clip-path="url(#pd4ec4cd73b)" style="fill: #dddddd"/>
    <path d="M 267.248849 200.531356 
L 264.940658 196.525048 
L 280.232301 197.528501 
z
" clip-path="url(#pd4ec4cd73b)" style="fill: #717171"/>
    <path d="M 166.524215 207.964014 
L 179.254932 215.444629 
L 176.707494 220.033845 
z
" clip-path="url(#pd4ec4cd73b)" style="fill: #ececec"/>
    <path d="M 331.57667 197.438205 
L 318.770858 208.529445 
L 314.105985 205.966166 
z
" clip-path="url(#pd4ec4cd73b)" style="fill: #a0a0a0"/>
    <path d="M 269.569566 204.559405 
L 280.232301 197.528501 
L 283.765897 200.88119 
z
" clip-path="url(#pd4ec4cd73b)" style="fill: #828282"/>
    <path d="M 304.840152 200.874726 
L 309.462465 203.41462 
L 290.888239 207.638896 
z
" clip-path="url(#pd4ec4cd73b)" style="fill: #9c9c9c"/>
    <path d="M 206.007319 197.361214 
L 191.944195 192.58488 
L 194.472506 188.030121 
z
" clip-path="url(#pd4ec4cd73b)" style="fill: #353535"/>
    <path d="M 267.248849 200.531356 
L 280.232301 197.528501 
L 269.569566 204.559405 
z
" clip-path="url(#pd4ec4cd73b)" style="fill: #7b7b7b"/>
    <path d="M 206.007319 197.361214 
L 189.412712 197.145355 
L 191.944195 192.58488 
z
" clip-path="url(#pd4ec4cd73b)" style="fill: #515151"/>
    <path d="M 304.840152 200.874726 
L 290.888239 207.638896 
L 287.317828 204.251277 
z
" clip-path="url(#pd4ec4cd73b)" style="fill: #979797"/>
    <path d="M 194.472506 188.030121 
L 208.058963 192.616474 
L 206.007319 197.361214 
z
" clip-path="url(#pd4ec4cd73b)" style="fill: #2b2b2b"/>
    <path d="M 287.317828 204.251277 
L 269.569566 204.559405 
L 283.765897 200.88119 
z
" clip-path="url(#pd4ec4cd73b)" style="fill: #888888"/>
    <path d="M 252.671813 202.129483 
L 264.940658 196.525048 
L 267.248849 200.531356 
z
" clip-path="url(#pd4ec4cd73b)" style="fill: #6a6a6a"/>
    <path d="M 251.641394 197.650218 
L 264.940658 196.525048 
L 252.671813 202.129483 
z
" clip-path="url(#pd4ec4cd73b)" style="fill: #616161"/>
    <path d="M 186.87805 201.711557 
L 189.412712 197.145355 
L 201.888125 206.887484 
z
" clip-path="url(#pd4ec4cd73b)" style="fill: #7a7a7a"/>
    <path d="M 201.888125 206.887484 
L 184.340204 206.283496 
L 186.87805 201.711557 
z
" clip-path="url(#pd4ec4cd73b)" style="fill: #919191"/>
    <path d="M 206.007319 197.361214 
L 203.95038 202.118202 
L 189.412712 197.145355 
z
" clip-path="url(#pd4ec4cd73b)" style="fill: #5e5e5e"/>
    <path d="M 314.105985 205.966166 
L 298.085078 214.467285 
L 309.462465 203.41462 
z
" clip-path="url(#pd4ec4cd73b)" style="fill: #a7a7a7"/>
    <path d="M 206.007319 197.361214 
L 208.058963 192.616474 
L 222.575795 195.760747 
z
" clip-path="url(#pd4ec4cd73b)" style="fill: #353535"/>
    <path d="M 290.888239 207.638896 
L 309.462465 203.41462 
L 294.477274 211.044186 
z
" clip-path="url(#pd4ec4cd73b)" style="fill: #9f9f9f"/>
    <path d="M 189.412712 197.145355 
L 203.95038 202.118202 
L 201.888125 206.887484 
z
" clip-path="url(#pd4ec4cd73b)" style="fill: #717171"/>
    <path d="M 269.569566 204.559405 
L 252.671813 202.129483 
L 267.248849 200.531356 
z
" clip-path="url(#pd4ec4cd73b)" style="fill: #737373"/>
    <path d="M 181.799166 210.861183 
L 184.340204 206.283496 
L 197.747583 216.463124 
z
" clip-path="url(#pd4ec4cd73b)" style="fill: #bfbfbf"/>
    <path d="M 181.799166 210.861183 
L 197.747583 216.463124 
L 179.254932 215.444629 
z
" clip-path="url(#pd4ec4cd73b)" style="fill: #d2d2d2"/>
    <path d="M 271.902911 208.609374 
L 269.569566 204.559405 
L 287.317828 204.251277 
z
" clip-path="url(#pd4ec4cd73b)" style="fill: #8a8a8a"/>
    <path d="M 237.127367 202.174314 
L 237.323016 197.427016 
L 251.641394 197.650218 
z
" clip-path="url(#pd4ec4cd73b)" style="fill: #545454"/>
    <path d="M 222.575795 195.760747 
L 221.321522 200.58543 
L 206.007319 197.361214 
z
" clip-path="url(#pd4ec4cd73b)" style="fill: #464646"/>
    <path d="M 251.641394 197.650218 
L 252.671813 202.129483 
L 237.127367 202.174314 
z
" clip-path="url(#pd4ec4cd73b)" style="fill: #5f5f5f"/>
    <path d="M 298.085078 214.467285 
L 314.105985 205.966166 
L 318.770858 208.529445 
z
" clip-path="url(#pd4ec4cd73b)" style="fill: #aaaaaa"/>
    <path d="M 199.820532 211.669109 
L 184.340204 206.283496 
L 201.888125 206.887484 
z
" clip-path="url(#pd4ec4cd73b)" style="fill: #9d9d9d"/>
    <path d="M 222.575795 195.760747 
L 237.323016 197.427016 
L 237.127367 202.174314 
z
" clip-path="url(#pd4ec4cd73b)" style="fill: #484848"/>
    <path d="M 309.462465 203.41462 
L 298.085078 214.467285 
L 294.477274 211.044186 
z
" clip-path="url(#pd4ec4cd73b)" style="fill: #a7a7a7"/>
    <path d="M 287.317828 204.251277 
L 290.888239 207.638896 
L 274.248989 212.681442 
z
" clip-path="url(#pd4ec4cd73b)" style="fill: #999999"/>
    <path d="M 220.062523 205.428287 
L 203.95038 202.118202 
L 206.007319 197.361214 
z
" clip-path="url(#pd4ec4cd73b)" style="fill: #616161"/>
    <path d="M 179.254932 215.444629 
L 193.585526 226.088518 
L 176.707494 220.033845 
z
" clip-path="url(#pd4ec4cd73b)" style="fill: #efefef"/>
    <path d="M 237.127367 202.174314 
L 221.321522 200.58543 
L 222.575795 195.760747 
z
" clip-path="url(#pd4ec4cd73b)" style="fill: #4e4e4e"/>
    <path d="M 253.707655 206.632323 
L 252.671813 202.129483 
L 269.569566 204.559405 
z
" clip-path="url(#pd4ec4cd73b)" style="fill: #767676"/>
    <path d="M 197.747583 216.463124 
L 184.340204 206.283496 
L 199.820532 211.669109 
z
" clip-path="url(#pd4ec4cd73b)" style="fill: #b3b3b3"/>
    <path d="M 206.007319 197.361214 
L 221.321522 200.58543 
L 220.062523 205.428287 
z
" clip-path="url(#pd4ec4cd73b)" style="fill: #5b5b5b"/>
    <path d="M 274.248989 212.681442 
L 271.902911 208.609374 
L 287.317828 204.251277 
z
" clip-path="url(#pd4ec4cd73b)" style="fill: #949494"/>
    <path d="M 201.888125 206.887484 
L 203.95038 202.118202 
L 220.062523 205.428287 
z
" clip-path="url(#pd4ec4cd73b)" style="fill: #757575"/>
    <path d="M 236.9308 206.943885 
L 237.127367 202.174314 
L 252.671813 202.129483 
z
" clip-path="url(#pd4ec4cd73b)" style="fill: #696969"/>
    <path d="M 197.747583 216.463124 
L 195.669254 221.269577 
L 179.254932 215.444629 
z
" clip-path="url(#pd4ec4cd73b)" style="fill: #d8d8d8"/>
    <path d="M 221.321522 200.58543 
L 237.127367 202.174314 
L 236.9308 206.943885 
z
" clip-path="url(#pd4ec4cd73b)" style="fill: #626262"/>
    <path d="M 236.9308 206.943885 
L 252.671813 202.129483 
L 253.707655 206.632323 
z
" clip-path="url(#pd4ec4cd73b)" style="fill: #717171"/>
    <path d="M 269.569566 204.559405 
L 271.902911 208.609374 
L 254.748963 211.158923 
z
" clip-path="url(#pd4ec4cd73b)" style="fill: #898989"/>
    <path d="M 254.748963 211.158923 
L 253.707655 206.632323 
L 269.569566 204.559405 
z
" clip-path="url(#pd4ec4cd73b)" style="fill: #838383"/>
    <path d="M 220.062523 205.428287 
L 221.321522 200.58543 
L 236.9308 206.943885 
z
" clip-path="url(#pd4ec4cd73b)" style="fill: #676767"/>
    <path d="M 294.477274 211.044186 
L 276.607904 216.77579 
L 290.888239 207.638896 
z
" clip-path="url(#pd4ec4cd73b)" style="fill: #a5a5a5"/>
    <path d="M 179.254932 215.444629 
L 195.669254 221.269577 
L 193.585526 226.088518 
z
" clip-path="url(#pd4ec4cd73b)" style="fill: #e6e6e6"/>
    <path d="M 220.062523 205.428287 
L 218.798772 210.289421 
L 201.888125 206.887484 
z
" clip-path="url(#pd4ec4cd73b)" style="fill: #7f7f7f"/>
    <path d="M 298.085078 214.467285 
L 318.770858 208.529445 
L 301.711801 217.908333 
z
" clip-path="url(#pd4ec4cd73b)" style="fill: #b2b2b2"/>
    <path d="M 201.888125 206.887484 
L 217.530244 215.168937 
L 199.820532 211.669109 
z
" clip-path="url(#pd4ec4cd73b)" style="fill: #9c9c9c"/>
    <path d="M 290.888239 207.638896 
L 276.607904 216.77579 
L 274.248989 212.681442 
z
" clip-path="url(#pd4ec4cd73b)" style="fill: #a3a3a3"/>
    <path d="M 236.9308 206.943885 
L 218.798772 210.289421 
L 220.062523 205.428287 
z
" clip-path="url(#pd4ec4cd73b)" style="fill: #797979"/>
    <path d="M 236.9308 206.943885 
L 253.707655 206.632323 
L 254.748963 211.158923 
z
" clip-path="url(#pd4ec4cd73b)" style="fill: #7e7e7e"/>
    <path d="M 201.888125 206.887484 
L 218.798772 210.289421 
L 217.530244 215.168937 
z
" clip-path="url(#pd4ec4cd73b)" style="fill: #919191"/>
    <path d="M 274.248989 212.681442 
L 255.79578 215.709473 
L 271.902911 208.609374 
z
" clip-path="url(#pd4ec4cd73b)" style="fill: #999999"/>
    <path d="M 216.256909 220.066938 
L 197.747583 216.463124 
L 199.820532 211.669109 
z
" clip-path="url(#pd4ec4cd73b)" style="fill: #bbbbbb"/>
    <path d="M 236.733308 211.735887 
L 218.798772 210.289421 
L 236.9308 206.943885 
z
" clip-path="url(#pd4ec4cd73b)" style="fill: #838383"/>
    <path d="M 271.902911 208.609374 
L 255.79578 215.709473 
L 254.748963 211.158923 
z
" clip-path="url(#pd4ec4cd73b)" style="fill: #939393"/>
    <path d="M 254.748963 211.158923 
L 236.733308 211.735887 
L 236.9308 206.943885 
z
" clip-path="url(#pd4ec4cd73b)" style="fill: #848484"/>
    <path d="M 294.477274 211.044186 
L 298.085078 214.467285 
L 278.97976 220.892601 
z
" clip-path="url(#pd4ec4cd73b)" style="fill: #b2b2b2"/>
    <path d="M 216.256909 220.066938 
L 195.669254 221.269577 
L 197.747583 216.463124 
z
" clip-path="url(#pd4ec4cd73b)" style="fill: #cccccc"/>
    <path d="M 199.820532 211.669109 
L 217.530244 215.168937 
L 216.256909 220.066938 
z
" clip-path="url(#pd4ec4cd73b)" style="fill: #afafaf"/>
    <path d="M 278.97976 220.892601 
L 276.607904 216.77579 
L 294.477274 211.044186 
z
" clip-path="url(#pd4ec4cd73b)" style="fill: #b0b0b0"/>
    <path d="M 236.733308 211.735887 
L 236.534886 216.550477 
L 218.798772 210.289421 
z
" clip-path="url(#pd4ec4cd73b)" style="fill: #919191"/>
    <path d="M 236.534886 216.550477 
L 236.733308 211.735887 
L 254.748963 211.158923 
z
" clip-path="url(#pd4ec4cd73b)" style="fill: #939393"/>
    <path d="M 218.798772 210.289421 
L 236.534886 216.550477 
L 217.530244 215.168937 
z
" clip-path="url(#pd4ec4cd73b)" style="fill: #9a9a9a"/>
    <path d="M 276.607904 216.77579 
L 255.79578 215.709473 
L 274.248989 212.681442 
z
" clip-path="url(#pd4ec4cd73b)" style="fill: #a4a4a4"/>
    <path d="M 254.748963 211.158923 
L 255.79578 215.709473 
L 236.534886 216.550477 
z
" clip-path="url(#pd4ec4cd73b)" style="fill: #9a9a9a"/>
    <path d="M 278.97976 220.892601 
L 298.085078 214.467285 
L 301.711801 217.908333 
z
" clip-path="url(#pd4ec4cd73b)" style="fill: #b9b9b9"/>
    <path d="M 193.585526 226.088518 
L 195.669254 221.269577 
L 214.978742 224.983529 
z
" clip-path="url(#pd4ec4cd73b)" style="fill: #e2e2e2"/>
    <path d="M 216.256909 220.066938 
L 214.978742 224.983529 
L 195.669254 221.269577 
z
" clip-path="url(#pd4ec4cd73b)" style="fill: #d2d2d2"/>
    <path d="M 256.84815 220.284161 
L 255.79578 215.709473 
L 276.607904 216.77579 
z
" clip-path="url(#pd4ec4cd73b)" style="fill: #ababab"/>
    <path d="M 217.530244 215.168937 
L 236.534886 216.550477 
L 236.335526 221.387816 
z
" clip-path="url(#pd4ec4cd73b)" style="fill: #ababab"/>
    <path d="M 236.335526 221.387816 
L 216.256909 220.066938 
L 217.530244 215.168937 
z
" clip-path="url(#pd4ec4cd73b)" style="fill: #b6b6b6"/>
    <path d="M 236.335526 221.387816 
L 236.534886 216.550477 
L 255.79578 215.709473 
z
" clip-path="url(#pd4ec4cd73b)" style="fill: #aaaaaa"/>
    <path d="M 256.84815 220.284161 
L 276.607904 216.77579 
L 278.97976 220.892601 
z
" clip-path="url(#pd4ec4cd73b)" style="fill: #b5b5b5"/>
    <path d="M 213.695713 229.918818 
L 193.585526 226.088518 
L 214.978742 224.983529 
z
" clip-path="url(#pd4ec4cd73b)" style="fill: #e6e6e6"/>
    <path d="M 236.335526 221.387816 
L 255.79578 215.709473 
L 256.84815 220.284161 
z
" clip-path="url(#pd4ec4cd73b)" style="fill: #b0b0b0"/>
    <path d="M 214.978742 224.983529 
L 216.256909 220.066938 
L 236.335526 221.387816 
z
" clip-path="url(#pd4ec4cd73b)" style="fill: #c7c7c7"/>
    <path d="M 301.711801 217.908333 
L 281.364666 225.032062 
L 278.97976 220.892601 
z
" clip-path="url(#pd4ec4cd73b)" style="fill: #c1c1c1"/>
    <path d="M 278.97976 220.892601 
L 257.906118 224.883182 
L 256.84815 220.284161 
z
" clip-path="url(#pd4ec4cd73b)" style="fill: #bebebe"/>
    <path d="M 256.84815 220.284161 
L 257.906118 224.883182 
L 236.335526 221.387816 
z
" clip-path="url(#pd4ec4cd73b)" style="fill: #bebebe"/>
    <path d="M 236.135222 226.248065 
L 214.978742 224.983529 
L 236.335526 221.387816 
z
" clip-path="url(#pd4ec4cd73b)" style="fill: #cccccc"/>
    <path d="M 257.906118 224.883182 
L 236.135222 226.248065 
L 236.335526 221.387816 
z
" clip-path="url(#pd4ec4cd73b)" style="fill: #c5c5c5"/>
    <path d="M 214.978742 224.983529 
L 235.933967 231.131389 
L 213.695713 229.918818 
z
" clip-path="url(#pd4ec4cd73b)" style="fill: #e0e0e0"/>
    <path d="M 278.97976 220.892601 
L 281.364666 225.032062 
L 258.969728 229.50673 
z
" clip-path="url(#pd4ec4cd73b)" style="fill: #c9c9c9"/>
    <path d="M 258.969728 229.50673 
L 257.906118 224.883182 
L 278.97976 220.892601 
z
" clip-path="url(#pd4ec4cd73b)" style="fill: #c8c8c8"/>
    <path d="M 236.135222 226.248065 
L 235.933967 231.131389 
L 214.978742 224.983529 
z
" clip-path="url(#pd4ec4cd73b)" style="fill: #d8d8d8"/>
    <path d="M 235.933967 231.131389 
L 236.135222 226.248065 
L 257.906118 224.883182 
z
" clip-path="url(#pd4ec4cd73b)" style="fill: #d2d2d2"/>
    <path d="M 235.933967 231.131389 
L 257.906118 224.883182 
L 258.969728 229.50673 
z
" clip-path="url(#pd4ec4cd73b)" style="fill: #d4d4d4"/>
   </g>
  </g>
 </g>
 <defs>
  <clipPath id="pd4ec4cd73b">
   <rect x="103.104" y="41.472" width="266.112" height="266.112"/>
  </clipPath>
 </defs>
</svg>
