<?xml version="1.0" encoding="utf-8" standalone="no"?>
<!DOCTYPE svg PUBLIC "-//W3C//DTD SVG 1.1//EN"
  "http://www.w3.org/Graphics/SVG/1.1/DTD/svg11.dtd">
<svg xmlns:xlink="http://www.w3.org/1999/xlink" width="460.8pt" height="345.6pt" viewBox="0 0 460.8 345.6" xmlns="http://www.w3.org/2000/svg" version="1.1">
 <metadata>
  <rdf:RDF xmlns:dc="http://purl.org/dc/elements/1.1/" xmlns:cc="http://creativecommons.org/ns#" xmlns:rdf="http://www.w3.org/1999/02/22-rdf-syntax-ns#">
   <cc:Work>
    <dc:type rdf:resource="http://purl.org/dc/dcmitype/StillImage"/>
    <dc:date>2023-08-03T17:49:08.411339</dc:date>
    <dc:format>image/svg+xml</dc:format>
    <dc:creator>
     <cc:Agent>
      <dc:title>Matplotlib v3.7.1, https://matplotlib.org/</dc:title>
     </cc:Agent>
    </dc:creator>
   </cc:Work>
  </rdf:RDF>
 </metadata>
 <defs>
  <style type="text/css">*{stroke-linejoin: round; stroke-linecap: butt}</style>
 </defs>
 <g id="figure_1">
  <g id="patch_1">
   <path d="M 0 345.6 
L 460.8 345.6 
L 460.8 0 
L 0 0 
z
" style="fill: #ffffff"/>
  </g>
  <g id="axes_1">
   <g id="patch_2">
    <path d="M 57.6 138.24 
L 159.634286 138.24 
L 159.634286 41.472 
L 57.6 41.472 
z
" style="fill: #ffffff"/>
   </g>
   <g id="matplotlib.axis_1">
    <g id="xtick_1">
     <g id="line2d_1">
      <path d="M 57.6 138.24 
L 57.6 41.472 
" clip-path="url(#p07fa9aa4e3)" style="fill: none; stroke: #cccccc; stroke-width: 0.8; stroke-linecap: round"/>
     </g>
     <g id="line2d_2"/>
     <g id="text_1">
      <!-- 0.0 -->
      <g style="fill: #262626" transform="translate(50.65 148.986875) scale(0.1 -0.1)">
       <defs>
        <path id="LiberationSans-30" d="M 3309 2203 
Q 3309 1100 2920 518 
Q 2531 -63 1772 -63 
Q 1013 -63 631 515 
Q 250 1094 250 2203 
Q 250 3338 620 3903 
Q 991 4469 1791 4469 
Q 2569 4469 2939 3897 
Q 3309 3325 3309 2203 
z
M 2738 2203 
Q 2738 3156 2517 3584 
Q 2297 4013 1791 4013 
Q 1272 4013 1045 3591 
Q 819 3169 819 2203 
Q 819 1266 1048 831 
Q 1278 397 1778 397 
Q 2275 397 2506 840 
Q 2738 1284 2738 2203 
z
" transform="scale(0.015625)"/>
        <path id="LiberationSans-2e" d="M 584 0 
L 584 684 
L 1194 684 
L 1194 0 
L 584 0 
z
" transform="scale(0.015625)"/>
       </defs>
       <use xlink:href="#LiberationSans-30"/>
       <use xlink:href="#LiberationSans-2e" x="55.615234"/>
       <use xlink:href="#LiberationSans-30" x="83.398438"/>
      </g>
     </g>
    </g>
    <g id="xtick_2">
     <g id="line2d_3">
      <path d="M 108.617143 138.24 
L 108.617143 41.472 
" clip-path="url(#p07fa9aa4e3)" style="fill: none; stroke: #cccccc; stroke-width: 0.8; stroke-linecap: round"/>
     </g>
     <g id="line2d_4"/>
     <g id="text_2">
      <!-- 0.5 -->
      <g style="fill: #262626" transform="translate(101.667143 148.986875) scale(0.1 -0.1)">
       <defs>
        <path id="LiberationSans-35" d="M 3291 1434 
Q 3291 738 2877 337 
Q 2463 -63 1728 -63 
Q 1113 -63 734 206 
Q 356 475 256 984 
L 825 1050 
Q 1003 397 1741 397 
Q 2194 397 2450 670 
Q 2706 944 2706 1422 
Q 2706 1838 2448 2094 
Q 2191 2350 1753 2350 
Q 1525 2350 1328 2278 
Q 1131 2206 934 2034 
L 384 2034 
L 531 4403 
L 3034 4403 
L 3034 3925 
L 1044 3925 
L 959 2528 
Q 1325 2809 1869 2809 
Q 2519 2809 2905 2428 
Q 3291 2047 3291 1434 
z
" transform="scale(0.015625)"/>
       </defs>
       <use xlink:href="#LiberationSans-30"/>
       <use xlink:href="#LiberationSans-2e" x="55.615234"/>
       <use xlink:href="#LiberationSans-35" x="83.398438"/>
      </g>
     </g>
    </g>
    <g id="xtick_3">
     <g id="line2d_5">
      <path d="M 159.634286 138.24 
L 159.634286 41.472 
" clip-path="url(#p07fa9aa4e3)" style="fill: none; stroke: #cccccc; stroke-width: 0.8; stroke-linecap: round"/>
     </g>
     <g id="line2d_6"/>
     <g id="text_3">
      <!-- 1.0 -->
      <g style="fill: #262626" transform="translate(152.684286 148.986875) scale(0.1 -0.1)">
       <defs>
        <path id="LiberationSans-31" d="M 488 0 
L 488 478 
L 1609 478 
L 1609 3866 
L 616 3156 
L 616 3688 
L 1656 4403 
L 2175 4403 
L 2175 478 
L 3247 478 
L 3247 0 
L 488 0 
z
" transform="scale(0.015625)"/>
       </defs>
       <use xlink:href="#LiberationSans-31"/>
       <use xlink:href="#LiberationSans-2e" x="55.615234"/>
       <use xlink:href="#LiberationSans-30" x="83.398438"/>
      </g>
     </g>
    </g>
   </g>
   <g id="matplotlib.axis_2">
    <g id="ytick_1">
     <g id="line2d_7">
      <path d="M 57.6 138.24 
L 159.634286 138.24 
" clip-path="url(#p07fa9aa4e3)" style="fill: none; stroke: #cccccc; stroke-width: 0.8; stroke-linecap: round"/>
     </g>
     <g id="line2d_8"/>
     <g id="text_4">
      <!-- 0.00 -->
      <g style="fill: #262626" transform="translate(34.639063 141.863437) scale(0.1 -0.1)">
       <use xlink:href="#LiberationSans-30"/>
       <use xlink:href="#LiberationSans-2e" x="55.615234"/>
       <use xlink:href="#LiberationSans-30" x="83.398438"/>
       <use xlink:href="#LiberationSans-30" x="139.013672"/>
      </g>
     </g>
    </g>
    <g id="ytick_2">
     <g id="line2d_9">
      <path d="M 57.6 114.048 
L 159.634286 114.048 
" clip-path="url(#p07fa9aa4e3)" style="fill: none; stroke: #cccccc; stroke-width: 0.8; stroke-linecap: round"/>
     </g>
     <g id="line2d_10"/>
     <g id="text_5">
      <!-- 0.25 -->
      <g style="fill: #262626" transform="translate(34.639063 117.671437) scale(0.1 -0.1)">
       <defs>
        <path id="LiberationSans-32" d="M 322 0 
L 322 397 
Q 481 763 711 1042 
Q 941 1322 1194 1548 
Q 1447 1775 1695 1969 
Q 1944 2163 2144 2356 
Q 2344 2550 2467 2762 
Q 2591 2975 2591 3244 
Q 2591 3606 2378 3806 
Q 2166 4006 1788 4006 
Q 1428 4006 1195 3811 
Q 963 3616 922 3263 
L 347 3316 
Q 409 3844 795 4156 
Q 1181 4469 1788 4469 
Q 2453 4469 2811 4155 
Q 3169 3841 3169 3263 
Q 3169 3006 3051 2753 
Q 2934 2500 2703 2247 
Q 2472 1994 1819 1463 
Q 1459 1169 1246 933 
Q 1034 697 941 478 
L 3238 478 
L 3238 0 
L 322 0 
z
" transform="scale(0.015625)"/>
       </defs>
       <use xlink:href="#LiberationSans-30"/>
       <use xlink:href="#LiberationSans-2e" x="55.615234"/>
       <use xlink:href="#LiberationSans-32" x="83.398438"/>
       <use xlink:href="#LiberationSans-35" x="139.013672"/>
      </g>
     </g>
    </g>
    <g id="ytick_3">
     <g id="line2d_11">
      <path d="M 57.6 89.856 
L 159.634286 89.856 
" clip-path="url(#p07fa9aa4e3)" style="fill: none; stroke: #cccccc; stroke-width: 0.8; stroke-linecap: round"/>
     </g>
     <g id="line2d_12"/>
     <g id="text_6">
      <!-- 0.50 -->
      <g style="fill: #262626" transform="translate(34.639063 93.479437) scale(0.1 -0.1)">
       <use xlink:href="#LiberationSans-30"/>
       <use xlink:href="#LiberationSans-2e" x="55.615234"/>
       <use xlink:href="#LiberationSans-35" x="83.398438"/>
       <use xlink:href="#LiberationSans-30" x="139.013672"/>
      </g>
     </g>
    </g>
    <g id="ytick_4">
     <g id="line2d_13">
      <path d="M 57.6 65.664 
L 159.634286 65.664 
" clip-path="url(#p07fa9aa4e3)" style="fill: none; stroke: #cccccc; stroke-width: 0.8; stroke-linecap: round"/>
     </g>
     <g id="line2d_14"/>
     <g id="text_7">
      <!-- 0.75 -->
      <g style="fill: #262626" transform="translate(34.639063 69.287438) scale(0.1 -0.1)">
       <defs>
        <path id="LiberationSans-37" d="M 3238 3947 
Q 2563 2916 2284 2331 
Q 2006 1747 1867 1178 
Q 1728 609 1728 0 
L 1141 0 
Q 1141 844 1498 1776 
Q 1856 2709 2694 3925 
L 328 3925 
L 328 4403 
L 3238 4403 
L 3238 3947 
z
" transform="scale(0.015625)"/>
       </defs>
       <use xlink:href="#LiberationSans-30"/>
       <use xlink:href="#LiberationSans-2e" x="55.615234"/>
       <use xlink:href="#LiberationSans-37" x="83.398438"/>
       <use xlink:href="#LiberationSans-35" x="139.013672"/>
      </g>
     </g>
    </g>
    <g id="ytick_5">
     <g id="line2d_15">
      <path d="M 57.6 41.472 
L 159.634286 41.472 
" clip-path="url(#p07fa9aa4e3)" style="fill: none; stroke: #cccccc; stroke-width: 0.8; stroke-linecap: round"/>
     </g>
     <g id="line2d_16"/>
     <g id="text_8">
      <!-- 1.00 -->
      <g style="fill: #262626" transform="translate(34.639063 45.095438) scale(0.1 -0.1)">
       <use xlink:href="#LiberationSans-31"/>
       <use xlink:href="#LiberationSans-2e" x="55.615234"/>
       <use xlink:href="#LiberationSans-30" x="83.398438"/>
       <use xlink:href="#LiberationSans-30" x="139.013672"/>
      </g>
     </g>
    </g>
   </g>
   <g id="patch_3">
    <path d="M 57.6 138.24 
L 57.6 41.472 
" style="fill: none; stroke: #cccccc; stroke-linejoin: miter; stroke-linecap: square"/>
   </g>
   <g id="patch_4">
    <path d="M 159.634286 138.24 
L 159.634286 41.472 
" style="fill: none; stroke: #cccccc; stroke-linejoin: miter; stroke-linecap: square"/>
   </g>
   <g id="patch_5">
    <path d="M 57.6 138.24 
L 159.634286 138.24 
" style="fill: none; stroke: #cccccc; stroke-linejoin: miter; stroke-linecap: square"/>
   </g>
   <g id="patch_6">
    <path d="M 57.6 41.472 
L 159.634286 41.472 
" style="fill: none; stroke: #cccccc; stroke-linejoin: miter; stroke-linecap: square"/>
   </g>
   <g id="text_9">
    <!-- (2, 3, 1) -->
    <g style="fill: #262626" transform="translate(77.607924 89.856) scale(0.18 -0.18)">
     <defs>
      <path id="LiberationSans-28" d="M 397 1663 
Q 397 2566 680 3284 
Q 963 4003 1550 4638 
L 2094 4638 
Q 1509 3988 1236 3256 
Q 963 2525 963 1656 
Q 963 791 1233 62 
Q 1503 -666 2094 -1325 
L 1550 -1325 
Q 959 -688 678 32 
Q 397 753 397 1650 
L 397 1663 
z
" transform="scale(0.015625)"/>
      <path id="LiberationSans-2c" d="M 1203 684 
L 1203 159 
Q 1203 -172 1143 -394 
Q 1084 -616 959 -819 
L 575 -819 
Q 869 -394 869 0 
L 594 0 
L 594 684 
L 1203 684 
z
" transform="scale(0.015625)"/>
      <path id="LiberationSans-20" transform="scale(0.015625)"/>
      <path id="LiberationSans-33" d="M 3278 1216 
Q 3278 606 2890 271 
Q 2503 -63 1784 -63 
Q 1116 -63 717 239 
Q 319 541 244 1131 
L 825 1184 
Q 938 403 1784 403 
Q 2209 403 2451 612 
Q 2694 822 2694 1234 
Q 2694 1594 2417 1795 
Q 2141 1997 1619 1997 
L 1300 1997 
L 1300 2484 
L 1606 2484 
Q 2069 2484 2323 2686 
Q 2578 2888 2578 3244 
Q 2578 3597 2370 3801 
Q 2163 4006 1753 4006 
Q 1381 4006 1151 3815 
Q 922 3625 884 3278 
L 319 3322 
Q 381 3863 767 4166 
Q 1153 4469 1759 4469 
Q 2422 4469 2789 4161 
Q 3156 3853 3156 3303 
Q 3156 2881 2920 2617 
Q 2684 2353 2234 2259 
L 2234 2247 
Q 2728 2194 3003 1916 
Q 3278 1638 3278 1216 
z
" transform="scale(0.015625)"/>
      <path id="LiberationSans-29" d="M 1734 1650 
Q 1734 747 1451 28 
Q 1169 -691 581 -1325 
L 38 -1325 
Q 625 -669 897 57 
Q 1169 784 1169 1656 
Q 1169 2528 895 3256 
Q 622 3984 38 4638 
L 581 4638 
Q 1172 4000 1453 3279 
Q 1734 2559 1734 1663 
L 1734 1650 
z
" transform="scale(0.015625)"/>
     </defs>
     <use xlink:href="#LiberationSans-28"/>
     <use xlink:href="#LiberationSans-32" x="33.300781"/>
     <use xlink:href="#LiberationSans-2c" x="88.916016"/>
     <use xlink:href="#LiberationSans-20" x="116.699219"/>
     <use xlink:href="#LiberationSans-33" x="144.482422"/>
     <use xlink:href="#LiberationSans-2c" x="200.097656"/>
     <use xlink:href="#LiberationSans-20" x="227.880859"/>
     <use xlink:href="#LiberationSans-31" x="255.664062"/>
     <use xlink:href="#LiberationSans-29" x="311.279297"/>
    </g>
   </g>
  </g>
  <g id="axes_2">
   <g id="patch_7">
    <path d="M 185.142857 138.24 
L 287.177143 138.24 
L 287.177143 41.472 
L 185.142857 41.472 
z
" style="fill: #ffffff"/>
   </g>
   <g id="matplotlib.axis_3">
    <g id="xtick_4">
     <g id="line2d_17">
      <path d="M 185.142857 138.24 
L 185.142857 41.472 
" clip-path="url(#pebf3c2a3bd)" style="fill: none; stroke: #cccccc; stroke-width: 0.8; stroke-linecap: round"/>
     </g>
     <g id="line2d_18"/>
     <g id="text_10">
      <!-- 0.0 -->
      <g style="fill: #262626" transform="translate(178.192857 148.986875) scale(0.1 -0.1)">
       <use xlink:href="#LiberationSans-30"/>
       <use xlink:href="#LiberationSans-2e" x="55.615234"/>
       <use xlink:href="#LiberationSans-30" x="83.398438"/>
      </g>
     </g>
    </g>
    <g id="xtick_5">
     <g id="line2d_19">
      <path d="M 236.16 138.24 
L 236.16 41.472 
" clip-path="url(#pebf3c2a3bd)" style="fill: none; stroke: #cccccc; stroke-width: 0.8; stroke-linecap: round"/>
     </g>
     <g id="line2d_20"/>
     <g id="text_11">
      <!-- 0.5 -->
      <g style="fill: #262626" transform="translate(229.21 148.986875) scale(0.1 -0.1)">
       <use xlink:href="#LiberationSans-30"/>
       <use xlink:href="#LiberationSans-2e" x="55.615234"/>
       <use xlink:href="#LiberationSans-35" x="83.398438"/>
      </g>
     </g>
    </g>
    <g id="xtick_6">
     <g id="line2d_21">
      <path d="M 287.177143 138.24 
L 287.177143 41.472 
" clip-path="url(#pebf3c2a3bd)" style="fill: none; stroke: #cccccc; stroke-width: 0.8; stroke-linecap: round"/>
     </g>
     <g id="line2d_22"/>
     <g id="text_12">
      <!-- 1.0 -->
      <g style="fill: #262626" transform="translate(280.227143 148.986875) scale(0.1 -0.1)">
       <use xlink:href="#LiberationSans-31"/>
       <use xlink:href="#LiberationSans-2e" x="55.615234"/>
       <use xlink:href="#LiberationSans-30" x="83.398438"/>
      </g>
     </g>
    </g>
   </g>
   <g id="matplotlib.axis_4">
    <g id="ytick_6">
     <g id="line2d_23">
      <path d="M 185.142857 138.24 
L 287.177143 138.24 
" clip-path="url(#pebf3c2a3bd)" style="fill: none; stroke: #cccccc; stroke-width: 0.8; stroke-linecap: round"/>
     </g>
     <g id="line2d_24"/>
     <g id="text_13">
      <!-- 0.00 -->
      <g style="fill: #262626" transform="translate(162.18192 141.863437) scale(0.1 -0.1)">
       <use xlink:href="#LiberationSans-30"/>
       <use xlink:href="#LiberationSans-2e" x="55.615234"/>
       <use xlink:href="#LiberationSans-30" x="83.398438"/>
       <use xlink:href="#LiberationSans-30" x="139.013672"/>
      </g>
     </g>
    </g>
    <g id="ytick_7">
     <g id="line2d_25">
      <path d="M 185.142857 114.048 
L 287.177143 114.048 
" clip-path="url(#pebf3c2a3bd)" style="fill: none; stroke: #cccccc; stroke-width: 0.8; stroke-linecap: round"/>
     </g>
     <g id="line2d_26"/>
     <g id="text_14">
      <!-- 0.25 -->
      <g style="fill: #262626" transform="translate(162.18192 117.671437) scale(0.1 -0.1)">
       <use xlink:href="#LiberationSans-30"/>
       <use xlink:href="#LiberationSans-2e" x="55.615234"/>
       <use xlink:href="#LiberationSans-32" x="83.398438"/>
       <use xlink:href="#LiberationSans-35" x="139.013672"/>
      </g>
     </g>
    </g>
    <g id="ytick_8">
     <g id="line2d_27">
      <path d="M 185.142857 89.856 
L 287.177143 89.856 
" clip-path="url(#pebf3c2a3bd)" style="fill: none; stroke: #cccccc; stroke-width: 0.8; stroke-linecap: round"/>
     </g>
     <g id="line2d_28"/>
     <g id="text_15">
      <!-- 0.50 -->
      <g style="fill: #262626" transform="translate(162.18192 93.479437) scale(0.1 -0.1)">
       <use xlink:href="#LiberationSans-30"/>
       <use xlink:href="#LiberationSans-2e" x="55.615234"/>
       <use xlink:href="#LiberationSans-35" x="83.398438"/>
       <use xlink:href="#LiberationSans-30" x="139.013672"/>
      </g>
     </g>
    </g>
    <g id="ytick_9">
     <g id="line2d_29">
      <path d="M 185.142857 65.664 
L 287.177143 65.664 
" clip-path="url(#pebf3c2a3bd)" style="fill: none; stroke: #cccccc; stroke-width: 0.8; stroke-linecap: round"/>
     </g>
     <g id="line2d_30"/>
     <g id="text_16">
      <!-- 0.75 -->
      <g style="fill: #262626" transform="translate(162.18192 69.287438) scale(0.1 -0.1)">
       <use xlink:href="#LiberationSans-30"/>
       <use xlink:href="#LiberationSans-2e" x="55.615234"/>
       <use xlink:href="#LiberationSans-37" x="83.398438"/>
       <use xlink:href="#LiberationSans-35" x="139.013672"/>
      </g>
     </g>
    </g>
    <g id="ytick_10">
     <g id="line2d_31">
      <path d="M 185.142857 41.472 
L 287.177143 41.472 
" clip-path="url(#pebf3c2a3bd)" style="fill: none; stroke: #cccccc; stroke-width: 0.8; stroke-linecap: round"/>
     </g>
     <g id="line2d_32"/>
     <g id="text_17">
      <!-- 1.00 -->
      <g style="fill: #262626" transform="translate(162.18192 45.095438) scale(0.1 -0.1)">
       <use xlink:href="#LiberationSans-31"/>
       <use xlink:href="#LiberationSans-2e" x="55.615234"/>
       <use xlink:href="#LiberationSans-30" x="83.398438"/>
       <use xlink:href="#LiberationSans-30" x="139.013672"/>
      </g>
     </g>
    </g>
   </g>
   <g id="patch_8">
    <path d="M 185.142857 138.24 
L 185.142857 41.472 
" style="fill: none; stroke: #cccccc; stroke-linejoin: miter; stroke-linecap: square"/>
   </g>
   <g id="patch_9">
    <path d="M 287.177143 138.24 
L 287.177143 41.472 
" style="fill: none; stroke: #cccccc; stroke-linejoin: miter; stroke-linecap: square"/>
   </g>
   <g id="patch_10">
    <path d="M 185.142857 138.24 
L 287.177143 138.24 
" style="fill: none; stroke: #cccccc; stroke-linejoin: miter; stroke-linecap: square"/>
   </g>
   <g id="patch_11">
    <path d="M 185.142857 41.472 
L 287.177143 41.472 
" style="fill: none; stroke: #cccccc; stroke-linejoin: miter; stroke-linecap: square"/>
   </g>
   <g id="text_18">
    <!-- (2, 3, 2) -->
    <g style="fill: #262626" transform="translate(205.150781 89.856) scale(0.18 -0.18)">
     <use xlink:href="#LiberationSans-28"/>
     <use xlink:href="#LiberationSans-32" x="33.300781"/>
     <use xlink:href="#LiberationSans-2c" x="88.916016"/>
     <use xlink:href="#LiberationSans-20" x="116.699219"/>
     <use xlink:href="#LiberationSans-33" x="144.482422"/>
     <use xlink:href="#LiberationSans-2c" x="200.097656"/>
     <use xlink:href="#LiberationSans-20" x="227.880859"/>
     <use xlink:href="#LiberationSans-32" x="255.664062"/>
     <use xlink:href="#LiberationSans-29" x="311.279297"/>
    </g>
   </g>
  </g>
  <g id="axes_3">
   <g id="patch_12">
    <path d="M 312.685714 138.24 
L 414.72 138.24 
L 414.72 41.472 
L 312.685714 41.472 
z
" style="fill: #ffffff"/>
   </g>
   <g id="matplotlib.axis_5">
    <g id="xtick_7">
     <g id="line2d_33">
      <path d="M 312.685714 138.24 
L 312.685714 41.472 
" clip-path="url(#p24e682a00d)" style="fill: none; stroke: #cccccc; stroke-width: 0.8; stroke-linecap: round"/>
     </g>
     <g id="line2d_34"/>
     <g id="text_19">
      <!-- 0.0 -->
      <g style="fill: #262626" transform="translate(305.735714 148.986875) scale(0.1 -0.1)">
       <use xlink:href="#LiberationSans-30"/>
       <use xlink:href="#LiberationSans-2e" x="55.615234"/>
       <use xlink:href="#LiberationSans-30" x="83.398438"/>
      </g>
     </g>
    </g>
    <g id="xtick_8">
     <g id="line2d_35">
      <path d="M 363.702857 138.24 
L 363.702857 41.472 
" clip-path="url(#p24e682a00d)" style="fill: none; stroke: #cccccc; stroke-width: 0.8; stroke-linecap: round"/>
     </g>
     <g id="line2d_36"/>
     <g id="text_20">
      <!-- 0.5 -->
      <g style="fill: #262626" transform="translate(356.752857 148.986875) scale(0.1 -0.1)">
       <use xlink:href="#LiberationSans-30"/>
       <use xlink:href="#LiberationSans-2e" x="55.615234"/>
       <use xlink:href="#LiberationSans-35" x="83.398438"/>
      </g>
     </g>
    </g>
    <g id="xtick_9">
     <g id="line2d_37">
      <path d="M 414.72 138.24 
L 414.72 41.472 
" clip-path="url(#p24e682a00d)" style="fill: none; stroke: #cccccc; stroke-width: 0.8; stroke-linecap: round"/>
     </g>
     <g id="line2d_38"/>
     <g id="text_21">
      <!-- 1.0 -->
      <g style="fill: #262626" transform="translate(407.77 148.986875) scale(0.1 -0.1)">
       <use xlink:href="#LiberationSans-31"/>
       <use xlink:href="#LiberationSans-2e" x="55.615234"/>
       <use xlink:href="#LiberationSans-30" x="83.398438"/>
      </g>
     </g>
    </g>
   </g>
   <g id="matplotlib.axis_6">
    <g id="ytick_11">
     <g id="line2d_39">
      <path d="M 312.685714 138.24 
L 414.72 138.24 
" clip-path="url(#p24e682a00d)" style="fill: none; stroke: #cccccc; stroke-width: 0.8; stroke-linecap: round"/>
     </g>
     <g id="line2d_40"/>
     <g id="text_22">
      <!-- 0.00 -->
      <g style="fill: #262626" transform="translate(289.724777 141.863437) scale(0.1 -0.1)">
       <use xlink:href="#LiberationSans-30"/>
       <use xlink:href="#LiberationSans-2e" x="55.615234"/>
       <use xlink:href="#LiberationSans-30" x="83.398438"/>
       <use xlink:href="#LiberationSans-30" x="139.013672"/>
      </g>
     </g>
    </g>
    <g id="ytick_12">
     <g id="line2d_41">
      <path d="M 312.685714 114.048 
L 414.72 114.048 
" clip-path="url(#p24e682a00d)" style="fill: none; stroke: #cccccc; stroke-width: 0.8; stroke-linecap: round"/>
     </g>
     <g id="line2d_42"/>
     <g id="text_23">
      <!-- 0.25 -->
      <g style="fill: #262626" transform="translate(289.724777 117.671437) scale(0.1 -0.1)">
       <use xlink:href="#LiberationSans-30"/>
       <use xlink:href="#LiberationSans-2e" x="55.615234"/>
       <use xlink:href="#LiberationSans-32" x="83.398438"/>
       <use xlink:href="#LiberationSans-35" x="139.013672"/>
      </g>
     </g>
    </g>
    <g id="ytick_13">
     <g id="line2d_43">
      <path d="M 312.685714 89.856 
L 414.72 89.856 
" clip-path="url(#p24e682a00d)" style="fill: none; stroke: #cccccc; stroke-width: 0.8; stroke-linecap: round"/>
     </g>
     <g id="line2d_44"/>
     <g id="text_24">
      <!-- 0.50 -->
      <g style="fill: #262626" transform="translate(289.724777 93.479437) scale(0.1 -0.1)">
       <use xlink:href="#LiberationSans-30"/>
       <use xlink:href="#LiberationSans-2e" x="55.615234"/>
       <use xlink:href="#LiberationSans-35" x="83.398438"/>
       <use xlink:href="#LiberationSans-30" x="139.013672"/>
      </g>
     </g>
    </g>
    <g id="ytick_14">
     <g id="line2d_45">
      <path d="M 312.685714 65.664 
L 414.72 65.664 
" clip-path="url(#p24e682a00d)" style="fill: none; stroke: #cccccc; stroke-width: 0.8; stroke-linecap: round"/>
     </g>
     <g id="line2d_46"/>
     <g id="text_25">
      <!-- 0.75 -->
      <g style="fill: #262626" transform="translate(289.724777 69.287438) scale(0.1 -0.1)">
       <use xlink:href="#LiberationSans-30"/>
       <use xlink:href="#LiberationSans-2e" x="55.615234"/>
       <use xlink:href="#LiberationSans-37" x="83.398438"/>
       <use xlink:href="#LiberationSans-35" x="139.013672"/>
      </g>
     </g>
    </g>
    <g id="ytick_15">
     <g id="line2d_47">
      <path d="M 312.685714 41.472 
L 414.72 41.472 
" clip-path="url(#p24e682a00d)" style="fill: none; stroke: #cccccc; stroke-width: 0.8; stroke-linecap: round"/>
     </g>
     <g id="line2d_48"/>
     <g id="text_26">
      <!-- 1.00 -->
      <g style="fill: #262626" transform="translate(289.724777 45.095438) scale(0.1 -0.1)">
       <use xlink:href="#LiberationSans-31"/>
       <use xlink:href="#LiberationSans-2e" x="55.615234"/>
       <use xlink:href="#LiberationSans-30" x="83.398438"/>
       <use xlink:href="#LiberationSans-30" x="139.013672"/>
      </g>
     </g>
    </g>
   </g>
   <g id="patch_13">
    <path d="M 312.685714 138.24 
L 312.685714 41.472 
" style="fill: none; stroke: #cccccc; stroke-linejoin: miter; stroke-linecap: square"/>
   </g>
   <g id="patch_14">
    <path d="M 414.72 138.24 
L 414.72 41.472 
" style="fill: none; stroke: #cccccc; stroke-linejoin: miter; stroke-linecap: square"/>
   </g>
   <g id="patch_15">
    <path d="M 312.685714 138.24 
L 414.72 138.24 
" style="fill: none; stroke: #cccccc; stroke-linejoin: miter; stroke-linecap: square"/>
   </g>
   <g id="patch_16">
    <path d="M 312.685714 41.472 
L 414.72 41.472 
" style="fill: none; stroke: #cccccc; stroke-linejoin: miter; stroke-linecap: square"/>
   </g>
   <g id="text_27">
    <!-- (2, 3, 3) -->
    <g style="fill: #262626" transform="translate(332.693638 89.856) scale(0.18 -0.18)">
     <use xlink:href="#LiberationSans-28"/>
     <use xlink:href="#LiberationSans-32" x="33.300781"/>
     <use xlink:href="#LiberationSans-2c" x="88.916016"/>
     <use xlink:href="#LiberationSans-20" x="116.699219"/>
     <use xlink:href="#LiberationSans-33" x="144.482422"/>
     <use xlink:href="#LiberationSans-2c" x="200.097656"/>
     <use xlink:href="#LiberationSans-20" x="227.880859"/>
     <use xlink:href="#LiberationSans-33" x="255.664062"/>
     <use xlink:href="#LiberationSans-29" x="311.279297"/>
    </g>
   </g>
  </g>
  <g id="axes_4">
   <g id="patch_17">
    <path d="M 57.6 307.584 
L 159.634286 307.584 
L 159.634286 210.816 
L 57.6 210.816 
z
" style="fill: #ffffff"/>
   </g>
   <g id="matplotlib.axis_7">
    <g id="xtick_10">
     <g id="line2d_49">
      <path d="M 57.6 307.584 
L 57.6 210.816 
" clip-path="url(#p65373700fe)" style="fill: none; stroke: #cccccc; stroke-width: 0.8; stroke-linecap: round"/>
     </g>
     <g id="line2d_50"/>
     <g id="text_28">
      <!-- 0.0 -->
      <g style="fill: #262626" transform="translate(50.65 318.330875) scale(0.1 -0.1)">
       <use xlink:href="#LiberationSans-30"/>
       <use xlink:href="#LiberationSans-2e" x="55.615234"/>
       <use xlink:href="#LiberationSans-30" x="83.398438"/>
      </g>
     </g>
    </g>
    <g id="xtick_11">
     <g id="line2d_51">
      <path d="M 108.617143 307.584 
L 108.617143 210.816 
" clip-path="url(#p65373700fe)" style="fill: none; stroke: #cccccc; stroke-width: 0.8; stroke-linecap: round"/>
     </g>
     <g id="line2d_52"/>
     <g id="text_29">
      <!-- 0.5 -->
      <g style="fill: #262626" transform="translate(101.667143 318.330875) scale(0.1 -0.1)">
       <use xlink:href="#LiberationSans-30"/>
       <use xlink:href="#LiberationSans-2e" x="55.615234"/>
       <use xlink:href="#LiberationSans-35" x="83.398438"/>
      </g>
     </g>
    </g>
    <g id="xtick_12">
     <g id="line2d_53">
      <path d="M 159.634286 307.584 
L 159.634286 210.816 
" clip-path="url(#p65373700fe)" style="fill: none; stroke: #cccccc; stroke-width: 0.8; stroke-linecap: round"/>
     </g>
     <g id="line2d_54"/>
     <g id="text_30">
      <!-- 1.0 -->
      <g style="fill: #262626" transform="translate(152.684286 318.330875) scale(0.1 -0.1)">
       <use xlink:href="#LiberationSans-31"/>
       <use xlink:href="#LiberationSans-2e" x="55.615234"/>
       <use xlink:href="#LiberationSans-30" x="83.398438"/>
      </g>
     </g>
    </g>
   </g>
   <g id="matplotlib.axis_8">
    <g id="ytick_16">
     <g id="line2d_55">
      <path d="M 57.6 307.584 
L 159.634286 307.584 
" clip-path="url(#p65373700fe)" style="fill: none; stroke: #cccccc; stroke-width: 0.8; stroke-linecap: round"/>
     </g>
     <g id="line2d_56"/>
     <g id="text_31">
      <!-- 0.00 -->
      <g style="fill: #262626" transform="translate(34.639063 311.207437) scale(0.1 -0.1)">
       <use xlink:href="#LiberationSans-30"/>
       <use xlink:href="#LiberationSans-2e" x="55.615234"/>
       <use xlink:href="#LiberationSans-30" x="83.398438"/>
       <use xlink:href="#LiberationSans-30" x="139.013672"/>
      </g>
     </g>
    </g>
    <g id="ytick_17">
     <g id="line2d_57">
      <path d="M 57.6 283.392 
L 159.634286 283.392 
" clip-path="url(#p65373700fe)" style="fill: none; stroke: #cccccc; stroke-width: 0.8; stroke-linecap: round"/>
     </g>
     <g id="line2d_58"/>
     <g id="text_32">
      <!-- 0.25 -->
      <g style="fill: #262626" transform="translate(34.639063 287.015437) scale(0.1 -0.1)">
       <use xlink:href="#LiberationSans-30"/>
       <use xlink:href="#LiberationSans-2e" x="55.615234"/>
       <use xlink:href="#LiberationSans-32" x="83.398438"/>
       <use xlink:href="#LiberationSans-35" x="139.013672"/>
      </g>
     </g>
    </g>
    <g id="ytick_18">
     <g id="line2d_59">
      <path d="M 57.6 259.2 
L 159.634286 259.2 
" clip-path="url(#p65373700fe)" style="fill: none; stroke: #cccccc; stroke-width: 0.8; stroke-linecap: round"/>
     </g>
     <g id="line2d_60"/>
     <g id="text_33">
      <!-- 0.50 -->
      <g style="fill: #262626" transform="translate(34.639063 262.823437) scale(0.1 -0.1)">
       <use xlink:href="#LiberationSans-30"/>
       <use xlink:href="#LiberationSans-2e" x="55.615234"/>
       <use xlink:href="#LiberationSans-35" x="83.398438"/>
       <use xlink:href="#LiberationSans-30" x="139.013672"/>
      </g>
     </g>
    </g>
    <g id="ytick_19">
     <g id="line2d_61">
      <path d="M 57.6 235.008 
L 159.634286 235.008 
" clip-path="url(#p65373700fe)" style="fill: none; stroke: #cccccc; stroke-width: 0.8; stroke-linecap: round"/>
     </g>
     <g id="line2d_62"/>
     <g id="text_34">
      <!-- 0.75 -->
      <g style="fill: #262626" transform="translate(34.639063 238.631438) scale(0.1 -0.1)">
       <use xlink:href="#LiberationSans-30"/>
       <use xlink:href="#LiberationSans-2e" x="55.615234"/>
       <use xlink:href="#LiberationSans-37" x="83.398438"/>
       <use xlink:href="#LiberationSans-35" x="139.013672"/>
      </g>
     </g>
    </g>
    <g id="ytick_20">
     <g id="line2d_63">
      <path d="M 57.6 210.816 
L 159.634286 210.816 
" clip-path="url(#p65373700fe)" style="fill: none; stroke: #cccccc; stroke-width: 0.8; stroke-linecap: round"/>
     </g>
     <g id="line2d_64"/>
     <g id="text_35">
      <!-- 1.00 -->
      <g style="fill: #262626" transform="translate(34.639063 214.439437) scale(0.1 -0.1)">
       <use xlink:href="#LiberationSans-31"/>
       <use xlink:href="#LiberationSans-2e" x="55.615234"/>
       <use xlink:href="#LiberationSans-30" x="83.398438"/>
       <use xlink:href="#LiberationSans-30" x="139.013672"/>
      </g>
     </g>
    </g>
   </g>
   <g id="patch_18">
    <path d="M 57.6 307.584 
L 57.6 210.816 
" style="fill: none; stroke: #cccccc; stroke-linejoin: miter; stroke-linecap: square"/>
   </g>
   <g id="patch_19">
    <path d="M 159.634286 307.584 
L 159.634286 210.816 
" style="fill: none; stroke: #cccccc; stroke-linejoin: miter; stroke-linecap: square"/>
   </g>
   <g id="patch_20">
    <path d="M 57.6 307.584 
L 159.634286 307.584 
" style="fill: none; stroke: #cccccc; stroke-linejoin: miter; stroke-linecap: square"/>
   </g>
   <g id="patch_21">
    <path d="M 57.6 210.816 
L 159.634286 210.816 
" style="fill: none; stroke: #cccccc; stroke-linejoin: miter; stroke-linecap: square"/>
   </g>
   <g id="text_36">
    <!-- (2, 3, 4) -->
    <g style="fill: #262626" transform="translate(77.607924 259.2) scale(0.18 -0.18)">
     <defs>
      <path id="LiberationSans-34" d="M 2753 997 
L 2753 0 
L 2222 0 
L 2222 997 
L 147 997 
L 147 1434 
L 2163 4403 
L 2753 4403 
L 2753 1441 
L 3372 1441 
L 3372 997 
L 2753 997 
z
M 2222 3769 
Q 2216 3750 2134 3603 
Q 2053 3456 2013 3397 
L 884 1734 
L 716 1503 
L 666 1441 
L 2222 1441 
L 2222 3769 
z
" transform="scale(0.015625)"/>
     </defs>
     <use xlink:href="#LiberationSans-28"/>
     <use xlink:href="#LiberationSans-32" x="33.300781"/>
     <use xlink:href="#LiberationSans-2c" x="88.916016"/>
     <use xlink:href="#LiberationSans-20" x="116.699219"/>
     <use xlink:href="#LiberationSans-33" x="144.482422"/>
     <use xlink:href="#LiberationSans-2c" x="200.097656"/>
     <use xlink:href="#LiberationSans-20" x="227.880859"/>
     <use xlink:href="#LiberationSans-34" x="255.664062"/>
     <use xlink:href="#LiberationSans-29" x="311.279297"/>
    </g>
   </g>
  </g>
  <g id="axes_5">
   <g id="patch_22">
    <path d="M 185.142857 307.584 
L 287.177143 307.584 
L 287.177143 210.816 
L 185.142857 210.816 
z
" style="fill: #ffffff"/>
   </g>
   <g id="matplotlib.axis_9">
    <g id="xtick_13">
     <g id="line2d_65">
      <path d="M 185.142857 307.584 
L 185.142857 210.816 
" clip-path="url(#pf05e4ad769)" style="fill: none; stroke: #cccccc; stroke-width: 0.8; stroke-linecap: round"/>
     </g>
     <g id="line2d_66"/>
     <g id="text_37">
      <!-- 0.0 -->
      <g style="fill: #262626" transform="translate(178.192857 318.330875) scale(0.1 -0.1)">
       <use xlink:href="#LiberationSans-30"/>
       <use xlink:href="#LiberationSans-2e" x="55.615234"/>
       <use xlink:href="#LiberationSans-30" x="83.398438"/>
      </g>
     </g>
    </g>
    <g id="xtick_14">
     <g id="line2d_67">
      <path d="M 236.16 307.584 
L 236.16 210.816 
" clip-path="url(#pf05e4ad769)" style="fill: none; stroke: #cccccc; stroke-width: 0.8; stroke-linecap: round"/>
     </g>
     <g id="line2d_68"/>
     <g id="text_38">
      <!-- 0.5 -->
      <g style="fill: #262626" transform="translate(229.21 318.330875) scale(0.1 -0.1)">
       <use xlink:href="#LiberationSans-30"/>
       <use xlink:href="#LiberationSans-2e" x="55.615234"/>
       <use xlink:href="#LiberationSans-35" x="83.398438"/>
      </g>
     </g>
    </g>
    <g id="xtick_15">
     <g id="line2d_69">
      <path d="M 287.177143 307.584 
L 287.177143 210.816 
" clip-path="url(#pf05e4ad769)" style="fill: none; stroke: #cccccc; stroke-width: 0.8; stroke-linecap: round"/>
     </g>
     <g id="line2d_70"/>
     <g id="text_39">
      <!-- 1.0 -->
      <g style="fill: #262626" transform="translate(280.227143 318.330875) scale(0.1 -0.1)">
       <use xlink:href="#LiberationSans-31"/>
       <use xlink:href="#LiberationSans-2e" x="55.615234"/>
       <use xlink:href="#LiberationSans-30" x="83.398438"/>
      </g>
     </g>
    </g>
   </g>
   <g id="matplotlib.axis_10">
    <g id="ytick_21">
     <g id="line2d_71">
      <path d="M 185.142857 307.584 
L 287.177143 307.584 
" clip-path="url(#pf05e4ad769)" style="fill: none; stroke: #cccccc; stroke-width: 0.8; stroke-linecap: round"/>
     </g>
     <g id="line2d_72"/>
     <g id="text_40">
      <!-- 0.00 -->
      <g style="fill: #262626" transform="translate(162.18192 311.207437) scale(0.1 -0.1)">
       <use xlink:href="#LiberationSans-30"/>
       <use xlink:href="#LiberationSans-2e" x="55.615234"/>
       <use xlink:href="#LiberationSans-30" x="83.398438"/>
       <use xlink:href="#LiberationSans-30" x="139.013672"/>
      </g>
     </g>
    </g>
    <g id="ytick_22">
     <g id="line2d_73">
      <path d="M 185.142857 283.392 
L 287.177143 283.392 
" clip-path="url(#pf05e4ad769)" style="fill: none; stroke: #cccccc; stroke-width: 0.8; stroke-linecap: round"/>
     </g>
     <g id="line2d_74"/>
     <g id="text_41">
      <!-- 0.25 -->
      <g style="fill: #262626" transform="translate(162.18192 287.015437) scale(0.1 -0.1)">
       <use xlink:href="#LiberationSans-30"/>
       <use xlink:href="#LiberationSans-2e" x="55.615234"/>
       <use xlink:href="#LiberationSans-32" x="83.398438"/>
       <use xlink:href="#LiberationSans-35" x="139.013672"/>
      </g>
     </g>
    </g>
    <g id="ytick_23">
     <g id="line2d_75">
      <path d="M 185.142857 259.2 
L 287.177143 259.2 
" clip-path="url(#pf05e4ad769)" style="fill: none; stroke: #cccccc; stroke-width: 0.8; stroke-linecap: round"/>
     </g>
     <g id="line2d_76"/>
     <g id="text_42">
      <!-- 0.50 -->
      <g style="fill: #262626" transform="translate(162.18192 262.823437) scale(0.1 -0.1)">
       <use xlink:href="#LiberationSans-30"/>
       <use xlink:href="#LiberationSans-2e" x="55.615234"/>
       <use xlink:href="#LiberationSans-35" x="83.398438"/>
       <use xlink:href="#LiberationSans-30" x="139.013672"/>
      </g>
     </g>
    </g>
    <g id="ytick_24">
     <g id="line2d_77">
      <path d="M 185.142857 235.008 
L 287.177143 235.008 
" clip-path="url(#pf05e4ad769)" style="fill: none; stroke: #cccccc; stroke-width: 0.8; stroke-linecap: round"/>
     </g>
     <g id="line2d_78"/>
     <g id="text_43">
      <!-- 0.75 -->
      <g style="fill: #262626" transform="translate(162.18192 238.631438) scale(0.1 -0.1)">
       <use xlink:href="#LiberationSans-30"/>
       <use xlink:href="#LiberationSans-2e" x="55.615234"/>
       <use xlink:href="#LiberationSans-37" x="83.398438"/>
       <use xlink:href="#LiberationSans-35" x="139.013672"/>
      </g>
     </g>
    </g>
    <g id="ytick_25">
     <g id="line2d_79">
      <path d="M 185.142857 210.816 
L 287.177143 210.816 
" clip-path="url(#pf05e4ad769)" style="fill: none; stroke: #cccccc; stroke-width: 0.8; stroke-linecap: round"/>
     </g>
     <g id="line2d_80"/>
     <g id="text_44">
      <!-- 1.00 -->
      <g style="fill: #262626" transform="translate(162.18192 214.439437) scale(0.1 -0.1)">
       <use xlink:href="#LiberationSans-31"/>
       <use xlink:href="#LiberationSans-2e" x="55.615234"/>
       <use xlink:href="#LiberationSans-30" x="83.398438"/>
       <use xlink:href="#LiberationSans-30" x="139.013672"/>
      </g>
     </g>
    </g>
   </g>
   <g id="patch_23">
    <path d="M 185.142857 307.584 
L 185.142857 210.816 
" style="fill: none; stroke: #cccccc; stroke-linejoin: miter; stroke-linecap: square"/>
   </g>
   <g id="patch_24">
    <path d="M 287.177143 307.584 
L 287.177143 210.816 
" style="fill: none; stroke: #cccccc; stroke-linejoin: miter; stroke-linecap: square"/>
   </g>
   <g id="patch_25">
    <path d="M 185.142857 307.584 
L 287.177143 307.584 
" style="fill: none; stroke: #cccccc; stroke-linejoin: miter; stroke-linecap: square"/>
   </g>
   <g id="patch_26">
    <path d="M 185.142857 210.816 
L 287.177143 210.816 
" style="fill: none; stroke: #cccccc; stroke-linejoin: miter; stroke-linecap: square"/>
   </g>
   <g id="text_45">
    <!-- (2, 3, 5) -->
    <g style="fill: #262626" transform="translate(205.150781 259.2) scale(0.18 -0.18)">
     <use xlink:href="#LiberationSans-28"/>
     <use xlink:href="#LiberationSans-32" x="33.300781"/>
     <use xlink:href="#LiberationSans-2c" x="88.916016"/>
     <use xlink:href="#LiberationSans-20" x="116.699219"/>
     <use xlink:href="#LiberationSans-33" x="144.482422"/>
     <use xlink:href="#LiberationSans-2c" x="200.097656"/>
     <use xlink:href="#LiberationSans-20" x="227.880859"/>
     <use xlink:href="#LiberationSans-35" x="255.664062"/>
     <use xlink:href="#LiberationSans-29" x="311.279297"/>
    </g>
   </g>
  </g>
  <g id="axes_6">
   <g id="patch_27">
    <path d="M 312.685714 307.584 
L 414.72 307.584 
L 414.72 210.816 
L 312.685714 210.816 
z
" style="fill: #ffffff"/>
   </g>
   <g id="matplotlib.axis_11">
    <g id="xtick_16">
     <g id="line2d_81">
      <path d="M 312.685714 307.584 
L 312.685714 210.816 
" clip-path="url(#pbbe8524b72)" style="fill: none; stroke: #cccccc; stroke-width: 0.8; stroke-linecap: round"/>
     </g>
     <g id="line2d_82"/>
     <g id="text_46">
      <!-- 0.0 -->
      <g style="fill: #262626" transform="translate(305.735714 318.330875) scale(0.1 -0.1)">
       <use xlink:href="#LiberationSans-30"/>
       <use xlink:href="#LiberationSans-2e" x="55.615234"/>
       <use xlink:href="#LiberationSans-30" x="83.398438"/>
      </g>
     </g>
    </g>
    <g id="xtick_17">
     <g id="line2d_83">
      <path d="M 363.702857 307.584 
L 363.702857 210.816 
" clip-path="url(#pbbe8524b72)" style="fill: none; stroke: #cccccc; stroke-width: 0.8; stroke-linecap: round"/>
     </g>
     <g id="line2d_84"/>
     <g id="text_47">
      <!-- 0.5 -->
      <g style="fill: #262626" transform="translate(356.752857 318.330875) scale(0.1 -0.1)">
       <use xlink:href="#LiberationSans-30"/>
       <use xlink:href="#LiberationSans-2e" x="55.615234"/>
       <use xlink:href="#LiberationSans-35" x="83.398438"/>
      </g>
     </g>
    </g>
    <g id="xtick_18">
     <g id="line2d_85">
      <path d="M 414.72 307.584 
L 414.72 210.816 
" clip-path="url(#pbbe8524b72)" style="fill: none; stroke: #cccccc; stroke-width: 0.8; stroke-linecap: round"/>
     </g>
     <g id="line2d_86"/>
     <g id="text_48">
      <!-- 1.0 -->
      <g style="fill: #262626" transform="translate(407.77 318.330875) scale(0.1 -0.1)">
       <use xlink:href="#LiberationSans-31"/>
       <use xlink:href="#LiberationSans-2e" x="55.615234"/>
       <use xlink:href="#LiberationSans-30" x="83.398438"/>
      </g>
     </g>
    </g>
   </g>
   <g id="matplotlib.axis_12">
    <g id="ytick_26">
     <g id="line2d_87">
      <path d="M 312.685714 307.584 
L 414.72 307.584 
" clip-path="url(#pbbe8524b72)" style="fill: none; stroke: #cccccc; stroke-width: 0.8; stroke-linecap: round"/>
     </g>
     <g id="line2d_88"/>
     <g id="text_49">
      <!-- 0.00 -->
      <g style="fill: #262626" transform="translate(289.724777 311.207437) scale(0.1 -0.1)">
       <use xlink:href="#LiberationSans-30"/>
       <use xlink:href="#LiberationSans-2e" x="55.615234"/>
       <use xlink:href="#LiberationSans-30" x="83.398438"/>
       <use xlink:href="#LiberationSans-30" x="139.013672"/>
      </g>
     </g>
    </g>
    <g id="ytick_27">
     <g id="line2d_89">
      <path d="M 312.685714 283.392 
L 414.72 283.392 
" clip-path="url(#pbbe8524b72)" style="fill: none; stroke: #cccccc; stroke-width: 0.8; stroke-linecap: round"/>
     </g>
     <g id="line2d_90"/>
     <g id="text_50">
      <!-- 0.25 -->
      <g style="fill: #262626" transform="translate(289.724777 287.015437) scale(0.1 -0.1)">
       <use xlink:href="#LiberationSans-30"/>
       <use xlink:href="#LiberationSans-2e" x="55.615234"/>
       <use xlink:href="#LiberationSans-32" x="83.398438"/>
       <use xlink:href="#LiberationSans-35" x="139.013672"/>
      </g>
     </g>
    </g>
    <g id="ytick_28">
     <g id="line2d_91">
      <path d="M 312.685714 259.2 
L 414.72 259.2 
" clip-path="url(#pbbe8524b72)" style="fill: none; stroke: #cccccc; stroke-width: 0.8; stroke-linecap: round"/>
     </g>
     <g id="line2d_92"/>
     <g id="text_51">
      <!-- 0.50 -->
      <g style="fill: #262626" transform="translate(289.724777 262.823437) scale(0.1 -0.1)">
       <use xlink:href="#LiberationSans-30"/>
       <use xlink:href="#LiberationSans-2e" x="55.615234"/>
       <use xlink:href="#LiberationSans-35" x="83.398438"/>
       <use xlink:href="#LiberationSans-30" x="139.013672"/>
      </g>
     </g>
    </g>
    <g id="ytick_29">
     <g id="line2d_93">
      <path d="M 312.685714 235.008 
L 414.72 235.008 
" clip-path="url(#pbbe8524b72)" style="fill: none; stroke: #cccccc; stroke-width: 0.8; stroke-linecap: round"/>
     </g>
     <g id="line2d_94"/>
     <g id="text_52">
      <!-- 0.75 -->
      <g style="fill: #262626" transform="translate(289.724777 238.631438) scale(0.1 -0.1)">
       <use xlink:href="#LiberationSans-30"/>
       <use xlink:href="#LiberationSans-2e" x="55.615234"/>
       <use xlink:href="#LiberationSans-37" x="83.398438"/>
       <use xlink:href="#LiberationSans-35" x="139.013672"/>
      </g>
     </g>
    </g>
    <g id="ytick_30">
     <g id="line2d_95">
      <path d="M 312.685714 210.816 
L 414.72 210.816 
" clip-path="url(#pbbe8524b72)" style="fill: none; stroke: #cccccc; stroke-width: 0.8; stroke-linecap: round"/>
     </g>
     <g id="line2d_96"/>
     <g id="text_53">
      <!-- 1.00 -->
      <g style="fill: #262626" transform="translate(289.724777 214.439437) scale(0.1 -0.1)">
       <use xlink:href="#LiberationSans-31"/>
       <use xlink:href="#LiberationSans-2e" x="55.615234"/>
       <use xlink:href="#LiberationSans-30" x="83.398438"/>
       <use xlink:href="#LiberationSans-30" x="139.013672"/>
      </g>
     </g>
    </g>
   </g>
   <g id="patch_28">
    <path d="M 312.685714 307.584 
L 312.685714 210.816 
" style="fill: none; stroke: #cccccc; stroke-linejoin: miter; stroke-linecap: square"/>
   </g>
   <g id="patch_29">
    <path d="M 414.72 307.584 
L 414.72 210.816 
" style="fill: none; stroke: #cccccc; stroke-linejoin: miter; stroke-linecap: square"/>
   </g>
   <g id="patch_30">
    <path d="M 312.685714 307.584 
L 414.72 307.584 
" style="fill: none; stroke: #cccccc; stroke-linejoin: miter; stroke-linecap: square"/>
   </g>
   <g id="patch_31">
    <path d="M 312.685714 210.816 
L 414.72 210.816 
" style="fill: none; stroke: #cccccc; stroke-linejoin: miter; stroke-linecap: square"/>
   </g>
   <g id="text_54">
    <!-- (2, 3, 6) -->
    <g style="fill: #262626" transform="translate(332.693638 259.2) scale(0.18 -0.18)">
     <defs>
      <path id="LiberationSans-36" d="M 3278 1441 
Q 3278 744 2900 340 
Q 2522 -63 1856 -63 
Q 1113 -63 719 490 
Q 325 1044 325 2100 
Q 325 3244 734 3856 
Q 1144 4469 1900 4469 
Q 2897 4469 3156 3572 
L 2619 3475 
Q 2453 4013 1894 4013 
Q 1413 4013 1148 3564 
Q 884 3116 884 2266 
Q 1038 2550 1316 2698 
Q 1594 2847 1953 2847 
Q 2563 2847 2920 2465 
Q 3278 2084 3278 1441 
z
M 2706 1416 
Q 2706 1894 2472 2153 
Q 2238 2413 1819 2413 
Q 1425 2413 1183 2183 
Q 941 1953 941 1550 
Q 941 1041 1192 716 
Q 1444 391 1838 391 
Q 2244 391 2475 664 
Q 2706 938 2706 1416 
z
" transform="scale(0.015625)"/>
     </defs>
     <use xlink:href="#LiberationSans-28"/>
     <use xlink:href="#LiberationSans-32" x="33.300781"/>
     <use xlink:href="#LiberationSans-2c" x="88.916016"/>
     <use xlink:href="#LiberationSans-20" x="116.699219"/>
     <use xlink:href="#LiberationSans-33" x="144.482422"/>
     <use xlink:href="#LiberationSans-2c" x="200.097656"/>
     <use xlink:href="#LiberationSans-20" x="227.880859"/>
     <use xlink:href="#LiberationSans-36" x="255.664062"/>
     <use xlink:href="#LiberationSans-29" x="311.279297"/>
    </g>
   </g>
  </g>
 </g>
 <defs>
  <clipPath id="p07fa9aa4e3">
   <rect x="57.6" y="41.472" width="102.034286" height="96.768"/>
  </clipPath>
  <clipPath id="pebf3c2a3bd">
   <rect x="185.142857" y="41.472" width="102.034286" height="96.768"/>
  </clipPath>
  <clipPath id="p24e682a00d">
   <rect x="312.685714" y="41.472" width="102.034286" height="96.768"/>
  </clipPath>
  <clipPath id="p65373700fe">
   <rect x="57.6" y="210.816" width="102.034286" height="96.768"/>
  </clipPath>
  <clipPath id="pf05e4ad769">
   <rect x="185.142857" y="210.816" width="102.034286" height="96.768"/>
  </clipPath>
  <clipPath id="pbbe8524b72">
   <rect x="312.685714" y="210.816" width="102.034286" height="96.768"/>
  </clipPath>
 </defs>
</svg>
