<?xml version="1.0" encoding="utf-8" standalone="no"?>
<!DOCTYPE svg PUBLIC "-//W3C//DTD SVG 1.1//EN"
  "http://www.w3.org/Graphics/SVG/1.1/DTD/svg11.dtd">
<svg xmlns:xlink="http://www.w3.org/1999/xlink" width="460.8pt" height="345.6pt" viewBox="0 0 460.8 345.6" xmlns="http://www.w3.org/2000/svg" version="1.1">
 <metadata>
  <rdf:RDF xmlns:dc="http://purl.org/dc/elements/1.1/" xmlns:cc="http://creativecommons.org/ns#" xmlns:rdf="http://www.w3.org/1999/02/22-rdf-syntax-ns#">
   <cc:Work>
    <dc:type rdf:resource="http://purl.org/dc/dcmitype/StillImage"/>
    <dc:date>2023-08-10T22:37:16.687571</dc:date>
    <dc:format>image/svg+xml</dc:format>
    <dc:creator>
     <cc:Agent>
      <dc:title>Matplotlib v3.7.1, https://matplotlib.org/</dc:title>
     </cc:Agent>
    </dc:creator>
   </cc:Work>
  </rdf:RDF>
 </metadata>
 <defs>
  <style type="text/css">*{stroke-linejoin: round; stroke-linecap: butt}</style>
 </defs>
 <g id="figure_1">
  <g id="patch_1">
   <path d="M 0 345.6 
L 460.8 345.6 
L 460.8 0 
L 0 0 
z
" style="fill: #ffffff"/>
  </g>
  <g id="axes_1">
   <g id="patch_2">
    <path d="M 57.6 307.584 
L 414.72 307.584 
L 414.72 41.472 
L 57.6 41.472 
z
" style="fill: #eaeaf2"/>
   </g>
   <g id="matplotlib.axis_1">
    <g id="xtick_1">
     <g id="line2d_1">
      <path d="M 82.81696 307.584 
L 82.81696 41.472 
" clip-path="url(#p122f2db935)" style="fill: none; stroke: #ffffff; stroke-linecap: round"/>
     </g>
     <g id="text_1">
      <!-- −8 -->
      <g style="fill: #262626" transform="translate(74.708757 325.442281) scale(0.11 -0.11)">
       <defs>
        <path id="DejaVuSans-2212" d="M 678 2272 
L 4684 2272 
L 4684 1741 
L 678 1741 
L 678 2272 
z
" transform="scale(0.015625)"/>
        <path id="DejaVuSans-38" d="M 2034 2216 
Q 1584 2216 1326 1975 
Q 1069 1734 1069 1313 
Q 1069 891 1326 650 
Q 1584 409 2034 409 
Q 2484 409 2743 651 
Q 3003 894 3003 1313 
Q 3003 1734 2745 1975 
Q 2488 2216 2034 2216 
z
M 1403 2484 
Q 997 2584 770 2862 
Q 544 3141 544 3541 
Q 544 4100 942 4425 
Q 1341 4750 2034 4750 
Q 2731 4750 3128 4425 
Q 3525 4100 3525 3541 
Q 3525 3141 3298 2862 
Q 3072 2584 2669 2484 
Q 3125 2378 3379 2068 
Q 3634 1759 3634 1313 
Q 3634 634 3220 271 
Q 2806 -91 2034 -91 
Q 1263 -91 848 271 
Q 434 634 434 1313 
Q 434 1759 690 2068 
Q 947 2378 1403 2484 
z
M 1172 3481 
Q 1172 3119 1398 2916 
Q 1625 2713 2034 2713 
Q 2441 2713 2670 2916 
Q 2900 3119 2900 3481 
Q 2900 3844 2670 4047 
Q 2441 4250 2034 4250 
Q 1625 4250 1398 4047 
Q 1172 3844 1172 3481 
z
" transform="scale(0.015625)"/>
       </defs>
       <use xlink:href="#DejaVuSans-2212"/>
       <use xlink:href="#DejaVuSans-38" x="83.789062"/>
      </g>
     </g>
    </g>
    <g id="xtick_2">
     <g id="line2d_2">
      <path d="M 122.77374 307.584 
L 122.77374 41.472 
" clip-path="url(#p122f2db935)" style="fill: none; stroke: #ffffff; stroke-linecap: round"/>
     </g>
     <g id="text_2">
      <!-- −6 -->
      <g style="fill: #262626" transform="translate(114.665537 325.442281) scale(0.11 -0.11)">
       <defs>
        <path id="DejaVuSans-36" d="M 2113 2584 
Q 1688 2584 1439 2293 
Q 1191 2003 1191 1497 
Q 1191 994 1439 701 
Q 1688 409 2113 409 
Q 2538 409 2786 701 
Q 3034 994 3034 1497 
Q 3034 2003 2786 2293 
Q 2538 2584 2113 2584 
z
M 3366 4563 
L 3366 3988 
Q 3128 4100 2886 4159 
Q 2644 4219 2406 4219 
Q 1781 4219 1451 3797 
Q 1122 3375 1075 2522 
Q 1259 2794 1537 2939 
Q 1816 3084 2150 3084 
Q 2853 3084 3261 2657 
Q 3669 2231 3669 1497 
Q 3669 778 3244 343 
Q 2819 -91 2113 -91 
Q 1303 -91 875 529 
Q 447 1150 447 2328 
Q 447 3434 972 4092 
Q 1497 4750 2381 4750 
Q 2619 4750 2861 4703 
Q 3103 4656 3366 4563 
z
" transform="scale(0.015625)"/>
       </defs>
       <use xlink:href="#DejaVuSans-2212"/>
       <use xlink:href="#DejaVuSans-36" x="83.789062"/>
      </g>
     </g>
    </g>
    <g id="xtick_3">
     <g id="line2d_3">
      <path d="M 162.73052 307.584 
L 162.73052 41.472 
" clip-path="url(#p122f2db935)" style="fill: none; stroke: #ffffff; stroke-linecap: round"/>
     </g>
     <g id="text_3">
      <!-- −4 -->
      <g style="fill: #262626" transform="translate(154.622317 325.442281) scale(0.11 -0.11)">
       <defs>
        <path id="DejaVuSans-34" d="M 2419 4116 
L 825 1625 
L 2419 1625 
L 2419 4116 
z
M 2253 4666 
L 3047 4666 
L 3047 1625 
L 3713 1625 
L 3713 1100 
L 3047 1100 
L 3047 0 
L 2419 0 
L 2419 1100 
L 313 1100 
L 313 1709 
L 2253 4666 
z
" transform="scale(0.015625)"/>
       </defs>
       <use xlink:href="#DejaVuSans-2212"/>
       <use xlink:href="#DejaVuSans-34" x="83.789062"/>
      </g>
     </g>
    </g>
    <g id="xtick_4">
     <g id="line2d_4">
      <path d="M 202.6873 307.584 
L 202.6873 41.472 
" clip-path="url(#p122f2db935)" style="fill: none; stroke: #ffffff; stroke-linecap: round"/>
     </g>
     <g id="text_4">
      <!-- −2 -->
      <g style="fill: #262626" transform="translate(194.579097 325.442281) scale(0.11 -0.11)">
       <defs>
        <path id="DejaVuSans-32" d="M 1228 531 
L 3431 531 
L 3431 0 
L 469 0 
L 469 531 
Q 828 903 1448 1529 
Q 2069 2156 2228 2338 
Q 2531 2678 2651 2914 
Q 2772 3150 2772 3378 
Q 2772 3750 2511 3984 
Q 2250 4219 1831 4219 
Q 1534 4219 1204 4116 
Q 875 4013 500 3803 
L 500 4441 
Q 881 4594 1212 4672 
Q 1544 4750 1819 4750 
Q 2544 4750 2975 4387 
Q 3406 4025 3406 3419 
Q 3406 3131 3298 2873 
Q 3191 2616 2906 2266 
Q 2828 2175 2409 1742 
Q 1991 1309 1228 531 
z
" transform="scale(0.015625)"/>
       </defs>
       <use xlink:href="#DejaVuSans-2212"/>
       <use xlink:href="#DejaVuSans-32" x="83.789062"/>
      </g>
     </g>
    </g>
    <g id="xtick_5">
     <g id="line2d_5">
      <path d="M 242.64408 307.584 
L 242.64408 41.472 
" clip-path="url(#p122f2db935)" style="fill: none; stroke: #ffffff; stroke-linecap: round"/>
     </g>
     <g id="text_5">
      <!-- 0 -->
      <g style="fill: #262626" transform="translate(239.144705 325.442281) scale(0.11 -0.11)">
       <defs>
        <path id="DejaVuSans-30" d="M 2034 4250 
Q 1547 4250 1301 3770 
Q 1056 3291 1056 2328 
Q 1056 1369 1301 889 
Q 1547 409 2034 409 
Q 2525 409 2770 889 
Q 3016 1369 3016 2328 
Q 3016 3291 2770 3770 
Q 2525 4250 2034 4250 
z
M 2034 4750 
Q 2819 4750 3233 4129 
Q 3647 3509 3647 2328 
Q 3647 1150 3233 529 
Q 2819 -91 2034 -91 
Q 1250 -91 836 529 
Q 422 1150 422 2328 
Q 422 3509 836 4129 
Q 1250 4750 2034 4750 
z
" transform="scale(0.015625)"/>
       </defs>
       <use xlink:href="#DejaVuSans-30"/>
      </g>
     </g>
    </g>
    <g id="xtick_6">
     <g id="line2d_6">
      <path d="M 282.60086 307.584 
L 282.60086 41.472 
" clip-path="url(#p122f2db935)" style="fill: none; stroke: #ffffff; stroke-linecap: round"/>
     </g>
     <g id="text_6">
      <!-- 2 -->
      <g style="fill: #262626" transform="translate(279.101485 325.442281) scale(0.11 -0.11)">
       <use xlink:href="#DejaVuSans-32"/>
      </g>
     </g>
    </g>
    <g id="xtick_7">
     <g id="line2d_7">
      <path d="M 322.557639 307.584 
L 322.557639 41.472 
" clip-path="url(#p122f2db935)" style="fill: none; stroke: #ffffff; stroke-linecap: round"/>
     </g>
     <g id="text_7">
      <!-- 4 -->
      <g style="fill: #262626" transform="translate(319.058264 325.442281) scale(0.11 -0.11)">
       <use xlink:href="#DejaVuSans-34"/>
      </g>
     </g>
    </g>
    <g id="xtick_8">
     <g id="line2d_8">
      <path d="M 362.514419 307.584 
L 362.514419 41.472 
" clip-path="url(#p122f2db935)" style="fill: none; stroke: #ffffff; stroke-linecap: round"/>
     </g>
     <g id="text_8">
      <!-- 6 -->
      <g style="fill: #262626" transform="translate(359.015044 325.442281) scale(0.11 -0.11)">
       <use xlink:href="#DejaVuSans-36"/>
      </g>
     </g>
    </g>
    <g id="xtick_9">
     <g id="line2d_9">
      <path d="M 402.471199 307.584 
L 402.471199 41.472 
" clip-path="url(#p122f2db935)" style="fill: none; stroke: #ffffff; stroke-linecap: round"/>
     </g>
     <g id="text_9">
      <!-- 8 -->
      <g style="fill: #262626" transform="translate(398.971824 325.442281) scale(0.11 -0.11)">
       <use xlink:href="#DejaVuSans-38"/>
      </g>
     </g>
    </g>
    <g id="text_10">
     <!-- x -->
     <g style="fill: #262626" transform="translate(232.60875 340.848062) scale(0.12 -0.12)">
      <defs>
       <path id="DejaVuSans-78" d="M 3513 3500 
L 2247 1797 
L 3578 0 
L 2900 0 
L 1881 1375 
L 863 0 
L 184 0 
L 1544 1831 
L 300 3500 
L 978 3500 
L 1906 2253 
L 2834 3500 
L 3513 3500 
z
" transform="scale(0.015625)"/>
      </defs>
      <use xlink:href="#DejaVuSans-78"/>
     </g>
    </g>
   </g>
   <g id="matplotlib.axis_2">
    <g id="ytick_1">
     <g id="line2d_10">
      <path d="M 57.6 306.142382 
L 414.72 306.142382 
" clip-path="url(#p122f2db935)" style="fill: none; stroke: #ffffff; stroke-linecap: round"/>
     </g>
     <g id="text_11">
      <!-- −6 -->
      <g style="fill: #262626" transform="translate(31.883594 310.321522) scale(0.11 -0.11)">
       <use xlink:href="#DejaVuSans-2212"/>
       <use xlink:href="#DejaVuSans-36" x="83.789062"/>
      </g>
     </g>
    </g>
    <g id="ytick_2">
     <g id="line2d_11">
      <path d="M 57.6 261.352932 
L 414.72 261.352932 
" clip-path="url(#p122f2db935)" style="fill: none; stroke: #ffffff; stroke-linecap: round"/>
     </g>
     <g id="text_12">
      <!-- −4 -->
      <g style="fill: #262626" transform="translate(31.883594 265.532073) scale(0.11 -0.11)">
       <use xlink:href="#DejaVuSans-2212"/>
       <use xlink:href="#DejaVuSans-34" x="83.789062"/>
      </g>
     </g>
    </g>
    <g id="ytick_3">
     <g id="line2d_12">
      <path d="M 57.6 216.563482 
L 414.72 216.563482 
" clip-path="url(#p122f2db935)" style="fill: none; stroke: #ffffff; stroke-linecap: round"/>
     </g>
     <g id="text_13">
      <!-- −2 -->
      <g style="fill: #262626" transform="translate(31.883594 220.742623) scale(0.11 -0.11)">
       <use xlink:href="#DejaVuSans-2212"/>
       <use xlink:href="#DejaVuSans-32" x="83.789062"/>
      </g>
     </g>
    </g>
    <g id="ytick_4">
     <g id="line2d_13">
      <path d="M 57.6 171.774033 
L 414.72 171.774033 
" clip-path="url(#p122f2db935)" style="fill: none; stroke: #ffffff; stroke-linecap: round"/>
     </g>
     <g id="text_14">
      <!-- 0 -->
      <g style="fill: #262626" transform="translate(41.10125 175.953173) scale(0.11 -0.11)">
       <use xlink:href="#DejaVuSans-30"/>
      </g>
     </g>
    </g>
    <g id="ytick_5">
     <g id="line2d_14">
      <path d="M 57.6 126.984583 
L 414.72 126.984583 
" clip-path="url(#p122f2db935)" style="fill: none; stroke: #ffffff; stroke-linecap: round"/>
     </g>
     <g id="text_15">
      <!-- 2 -->
      <g style="fill: #262626" transform="translate(41.10125 131.163723) scale(0.11 -0.11)">
       <use xlink:href="#DejaVuSans-32"/>
      </g>
     </g>
    </g>
    <g id="ytick_6">
     <g id="line2d_15">
      <path d="M 57.6 82.195133 
L 414.72 82.195133 
" clip-path="url(#p122f2db935)" style="fill: none; stroke: #ffffff; stroke-linecap: round"/>
     </g>
     <g id="text_16">
      <!-- 4 -->
      <g style="fill: #262626" transform="translate(41.10125 86.374274) scale(0.11 -0.11)">
       <use xlink:href="#DejaVuSans-34"/>
      </g>
     </g>
    </g>
    <g id="text_17">
     <!-- y -->
     <g style="fill: #262626" transform="translate(25.387969 178.07925) rotate(-90) scale(0.12 -0.12)">
      <defs>
       <path id="DejaVuSans-79" d="M 2059 -325 
Q 1816 -950 1584 -1140 
Q 1353 -1331 966 -1331 
L 506 -1331 
L 506 -850 
L 844 -850 
Q 1081 -850 1212 -737 
Q 1344 -625 1503 -206 
L 1606 56 
L 191 3500 
L 800 3500 
L 1894 763 
L 2988 3500 
L 3597 3500 
L 2059 -325 
z
" transform="scale(0.015625)"/>
      </defs>
      <use xlink:href="#DejaVuSans-79"/>
     </g>
    </g>
   </g>
   <g id="PathCollection_1">
    <path d="M 154.506935 256.958992 
L 156.301508 257.297447 
L 158.09608 257.373261 
L 159.890653 257.268543 
L 161.685226 257.034329 
L 163.122516 256.768643 
L 163.479799 256.704891 
L 165.274372 256.319619 
L 167.068945 255.887383 
L 168.829196 255.431397 
L 168.863518 255.42258 
L 170.65809 254.96688 
L 172.452663 254.510306 
L 174.143933 254.094151 
L 174.247236 254.068572 
L 176.041809 253.661083 
L 177.836382 253.27222 
L 179.630955 252.898575 
L 180.30953 252.756905 
L 181.425528 252.526382 
L 183.220101 252.137967 
L 185.014673 251.721909 
L 186.190803 251.419658 
L 186.809246 251.265973 
L 188.603819 250.76658 
L 190.398392 250.2172 
L 190.791874 250.082412 
L 192.192965 249.625423 
L 193.987538 248.983714 
L 194.59544 248.745166 
L 195.782111 248.305834 
L 197.576683 247.582562 
L 197.980134 247.40792 
L 199.371256 246.844307 
L 201.133865 246.070673 
L 201.165829 246.057656 
L 202.960402 245.298242 
L 204.214085 244.733427 
L 204.754975 244.508834 
L 206.549548 243.745431 
L 207.352815 243.396181 
L 208.344121 243.001667 
L 210.138693 242.280146 
L 210.703119 242.058935 
L 211.933266 241.620553 
L 213.727839 240.992553 
L 214.547009 240.721688 
L 215.522412 240.429848 
L 217.316985 239.930557 
L 219.111558 239.454771 
L 219.411148 239.384442 
L 220.906131 239.06849 
L 222.700704 238.710628 
L 224.495276 238.360149 
L 226.081591 238.047196 
L 226.289849 238.009891 
L 228.084422 237.680417 
L 229.878995 237.312023 
L 231.673568 236.89299 
L 232.38219 236.70995 
L 233.468141 236.446416 
L 235.262714 235.955065 
L 237.057286 235.391642 
L 237.114796 235.372704 
L 238.851859 234.815401 
L 240.646432 234.160868 
L 240.978606 234.035457 
L 242.441005 233.486226 
L 244.235578 232.734858 
L 244.323432 232.698211 
L 246.030151 231.97892 
L 247.374675 231.360965 
L 247.824724 231.153169 
L 249.619296 230.301445 
L 250.190622 230.023719 
L 251.413869 229.427307 
L 252.841791 228.686472 
L 253.208442 228.499389 
L 255.003015 227.564452 
L 255.405697 227.349226 
L 256.797588 226.635124 
L 257.929096 226.01198 
L 258.592161 225.670931 
L 260.386734 224.675421 
L 260.387935 224.674734 
L 262.181307 223.751163 
L 262.905126 223.337487 
L 263.975879 222.796028 
L 265.390205 222.000241 
L 265.770452 221.812282 
L 267.565025 220.84713 
L 267.875598 220.662995 
L 269.359598 219.901594 
L 270.356397 219.325749 
L 271.154171 218.922884 
L 272.808254 217.988503 
L 272.948744 217.918089 
L 274.743317 216.943119 
L 275.227999 216.651256 
L 276.537889 215.945205 
L 277.59681 215.31401 
L 278.332462 214.91318 
L 279.900575 213.976764 
L 280.127035 213.850512 
L 281.921608 212.773595 
L 282.129794 212.639518 
L 283.716181 211.669803 
L 284.277517 211.302271 
L 285.510754 210.520602 
L 286.338581 209.965025 
L 287.305327 209.325821 
L 288.314525 208.627779 
L 289.099899 208.084641 
L 290.211241 207.290533 
L 290.894472 206.796807 
L 292.038157 205.953286 
L 292.689045 205.464053 
L 293.807357 204.61604 
L 294.483618 204.091427 
L 295.532728 203.278794 
L 296.278191 202.687878 
L 297.229018 201.941548 
L 298.072764 201.265354 
L 298.910534 200.604302 
L 299.867337 199.836166 
L 300.589217 199.267055 
L 301.66191 198.409266 
L 302.272105 197.929809 
L 303.456482 196.986836 
L 303.958744 196.592563 
L 305.251055 195.562362 
L 305.639648 195.255317 
L 307.045628 194.120296 
L 307.296909 193.91807 
L 308.840201 192.636422 
L 308.907046 192.580824 
L 310.458726 191.243578 
L 310.634774 191.084271 
L 311.928158 189.906332 
L 312.429347 189.416803 
L 313.294111 188.569085 
L 314.22392 187.572881 
L 314.543125 187.231839 
L 315.693249 185.894593 
L 316.018492 185.479704 
L 316.751521 184.557347 
L 317.697275 183.220101 
L 317.813065 183.045231 
L 318.60375 181.882854 
L 319.425379 180.545608 
L 319.607638 180.24036 
L 320.248475 179.208362 
L 321.045145 177.871116 
L 321.402211 177.278349 
L 321.872756 176.533869 
L 322.736438 175.196623 
L 323.196784 174.509224 
L 323.655429 173.859377 
L 324.637373 172.522131 
L 324.991357 172.063651 
L 325.706453 171.184884 
L 326.78593 169.869873 
L 326.805218 169.847638 
L 328.034141 168.510392 
L 328.580503 167.916767 
L 329.299387 167.173146 
L 330.375075 166.051023 
L 330.591281 165.835899 
L 331.93758 164.498653 
L 332.169648 164.26577 
L 333.31457 163.161407 
L 333.964221 162.509254 
L 334.672389 161.824161 
L 335.758794 160.714907 
L 335.990058 160.486915 
L 337.287254 159.149668 
L 337.553367 158.858779 
L 338.543936 157.812422 
L 339.34794 156.880453 
L 339.710742 156.475176 
L 340.818 155.13793 
L 341.142513 154.711354 
L 341.866182 153.800683 
L 342.810893 152.463437 
L 342.937085 152.271749 
L 343.732298 151.126191 
L 344.550895 149.788945 
L 344.731658 149.472023 
L 345.351832 148.451698 
L 346.086596 147.114452 
L 346.526231 146.248938 
L 346.784212 145.777206 
L 347.481226 144.43996 
L 348.129877 143.102714 
L 348.320804 142.702596 
L 348.805576 141.765467 
L 349.475706 140.428221 
L 350.115377 139.11404 
L 350.127614 139.090975 
L 350.845085 137.753729 
L 351.545252 136.416482 
L 351.90995 135.718554 
L 352.273671 135.079236 
L 353.023497 133.74199 
L 353.704523 132.503775 
L 353.763838 132.404744 
L 354.542049 131.067497 
L 355.286837 129.730251 
L 355.499095 129.326211 
L 356.030201 128.393005 
L 356.726753 127.055759 
L 357.293668 125.845096 
L 357.357984 125.718513 
L 357.925298 124.381266 
L 358.377937 123.04402 
L 358.700464 121.706774 
L 358.874776 120.369528 
L 358.884498 119.032281 
L 358.720173 117.695035 
L 358.383127 116.357789 
L 357.885777 115.020543 
L 357.293668 113.775581 
L 357.248855 113.683296 
L 356.50672 112.34605 
L 355.665987 111.008804 
L 355.499095 110.758312 
L 354.742178 109.671558 
L 353.763831 108.334312 
L 353.704523 108.250848 
L 352.763193 106.997065 
L 351.90995 105.759754 
L 351.837543 105.659819 
L 351.044516 104.322573 
L 350.450459 102.985327 
L 350.115377 101.877293 
L 350.042312 101.64808 
L 349.76436 100.310834 
L 349.561832 98.973588 
L 349.34939 97.636342 
L 349.018671 96.299095 
L 348.419943 94.961849 
L 348.320804 94.820638 
L 347.021887 93.624603 
L 346.526231 93.331634 
L 344.731658 92.732068 
L 342.937085 92.469084 
L 341.142513 92.381308 
L 339.34794 92.371098 
L 337.553367 92.374461 
L 335.758794 92.349265 
L 334.346112 92.287357 
L 333.964221 92.272084 
L 332.169648 92.138016 
L 330.375075 91.954795 
L 328.580503 91.744118 
L 326.78593 91.533565 
L 324.991357 91.349572 
L 323.196784 91.212321 
L 321.402211 91.133794 
L 319.607638 91.118556 
L 317.813065 91.165863 
L 316.018492 91.271779 
L 314.22392 91.430446 
L 312.429347 91.634125 
L 310.634774 91.871882 
L 308.840201 92.127102 
L 307.642553 92.287357 
L 307.045628 92.358023 
L 305.251055 92.526799 
L 303.456482 92.640613 
L 301.66191 92.682489 
L 299.867337 92.652684 
L 298.072764 92.574332 
L 296.278191 92.486359 
L 294.483618 92.42808 
L 292.689045 92.427609 
L 290.894472 92.499852 
L 289.099899 92.650476 
L 287.305327 92.880491 
L 285.510754 93.189 
L 283.716181 93.574274 
L 283.519476 93.624603 
L 281.921608 94.011167 
L 280.127035 94.51208 
L 278.689726 94.961849 
L 278.332462 95.069227 
L 276.537889 95.652918 
L 274.743317 96.286562 
L 274.708085 96.299095 
L 272.948744 96.917649 
L 271.154171 97.582781 
L 271.004155 97.636342 
L 269.359598 98.226678 
L 267.565025 98.887127 
L 267.312742 98.973588 
L 265.770452 99.512943 
L 263.975879 100.145401 
L 263.474461 100.310834 
L 262.181307 100.750242 
L 260.386734 101.370602 
L 259.592121 101.64808 
L 258.592161 102.007333 
L 256.797588 102.711626 
L 256.173797 102.985327 
L 255.003015 103.505303 
L 253.467023 104.322573 
L 253.208442 104.458296 
L 251.413869 105.560712 
L 251.276485 105.659819 
L 249.619296 106.792117 
L 249.361578 106.997065 
L 247.824724 108.115942 
L 247.561696 108.334312 
L 246.030151 109.464604 
L 245.780014 109.671558 
L 244.235578 110.7828 
L 243.951624 111.008804 
L 242.441005 112.040418 
L 242.032505 112.34605 
L 240.646432 113.230935 
L 239.995708 113.683296 
L 238.851859 114.362537 
L 237.831084 115.020543 
L 237.057286 115.449277 
L 235.545486 116.357789 
L 235.262714 116.505316 
L 233.468141 117.509175 
L 233.15591 117.695035 
L 231.673568 118.473845 
L 230.685265 119.032281 
L 229.878995 119.440386 
L 228.171304 120.369528 
L 228.084422 120.412552 
L 226.289849 121.331552 
L 225.595604 121.706774 
L 224.495276 122.259388 
L 223.016844 123.04402 
L 222.700704 123.202529 
L 220.906131 124.119323 
L 220.402476 124.381266 
L 219.111558 125.027936 
L 217.779604 125.718513 
L 217.316985 125.953168 
L 215.522412 126.866228 
L 215.145082 127.055759 
L 213.727839 127.762832 
L 212.487634 128.393005 
L 211.933266 128.67645 
L 210.138693 129.589097 
L 209.85396 129.730251 
L 208.344121 130.489401 
L 207.208776 131.067497 
L 206.549548 131.410762 
L 204.754975 132.347056 
L 204.641957 132.404744 
L 202.960402 133.280975 
L 202.087568 133.74199 
L 201.165829 134.239879 
L 199.625391 135.079236 
L 199.371256 135.220647 
L 197.576683 136.212344 
L 197.20907 136.416482 
L 195.782111 137.21581 
L 194.830762 137.753729 
L 193.987538 138.23194 
L 192.483443 139.090975 
L 192.192965 139.256242 
L 190.398392 140.280911 
L 190.142375 140.428221 
L 188.603819 141.301855 
L 187.796605 141.765467 
L 186.809246 142.322913 
L 185.445543 143.102714 
L 185.014673 143.34445 
L 183.220101 144.365256 
L 183.090356 144.43996 
L 181.425528 145.382162 
L 180.737792 145.777206 
L 179.630955 146.404658 
L 178.396613 147.114452 
L 177.836382 147.434543 
L 176.07817 148.451698 
L 176.041809 148.472797 
L 174.247236 149.520111 
L 173.78917 149.788945 
L 172.452663 150.584363 
L 171.543469 151.126191 
L 170.65809 151.66813 
L 169.353357 152.463437 
L 168.863518 152.774508 
L 167.230789 153.800683 
L 167.068945 153.908281 
L 165.274372 155.080941 
L 165.185739 155.13793 
L 163.479799 156.308482 
L 163.231947 156.475176 
L 161.685226 157.600455 
L 161.386855 157.812422 
L 159.890653 158.976599 
L 159.662293 159.149668 
L 158.09608 160.463328 
L 158.067184 160.486915 
L 156.60866 161.824161 
L 156.301508 162.144007 
L 155.290593 163.161407 
L 154.506935 164.054093 
L 154.105149 164.498653 
L 153.050107 165.835899 
L 152.712362 166.327501 
L 152.117605 167.173146 
L 151.276482 168.510392 
L 150.917789 169.142119 
L 150.51479 169.847638 
L 149.792139 171.184884 
L 149.123216 172.393274 
L 149.053319 172.522131 
L 148.293465 173.859377 
L 147.455255 175.196623 
L 147.328643 175.378251 
L 146.560729 176.533869 
L 145.619919 177.871116 
L 145.53407 177.984915 
L 144.650276 179.208362 
L 143.739497 180.49274 
L 143.703383 180.545608 
L 142.758175 181.882854 
L 141.944925 183.125697 
L 141.884029 183.220101 
L 141.028231 184.557347 
L 140.258632 185.894593 
L 140.150352 186.09303 
L 139.511589 187.231839 
L 138.826896 188.569085 
L 138.355779 189.568796 
L 138.188611 189.906332 
L 137.547832 191.243578 
L 136.940746 192.580824 
L 136.561206 193.433472 
L 136.328808 193.91807 
L 135.67858 195.255317 
L 135.026543 196.592563 
L 134.766633 197.114817 
L 134.323285 197.929809 
L 133.587314 199.267055 
L 132.97206 200.394773 
L 132.846362 200.604302 
L 132.061754 201.941548 
L 131.321418 203.278794 
L 131.177487 203.570015 
L 130.599038 204.61604 
L 129.968946 205.953286 
L 129.483652 207.290533 
L 129.382915 207.776548 
L 129.179038 208.627779 
L 129.143206 209.965025 
L 129.382915 210.989163 
L 129.452937 211.302271 
L 130.065078 212.639518 
L 130.936 213.976764 
L 131.177487 214.301028 
L 131.748171 215.31401 
L 132.461151 216.651256 
L 132.97206 217.760913 
L 133.052757 217.988503 
L 133.466488 219.325749 
L 133.826323 220.662995 
L 134.161447 222.000241 
L 134.50872 223.337487 
L 134.766633 224.212659 
L 134.907693 224.674734 
L 135.421334 226.01198 
L 136.126723 227.349226 
L 136.561206 228.003298 
L 137.105279 228.686472 
L 138.355779 230.01397 
L 138.366099 230.023719 
L 139.677826 231.360965 
L 140.150352 231.956729 
L 140.641691 232.698211 
L 141.151827 234.035457 
L 141.338775 235.372704 
L 141.327645 236.70995 
L 141.229995 238.047196 
L 141.129992 239.384442 
L 141.091401 240.721688 
L 141.168821 242.058935 
L 141.417051 243.396181 
L 141.896242 244.733427 
L 141.944925 244.822728 
L 142.645879 246.070673 
L 143.739497 247.40792 
L 143.739497 247.40792 
L 145.13113 248.745166 
L 145.53407 249.103399 
L 146.634888 250.082412 
L 147.328643 250.740182 
L 148.014188 251.419658 
L 149.123216 252.66387 
L 149.20525 252.756905 
L 150.329676 254.094151 
L 150.917789 254.744851 
L 151.672041 255.431397 
L 152.712362 256.184932 
L 153.98462 256.768643 
L 154.506935 256.958992 
z
" clip-path="url(#p122f2db935)" style="fill: none; stroke: #4c72b0; stroke-width: 1.5"/>
   </g>
   <g id="PathCollection_2">
    <path d="M 172.452663 235.623696 
L 174.247236 235.724747 
L 176.041809 235.705733 
L 177.836382 235.592761 
L 179.630955 235.409202 
L 179.900983 235.372704 
L 181.425528 235.184658 
L 183.220101 234.935716 
L 185.014673 234.676584 
L 186.809246 234.420309 
L 188.603819 234.178411 
L 189.793377 234.035457 
L 190.398392 233.968161 
L 192.192965 233.802976 
L 193.987538 233.671754 
L 195.782111 233.568388 
L 197.576683 233.478535 
L 199.371256 233.380892 
L 201.165829 233.252015 
L 202.960402 233.072554 
L 204.754975 232.831194 
L 205.517817 232.698211 
L 206.549548 232.532931 
L 208.344121 232.180456 
L 210.138693 231.773356 
L 211.758847 231.360965 
L 211.933266 231.319437 
L 213.727839 230.846544 
L 215.522412 230.339356 
L 216.575474 230.023719 
L 217.316985 229.811877 
L 219.111558 229.276158 
L 220.906131 228.711733 
L 220.985061 228.686472 
L 222.700704 228.154311 
L 224.495276 227.56827 
L 225.146671 227.349226 
L 226.289849 226.972287 
L 228.084422 226.351937 
L 229.021996 226.01198 
L 229.878995 225.704238 
L 231.673568 225.025957 
L 232.550738 224.674734 
L 233.468141 224.308208 
L 235.262714 223.544969 
L 235.726967 223.337487 
L 237.057286 222.741635 
L 238.604726 222.000241 
L 238.851859 221.880951 
L 240.646432 220.98336 
L 241.259887 220.662995 
L 242.441005 220.042037 
L 243.755945 219.325749 
L 244.235578 219.062158 
L 246.030151 218.057292 
L 246.152228 217.988503 
L 247.824724 217.042364 
L 248.51316 216.651256 
L 249.619296 216.020493 
L 250.866219 215.31401 
L 251.413869 215.002837 
L 253.208442 213.998627 
L 253.248404 213.976764 
L 255.003015 213.019091 
L 255.712012 212.639518 
L 256.797588 212.059895 
L 258.244724 211.302271 
L 258.592161 211.120851 
L 260.386734 210.20364 
L 260.860445 209.965025 
L 262.181307 209.301 
L 263.524812 208.627779 
L 263.975879 208.40176 
L 265.770452 207.502971 
L 266.191962 207.290533 
L 267.565025 206.595669 
L 268.805372 205.953286 
L 269.359598 205.664586 
L 271.154171 204.703522 
L 271.313745 204.61604 
L 272.948744 203.711605 
L 273.699228 203.278794 
L 274.743317 202.672432 
L 275.947199 201.941548 
L 276.537889 201.581987 
L 278.073451 200.604302 
L 278.332462 200.440015 
L 280.102391 199.267055 
L 280.127035 199.250911 
L 281.921608 198.031349 
L 282.065355 197.929809 
L 283.716181 196.785336 
L 283.984381 196.592563 
L 285.510754 195.522969 
L 285.880314 195.255317 
L 287.305327 194.253155 
L 287.767446 193.91807 
L 289.099899 192.980503 
L 289.651604 192.580824 
L 290.894472 191.704595 
L 291.529893 191.243578 
L 292.689045 190.420182 
L 293.39169 189.906332 
L 294.483618 189.11776 
L 295.220954 188.569085 
L 296.278191 187.784122 
L 296.999512 187.231839 
L 298.072764 186.402772 
L 298.710532 185.894593 
L 299.867337 184.954387 
L 300.34129 184.557347 
L 301.66191 183.417755 
L 301.884597 183.220101 
L 303.346694 181.882854 
L 303.456482 181.779999 
L 304.744664 180.545608 
L 305.251055 180.040112 
L 306.070497 179.208362 
L 307.045628 178.177189 
L 307.332182 177.871116 
L 308.559034 176.533869 
L 308.840201 176.221548 
L 309.764324 175.196623 
L 310.634774 174.202281 
L 310.937504 173.859377 
L 312.108893 172.522131 
L 312.429347 172.153484 
L 313.286757 171.184884 
L 314.22392 170.111036 
L 314.459062 169.847638 
L 315.654986 168.510392 
L 316.018492 168.103555 
L 316.872178 167.173146 
L 317.813065 166.142471 
L 318.100706 165.835899 
L 319.35535 164.498653 
L 319.607638 164.229958 
L 320.635827 163.161407 
L 321.402211 162.357618 
L 321.922504 161.824161 
L 323.196784 160.496689 
L 323.206363 160.486915 
L 324.499706 159.149668 
L 324.991357 158.626561 
L 325.767897 157.812422 
L 326.78593 156.700957 
L 326.995666 156.475176 
L 328.186928 155.13793 
L 328.580503 154.671754 
L 329.324903 153.800683 
L 330.375075 152.480086 
L 330.388511 152.463437 
L 331.403751 151.126191 
L 332.169648 150.022276 
L 332.334604 149.788945 
L 333.205026 148.451698 
L 333.964221 147.15934 
L 333.991292 147.114452 
L 334.717568 145.777206 
L 335.36017 144.43996 
L 335.758794 143.487631 
L 335.926444 143.102714 
L 336.411317 141.765467 
L 336.804964 140.428221 
L 337.102905 139.090975 
L 337.298048 137.753729 
L 337.384233 136.416482 
L 337.36168 135.079236 
L 337.241993 133.74199 
L 337.048228 132.404744 
L 336.807033 131.067497 
L 336.535715 129.730251 
L 336.231462 128.393005 
L 335.867278 127.055759 
L 335.758794 126.737979 
L 335.39926 125.718513 
L 334.746818 124.381266 
L 333.964221 123.245338 
L 333.812366 123.04402 
L 332.479224 121.706774 
L 332.169648 121.459748 
L 330.640355 120.369528 
L 330.375075 120.206449 
L 328.580503 119.19341 
L 328.272088 119.032281 
L 326.78593 118.294015 
L 325.507358 117.695035 
L 324.991357 117.450785 
L 323.196784 116.602162 
L 322.693818 116.357789 
L 321.402211 115.663095 
L 320.309472 115.020543 
L 319.607638 114.527561 
L 318.545341 113.683296 
L 317.813065 112.945415 
L 317.274513 112.34605 
L 316.302908 111.008804 
L 316.018492 110.56427 
L 315.431356 109.671558 
L 314.465384 108.334312 
L 314.22392 108.060977 
L 312.990338 106.997065 
L 312.429347 106.651512 
L 310.634774 106.000693 
L 308.840201 105.766832 
L 307.045628 105.804974 
L 305.251055 106.01419 
L 303.456482 106.328976 
L 301.66191 106.708598 
L 300.440072 106.997065 
L 299.867337 107.129672 
L 298.072764 107.565251 
L 296.278191 107.997373 
L 294.852272 108.334312 
L 294.483618 108.418875 
L 292.689045 108.808218 
L 290.894472 109.176797 
L 289.099899 109.531013 
L 288.351737 109.671558 
L 287.305327 109.858508 
L 285.510754 110.17182 
L 283.716181 110.501085 
L 281.921608 110.866909 
L 281.299656 111.008804 
L 280.127035 111.258411 
L 278.332462 111.707776 
L 276.537889 112.25041 
L 276.263786 112.34605 
L 274.743317 112.837053 
L 272.948744 113.520879 
L 272.569657 113.683296 
L 271.154171 114.241049 
L 269.409012 115.020543 
L 269.359598 115.040675 
L 267.565025 115.829485 
L 266.45748 116.357789 
L 265.770452 116.655661 
L 263.975879 117.478177 
L 263.517235 117.695035 
L 262.181307 118.26789 
L 260.464644 119.032281 
L 260.386734 119.063719 
L 258.592161 119.780641 
L 257.137844 120.369528 
L 256.797588 120.494714 
L 255.003015 121.134438 
L 253.384411 121.706774 
L 253.208442 121.763637 
L 251.413869 122.30946 
L 249.619296 122.842326 
L 248.898621 123.04402 
L 247.824724 123.321173 
L 246.030151 123.764576 
L 244.235578 124.199717 
L 243.475956 124.381266 
L 242.441005 124.612202 
L 240.646432 125.02527 
L 238.851859 125.467293 
L 237.920352 125.718513 
L 237.057286 125.93916 
L 235.262714 126.453252 
L 233.468141 127.031128 
L 233.400307 127.055759 
L 231.673568 127.660748 
L 229.878995 128.363954 
L 229.812048 128.393005 
L 228.084422 129.12878 
L 226.800163 129.730251 
L 226.289849 129.968054 
L 224.495276 130.875401 
L 224.140204 131.067497 
L 222.700704 131.853694 
L 221.750635 132.404744 
L 220.906131 132.904062 
L 219.555094 133.74199 
L 219.111558 134.02441 
L 217.512705 135.079236 
L 217.316985 135.212349 
L 215.587649 136.416482 
L 215.522412 136.463351 
L 213.74821 137.753729 
L 213.727839 137.76898 
L 211.965635 139.090975 
L 211.933266 139.115843 
L 210.213194 140.428221 
L 210.138693 140.486021 
L 208.465755 141.765467 
L 208.344121 141.859316 
L 206.700156 143.102714 
L 206.549548 143.216807 
L 204.896577 144.43996 
L 204.754975 144.544371 
L 203.040958 145.777206 
L 202.960402 145.834831 
L 201.165829 147.086748 
L 201.125047 147.114452 
L 199.371256 148.303409 
L 199.148029 148.451698 
L 197.576683 149.500641 
L 197.138077 149.788945 
L 195.782111 150.694525 
L 195.129026 151.126191 
L 193.987538 151.90407 
L 193.16178 152.463437 
L 192.192965 153.152099 
L 191.27772 153.800683 
L 190.398392 154.467674 
L 189.512796 155.13793 
L 188.603819 155.890001 
L 187.893966 156.475176 
L 186.809246 157.473517 
L 186.438309 157.812422 
L 185.141788 159.149668 
L 185.014673 159.295614 
L 183.964216 160.486915 
L 183.220101 161.450737 
L 182.926142 161.824161 
L 181.952816 163.161407 
L 181.425528 163.937147 
L 181.033412 164.498653 
L 180.114367 165.835899 
L 179.630955 166.536265 
L 179.175362 167.173146 
L 178.189631 168.510392 
L 177.836382 168.968553 
L 177.127287 169.847638 
L 176.041809 171.159741 
L 176.019948 171.184884 
L 174.787775 172.522131 
L 174.247236 173.099106 
L 173.494006 173.859377 
L 172.452663 174.901308 
L 172.140735 175.196623 
L 170.72821 176.533869 
L 170.65809 176.601037 
L 169.257603 177.871116 
L 168.863518 178.241358 
L 167.783136 179.208362 
L 167.068945 179.880231 
L 166.3325 180.545608 
L 165.274372 181.564939 
L 164.93379 181.882854 
L 163.60295 183.220101 
L 163.479799 183.353431 
L 162.342698 184.557347 
L 161.685226 185.321643 
L 161.184926 185.894593 
L 160.116011 187.231839 
L 159.890653 187.534791 
L 159.113678 188.569085 
L 158.195941 189.906332 
L 158.09608 190.058313 
L 157.309367 191.243578 
L 156.489195 192.580824 
L 156.301508 192.898739 
L 155.689795 193.91807 
L 154.938425 195.255317 
L 154.506935 196.075107 
L 154.227071 196.592563 
L 153.544173 197.929809 
L 152.92859 199.267055 
L 152.712362 199.782002 
L 152.351025 200.604302 
L 151.830618 201.941548 
L 151.387945 203.278794 
L 151.023646 204.61604 
L 150.917789 205.11398 
L 150.727398 205.953286 
L 150.520477 207.290533 
L 150.420749 208.627779 
L 150.444018 209.965025 
L 150.615132 211.302271 
L 150.917789 212.450142 
L 150.970529 212.639518 
L 151.565342 213.976764 
L 152.477989 215.31401 
L 152.712362 215.575907 
L 153.806569 216.651256 
L 154.506935 217.214226 
L 155.570163 217.988503 
L 156.301508 218.487018 
L 157.545638 219.325749 
L 158.09608 219.721995 
L 159.293538 220.662995 
L 159.890653 221.233134 
L 160.594721 222.000241 
L 161.509923 223.337487 
L 161.685226 223.69398 
L 162.131563 224.674734 
L 162.58053 226.01198 
L 162.936986 227.349226 
L 163.268002 228.686472 
L 163.479799 229.462149 
L 163.658963 230.023719 
L 164.232982 231.360965 
L 165.132032 232.698211 
L 165.274372 232.853456 
L 166.810278 234.035457 
L 167.068945 234.186215 
L 168.863518 234.92453 
L 170.65809 235.372704 
L 170.65809 235.372704 
L 172.452663 235.623696 
z
" clip-path="url(#p122f2db935)" style="fill: none; stroke: #4c72b0; stroke-width: 1.5"/>
   </g>
   <g id="PathCollection_3">
    <path d="M 181.425528 225.170638 
L 183.220101 225.564063 
L 185.014673 225.813709 
L 186.809246 225.951185 
L 188.603819 226.001652 
L 190.398392 225.986452 
L 192.192965 225.92404 
L 193.987538 225.830164 
L 195.782111 225.717809 
L 197.576683 225.597061 
L 199.371256 225.474835 
L 201.165829 225.354381 
L 202.960402 225.234673 
L 204.754975 225.110064 
L 206.549548 224.970771 
L 208.344121 224.804563 
L 209.474583 224.674734 
L 210.138693 224.600847 
L 211.933266 224.349953 
L 213.727839 224.042165 
L 215.522412 223.675225 
L 216.939926 223.337487 
L 217.316985 223.249268 
L 219.111558 222.767048 
L 220.906131 222.22816 
L 221.593467 222.000241 
L 222.700704 221.634512 
L 224.495276 220.987073 
L 225.32597 220.662995 
L 226.289849 220.284753 
L 228.084422 219.526826 
L 228.5329 219.325749 
L 229.878995 218.713899 
L 231.372821 217.988503 
L 231.673568 217.840174 
L 233.468141 216.911144 
L 233.94844 216.651256 
L 235.262714 215.926276 
L 236.325988 215.31401 
L 237.057286 214.885681 
L 238.556081 213.976764 
L 238.851859 213.795061 
L 240.646432 212.664242 
L 240.685442 212.639518 
L 242.441005 211.513463 
L 242.767834 211.302271 
L 244.235578 210.347898 
L 244.824411 209.965025 
L 246.030151 209.180645 
L 246.88529 208.627779 
L 247.824724 208.023279 
L 248.975839 207.290533 
L 249.619296 206.884602 
L 251.115724 205.953286 
L 251.413869 205.769967 
L 253.208442 204.687668 
L 253.331369 204.61604 
L 255.003015 203.652313 
L 255.661661 203.278794 
L 256.797588 202.642437 
L 258.062064 201.941548 
L 258.592161 201.651661 
L 260.386734 200.678982 
L 260.527622 200.604302 
L 262.181307 199.73941 
L 263.07559 199.267055 
L 263.975879 198.799116 
L 265.619358 197.929809 
L 265.770452 197.851421 
L 267.565025 196.916462 
L 268.171451 196.592563 
L 269.359598 195.97368 
L 270.694444 195.255317 
L 271.154171 195.015171 
L 272.948744 194.050095 
L 273.187103 193.91807 
L 274.743317 193.087277 
L 275.656087 192.580824 
L 276.537889 192.110442 
L 278.100913 191.243578 
L 278.332462 191.120121 
L 280.127035 190.128019 
L 280.511632 189.906332 
L 281.921608 189.124109 
L 282.877093 188.569085 
L 283.716181 188.097291 
L 285.182546 187.231839 
L 285.510754 187.042837 
L 287.305327 185.956611 
L 287.402983 185.894593 
L 289.099899 184.831007 
L 289.514427 184.557347 
L 290.894472 183.648315 
L 291.512176 183.220101 
L 292.689045 182.396989 
L 293.389289 181.882854 
L 294.483618 181.063559 
L 295.145488 180.545608 
L 296.278191 179.633147 
L 296.785692 179.208362 
L 298.072764 178.090824 
L 298.318082 177.871116 
L 299.752168 176.533869 
L 299.867337 176.421762 
L 301.101063 175.196623 
L 301.66191 174.612877 
L 302.378009 173.859377 
L 303.456482 172.673178 
L 303.593529 172.522131 
L 304.760335 171.184884 
L 305.251055 170.603047 
L 305.893319 169.847638 
L 307.003198 168.510392 
L 307.045628 168.458205 
L 308.10551 167.173146 
L 308.840201 166.280738 
L 309.212993 165.835899 
L 310.336593 164.498653 
L 310.634774 164.148126 
L 311.487494 163.161407 
L 312.429347 162.092138 
L 312.668822 161.824161 
L 313.880385 160.486915 
L 314.22392 160.113007 
L 315.115326 159.149668 
L 316.018492 158.177333 
L 316.358923 157.812422 
L 317.593768 156.475176 
L 317.813065 156.231967 
L 318.800084 155.13793 
L 319.607638 154.203031 
L 319.955478 153.800683 
L 321.039698 152.463437 
L 321.402211 151.974013 
L 322.033974 151.126191 
L 322.920094 149.788945 
L 323.196784 149.296547 
L 323.679303 148.451698 
L 324.292522 147.114452 
L 324.742707 145.777206 
L 324.991357 144.508518 
L 325.005269 144.43996 
L 325.054131 143.102714 
L 324.991357 142.597652 
L 324.877472 141.765467 
L 324.478602 140.428221 
L 323.903042 139.090975 
L 323.224663 137.753729 
L 323.196784 137.699285 
L 322.522722 136.416482 
L 321.853174 135.079236 
L 321.402211 134.127085 
L 321.21782 133.74199 
L 320.574782 132.404744 
L 319.845977 131.067497 
L 319.607638 130.70284 
L 318.938128 129.730251 
L 317.813065 128.46904 
L 317.740472 128.393005 
L 316.142584 127.055759 
L 316.018492 126.969792 
L 314.22392 125.816907 
L 314.059067 125.718513 
L 312.429347 124.847277 
L 311.499356 124.381266 
L 310.634774 123.967379 
L 308.840201 123.142185 
L 308.619135 123.04402 
L 307.045628 122.327177 
L 305.612175 121.706774 
L 305.251055 121.539847 
L 303.456482 120.763881 
L 302.438371 120.369528 
L 301.66191 120.04934 
L 299.867337 119.423183 
L 298.449251 119.032281 
L 298.072764 118.928735 
L 296.278191 118.557608 
L 294.483618 118.318213 
L 292.689045 118.188995 
L 290.894472 118.151861 
L 289.099899 118.193068 
L 287.305327 118.30305 
L 285.510754 118.476013 
L 283.716181 118.709624 
L 281.921608 119.004787 
L 281.786004 119.032281 
L 280.127035 119.342888 
L 278.332462 119.734743 
L 276.537889 120.186814 
L 275.898925 120.369528 
L 274.743317 120.675584 
L 272.948744 121.204147 
L 271.407997 121.706774 
L 271.154171 121.783941 
L 269.359598 122.36786 
L 267.565025 122.999355 
L 267.44296 123.04402 
L 265.770452 123.617125 
L 263.975879 124.264133 
L 263.6566 124.381266 
L 262.181307 124.891954 
L 260.386734 125.529133 
L 259.85463 125.718513 
L 258.592161 126.14602 
L 256.797588 126.757562 
L 255.920122 127.055759 
L 255.003015 127.355171 
L 253.208442 127.936777 
L 251.804624 128.393005 
L 251.413869 128.516406 
L 249.619296 129.07173 
L 247.824724 129.63329 
L 247.50708 129.730251 
L 246.030151 130.174687 
L 244.235578 130.717858 
L 243.07999 131.067497 
L 242.441005 131.260988 
L 240.646432 131.798577 
L 238.851859 132.354272 
L 238.687651 132.404744 
L 237.057286 132.91401 
L 235.262714 133.507542 
L 234.584352 133.74199 
L 233.468141 134.137763 
L 231.673568 134.824235 
L 231.055076 135.079236 
L 229.878995 135.578781 
L 228.084422 136.415443 
L 228.082359 136.416482 
L 226.289849 137.345862 
L 225.565574 137.753729 
L 224.495276 138.372052 
L 223.337059 139.090975 
L 222.700704 139.493446 
L 221.309951 140.428221 
L 220.906131 140.702164 
L 219.415377 141.765467 
L 219.111558 141.981817 
L 217.599307 143.102714 
L 217.316985 143.309414 
L 215.819809 144.43996 
L 215.522412 144.659807 
L 214.045152 145.777206 
L 213.727839 146.010754 
L 212.252887 147.114452 
L 211.933266 147.346597 
L 210.429815 148.451698 
L 210.138693 148.659657 
L 208.572545 149.788945 
L 208.344121 149.949772 
L 206.688019 151.126191 
L 206.549548 151.222983 
L 204.793161 152.463437 
L 204.754975 152.490244 
L 202.960402 153.765289 
L 202.911016 153.800683 
L 201.165829 155.068913 
L 201.072186 155.13793 
L 199.371256 156.425848 
L 199.307278 156.475176 
L 197.636552 157.812422 
L 197.576683 157.862256 
L 196.067955 159.149668 
L 195.782111 159.406327 
L 194.607056 160.486915 
L 193.987538 161.090144 
L 193.249094 161.824161 
L 192.192965 162.938312 
L 191.984663 163.161407 
L 190.780604 164.498653 
L 190.398392 164.939808 
L 189.626146 165.835899 
L 188.603819 167.073014 
L 188.520725 167.173146 
L 187.418338 168.510392 
L 186.809246 169.267023 
L 186.333869 169.847638 
L 185.253211 171.184884 
L 185.014673 171.481133 
L 184.152851 172.522131 
L 183.220101 173.665615 
L 183.056177 173.859377 
L 181.929258 175.196623 
L 181.425528 175.800812 
L 180.788944 176.533869 
L 179.648052 177.871116 
L 179.630955 177.891191 
L 178.464405 179.208362 
L 177.836382 179.932362 
L 177.282294 180.545608 
L 176.104267 181.882854 
L 176.041809 181.954162 
L 174.896175 183.220101 
L 174.247236 183.958885 
L 173.704697 184.557347 
L 172.532775 185.894593 
L 172.452663 185.987208 
L 171.349957 187.231839 
L 170.65809 188.047803 
L 170.205586 188.569085 
L 169.093415 189.906332 
L 168.863518 190.193398 
L 168.004246 191.243578 
L 167.068945 192.468151 
L 166.980892 192.580824 
L 165.990053 193.91807 
L 165.274372 194.972999 
L 165.077844 195.255317 
L 164.225327 196.592563 
L 163.479799 197.906707 
L 163.466292 197.929809 
L 162.783497 199.267055 
L 162.211034 200.604302 
L 161.753173 201.941548 
L 161.685226 202.227309 
L 161.425864 203.278794 
L 161.257229 204.61604 
L 161.278023 205.953286 
L 161.532732 207.290533 
L 161.685226 207.686221 
L 162.102805 208.627779 
L 163.068486 209.965025 
L 163.479799 210.382156 
L 164.528829 211.302271 
L 165.274372 211.852903 
L 166.424621 212.639518 
L 167.068945 213.066785 
L 168.403124 213.976764 
L 168.863518 214.318664 
L 170.076707 215.31401 
L 170.65809 215.875126 
L 171.386074 216.651256 
L 172.452663 217.988503 
L 172.452663 217.988503 
L 173.40707 219.325749 
L 174.247236 220.476602 
L 174.394658 220.662995 
L 175.589314 222.000241 
L 176.041809 222.426201 
L 177.233458 223.337487 
L 177.836382 223.721271 
L 179.630955 224.587239 
L 179.872497 224.674734 
L 181.425528 225.170638 
z
" clip-path="url(#p122f2db935)" style="fill: none; stroke: #4c72b0; stroke-width: 1.5"/>
   </g>
   <g id="PathCollection_4">
    <path d="M 193.987538 219.509314 
L 195.782111 219.591423 
L 197.576683 219.593627 
L 199.371256 219.533445 
L 201.165829 219.424806 
L 202.380958 219.325749 
L 202.960402 219.279751 
L 204.754975 219.110031 
L 206.549548 218.918259 
L 208.344121 218.705546 
L 210.138693 218.47003 
L 211.933266 218.207271 
L 213.263568 217.988503 
L 213.727839 217.913261 
L 215.522412 217.582966 
L 217.316985 217.199456 
L 219.111558 216.75575 
L 219.479877 216.651256 
L 220.906131 216.252152 
L 222.700704 215.677387 
L 223.70467 215.31401 
L 224.495276 215.03275 
L 226.289849 214.316871 
L 227.059102 213.976764 
L 228.084422 213.532881 
L 229.878995 212.675968 
L 229.949449 212.639518 
L 231.673568 211.768511 
L 232.524723 211.302271 
L 233.468141 210.801156 
L 234.928569 209.965025 
L 235.262714 209.780552 
L 237.057286 208.722807 
L 237.21065 208.627779 
L 238.851859 207.645513 
L 239.415833 207.290533 
L 240.646432 206.543903 
L 241.577992 205.953286 
L 242.441005 205.425914 
L 243.717394 204.61604 
L 244.235578 204.298631 
L 245.849077 203.278794 
L 246.030151 203.167985 
L 247.824724 202.048929 
L 247.995342 201.941548 
L 249.619296 200.946161 
L 250.169979 200.604302 
L 251.413869 199.849687 
L 252.365137 199.267055 
L 253.208442 198.760468 
L 254.581445 197.929809 
L 255.003015 197.678735 
L 256.797588 196.60542 
L 256.819473 196.592563 
L 258.592161 195.564644 
L 259.123514 195.255317 
L 260.386734 194.527248 
L 261.440116 193.91807 
L 262.181307 193.492254 
L 263.764522 192.580824 
L 263.975879 192.459464 
L 265.770452 191.446283 
L 266.132612 191.243578 
L 267.565025 190.443793 
L 268.528939 189.906332 
L 269.359598 189.441807 
L 270.929736 188.569085 
L 271.154171 188.443133 
L 272.948744 187.462651 
L 273.377523 187.231839 
L 274.743317 186.489458 
L 275.848072 185.894593 
L 276.537889 185.516243 
L 278.306677 184.557347 
L 278.332462 184.542969 
L 280.127035 183.565235 
L 280.758038 183.220101 
L 281.921608 182.56497 
L 283.12239 181.882854 
L 283.716181 181.532013 
L 285.360967 180.545608 
L 285.510754 180.451233 
L 287.305327 179.29559 
L 287.43591 179.208362 
L 289.099899 178.039826 
L 289.330892 177.871116 
L 290.894472 176.661586 
L 291.053099 176.533869 
L 292.61171 175.196623 
L 292.689045 175.125184 
L 294.012332 173.859377 
L 294.483618 173.376939 
L 295.292146 172.522131 
L 296.278191 171.416203 
L 296.478829 171.184884 
L 297.57163 169.847638 
L 298.072764 169.213072 
L 298.615278 168.510392 
L 299.635947 167.173146 
L 299.867337 166.871885 
L 300.647662 165.835899 
L 301.66191 164.539084 
L 301.693091 164.498653 
L 302.767913 163.161407 
L 303.456482 162.349941 
L 303.897507 161.824161 
L 305.0745 160.486915 
L 305.251055 160.293268 
L 306.286575 159.149668 
L 307.045628 158.325526 
L 307.517059 157.812422 
L 308.738498 156.475176 
L 308.840201 156.35927 
L 309.918099 155.13793 
L 310.634774 154.267857 
L 311.02332 153.800683 
L 312.015333 152.463437 
L 312.429347 151.798388 
L 312.85641 151.126191 
L 313.505009 149.788945 
L 313.924589 148.451698 
L 314.070435 147.114452 
L 313.908107 145.777206 
L 313.436905 144.43996 
L 312.711082 143.102714 
L 312.429347 142.665413 
L 311.848925 141.765467 
L 310.982618 140.428221 
L 310.634774 139.851573 
L 310.204271 139.090975 
L 309.511298 137.753729 
L 308.840201 136.4254 
L 308.835871 136.416482 
L 308.124511 135.079236 
L 307.244515 133.74199 
L 307.045628 133.498726 
L 306.096598 132.404744 
L 305.251055 131.646316 
L 304.541151 131.067497 
L 303.456482 130.339501 
L 302.43425 129.730251 
L 301.66191 129.326726 
L 299.867337 128.496912 
L 299.616889 128.393005 
L 298.072764 127.791566 
L 296.278191 127.178334 
L 295.882142 127.055759 
L 294.483618 126.630297 
L 292.689045 126.143964 
L 290.895704 125.718513 
L 290.894472 125.71822 
L 289.099899 125.341796 
L 287.305327 125.041189 
L 285.510754 124.826848 
L 283.716181 124.707961 
L 281.921608 124.689546 
L 280.127035 124.771286 
L 278.332462 124.948331 
L 276.537889 125.213317 
L 274.743317 125.558535 
L 274.066086 125.718513 
L 272.948744 125.970963 
L 271.154171 126.440123 
L 269.359598 126.962609 
L 269.066025 127.055759 
L 267.565025 127.518176 
L 265.770452 128.105468 
L 264.928807 128.393005 
L 263.975879 128.712718 
L 262.181307 129.330583 
L 261.039216 129.730251 
L 260.386734 129.956704 
L 258.592161 130.580366 
L 257.194787 131.067497 
L 256.797588 131.205937 
L 255.003015 131.825191 
L 253.330435 132.404744 
L 253.208442 132.447286 
L 251.413869 133.067734 
L 249.619296 133.697624 
L 249.493151 133.74199 
L 247.824724 134.336082 
L 246.030151 134.993287 
L 245.798157 135.079236 
L 244.235578 135.66927 
L 242.441005 136.374635 
L 242.335864 136.416482 
L 240.646432 137.105847 
L 239.132197 137.753729 
L 238.851859 137.876754 
L 237.057286 138.681946 
L 236.182016 139.090975 
L 235.262714 139.531817 
L 233.480547 140.428221 
L 233.468141 140.43459 
L 231.673568 141.374829 
L 230.96239 141.765467 
L 229.878995 142.36845 
L 228.617255 143.102714 
L 228.084422 143.413987 
L 226.39864 144.43996 
L 226.289849 144.505835 
L 224.495276 145.624874 
L 224.259571 145.777206 
L 222.700704 146.767678 
L 222.173383 147.114452 
L 220.906131 147.929355 
L 220.1175 148.451698 
L 219.111558 149.101786 
L 218.074511 149.788945 
L 217.316985 150.279176 
L 216.035405 151.126191 
L 215.522412 151.458603 
L 213.999412 152.463437 
L 213.727839 152.640204 
L 211.973663 153.800683 
L 211.933266 153.82726 
L 210.138693 155.024151 
L 209.971237 155.13793 
L 208.344121 156.245649 
L 208.013895 156.475176 
L 206.549548 157.505439 
L 206.123245 157.812422 
L 204.754975 158.81971 
L 204.318249 159.149668 
L 202.960402 160.207865 
L 202.612282 160.486915 
L 201.165829 161.691646 
L 201.011317 161.824161 
L 199.515802 163.161407 
L 199.371256 163.296461 
L 198.119612 164.498653 
L 197.576683 165.044308 
L 196.80861 165.835899 
L 195.782111 166.939496 
L 195.569262 167.173146 
L 194.394408 168.510392 
L 193.987538 168.987851 
L 193.265256 169.847638 
L 192.192965 171.153556 
L 192.167436 171.184884 
L 191.098867 172.522131 
L 190.398392 173.404725 
L 190.03815 173.859377 
L 188.98358 175.196623 
L 188.603819 175.67621 
L 187.923347 176.533869 
L 186.850751 177.871116 
L 186.809246 177.922387 
L 185.76545 179.208362 
L 185.014673 180.116068 
L 184.657463 180.545608 
L 183.532245 181.882854 
L 183.220101 182.248389 
L 182.388698 183.220101 
L 181.425528 184.331936 
L 181.229683 184.557347 
L 180.070788 185.894593 
L 179.630955 186.403359 
L 178.915449 187.231839 
L 177.836382 188.49705 
L 177.774896 188.569085 
L 176.676948 189.906332 
L 176.041809 190.710106 
L 175.620161 191.243578 
L 174.631894 192.580824 
L 174.247236 193.148314 
L 173.724375 193.91807 
L 172.91727 195.255317 
L 172.452663 196.152436 
L 172.223455 196.592563 
L 171.685657 197.929809 
L 171.311975 199.267055 
L 171.146903 200.604302 
L 171.252224 201.941548 
L 171.702783 203.278794 
L 172.452663 204.448487 
L 172.583218 204.61604 
L 174.009795 205.953286 
L 174.247236 206.137806 
L 175.824497 207.290533 
L 176.041809 207.444023 
L 177.629605 208.627779 
L 177.836382 208.794212 
L 179.138467 209.965025 
L 179.630955 210.471455 
L 180.363639 211.302271 
L 181.422346 212.639518 
L 181.425528 212.643666 
L 182.443894 213.976764 
L 183.220101 214.905284 
L 183.587306 215.31401 
L 185.014673 216.614739 
L 185.06149 216.651256 
L 186.809246 217.737216 
L 187.331695 217.988503 
L 188.603819 218.490151 
L 190.398392 218.996532 
L 192.192965 219.325749 
L 192.192965 219.325749 
L 193.987538 219.509314 
z
" clip-path="url(#p122f2db935)" style="fill: none; stroke: #4c72b0; stroke-width: 1.5"/>
   </g>
   <g id="PathCollection_5">
    <path d="M 199.371256 214.058959 
L 201.165829 214.194773 
L 202.960402 214.207367 
L 204.754975 214.123811 
L 206.398288 213.976764 
L 206.549548 213.963325 
L 208.344121 213.740131 
L 210.138693 213.470131 
L 211.933266 213.158454 
L 213.727839 212.806657 
L 214.499749 212.639518 
L 215.522412 212.421812 
L 217.316985 212.005087 
L 219.111558 211.545775 
L 219.977426 211.302271 
L 220.906131 211.048213 
L 222.700704 210.508613 
L 224.329158 209.965025 
L 224.495276 209.911507 
L 226.289849 209.274746 
L 227.935739 208.627779 
L 228.084422 208.571743 
L 229.878995 207.827794 
L 231.058469 207.290533 
L 231.673568 207.022833 
L 233.468141 206.171353 
L 233.89165 205.953286 
L 235.262714 205.278603 
L 236.512314 204.61604 
L 237.057286 204.338863 
L 238.851859 203.364067 
L 239.00022 203.278794 
L 240.646432 202.367114 
L 241.37647 201.941548 
L 242.441005 201.340331 
L 243.689249 200.604302 
L 244.235578 200.29038 
L 245.954969 199.267055 
L 246.030151 199.223199 
L 247.824724 198.152516 
L 248.19042 197.929809 
L 249.619296 197.07265 
L 250.407223 196.592563 
L 251.413869 195.985335 
L 252.611481 195.255317 
L 253.208442 194.893338 
L 254.806826 193.91807 
L 255.003015 193.79843 
L 256.797588 192.705923 
L 257.003785 192.580824 
L 258.592161 191.61363 
L 259.200712 191.243578 
L 260.386734 190.515734 
L 261.383594 189.906332 
L 262.181307 189.411064 
L 263.546587 188.569085 
L 263.975879 188.298224 
L 265.683385 187.231839 
L 265.770452 187.175733 
L 267.565025 186.04365 
L 267.806279 185.894593 
L 269.359598 184.895174 
L 269.89763 184.557347 
L 271.154171 183.726728 
L 271.944862 183.220101 
L 272.948744 182.53501 
L 273.941364 181.882854 
L 274.743317 181.314949 
L 275.878721 180.545608 
L 276.537889 180.05856 
L 277.745969 179.208362 
L 278.332462 178.753513 
L 279.529524 177.871116 
L 280.127035 177.381665 
L 281.21449 176.533869 
L 281.921608 175.918276 
L 282.787958 175.196623 
L 283.716181 174.333486 
L 284.244083 173.859377 
L 285.510754 172.598464 
L 285.589155 172.522131 
L 286.865117 171.184884 
L 287.305327 170.693502 
L 288.071212 169.847638 
L 289.099899 168.667445 
L 289.236397 168.510392 
L 290.411929 167.173146 
L 290.894472 166.631795 
L 291.597626 165.835899 
L 292.689045 164.630941 
L 292.807035 164.498653 
L 294.05789 163.161407 
L 294.483618 162.716596 
L 295.330668 161.824161 
L 296.278191 160.837839 
L 296.612862 160.486915 
L 297.888473 159.149668 
L 298.072764 158.949657 
L 299.129144 157.812422 
L 299.867337 156.966085 
L 300.30088 156.475176 
L 301.367567 155.13793 
L 301.66191 154.700095 
L 302.283411 153.800683 
L 303.004209 152.463437 
L 303.456482 151.193415 
L 303.481336 151.126191 
L 303.675 149.788945 
L 303.578938 148.451698 
L 303.456482 147.975346 
L 303.239454 147.114452 
L 302.757699 145.777206 
L 302.229258 144.43996 
L 301.715562 143.102714 
L 301.66191 142.958982 
L 301.250207 141.765467 
L 300.773521 140.428221 
L 300.223371 139.090975 
L 299.867337 138.398012 
L 299.521886 137.753729 
L 298.561968 136.416482 
L 298.072764 135.898334 
L 297.201686 135.079236 
L 296.278191 134.393052 
L 295.266761 133.74199 
L 294.483618 133.314909 
L 292.689045 132.468206 
L 292.537617 132.404744 
L 290.894472 131.779204 
L 289.099899 131.187214 
L 288.691151 131.067497 
L 287.305327 130.683541 
L 285.510754 130.259837 
L 283.716181 129.920168 
L 282.344263 129.730251 
L 281.921608 129.673934 
L 280.127035 129.530993 
L 278.332462 129.497593 
L 276.537889 129.574413 
L 275.014639 129.730251 
L 274.743317 129.757127 
L 272.948744 130.038563 
L 271.154171 130.406531 
L 269.359598 130.848839 
L 268.589174 131.067497 
L 267.565025 131.354992 
L 265.770452 131.911571 
L 264.28464 132.404744 
L 263.975879 132.50723 
L 262.181307 133.132617 
L 260.483561 133.74199 
L 260.386734 133.777037 
L 258.592161 134.435099 
L 256.852111 135.079236 
L 256.797588 135.099692 
L 255.003015 135.769966 
L 253.28109 136.416482 
L 253.208442 136.444164 
L 251.413869 137.125844 
L 249.785704 137.753729 
L 249.619296 137.818741 
L 247.824724 138.528416 
L 246.44596 139.090975 
L 246.030151 139.26224 
L 244.235578 140.024806 
L 243.325348 140.428221 
L 242.441005 140.822358 
L 240.646432 141.661393 
L 240.432298 141.765467 
L 238.851859 142.53545 
L 237.746277 143.102714 
L 237.057286 143.455059 
L 235.262714 144.419522 
L 235.22585 144.43996 
L 233.468141 145.40949 
L 232.829281 145.777206 
L 231.673568 146.436759 
L 230.530537 147.114452 
L 229.878995 147.496952 
L 228.305603 148.451698 
L 228.084422 148.584715 
L 226.289849 149.688931 
L 226.130024 149.788945 
L 224.495276 150.805243 
L 223.988084 151.126191 
L 222.700704 151.939184 
L 221.88052 152.463437 
L 220.906131 153.08889 
L 219.804651 153.800683 
L 219.111558 154.25389 
L 217.762135 155.13793 
L 217.316985 155.435537 
L 215.758718 156.475176 
L 215.522412 156.637509 
L 213.803861 157.812422 
L 213.727839 157.866413 
L 211.933266 159.132762 
L 211.909288 159.149668 
L 210.138693 160.451054 
L 210.090027 160.486915 
L 208.360457 161.824161 
L 208.344121 161.837549 
L 206.72854 163.161407 
L 206.549548 163.317423 
L 205.200011 164.498653 
L 204.754975 164.91307 
L 203.772626 165.835899 
L 202.960402 166.645226 
L 202.437397 167.173146 
L 201.180746 168.510392 
L 201.165829 168.527179 
L 200.004055 169.847638 
L 199.371256 170.597608 
L 198.881792 171.184884 
L 197.803155 172.522131 
L 197.576683 172.812791 
L 196.767417 173.859377 
L 195.782111 175.145178 
L 195.743019 175.196623 
L 194.750513 176.533869 
L 193.987538 177.551908 
L 193.74937 177.871116 
L 192.757774 179.208362 
L 192.192965 179.958619 
L 191.752094 180.545608 
L 190.734919 181.882854 
L 190.398392 182.32323 
L 189.714881 183.220101 
L 188.663999 184.557347 
L 188.603819 184.636356 
L 187.651044 185.894593 
L 186.809246 186.983951 
L 186.619742 187.231839 
L 185.655735 188.569085 
L 185.014673 189.491301 
L 184.730988 189.906332 
L 183.928351 191.243578 
L 183.220101 192.580824 
L 183.220101 192.580824 
L 182.75766 193.91807 
L 182.526207 195.255317 
L 182.615282 196.592563 
L 183.100182 197.929809 
L 183.220101 198.11946 
L 184.049676 199.267055 
L 185.014673 200.31427 
L 185.27627 200.604302 
L 186.535318 201.941548 
L 186.809246 202.240214 
L 187.640635 203.278794 
L 188.597733 204.61604 
L 188.603819 204.625162 
L 189.397603 205.953286 
L 190.141538 207.290533 
L 190.398392 207.743476 
L 190.886846 208.627779 
L 191.744793 209.965025 
L 192.192965 210.521978 
L 192.890431 211.302271 
L 193.987538 212.192218 
L 194.683831 212.639518 
L 195.782111 213.158714 
L 197.576683 213.736383 
L 198.838532 213.976764 
L 199.371256 214.058959 
z
" clip-path="url(#p122f2db935)" style="fill: none; stroke: #4c72b0; stroke-width: 1.5"/>
   </g>
   <g id="PathCollection_6">
    <path d="M 206.549548 208.720868 
L 208.344121 208.799362 
L 210.138693 208.726126 
L 211.070744 208.627779 
L 211.933266 208.536008 
L 213.727839 208.257094 
L 215.522412 207.919159 
L 217.316985 207.532917 
L 218.322472 207.290533 
L 219.111558 207.101053 
L 220.906131 206.632823 
L 222.700704 206.132152 
L 223.293428 205.953286 
L 224.495276 205.595532 
L 226.289849 205.024445 
L 227.480966 204.61604 
L 228.084422 204.412812 
L 229.878995 203.75958 
L 231.103823 203.278794 
L 231.673568 203.059792 
L 233.468141 202.313588 
L 234.297625 201.941548 
L 235.262714 201.518084 
L 237.057286 200.678084 
L 237.203706 200.604302 
L 238.851859 199.790806 
L 239.858068 199.267055 
L 240.646432 198.862957 
L 242.385553 197.929809 
L 242.441005 197.900365 
L 244.235578 196.902424 
L 244.774606 196.592563 
L 246.030151 195.876312 
L 247.091462 195.255317 
L 247.824724 194.827745 
L 249.355267 193.91807 
L 249.619296 193.761098 
L 251.413869 192.678064 
L 251.573234 192.580824 
L 253.208442 191.578852 
L 253.75247 191.243578 
L 255.003015 190.466319 
L 255.900983 189.906332 
L 256.797588 189.339737 
L 258.014887 188.569085 
L 258.592161 188.196694 
L 260.08663 187.231839 
L 260.386734 187.033127 
L 262.106341 185.894593 
L 262.181307 185.843304 
L 263.975879 184.618237 
L 264.065858 184.557347 
L 265.770452 183.349241 
L 265.954804 183.220101 
L 267.565025 182.026738 
L 267.76238 181.882854 
L 269.359598 180.638001 
L 269.480793 180.545608 
L 271.107044 179.208362 
L 271.154171 179.166631 
L 272.651137 177.871116 
L 272.948744 177.591324 
L 274.107076 176.533869 
L 274.743317 175.901037 
L 275.477047 175.196623 
L 276.537889 174.088043 
L 276.765688 173.859377 
L 278.016622 172.522131 
L 278.332462 172.167404 
L 279.241625 171.184884 
L 280.127035 170.179355 
L 280.431137 169.847638 
L 281.631661 168.510392 
L 281.921608 168.183517 
L 282.854731 167.173146 
L 283.716181 166.218655 
L 284.075838 165.835899 
L 285.316378 164.498653 
L 285.510754 164.285015 
L 286.581021 163.161407 
L 287.305327 162.368489 
L 287.825814 161.824161 
L 289.03846 160.486915 
L 289.099899 160.41378 
L 290.221581 159.149668 
L 290.894472 158.30481 
L 291.308379 157.812422 
L 292.283123 156.475176 
L 292.689045 155.795548 
L 293.105498 155.13793 
L 293.749137 153.800683 
L 294.185543 152.463437 
L 294.425141 151.126191 
L 294.483618 150.105372 
L 294.502503 149.788945 
L 294.483618 149.213262 
L 294.460241 148.451698 
L 294.340372 147.114452 
L 294.160948 145.777206 
L 293.915428 144.43996 
L 293.572489 143.102714 
L 293.078821 141.765467 
L 292.689045 141.020471 
L 292.345101 140.428221 
L 291.255345 139.090975 
L 290.894472 138.755238 
L 289.647144 137.753729 
L 289.099899 137.399555 
L 287.33495 136.416482 
L 287.305327 136.402347 
L 285.510754 135.643212 
L 283.920804 135.079236 
L 283.716181 135.014319 
L 281.921608 134.536528 
L 280.127035 134.178387 
L 278.332462 133.946838 
L 276.537889 133.845542 
L 274.743317 133.872894 
L 272.948744 134.022052 
L 271.154171 134.28225 
L 269.359598 134.640556 
L 267.582368 135.079236 
L 267.565025 135.083505 
L 265.770452 135.606048 
L 263.975879 136.183724 
L 263.307413 136.416482 
L 262.181307 136.810122 
L 260.386734 137.470124 
L 259.641086 137.753729 
L 258.592161 138.155155 
L 256.797588 138.855908 
L 256.20185 139.090975 
L 255.003015 139.566507 
L 253.208442 140.284816 
L 252.851813 140.428221 
L 251.413869 141.007171 
L 249.619296 141.741547 
L 249.561615 141.765467 
L 247.824724 142.482333 
L 246.369968 143.102714 
L 246.030151 143.246097 
L 244.235578 144.0286 
L 243.334701 144.43996 
L 242.441005 144.841642 
L 240.646432 145.691449 
L 240.473849 145.777206 
L 238.851859 146.568702 
L 237.795892 147.114452 
L 237.057286 147.489012 
L 235.262714 148.451698 
L 235.262714 148.451698 
L 233.468141 149.43968 
L 232.863168 149.788945 
L 231.673568 150.467775 
L 230.567609 151.126191 
L 229.878995 151.533657 
L 228.363996 152.463437 
L 228.084422 152.635199 
L 226.289849 153.770044 
L 226.242112 153.800683 
L 224.495276 154.935744 
L 224.188662 155.13793 
L 222.700704 156.140738 
L 222.208252 156.475176 
L 220.906131 157.388198 
L 220.301509 157.812422 
L 219.111558 158.683531 
L 218.470922 159.149668 
L 217.316985 160.034883 
L 216.720462 160.486915 
L 215.522412 161.453645 
L 215.055102 161.824161 
L 213.727839 162.954848 
L 213.480064 163.161407 
L 211.995429 164.498653 
L 211.933266 164.559481 
L 210.587964 165.835899 
L 210.138693 166.304592 
L 209.278126 167.173146 
L 208.344121 168.21158 
L 208.066261 168.510392 
L 206.930328 169.847638 
L 206.549548 170.344253 
L 205.876918 171.184884 
L 204.907182 172.522131 
L 204.754975 172.757152 
L 204.003131 173.859377 
L 203.176355 175.196623 
L 202.960402 175.592611 
L 202.415332 176.533869 
L 201.720217 177.871116 
L 201.165829 179.064095 
L 201.094164 179.208362 
L 200.524675 180.545608 
L 200.015603 181.882854 
L 199.570831 183.220101 
L 199.371256 183.936341 
L 199.180518 184.557347 
L 198.830892 185.894593 
L 198.534201 187.231839 
L 198.293489 188.569085 
L 198.110445 189.906332 
L 197.986362 191.243578 
L 197.923599 192.580824 
L 197.926062 193.91807 
L 197.998091 195.255317 
L 198.142004 196.592563 
L 198.355406 197.929809 
L 198.630213 199.267055 
L 198.955718 200.604302 
L 199.326619 201.941548 
L 199.371256 202.082573 
L 199.751472 203.278794 
L 200.294566 204.61604 
L 201.060698 205.953286 
L 201.165829 206.084085 
L 202.393186 207.290533 
L 202.960402 207.652664 
L 204.754975 208.389757 
L 205.92842 208.627779 
L 206.549548 208.720868 
z
" clip-path="url(#p122f2db935)" style="fill: none; stroke: #4c72b0; stroke-width: 1.5"/>
   </g>
   <g id="PathCollection_7">
    <path d="M 215.522412 201.992253 
L 217.316985 201.962569 
L 217.515423 201.941548 
L 219.111558 201.774871 
L 220.906131 201.482536 
L 222.700704 201.118677 
L 224.495276 200.701361 
L 224.862086 200.604302 
L 226.289849 200.226079 
L 228.084422 199.710489 
L 229.522333 199.267055 
L 229.878995 199.156625 
L 231.673568 198.549419 
L 233.40518 197.929809 
L 233.468141 197.907164 
L 235.262714 197.200488 
L 236.727198 196.592563 
L 237.057286 196.454922 
L 238.851859 195.647948 
L 239.678051 195.255317 
L 240.646432 194.793692 
L 242.406674 193.91807 
L 242.441005 193.900927 
L 244.235578 192.949179 
L 244.907709 192.580824 
L 246.030151 191.963731 
L 247.304767 191.243578 
L 247.824724 190.948699 
L 249.619296 189.906332 
L 249.619296 189.906332 
L 251.413869 188.823772 
L 251.829311 188.569085 
L 253.208442 187.716084 
L 253.97895 187.231839 
L 255.003015 186.580468 
L 256.063035 185.894593 
L 256.797588 185.411592 
L 258.072296 184.557347 
L 258.592161 184.201512 
L 259.996227 183.220101 
L 260.386734 182.939693 
L 261.826045 181.882854 
L 262.181307 181.613226 
L 263.55682 180.545608 
L 263.975879 180.207403 
L 265.188268 179.208362 
L 265.770452 178.706938 
L 266.724217 177.871116 
L 267.565025 177.098054 
L 268.171289 176.533869 
L 269.359598 175.371489 
L 269.537417 175.196623 
L 270.842288 173.859377 
L 271.154171 173.528998 
L 272.102135 172.522131 
L 272.948744 171.590581 
L 273.319979 171.184884 
L 274.51223 169.847638 
L 274.743317 169.58368 
L 275.697602 168.510392 
L 276.537889 167.536267 
L 276.859327 167.173146 
L 278.009369 165.835899 
L 278.332462 165.445154 
L 279.145465 164.498653 
L 280.127035 163.291507 
L 280.237959 163.161407 
L 281.299602 161.824161 
L 281.921608 160.966431 
L 282.290217 160.486915 
L 283.198713 159.149668 
L 283.716181 158.266651 
L 283.999895 157.812422 
L 284.678767 156.475176 
L 285.213261 155.13793 
L 285.510754 154.112907 
L 285.605989 153.800683 
L 285.85793 152.463437 
L 285.977142 151.126191 
L 285.974247 149.788945 
L 285.849483 148.451698 
L 285.586796 147.114452 
L 285.510754 146.870342 
L 285.117563 145.777206 
L 284.388099 144.43996 
L 283.716181 143.56524 
L 283.296395 143.102714 
L 281.921608 141.937683 
L 281.682318 141.765467 
L 280.127035 140.85734 
L 279.232214 140.428221 
L 278.332462 140.073107 
L 276.537889 139.538277 
L 274.743317 139.203882 
L 273.28326 139.090975 
L 272.948744 139.069501 
L 271.982817 139.090975 
L 271.154171 139.110069 
L 269.359598 139.306069 
L 267.565025 139.625488 
L 265.770452 140.042318 
L 264.384069 140.428221 
L 263.975879 140.543289 
L 262.181307 141.123167 
L 260.386734 141.740395 
L 260.319147 141.765467 
L 258.592161 142.408089 
L 256.797588 143.088369 
L 256.761106 143.102714 
L 255.003015 143.792696 
L 253.360585 144.43996 
L 253.208442 144.499667 
L 251.413869 145.215306 
L 250.016862 145.777206 
L 249.619296 145.935583 
L 247.824724 146.662929 
L 246.737699 147.114452 
L 246.030151 147.404189 
L 244.235578 148.16224 
L 243.579056 148.451698 
L 242.441005 148.94497 
L 240.646432 149.760579 
L 240.587283 149.788945 
L 238.851859 150.607277 
L 237.812362 151.126191 
L 237.057286 151.49817 
L 235.262714 152.434553 
L 235.210191 152.463437 
L 233.468141 153.414853 
L 232.798112 153.800683 
L 231.673568 154.448526 
L 230.533693 155.13793 
L 229.878995 155.537545 
L 228.407719 156.475176 
L 228.084422 156.6852 
L 226.411426 157.812422 
L 226.289849 157.896861 
L 224.537086 159.149668 
L 224.495276 159.180851 
L 222.778514 160.486915 
L 222.700704 160.549491 
L 221.131569 161.824161 
L 220.906131 162.020397 
L 219.594647 163.161407 
L 219.111558 163.618043 
L 218.16908 164.498653 
L 217.316985 165.375535 
L 216.859328 165.835899 
L 215.665301 167.173146 
L 215.522412 167.353363 
L 214.569679 168.510392 
L 213.727839 169.683683 
L 213.604289 169.847638 
L 212.736056 171.184884 
L 212.000764 172.522131 
L 211.933266 172.670932 
L 211.356582 173.859377 
L 210.824019 175.196623 
L 210.389493 176.533869 
L 210.138693 177.467164 
L 210.021376 177.871116 
L 209.682302 179.208362 
L 209.366562 180.545608 
L 209.056504 181.882854 
L 208.744204 183.220101 
L 208.430957 184.557347 
L 208.344121 184.934379 
L 208.10609 185.894593 
L 207.80457 187.231839 
L 207.553783 188.569085 
L 207.373205 189.906332 
L 207.282997 191.243578 
L 207.30305 192.580824 
L 207.450762 193.91807 
L 207.738484 195.255317 
L 208.173396 196.592563 
L 208.344121 197.000599 
L 208.792845 197.929809 
L 209.651371 199.267055 
L 210.138693 199.848549 
L 211.01908 200.604302 
L 211.933266 201.175101 
L 213.727839 201.784012 
L 214.998364 201.941548 
L 215.522412 201.992253 
z
" clip-path="url(#p122f2db935)" style="fill: none; stroke: #4c72b0; stroke-width: 1.5"/>
   </g>
   <g id="PathCollection_8">
    <path d="M 219.111558 194.066184 
L 220.906131 194.494531 
L 222.700704 194.611606 
L 224.495276 194.516411 
L 226.289849 194.271798 
L 228.084422 193.91807 
L 228.084422 193.91807 
L 229.878995 193.469619 
L 231.673568 192.955345 
L 232.848336 192.580824 
L 233.468141 192.381329 
L 235.262714 191.748301 
L 236.600101 191.243578 
L 237.057286 191.068821 
L 238.851859 190.33365 
L 239.83975 189.906332 
L 240.646432 189.554104 
L 242.441005 188.730229 
L 242.772495 188.569085 
L 244.235578 187.855464 
L 245.46702 187.231839 
L 246.030151 186.94646 
L 247.824724 185.997489 
L 248.009559 185.894593 
L 249.619296 185.000098 
L 250.385862 184.557347 
L 251.413869 183.964761 
L 252.651344 183.220101 
L 253.208442 182.885188 
L 254.796855 181.882854 
L 255.003015 181.752624 
L 256.797588 180.55567 
L 256.811894 180.545608 
L 258.592161 179.280268 
L 258.688211 179.208362 
L 260.386734 177.91877 
L 260.446288 177.871116 
L 262.087369 176.533869 
L 262.181307 176.456273 
L 263.621239 175.196623 
L 263.975879 174.88151 
L 265.068746 173.859377 
L 265.770452 173.191285 
L 266.44387 172.522131 
L 267.565025 171.385474 
L 267.75659 171.184884 
L 269.000067 169.847638 
L 269.359598 169.449399 
L 270.1901 168.510392 
L 271.154171 167.382792 
L 271.332144 167.173146 
L 272.401232 165.835899 
L 272.948744 165.106176 
L 273.408139 164.498653 
L 274.32664 163.161407 
L 274.743317 162.474689 
L 275.146388 161.824161 
L 275.834564 160.486915 
L 276.389903 159.149668 
L 276.537889 158.606106 
L 276.758608 157.812422 
L 276.915904 156.475176 
L 276.839718 155.13793 
L 276.537889 153.942461 
L 276.489777 153.800683 
L 275.732707 152.463437 
L 274.743317 151.252578 
L 274.602247 151.126191 
L 272.948744 149.789567 
L 272.947766 149.788945 
L 271.154171 148.662269 
L 270.746256 148.451698 
L 269.359598 147.797722 
L 267.565025 147.21332 
L 266.989771 147.114452 
L 265.770452 146.959379 
L 263.975879 146.950985 
L 262.181307 147.114016 
L 262.178869 147.114452 
L 260.386734 147.444678 
L 258.592161 147.852736 
L 256.797588 148.305659 
L 256.293993 148.451698 
L 255.003015 148.82933 
L 253.208442 149.376958 
L 251.905651 149.788945 
L 251.413869 149.94479 
L 249.619296 150.549996 
L 247.926447 151.126191 
L 247.824724 151.160772 
L 246.030151 151.817195 
L 244.296776 152.463437 
L 244.235578 152.486211 
L 242.441005 153.206372 
L 241.02166 153.800683 
L 240.646432 153.957829 
L 238.851859 154.7634 
L 238.068941 155.13793 
L 237.057286 155.624405 
L 235.392168 156.475176 
L 235.262714 156.542196 
L 233.468141 157.53802 
L 233.002523 157.812422 
L 231.673568 158.614396 
L 230.834346 159.149668 
L 229.878995 159.781024 
L 228.863004 160.486915 
L 228.084422 161.054918 
L 227.074095 161.824161 
L 226.289849 162.460416 
L 225.45433 163.161407 
L 224.495276 164.032461 
L 223.993557 164.498653 
L 222.700704 165.820934 
L 222.686227 165.835899 
L 221.538148 167.173146 
L 220.906131 168.012061 
L 220.530231 168.510392 
L 219.668902 169.847638 
L 219.111558 170.872871 
L 218.939759 171.184884 
L 218.335614 172.522131 
L 217.836025 173.859377 
L 217.415919 175.196623 
L 217.316985 175.556065 
L 217.045438 176.533869 
L 216.702649 177.871116 
L 216.370154 179.208362 
L 216.039085 180.545608 
L 215.710525 181.882854 
L 215.522412 182.689221 
L 215.398232 183.220101 
L 215.130512 184.557347 
L 214.93307 185.894593 
L 214.840792 187.231839 
L 214.897503 188.569085 
L 215.156735 189.906332 
L 215.522412 190.866113 
L 215.708224 191.243578 
L 216.74862 192.580824 
L 217.316985 193.092239 
L 218.777896 193.91807 
L 219.111558 194.066184 
z
" clip-path="url(#p122f2db935)" style="fill: none; stroke: #4c72b0; stroke-width: 1.5"/>
   </g>
   <g id="PathCollection_9">
    <path d="M 224.495276 186.206741 
L 226.289849 186.860824 
L 228.084422 186.977908 
L 229.878995 186.79118 
L 231.673568 186.419479 
L 233.468141 185.929379 
L 233.573496 185.894593 
L 235.262714 185.312852 
L 237.057286 184.653146 
L 237.300241 184.557347 
L 238.851859 183.920727 
L 240.551049 183.220101 
L 240.646432 183.179165 
L 242.441005 182.387277 
L 243.590054 181.882854 
L 244.235578 181.591314 
L 246.030151 180.772943 
L 246.512369 180.545608 
L 247.824724 179.916859 
L 249.27713 179.208362 
L 249.619296 179.038623 
L 251.413869 178.098591 
L 251.81993 177.871116 
L 253.208442 177.085373 
L 254.122373 176.533869 
L 255.003015 175.995047 
L 256.214977 175.196623 
L 256.797588 174.805552 
L 258.099483 173.859377 
L 258.592161 173.492403 
L 259.794152 172.522131 
L 260.386734 172.028565 
L 261.324707 171.184884 
L 262.181307 170.383786 
L 262.716062 169.847638 
L 263.975879 168.523005 
L 263.987183 168.510392 
L 265.033741 167.173146 
L 265.770452 166.139386 
L 265.976394 165.835899 
L 266.660392 164.498653 
L 267.118604 163.161407 
L 267.178959 161.824161 
L 266.513018 160.486915 
L 265.770452 159.880786 
L 263.975879 159.179394 
L 263.821454 159.149668 
L 262.181307 158.872195 
L 260.386734 158.668765 
L 258.592161 158.457395 
L 256.797588 158.164288 
L 255.207186 157.812422 
L 255.003015 157.76563 
L 253.208442 157.35105 
L 251.413869 157.055666 
L 249.619296 156.951132 
L 247.824724 157.03758 
L 246.030151 157.279366 
L 244.235578 157.639915 
L 243.603547 157.812422 
L 242.441005 158.13669 
L 240.646432 158.73537 
L 239.567365 159.149668 
L 238.851859 159.433525 
L 237.057286 160.243165 
L 236.576843 160.486915 
L 235.262714 161.184874 
L 234.162815 161.824161 
L 233.468141 162.253065 
L 232.123094 163.161407 
L 231.673568 163.489122 
L 230.402014 164.498653 
L 229.878995 164.954636 
L 228.943787 165.835899 
L 228.084422 166.740705 
L 227.700569 167.173146 
L 226.675673 168.510392 
L 226.289849 169.101201 
L 225.833838 169.847638 
L 225.156737 171.184884 
L 224.588458 172.522131 
L 224.495276 172.789744 
L 224.149751 173.859377 
L 223.785367 175.196623 
L 223.465497 176.533869 
L 223.178242 177.871116 
L 222.924872 179.208362 
L 222.724735 180.545608 
L 222.700704 180.886139 
L 222.636989 181.882854 
L 222.700704 183.220101 
L 222.700704 183.220101 
L 223.105096 184.557347 
L 224.095126 185.894593 
L 224.495276 186.206741 
z
" clip-path="url(#p122f2db935)" style="fill: none; stroke: #4c72b0; stroke-width: 1.5"/>
   </g>
   <g id="PathCollection_10"/>
   <g id="patch_3">
    <path d="M 57.6 307.584 
L 57.6 41.472 
" style="fill: none; stroke: #ffffff; stroke-width: 1.25; stroke-linejoin: miter; stroke-linecap: square"/>
   </g>
   <g id="patch_4">
    <path d="M 414.72 307.584 
L 414.72 41.472 
" style="fill: none; stroke: #ffffff; stroke-width: 1.25; stroke-linejoin: miter; stroke-linecap: square"/>
   </g>
   <g id="patch_5">
    <path d="M 57.6 307.584 
L 414.72 307.584 
" style="fill: none; stroke: #ffffff; stroke-width: 1.25; stroke-linejoin: miter; stroke-linecap: square"/>
   </g>
   <g id="patch_6">
    <path d="M 57.6 41.472 
L 414.72 41.472 
" style="fill: none; stroke: #ffffff; stroke-width: 1.25; stroke-linejoin: miter; stroke-linecap: square"/>
   </g>
  </g>
 </g>
 <defs>
  <clipPath id="p122f2db935">
   <rect x="57.6" y="41.472" width="357.12" height="266.112"/>
  </clipPath>
 </defs>
</svg>
