<?xml version="1.0" encoding="utf-8" standalone="no"?>
<!DOCTYPE svg PUBLIC "-//W3C//DTD SVG 1.1//EN"
  "http://www.w3.org/Graphics/SVG/1.1/DTD/svg11.dtd">
<svg xmlns:xlink="http://www.w3.org/1999/xlink" width="1643.85pt" height="360pt" viewBox="0 0 1643.85 360" xmlns="http://www.w3.org/2000/svg" version="1.1">
 <metadata>
  <rdf:RDF xmlns:dc="http://purl.org/dc/elements/1.1/" xmlns:cc="http://creativecommons.org/ns#" xmlns:rdf="http://www.w3.org/1999/02/22-rdf-syntax-ns#">
   <cc:Work>
    <dc:type rdf:resource="http://purl.org/dc/dcmitype/StillImage"/>
    <dc:date>2023-08-10T22:37:23.840256</dc:date>
    <dc:format>image/svg+xml</dc:format>
    <dc:creator>
     <cc:Agent>
      <dc:title>Matplotlib v3.7.1, https://matplotlib.org/</dc:title>
     </cc:Agent>
    </dc:creator>
   </cc:Work>
  </rdf:RDF>
 </metadata>
 <defs>
  <style type="text/css">*{stroke-linejoin: round; stroke-linecap: butt}</style>
 </defs>
 <g id="figure_1">
  <g id="patch_1">
   <path d="M 0 360 
L 1643.85 360 
L 1643.85 0 
L 0 0 
z
" style="fill: #ffffff"/>
  </g>
  <g id="axes_1">
   <g id="patch_2">
    <path d="M 60.925191 309.78 
L 1423.5615 309.78 
L 1423.5615 12.96 
L 60.925191 12.96 
z
" style="fill: #ffffff"/>
   </g>
   <g id="matplotlib.axis_1">
    <g id="xtick_1">
     <g id="text_1">
      <!-- 2001 -->
      <g style="fill: #262626" transform="translate(95.593273 327.638281) scale(0.11 -0.11)">
       <defs>
        <path id="DejaVuSans-32" d="M 1228 531 
L 3431 531 
L 3431 0 
L 469 0 
L 469 531 
Q 828 903 1448 1529 
Q 2069 2156 2228 2338 
Q 2531 2678 2651 2914 
Q 2772 3150 2772 3378 
Q 2772 3750 2511 3984 
Q 2250 4219 1831 4219 
Q 1534 4219 1204 4116 
Q 875 4013 500 3803 
L 500 4441 
Q 881 4594 1212 4672 
Q 1544 4750 1819 4750 
Q 2544 4750 2975 4387 
Q 3406 4025 3406 3419 
Q 3406 3131 3298 2873 
Q 3191 2616 2906 2266 
Q 2828 2175 2409 1742 
Q 1991 1309 1228 531 
z
" transform="scale(0.015625)"/>
        <path id="DejaVuSans-30" d="M 2034 4250 
Q 1547 4250 1301 3770 
Q 1056 3291 1056 2328 
Q 1056 1369 1301 889 
Q 1547 409 2034 409 
Q 2525 409 2770 889 
Q 3016 1369 3016 2328 
Q 3016 3291 2770 3770 
Q 2525 4250 2034 4250 
z
M 2034 4750 
Q 2819 4750 3233 4129 
Q 3647 3509 3647 2328 
Q 3647 1150 3233 529 
Q 2819 -91 2034 -91 
Q 1250 -91 836 529 
Q 422 1150 422 2328 
Q 422 3509 836 4129 
Q 1250 4750 2034 4750 
z
" transform="scale(0.015625)"/>
        <path id="DejaVuSans-31" d="M 794 531 
L 1825 531 
L 1825 4091 
L 703 3866 
L 703 4441 
L 1819 4666 
L 2450 4666 
L 2450 531 
L 3481 531 
L 3481 0 
L 794 0 
L 794 531 
z
" transform="scale(0.015625)"/>
       </defs>
       <use xlink:href="#DejaVuSans-32"/>
       <use xlink:href="#DejaVuSans-30" x="63.623047"/>
       <use xlink:href="#DejaVuSans-30" x="127.246094"/>
       <use xlink:href="#DejaVuSans-31" x="190.869141"/>
      </g>
     </g>
    </g>
    <g id="xtick_2">
     <g id="text_2">
      <!-- 2002 -->
      <g style="fill: #262626" transform="translate(192.924438 327.638281) scale(0.11 -0.11)">
       <use xlink:href="#DejaVuSans-32"/>
       <use xlink:href="#DejaVuSans-30" x="63.623047"/>
       <use xlink:href="#DejaVuSans-30" x="127.246094"/>
       <use xlink:href="#DejaVuSans-32" x="190.869141"/>
      </g>
     </g>
    </g>
    <g id="xtick_3">
     <g id="text_3">
      <!-- 2003 -->
      <g style="fill: #262626" transform="translate(290.255603 327.638281) scale(0.11 -0.11)">
       <defs>
        <path id="DejaVuSans-33" d="M 2597 2516 
Q 3050 2419 3304 2112 
Q 3559 1806 3559 1356 
Q 3559 666 3084 287 
Q 2609 -91 1734 -91 
Q 1441 -91 1130 -33 
Q 819 25 488 141 
L 488 750 
Q 750 597 1062 519 
Q 1375 441 1716 441 
Q 2309 441 2620 675 
Q 2931 909 2931 1356 
Q 2931 1769 2642 2001 
Q 2353 2234 1838 2234 
L 1294 2234 
L 1294 2753 
L 1863 2753 
Q 2328 2753 2575 2939 
Q 2822 3125 2822 3475 
Q 2822 3834 2567 4026 
Q 2313 4219 1838 4219 
Q 1578 4219 1281 4162 
Q 984 4106 628 3988 
L 628 4550 
Q 988 4650 1302 4700 
Q 1616 4750 1894 4750 
Q 2613 4750 3031 4423 
Q 3450 4097 3450 3541 
Q 3450 3153 3228 2886 
Q 3006 2619 2597 2516 
z
" transform="scale(0.015625)"/>
       </defs>
       <use xlink:href="#DejaVuSans-32"/>
       <use xlink:href="#DejaVuSans-30" x="63.623047"/>
       <use xlink:href="#DejaVuSans-30" x="127.246094"/>
       <use xlink:href="#DejaVuSans-33" x="190.869141"/>
      </g>
     </g>
    </g>
    <g id="xtick_4">
     <g id="text_4">
      <!-- 2004 -->
      <g style="fill: #262626" transform="translate(387.586768 327.638281) scale(0.11 -0.11)">
       <defs>
        <path id="DejaVuSans-34" d="M 2419 4116 
L 825 1625 
L 2419 1625 
L 2419 4116 
z
M 2253 4666 
L 3047 4666 
L 3047 1625 
L 3713 1625 
L 3713 1100 
L 3047 1100 
L 3047 0 
L 2419 0 
L 2419 1100 
L 313 1100 
L 313 1709 
L 2253 4666 
z
" transform="scale(0.015625)"/>
       </defs>
       <use xlink:href="#DejaVuSans-32"/>
       <use xlink:href="#DejaVuSans-30" x="63.623047"/>
       <use xlink:href="#DejaVuSans-30" x="127.246094"/>
       <use xlink:href="#DejaVuSans-34" x="190.869141"/>
      </g>
     </g>
    </g>
    <g id="xtick_5">
     <g id="text_5">
      <!-- 2005 -->
      <g style="fill: #262626" transform="translate(484.917933 327.638281) scale(0.11 -0.11)">
       <defs>
        <path id="DejaVuSans-35" d="M 691 4666 
L 3169 4666 
L 3169 4134 
L 1269 4134 
L 1269 2991 
Q 1406 3038 1543 3061 
Q 1681 3084 1819 3084 
Q 2600 3084 3056 2656 
Q 3513 2228 3513 1497 
Q 3513 744 3044 326 
Q 2575 -91 1722 -91 
Q 1428 -91 1123 -41 
Q 819 9 494 109 
L 494 744 
Q 775 591 1075 516 
Q 1375 441 1709 441 
Q 2250 441 2565 725 
Q 2881 1009 2881 1497 
Q 2881 1984 2565 2268 
Q 2250 2553 1709 2553 
Q 1456 2553 1204 2497 
Q 953 2441 691 2322 
L 691 4666 
z
" transform="scale(0.015625)"/>
       </defs>
       <use xlink:href="#DejaVuSans-32"/>
       <use xlink:href="#DejaVuSans-30" x="63.623047"/>
       <use xlink:href="#DejaVuSans-30" x="127.246094"/>
       <use xlink:href="#DejaVuSans-35" x="190.869141"/>
      </g>
     </g>
    </g>
    <g id="xtick_6">
     <g id="text_6">
      <!-- 2006 -->
      <g style="fill: #262626" transform="translate(582.249098 327.638281) scale(0.11 -0.11)">
       <defs>
        <path id="DejaVuSans-36" d="M 2113 2584 
Q 1688 2584 1439 2293 
Q 1191 2003 1191 1497 
Q 1191 994 1439 701 
Q 1688 409 2113 409 
Q 2538 409 2786 701 
Q 3034 994 3034 1497 
Q 3034 2003 2786 2293 
Q 2538 2584 2113 2584 
z
M 3366 4563 
L 3366 3988 
Q 3128 4100 2886 4159 
Q 2644 4219 2406 4219 
Q 1781 4219 1451 3797 
Q 1122 3375 1075 2522 
Q 1259 2794 1537 2939 
Q 1816 3084 2150 3084 
Q 2853 3084 3261 2657 
Q 3669 2231 3669 1497 
Q 3669 778 3244 343 
Q 2819 -91 2113 -91 
Q 1303 -91 875 529 
Q 447 1150 447 2328 
Q 447 3434 972 4092 
Q 1497 4750 2381 4750 
Q 2619 4750 2861 4703 
Q 3103 4656 3366 4563 
z
" transform="scale(0.015625)"/>
       </defs>
       <use xlink:href="#DejaVuSans-32"/>
       <use xlink:href="#DejaVuSans-30" x="63.623047"/>
       <use xlink:href="#DejaVuSans-30" x="127.246094"/>
       <use xlink:href="#DejaVuSans-36" x="190.869141"/>
      </g>
     </g>
    </g>
    <g id="xtick_7">
     <g id="text_7">
      <!-- 2007 -->
      <g style="fill: #262626" transform="translate(679.580263 327.638281) scale(0.11 -0.11)">
       <defs>
        <path id="DejaVuSans-37" d="M 525 4666 
L 3525 4666 
L 3525 4397 
L 1831 0 
L 1172 0 
L 2766 4134 
L 525 4134 
L 525 4666 
z
" transform="scale(0.015625)"/>
       </defs>
       <use xlink:href="#DejaVuSans-32"/>
       <use xlink:href="#DejaVuSans-30" x="63.623047"/>
       <use xlink:href="#DejaVuSans-30" x="127.246094"/>
       <use xlink:href="#DejaVuSans-37" x="190.869141"/>
      </g>
     </g>
    </g>
    <g id="xtick_8">
     <g id="text_8">
      <!-- 2008 -->
      <g style="fill: #262626" transform="translate(776.911428 327.638281) scale(0.11 -0.11)">
       <defs>
        <path id="DejaVuSans-38" d="M 2034 2216 
Q 1584 2216 1326 1975 
Q 1069 1734 1069 1313 
Q 1069 891 1326 650 
Q 1584 409 2034 409 
Q 2484 409 2743 651 
Q 3003 894 3003 1313 
Q 3003 1734 2745 1975 
Q 2488 2216 2034 2216 
z
M 1403 2484 
Q 997 2584 770 2862 
Q 544 3141 544 3541 
Q 544 4100 942 4425 
Q 1341 4750 2034 4750 
Q 2731 4750 3128 4425 
Q 3525 4100 3525 3541 
Q 3525 3141 3298 2862 
Q 3072 2584 2669 2484 
Q 3125 2378 3379 2068 
Q 3634 1759 3634 1313 
Q 3634 634 3220 271 
Q 2806 -91 2034 -91 
Q 1263 -91 848 271 
Q 434 634 434 1313 
Q 434 1759 690 2068 
Q 947 2378 1403 2484 
z
M 1172 3481 
Q 1172 3119 1398 2916 
Q 1625 2713 2034 2713 
Q 2441 2713 2670 2916 
Q 2900 3119 2900 3481 
Q 2900 3844 2670 4047 
Q 2441 4250 2034 4250 
Q 1625 4250 1398 4047 
Q 1172 3844 1172 3481 
z
" transform="scale(0.015625)"/>
       </defs>
       <use xlink:href="#DejaVuSans-32"/>
       <use xlink:href="#DejaVuSans-30" x="63.623047"/>
       <use xlink:href="#DejaVuSans-30" x="127.246094"/>
       <use xlink:href="#DejaVuSans-38" x="190.869141"/>
      </g>
     </g>
    </g>
    <g id="xtick_9">
     <g id="text_9">
      <!-- 2009 -->
      <g style="fill: #262626" transform="translate(874.242593 327.638281) scale(0.11 -0.11)">
       <defs>
        <path id="DejaVuSans-39" d="M 703 97 
L 703 672 
Q 941 559 1184 500 
Q 1428 441 1663 441 
Q 2288 441 2617 861 
Q 2947 1281 2994 2138 
Q 2813 1869 2534 1725 
Q 2256 1581 1919 1581 
Q 1219 1581 811 2004 
Q 403 2428 403 3163 
Q 403 3881 828 4315 
Q 1253 4750 1959 4750 
Q 2769 4750 3195 4129 
Q 3622 3509 3622 2328 
Q 3622 1225 3098 567 
Q 2575 -91 1691 -91 
Q 1453 -91 1209 -44 
Q 966 3 703 97 
z
M 1959 2075 
Q 2384 2075 2632 2365 
Q 2881 2656 2881 3163 
Q 2881 3666 2632 3958 
Q 2384 4250 1959 4250 
Q 1534 4250 1286 3958 
Q 1038 3666 1038 3163 
Q 1038 2656 1286 2365 
Q 1534 2075 1959 2075 
z
" transform="scale(0.015625)"/>
       </defs>
       <use xlink:href="#DejaVuSans-32"/>
       <use xlink:href="#DejaVuSans-30" x="63.623047"/>
       <use xlink:href="#DejaVuSans-30" x="127.246094"/>
       <use xlink:href="#DejaVuSans-39" x="190.869141"/>
      </g>
     </g>
    </g>
    <g id="xtick_10">
     <g id="text_10">
      <!-- 2010 -->
      <g style="fill: #262626" transform="translate(971.573758 327.638281) scale(0.11 -0.11)">
       <use xlink:href="#DejaVuSans-32"/>
       <use xlink:href="#DejaVuSans-30" x="63.623047"/>
       <use xlink:href="#DejaVuSans-31" x="127.246094"/>
       <use xlink:href="#DejaVuSans-30" x="190.869141"/>
      </g>
     </g>
    </g>
    <g id="xtick_11">
     <g id="text_11">
      <!-- 2011 -->
      <g style="fill: #262626" transform="translate(1068.904923 327.638281) scale(0.11 -0.11)">
       <use xlink:href="#DejaVuSans-32"/>
       <use xlink:href="#DejaVuSans-30" x="63.623047"/>
       <use xlink:href="#DejaVuSans-31" x="127.246094"/>
       <use xlink:href="#DejaVuSans-31" x="190.869141"/>
      </g>
     </g>
    </g>
    <g id="xtick_12">
     <g id="text_12">
      <!-- 2012 -->
      <g style="fill: #262626" transform="translate(1166.236088 327.638281) scale(0.11 -0.11)">
       <use xlink:href="#DejaVuSans-32"/>
       <use xlink:href="#DejaVuSans-30" x="63.623047"/>
       <use xlink:href="#DejaVuSans-31" x="127.246094"/>
       <use xlink:href="#DejaVuSans-32" x="190.869141"/>
      </g>
     </g>
    </g>
    <g id="xtick_13">
     <g id="text_13">
      <!-- 2013 -->
      <g style="fill: #262626" transform="translate(1263.567253 327.638281) scale(0.11 -0.11)">
       <use xlink:href="#DejaVuSans-32"/>
       <use xlink:href="#DejaVuSans-30" x="63.623047"/>
       <use xlink:href="#DejaVuSans-31" x="127.246094"/>
       <use xlink:href="#DejaVuSans-33" x="190.869141"/>
      </g>
     </g>
    </g>
    <g id="xtick_14">
     <g id="text_14">
      <!-- 2014 -->
      <g style="fill: #262626" transform="translate(1360.898418 327.638281) scale(0.11 -0.11)">
       <use xlink:href="#DejaVuSans-32"/>
       <use xlink:href="#DejaVuSans-30" x="63.623047"/>
       <use xlink:href="#DejaVuSans-31" x="127.246094"/>
       <use xlink:href="#DejaVuSans-34" x="190.869141"/>
      </g>
     </g>
    </g>
    <g id="text_15">
     <!-- year -->
     <g style="fill: #262626" transform="translate(728.856783 343.044062) scale(0.12 -0.12)">
      <defs>
       <path id="DejaVuSans-79" d="M 2059 -325 
Q 1816 -950 1584 -1140 
Q 1353 -1331 966 -1331 
L 506 -1331 
L 506 -850 
L 844 -850 
Q 1081 -850 1212 -737 
Q 1344 -625 1503 -206 
L 1606 56 
L 191 3500 
L 800 3500 
L 1894 763 
L 2988 3500 
L 3597 3500 
L 2059 -325 
z
" transform="scale(0.015625)"/>
       <path id="DejaVuSans-65" d="M 3597 1894 
L 3597 1613 
L 953 1613 
Q 991 1019 1311 708 
Q 1631 397 2203 397 
Q 2534 397 2845 478 
Q 3156 559 3463 722 
L 3463 178 
Q 3153 47 2828 -22 
Q 2503 -91 2169 -91 
Q 1331 -91 842 396 
Q 353 884 353 1716 
Q 353 2575 817 3079 
Q 1281 3584 2069 3584 
Q 2775 3584 3186 3129 
Q 3597 2675 3597 1894 
z
M 3022 2063 
Q 3016 2534 2758 2815 
Q 2500 3097 2075 3097 
Q 1594 3097 1305 2825 
Q 1016 2553 972 2059 
L 3022 2063 
z
" transform="scale(0.015625)"/>
       <path id="DejaVuSans-61" d="M 2194 1759 
Q 1497 1759 1228 1600 
Q 959 1441 959 1056 
Q 959 750 1161 570 
Q 1363 391 1709 391 
Q 2188 391 2477 730 
Q 2766 1069 2766 1631 
L 2766 1759 
L 2194 1759 
z
M 3341 1997 
L 3341 0 
L 2766 0 
L 2766 531 
Q 2569 213 2275 61 
Q 1981 -91 1556 -91 
Q 1019 -91 701 211 
Q 384 513 384 1019 
Q 384 1609 779 1909 
Q 1175 2209 1959 2209 
L 2766 2209 
L 2766 2266 
Q 2766 2663 2505 2880 
Q 2244 3097 1772 3097 
Q 1472 3097 1187 3025 
Q 903 2953 641 2809 
L 641 3341 
Q 956 3463 1253 3523 
Q 1550 3584 1831 3584 
Q 2591 3584 2966 3190 
Q 3341 2797 3341 1997 
z
" transform="scale(0.015625)"/>
       <path id="DejaVuSans-72" d="M 2631 2963 
Q 2534 3019 2420 3045 
Q 2306 3072 2169 3072 
Q 1681 3072 1420 2755 
Q 1159 2438 1159 1844 
L 1159 0 
L 581 0 
L 581 3500 
L 1159 3500 
L 1159 2956 
Q 1341 3275 1631 3429 
Q 1922 3584 2338 3584 
Q 2397 3584 2469 3576 
Q 2541 3569 2628 3553 
L 2631 2963 
z
" transform="scale(0.015625)"/>
      </defs>
      <use xlink:href="#DejaVuSans-79"/>
      <use xlink:href="#DejaVuSans-65" x="59.179688"/>
      <use xlink:href="#DejaVuSans-61" x="120.703125"/>
      <use xlink:href="#DejaVuSans-72" x="181.982422"/>
     </g>
    </g>
   </g>
   <g id="matplotlib.axis_2">
    <g id="ytick_1">
     <g id="text_16">
      <!-- 0 -->
      <g style="fill: #262626" transform="translate(44.426441 313.959141) scale(0.11 -0.11)">
       <use xlink:href="#DejaVuSans-30"/>
      </g>
     </g>
    </g>
    <g id="ytick_2">
     <g id="text_17">
      <!-- 20 -->
      <g style="fill: #262626" transform="translate(37.427691 253.813244) scale(0.11 -0.11)">
       <use xlink:href="#DejaVuSans-32"/>
       <use xlink:href="#DejaVuSans-30" x="63.623047"/>
      </g>
     </g>
    </g>
    <g id="ytick_3">
     <g id="text_18">
      <!-- 40 -->
      <g style="fill: #262626" transform="translate(37.427691 193.667347) scale(0.11 -0.11)">
       <use xlink:href="#DejaVuSans-34"/>
       <use xlink:href="#DejaVuSans-30" x="63.623047"/>
      </g>
     </g>
    </g>
    <g id="ytick_4">
     <g id="text_19">
      <!-- 60 -->
      <g style="fill: #262626" transform="translate(37.427691 133.521451) scale(0.11 -0.11)">
       <use xlink:href="#DejaVuSans-36"/>
       <use xlink:href="#DejaVuSans-30" x="63.623047"/>
      </g>
     </g>
    </g>
    <g id="ytick_5">
     <g id="text_20">
      <!-- 80 -->
      <g style="fill: #262626" transform="translate(37.427691 73.375554) scale(0.11 -0.11)">
       <use xlink:href="#DejaVuSans-38"/>
       <use xlink:href="#DejaVuSans-30" x="63.623047"/>
      </g>
     </g>
    </g>
    <g id="text_21">
     <!-- Number of Planets Discovered -->
     <g style="fill: #262626" transform="translate(30.932066 252.369375) rotate(-90) scale(0.12 -0.12)">
      <defs>
       <path id="DejaVuSans-4e" d="M 628 4666 
L 1478 4666 
L 3547 763 
L 3547 4666 
L 4159 4666 
L 4159 0 
L 3309 0 
L 1241 3903 
L 1241 0 
L 628 0 
L 628 4666 
z
" transform="scale(0.015625)"/>
       <path id="DejaVuSans-75" d="M 544 1381 
L 544 3500 
L 1119 3500 
L 1119 1403 
Q 1119 906 1312 657 
Q 1506 409 1894 409 
Q 2359 409 2629 706 
Q 2900 1003 2900 1516 
L 2900 3500 
L 3475 3500 
L 3475 0 
L 2900 0 
L 2900 538 
Q 2691 219 2414 64 
Q 2138 -91 1772 -91 
Q 1169 -91 856 284 
Q 544 659 544 1381 
z
M 1991 3584 
L 1991 3584 
z
" transform="scale(0.015625)"/>
       <path id="DejaVuSans-6d" d="M 3328 2828 
Q 3544 3216 3844 3400 
Q 4144 3584 4550 3584 
Q 5097 3584 5394 3201 
Q 5691 2819 5691 2113 
L 5691 0 
L 5113 0 
L 5113 2094 
Q 5113 2597 4934 2840 
Q 4756 3084 4391 3084 
Q 3944 3084 3684 2787 
Q 3425 2491 3425 1978 
L 3425 0 
L 2847 0 
L 2847 2094 
Q 2847 2600 2669 2842 
Q 2491 3084 2119 3084 
Q 1678 3084 1418 2786 
Q 1159 2488 1159 1978 
L 1159 0 
L 581 0 
L 581 3500 
L 1159 3500 
L 1159 2956 
Q 1356 3278 1631 3431 
Q 1906 3584 2284 3584 
Q 2666 3584 2933 3390 
Q 3200 3197 3328 2828 
z
" transform="scale(0.015625)"/>
       <path id="DejaVuSans-62" d="M 3116 1747 
Q 3116 2381 2855 2742 
Q 2594 3103 2138 3103 
Q 1681 3103 1420 2742 
Q 1159 2381 1159 1747 
Q 1159 1113 1420 752 
Q 1681 391 2138 391 
Q 2594 391 2855 752 
Q 3116 1113 3116 1747 
z
M 1159 2969 
Q 1341 3281 1617 3432 
Q 1894 3584 2278 3584 
Q 2916 3584 3314 3078 
Q 3713 2572 3713 1747 
Q 3713 922 3314 415 
Q 2916 -91 2278 -91 
Q 1894 -91 1617 61 
Q 1341 213 1159 525 
L 1159 0 
L 581 0 
L 581 4863 
L 1159 4863 
L 1159 2969 
z
" transform="scale(0.015625)"/>
       <path id="DejaVuSans-20" transform="scale(0.015625)"/>
       <path id="DejaVuSans-6f" d="M 1959 3097 
Q 1497 3097 1228 2736 
Q 959 2375 959 1747 
Q 959 1119 1226 758 
Q 1494 397 1959 397 
Q 2419 397 2687 759 
Q 2956 1122 2956 1747 
Q 2956 2369 2687 2733 
Q 2419 3097 1959 3097 
z
M 1959 3584 
Q 2709 3584 3137 3096 
Q 3566 2609 3566 1747 
Q 3566 888 3137 398 
Q 2709 -91 1959 -91 
Q 1206 -91 779 398 
Q 353 888 353 1747 
Q 353 2609 779 3096 
Q 1206 3584 1959 3584 
z
" transform="scale(0.015625)"/>
       <path id="DejaVuSans-66" d="M 2375 4863 
L 2375 4384 
L 1825 4384 
Q 1516 4384 1395 4259 
Q 1275 4134 1275 3809 
L 1275 3500 
L 2222 3500 
L 2222 3053 
L 1275 3053 
L 1275 0 
L 697 0 
L 697 3053 
L 147 3053 
L 147 3500 
L 697 3500 
L 697 3744 
Q 697 4328 969 4595 
Q 1241 4863 1831 4863 
L 2375 4863 
z
" transform="scale(0.015625)"/>
       <path id="DejaVuSans-50" d="M 1259 4147 
L 1259 2394 
L 2053 2394 
Q 2494 2394 2734 2622 
Q 2975 2850 2975 3272 
Q 2975 3691 2734 3919 
Q 2494 4147 2053 4147 
L 1259 4147 
z
M 628 4666 
L 2053 4666 
Q 2838 4666 3239 4311 
Q 3641 3956 3641 3272 
Q 3641 2581 3239 2228 
Q 2838 1875 2053 1875 
L 1259 1875 
L 1259 0 
L 628 0 
L 628 4666 
z
" transform="scale(0.015625)"/>
       <path id="DejaVuSans-6c" d="M 603 4863 
L 1178 4863 
L 1178 0 
L 603 0 
L 603 4863 
z
" transform="scale(0.015625)"/>
       <path id="DejaVuSans-6e" d="M 3513 2113 
L 3513 0 
L 2938 0 
L 2938 2094 
Q 2938 2591 2744 2837 
Q 2550 3084 2163 3084 
Q 1697 3084 1428 2787 
Q 1159 2491 1159 1978 
L 1159 0 
L 581 0 
L 581 3500 
L 1159 3500 
L 1159 2956 
Q 1366 3272 1645 3428 
Q 1925 3584 2291 3584 
Q 2894 3584 3203 3211 
Q 3513 2838 3513 2113 
z
" transform="scale(0.015625)"/>
       <path id="DejaVuSans-74" d="M 1172 4494 
L 1172 3500 
L 2356 3500 
L 2356 3053 
L 1172 3053 
L 1172 1153 
Q 1172 725 1289 603 
Q 1406 481 1766 481 
L 2356 481 
L 2356 0 
L 1766 0 
Q 1100 0 847 248 
Q 594 497 594 1153 
L 594 3053 
L 172 3053 
L 172 3500 
L 594 3500 
L 594 4494 
L 1172 4494 
z
" transform="scale(0.015625)"/>
       <path id="DejaVuSans-73" d="M 2834 3397 
L 2834 2853 
Q 2591 2978 2328 3040 
Q 2066 3103 1784 3103 
Q 1356 3103 1142 2972 
Q 928 2841 928 2578 
Q 928 2378 1081 2264 
Q 1234 2150 1697 2047 
L 1894 2003 
Q 2506 1872 2764 1633 
Q 3022 1394 3022 966 
Q 3022 478 2636 193 
Q 2250 -91 1575 -91 
Q 1294 -91 989 -36 
Q 684 19 347 128 
L 347 722 
Q 666 556 975 473 
Q 1284 391 1588 391 
Q 1994 391 2212 530 
Q 2431 669 2431 922 
Q 2431 1156 2273 1281 
Q 2116 1406 1581 1522 
L 1381 1569 
Q 847 1681 609 1914 
Q 372 2147 372 2553 
Q 372 3047 722 3315 
Q 1072 3584 1716 3584 
Q 2034 3584 2315 3537 
Q 2597 3491 2834 3397 
z
" transform="scale(0.015625)"/>
       <path id="DejaVuSans-44" d="M 1259 4147 
L 1259 519 
L 2022 519 
Q 2988 519 3436 956 
Q 3884 1394 3884 2338 
Q 3884 3275 3436 3711 
Q 2988 4147 2022 4147 
L 1259 4147 
z
M 628 4666 
L 1925 4666 
Q 3281 4666 3915 4102 
Q 4550 3538 4550 2338 
Q 4550 1131 3912 565 
Q 3275 0 1925 0 
L 628 0 
L 628 4666 
z
" transform="scale(0.015625)"/>
       <path id="DejaVuSans-69" d="M 603 3500 
L 1178 3500 
L 1178 0 
L 603 0 
L 603 3500 
z
M 603 4863 
L 1178 4863 
L 1178 4134 
L 603 4134 
L 603 4863 
z
" transform="scale(0.015625)"/>
       <path id="DejaVuSans-63" d="M 3122 3366 
L 3122 2828 
Q 2878 2963 2633 3030 
Q 2388 3097 2138 3097 
Q 1578 3097 1268 2742 
Q 959 2388 959 1747 
Q 959 1106 1268 751 
Q 1578 397 2138 397 
Q 2388 397 2633 464 
Q 2878 531 3122 666 
L 3122 134 
Q 2881 22 2623 -34 
Q 2366 -91 2075 -91 
Q 1284 -91 818 406 
Q 353 903 353 1747 
Q 353 2603 823 3093 
Q 1294 3584 2113 3584 
Q 2378 3584 2631 3529 
Q 2884 3475 3122 3366 
z
" transform="scale(0.015625)"/>
       <path id="DejaVuSans-76" d="M 191 3500 
L 800 3500 
L 1894 563 
L 2988 3500 
L 3597 3500 
L 2284 0 
L 1503 0 
L 191 3500 
z
" transform="scale(0.015625)"/>
       <path id="DejaVuSans-64" d="M 2906 2969 
L 2906 4863 
L 3481 4863 
L 3481 0 
L 2906 0 
L 2906 525 
Q 2725 213 2448 61 
Q 2172 -91 1784 -91 
Q 1150 -91 751 415 
Q 353 922 353 1747 
Q 353 2572 751 3078 
Q 1150 3584 1784 3584 
Q 2172 3584 2448 3432 
Q 2725 3281 2906 2969 
z
M 947 1747 
Q 947 1113 1208 752 
Q 1469 391 1925 391 
Q 2381 391 2643 752 
Q 2906 1113 2906 1747 
Q 2906 2381 2643 2742 
Q 2381 3103 1925 3103 
Q 1469 3103 1208 2742 
Q 947 2381 947 1747 
z
" transform="scale(0.015625)"/>
      </defs>
      <use xlink:href="#DejaVuSans-4e"/>
      <use xlink:href="#DejaVuSans-75" x="74.804688"/>
      <use xlink:href="#DejaVuSans-6d" x="138.183594"/>
      <use xlink:href="#DejaVuSans-62" x="235.595703"/>
      <use xlink:href="#DejaVuSans-65" x="299.072266"/>
      <use xlink:href="#DejaVuSans-72" x="360.595703"/>
      <use xlink:href="#DejaVuSans-20" x="401.708984"/>
      <use xlink:href="#DejaVuSans-6f" x="433.496094"/>
      <use xlink:href="#DejaVuSans-66" x="494.677734"/>
      <use xlink:href="#DejaVuSans-20" x="529.882812"/>
      <use xlink:href="#DejaVuSans-50" x="561.669922"/>
      <use xlink:href="#DejaVuSans-6c" x="621.972656"/>
      <use xlink:href="#DejaVuSans-61" x="649.755859"/>
      <use xlink:href="#DejaVuSans-6e" x="711.035156"/>
      <use xlink:href="#DejaVuSans-65" x="774.414062"/>
      <use xlink:href="#DejaVuSans-74" x="835.9375"/>
      <use xlink:href="#DejaVuSans-73" x="875.146484"/>
      <use xlink:href="#DejaVuSans-20" x="927.246094"/>
      <use xlink:href="#DejaVuSans-44" x="959.033203"/>
      <use xlink:href="#DejaVuSans-69" x="1036.035156"/>
      <use xlink:href="#DejaVuSans-73" x="1063.818359"/>
      <use xlink:href="#DejaVuSans-63" x="1115.917969"/>
      <use xlink:href="#DejaVuSans-6f" x="1170.898438"/>
      <use xlink:href="#DejaVuSans-76" x="1232.080078"/>
      <use xlink:href="#DejaVuSans-65" x="1291.259766"/>
      <use xlink:href="#DejaVuSans-72" x="1352.783203"/>
      <use xlink:href="#DejaVuSans-65" x="1391.646484"/>
      <use xlink:href="#DejaVuSans-64" x="1453.169922"/>
     </g>
    </g>
   </g>
   <g id="patch_3">
    <path d="M 70.658307 309.78 
L 78.4448 309.78 
L 78.4448 273.692462 
L 70.658307 273.692462 
z
" clip-path="url(#p534857c39f)" style="fill: #5875a4; stroke: #ffffff; stroke-linejoin: miter"/>
   </g>
   <g id="patch_4">
    <path d="M 167.989472 309.78 
L 175.775965 309.78 
L 175.775965 216.55386 
L 167.989472 216.55386 
z
" clip-path="url(#p534857c39f)" style="fill: #5875a4; stroke: #ffffff; stroke-linejoin: miter"/>
   </g>
   <g id="patch_5">
    <path d="M 265.320637 309.78 
L 273.10713 309.78 
L 273.10713 237.604924 
L 265.320637 237.604924 
z
" clip-path="url(#p534857c39f)" style="fill: #5875a4; stroke: #ffffff; stroke-linejoin: miter"/>
   </g>
   <g id="patch_6">
    <path d="M 362.651802 309.78 
L 370.438295 309.78 
L 370.438295 258.655988 
L 362.651802 258.655988 
z
" clip-path="url(#p534857c39f)" style="fill: #5875a4; stroke: #ffffff; stroke-linejoin: miter"/>
   </g>
   <g id="patch_7">
    <path d="M 459.982967 309.78 
L 467.76946 309.78 
L 467.76946 201.517386 
L 459.982967 201.517386 
z
" clip-path="url(#p534857c39f)" style="fill: #5875a4; stroke: #ffffff; stroke-linejoin: miter"/>
   </g>
   <g id="patch_8">
    <path d="M 557.314132 309.78 
L 565.100625 309.78 
L 565.100625 246.626809 
L 557.314132 246.626809 
z
" clip-path="url(#p534857c39f)" style="fill: #5875a4; stroke: #ffffff; stroke-linejoin: miter"/>
   </g>
   <g id="patch_9">
    <path d="M 654.645297 309.78 
L 662.43179 309.78 
L 662.43179 204.524681 
L 654.645297 204.524681 
z
" clip-path="url(#p534857c39f)" style="fill: #5875a4; stroke: #ffffff; stroke-linejoin: miter"/>
   </g>
   <g id="patch_10">
    <path d="M 751.976462 309.78 
L 759.762955 309.78 
L 759.762955 180.466322 
L 751.976462 180.466322 
z
" clip-path="url(#p534857c39f)" style="fill: #5875a4; stroke: #ffffff; stroke-linejoin: miter"/>
   </g>
   <g id="patch_11">
    <path d="M 849.307627 309.78 
L 857.09412 309.78 
L 857.09412 87.240182 
L 849.307627 87.240182 
z
" clip-path="url(#p534857c39f)" style="fill: #5875a4; stroke: #ffffff; stroke-linejoin: miter"/>
   </g>
   <g id="patch_12">
    <path d="M 946.638792 309.78 
L 954.425285 309.78 
L 954.425285 180.466322 
L 946.638792 180.466322 
z
" clip-path="url(#p534857c39f)" style="fill: #5875a4; stroke: #ffffff; stroke-linejoin: miter"/>
   </g>
   <g id="patch_13">
    <path d="M 1043.969957 309.78 
L 1051.75645 309.78 
L 1051.75645 27.094286 
L 1043.969957 27.094286 
z
" clip-path="url(#p534857c39f)" style="fill: #5875a4; stroke: #ffffff; stroke-linejoin: miter"/>
   </g>
   <g id="patch_14">
    <path d="M 1141.301122 309.78 
L 1149.087615 309.78 
L 1149.087615 195.502796 
L 1141.301122 195.502796 
z
" clip-path="url(#p534857c39f)" style="fill: #5875a4; stroke: #ffffff; stroke-linejoin: miter"/>
   </g>
   <g id="patch_15">
    <path d="M 1238.632287 309.78 
L 1246.41878 309.78 
L 1246.41878 222.56845 
L 1238.632287 222.56845 
z
" clip-path="url(#p534857c39f)" style="fill: #5875a4; stroke: #ffffff; stroke-linejoin: miter"/>
   </g>
   <g id="patch_16">
    <path d="M 1335.963452 309.78 
L 1343.749945 309.78 
L 1343.749945 276.699757 
L 1335.963452 276.699757 
z
" clip-path="url(#p534857c39f)" style="fill: #5875a4; stroke: #ffffff; stroke-linejoin: miter"/>
   </g>
   <g id="patch_17">
    <path d="M 78.4448 309.78 
L 86.231294 309.78 
L 86.231294 309.78 
L 78.4448 309.78 
z
" clip-path="url(#p534857c39f)" style="fill: #cc8963; stroke: #ffffff; stroke-linejoin: miter"/>
   </g>
   <g id="patch_18">
    <path d="M 175.775965 309.78 
L 183.562458 309.78 
L 183.562458 309.78 
L 175.775965 309.78 
z
" clip-path="url(#p534857c39f)" style="fill: #cc8963; stroke: #ffffff; stroke-linejoin: miter"/>
   </g>
   <g id="patch_19">
    <path d="M 273.10713 309.78 
L 280.893623 309.78 
L 280.893623 309.78 
L 273.10713 309.78 
z
" clip-path="url(#p534857c39f)" style="fill: #cc8963; stroke: #ffffff; stroke-linejoin: miter"/>
   </g>
   <g id="patch_20">
    <path d="M 370.438295 309.78 
L 378.224788 309.78 
L 378.224788 300.758116 
L 370.438295 300.758116 
z
" clip-path="url(#p534857c39f)" style="fill: #cc8963; stroke: #ffffff; stroke-linejoin: miter"/>
   </g>
   <g id="patch_21">
    <path d="M 467.76946 309.78 
L 475.555953 309.78 
L 475.555953 306.772705 
L 467.76946 306.772705 
z
" clip-path="url(#p534857c39f)" style="fill: #cc8963; stroke: #ffffff; stroke-linejoin: miter"/>
   </g>
   <g id="patch_22">
    <path d="M 565.100625 309.78 
L 572.887118 309.78 
L 572.887118 297.750821 
L 565.100625 297.750821 
z
" clip-path="url(#p534857c39f)" style="fill: #cc8963; stroke: #ffffff; stroke-linejoin: miter"/>
   </g>
   <g id="patch_23">
    <path d="M 662.43179 309.78 
L 670.218283 309.78 
L 670.218283 306.772705 
L 662.43179 306.772705 
z
" clip-path="url(#p534857c39f)" style="fill: #cc8963; stroke: #ffffff; stroke-linejoin: miter"/>
   </g>
   <g id="patch_24">
    <path d="M 759.762955 309.78 
L 767.549448 309.78 
L 767.549448 285.721641 
L 759.762955 285.721641 
z
" clip-path="url(#p534857c39f)" style="fill: #cc8963; stroke: #ffffff; stroke-linejoin: miter"/>
   </g>
   <g id="patch_25">
    <path d="M 857.09412 309.78 
L 864.880613 309.78 
L 864.880613 300.758116 
L 857.09412 300.758116 
z
" clip-path="url(#p534857c39f)" style="fill: #cc8963; stroke: #ffffff; stroke-linejoin: miter"/>
   </g>
   <g id="patch_26">
    <path d="M 954.425285 309.78 
L 962.211778 309.78 
L 962.211778 291.736231 
L 954.425285 291.736231 
z
" clip-path="url(#p534857c39f)" style="fill: #cc8963; stroke: #ffffff; stroke-linejoin: miter"/>
   </g>
   <g id="patch_27">
    <path d="M 1051.75645 309.78 
L 1059.542943 309.78 
L 1059.542943 300.758116 
L 1051.75645 300.758116 
z
" clip-path="url(#p534857c39f)" style="fill: #cc8963; stroke: #ffffff; stroke-linejoin: miter"/>
   </g>
   <g id="patch_28">
    <path d="M 1149.087615 309.78 
L 1156.874108 309.78 
L 1156.874108 303.76541 
L 1149.087615 303.76541 
z
" clip-path="url(#p534857c39f)" style="fill: #cc8963; stroke: #ffffff; stroke-linejoin: miter"/>
   </g>
   <g id="patch_29">
    <path d="M 1246.41878 309.78 
L 1254.205273 309.78 
L 1254.205273 288.728936 
L 1246.41878 288.728936 
z
" clip-path="url(#p534857c39f)" style="fill: #cc8963; stroke: #ffffff; stroke-linejoin: miter"/>
   </g>
   <g id="patch_30">
    <path d="M 1343.749945 309.78 
L 1351.536438 309.78 
L 1351.536438 309.78 
L 1343.749945 309.78 
z
" clip-path="url(#p534857c39f)" style="fill: #cc8963; stroke: #ffffff; stroke-linejoin: miter"/>
   </g>
   <g id="patch_31">
    <path d="M 86.231294 309.78 
L 94.017787 309.78 
L 94.017787 309.78 
L 86.231294 309.78 
z
" clip-path="url(#p534857c39f)" style="fill: #5f9e6e; stroke: #ffffff; stroke-linejoin: miter"/>
   </g>
   <g id="patch_32">
    <path d="M 183.562458 309.78 
L 191.348952 309.78 
L 191.348952 309.78 
L 183.562458 309.78 
z
" clip-path="url(#p534857c39f)" style="fill: #5f9e6e; stroke: #ffffff; stroke-linejoin: miter"/>
   </g>
   <g id="patch_33">
    <path d="M 280.893623 309.78 
L 288.680117 309.78 
L 288.680117 309.78 
L 280.893623 309.78 
z
" clip-path="url(#p534857c39f)" style="fill: #5f9e6e; stroke: #ffffff; stroke-linejoin: miter"/>
   </g>
   <g id="patch_34">
    <path d="M 378.224788 309.78 
L 386.011282 309.78 
L 386.011282 309.78 
L 378.224788 309.78 
z
" clip-path="url(#p534857c39f)" style="fill: #5f9e6e; stroke: #ffffff; stroke-linejoin: miter"/>
   </g>
   <g id="patch_35">
    <path d="M 475.555953 309.78 
L 483.342447 309.78 
L 483.342447 309.78 
L 475.555953 309.78 
z
" clip-path="url(#p534857c39f)" style="fill: #5f9e6e; stroke: #ffffff; stroke-linejoin: miter"/>
   </g>
   <g id="patch_36">
    <path d="M 572.887118 309.78 
L 580.673611 309.78 
L 580.673611 309.78 
L 572.887118 309.78 
z
" clip-path="url(#p534857c39f)" style="fill: #5f9e6e; stroke: #ffffff; stroke-linejoin: miter"/>
   </g>
   <g id="patch_37">
    <path d="M 670.218283 309.78 
L 678.004776 309.78 
L 678.004776 309.78 
L 670.218283 309.78 
z
" clip-path="url(#p534857c39f)" style="fill: #5f9e6e; stroke: #ffffff; stroke-linejoin: miter"/>
   </g>
   <g id="patch_38">
    <path d="M 767.549448 309.78 
L 775.335941 309.78 
L 775.335941 303.76541 
L 767.549448 303.76541 
z
" clip-path="url(#p534857c39f)" style="fill: #5f9e6e; stroke: #ffffff; stroke-linejoin: miter"/>
   </g>
   <g id="patch_39">
    <path d="M 864.880613 309.78 
L 872.667106 309.78 
L 872.667106 306.772705 
L 864.880613 306.772705 
z
" clip-path="url(#p534857c39f)" style="fill: #5f9e6e; stroke: #ffffff; stroke-linejoin: miter"/>
   </g>
   <g id="patch_40">
    <path d="M 962.211778 309.78 
L 969.998271 309.78 
L 969.998271 303.76541 
L 962.211778 303.76541 
z
" clip-path="url(#p534857c39f)" style="fill: #5f9e6e; stroke: #ffffff; stroke-linejoin: miter"/>
   </g>
   <g id="patch_41">
    <path d="M 1059.542943 309.78 
L 1067.329436 309.78 
L 1067.329436 300.758116 
L 1059.542943 300.758116 
z
" clip-path="url(#p534857c39f)" style="fill: #5f9e6e; stroke: #ffffff; stroke-linejoin: miter"/>
   </g>
   <g id="patch_42">
    <path d="M 1156.874108 309.78 
L 1164.660601 309.78 
L 1164.660601 306.772705 
L 1156.874108 306.772705 
z
" clip-path="url(#p534857c39f)" style="fill: #5f9e6e; stroke: #ffffff; stroke-linejoin: miter"/>
   </g>
   <g id="patch_43">
    <path d="M 1254.205273 309.78 
L 1261.991766 309.78 
L 1261.991766 309.78 
L 1254.205273 309.78 
z
" clip-path="url(#p534857c39f)" style="fill: #5f9e6e; stroke: #ffffff; stroke-linejoin: miter"/>
   </g>
   <g id="patch_44">
    <path d="M 1351.536438 309.78 
L 1359.322931 309.78 
L 1359.322931 309.78 
L 1351.536438 309.78 
z
" clip-path="url(#p534857c39f)" style="fill: #5f9e6e; stroke: #ffffff; stroke-linejoin: miter"/>
   </g>
   <g id="patch_45">
    <path d="M 94.017787 309.78 
L 101.80428 309.78 
L 101.80428 309.78 
L 94.017787 309.78 
z
" clip-path="url(#p534857c39f)" style="fill: #b55d60; stroke: #ffffff; stroke-linejoin: miter"/>
   </g>
   <g id="patch_46">
    <path d="M 191.348952 309.78 
L 199.135445 309.78 
L 199.135445 306.772705 
L 191.348952 306.772705 
z
" clip-path="url(#p534857c39f)" style="fill: #b55d60; stroke: #ffffff; stroke-linejoin: miter"/>
   </g>
   <g id="patch_47">
    <path d="M 288.680117 309.78 
L 296.46661 309.78 
L 296.46661 309.78 
L 288.680117 309.78 
z
" clip-path="url(#p534857c39f)" style="fill: #b55d60; stroke: #ffffff; stroke-linejoin: miter"/>
   </g>
   <g id="patch_48">
    <path d="M 386.011282 309.78 
L 393.797775 309.78 
L 393.797775 294.743526 
L 386.011282 294.743526 
z
" clip-path="url(#p534857c39f)" style="fill: #b55d60; stroke: #ffffff; stroke-linejoin: miter"/>
   </g>
   <g id="patch_49">
    <path d="M 483.342447 309.78 
L 491.12894 309.78 
L 491.12894 309.78 
L 483.342447 309.78 
z
" clip-path="url(#p534857c39f)" style="fill: #b55d60; stroke: #ffffff; stroke-linejoin: miter"/>
   </g>
   <g id="patch_50">
    <path d="M 580.673611 309.78 
L 588.460105 309.78 
L 588.460105 294.743526 
L 580.673611 294.743526 
z
" clip-path="url(#p534857c39f)" style="fill: #b55d60; stroke: #ffffff; stroke-linejoin: miter"/>
   </g>
   <g id="patch_51">
    <path d="M 678.004776 309.78 
L 685.79127 309.78 
L 685.79127 261.663283 
L 678.004776 261.663283 
z
" clip-path="url(#p534857c39f)" style="fill: #b55d60; stroke: #ffffff; stroke-linejoin: miter"/>
   </g>
   <g id="patch_52">
    <path d="M 775.335941 309.78 
L 783.122435 309.78 
L 783.122435 258.655988 
L 775.335941 258.655988 
z
" clip-path="url(#p534857c39f)" style="fill: #b55d60; stroke: #ffffff; stroke-linejoin: miter"/>
   </g>
   <g id="patch_53">
    <path d="M 872.667106 309.78 
L 880.4536 309.78 
L 880.4536 255.648693 
L 872.667106 255.648693 
z
" clip-path="url(#p534857c39f)" style="fill: #b55d60; stroke: #ffffff; stroke-linejoin: miter"/>
   </g>
   <g id="patch_54">
    <path d="M 969.998271 309.78 
L 977.784765 309.78 
L 977.784765 165.429848 
L 969.998271 165.429848 
z
" clip-path="url(#p534857c39f)" style="fill: #b55d60; stroke: #ffffff; stroke-linejoin: miter"/>
   </g>
   <g id="patch_55">
    <path d="M 1067.329436 309.78 
L 1075.115929 309.78 
L 1075.115929 69.196413 
L 1067.329436 69.196413 
z
" clip-path="url(#p534857c39f)" style="fill: #b55d60; stroke: #ffffff; stroke-linejoin: miter"/>
   </g>
   <g id="patch_56">
    <path d="M 1164.660601 309.78 
L 1172.447094 309.78 
L 1172.447094 33.108875 
L 1164.660601 33.108875 
z
" clip-path="url(#p534857c39f)" style="fill: #b55d60; stroke: #ffffff; stroke-linejoin: miter"/>
   </g>
   <g id="patch_57">
    <path d="M 1261.991766 309.78 
L 1269.778259 309.78 
L 1269.778259 84.232888 
L 1261.991766 84.232888 
z
" clip-path="url(#p534857c39f)" style="fill: #b55d60; stroke: #ffffff; stroke-linejoin: miter"/>
   </g>
   <g id="patch_58">
    <path d="M 1359.322931 309.78 
L 1367.109424 309.78 
L 1367.109424 189.488207 
L 1359.322931 189.488207 
z
" clip-path="url(#p534857c39f)" style="fill: #b55d60; stroke: #ffffff; stroke-linejoin: miter"/>
   </g>
   <g id="patch_59">
    <path d="M 101.80428 309.78 
L 109.590773 309.78 
L 109.590773 309.78 
L 101.80428 309.78 
z
" clip-path="url(#p534857c39f)" style="fill: #857aab; stroke: #ffffff; stroke-linejoin: miter"/>
   </g>
   <g id="patch_60">
    <path d="M 199.135445 309.78 
L 206.921938 309.78 
L 206.921938 309.78 
L 199.135445 309.78 
z
" clip-path="url(#p534857c39f)" style="fill: #857aab; stroke: #ffffff; stroke-linejoin: miter"/>
   </g>
   <g id="patch_61">
    <path d="M 296.46661 309.78 
L 304.253103 309.78 
L 304.253103 309.78 
L 296.46661 309.78 
z
" clip-path="url(#p534857c39f)" style="fill: #857aab; stroke: #ffffff; stroke-linejoin: miter"/>
   </g>
   <g id="patch_62">
    <path d="M 393.797775 309.78 
L 401.584268 309.78 
L 401.584268 309.78 
L 393.797775 309.78 
z
" clip-path="url(#p534857c39f)" style="fill: #857aab; stroke: #ffffff; stroke-linejoin: miter"/>
   </g>
   <g id="patch_63">
    <path d="M 491.12894 309.78 
L 498.915433 309.78 
L 498.915433 309.78 
L 491.12894 309.78 
z
" clip-path="url(#p534857c39f)" style="fill: #857aab; stroke: #ffffff; stroke-linejoin: miter"/>
   </g>
   <g id="patch_64">
    <path d="M 588.460105 309.78 
L 596.246598 309.78 
L 596.246598 309.78 
L 588.460105 309.78 
z
" clip-path="url(#p534857c39f)" style="fill: #857aab; stroke: #ffffff; stroke-linejoin: miter"/>
   </g>
   <g id="patch_65">
    <path d="M 685.79127 309.78 
L 693.577763 309.78 
L 693.577763 309.78 
L 685.79127 309.78 
z
" clip-path="url(#p534857c39f)" style="fill: #857aab; stroke: #ffffff; stroke-linejoin: miter"/>
   </g>
   <g id="patch_66">
    <path d="M 783.122435 309.78 
L 790.908928 309.78 
L 790.908928 309.78 
L 783.122435 309.78 
z
" clip-path="url(#p534857c39f)" style="fill: #857aab; stroke: #ffffff; stroke-linejoin: miter"/>
   </g>
   <g id="patch_67">
    <path d="M 880.4536 309.78 
L 888.240093 309.78 
L 888.240093 309.78 
L 880.4536 309.78 
z
" clip-path="url(#p534857c39f)" style="fill: #857aab; stroke: #ffffff; stroke-linejoin: miter"/>
   </g>
   <g id="patch_68">
    <path d="M 977.784765 309.78 
L 985.571258 309.78 
L 985.571258 306.772705 
L 977.784765 306.772705 
z
" clip-path="url(#p534857c39f)" style="fill: #857aab; stroke: #ffffff; stroke-linejoin: miter"/>
   </g>
   <g id="patch_69">
    <path d="M 1075.115929 309.78 
L 1082.902423 309.78 
L 1082.902423 309.78 
L 1075.115929 309.78 
z
" clip-path="url(#p534857c39f)" style="fill: #857aab; stroke: #ffffff; stroke-linejoin: miter"/>
   </g>
   <g id="patch_70">
    <path d="M 1172.447094 309.78 
L 1180.233588 309.78 
L 1180.233588 309.78 
L 1172.447094 309.78 
z
" clip-path="url(#p534857c39f)" style="fill: #857aab; stroke: #ffffff; stroke-linejoin: miter"/>
   </g>
   <g id="patch_71">
    <path d="M 1269.778259 309.78 
L 1277.564753 309.78 
L 1277.564753 306.772705 
L 1269.778259 306.772705 
z
" clip-path="url(#p534857c39f)" style="fill: #857aab; stroke: #ffffff; stroke-linejoin: miter"/>
   </g>
   <g id="patch_72">
    <path d="M 1367.109424 309.78 
L 1374.895918 309.78 
L 1374.895918 309.78 
L 1367.109424 309.78 
z
" clip-path="url(#p534857c39f)" style="fill: #857aab; stroke: #ffffff; stroke-linejoin: miter"/>
   </g>
   <g id="patch_73">
    <path d="M 109.590773 309.78 
L 117.377266 309.78 
L 117.377266 309.78 
L 109.590773 309.78 
z
" clip-path="url(#p534857c39f)" style="fill: #8d7866; stroke: #ffffff; stroke-linejoin: miter"/>
   </g>
   <g id="patch_74">
    <path d="M 206.921938 309.78 
L 214.708431 309.78 
L 214.708431 309.78 
L 206.921938 309.78 
z
" clip-path="url(#p534857c39f)" style="fill: #8d7866; stroke: #ffffff; stroke-linejoin: miter"/>
   </g>
   <g id="patch_75">
    <path d="M 304.253103 309.78 
L 312.039596 309.78 
L 312.039596 309.78 
L 304.253103 309.78 
z
" clip-path="url(#p534857c39f)" style="fill: #8d7866; stroke: #ffffff; stroke-linejoin: miter"/>
   </g>
   <g id="patch_76">
    <path d="M 401.584268 309.78 
L 409.370761 309.78 
L 409.370761 309.78 
L 401.584268 309.78 
z
" clip-path="url(#p534857c39f)" style="fill: #8d7866; stroke: #ffffff; stroke-linejoin: miter"/>
   </g>
   <g id="patch_77">
    <path d="M 498.915433 309.78 
L 506.701926 309.78 
L 506.701926 309.78 
L 498.915433 309.78 
z
" clip-path="url(#p534857c39f)" style="fill: #8d7866; stroke: #ffffff; stroke-linejoin: miter"/>
   </g>
   <g id="patch_78">
    <path d="M 596.246598 309.78 
L 604.033091 309.78 
L 604.033091 309.78 
L 596.246598 309.78 
z
" clip-path="url(#p534857c39f)" style="fill: #8d7866; stroke: #ffffff; stroke-linejoin: miter"/>
   </g>
   <g id="patch_79">
    <path d="M 693.577763 309.78 
L 701.364256 309.78 
L 701.364256 309.78 
L 693.577763 309.78 
z
" clip-path="url(#p534857c39f)" style="fill: #8d7866; stroke: #ffffff; stroke-linejoin: miter"/>
   </g>
   <g id="patch_80">
    <path d="M 790.908928 309.78 
L 798.695421 309.78 
L 798.695421 309.78 
L 790.908928 309.78 
z
" clip-path="url(#p534857c39f)" style="fill: #8d7866; stroke: #ffffff; stroke-linejoin: miter"/>
   </g>
   <g id="patch_81">
    <path d="M 888.240093 309.78 
L 896.026586 309.78 
L 896.026586 309.78 
L 888.240093 309.78 
z
" clip-path="url(#p534857c39f)" style="fill: #8d7866; stroke: #ffffff; stroke-linejoin: miter"/>
   </g>
   <g id="patch_82">
    <path d="M 985.571258 309.78 
L 993.357751 309.78 
L 993.357751 309.78 
L 985.571258 309.78 
z
" clip-path="url(#p534857c39f)" style="fill: #8d7866; stroke: #ffffff; stroke-linejoin: miter"/>
   </g>
   <g id="patch_83">
    <path d="M 1082.902423 309.78 
L 1090.688916 309.78 
L 1090.688916 306.772705 
L 1082.902423 306.772705 
z
" clip-path="url(#p534857c39f)" style="fill: #8d7866; stroke: #ffffff; stroke-linejoin: miter"/>
   </g>
   <g id="patch_84">
    <path d="M 1180.233588 309.78 
L 1188.020081 309.78 
L 1188.020081 306.772705 
L 1180.233588 306.772705 
z
" clip-path="url(#p534857c39f)" style="fill: #8d7866; stroke: #ffffff; stroke-linejoin: miter"/>
   </g>
   <g id="patch_85">
    <path d="M 1277.564753 309.78 
L 1285.351246 309.78 
L 1285.351246 306.772705 
L 1277.564753 306.772705 
z
" clip-path="url(#p534857c39f)" style="fill: #8d7866; stroke: #ffffff; stroke-linejoin: miter"/>
   </g>
   <g id="patch_86">
    <path d="M 1374.895918 309.78 
L 1382.682411 309.78 
L 1382.682411 306.772705 
L 1374.895918 306.772705 
z
" clip-path="url(#p534857c39f)" style="fill: #8d7866; stroke: #ffffff; stroke-linejoin: miter"/>
   </g>
   <g id="patch_87">
    <path d="M 117.377266 309.78 
L 125.163759 309.78 
L 125.163759 309.78 
L 117.377266 309.78 
z
" clip-path="url(#p534857c39f)" style="fill: #d095bf; stroke: #ffffff; stroke-linejoin: miter"/>
   </g>
   <g id="patch_88">
    <path d="M 214.708431 309.78 
L 222.494924 309.78 
L 222.494924 309.78 
L 214.708431 309.78 
z
" clip-path="url(#p534857c39f)" style="fill: #d095bf; stroke: #ffffff; stroke-linejoin: miter"/>
   </g>
   <g id="patch_89">
    <path d="M 312.039596 309.78 
L 319.826089 309.78 
L 319.826089 309.78 
L 312.039596 309.78 
z
" clip-path="url(#p534857c39f)" style="fill: #d095bf; stroke: #ffffff; stroke-linejoin: miter"/>
   </g>
   <g id="patch_90">
    <path d="M 409.370761 309.78 
L 417.157254 309.78 
L 417.157254 309.78 
L 409.370761 309.78 
z
" clip-path="url(#p534857c39f)" style="fill: #d095bf; stroke: #ffffff; stroke-linejoin: miter"/>
   </g>
   <g id="patch_91">
    <path d="M 506.701926 309.78 
L 514.488419 309.78 
L 514.488419 309.78 
L 506.701926 309.78 
z
" clip-path="url(#p534857c39f)" style="fill: #d095bf; stroke: #ffffff; stroke-linejoin: miter"/>
   </g>
   <g id="patch_92">
    <path d="M 604.033091 309.78 
L 611.819584 309.78 
L 611.819584 309.78 
L 604.033091 309.78 
z
" clip-path="url(#p534857c39f)" style="fill: #d095bf; stroke: #ffffff; stroke-linejoin: miter"/>
   </g>
   <g id="patch_93">
    <path d="M 701.364256 309.78 
L 709.150749 309.78 
L 709.150749 309.78 
L 701.364256 309.78 
z
" clip-path="url(#p534857c39f)" style="fill: #d095bf; stroke: #ffffff; stroke-linejoin: miter"/>
   </g>
   <g id="patch_94">
    <path d="M 798.695421 309.78 
L 806.481914 309.78 
L 806.481914 309.78 
L 798.695421 309.78 
z
" clip-path="url(#p534857c39f)" style="fill: #d095bf; stroke: #ffffff; stroke-linejoin: miter"/>
   </g>
   <g id="patch_95">
    <path d="M 896.026586 309.78 
L 903.813079 309.78 
L 903.813079 309.78 
L 896.026586 309.78 
z
" clip-path="url(#p534857c39f)" style="fill: #d095bf; stroke: #ffffff; stroke-linejoin: miter"/>
   </g>
   <g id="patch_96">
    <path d="M 993.357751 309.78 
L 1001.144244 309.78 
L 1001.144244 309.78 
L 993.357751 309.78 
z
" clip-path="url(#p534857c39f)" style="fill: #d095bf; stroke: #ffffff; stroke-linejoin: miter"/>
   </g>
   <g id="patch_97">
    <path d="M 1090.688916 309.78 
L 1098.475409 309.78 
L 1098.475409 303.76541 
L 1090.688916 303.76541 
z
" clip-path="url(#p534857c39f)" style="fill: #d095bf; stroke: #ffffff; stroke-linejoin: miter"/>
   </g>
   <g id="patch_98">
    <path d="M 1188.020081 309.78 
L 1195.806574 309.78 
L 1195.806574 309.78 
L 1188.020081 309.78 
z
" clip-path="url(#p534857c39f)" style="fill: #d095bf; stroke: #ffffff; stroke-linejoin: miter"/>
   </g>
   <g id="patch_99">
    <path d="M 1285.351246 309.78 
L 1293.137739 309.78 
L 1293.137739 306.772705 
L 1285.351246 306.772705 
z
" clip-path="url(#p534857c39f)" style="fill: #d095bf; stroke: #ffffff; stroke-linejoin: miter"/>
   </g>
   <g id="patch_100">
    <path d="M 1382.682411 309.78 
L 1390.468904 309.78 
L 1390.468904 309.78 
L 1382.682411 309.78 
z
" clip-path="url(#p534857c39f)" style="fill: #d095bf; stroke: #ffffff; stroke-linejoin: miter"/>
   </g>
   <g id="patch_101">
    <path d="M 125.163759 309.78 
L 132.950253 309.78 
L 132.950253 309.78 
L 125.163759 309.78 
z
" clip-path="url(#p534857c39f)" style="fill: #8c8c8c; stroke: #ffffff; stroke-linejoin: miter"/>
   </g>
   <g id="patch_102">
    <path d="M 222.494924 309.78 
L 230.281418 309.78 
L 230.281418 309.78 
L 222.494924 309.78 
z
" clip-path="url(#p534857c39f)" style="fill: #8c8c8c; stroke: #ffffff; stroke-linejoin: miter"/>
   </g>
   <g id="patch_103">
    <path d="M 319.826089 309.78 
L 327.612583 309.78 
L 327.612583 309.78 
L 319.826089 309.78 
z
" clip-path="url(#p534857c39f)" style="fill: #8c8c8c; stroke: #ffffff; stroke-linejoin: miter"/>
   </g>
   <g id="patch_104">
    <path d="M 417.157254 309.78 
L 424.943748 309.78 
L 424.943748 306.772705 
L 417.157254 306.772705 
z
" clip-path="url(#p534857c39f)" style="fill: #8c8c8c; stroke: #ffffff; stroke-linejoin: miter"/>
   </g>
   <g id="patch_105">
    <path d="M 514.488419 309.78 
L 522.274913 309.78 
L 522.274913 303.76541 
L 514.488419 303.76541 
z
" clip-path="url(#p534857c39f)" style="fill: #8c8c8c; stroke: #ffffff; stroke-linejoin: miter"/>
   </g>
   <g id="patch_106">
    <path d="M 611.819584 309.78 
L 619.606077 309.78 
L 619.606077 306.772705 
L 611.819584 306.772705 
z
" clip-path="url(#p534857c39f)" style="fill: #8c8c8c; stroke: #ffffff; stroke-linejoin: miter"/>
   </g>
   <g id="patch_107">
    <path d="M 709.150749 309.78 
L 716.937242 309.78 
L 716.937242 309.78 
L 709.150749 309.78 
z
" clip-path="url(#p534857c39f)" style="fill: #8c8c8c; stroke: #ffffff; stroke-linejoin: miter"/>
   </g>
   <g id="patch_108">
    <path d="M 806.481914 309.78 
L 814.268407 309.78 
L 814.268407 297.750821 
L 806.481914 297.750821 
z
" clip-path="url(#p534857c39f)" style="fill: #8c8c8c; stroke: #ffffff; stroke-linejoin: miter"/>
   </g>
   <g id="patch_109">
    <path d="M 903.813079 309.78 
L 911.599572 309.78 
L 911.599572 303.76541 
L 903.813079 303.76541 
z
" clip-path="url(#p534857c39f)" style="fill: #8c8c8c; stroke: #ffffff; stroke-linejoin: miter"/>
   </g>
   <g id="patch_110">
    <path d="M 1001.144244 309.78 
L 1008.930737 309.78 
L 1008.930737 303.76541 
L 1001.144244 303.76541 
z
" clip-path="url(#p534857c39f)" style="fill: #8c8c8c; stroke: #ffffff; stroke-linejoin: miter"/>
   </g>
   <g id="patch_111">
    <path d="M 1098.475409 309.78 
L 1106.261902 309.78 
L 1106.261902 306.772705 
L 1098.475409 306.772705 
z
" clip-path="url(#p534857c39f)" style="fill: #8c8c8c; stroke: #ffffff; stroke-linejoin: miter"/>
   </g>
   <g id="patch_112">
    <path d="M 1195.806574 309.78 
L 1203.593067 309.78 
L 1203.593067 291.736231 
L 1195.806574 291.736231 
z
" clip-path="url(#p534857c39f)" style="fill: #8c8c8c; stroke: #ffffff; stroke-linejoin: miter"/>
   </g>
   <g id="patch_113">
    <path d="M 1293.137739 309.78 
L 1300.924232 309.78 
L 1300.924232 297.750821 
L 1293.137739 297.750821 
z
" clip-path="url(#p534857c39f)" style="fill: #8c8c8c; stroke: #ffffff; stroke-linejoin: miter"/>
   </g>
   <g id="patch_114">
    <path d="M 1390.468904 309.78 
L 1398.255397 309.78 
L 1398.255397 309.78 
L 1390.468904 309.78 
z
" clip-path="url(#p534857c39f)" style="fill: #8c8c8c; stroke: #ffffff; stroke-linejoin: miter"/>
   </g>
   <g id="patch_115">
    <path d="M 132.950253 309.78 
L 140.736746 309.78 
L 140.736746 309.78 
L 132.950253 309.78 
z
" clip-path="url(#p534857c39f)" style="fill: #c1b37f; stroke: #ffffff; stroke-linejoin: miter"/>
   </g>
   <g id="patch_116">
    <path d="M 230.281418 309.78 
L 238.067911 309.78 
L 238.067911 309.78 
L 230.281418 309.78 
z
" clip-path="url(#p534857c39f)" style="fill: #c1b37f; stroke: #ffffff; stroke-linejoin: miter"/>
   </g>
   <g id="patch_117">
    <path d="M 327.612583 309.78 
L 335.399076 309.78 
L 335.399076 306.772705 
L 327.612583 306.772705 
z
" clip-path="url(#p534857c39f)" style="fill: #c1b37f; stroke: #ffffff; stroke-linejoin: miter"/>
   </g>
   <g id="patch_118">
    <path d="M 424.943748 309.78 
L 432.730241 309.78 
L 432.730241 309.78 
L 424.943748 309.78 
z
" clip-path="url(#p534857c39f)" style="fill: #c1b37f; stroke: #ffffff; stroke-linejoin: miter"/>
   </g>
   <g id="patch_119">
    <path d="M 522.274913 309.78 
L 530.061406 309.78 
L 530.061406 309.78 
L 522.274913 309.78 
z
" clip-path="url(#p534857c39f)" style="fill: #c1b37f; stroke: #ffffff; stroke-linejoin: miter"/>
   </g>
   <g id="patch_120">
    <path d="M 619.606077 309.78 
L 627.392571 309.78 
L 627.392571 309.78 
L 619.606077 309.78 
z
" clip-path="url(#p534857c39f)" style="fill: #c1b37f; stroke: #ffffff; stroke-linejoin: miter"/>
   </g>
   <g id="patch_121">
    <path d="M 716.937242 309.78 
L 724.723736 309.78 
L 724.723736 309.78 
L 716.937242 309.78 
z
" clip-path="url(#p534857c39f)" style="fill: #c1b37f; stroke: #ffffff; stroke-linejoin: miter"/>
   </g>
   <g id="patch_122">
    <path d="M 814.268407 309.78 
L 822.054901 309.78 
L 822.054901 309.78 
L 814.268407 309.78 
z
" clip-path="url(#p534857c39f)" style="fill: #c1b37f; stroke: #ffffff; stroke-linejoin: miter"/>
   </g>
   <g id="patch_123">
    <path d="M 911.599572 309.78 
L 919.386066 309.78 
L 919.386066 309.78 
L 911.599572 309.78 
z
" clip-path="url(#p534857c39f)" style="fill: #c1b37f; stroke: #ffffff; stroke-linejoin: miter"/>
   </g>
   <g id="patch_124">
    <path d="M 1008.930737 309.78 
L 1016.71723 309.78 
L 1016.71723 309.78 
L 1008.930737 309.78 
z
" clip-path="url(#p534857c39f)" style="fill: #c1b37f; stroke: #ffffff; stroke-linejoin: miter"/>
   </g>
   <g id="patch_125">
    <path d="M 1106.261902 309.78 
L 1114.048395 309.78 
L 1114.048395 306.772705 
L 1106.261902 306.772705 
z
" clip-path="url(#p534857c39f)" style="fill: #c1b37f; stroke: #ffffff; stroke-linejoin: miter"/>
   </g>
   <g id="patch_126">
    <path d="M 1203.593067 309.78 
L 1211.37956 309.78 
L 1211.37956 309.78 
L 1203.593067 309.78 
z
" clip-path="url(#p534857c39f)" style="fill: #c1b37f; stroke: #ffffff; stroke-linejoin: miter"/>
   </g>
   <g id="patch_127">
    <path d="M 1300.924232 309.78 
L 1308.710725 309.78 
L 1308.710725 309.78 
L 1300.924232 309.78 
z
" clip-path="url(#p534857c39f)" style="fill: #c1b37f; stroke: #ffffff; stroke-linejoin: miter"/>
   </g>
   <g id="patch_128">
    <path d="M 1398.255397 309.78 
L 1406.04189 309.78 
L 1406.04189 309.78 
L 1398.255397 309.78 
z
" clip-path="url(#p534857c39f)" style="fill: #c1b37f; stroke: #ffffff; stroke-linejoin: miter"/>
   </g>
   <g id="patch_129">
    <path d="M 140.736746 309.78 
L 148.523239 309.78 
L 148.523239 309.78 
L 140.736746 309.78 
z
" clip-path="url(#p534857c39f)" style="fill: #71aec0; stroke: #ffffff; stroke-linejoin: miter"/>
   </g>
   <g id="patch_130">
    <path d="M 238.067911 309.78 
L 245.854404 309.78 
L 245.854404 309.78 
L 238.067911 309.78 
z
" clip-path="url(#p534857c39f)" style="fill: #71aec0; stroke: #ffffff; stroke-linejoin: miter"/>
   </g>
   <g id="patch_131">
    <path d="M 335.399076 309.78 
L 343.185569 309.78 
L 343.185569 309.78 
L 335.399076 309.78 
z
" clip-path="url(#p534857c39f)" style="fill: #71aec0; stroke: #ffffff; stroke-linejoin: miter"/>
   </g>
   <g id="patch_132">
    <path d="M 432.730241 309.78 
L 440.516734 309.78 
L 440.516734 309.78 
L 432.730241 309.78 
z
" clip-path="url(#p534857c39f)" style="fill: #71aec0; stroke: #ffffff; stroke-linejoin: miter"/>
   </g>
   <g id="patch_133">
    <path d="M 530.061406 309.78 
L 537.847899 309.78 
L 537.847899 309.78 
L 530.061406 309.78 
z
" clip-path="url(#p534857c39f)" style="fill: #71aec0; stroke: #ffffff; stroke-linejoin: miter"/>
   </g>
   <g id="patch_134">
    <path d="M 627.392571 309.78 
L 635.179064 309.78 
L 635.179064 309.78 
L 627.392571 309.78 
z
" clip-path="url(#p534857c39f)" style="fill: #71aec0; stroke: #ffffff; stroke-linejoin: miter"/>
   </g>
   <g id="patch_135">
    <path d="M 724.723736 309.78 
L 732.510229 309.78 
L 732.510229 306.772705 
L 724.723736 306.772705 
z
" clip-path="url(#p534857c39f)" style="fill: #71aec0; stroke: #ffffff; stroke-linejoin: miter"/>
   </g>
   <g id="patch_136">
    <path d="M 822.054901 309.78 
L 829.841394 309.78 
L 829.841394 309.78 
L 822.054901 309.78 
z
" clip-path="url(#p534857c39f)" style="fill: #71aec0; stroke: #ffffff; stroke-linejoin: miter"/>
   </g>
   <g id="patch_137">
    <path d="M 919.386066 309.78 
L 927.172559 309.78 
L 927.172559 309.78 
L 919.386066 309.78 
z
" clip-path="url(#p534857c39f)" style="fill: #71aec0; stroke: #ffffff; stroke-linejoin: miter"/>
   </g>
   <g id="patch_138">
    <path d="M 1016.71723 309.78 
L 1024.503724 309.78 
L 1024.503724 309.78 
L 1016.71723 309.78 
z
" clip-path="url(#p534857c39f)" style="fill: #71aec0; stroke: #ffffff; stroke-linejoin: miter"/>
   </g>
   <g id="patch_139">
    <path d="M 1114.048395 309.78 
L 1121.834889 309.78 
L 1121.834889 309.78 
L 1114.048395 309.78 
z
" clip-path="url(#p534857c39f)" style="fill: #71aec0; stroke: #ffffff; stroke-linejoin: miter"/>
   </g>
   <g id="patch_140">
    <path d="M 1211.37956 309.78 
L 1219.166054 309.78 
L 1219.166054 309.78 
L 1211.37956 309.78 
z
" clip-path="url(#p534857c39f)" style="fill: #71aec0; stroke: #ffffff; stroke-linejoin: miter"/>
   </g>
   <g id="patch_141">
    <path d="M 1308.710725 309.78 
L 1316.497219 309.78 
L 1316.497219 309.78 
L 1308.710725 309.78 
z
" clip-path="url(#p534857c39f)" style="fill: #71aec0; stroke: #ffffff; stroke-linejoin: miter"/>
   </g>
   <g id="patch_142">
    <path d="M 1406.04189 309.78 
L 1413.828384 309.78 
L 1413.828384 309.78 
L 1406.04189 309.78 
z
" clip-path="url(#p534857c39f)" style="fill: #71aec0; stroke: #ffffff; stroke-linejoin: miter"/>
   </g>
   <g id="patch_143">
    <path d="M 60.925191 309.78 
L 60.925191 12.96 
" style="fill: none; stroke: #262626; stroke-width: 1.25; stroke-linejoin: miter; stroke-linecap: square"/>
   </g>
   <g id="patch_144">
    <path d="M 60.925191 309.78 
L 1423.5615 309.78 
" style="fill: none; stroke: #262626; stroke-width: 1.25; stroke-linejoin: miter; stroke-linecap: square"/>
   </g>
  </g>
  <g id="legend_1">
   <g id="text_22">
    <!-- method -->
    <g style="fill: #262626" transform="translate(1513.400391 102.581562) scale(0.12 -0.12)">
     <defs>
      <path id="DejaVuSans-68" d="M 3513 2113 
L 3513 0 
L 2938 0 
L 2938 2094 
Q 2938 2591 2744 2837 
Q 2550 3084 2163 3084 
Q 1697 3084 1428 2787 
Q 1159 2491 1159 1978 
L 1159 0 
L 581 0 
L 581 4863 
L 1159 4863 
L 1159 2956 
Q 1366 3272 1645 3428 
Q 1925 3584 2291 3584 
Q 2894 3584 3203 3211 
Q 3513 2838 3513 2113 
z
" transform="scale(0.015625)"/>
     </defs>
     <use xlink:href="#DejaVuSans-6d"/>
     <use xlink:href="#DejaVuSans-65" x="97.412109"/>
     <use xlink:href="#DejaVuSans-74" x="158.935547"/>
     <use xlink:href="#DejaVuSans-68" x="198.144531"/>
     <use xlink:href="#DejaVuSans-6f" x="261.523438"/>
     <use xlink:href="#DejaVuSans-64" x="322.705078"/>
    </g>
   </g>
   <g id="patch_145">
    <path d="M 1439.193281 118.935469 
L 1461.193281 118.935469 
L 1461.193281 111.235469 
L 1439.193281 111.235469 
z
" style="fill: #5875a4; stroke: #ffffff; stroke-linejoin: miter"/>
   </g>
   <g id="text_23">
    <!-- Radial Velocity -->
    <g style="fill: #262626" transform="translate(1469.993281 118.935469) scale(0.11 -0.11)">
     <defs>
      <path id="DejaVuSans-52" d="M 2841 2188 
Q 3044 2119 3236 1894 
Q 3428 1669 3622 1275 
L 4263 0 
L 3584 0 
L 2988 1197 
Q 2756 1666 2539 1819 
Q 2322 1972 1947 1972 
L 1259 1972 
L 1259 0 
L 628 0 
L 628 4666 
L 2053 4666 
Q 2853 4666 3247 4331 
Q 3641 3997 3641 3322 
Q 3641 2881 3436 2590 
Q 3231 2300 2841 2188 
z
M 1259 4147 
L 1259 2491 
L 2053 2491 
Q 2509 2491 2742 2702 
Q 2975 2913 2975 3322 
Q 2975 3731 2742 3939 
Q 2509 4147 2053 4147 
L 1259 4147 
z
" transform="scale(0.015625)"/>
      <path id="DejaVuSans-56" d="M 1831 0 
L 50 4666 
L 709 4666 
L 2188 738 
L 3669 4666 
L 4325 4666 
L 2547 0 
L 1831 0 
z
" transform="scale(0.015625)"/>
     </defs>
     <use xlink:href="#DejaVuSans-52"/>
     <use xlink:href="#DejaVuSans-61" x="67.232422"/>
     <use xlink:href="#DejaVuSans-64" x="128.511719"/>
     <use xlink:href="#DejaVuSans-69" x="191.988281"/>
     <use xlink:href="#DejaVuSans-61" x="219.771484"/>
     <use xlink:href="#DejaVuSans-6c" x="281.050781"/>
     <use xlink:href="#DejaVuSans-20" x="308.833984"/>
     <use xlink:href="#DejaVuSans-56" x="340.621094"/>
     <use xlink:href="#DejaVuSans-65" x="401.279297"/>
     <use xlink:href="#DejaVuSans-6c" x="462.802734"/>
     <use xlink:href="#DejaVuSans-6f" x="490.585938"/>
     <use xlink:href="#DejaVuSans-63" x="551.767578"/>
     <use xlink:href="#DejaVuSans-69" x="606.748047"/>
     <use xlink:href="#DejaVuSans-74" x="634.53125"/>
     <use xlink:href="#DejaVuSans-79" x="673.740234"/>
    </g>
   </g>
   <g id="patch_146">
    <path d="M 1439.193281 135.081406 
L 1461.193281 135.081406 
L 1461.193281 127.381406 
L 1439.193281 127.381406 
z
" style="fill: #cc8963; stroke: #ffffff; stroke-linejoin: miter"/>
   </g>
   <g id="text_24">
    <!-- Imaging -->
    <g style="fill: #262626" transform="translate(1469.993281 135.081406) scale(0.11 -0.11)">
     <defs>
      <path id="DejaVuSans-49" d="M 628 4666 
L 1259 4666 
L 1259 0 
L 628 0 
L 628 4666 
z
" transform="scale(0.015625)"/>
      <path id="DejaVuSans-67" d="M 2906 1791 
Q 2906 2416 2648 2759 
Q 2391 3103 1925 3103 
Q 1463 3103 1205 2759 
Q 947 2416 947 1791 
Q 947 1169 1205 825 
Q 1463 481 1925 481 
Q 2391 481 2648 825 
Q 2906 1169 2906 1791 
z
M 3481 434 
Q 3481 -459 3084 -895 
Q 2688 -1331 1869 -1331 
Q 1566 -1331 1297 -1286 
Q 1028 -1241 775 -1147 
L 775 -588 
Q 1028 -725 1275 -790 
Q 1522 -856 1778 -856 
Q 2344 -856 2625 -561 
Q 2906 -266 2906 331 
L 2906 616 
Q 2728 306 2450 153 
Q 2172 0 1784 0 
Q 1141 0 747 490 
Q 353 981 353 1791 
Q 353 2603 747 3093 
Q 1141 3584 1784 3584 
Q 2172 3584 2450 3431 
Q 2728 3278 2906 2969 
L 2906 3500 
L 3481 3500 
L 3481 434 
z
" transform="scale(0.015625)"/>
     </defs>
     <use xlink:href="#DejaVuSans-49"/>
     <use xlink:href="#DejaVuSans-6d" x="29.492188"/>
     <use xlink:href="#DejaVuSans-61" x="126.904297"/>
     <use xlink:href="#DejaVuSans-67" x="188.183594"/>
     <use xlink:href="#DejaVuSans-69" x="251.660156"/>
     <use xlink:href="#DejaVuSans-6e" x="279.443359"/>
     <use xlink:href="#DejaVuSans-67" x="342.822266"/>
    </g>
   </g>
   <g id="patch_147">
    <path d="M 1439.193281 151.227344 
L 1461.193281 151.227344 
L 1461.193281 143.527344 
L 1439.193281 143.527344 
z
" style="fill: #5f9e6e; stroke: #ffffff; stroke-linejoin: miter"/>
   </g>
   <g id="text_25">
    <!-- Eclipse Timing Variations -->
    <g style="fill: #262626" transform="translate(1469.993281 151.227344) scale(0.11 -0.11)">
     <defs>
      <path id="DejaVuSans-45" d="M 628 4666 
L 3578 4666 
L 3578 4134 
L 1259 4134 
L 1259 2753 
L 3481 2753 
L 3481 2222 
L 1259 2222 
L 1259 531 
L 3634 531 
L 3634 0 
L 628 0 
L 628 4666 
z
" transform="scale(0.015625)"/>
      <path id="DejaVuSans-70" d="M 1159 525 
L 1159 -1331 
L 581 -1331 
L 581 3500 
L 1159 3500 
L 1159 2969 
Q 1341 3281 1617 3432 
Q 1894 3584 2278 3584 
Q 2916 3584 3314 3078 
Q 3713 2572 3713 1747 
Q 3713 922 3314 415 
Q 2916 -91 2278 -91 
Q 1894 -91 1617 61 
Q 1341 213 1159 525 
z
M 3116 1747 
Q 3116 2381 2855 2742 
Q 2594 3103 2138 3103 
Q 1681 3103 1420 2742 
Q 1159 2381 1159 1747 
Q 1159 1113 1420 752 
Q 1681 391 2138 391 
Q 2594 391 2855 752 
Q 3116 1113 3116 1747 
z
" transform="scale(0.015625)"/>
      <path id="DejaVuSans-54" d="M -19 4666 
L 3928 4666 
L 3928 4134 
L 2272 4134 
L 2272 0 
L 1638 0 
L 1638 4134 
L -19 4134 
L -19 4666 
z
" transform="scale(0.015625)"/>
     </defs>
     <use xlink:href="#DejaVuSans-45"/>
     <use xlink:href="#DejaVuSans-63" x="63.183594"/>
     <use xlink:href="#DejaVuSans-6c" x="118.164062"/>
     <use xlink:href="#DejaVuSans-69" x="145.947266"/>
     <use xlink:href="#DejaVuSans-70" x="173.730469"/>
     <use xlink:href="#DejaVuSans-73" x="237.207031"/>
     <use xlink:href="#DejaVuSans-65" x="289.306641"/>
     <use xlink:href="#DejaVuSans-20" x="350.830078"/>
     <use xlink:href="#DejaVuSans-54" x="382.617188"/>
     <use xlink:href="#DejaVuSans-69" x="440.576172"/>
     <use xlink:href="#DejaVuSans-6d" x="468.359375"/>
     <use xlink:href="#DejaVuSans-69" x="565.771484"/>
     <use xlink:href="#DejaVuSans-6e" x="593.554688"/>
     <use xlink:href="#DejaVuSans-67" x="656.933594"/>
     <use xlink:href="#DejaVuSans-20" x="720.410156"/>
     <use xlink:href="#DejaVuSans-56" x="752.197266"/>
     <use xlink:href="#DejaVuSans-61" x="812.855469"/>
     <use xlink:href="#DejaVuSans-72" x="874.134766"/>
     <use xlink:href="#DejaVuSans-69" x="915.248047"/>
     <use xlink:href="#DejaVuSans-61" x="943.03125"/>
     <use xlink:href="#DejaVuSans-74" x="1004.310547"/>
     <use xlink:href="#DejaVuSans-69" x="1043.519531"/>
     <use xlink:href="#DejaVuSans-6f" x="1071.302734"/>
     <use xlink:href="#DejaVuSans-6e" x="1132.484375"/>
     <use xlink:href="#DejaVuSans-73" x="1195.863281"/>
    </g>
   </g>
   <g id="patch_148">
    <path d="M 1439.193281 167.373281 
L 1461.193281 167.373281 
L 1461.193281 159.673281 
L 1439.193281 159.673281 
z
" style="fill: #b55d60; stroke: #ffffff; stroke-linejoin: miter"/>
   </g>
   <g id="text_26">
    <!-- Transit -->
    <g style="fill: #262626" transform="translate(1469.993281 167.373281) scale(0.11 -0.11)">
     <use xlink:href="#DejaVuSans-54"/>
     <use xlink:href="#DejaVuSans-72" x="46.333984"/>
     <use xlink:href="#DejaVuSans-61" x="87.447266"/>
     <use xlink:href="#DejaVuSans-6e" x="148.726562"/>
     <use xlink:href="#DejaVuSans-73" x="212.105469"/>
     <use xlink:href="#DejaVuSans-69" x="264.205078"/>
     <use xlink:href="#DejaVuSans-74" x="291.988281"/>
    </g>
   </g>
   <g id="patch_149">
    <path d="M 1439.193281 183.519219 
L 1461.193281 183.519219 
L 1461.193281 175.819219 
L 1439.193281 175.819219 
z
" style="fill: #857aab; stroke: #ffffff; stroke-linejoin: miter"/>
   </g>
   <g id="text_27">
    <!-- Astrometry -->
    <g style="fill: #262626" transform="translate(1469.993281 183.519219) scale(0.11 -0.11)">
     <defs>
      <path id="DejaVuSans-41" d="M 2188 4044 
L 1331 1722 
L 3047 1722 
L 2188 4044 
z
M 1831 4666 
L 2547 4666 
L 4325 0 
L 3669 0 
L 3244 1197 
L 1141 1197 
L 716 0 
L 50 0 
L 1831 4666 
z
" transform="scale(0.015625)"/>
     </defs>
     <use xlink:href="#DejaVuSans-41"/>
     <use xlink:href="#DejaVuSans-73" x="68.408203"/>
     <use xlink:href="#DejaVuSans-74" x="120.507812"/>
     <use xlink:href="#DejaVuSans-72" x="159.716797"/>
     <use xlink:href="#DejaVuSans-6f" x="198.580078"/>
     <use xlink:href="#DejaVuSans-6d" x="259.761719"/>
     <use xlink:href="#DejaVuSans-65" x="357.173828"/>
     <use xlink:href="#DejaVuSans-74" x="418.697266"/>
     <use xlink:href="#DejaVuSans-72" x="457.90625"/>
     <use xlink:href="#DejaVuSans-79" x="499.019531"/>
    </g>
   </g>
   <g id="patch_150">
    <path d="M 1439.193281 199.665156 
L 1461.193281 199.665156 
L 1461.193281 191.965156 
L 1439.193281 191.965156 
z
" style="fill: #8d7866; stroke: #ffffff; stroke-linejoin: miter"/>
   </g>
   <g id="text_28">
    <!-- Transit Timing Variations -->
    <g style="fill: #262626" transform="translate(1469.993281 199.665156) scale(0.11 -0.11)">
     <use xlink:href="#DejaVuSans-54"/>
     <use xlink:href="#DejaVuSans-72" x="46.333984"/>
     <use xlink:href="#DejaVuSans-61" x="87.447266"/>
     <use xlink:href="#DejaVuSans-6e" x="148.726562"/>
     <use xlink:href="#DejaVuSans-73" x="212.105469"/>
     <use xlink:href="#DejaVuSans-69" x="264.205078"/>
     <use xlink:href="#DejaVuSans-74" x="291.988281"/>
     <use xlink:href="#DejaVuSans-20" x="331.197266"/>
     <use xlink:href="#DejaVuSans-54" x="362.984375"/>
     <use xlink:href="#DejaVuSans-69" x="420.943359"/>
     <use xlink:href="#DejaVuSans-6d" x="448.726562"/>
     <use xlink:href="#DejaVuSans-69" x="546.138672"/>
     <use xlink:href="#DejaVuSans-6e" x="573.921875"/>
     <use xlink:href="#DejaVuSans-67" x="637.300781"/>
     <use xlink:href="#DejaVuSans-20" x="700.777344"/>
     <use xlink:href="#DejaVuSans-56" x="732.564453"/>
     <use xlink:href="#DejaVuSans-61" x="793.222656"/>
     <use xlink:href="#DejaVuSans-72" x="854.501953"/>
     <use xlink:href="#DejaVuSans-69" x="895.615234"/>
     <use xlink:href="#DejaVuSans-61" x="923.398438"/>
     <use xlink:href="#DejaVuSans-74" x="984.677734"/>
     <use xlink:href="#DejaVuSans-69" x="1023.886719"/>
     <use xlink:href="#DejaVuSans-6f" x="1051.669922"/>
     <use xlink:href="#DejaVuSans-6e" x="1112.851562"/>
     <use xlink:href="#DejaVuSans-73" x="1176.230469"/>
    </g>
   </g>
   <g id="patch_151">
    <path d="M 1439.193281 215.811094 
L 1461.193281 215.811094 
L 1461.193281 208.111094 
L 1439.193281 208.111094 
z
" style="fill: #d095bf; stroke: #ffffff; stroke-linejoin: miter"/>
   </g>
   <g id="text_29">
    <!-- Orbital Brightness Modulation -->
    <g style="fill: #262626" transform="translate(1469.993281 215.811094) scale(0.11 -0.11)">
     <defs>
      <path id="DejaVuSans-4f" d="M 2522 4238 
Q 1834 4238 1429 3725 
Q 1025 3213 1025 2328 
Q 1025 1447 1429 934 
Q 1834 422 2522 422 
Q 3209 422 3611 934 
Q 4013 1447 4013 2328 
Q 4013 3213 3611 3725 
Q 3209 4238 2522 4238 
z
M 2522 4750 
Q 3503 4750 4090 4092 
Q 4678 3434 4678 2328 
Q 4678 1225 4090 567 
Q 3503 -91 2522 -91 
Q 1538 -91 948 565 
Q 359 1222 359 2328 
Q 359 3434 948 4092 
Q 1538 4750 2522 4750 
z
" transform="scale(0.015625)"/>
      <path id="DejaVuSans-42" d="M 1259 2228 
L 1259 519 
L 2272 519 
Q 2781 519 3026 730 
Q 3272 941 3272 1375 
Q 3272 1813 3026 2020 
Q 2781 2228 2272 2228 
L 1259 2228 
z
M 1259 4147 
L 1259 2741 
L 2194 2741 
Q 2656 2741 2882 2914 
Q 3109 3088 3109 3444 
Q 3109 3797 2882 3972 
Q 2656 4147 2194 4147 
L 1259 4147 
z
M 628 4666 
L 2241 4666 
Q 2963 4666 3353 4366 
Q 3744 4066 3744 3513 
Q 3744 3084 3544 2831 
Q 3344 2578 2956 2516 
Q 3422 2416 3680 2098 
Q 3938 1781 3938 1306 
Q 3938 681 3513 340 
Q 3088 0 2303 0 
L 628 0 
L 628 4666 
z
" transform="scale(0.015625)"/>
      <path id="DejaVuSans-4d" d="M 628 4666 
L 1569 4666 
L 2759 1491 
L 3956 4666 
L 4897 4666 
L 4897 0 
L 4281 0 
L 4281 4097 
L 3078 897 
L 2444 897 
L 1241 4097 
L 1241 0 
L 628 0 
L 628 4666 
z
" transform="scale(0.015625)"/>
     </defs>
     <use xlink:href="#DejaVuSans-4f"/>
     <use xlink:href="#DejaVuSans-72" x="78.710938"/>
     <use xlink:href="#DejaVuSans-62" x="119.824219"/>
     <use xlink:href="#DejaVuSans-69" x="183.300781"/>
     <use xlink:href="#DejaVuSans-74" x="211.083984"/>
     <use xlink:href="#DejaVuSans-61" x="250.292969"/>
     <use xlink:href="#DejaVuSans-6c" x="311.572266"/>
     <use xlink:href="#DejaVuSans-20" x="339.355469"/>
     <use xlink:href="#DejaVuSans-42" x="371.142578"/>
     <use xlink:href="#DejaVuSans-72" x="439.746094"/>
     <use xlink:href="#DejaVuSans-69" x="480.859375"/>
     <use xlink:href="#DejaVuSans-67" x="508.642578"/>
     <use xlink:href="#DejaVuSans-68" x="572.119141"/>
     <use xlink:href="#DejaVuSans-74" x="635.498047"/>
     <use xlink:href="#DejaVuSans-6e" x="674.707031"/>
     <use xlink:href="#DejaVuSans-65" x="738.085938"/>
     <use xlink:href="#DejaVuSans-73" x="799.609375"/>
     <use xlink:href="#DejaVuSans-73" x="851.708984"/>
     <use xlink:href="#DejaVuSans-20" x="903.808594"/>
     <use xlink:href="#DejaVuSans-4d" x="935.595703"/>
     <use xlink:href="#DejaVuSans-6f" x="1021.875"/>
     <use xlink:href="#DejaVuSans-64" x="1083.056641"/>
     <use xlink:href="#DejaVuSans-75" x="1146.533203"/>
     <use xlink:href="#DejaVuSans-6c" x="1209.912109"/>
     <use xlink:href="#DejaVuSans-61" x="1237.695312"/>
     <use xlink:href="#DejaVuSans-74" x="1298.974609"/>
     <use xlink:href="#DejaVuSans-69" x="1338.183594"/>
     <use xlink:href="#DejaVuSans-6f" x="1365.966797"/>
     <use xlink:href="#DejaVuSans-6e" x="1427.148438"/>
    </g>
   </g>
   <g id="patch_152">
    <path d="M 1439.193281 231.957031 
L 1461.193281 231.957031 
L 1461.193281 224.257031 
L 1439.193281 224.257031 
z
" style="fill: #8c8c8c; stroke: #ffffff; stroke-linejoin: miter"/>
   </g>
   <g id="text_30">
    <!-- Microlensing -->
    <g style="fill: #262626" transform="translate(1469.993281 231.957031) scale(0.11 -0.11)">
     <use xlink:href="#DejaVuSans-4d"/>
     <use xlink:href="#DejaVuSans-69" x="86.279297"/>
     <use xlink:href="#DejaVuSans-63" x="114.0625"/>
     <use xlink:href="#DejaVuSans-72" x="169.042969"/>
     <use xlink:href="#DejaVuSans-6f" x="207.90625"/>
     <use xlink:href="#DejaVuSans-6c" x="269.087891"/>
     <use xlink:href="#DejaVuSans-65" x="296.871094"/>
     <use xlink:href="#DejaVuSans-6e" x="358.394531"/>
     <use xlink:href="#DejaVuSans-73" x="421.773438"/>
     <use xlink:href="#DejaVuSans-69" x="473.873047"/>
     <use xlink:href="#DejaVuSans-6e" x="501.65625"/>
     <use xlink:href="#DejaVuSans-67" x="565.035156"/>
    </g>
   </g>
   <g id="patch_153">
    <path d="M 1439.193281 248.102969 
L 1461.193281 248.102969 
L 1461.193281 240.402969 
L 1439.193281 240.402969 
z
" style="fill: #c1b37f; stroke: #ffffff; stroke-linejoin: miter"/>
   </g>
   <g id="text_31">
    <!-- Pulsar Timing -->
    <g style="fill: #262626" transform="translate(1469.993281 248.102969) scale(0.11 -0.11)">
     <use xlink:href="#DejaVuSans-50"/>
     <use xlink:href="#DejaVuSans-75" x="58.552734"/>
     <use xlink:href="#DejaVuSans-6c" x="121.931641"/>
     <use xlink:href="#DejaVuSans-73" x="149.714844"/>
     <use xlink:href="#DejaVuSans-61" x="201.814453"/>
     <use xlink:href="#DejaVuSans-72" x="263.09375"/>
     <use xlink:href="#DejaVuSans-20" x="304.207031"/>
     <use xlink:href="#DejaVuSans-54" x="335.994141"/>
     <use xlink:href="#DejaVuSans-69" x="393.953125"/>
     <use xlink:href="#DejaVuSans-6d" x="421.736328"/>
     <use xlink:href="#DejaVuSans-69" x="519.148438"/>
     <use xlink:href="#DejaVuSans-6e" x="546.931641"/>
     <use xlink:href="#DejaVuSans-67" x="610.310547"/>
    </g>
   </g>
   <g id="patch_154">
    <path d="M 1439.193281 264.248906 
L 1461.193281 264.248906 
L 1461.193281 256.548906 
L 1439.193281 256.548906 
z
" style="fill: #71aec0; stroke: #ffffff; stroke-linejoin: miter"/>
   </g>
   <g id="text_32">
    <!-- Pulsation Timing Variations -->
    <g style="fill: #262626" transform="translate(1469.993281 264.248906) scale(0.11 -0.11)">
     <use xlink:href="#DejaVuSans-50"/>
     <use xlink:href="#DejaVuSans-75" x="58.552734"/>
     <use xlink:href="#DejaVuSans-6c" x="121.931641"/>
     <use xlink:href="#DejaVuSans-73" x="149.714844"/>
     <use xlink:href="#DejaVuSans-61" x="201.814453"/>
     <use xlink:href="#DejaVuSans-74" x="263.09375"/>
     <use xlink:href="#DejaVuSans-69" x="302.302734"/>
     <use xlink:href="#DejaVuSans-6f" x="330.085938"/>
     <use xlink:href="#DejaVuSans-6e" x="391.267578"/>
     <use xlink:href="#DejaVuSans-20" x="454.646484"/>
     <use xlink:href="#DejaVuSans-54" x="486.433594"/>
     <use xlink:href="#DejaVuSans-69" x="544.392578"/>
     <use xlink:href="#DejaVuSans-6d" x="572.175781"/>
     <use xlink:href="#DejaVuSans-69" x="669.587891"/>
     <use xlink:href="#DejaVuSans-6e" x="697.371094"/>
     <use xlink:href="#DejaVuSans-67" x="760.75"/>
     <use xlink:href="#DejaVuSans-20" x="824.226562"/>
     <use xlink:href="#DejaVuSans-56" x="856.013672"/>
     <use xlink:href="#DejaVuSans-61" x="916.671875"/>
     <use xlink:href="#DejaVuSans-72" x="977.951172"/>
     <use xlink:href="#DejaVuSans-69" x="1019.064453"/>
     <use xlink:href="#DejaVuSans-61" x="1046.847656"/>
     <use xlink:href="#DejaVuSans-74" x="1108.126953"/>
     <use xlink:href="#DejaVuSans-69" x="1147.335938"/>
     <use xlink:href="#DejaVuSans-6f" x="1175.119141"/>
     <use xlink:href="#DejaVuSans-6e" x="1236.300781"/>
     <use xlink:href="#DejaVuSans-73" x="1299.679688"/>
    </g>
   </g>
  </g>
 </g>
 <defs>
  <clipPath id="p534857c39f">
   <rect x="60.925191" y="12.96" width="1362.636309" height="296.82"/>
  </clipPath>
 </defs>
</svg>
