<?xml version="1.0" encoding="utf-8" standalone="no"?>
<!DOCTYPE svg PUBLIC "-//W3C//DTD SVG 1.1//EN"
  "http://www.w3.org/Graphics/SVG/1.1/DTD/svg11.dtd">
<svg xmlns:xlink="http://www.w3.org/1999/xlink" width="460.8pt" height="345.6pt" viewBox="0 0 460.8 345.6" xmlns="http://www.w3.org/2000/svg" version="1.1">
 <metadata>
  <rdf:RDF xmlns:dc="http://purl.org/dc/elements/1.1/" xmlns:cc="http://creativecommons.org/ns#" xmlns:rdf="http://www.w3.org/1999/02/22-rdf-syntax-ns#">
   <cc:Work>
    <dc:type rdf:resource="http://purl.org/dc/dcmitype/StillImage"/>
    <dc:date>2023-08-12T19:17:06.705350</dc:date>
    <dc:format>image/svg+xml</dc:format>
    <dc:creator>
     <cc:Agent>
      <dc:title>Matplotlib v3.7.1, https://matplotlib.org/</dc:title>
     </cc:Agent>
    </dc:creator>
   </cc:Work>
  </rdf:RDF>
 </metadata>
 <defs>
  <style type="text/css">*{stroke-linejoin: round; stroke-linecap: butt}</style>
 </defs>
 <g id="figure_1">
  <g id="patch_1">
   <path d="M 0 345.6 
L 460.8 345.6 
L 460.8 0 
L 0 0 
z
" style="fill: #ffffff"/>
  </g>
  <g id="axes_1">
   <g id="patch_2">
    <path d="M 57.6 307.584 
L 414.72 307.584 
L 414.72 41.472 
L 57.6 41.472 
z
" style="fill: #eaeaf2"/>
   </g>
   <g id="matplotlib.axis_1">
    <g id="xtick_1">
     <g id="line2d_1">
      <path d="M 88.534482 307.584 
L 88.534482 41.472 
" clip-path="url(#pa235c7db1e)" style="fill: none; stroke: #ffffff; stroke-linecap: round"/>
     </g>
     <g id="text_1">
      <!-- −7.5 -->
      <g style="fill: #262626" transform="translate(75.178936 325.442281) scale(0.11 -0.11)">
       <defs>
        <path id="DejaVuSans-2212" d="M 678 2272 
L 4684 2272 
L 4684 1741 
L 678 1741 
L 678 2272 
z
" transform="scale(0.015625)"/>
        <path id="DejaVuSans-37" d="M 525 4666 
L 3525 4666 
L 3525 4397 
L 1831 0 
L 1172 0 
L 2766 4134 
L 525 4134 
L 525 4666 
z
" transform="scale(0.015625)"/>
        <path id="DejaVuSans-2e" d="M 684 794 
L 1344 794 
L 1344 0 
L 684 0 
L 684 794 
z
" transform="scale(0.015625)"/>
        <path id="DejaVuSans-35" d="M 691 4666 
L 3169 4666 
L 3169 4134 
L 1269 4134 
L 1269 2991 
Q 1406 3038 1543 3061 
Q 1681 3084 1819 3084 
Q 2600 3084 3056 2656 
Q 3513 2228 3513 1497 
Q 3513 744 3044 326 
Q 2575 -91 1722 -91 
Q 1428 -91 1123 -41 
Q 819 9 494 109 
L 494 744 
Q 775 591 1075 516 
Q 1375 441 1709 441 
Q 2250 441 2565 725 
Q 2881 1009 2881 1497 
Q 2881 1984 2565 2268 
Q 2250 2553 1709 2553 
Q 1456 2553 1204 2497 
Q 953 2441 691 2322 
L 691 4666 
z
" transform="scale(0.015625)"/>
       </defs>
       <use xlink:href="#DejaVuSans-2212"/>
       <use xlink:href="#DejaVuSans-37" x="83.789062"/>
       <use xlink:href="#DejaVuSans-2e" x="147.412109"/>
       <use xlink:href="#DejaVuSans-35" x="179.199219"/>
      </g>
     </g>
    </g>
    <g id="xtick_2">
     <g id="line2d_2">
      <path d="M 132.99622 307.584 
L 132.99622 41.472 
" clip-path="url(#pa235c7db1e)" style="fill: none; stroke: #ffffff; stroke-linecap: round"/>
     </g>
     <g id="text_2">
      <!-- −5.0 -->
      <g style="fill: #262626" transform="translate(119.640673 325.442281) scale(0.11 -0.11)">
       <defs>
        <path id="DejaVuSans-30" d="M 2034 4250 
Q 1547 4250 1301 3770 
Q 1056 3291 1056 2328 
Q 1056 1369 1301 889 
Q 1547 409 2034 409 
Q 2525 409 2770 889 
Q 3016 1369 3016 2328 
Q 3016 3291 2770 3770 
Q 2525 4250 2034 4250 
z
M 2034 4750 
Q 2819 4750 3233 4129 
Q 3647 3509 3647 2328 
Q 3647 1150 3233 529 
Q 2819 -91 2034 -91 
Q 1250 -91 836 529 
Q 422 1150 422 2328 
Q 422 3509 836 4129 
Q 1250 4750 2034 4750 
z
" transform="scale(0.015625)"/>
       </defs>
       <use xlink:href="#DejaVuSans-2212"/>
       <use xlink:href="#DejaVuSans-35" x="83.789062"/>
       <use xlink:href="#DejaVuSans-2e" x="147.412109"/>
       <use xlink:href="#DejaVuSans-30" x="179.199219"/>
      </g>
     </g>
    </g>
    <g id="xtick_3">
     <g id="line2d_3">
      <path d="M 177.457957 307.584 
L 177.457957 41.472 
" clip-path="url(#pa235c7db1e)" style="fill: none; stroke: #ffffff; stroke-linecap: round"/>
     </g>
     <g id="text_3">
      <!-- −2.5 -->
      <g style="fill: #262626" transform="translate(164.10241 325.442281) scale(0.11 -0.11)">
       <defs>
        <path id="DejaVuSans-32" d="M 1228 531 
L 3431 531 
L 3431 0 
L 469 0 
L 469 531 
Q 828 903 1448 1529 
Q 2069 2156 2228 2338 
Q 2531 2678 2651 2914 
Q 2772 3150 2772 3378 
Q 2772 3750 2511 3984 
Q 2250 4219 1831 4219 
Q 1534 4219 1204 4116 
Q 875 4013 500 3803 
L 500 4441 
Q 881 4594 1212 4672 
Q 1544 4750 1819 4750 
Q 2544 4750 2975 4387 
Q 3406 4025 3406 3419 
Q 3406 3131 3298 2873 
Q 3191 2616 2906 2266 
Q 2828 2175 2409 1742 
Q 1991 1309 1228 531 
z
" transform="scale(0.015625)"/>
       </defs>
       <use xlink:href="#DejaVuSans-2212"/>
       <use xlink:href="#DejaVuSans-32" x="83.789062"/>
       <use xlink:href="#DejaVuSans-2e" x="147.412109"/>
       <use xlink:href="#DejaVuSans-35" x="179.199219"/>
      </g>
     </g>
    </g>
    <g id="xtick_4">
     <g id="line2d_4">
      <path d="M 221.919694 307.584 
L 221.919694 41.472 
" clip-path="url(#pa235c7db1e)" style="fill: none; stroke: #ffffff; stroke-linecap: round"/>
     </g>
     <g id="text_4">
      <!-- 0.0 -->
      <g style="fill: #262626" transform="translate(213.172975 325.442281) scale(0.11 -0.11)">
       <use xlink:href="#DejaVuSans-30"/>
       <use xlink:href="#DejaVuSans-2e" x="63.623047"/>
       <use xlink:href="#DejaVuSans-30" x="95.410156"/>
      </g>
     </g>
    </g>
    <g id="xtick_5">
     <g id="line2d_5">
      <path d="M 266.381431 307.584 
L 266.381431 41.472 
" clip-path="url(#pa235c7db1e)" style="fill: none; stroke: #ffffff; stroke-linecap: round"/>
     </g>
     <g id="text_5">
      <!-- 2.5 -->
      <g style="fill: #262626" transform="translate(257.634712 325.442281) scale(0.11 -0.11)">
       <use xlink:href="#DejaVuSans-32"/>
       <use xlink:href="#DejaVuSans-2e" x="63.623047"/>
       <use xlink:href="#DejaVuSans-35" x="95.410156"/>
      </g>
     </g>
    </g>
    <g id="xtick_6">
     <g id="line2d_6">
      <path d="M 310.843168 307.584 
L 310.843168 41.472 
" clip-path="url(#pa235c7db1e)" style="fill: none; stroke: #ffffff; stroke-linecap: round"/>
     </g>
     <g id="text_6">
      <!-- 5.0 -->
      <g style="fill: #262626" transform="translate(302.096449 325.442281) scale(0.11 -0.11)">
       <use xlink:href="#DejaVuSans-35"/>
       <use xlink:href="#DejaVuSans-2e" x="63.623047"/>
       <use xlink:href="#DejaVuSans-30" x="95.410156"/>
      </g>
     </g>
    </g>
    <g id="xtick_7">
     <g id="line2d_7">
      <path d="M 355.304905 307.584 
L 355.304905 41.472 
" clip-path="url(#pa235c7db1e)" style="fill: none; stroke: #ffffff; stroke-linecap: round"/>
     </g>
     <g id="text_7">
      <!-- 7.5 -->
      <g style="fill: #262626" transform="translate(346.558186 325.442281) scale(0.11 -0.11)">
       <use xlink:href="#DejaVuSans-37"/>
       <use xlink:href="#DejaVuSans-2e" x="63.623047"/>
       <use xlink:href="#DejaVuSans-35" x="95.410156"/>
      </g>
     </g>
    </g>
    <g id="xtick_8">
     <g id="line2d_8">
      <path d="M 399.766642 307.584 
L 399.766642 41.472 
" clip-path="url(#pa235c7db1e)" style="fill: none; stroke: #ffffff; stroke-linecap: round"/>
     </g>
     <g id="text_8">
      <!-- 10.0 -->
      <g style="fill: #262626" transform="translate(387.520548 325.442281) scale(0.11 -0.11)">
       <defs>
        <path id="DejaVuSans-31" d="M 794 531 
L 1825 531 
L 1825 4091 
L 703 3866 
L 703 4441 
L 1819 4666 
L 2450 4666 
L 2450 531 
L 3481 531 
L 3481 0 
L 794 0 
L 794 531 
z
" transform="scale(0.015625)"/>
       </defs>
       <use xlink:href="#DejaVuSans-31"/>
       <use xlink:href="#DejaVuSans-30" x="63.623047"/>
       <use xlink:href="#DejaVuSans-2e" x="127.246094"/>
       <use xlink:href="#DejaVuSans-30" x="159.033203"/>
      </g>
     </g>
    </g>
   </g>
   <g id="matplotlib.axis_2">
    <g id="ytick_1">
     <g id="line2d_9">
      <path d="M 57.6 307.584 
L 414.72 307.584 
" clip-path="url(#pa235c7db1e)" style="fill: none; stroke: #ffffff; stroke-linecap: round"/>
     </g>
     <g id="text_9">
      <!-- 0.00 -->
      <g style="fill: #262626" transform="translate(23.607813 311.763141) scale(0.11 -0.11)">
       <use xlink:href="#DejaVuSans-30"/>
       <use xlink:href="#DejaVuSans-2e" x="63.623047"/>
       <use xlink:href="#DejaVuSans-30" x="95.410156"/>
       <use xlink:href="#DejaVuSans-30" x="159.033203"/>
      </g>
     </g>
    </g>
    <g id="ytick_2">
     <g id="line2d_10">
      <path d="M 57.6 271.646585 
L 414.72 271.646585 
" clip-path="url(#pa235c7db1e)" style="fill: none; stroke: #ffffff; stroke-linecap: round"/>
     </g>
     <g id="text_10">
      <!-- 0.02 -->
      <g style="fill: #262626" transform="translate(23.607813 275.825726) scale(0.11 -0.11)">
       <use xlink:href="#DejaVuSans-30"/>
       <use xlink:href="#DejaVuSans-2e" x="63.623047"/>
       <use xlink:href="#DejaVuSans-30" x="95.410156"/>
       <use xlink:href="#DejaVuSans-32" x="159.033203"/>
      </g>
     </g>
    </g>
    <g id="ytick_3">
     <g id="line2d_11">
      <path d="M 57.6 235.70917 
L 414.72 235.70917 
" clip-path="url(#pa235c7db1e)" style="fill: none; stroke: #ffffff; stroke-linecap: round"/>
     </g>
     <g id="text_11">
      <!-- 0.04 -->
      <g style="fill: #262626" transform="translate(23.607813 239.888311) scale(0.11 -0.11)">
       <defs>
        <path id="DejaVuSans-34" d="M 2419 4116 
L 825 1625 
L 2419 1625 
L 2419 4116 
z
M 2253 4666 
L 3047 4666 
L 3047 1625 
L 3713 1625 
L 3713 1100 
L 3047 1100 
L 3047 0 
L 2419 0 
L 2419 1100 
L 313 1100 
L 313 1709 
L 2253 4666 
z
" transform="scale(0.015625)"/>
       </defs>
       <use xlink:href="#DejaVuSans-30"/>
       <use xlink:href="#DejaVuSans-2e" x="63.623047"/>
       <use xlink:href="#DejaVuSans-30" x="95.410156"/>
       <use xlink:href="#DejaVuSans-34" x="159.033203"/>
      </g>
     </g>
    </g>
    <g id="ytick_4">
     <g id="line2d_12">
      <path d="M 57.6 199.771755 
L 414.72 199.771755 
" clip-path="url(#pa235c7db1e)" style="fill: none; stroke: #ffffff; stroke-linecap: round"/>
     </g>
     <g id="text_12">
      <!-- 0.06 -->
      <g style="fill: #262626" transform="translate(23.607813 203.950896) scale(0.11 -0.11)">
       <defs>
        <path id="DejaVuSans-36" d="M 2113 2584 
Q 1688 2584 1439 2293 
Q 1191 2003 1191 1497 
Q 1191 994 1439 701 
Q 1688 409 2113 409 
Q 2538 409 2786 701 
Q 3034 994 3034 1497 
Q 3034 2003 2786 2293 
Q 2538 2584 2113 2584 
z
M 3366 4563 
L 3366 3988 
Q 3128 4100 2886 4159 
Q 2644 4219 2406 4219 
Q 1781 4219 1451 3797 
Q 1122 3375 1075 2522 
Q 1259 2794 1537 2939 
Q 1816 3084 2150 3084 
Q 2853 3084 3261 2657 
Q 3669 2231 3669 1497 
Q 3669 778 3244 343 
Q 2819 -91 2113 -91 
Q 1303 -91 875 529 
Q 447 1150 447 2328 
Q 447 3434 972 4092 
Q 1497 4750 2381 4750 
Q 2619 4750 2861 4703 
Q 3103 4656 3366 4563 
z
" transform="scale(0.015625)"/>
       </defs>
       <use xlink:href="#DejaVuSans-30"/>
       <use xlink:href="#DejaVuSans-2e" x="63.623047"/>
       <use xlink:href="#DejaVuSans-30" x="95.410156"/>
       <use xlink:href="#DejaVuSans-36" x="159.033203"/>
      </g>
     </g>
    </g>
    <g id="ytick_5">
     <g id="line2d_13">
      <path d="M 57.6 163.83434 
L 414.72 163.83434 
" clip-path="url(#pa235c7db1e)" style="fill: none; stroke: #ffffff; stroke-linecap: round"/>
     </g>
     <g id="text_13">
      <!-- 0.08 -->
      <g style="fill: #262626" transform="translate(23.607813 168.013481) scale(0.11 -0.11)">
       <defs>
        <path id="DejaVuSans-38" d="M 2034 2216 
Q 1584 2216 1326 1975 
Q 1069 1734 1069 1313 
Q 1069 891 1326 650 
Q 1584 409 2034 409 
Q 2484 409 2743 651 
Q 3003 894 3003 1313 
Q 3003 1734 2745 1975 
Q 2488 2216 2034 2216 
z
M 1403 2484 
Q 997 2584 770 2862 
Q 544 3141 544 3541 
Q 544 4100 942 4425 
Q 1341 4750 2034 4750 
Q 2731 4750 3128 4425 
Q 3525 4100 3525 3541 
Q 3525 3141 3298 2862 
Q 3072 2584 2669 2484 
Q 3125 2378 3379 2068 
Q 3634 1759 3634 1313 
Q 3634 634 3220 271 
Q 2806 -91 2034 -91 
Q 1263 -91 848 271 
Q 434 634 434 1313 
Q 434 1759 690 2068 
Q 947 2378 1403 2484 
z
M 1172 3481 
Q 1172 3119 1398 2916 
Q 1625 2713 2034 2713 
Q 2441 2713 2670 2916 
Q 2900 3119 2900 3481 
Q 2900 3844 2670 4047 
Q 2441 4250 2034 4250 
Q 1625 4250 1398 4047 
Q 1172 3844 1172 3481 
z
" transform="scale(0.015625)"/>
       </defs>
       <use xlink:href="#DejaVuSans-30"/>
       <use xlink:href="#DejaVuSans-2e" x="63.623047"/>
       <use xlink:href="#DejaVuSans-30" x="95.410156"/>
       <use xlink:href="#DejaVuSans-38" x="159.033203"/>
      </g>
     </g>
    </g>
    <g id="ytick_6">
     <g id="line2d_14">
      <path d="M 57.6 127.896926 
L 414.72 127.896926 
" clip-path="url(#pa235c7db1e)" style="fill: none; stroke: #ffffff; stroke-linecap: round"/>
     </g>
     <g id="text_14">
      <!-- 0.10 -->
      <g style="fill: #262626" transform="translate(23.607813 132.076066) scale(0.11 -0.11)">
       <use xlink:href="#DejaVuSans-30"/>
       <use xlink:href="#DejaVuSans-2e" x="63.623047"/>
       <use xlink:href="#DejaVuSans-31" x="95.410156"/>
       <use xlink:href="#DejaVuSans-30" x="159.033203"/>
      </g>
     </g>
    </g>
    <g id="ytick_7">
     <g id="line2d_15">
      <path d="M 57.6 91.959511 
L 414.72 91.959511 
" clip-path="url(#pa235c7db1e)" style="fill: none; stroke: #ffffff; stroke-linecap: round"/>
     </g>
     <g id="text_15">
      <!-- 0.12 -->
      <g style="fill: #262626" transform="translate(23.607813 96.138651) scale(0.11 -0.11)">
       <use xlink:href="#DejaVuSans-30"/>
       <use xlink:href="#DejaVuSans-2e" x="63.623047"/>
       <use xlink:href="#DejaVuSans-31" x="95.410156"/>
       <use xlink:href="#DejaVuSans-32" x="159.033203"/>
      </g>
     </g>
    </g>
    <g id="ytick_8">
     <g id="line2d_16">
      <path d="M 57.6 56.022096 
L 414.72 56.022096 
" clip-path="url(#pa235c7db1e)" style="fill: none; stroke: #ffffff; stroke-linecap: round"/>
     </g>
     <g id="text_16">
      <!-- 0.14 -->
      <g style="fill: #262626" transform="translate(23.607813 60.201236) scale(0.11 -0.11)">
       <use xlink:href="#DejaVuSans-30"/>
       <use xlink:href="#DejaVuSans-2e" x="63.623047"/>
       <use xlink:href="#DejaVuSans-31" x="95.410156"/>
       <use xlink:href="#DejaVuSans-34" x="159.033203"/>
      </g>
     </g>
    </g>
    <g id="text_17">
     <!-- Density -->
     <g style="fill: #262626" transform="translate(17.112187 197.338313) rotate(-90) scale(0.12 -0.12)">
      <defs>
       <path id="DejaVuSans-44" d="M 1259 4147 
L 1259 519 
L 2022 519 
Q 2988 519 3436 956 
Q 3884 1394 3884 2338 
Q 3884 3275 3436 3711 
Q 2988 4147 2022 4147 
L 1259 4147 
z
M 628 4666 
L 1925 4666 
Q 3281 4666 3915 4102 
Q 4550 3538 4550 2338 
Q 4550 1131 3912 565 
Q 3275 0 1925 0 
L 628 0 
L 628 4666 
z
" transform="scale(0.015625)"/>
       <path id="DejaVuSans-65" d="M 3597 1894 
L 3597 1613 
L 953 1613 
Q 991 1019 1311 708 
Q 1631 397 2203 397 
Q 2534 397 2845 478 
Q 3156 559 3463 722 
L 3463 178 
Q 3153 47 2828 -22 
Q 2503 -91 2169 -91 
Q 1331 -91 842 396 
Q 353 884 353 1716 
Q 353 2575 817 3079 
Q 1281 3584 2069 3584 
Q 2775 3584 3186 3129 
Q 3597 2675 3597 1894 
z
M 3022 2063 
Q 3016 2534 2758 2815 
Q 2500 3097 2075 3097 
Q 1594 3097 1305 2825 
Q 1016 2553 972 2059 
L 3022 2063 
z
" transform="scale(0.015625)"/>
       <path id="DejaVuSans-6e" d="M 3513 2113 
L 3513 0 
L 2938 0 
L 2938 2094 
Q 2938 2591 2744 2837 
Q 2550 3084 2163 3084 
Q 1697 3084 1428 2787 
Q 1159 2491 1159 1978 
L 1159 0 
L 581 0 
L 581 3500 
L 1159 3500 
L 1159 2956 
Q 1366 3272 1645 3428 
Q 1925 3584 2291 3584 
Q 2894 3584 3203 3211 
Q 3513 2838 3513 2113 
z
" transform="scale(0.015625)"/>
       <path id="DejaVuSans-73" d="M 2834 3397 
L 2834 2853 
Q 2591 2978 2328 3040 
Q 2066 3103 1784 3103 
Q 1356 3103 1142 2972 
Q 928 2841 928 2578 
Q 928 2378 1081 2264 
Q 1234 2150 1697 2047 
L 1894 2003 
Q 2506 1872 2764 1633 
Q 3022 1394 3022 966 
Q 3022 478 2636 193 
Q 2250 -91 1575 -91 
Q 1294 -91 989 -36 
Q 684 19 347 128 
L 347 722 
Q 666 556 975 473 
Q 1284 391 1588 391 
Q 1994 391 2212 530 
Q 2431 669 2431 922 
Q 2431 1156 2273 1281 
Q 2116 1406 1581 1522 
L 1381 1569 
Q 847 1681 609 1914 
Q 372 2147 372 2553 
Q 372 3047 722 3315 
Q 1072 3584 1716 3584 
Q 2034 3584 2315 3537 
Q 2597 3491 2834 3397 
z
" transform="scale(0.015625)"/>
       <path id="DejaVuSans-69" d="M 603 3500 
L 1178 3500 
L 1178 0 
L 603 0 
L 603 3500 
z
M 603 4863 
L 1178 4863 
L 1178 4134 
L 603 4134 
L 603 4863 
z
" transform="scale(0.015625)"/>
       <path id="DejaVuSans-74" d="M 1172 4494 
L 1172 3500 
L 2356 3500 
L 2356 3053 
L 1172 3053 
L 1172 1153 
Q 1172 725 1289 603 
Q 1406 481 1766 481 
L 2356 481 
L 2356 0 
L 1766 0 
Q 1100 0 847 248 
Q 594 497 594 1153 
L 594 3053 
L 172 3053 
L 172 3500 
L 594 3500 
L 594 4494 
L 1172 4494 
z
" transform="scale(0.015625)"/>
       <path id="DejaVuSans-79" d="M 2059 -325 
Q 1816 -950 1584 -1140 
Q 1353 -1331 966 -1331 
L 506 -1331 
L 506 -850 
L 844 -850 
Q 1081 -850 1212 -737 
Q 1344 -625 1503 -206 
L 1606 56 
L 191 3500 
L 800 3500 
L 1894 763 
L 2988 3500 
L 3597 3500 
L 2059 -325 
z
" transform="scale(0.015625)"/>
      </defs>
      <use xlink:href="#DejaVuSans-44"/>
      <use xlink:href="#DejaVuSans-65" x="77.001953"/>
      <use xlink:href="#DejaVuSans-6e" x="138.525391"/>
      <use xlink:href="#DejaVuSans-73" x="201.904297"/>
      <use xlink:href="#DejaVuSans-69" x="254.003906"/>
      <use xlink:href="#DejaVuSans-74" x="281.787109"/>
      <use xlink:href="#DejaVuSans-79" x="320.996094"/>
     </g>
    </g>
   </g>
   <g id="PolyCollection_1">
    <defs>
     <path id="meecaa6ffd1" d="M 115.668793 -38.022947 
L 115.668793 -38.016 
L 116.694935 -38.016 
L 117.721077 -38.016 
L 118.747219 -38.016 
L 119.773361 -38.016 
L 120.799503 -38.016 
L 121.825645 -38.016 
L 122.851787 -38.016 
L 123.877929 -38.016 
L 124.904071 -38.016 
L 125.930212 -38.016 
L 126.956354 -38.016 
L 127.982496 -38.016 
L 129.008638 -38.016 
L 130.03478 -38.016 
L 131.060922 -38.016 
L 132.087064 -38.016 
L 133.113206 -38.016 
L 134.139348 -38.016 
L 135.165489 -38.016 
L 136.191631 -38.016 
L 137.217773 -38.016 
L 138.243915 -38.016 
L 139.270057 -38.016 
L 140.296199 -38.016 
L 141.322341 -38.016 
L 142.348483 -38.016 
L 143.374625 -38.016 
L 144.400767 -38.016 
L 145.426908 -38.016 
L 146.45305 -38.016 
L 147.479192 -38.016 
L 148.505334 -38.016 
L 149.531476 -38.016 
L 150.557618 -38.016 
L 151.58376 -38.016 
L 152.609902 -38.016 
L 153.636044 -38.016 
L 154.662185 -38.016 
L 155.688327 -38.016 
L 156.714469 -38.016 
L 157.740611 -38.016 
L 158.766753 -38.016 
L 159.792895 -38.016 
L 160.819037 -38.016 
L 161.845179 -38.016 
L 162.871321 -38.016 
L 163.897463 -38.016 
L 164.923604 -38.016 
L 165.949746 -38.016 
L 166.975888 -38.016 
L 168.00203 -38.016 
L 169.028172 -38.016 
L 170.054314 -38.016 
L 171.080456 -38.016 
L 172.106598 -38.016 
L 173.13274 -38.016 
L 174.158881 -38.016 
L 175.185023 -38.016 
L 176.211165 -38.016 
L 177.237307 -38.016 
L 178.263449 -38.016 
L 179.289591 -38.016 
L 180.315733 -38.016 
L 181.341875 -38.016 
L 182.368017 -38.016 
L 183.394159 -38.016 
L 184.4203 -38.016 
L 185.446442 -38.016 
L 186.472584 -38.016 
L 187.498726 -38.016 
L 188.524868 -38.016 
L 189.55101 -38.016 
L 190.577152 -38.016 
L 191.603294 -38.016 
L 192.629436 -38.016 
L 193.655577 -38.016 
L 194.681719 -38.016 
L 195.707861 -38.016 
L 196.734003 -38.016 
L 197.760145 -38.016 
L 198.786287 -38.016 
L 199.812429 -38.016 
L 200.838571 -38.016 
L 201.864713 -38.016 
L 202.890855 -38.016 
L 203.916996 -38.016 
L 204.943138 -38.016 
L 205.96928 -38.016 
L 206.995422 -38.016 
L 208.021564 -38.016 
L 209.047706 -38.016 
L 210.073848 -38.016 
L 211.09999 -38.016 
L 212.126132 -38.016 
L 213.152273 -38.016 
L 214.178415 -38.016 
L 215.204557 -38.016 
L 216.230699 -38.016 
L 217.256841 -38.016 
L 218.282983 -38.016 
L 219.309125 -38.016 
L 220.335267 -38.016 
L 221.361409 -38.016 
L 222.387551 -38.016 
L 223.413692 -38.016 
L 224.439834 -38.016 
L 225.465976 -38.016 
L 226.492118 -38.016 
L 227.51826 -38.016 
L 228.544402 -38.016 
L 229.570544 -38.016 
L 230.596686 -38.016 
L 231.622828 -38.016 
L 232.648969 -38.016 
L 233.675111 -38.016 
L 234.701253 -38.016 
L 235.727395 -38.016 
L 236.753537 -38.016 
L 237.779679 -38.016 
L 238.805821 -38.016 
L 239.831963 -38.016 
L 240.858105 -38.016 
L 241.884247 -38.016 
L 242.910388 -38.016 
L 243.93653 -38.016 
L 244.962672 -38.016 
L 245.988814 -38.016 
L 247.014956 -38.016 
L 248.041098 -38.016 
L 249.06724 -38.016 
L 250.093382 -38.016 
L 251.119524 -38.016 
L 252.145665 -38.016 
L 253.171807 -38.016 
L 254.197949 -38.016 
L 255.224091 -38.016 
L 256.250233 -38.016 
L 257.276375 -38.016 
L 258.302517 -38.016 
L 259.328659 -38.016 
L 260.354801 -38.016 
L 261.380943 -38.016 
L 262.407084 -38.016 
L 263.433226 -38.016 
L 264.459368 -38.016 
L 265.48551 -38.016 
L 266.511652 -38.016 
L 267.537794 -38.016 
L 268.563936 -38.016 
L 269.590078 -38.016 
L 270.61622 -38.016 
L 271.642361 -38.016 
L 272.668503 -38.016 
L 273.694645 -38.016 
L 274.720787 -38.016 
L 275.746929 -38.016 
L 276.773071 -38.016 
L 277.799213 -38.016 
L 278.825355 -38.016 
L 279.851497 -38.016 
L 280.877639 -38.016 
L 281.90378 -38.016 
L 282.929922 -38.016 
L 283.956064 -38.016 
L 284.982206 -38.016 
L 286.008348 -38.016 
L 287.03449 -38.016 
L 288.060632 -38.016 
L 289.086774 -38.016 
L 290.112916 -38.016 
L 291.139057 -38.016 
L 292.165199 -38.016 
L 293.191341 -38.016 
L 294.217483 -38.016 
L 295.243625 -38.016 
L 296.269767 -38.016 
L 297.295909 -38.016 
L 298.322051 -38.016 
L 299.348193 -38.016 
L 300.374335 -38.016 
L 301.400476 -38.016 
L 302.426618 -38.016 
L 303.45276 -38.016 
L 304.478902 -38.016 
L 305.505044 -38.016 
L 306.531186 -38.016 
L 307.557328 -38.016 
L 308.58347 -38.016 
L 309.609612 -38.016 
L 310.635753 -38.016 
L 311.661895 -38.016 
L 312.688037 -38.016 
L 313.714179 -38.016 
L 314.740321 -38.016 
L 315.766463 -38.016 
L 316.792605 -38.016 
L 317.818747 -38.016 
L 318.844889 -38.016 
L 319.871031 -38.016 
L 319.871031 -38.022768 
L 319.871031 -38.022768 
L 318.844889 -38.027689 
L 317.818747 -38.035577 
L 316.792605 -38.047818 
L 315.766463 -38.066217 
L 314.740321 -38.093032 
L 313.714179 -38.130967 
L 312.688037 -38.183141 
L 311.661895 -38.253025 
L 310.635753 -38.344372 
L 309.609612 -38.461155 
L 308.58347 -38.607523 
L 307.557328 -38.787762 
L 306.531186 -39.006235 
L 305.505044 -39.26725 
L 304.478902 -39.574798 
L 303.45276 -39.932148 
L 302.426618 -40.341318 
L 301.400476 -40.80253 
L 300.374335 -41.313811 
L 299.348193 -41.870921 
L 298.322051 -42.467748 
L 297.295909 -43.09723 
L 296.269767 -43.752655 
L 295.243625 -44.42912 
L 294.217483 -45.124768 
L 293.191341 -45.84145 
L 292.165199 -46.58461 
L 291.139057 -47.362324 
L 290.112916 -48.183761 
L 289.086774 -49.057449 
L 288.060632 -49.989885 
L 287.03449 -50.984927 
L 286.008348 -52.044245 
L 284.982206 -53.168781 
L 283.956064 -54.360909 
L 282.929922 -55.626717 
L 281.90378 -56.977771 
L 280.877639 -58.431776 
L 279.851497 -60.011802 
L 278.825355 -61.744073 
L 277.799213 -63.654682 
L 276.773071 -65.765939 
L 275.746929 -68.093172 
L 274.720787 -70.642824 
L 273.694645 -73.412385 
L 272.668503 -76.392344 
L 271.642361 -79.569776 
L 270.61622 -82.932774 
L 269.590078 -86.474564 
L 268.563936 -90.196128 
L 267.537794 -94.10634 
L 266.511652 -98.219154 
L 265.48551 -102.54804 
L 264.459368 -107.098576 
L 263.433226 -111.860772 
L 262.407084 -116.803024 
L 261.380943 -121.86963 
L 260.354801 -126.98333 
L 259.328659 -132.05348 
L 258.302517 -136.989227 
L 257.276375 -141.715788 
L 256.250233 -146.190776 
L 255.224091 -150.416953 
L 254.197949 -154.447973 
L 253.171807 -158.384774 
L 252.145665 -162.362158 
L 251.119524 -166.527313 
L 250.093382 -171.014136 
L 249.06724 -175.918525 
L 248.041098 -181.279929 
L 247.014956 -187.07326 
L 245.988814 -193.212995 
L 244.962672 -199.568548 
L 243.93653 -205.987445 
L 242.910388 -212.32125 
L 241.884247 -218.448871 
L 240.858105 -224.292871 
L 239.831963 -229.826359 
L 238.805821 -235.070188 
L 237.779679 -240.08216 
L 236.753537 -244.940988 
L 235.727395 -249.728143 
L 234.701253 -254.510284 
L 233.675111 -259.324385 
L 232.648969 -264.16701 
L 231.622828 -268.988832 
L 230.596686 -273.695158 
L 229.570544 -278.152911 
L 228.544402 -282.203814 
L 227.51826 -285.682617 
L 226.492118 -288.438004 
L 225.465976 -290.352988 
L 224.439834 -291.36119 
L 223.413692 -291.456 
L 222.387551 -290.690877 
L 221.361409 -289.170874 
L 220.335267 -287.037236 
L 219.309125 -284.448111 
L 218.282983 -281.558824 
L 217.256841 -278.504661 
L 216.230699 -275.388102 
L 215.204557 -272.271301 
L 214.178415 -269.173765 
L 213.152273 -266.074761 
L 212.126132 -262.919913 
L 211.09999 -259.631488 
L 210.073848 -256.121691 
L 209.047706 -252.307761 
L 208.021564 -248.127019 
L 206.995422 -243.549364 
L 205.96928 -238.584713 
L 204.943138 -233.283449 
L 203.916996 -227.729343 
L 202.890855 -222.026053 
L 201.864713 -216.279879 
L 200.838571 -210.582354 
L 199.812429 -204.996217 
L 198.786287 -199.547417 
L 197.760145 -194.224248 
L 196.734003 -188.983126 
L 195.707861 -183.75918 
L 194.681719 -178.479202 
L 193.655577 -173.074516 
L 192.629436 -167.491835 
L 191.603294 -161.700975 
L 190.577152 -155.698997 
L 189.55101 -149.51088 
L 188.524868 -143.187129 
L 187.498726 -136.798831 
L 186.472584 -130.430763 
L 185.446442 -124.173273 
L 184.4203 -118.113797 
L 183.394159 -112.328989 
L 182.368017 -106.878481 
L 181.341875 -101.801057 
L 180.315733 -97.113696 
L 179.289591 -92.81342 
L 178.263449 -88.881356 
L 177.237307 -85.288095 
L 176.211165 -81.999232 
L 175.185023 -78.980123 
L 174.158881 -76.199191 
L 173.13274 -73.629591 
L 172.106598 -71.249451 
L 171.080456 -69.04121 
L 170.054314 -66.990668 
L 169.028172 -65.086229 
L 168.00203 -63.318555 
L 166.975888 -61.680524 
L 165.949746 -60.167194 
L 164.923604 -58.775391 
L 163.897463 -57.502688 
L 162.871321 -56.345832 
L 161.845179 -55.298931 
L 160.819037 -54.351918 
L 159.792895 -53.489826 
L 158.766753 -52.693182 
L 157.740611 -51.939559 
L 156.714469 -51.205948 
L 155.688327 -50.471443 
L 154.662185 -49.719628 
L 153.636044 -48.940221 
L 152.609902 -48.129744 
L 151.58376 -47.291264 
L 150.557618 -46.433437 
L 149.531476 -45.569164 
L 148.505334 -44.714143 
L 147.479192 -43.885461 
L 146.45305 -43.100297 
L 145.426908 -42.374684 
L 144.400767 -41.722316 
L 143.374625 -41.153411 
L 142.348483 -40.673731 
L 141.322341 -40.283932 
L 140.296199 -39.979383 
L 139.270057 -39.750591 
L 138.243915 -39.584211 
L 137.217773 -39.464542 
L 136.191631 -39.37529 
L 135.165489 -39.301315 
L 134.139348 -39.230107 
L 133.113206 -39.152774 
L 132.087064 -39.064437 
L 131.060922 -38.964036 
L 130.03478 -38.853645 
L 129.008638 -38.737479 
L 127.982496 -38.620789 
L 126.956354 -38.508835 
L 125.930212 -38.406084 
L 124.904071 -38.315718 
L 123.877929 -38.239441 
L 122.851787 -38.177565 
L 121.825645 -38.129274 
L 120.799503 -38.092984 
L 119.773361 -38.066706 
L 118.747219 -38.04836 
L 117.721077 -38.036006 
L 116.694935 -38.02798 
L 115.668793 -38.022947 
z
" style="stroke: #dd8452"/>
    </defs>
    <g clip-path="url(#pa235c7db1e)">
     <use xlink:href="#meecaa6ffd1" x="0" y="345.6" style="fill: #dd8452; fill-opacity: 0.25; stroke: #dd8452"/>
    </g>
   </g>
   <g id="PolyCollection_2">
    <defs>
     <path id="mff8e5b6c41" d="M 73.832727 -38.023121 
L 73.832727 -38.016 
L 75.464157 -38.016 
L 77.095587 -38.016 
L 78.727017 -38.016 
L 80.358447 -38.016 
L 81.989877 -38.016 
L 83.621307 -38.016 
L 85.252736 -38.016 
L 86.884166 -38.016 
L 88.515596 -38.016 
L 90.147026 -38.016 
L 91.778456 -38.016 
L 93.409886 -38.016 
L 95.041316 -38.016 
L 96.672746 -38.016 
L 98.304175 -38.016 
L 99.935605 -38.016 
L 101.567035 -38.016 
L 103.198465 -38.016 
L 104.829895 -38.016 
L 106.461325 -38.016 
L 108.092755 -38.016 
L 109.724185 -38.016 
L 111.355614 -38.016 
L 112.987044 -38.016 
L 114.618474 -38.016 
L 116.249904 -38.016 
L 117.881334 -38.016 
L 119.512764 -38.016 
L 121.144194 -38.016 
L 122.775624 -38.016 
L 124.407053 -38.016 
L 126.038483 -38.016 
L 127.669913 -38.016 
L 129.301343 -38.016 
L 130.932773 -38.016 
L 132.564203 -38.016 
L 134.195633 -38.016 
L 135.827063 -38.016 
L 137.458492 -38.016 
L 139.089922 -38.016 
L 140.721352 -38.016 
L 142.352782 -38.016 
L 143.984212 -38.016 
L 145.615642 -38.016 
L 147.247072 -38.016 
L 148.878502 -38.016 
L 150.509931 -38.016 
L 152.141361 -38.016 
L 153.772791 -38.016 
L 155.404221 -38.016 
L 157.035651 -38.016 
L 158.667081 -38.016 
L 160.298511 -38.016 
L 161.929941 -38.016 
L 163.56137 -38.016 
L 165.1928 -38.016 
L 166.82423 -38.016 
L 168.45566 -38.016 
L 170.08709 -38.016 
L 171.71852 -38.016 
L 173.34995 -38.016 
L 174.98138 -38.016 
L 176.61281 -38.016 
L 178.244239 -38.016 
L 179.875669 -38.016 
L 181.507099 -38.016 
L 183.138529 -38.016 
L 184.769959 -38.016 
L 186.401389 -38.016 
L 188.032819 -38.016 
L 189.664249 -38.016 
L 191.295678 -38.016 
L 192.927108 -38.016 
L 194.558538 -38.016 
L 196.189968 -38.016 
L 197.821398 -38.016 
L 199.452828 -38.016 
L 201.084258 -38.016 
L 202.715688 -38.016 
L 204.347117 -38.016 
L 205.978547 -38.016 
L 207.609977 -38.016 
L 209.241407 -38.016 
L 210.872837 -38.016 
L 212.504267 -38.016 
L 214.135697 -38.016 
L 215.767127 -38.016 
L 217.398556 -38.016 
L 219.029986 -38.016 
L 220.661416 -38.016 
L 222.292846 -38.016 
L 223.924276 -38.016 
L 225.555706 -38.016 
L 227.187136 -38.016 
L 228.818566 -38.016 
L 230.449995 -38.016 
L 232.081425 -38.016 
L 233.712855 -38.016 
L 235.344285 -38.016 
L 236.975715 -38.016 
L 238.607145 -38.016 
L 240.238575 -38.016 
L 241.870005 -38.016 
L 243.501434 -38.016 
L 245.132864 -38.016 
L 246.764294 -38.016 
L 248.395724 -38.016 
L 250.027154 -38.016 
L 251.658584 -38.016 
L 253.290014 -38.016 
L 254.921444 -38.016 
L 256.552873 -38.016 
L 258.184303 -38.016 
L 259.815733 -38.016 
L 261.447163 -38.016 
L 263.078593 -38.016 
L 264.710023 -38.016 
L 266.341453 -38.016 
L 267.972883 -38.016 
L 269.604312 -38.016 
L 271.235742 -38.016 
L 272.867172 -38.016 
L 274.498602 -38.016 
L 276.130032 -38.016 
L 277.761462 -38.016 
L 279.392892 -38.016 
L 281.024322 -38.016 
L 282.655751 -38.016 
L 284.287181 -38.016 
L 285.918611 -38.016 
L 287.550041 -38.016 
L 289.181471 -38.016 
L 290.812901 -38.016 
L 292.444331 -38.016 
L 294.075761 -38.016 
L 295.70719 -38.016 
L 297.33862 -38.016 
L 298.97005 -38.016 
L 300.60148 -38.016 
L 302.23291 -38.016 
L 303.86434 -38.016 
L 305.49577 -38.016 
L 307.1272 -38.016 
L 308.75863 -38.016 
L 310.390059 -38.016 
L 312.021489 -38.016 
L 313.652919 -38.016 
L 315.284349 -38.016 
L 316.915779 -38.016 
L 318.547209 -38.016 
L 320.178639 -38.016 
L 321.810069 -38.016 
L 323.441498 -38.016 
L 325.072928 -38.016 
L 326.704358 -38.016 
L 328.335788 -38.016 
L 329.967218 -38.016 
L 331.598648 -38.016 
L 333.230078 -38.016 
L 334.861508 -38.016 
L 336.492937 -38.016 
L 338.124367 -38.016 
L 339.755797 -38.016 
L 341.387227 -38.016 
L 343.018657 -38.016 
L 344.650087 -38.016 
L 346.281517 -38.016 
L 347.912947 -38.016 
L 349.544376 -38.016 
L 351.175806 -38.016 
L 352.807236 -38.016 
L 354.438666 -38.016 
L 356.070096 -38.016 
L 357.701526 -38.016 
L 359.332956 -38.016 
L 360.964386 -38.016 
L 362.595815 -38.016 
L 364.227245 -38.016 
L 365.858675 -38.016 
L 367.490105 -38.016 
L 369.121535 -38.016 
L 370.752965 -38.016 
L 372.384395 -38.016 
L 374.015825 -38.016 
L 375.647254 -38.016 
L 377.278684 -38.016 
L 378.910114 -38.016 
L 380.541544 -38.016 
L 382.172974 -38.016 
L 383.804404 -38.016 
L 385.435834 -38.016 
L 387.067264 -38.016 
L 388.698693 -38.016 
L 390.330123 -38.016 
L 391.961553 -38.016 
L 393.592983 -38.016 
L 395.224413 -38.016 
L 396.855843 -38.016 
L 398.487273 -38.016 
L 398.487273 -38.020032 
L 398.487273 -38.020032 
L 396.855843 -38.022918 
L 395.224413 -38.027471 
L 393.592983 -38.034382 
L 391.961553 -38.044474 
L 390.330123 -38.05864 
L 388.698693 -38.077748 
L 387.067264 -38.102505 
L 385.435834 -38.133299 
L 383.804404 -38.170072 
L 382.172974 -38.212239 
L 380.541544 -38.258731 
L 378.910114 -38.308157 
L 377.278684 -38.359101 
L 375.647254 -38.410488 
L 374.015825 -38.461939 
L 372.384395 -38.514009 
L 370.752965 -38.568184 
L 369.121535 -38.626615 
L 367.490105 -38.691581 
L 365.858675 -38.764805 
L 364.227245 -38.846787 
L 362.595815 -38.936352 
L 360.964386 -39.03058 
L 359.332956 -39.125198 
L 357.701526 -39.215389 
L 356.070096 -39.296889 
L 354.438666 -39.367111 
L 352.807236 -39.426093 
L 351.175806 -39.477051 
L 349.544376 -39.526488 
L 347.912947 -39.583863 
L 346.281517 -39.66097 
L 344.650087 -39.771174 
L 343.018657 -39.928652 
L 341.387227 -40.147678 
L 339.755797 -40.441937 
L 338.124367 -40.823745 
L 336.492937 -41.303094 
L 334.861508 -41.886455 
L 333.230078 -42.575463 
L 331.598648 -43.365716 
L 329.967218 -44.246057 
L 328.335788 -45.198726 
L 326.704358 -46.200687 
L 325.072928 -47.226183 
L 323.441498 -48.250318 
L 321.810069 -49.253125 
L 320.178639 -50.223375 
L 318.547209 -51.161334 
L 316.915779 -52.079763 
L 315.284349 -53.002825 
L 313.652919 -53.962971 
L 312.021489 -54.996363 
L 310.390059 -56.137756 
L 308.75863 -57.415953 
L 307.1272 -58.850824 
L 305.49577 -60.452523 
L 303.86434 -62.22296 
L 302.23291 -64.158978 
L 300.60148 -66.256151 
L 298.97005 -68.511946 
L 297.33862 -70.92706 
L 295.70719 -73.504305 
L 294.075761 -76.24506 
L 292.444331 -79.144135 
L 290.812901 -82.184476 
L 289.181471 -85.333407 
L 287.550041 -88.54196 
L 285.918611 -91.74825 
L 284.287181 -94.884945 
L 282.655751 -97.889907 
L 281.024322 -100.718165 
L 279.392892 -103.35287 
L 277.761462 -105.812808 
L 276.130032 -108.154561 
L 274.498602 -110.468306 
L 272.867172 -112.867486 
L 271.235742 -115.473782 
L 269.604312 -118.399804 
L 267.972883 -121.732447 
L 266.341453 -125.519752 
L 264.710023 -129.763491 
L 263.078593 -134.418572 
L 261.447163 -139.399096 
L 259.815733 -144.58968 
L 258.184303 -149.859841 
L 256.552873 -155.078919 
L 254.921444 -160.129248 
L 253.290014 -164.915898 
L 251.658584 -169.372173 
L 250.027154 -173.460804 
L 248.395724 -177.171362 
L 246.764294 -180.514758 
L 245.132864 -183.515798 
L 243.501434 -186.204804 
L 241.870005 -188.609314 
L 240.238575 -190.74688 
L 238.607145 -192.619945 
L 236.975715 -194.213608 
L 235.344285 -195.496728 
L 233.712855 -196.426335 
L 232.081425 -196.954782 
L 230.449995 -197.03858 
L 228.818566 -196.647596 
L 227.187136 -195.773151 
L 225.555706 -194.433729 
L 223.924276 -192.677226 
L 222.292846 -190.579118 
L 220.661416 -188.236462 
L 219.029986 -185.758283 
L 217.398556 -183.253576 
L 215.767127 -180.818683 
L 214.135697 -178.526087 
L 212.504267 -176.416509 
L 210.872837 -174.495635 
L 209.241407 -172.735913 
L 207.609977 -171.082924 
L 205.978547 -169.465003 
L 204.347117 -167.80439 
L 202.715688 -166.02809 
L 201.084258 -164.076967 
L 199.452828 -161.912017 
L 197.821398 -159.517314 
L 196.189968 -156.899564 
L 194.558538 -154.084591 
L 192.927108 -151.111374 
L 191.295678 -148.024557 
L 189.664249 -144.866528 
L 188.032819 -141.6703 
L 186.401389 -138.454351 
L 184.769959 -135.220361 
L 183.138529 -131.954309 
L 181.507099 -128.630832 
L 179.875669 -125.220137 
L 178.244239 -121.696213 
L 176.61281 -118.044802 
L 174.98138 -114.269539 
L 173.34995 -110.394987 
L 171.71852 -106.465873 
L 170.08709 -102.542566 
L 168.45566 -98.693612 
L 166.82423 -94.986719 
L 165.1928 -91.479867 
L 163.56137 -88.214109 
L 161.929941 -85.20922 
L 160.298511 -82.462685 
L 158.667081 -79.951856 
L 157.035651 -77.63858 
L 155.404221 -75.475305 
L 153.772791 -73.411654 
L 152.141361 -71.400621 
L 150.509931 -69.40379 
L 148.878502 -67.395191 
L 147.247072 -65.363592 
L 145.615642 -63.313069 
L 143.984212 -61.261843 
L 142.352782 -59.239452 
L 140.721352 -57.282539 
L 139.089922 -55.429744 
L 137.458492 -53.716374 
L 135.827063 -52.169605 
L 134.195633 -50.804935 
L 132.564203 -49.62438 
L 130.932773 -48.616668 
L 129.301343 -47.759296 
L 127.669913 -47.022057 
L 126.038483 -46.371415 
L 124.407053 -45.774985 
L 122.775624 -45.205435 
L 121.144194 -44.643246 
L 119.512764 -44.078016 
L 117.881334 -43.508247 
L 116.249904 -42.939816 
L 114.618474 -42.38354 
L 112.987044 -41.852335 
L 111.355614 -41.358484 
L 109.724185 -40.911453 
L 108.092755 -40.516535 
L 106.461325 -40.174433 
L 104.829895 -39.881718 
L 103.198465 -39.631931 
L 101.567035 -39.417058 
L 99.935605 -39.229012 
L 98.304175 -39.060869 
L 96.672746 -38.907632 
L 95.041316 -38.766476 
L 93.409886 -38.636513 
L 91.778456 -38.518219 
L 90.147026 -38.412726 
L 88.515596 -38.32116 
L 86.884166 -38.244141 
L 85.252736 -38.181542 
L 83.621307 -38.132458 
L 81.989877 -38.095366 
L 80.358447 -38.068364 
L 78.727017 -38.049432 
L 77.095587 -38.036647 
L 75.464157 -38.028332 
L 73.832727 -38.023121 
z
" style="stroke: #4c72b0"/>
    </defs>
    <g clip-path="url(#pa235c7db1e)">
     <use xlink:href="#mff8e5b6c41" x="0" y="345.6" style="fill: #4c72b0; fill-opacity: 0.25; stroke: #4c72b0"/>
    </g>
   </g>
   <g id="patch_3">
    <path d="M 57.6 307.584 
L 57.6 41.472 
" style="fill: none; stroke: #ffffff; stroke-width: 1.25; stroke-linejoin: miter; stroke-linecap: square"/>
   </g>
   <g id="patch_4">
    <path d="M 414.72 307.584 
L 414.72 41.472 
" style="fill: none; stroke: #ffffff; stroke-width: 1.25; stroke-linejoin: miter; stroke-linecap: square"/>
   </g>
   <g id="patch_5">
    <path d="M 57.6 307.584 
L 414.72 307.584 
" style="fill: none; stroke: #ffffff; stroke-width: 1.25; stroke-linejoin: miter; stroke-linecap: square"/>
   </g>
   <g id="patch_6">
    <path d="M 57.6 41.472 
L 414.72 41.472 
" style="fill: none; stroke: #ffffff; stroke-width: 1.25; stroke-linejoin: miter; stroke-linecap: square"/>
   </g>
   <g id="legend_1">
    <g id="patch_7">
     <path d="M 365.309375 82.563875 
L 407.02 82.563875 
Q 409.22 82.563875 409.22 80.363875 
L 409.22 49.172 
Q 409.22 46.972 407.02 46.972 
L 365.309375 46.972 
Q 363.109375 46.972 363.109375 49.172 
L 363.109375 80.363875 
Q 363.109375 82.563875 365.309375 82.563875 
z
" style="fill: #eaeaf2; opacity: 0.8; stroke: #cccccc; stroke-linejoin: miter"/>
    </g>
    <g id="patch_8">
     <path d="M 367.509375 59.730281 
L 389.509375 59.730281 
L 389.509375 52.030281 
L 367.509375 52.030281 
z
" style="fill: #4c72b0; fill-opacity: 0.25; stroke: #4c72b0; stroke-linejoin: miter"/>
    </g>
    <g id="text_18">
     <!-- x -->
     <g style="fill: #262626" transform="translate(398.309375 59.730281) scale(0.11 -0.11)">
      <defs>
       <path id="DejaVuSans-78" d="M 3513 3500 
L 2247 1797 
L 3578 0 
L 2900 0 
L 1881 1375 
L 863 0 
L 184 0 
L 1544 1831 
L 300 3500 
L 978 3500 
L 1906 2253 
L 2834 3500 
L 3513 3500 
z
" transform="scale(0.015625)"/>
      </defs>
      <use xlink:href="#DejaVuSans-78"/>
     </g>
    </g>
    <g id="patch_9">
     <path d="M 367.509375 75.876219 
L 389.509375 75.876219 
L 389.509375 68.176219 
L 367.509375 68.176219 
z
" style="fill: #dd8452; fill-opacity: 0.25; stroke: #dd8452; stroke-linejoin: miter"/>
    </g>
    <g id="text_19">
     <!-- y -->
     <g style="fill: #262626" transform="translate(398.309375 75.876219) scale(0.11 -0.11)">
      <use xlink:href="#DejaVuSans-79"/>
     </g>
    </g>
   </g>
  </g>
 </g>
 <defs>
  <clipPath id="pa235c7db1e">
   <rect x="57.6" y="41.472" width="357.12" height="266.112"/>
  </clipPath>
 </defs>
</svg>
