<?xml version="1.0" encoding="utf-8" standalone="no"?>
<!DOCTYPE svg PUBLIC "-//W3C//DTD SVG 1.1//EN"
  "http://www.w3.org/Graphics/SVG/1.1/DTD/svg11.dtd">
<svg xmlns:xlink="http://www.w3.org/1999/xlink" width="460.8pt" height="345.6pt" viewBox="0 0 460.8 345.6" xmlns="http://www.w3.org/2000/svg" version="1.1">
 <metadata>
  <rdf:RDF xmlns:dc="http://purl.org/dc/elements/1.1/" xmlns:cc="http://creativecommons.org/ns#" xmlns:rdf="http://www.w3.org/1999/02/22-rdf-syntax-ns#">
   <cc:Work>
    <dc:type rdf:resource="http://purl.org/dc/dcmitype/StillImage"/>
    <dc:date>2023-08-12T19:17:08.015269</dc:date>
    <dc:format>image/svg+xml</dc:format>
    <dc:creator>
     <cc:Agent>
      <dc:title>Matplotlib v3.7.1, https://matplotlib.org/</dc:title>
     </cc:Agent>
    </dc:creator>
   </cc:Work>
  </rdf:RDF>
 </metadata>
 <defs>
  <style type="text/css">*{stroke-linejoin: round; stroke-linecap: butt}</style>
 </defs>
 <g id="figure_1">
  <g id="patch_1">
   <path d="M 0 345.6 
L 460.8 345.6 
L 460.8 0 
L 0 0 
z
" style="fill: #ffffff"/>
  </g>
  <g id="axes_1">
   <g id="patch_2">
    <path d="M 57.6 307.584 
L 414.72 307.584 
L 414.72 41.472 
L 57.6 41.472 
z
" style="fill: #eaeaf2"/>
   </g>
   <g id="matplotlib.axis_1">
    <g id="xtick_1">
     <g id="line2d_1">
      <path d="M 81.040516 307.584 
L 81.040516 41.472 
" clip-path="url(#p9359a168a6)" style="fill: none; stroke: #ffffff; stroke-linecap: round"/>
     </g>
     <g id="text_1">
      <!-- −7.5 -->
      <g style="fill: #262626" transform="translate(67.684969 325.442281) scale(0.11 -0.11)">
       <defs>
        <path id="DejaVuSans-2212" d="M 678 2272 
L 4684 2272 
L 4684 1741 
L 678 1741 
L 678 2272 
z
" transform="scale(0.015625)"/>
        <path id="DejaVuSans-37" d="M 525 4666 
L 3525 4666 
L 3525 4397 
L 1831 0 
L 1172 0 
L 2766 4134 
L 525 4134 
L 525 4666 
z
" transform="scale(0.015625)"/>
        <path id="DejaVuSans-2e" d="M 684 794 
L 1344 794 
L 1344 0 
L 684 0 
L 684 794 
z
" transform="scale(0.015625)"/>
        <path id="DejaVuSans-35" d="M 691 4666 
L 3169 4666 
L 3169 4134 
L 1269 4134 
L 1269 2991 
Q 1406 3038 1543 3061 
Q 1681 3084 1819 3084 
Q 2600 3084 3056 2656 
Q 3513 2228 3513 1497 
Q 3513 744 3044 326 
Q 2575 -91 1722 -91 
Q 1428 -91 1123 -41 
Q 819 9 494 109 
L 494 744 
Q 775 591 1075 516 
Q 1375 441 1709 441 
Q 2250 441 2565 725 
Q 2881 1009 2881 1497 
Q 2881 1984 2565 2268 
Q 2250 2553 1709 2553 
Q 1456 2553 1204 2497 
Q 953 2441 691 2322 
L 691 4666 
z
" transform="scale(0.015625)"/>
       </defs>
       <use xlink:href="#DejaVuSans-2212"/>
       <use xlink:href="#DejaVuSans-37" x="83.789062"/>
       <use xlink:href="#DejaVuSans-2e" x="147.412109"/>
       <use xlink:href="#DejaVuSans-35" x="179.199219"/>
      </g>
     </g>
    </g>
    <g id="xtick_2">
     <g id="line2d_2">
      <path d="M 127.75928 307.584 
L 127.75928 41.472 
" clip-path="url(#p9359a168a6)" style="fill: none; stroke: #ffffff; stroke-linecap: round"/>
     </g>
     <g id="text_2">
      <!-- −5.0 -->
      <g style="fill: #262626" transform="translate(114.403733 325.442281) scale(0.11 -0.11)">
       <defs>
        <path id="DejaVuSans-30" d="M 2034 4250 
Q 1547 4250 1301 3770 
Q 1056 3291 1056 2328 
Q 1056 1369 1301 889 
Q 1547 409 2034 409 
Q 2525 409 2770 889 
Q 3016 1369 3016 2328 
Q 3016 3291 2770 3770 
Q 2525 4250 2034 4250 
z
M 2034 4750 
Q 2819 4750 3233 4129 
Q 3647 3509 3647 2328 
Q 3647 1150 3233 529 
Q 2819 -91 2034 -91 
Q 1250 -91 836 529 
Q 422 1150 422 2328 
Q 422 3509 836 4129 
Q 1250 4750 2034 4750 
z
" transform="scale(0.015625)"/>
       </defs>
       <use xlink:href="#DejaVuSans-2212"/>
       <use xlink:href="#DejaVuSans-35" x="83.789062"/>
       <use xlink:href="#DejaVuSans-2e" x="147.412109"/>
       <use xlink:href="#DejaVuSans-30" x="179.199219"/>
      </g>
     </g>
    </g>
    <g id="xtick_3">
     <g id="line2d_3">
      <path d="M 174.478044 307.584 
L 174.478044 41.472 
" clip-path="url(#p9359a168a6)" style="fill: none; stroke: #ffffff; stroke-linecap: round"/>
     </g>
     <g id="text_3">
      <!-- −2.5 -->
      <g style="fill: #262626" transform="translate(161.122497 325.442281) scale(0.11 -0.11)">
       <defs>
        <path id="DejaVuSans-32" d="M 1228 531 
L 3431 531 
L 3431 0 
L 469 0 
L 469 531 
Q 828 903 1448 1529 
Q 2069 2156 2228 2338 
Q 2531 2678 2651 2914 
Q 2772 3150 2772 3378 
Q 2772 3750 2511 3984 
Q 2250 4219 1831 4219 
Q 1534 4219 1204 4116 
Q 875 4013 500 3803 
L 500 4441 
Q 881 4594 1212 4672 
Q 1544 4750 1819 4750 
Q 2544 4750 2975 4387 
Q 3406 4025 3406 3419 
Q 3406 3131 3298 2873 
Q 3191 2616 2906 2266 
Q 2828 2175 2409 1742 
Q 1991 1309 1228 531 
z
" transform="scale(0.015625)"/>
       </defs>
       <use xlink:href="#DejaVuSans-2212"/>
       <use xlink:href="#DejaVuSans-32" x="83.789062"/>
       <use xlink:href="#DejaVuSans-2e" x="147.412109"/>
       <use xlink:href="#DejaVuSans-35" x="179.199219"/>
      </g>
     </g>
    </g>
    <g id="xtick_4">
     <g id="line2d_4">
      <path d="M 221.196808 307.584 
L 221.196808 41.472 
" clip-path="url(#p9359a168a6)" style="fill: none; stroke: #ffffff; stroke-linecap: round"/>
     </g>
     <g id="text_4">
      <!-- 0.0 -->
      <g style="fill: #262626" transform="translate(212.450089 325.442281) scale(0.11 -0.11)">
       <use xlink:href="#DejaVuSans-30"/>
       <use xlink:href="#DejaVuSans-2e" x="63.623047"/>
       <use xlink:href="#DejaVuSans-30" x="95.410156"/>
      </g>
     </g>
    </g>
    <g id="xtick_5">
     <g id="line2d_5">
      <path d="M 267.915572 307.584 
L 267.915572 41.472 
" clip-path="url(#p9359a168a6)" style="fill: none; stroke: #ffffff; stroke-linecap: round"/>
     </g>
     <g id="text_5">
      <!-- 2.5 -->
      <g style="fill: #262626" transform="translate(259.168853 325.442281) scale(0.11 -0.11)">
       <use xlink:href="#DejaVuSans-32"/>
       <use xlink:href="#DejaVuSans-2e" x="63.623047"/>
       <use xlink:href="#DejaVuSans-35" x="95.410156"/>
      </g>
     </g>
    </g>
    <g id="xtick_6">
     <g id="line2d_6">
      <path d="M 314.634336 307.584 
L 314.634336 41.472 
" clip-path="url(#p9359a168a6)" style="fill: none; stroke: #ffffff; stroke-linecap: round"/>
     </g>
     <g id="text_6">
      <!-- 5.0 -->
      <g style="fill: #262626" transform="translate(305.887617 325.442281) scale(0.11 -0.11)">
       <use xlink:href="#DejaVuSans-35"/>
       <use xlink:href="#DejaVuSans-2e" x="63.623047"/>
       <use xlink:href="#DejaVuSans-30" x="95.410156"/>
      </g>
     </g>
    </g>
    <g id="xtick_7">
     <g id="line2d_7">
      <path d="M 361.3531 307.584 
L 361.3531 41.472 
" clip-path="url(#p9359a168a6)" style="fill: none; stroke: #ffffff; stroke-linecap: round"/>
     </g>
     <g id="text_7">
      <!-- 7.5 -->
      <g style="fill: #262626" transform="translate(352.606381 325.442281) scale(0.11 -0.11)">
       <use xlink:href="#DejaVuSans-37"/>
       <use xlink:href="#DejaVuSans-2e" x="63.623047"/>
       <use xlink:href="#DejaVuSans-35" x="95.410156"/>
      </g>
     </g>
    </g>
    <g id="xtick_8">
     <g id="line2d_8">
      <path d="M 408.071864 307.584 
L 408.071864 41.472 
" clip-path="url(#p9359a168a6)" style="fill: none; stroke: #ffffff; stroke-linecap: round"/>
     </g>
     <g id="text_8">
      <!-- 10.0 -->
      <g style="fill: #262626" transform="translate(395.82577 325.442281) scale(0.11 -0.11)">
       <defs>
        <path id="DejaVuSans-31" d="M 794 531 
L 1825 531 
L 1825 4091 
L 703 3866 
L 703 4441 
L 1819 4666 
L 2450 4666 
L 2450 531 
L 3481 531 
L 3481 0 
L 794 0 
L 794 531 
z
" transform="scale(0.015625)"/>
       </defs>
       <use xlink:href="#DejaVuSans-31"/>
       <use xlink:href="#DejaVuSans-30" x="63.623047"/>
       <use xlink:href="#DejaVuSans-2e" x="127.246094"/>
       <use xlink:href="#DejaVuSans-30" x="159.033203"/>
      </g>
     </g>
    </g>
    <g id="text_9">
     <!-- x -->
     <g style="fill: #262626" transform="translate(232.60875 340.848062) scale(0.12 -0.12)">
      <defs>
       <path id="DejaVuSans-78" d="M 3513 3500 
L 2247 1797 
L 3578 0 
L 2900 0 
L 1881 1375 
L 863 0 
L 184 0 
L 1544 1831 
L 300 3500 
L 978 3500 
L 1906 2253 
L 2834 3500 
L 3513 3500 
z
" transform="scale(0.015625)"/>
      </defs>
      <use xlink:href="#DejaVuSans-78"/>
     </g>
    </g>
   </g>
   <g id="matplotlib.axis_2">
    <g id="ytick_1">
     <g id="line2d_9">
      <path d="M 57.6 302.124087 
L 414.72 302.124087 
" clip-path="url(#p9359a168a6)" style="fill: none; stroke: #ffffff; stroke-linecap: round"/>
     </g>
     <g id="text_10">
      <!-- −6 -->
      <g style="fill: #262626" transform="translate(31.883594 306.303227) scale(0.11 -0.11)">
       <defs>
        <path id="DejaVuSans-36" d="M 2113 2584 
Q 1688 2584 1439 2293 
Q 1191 2003 1191 1497 
Q 1191 994 1439 701 
Q 1688 409 2113 409 
Q 2538 409 2786 701 
Q 3034 994 3034 1497 
Q 3034 2003 2786 2293 
Q 2538 2584 2113 2584 
z
M 3366 4563 
L 3366 3988 
Q 3128 4100 2886 4159 
Q 2644 4219 2406 4219 
Q 1781 4219 1451 3797 
Q 1122 3375 1075 2522 
Q 1259 2794 1537 2939 
Q 1816 3084 2150 3084 
Q 2853 3084 3261 2657 
Q 3669 2231 3669 1497 
Q 3669 778 3244 343 
Q 2819 -91 2113 -91 
Q 1303 -91 875 529 
Q 447 1150 447 2328 
Q 447 3434 972 4092 
Q 1497 4750 2381 4750 
Q 2619 4750 2861 4703 
Q 3103 4656 3366 4563 
z
" transform="scale(0.015625)"/>
       </defs>
       <use xlink:href="#DejaVuSans-2212"/>
       <use xlink:href="#DejaVuSans-36" x="83.789062"/>
      </g>
     </g>
    </g>
    <g id="ytick_2">
     <g id="line2d_10">
      <path d="M 57.6 257.8711 
L 414.72 257.8711 
" clip-path="url(#p9359a168a6)" style="fill: none; stroke: #ffffff; stroke-linecap: round"/>
     </g>
     <g id="text_11">
      <!-- −4 -->
      <g style="fill: #262626" transform="translate(31.883594 262.050241) scale(0.11 -0.11)">
       <defs>
        <path id="DejaVuSans-34" d="M 2419 4116 
L 825 1625 
L 2419 1625 
L 2419 4116 
z
M 2253 4666 
L 3047 4666 
L 3047 1625 
L 3713 1625 
L 3713 1100 
L 3047 1100 
L 3047 0 
L 2419 0 
L 2419 1100 
L 313 1100 
L 313 1709 
L 2253 4666 
z
" transform="scale(0.015625)"/>
       </defs>
       <use xlink:href="#DejaVuSans-2212"/>
       <use xlink:href="#DejaVuSans-34" x="83.789062"/>
      </g>
     </g>
    </g>
    <g id="ytick_3">
     <g id="line2d_11">
      <path d="M 57.6 213.618114 
L 414.72 213.618114 
" clip-path="url(#p9359a168a6)" style="fill: none; stroke: #ffffff; stroke-linecap: round"/>
     </g>
     <g id="text_12">
      <!-- −2 -->
      <g style="fill: #262626" transform="translate(31.883594 217.797254) scale(0.11 -0.11)">
       <use xlink:href="#DejaVuSans-2212"/>
       <use xlink:href="#DejaVuSans-32" x="83.789062"/>
      </g>
     </g>
    </g>
    <g id="ytick_4">
     <g id="line2d_12">
      <path d="M 57.6 169.365127 
L 414.72 169.365127 
" clip-path="url(#p9359a168a6)" style="fill: none; stroke: #ffffff; stroke-linecap: round"/>
     </g>
     <g id="text_13">
      <!-- 0 -->
      <g style="fill: #262626" transform="translate(41.10125 173.544268) scale(0.11 -0.11)">
       <use xlink:href="#DejaVuSans-30"/>
      </g>
     </g>
    </g>
    <g id="ytick_5">
     <g id="line2d_13">
      <path d="M 57.6 125.112141 
L 414.72 125.112141 
" clip-path="url(#p9359a168a6)" style="fill: none; stroke: #ffffff; stroke-linecap: round"/>
     </g>
     <g id="text_14">
      <!-- 2 -->
      <g style="fill: #262626" transform="translate(41.10125 129.291282) scale(0.11 -0.11)">
       <use xlink:href="#DejaVuSans-32"/>
      </g>
     </g>
    </g>
    <g id="ytick_6">
     <g id="line2d_14">
      <path d="M 57.6 80.859155 
L 414.72 80.859155 
" clip-path="url(#p9359a168a6)" style="fill: none; stroke: #ffffff; stroke-linecap: round"/>
     </g>
     <g id="text_15">
      <!-- 4 -->
      <g style="fill: #262626" transform="translate(41.10125 85.038295) scale(0.11 -0.11)">
       <use xlink:href="#DejaVuSans-34"/>
      </g>
     </g>
    </g>
    <g id="text_16">
     <!-- y -->
     <g style="fill: #262626" transform="translate(25.387969 178.07925) rotate(-90) scale(0.12 -0.12)">
      <defs>
       <path id="DejaVuSans-79" d="M 2059 -325 
Q 1816 -950 1584 -1140 
Q 1353 -1331 966 -1331 
L 506 -1331 
L 506 -850 
L 844 -850 
Q 1081 -850 1212 -737 
Q 1344 -625 1503 -206 
L 1606 56 
L 191 3500 
L 800 3500 
L 1894 763 
L 2988 3500 
L 3597 3500 
L 2059 -325 
z
" transform="scale(0.015625)"/>
      </defs>
      <use xlink:href="#DejaVuSans-79"/>
     </g>
    </g>
   </g>
   <g id="PathCollection_1">
    <path d="M 152.712362 255.630395 
L 154.506935 255.712463 
L 156.301508 255.684675 
L 158.09608 255.555485 
L 159.051985 255.431397 
L 159.890653 255.325824 
L 161.685226 254.992087 
L 163.479799 254.545929 
L 164.911142 254.094151 
L 165.274372 253.981748 
L 167.068945 253.300247 
L 168.285209 252.756905 
L 168.863518 252.502984 
L 170.65809 251.602604 
L 170.987587 251.419658 
L 172.452663 250.621955 
L 173.37475 250.082412 
L 174.247236 249.585858 
L 175.660815 248.745166 
L 176.041809 248.526994 
L 177.836382 247.482562 
L 177.966797 247.40792 
L 179.630955 246.496393 
L 180.439582 246.070673 
L 181.425528 245.57748 
L 183.220101 244.733427 
L 183.220101 244.733427 
L 185.014673 244.011684 
L 186.716225 243.396181 
L 186.809246 243.364221 
L 188.603819 242.833119 
L 190.398392 242.369052 
L 191.768278 242.058935 
L 192.192965 241.966948 
L 193.987538 241.611277 
L 195.782111 241.258273 
L 197.576683 240.882355 
L 198.258923 240.721688 
L 199.371256 240.469584 
L 201.165829 240.001891 
L 202.960402 239.462074 
L 203.188409 239.384442 
L 204.754975 238.867526 
L 206.549548 238.202126 
L 206.933243 238.047196 
L 208.344121 237.493316 
L 210.138693 236.726022 
L 210.174893 236.70995 
L 211.933266 235.952009 
L 213.204589 235.372704 
L 213.727839 235.14203 
L 215.522412 234.334544 
L 216.173218 234.035457 
L 217.316985 233.530658 
L 219.111558 232.710731 
L 219.139173 232.698211 
L 220.906131 231.935401 
L 222.175784 231.360965 
L 222.700704 231.134982 
L 224.495276 230.347899 
L 225.205631 230.023719 
L 226.289849 229.554264 
L 228.084422 228.727606 
L 228.172211 228.686472 
L 229.878995 227.926865 
L 231.091319 227.349226 
L 231.673568 227.083513 
L 233.468141 226.235774 
L 233.931111 226.01198 
L 235.262714 225.391818 
L 236.733435 224.674734 
L 237.057286 224.521273 
L 238.851859 223.674118 
L 239.554586 223.337487 
L 240.646432 222.827167 
L 242.360159 222.000241 
L 242.441005 221.961995 
L 244.235578 221.136666 
L 245.225031 220.662995 
L 246.030151 220.286728 
L 247.824724 219.414531 
L 248.00347 219.325749 
L 249.619296 218.550302 
L 250.703319 217.988503 
L 251.413869 217.633547 
L 253.208442 216.667556 
L 253.237063 216.651256 
L 255.003015 215.693734 
L 255.645966 215.31401 
L 256.797588 214.665296 
L 257.929045 213.976764 
L 258.592161 213.58991 
L 260.111816 212.639518 
L 260.386734 212.473338 
L 262.181307 211.31913 
L 262.206208 211.302271 
L 263.975879 210.132864 
L 264.216331 209.965025 
L 265.770452 208.890913 
L 266.132874 208.627779 
L 267.565025 207.583234 
L 267.949064 207.290533 
L 269.359598 206.196091 
L 269.660761 205.953286 
L 271.154171 204.714092 
L 271.26864 204.61604 
L 272.78713 203.278794 
L 272.948744 203.132715 
L 274.233115 201.941548 
L 274.743317 201.453878 
L 275.617057 200.604302 
L 276.537889 199.686165 
L 276.954962 199.267055 
L 278.266845 197.929809 
L 278.332462 197.863829 
L 279.596411 196.592563 
L 280.127035 196.058867 
L 280.933224 195.255317 
L 281.921608 194.273528 
L 282.28596 193.91807 
L 283.664551 192.580824 
L 283.716181 192.531574 
L 285.09825 191.243578 
L 285.510754 190.858035 
L 286.561166 189.906332 
L 287.305327 189.22511 
L 288.04998 188.569085 
L 289.099899 187.62697 
L 289.560513 187.231839 
L 290.894472 186.057253 
L 291.088844 185.894593 
L 292.638428 184.557347 
L 292.689045 184.512462 
L 294.223838 183.220101 
L 294.483618 182.993205 
L 295.826438 181.882854 
L 296.278191 181.495271 
L 297.44823 180.545608 
L 298.072764 180.020417 
L 299.091324 179.208362 
L 299.867337 178.568913 
L 300.755721 177.871116 
L 301.66191 177.137226 
L 302.436723 176.533869 
L 303.456482 175.716322 
L 304.123022 175.196623 
L 305.251055 174.29097 
L 305.796703 173.859377 
L 307.045628 172.839918 
L 307.435736 172.522131 
L 308.840201 171.336435 
L 309.018068 171.184884 
L 310.533887 169.847638 
L 310.634774 169.756072 
L 311.981248 168.510392 
L 312.429347 168.076056 
L 313.340254 167.173146 
L 314.22392 166.248759 
L 314.609954 165.835899 
L 315.806178 164.498653 
L 316.018492 164.253644 
L 316.949187 163.161407 
L 317.813065 162.082318 
L 318.017565 161.824161 
L 319.047218 160.486915 
L 319.607638 159.721166 
L 320.025757 159.149668 
L 320.961225 157.812422 
L 321.402211 157.151744 
L 321.858446 156.475176 
L 322.709826 155.13793 
L 323.196784 154.325486 
L 323.517602 153.800683 
L 324.27165 152.463437 
L 324.968242 151.126191 
L 324.991357 151.075855 
L 325.596509 149.788945 
L 326.151406 148.451698 
L 326.639328 147.114452 
L 326.78593 146.644364 
L 327.060406 145.777206 
L 327.440855 144.43996 
L 327.825671 143.102714 
L 328.261185 141.765467 
L 328.580503 140.960775 
L 328.788009 140.428221 
L 329.435509 139.090975 
L 330.195938 137.753729 
L 330.375075 137.486089 
L 331.075055 136.416482 
L 332.025388 135.079236 
L 332.169648 134.892497 
L 333.048852 133.74199 
L 333.964221 132.558768 
L 334.083741 132.404744 
L 335.132767 131.067497 
L 335.758794 130.234035 
L 336.144549 129.730251 
L 337.099021 128.393005 
L 337.553367 127.684502 
L 337.971613 127.055759 
L 338.729147 125.718513 
L 339.343319 124.381266 
L 339.34794 124.366516 
L 339.785831 123.04402 
L 339.999371 121.706774 
L 339.916249 120.369528 
L 339.409805 119.032281 
L 339.34794 118.947046 
L 338.031735 117.695035 
L 337.553367 117.413935 
L 335.758794 116.759718 
L 333.964221 116.412325 
L 333.496332 116.357789 
L 332.169648 116.20695 
L 330.375075 116.016602 
L 328.580503 115.715295 
L 326.78593 115.10815 
L 326.637796 115.020543 
L 325.117145 113.683296 
L 324.991357 113.510007 
L 324.402648 112.34605 
L 323.929857 111.008804 
L 323.556889 109.671558 
L 323.212896 108.334312 
L 323.196784 108.273898 
L 322.864905 106.997065 
L 322.443615 105.659819 
L 321.911803 104.322573 
L 321.402211 103.293286 
L 321.230276 102.985327 
L 320.343225 101.64808 
L 319.607638 100.71826 
L 319.226886 100.310834 
L 317.867555 98.973588 
L 317.813065 98.920025 
L 316.310662 97.636342 
L 316.018492 97.374663 
L 314.712024 96.299095 
L 314.22392 95.862874 
L 313.203098 94.961849 
L 312.429347 94.242152 
L 311.795937 93.624603 
L 310.634774 92.536852 
L 310.386179 92.287357 
L 308.8474 90.950111 
L 308.840201 90.944856 
L 307.05297 89.612864 
L 307.045628 89.60837 
L 305.251055 88.513962 
L 304.825218 88.275618 
L 303.456482 87.606239 
L 301.848016 86.938372 
L 301.66191 86.865968 
L 299.867337 86.260025 
L 298.072764 85.797357 
L 297.046352 85.601126 
L 296.278191 85.449367 
L 294.483618 85.202749 
L 292.689045 85.060079 
L 290.894472 85.008793 
L 289.099899 85.039693 
L 287.305327 85.147231 
L 285.510754 85.329557 
L 283.716181 85.588587 
L 283.648678 85.601126 
L 281.921608 85.90465 
L 280.127035 86.301603 
L 278.332462 86.790103 
L 277.862613 86.938372 
L 276.537889 87.341136 
L 274.743317 87.978843 
L 273.997756 88.275618 
L 272.948744 88.678609 
L 271.154171 89.446718 
L 270.783937 89.612864 
L 269.359598 90.224952 
L 267.785857 90.950111 
L 267.565025 91.046061 
L 265.770452 91.806711 
L 264.637902 92.287357 
L 263.975879 92.546115 
L 262.181307 93.195977 
L 260.907434 93.624603 
L 260.386734 93.781138 
L 258.592161 94.232519 
L 256.797588 94.62751 
L 255.041216 94.961849 
L 255.003015 94.968059 
L 253.208442 95.21304 
L 251.413869 95.465416 
L 249.619296 95.758498 
L 247.824724 96.116322 
L 247.069099 96.299095 
L 246.030151 96.514266 
L 244.235578 96.964076 
L 242.441005 97.485731 
L 241.975271 97.636342 
L 240.646432 98.021402 
L 238.851859 98.596847 
L 237.758349 98.973588 
L 237.057286 99.196047 
L 235.262714 99.802212 
L 233.852063 100.310834 
L 233.468141 100.44123 
L 231.673568 101.075473 
L 230.170788 101.64808 
L 229.878995 101.754414 
L 228.084422 102.43296 
L 226.744053 102.985327 
L 226.289849 103.165378 
L 224.495276 103.916994 
L 223.603995 104.322573 
L 222.700704 104.716222 
L 220.906131 105.568186 
L 220.724982 105.659819 
L 219.111558 106.431979 
L 218.029263 106.997065 
L 217.316985 107.347852 
L 215.522412 108.298908 
L 215.459528 108.334312 
L 213.727839 109.244603 
L 212.971115 109.671558 
L 211.933266 110.22015 
L 210.53459 111.008804 
L 210.138693 111.21921 
L 208.344121 112.2295 
L 208.148541 112.34605 
L 206.549548 113.248578 
L 205.823918 113.683296 
L 204.754975 114.296086 
L 203.560769 115.020543 
L 202.960402 115.372646 
L 201.36754 116.357789 
L 201.165829 116.479558 
L 199.371256 117.614585 
L 199.24917 117.695035 
L 197.576683 118.780103 
L 197.202915 119.032281 
L 195.782111 119.982127 
L 195.221681 120.369528 
L 193.987538 121.218306 
L 193.296697 121.706774 
L 192.192965 122.484385 
L 191.416119 123.04402 
L 190.398392 123.773676 
L 189.565562 124.381266 
L 188.603819 125.076928 
L 187.728658 125.718513 
L 186.809246 126.382932 
L 185.887904 127.055759 
L 185.014673 127.680009 
L 184.02607 128.393005 
L 183.220101 128.958111 
L 182.128343 129.730251 
L 181.425528 130.210804 
L 180.185111 131.067497 
L 179.630955 131.436386 
L 178.194871 132.404744 
L 177.836382 132.637799 
L 176.16626 133.74199 
L 176.041809 133.821635 
L 174.247236 134.988489 
L 174.109604 135.079236 
L 172.452663 136.15076 
L 172.050889 136.416482 
L 170.65809 137.330567 
L 170.028667 137.753729 
L 168.863518 138.542338 
L 168.071532 139.090975 
L 167.068945 139.801888 
L 166.202577 140.428221 
L 165.274372 141.127708 
L 164.438481 141.765467 
L 163.479799 142.542749 
L 162.790828 143.102714 
L 161.685226 144.076694 
L 161.268707 144.43996 
L 159.890653 145.768719 
L 159.881633 145.777206 
L 158.573174 147.114452 
L 158.09608 147.669502 
L 157.393716 148.451698 
L 156.351915 149.788945 
L 156.301508 149.860317 
L 155.352104 151.126191 
L 154.506935 152.437937 
L 154.489233 152.463437 
L 153.622671 153.800683 
L 152.844492 155.13793 
L 152.712362 155.366292 
L 152.022908 156.475176 
L 151.216224 157.812422 
L 150.917789 158.287937 
L 150.339755 159.149668 
L 149.427697 160.486915 
L 149.123216 160.910011 
L 148.425834 161.824161 
L 147.408028 163.161407 
L 147.328643 163.260004 
L 146.277689 164.498653 
L 145.53407 165.400211 
L 145.1542 165.835899 
L 144.003842 167.173146 
L 143.739497 167.486281 
L 142.824351 168.510392 
L 141.944925 169.566862 
L 141.696066 169.847638 
L 140.562299 171.184884 
L 140.150352 171.709412 
L 139.464443 172.522131 
L 138.445986 173.859377 
L 138.355779 173.986014 
L 137.417345 175.196623 
L 136.561206 176.454213 
L 136.501589 176.533869 
L 135.573648 177.871116 
L 134.766633 179.203852 
L 134.763588 179.208362 
L 133.929798 180.545608 
L 133.194437 181.882854 
L 132.97206 182.32292 
L 132.461085 183.220101 
L 131.763436 184.557347 
L 131.177487 185.770254 
L 131.109683 185.894593 
L 130.396387 187.231839 
L 129.714747 188.569085 
L 129.382915 189.217101 
L 128.99176 189.906332 
L 128.229357 191.243578 
L 127.588342 192.380898 
L 127.465161 192.580824 
L 126.614858 193.91807 
L 125.795191 195.255317 
L 125.793769 195.257559 
L 124.885233 196.592563 
L 124.023688 197.929809 
L 123.999196 197.967649 
L 123.10092 199.267055 
L 122.237887 200.604302 
L 122.204623 200.657383 
L 121.345792 201.941548 
L 120.525788 203.278794 
L 120.41005 203.482418 
L 119.720676 204.61604 
L 118.996797 205.953286 
L 118.615477 206.762559 
L 118.348068 207.290533 
L 117.786263 208.627779 
L 117.346346 209.965025 
L 117.03788 211.302271 
L 116.871916 212.639518 
L 116.857689 213.976764 
L 117.00103 215.31401 
L 117.306405 216.651256 
L 117.783707 217.988503 
L 118.459715 219.325749 
L 118.615477 219.573602 
L 119.407064 220.662995 
L 120.41005 221.704103 
L 120.744089 222.000241 
L 122.204623 223.102102 
L 122.541967 223.337487 
L 123.999196 224.337448 
L 124.445301 224.674734 
L 125.793769 225.860885 
L 125.929349 226.01198 
L 126.84201 227.349226 
L 127.456379 228.686472 
L 127.588342 229.107189 
L 127.821484 230.023719 
L 128.060916 231.360965 
L 128.23885 232.698211 
L 128.384739 234.035457 
L 128.517285 235.372704 
L 128.647153 236.70995 
L 128.77872 238.047196 
L 128.911411 239.384442 
L 129.041479 240.721688 
L 129.165242 242.058935 
L 129.284972 243.396181 
L 129.382915 244.412106 
L 129.42589 244.733427 
L 129.681984 246.070673 
L 130.269392 247.40792 
L 131.177487 248.267938 
L 132.409971 248.745166 
L 132.97206 248.880314 
L 134.766633 249.142954 
L 136.561206 249.394109 
L 138.355779 249.771714 
L 139.263149 250.082412 
L 140.150352 250.386422 
L 141.944925 251.320998 
L 142.089328 251.419658 
L 143.739497 252.471429 
L 144.150839 252.756905 
L 145.53407 253.570084 
L 146.536257 254.094151 
L 147.328643 254.43509 
L 149.123216 255.031232 
L 150.917789 255.41935 
L 151.010493 255.431397 
L 152.712362 255.630395 
z
" clip-path="url(#p9359a168a6)" style="fill: none; stroke: #4c72b0; stroke-width: 1.5"/>
   </g>
   <g id="PathCollection_2">
    <path d="M 174.247236 231.565441 
L 176.041809 232.003324 
L 177.836382 232.158553 
L 179.630955 232.107029 
L 181.425528 231.909636 
L 183.220101 231.608965 
L 184.38264 231.360965 
L 185.014673 231.236884 
L 186.809246 230.82251 
L 188.603819 230.370308 
L 189.883778 230.023719 
L 190.398392 229.893573 
L 192.192965 229.415523 
L 193.987538 228.914921 
L 194.777332 228.686472 
L 195.782111 228.413746 
L 197.576683 227.909795 
L 199.371256 227.375943 
L 199.459129 227.349226 
L 201.165829 226.863072 
L 202.960402 226.317442 
L 203.9134 226.01198 
L 204.754975 225.759567 
L 206.549548 225.193378 
L 208.075909 224.674734 
L 208.344121 224.589383 
L 210.138693 223.996522 
L 211.933266 223.3526 
L 211.974051 223.337487 
L 213.727839 222.726898 
L 215.522412 222.048304 
L 215.645041 222.000241 
L 217.316985 221.380039 
L 219.091541 220.662995 
L 219.111558 220.655292 
L 220.906131 219.936774 
L 222.305629 219.325749 
L 222.700704 219.160041 
L 224.495276 218.362074 
L 225.277296 217.988503 
L 226.289849 217.519584 
L 228.014415 216.651256 
L 228.084422 216.616953 
L 229.878995 215.694946 
L 230.571172 215.31401 
L 231.673568 214.718907 
L 232.96192 213.976764 
L 233.468141 213.690248 
L 235.22093 212.639518 
L 235.262714 212.614883 
L 237.057286 211.524921 
L 237.410663 211.302271 
L 238.851859 210.40265 
L 239.530146 209.965025 
L 240.646432 209.251079 
L 241.594027 208.627779 
L 242.441005 208.075084 
L 243.614526 207.290533 
L 244.235578 206.878104 
L 245.598861 205.953286 
L 246.030151 205.662087 
L 247.550368 204.61604 
L 247.824724 204.427616 
L 249.469732 203.278794 
L 249.619296 203.174155 
L 251.356172 201.941548 
L 251.413869 201.900344 
L 253.208442 200.604302 
L 253.208442 200.604302 
L 255.003015 199.287004 
L 255.030134 199.267055 
L 256.797588 197.93854 
L 256.809219 197.929809 
L 258.553946 196.592563 
L 258.592161 196.562495 
L 260.267097 195.255317 
L 260.386734 195.158932 
L 261.948717 193.91807 
L 262.181307 193.726687 
L 263.601415 192.580824 
L 263.975879 192.267238 
L 265.228249 191.243578 
L 265.770452 190.783416 
L 266.832643 189.906332 
L 267.565025 189.279152 
L 268.418294 188.569085 
L 269.359598 187.758852 
L 269.98898 187.231839 
L 271.154171 186.226446 
L 271.548175 185.894593 
L 272.948744 184.684274 
L 273.098416 184.557347 
L 274.653655 183.220101 
L 274.743317 183.141925 
L 276.215376 181.882854 
L 276.537889 181.600771 
L 277.759509 180.545608 
L 278.332462 180.039959 
L 279.281625 179.208362 
L 280.127035 178.450398 
L 280.776114 177.871116 
L 281.921608 176.820784 
L 282.236158 176.533869 
L 283.659787 175.196623 
L 283.716181 175.142345 
L 285.068533 173.859377 
L 285.510754 173.416486 
L 286.423762 172.522131 
L 287.305327 171.600104 
L 287.715529 171.184884 
L 288.950232 169.847638 
L 289.099899 169.674431 
L 290.156535 168.510392 
L 290.894472 167.607273 
L 291.272152 167.173146 
L 292.332534 165.835899 
L 292.689045 165.33743 
L 293.33688 164.498653 
L 294.251151 163.161407 
L 294.483618 162.789412 
L 295.140427 161.824161 
L 295.949444 160.486915 
L 296.278191 159.901017 
L 296.737829 159.149668 
L 297.500033 157.812422 
L 298.072764 156.734844 
L 298.222583 156.475176 
L 298.995581 155.13793 
L 299.723042 153.800683 
L 299.867337 153.543184 
L 300.515237 152.463437 
L 301.291561 151.126191 
L 301.66191 150.489567 
L 302.097417 149.788945 
L 302.916914 148.451698 
L 303.456482 147.547828 
L 303.733662 147.114452 
L 304.571781 145.777206 
L 305.251055 144.631783 
L 305.373979 144.43996 
L 306.190641 143.102714 
L 306.936955 141.765467 
L 307.045628 141.546772 
L 307.659657 140.428221 
L 308.285765 139.090975 
L 308.787336 137.753729 
L 308.840201 137.542917 
L 309.16284 136.416482 
L 309.346664 135.079236 
L 309.315377 133.74199 
L 309.082449 132.404744 
L 308.840201 131.527617 
L 308.728395 131.067497 
L 308.381532 129.730251 
L 308.09565 128.393005 
L 307.911413 127.055759 
L 307.828018 125.718513 
L 307.818432 124.381266 
L 307.844552 123.04402 
L 307.865335 121.706774 
L 307.838671 120.369528 
L 307.71975 119.032281 
L 307.458075 117.695035 
L 307.045628 116.495362 
L 306.9938 116.357789 
L 306.238097 115.020543 
L 305.251055 113.844031 
L 305.090173 113.683296 
L 303.456482 112.398415 
L 303.374955 112.34605 
L 301.66191 111.363768 
L 300.923033 111.008804 
L 299.867337 110.504887 
L 298.072764 109.714949 
L 297.972204 109.671558 
L 296.278191 108.831218 
L 295.364143 108.334312 
L 294.483618 107.739241 
L 293.5173 106.997065 
L 292.689045 106.192128 
L 292.179353 105.659819 
L 291.042443 104.322573 
L 290.894472 104.148244 
L 289.771161 102.985327 
L 289.099899 102.413066 
L 287.829889 101.64808 
L 287.305327 101.402626 
L 285.510754 100.92159 
L 283.716181 100.756067 
L 281.921608 100.804475 
L 280.127035 100.999846 
L 278.332462 101.301099 
L 276.710894 101.64808 
L 276.537889 101.683182 
L 274.743317 102.115463 
L 272.948744 102.59111 
L 271.57499 102.985327 
L 271.154171 103.099364 
L 269.359598 103.614689 
L 267.565025 104.147771 
L 266.988506 104.322573 
L 265.770452 104.671723 
L 263.975879 105.185617 
L 262.291774 105.659819 
L 262.181307 105.689374 
L 260.386734 106.148751 
L 258.592161 106.582897 
L 256.797588 106.987119 
L 256.749284 106.997065 
L 255.003015 107.340157 
L 253.208442 107.66799 
L 251.413869 107.981407 
L 249.619296 108.295633 
L 249.409529 108.334312 
L 247.824724 108.612005 
L 246.030151 108.95955 
L 244.235578 109.356694 
L 243.005156 109.671558 
L 242.441005 109.809137 
L 240.646432 110.309989 
L 238.851859 110.889686 
L 238.521334 111.008804 
L 237.057286 111.516741 
L 235.262714 112.221754 
L 234.970896 112.34605 
L 233.468141 112.967813 
L 231.907738 113.683296 
L 231.673568 113.788076 
L 229.878995 114.639268 
L 229.126525 115.020543 
L 228.084422 115.540211 
L 226.544381 116.357789 
L 226.289849 116.491399 
L 224.495276 117.463857 
L 224.080598 117.695035 
L 222.700704 118.462785 
L 221.70977 119.032281 
L 220.906131 119.49595 
L 219.429272 120.369528 
L 219.111558 120.559345 
L 217.316985 121.645121 
L 217.214236 121.706774 
L 215.522412 122.741919 
L 215.031791 123.04402 
L 213.727839 123.865891 
L 212.911522 124.381266 
L 211.933266 125.014262 
L 210.841912 125.718513 
L 210.138693 126.182605 
L 208.806698 127.055759 
L 208.344121 127.36404 
L 206.784492 128.393005 
L 206.549548 128.54911 
L 204.754975 129.726388 
L 204.748949 129.730251 
L 202.960402 130.864471 
L 202.637731 131.067497 
L 201.165829 131.97143 
L 200.456122 132.404744 
L 199.371256 133.043973 
L 198.183638 133.74199 
L 197.576683 134.083622 
L 195.811141 135.079236 
L 195.782111 135.094861 
L 193.987538 136.044996 
L 193.293667 136.416482 
L 192.192965 136.978371 
L 190.699523 137.753729 
L 190.398392 137.903692 
L 188.603819 138.803277 
L 188.039011 139.090975 
L 186.809246 139.698306 
L 185.376688 140.428221 
L 185.014673 140.609118 
L 183.220101 141.531372 
L 182.779948 141.765467 
L 181.425528 142.484118 
L 180.31923 143.102714 
L 179.630955 143.491675 
L 178.052158 144.43996 
L 177.836382 144.572496 
L 176.041809 145.750627 
L 176.003782 145.777206 
L 174.247236 147.055834 
L 174.172147 147.114452 
L 172.534053 148.451698 
L 172.452663 148.520675 
L 171.057041 149.788945 
L 170.65809 150.165364 
L 169.703186 151.126191 
L 168.863518 151.997044 
L 168.43853 152.463437 
L 167.230343 153.800683 
L 167.068945 153.975055 
L 166.04138 155.13793 
L 165.274372 155.999056 
L 164.865383 156.475176 
L 163.682072 157.812422 
L 163.479799 158.031399 
L 162.471154 159.149668 
L 161.685226 160.007652 
L 161.252335 160.486915 
L 160.021716 161.824161 
L 159.890653 161.963391 
L 158.76485 163.161407 
L 158.09608 163.881269 
L 157.518767 164.498653 
L 156.301508 165.830985 
L 156.296954 165.835899 
L 155.071872 167.173146 
L 154.506935 167.823356 
L 153.895264 168.510392 
L 152.779213 169.847638 
L 152.712362 169.933032 
L 151.698464 171.184884 
L 150.917789 172.245422 
L 150.705846 172.522131 
L 149.774508 173.859377 
L 149.123216 174.907471 
L 148.934863 175.196623 
L 148.161903 176.533869 
L 147.479657 177.871116 
L 147.328643 178.205991 
L 146.853532 179.208362 
L 146.288473 180.545608 
L 145.768372 181.882854 
L 145.53407 182.51562 
L 145.262186 183.220101 
L 144.752386 184.557347 
L 144.222799 185.894593 
L 143.739497 187.031756 
L 143.652249 187.231839 
L 143.02227 188.569085 
L 142.34214 189.906332 
L 141.944925 190.63422 
L 141.607736 191.243578 
L 140.83179 192.580824 
L 140.150352 193.729174 
L 140.036379 193.91807 
L 139.225559 195.255317 
L 138.438529 196.592563 
L 138.355779 196.740476 
L 137.673028 197.929809 
L 136.969564 199.267055 
L 136.561206 200.144709 
L 136.338511 200.604302 
L 135.804348 201.941548 
L 135.400076 203.278794 
L 135.155983 204.61604 
L 135.12156 205.953286 
L 135.377779 207.290533 
L 136.051746 208.627779 
L 136.561206 209.216335 
L 137.453354 209.965025 
L 138.355779 210.513162 
L 140.150352 211.278196 
L 140.222265 211.302271 
L 141.944925 211.880745 
L 143.739497 212.503319 
L 144.060207 212.639518 
L 145.53407 213.483156 
L 146.132784 213.976764 
L 147.13489 215.31401 
L 147.328643 215.766005 
L 147.637822 216.651256 
L 147.927521 217.988503 
L 148.150215 219.325749 
L 148.40794 220.662995 
L 148.80979 222.000241 
L 149.123216 222.651547 
L 149.533701 223.337487 
L 150.911788 224.674734 
L 150.917789 224.678789 
L 152.712362 225.533581 
L 154.464297 226.01198 
L 154.506935 226.021663 
L 156.301508 226.31069 
L 158.09608 226.514586 
L 159.890653 226.693632 
L 161.685226 226.89643 
L 163.479799 227.164934 
L 164.381369 227.349226 
L 165.274372 227.563271 
L 167.068945 228.140844 
L 168.43168 228.686472 
L 168.863518 228.89701 
L 170.65809 229.844159 
L 171.009245 230.023719 
L 172.452663 230.820064 
L 173.736465 231.360965 
L 174.247236 231.565441 
z
" clip-path="url(#p9359a168a6)" style="fill: none; stroke: #4c72b0; stroke-width: 1.5"/>
   </g>
   <g id="PathCollection_3">
    <path d="M 183.220101 222.09776 
L 185.014673 222.278228 
L 186.809246 222.331543 
L 188.603819 222.272372 
L 190.398392 222.116291 
L 191.258001 222.000241 
L 192.192965 221.884979 
L 193.987538 221.593927 
L 195.782111 221.24305 
L 197.576683 220.836916 
L 198.26027 220.662995 
L 199.371256 220.397699 
L 201.165829 219.923351 
L 202.960402 219.401928 
L 203.206221 219.325749 
L 204.754975 218.867697 
L 206.549548 218.295158 
L 207.456907 217.988503 
L 208.344121 217.69943 
L 210.138693 217.083392 
L 211.332472 216.651256 
L 211.933266 216.439894 
L 213.727839 215.783988 
L 214.950684 215.31401 
L 215.522412 215.099362 
L 217.316985 214.400245 
L 218.35082 213.976764 
L 219.111558 213.671818 
L 220.906131 212.917543 
L 221.534705 212.639518 
L 222.700704 212.135387 
L 224.495276 211.307778 
L 224.506664 211.302271 
L 226.289849 210.461739 
L 227.274935 209.965025 
L 228.084422 209.567708 
L 229.878995 208.627779 
L 229.878995 208.627779 
L 231.673568 207.669359 
L 232.340326 207.290533 
L 233.468141 206.669236 
L 234.693724 205.953286 
L 235.262714 205.63114 
L 236.958165 204.61604 
L 237.057286 204.558479 
L 238.851859 203.468804 
L 239.150588 203.278794 
L 240.646432 202.351152 
L 241.27681 201.941548 
L 242.441005 201.200862 
L 243.338361 200.604302 
L 244.235578 200.017019 
L 245.335577 199.267055 
L 246.030151 198.797687 
L 247.268005 197.929809 
L 247.824724 197.540039 
L 249.13545 196.592563 
L 249.619296 196.240529 
L 250.938534 195.255317 
L 251.413869 194.895145 
L 252.678825 193.91807 
L 253.208442 193.499774 
L 254.358712 192.580824 
L 255.003015 192.050733 
L 255.981168 191.243578 
L 256.797588 190.545492 
L 257.549556 189.906332 
L 258.592161 188.98356 
L 259.067537 188.569085 
L 260.386734 187.367418 
L 260.539155 187.231839 
L 261.991615 185.894593 
L 262.181307 185.713409 
L 263.431523 184.557347 
L 263.975879 184.031205 
L 264.848712 183.220101 
L 265.770452 182.326274 
L 266.248473 181.882854 
L 267.565025 180.61129 
L 267.636311 180.545608 
L 269.053466 179.208362 
L 269.359598 178.909093 
L 270.473177 177.871116 
L 271.154171 177.211451 
L 271.885753 176.533869 
L 272.948744 175.509023 
L 273.285921 175.196623 
L 274.671373 173.859377 
L 274.743317 173.787419 
L 276.051037 172.522131 
L 276.537889 172.025044 
L 277.382866 171.184884 
L 278.332462 170.181627 
L 278.655341 169.847638 
L 279.874501 168.510392 
L 280.127035 168.216648 
L 281.039754 167.173146 
L 281.921608 166.086499 
L 282.128426 165.835899 
L 283.170145 164.498653 
L 283.716181 163.750334 
L 284.15345 163.161407 
L 285.09162 161.824161 
L 285.510754 161.198103 
L 285.996099 160.486915 
L 286.869866 159.149668 
L 287.305327 158.461673 
L 287.725196 157.812422 
L 288.564936 156.475176 
L 289.099899 155.601747 
L 289.390922 155.13793 
L 290.209054 153.800683 
L 290.894472 152.648023 
L 291.007283 152.463437 
L 291.793917 151.126191 
L 292.546641 149.788945 
L 292.689045 149.517395 
L 293.266531 148.451698 
L 293.931393 147.114452 
L 294.483618 145.876659 
L 294.529766 145.777206 
L 295.040185 144.43996 
L 295.444225 143.102714 
L 295.726174 141.765467 
L 295.877003 140.428221 
L 295.906009 139.090975 
L 295.84922 137.753729 
L 295.764504 136.416482 
L 295.711624 135.079236 
L 295.730302 133.74199 
L 295.831151 132.404744 
L 296.000691 131.067497 
L 296.21121 129.730251 
L 296.278191 129.316658 
L 296.429366 128.393005 
L 296.605894 127.055759 
L 296.690313 125.718513 
L 296.623175 124.381266 
L 296.325586 123.04402 
L 296.278191 122.934153 
L 295.621622 121.706774 
L 294.483618 120.518667 
L 294.281222 120.369528 
L 292.689045 119.516674 
L 291.2012 119.032281 
L 290.894472 118.945492 
L 289.099899 118.624848 
L 287.305327 118.450063 
L 285.510754 118.365586 
L 283.716181 118.322712 
L 281.921608 118.270218 
L 280.127035 118.144593 
L 278.332462 117.861022 
L 277.731802 117.695035 
L 276.537889 117.230953 
L 275.010702 116.357789 
L 274.743317 116.175329 
L 273.067235 115.020543 
L 272.948744 114.950225 
L 271.154171 114.141048 
L 269.359598 113.716127 
L 268.987345 113.683296 
L 267.565025 113.588045 
L 265.770452 113.628874 
L 265.165091 113.683296 
L 263.975879 113.787284 
L 262.181307 114.021707 
L 260.386734 114.298884 
L 258.592161 114.600285 
L 256.797588 114.912624 
L 256.183494 115.020543 
L 255.003015 115.223791 
L 253.208442 115.522414 
L 251.413869 115.807817 
L 249.619296 116.08423 
L 247.846764 116.357789 
L 247.824724 116.361123 
L 246.030151 116.646793 
L 244.235578 116.964519 
L 242.441005 117.332482 
L 240.944664 117.695035 
L 240.646432 117.765355 
L 238.851859 118.266502 
L 237.057286 118.850387 
L 236.572086 119.032281 
L 235.262714 119.510841 
L 233.468141 120.2528 
L 233.213993 120.369528 
L 231.673568 121.063442 
L 230.375547 121.706774 
L 229.878995 121.949274 
L 228.084422 122.898829 
L 227.827174 123.04402 
L 226.289849 123.905643 
L 225.491391 124.381266 
L 224.495276 124.972919 
L 223.303746 125.718513 
L 222.700704 126.096012 
L 221.233237 127.055759 
L 220.906131 127.270256 
L 219.253725 128.393005 
L 219.111558 128.489962 
L 217.341424 129.730251 
L 217.316985 129.747438 
L 215.522412 131.030304 
L 215.470777 131.067497 
L 213.727839 132.327458 
L 213.620866 132.404744 
L 211.933266 133.624697 
L 211.769461 133.74199 
L 210.138693 134.906645 
L 209.892675 135.079236 
L 208.344121 136.159719 
L 207.966789 136.416482 
L 206.549548 137.373819 
L 205.969727 137.753729 
L 204.754975 138.543246 
L 203.883474 139.090975 
L 202.960402 139.666704 
L 201.697309 140.428221 
L 201.165829 140.746666 
L 199.411095 141.765467 
L 199.371256 141.7885 
L 197.576683 142.785363 
L 196.99558 143.102714 
L 195.782111 143.761774 
L 194.523996 144.43996 
L 193.987538 144.728179 
L 192.192965 145.690023 
L 192.030194 145.777206 
L 190.398392 146.648226 
L 189.543865 147.114452 
L 188.603819 147.625925 
L 187.131129 148.451698 
L 186.809246 148.631583 
L 185.014673 149.666741 
L 184.81041 149.788945 
L 183.220101 150.736783 
L 182.599833 151.126191 
L 181.425528 151.859293 
L 180.510932 152.463437 
L 179.630955 153.04046 
L 178.538059 153.800683 
L 177.836382 154.284777 
L 176.67095 155.13793 
L 176.041809 155.594975 
L 174.897373 156.475176 
L 174.247236 156.972566 
L 173.205536 157.812422 
L 172.452663 158.418831 
L 171.585858 159.149668 
L 170.65809 159.936031 
L 170.031998 160.486915 
L 168.863518 161.528667 
L 168.541226 161.824161 
L 167.113731 163.161407 
L 167.068945 163.204718 
L 165.747022 164.498653 
L 165.274372 164.985312 
L 164.450155 165.835899 
L 163.479799 166.902228 
L 163.231552 167.173146 
L 162.096149 168.510392 
L 161.685226 169.043358 
L 161.052596 169.847638 
L 160.113043 171.184884 
L 159.890653 171.550901 
L 159.282801 172.522131 
L 158.571331 173.859377 
L 158.09608 174.93916 
L 157.978802 175.196623 
L 157.512873 176.533869 
L 157.159489 177.871116 
L 156.900762 179.208362 
L 156.707146 180.545608 
L 156.536562 181.882854 
L 156.340109 183.220101 
L 156.301508 183.415766 
L 156.074473 184.557347 
L 155.705512 185.894593 
L 155.22337 187.231839 
L 154.637617 188.569085 
L 154.506935 188.83345 
L 153.971917 189.906332 
L 153.254797 191.243578 
L 152.712362 192.240388 
L 152.52499 192.580824 
L 151.836698 193.91807 
L 151.227015 195.255317 
L 150.917789 196.181703 
L 150.776369 196.592563 
L 150.591598 197.929809 
L 150.809661 199.267055 
L 150.917789 199.461489 
L 151.706881 200.604302 
L 152.712362 201.404256 
L 153.402041 201.941548 
L 154.506935 202.645836 
L 155.313406 203.278794 
L 156.301508 204.068828 
L 156.818909 204.61604 
L 157.907702 205.953286 
L 158.09608 206.235953 
L 158.675495 207.290533 
L 159.279089 208.627779 
L 159.797701 209.965025 
L 159.890653 210.219056 
L 160.291243 211.302271 
L 160.862431 212.639518 
L 161.618252 213.976764 
L 161.685226 214.069115 
L 162.799617 215.31401 
L 163.479799 215.861185 
L 164.783855 216.651256 
L 165.274372 216.888479 
L 167.068945 217.578893 
L 168.36376 217.988503 
L 168.863518 218.133641 
L 170.65809 218.638625 
L 172.452663 219.153626 
L 173.014349 219.325749 
L 174.247236 219.704729 
L 176.041809 220.280145 
L 177.25446 220.662995 
L 177.836382 220.84919 
L 179.630955 221.372617 
L 181.425528 221.79425 
L 182.647328 222.000241 
L 183.220101 222.09776 
z
" clip-path="url(#p9359a168a6)" style="fill: none; stroke: #4c72b0; stroke-width: 1.5"/>
   </g>
   <g id="PathCollection_4">
    <path d="M 185.014673 215.83048 
L 186.809246 216.232912 
L 188.603819 216.477467 
L 190.398392 216.579207 
L 192.192965 216.558406 
L 193.987538 216.433949 
L 195.782111 216.220446 
L 197.576683 215.927784 
L 199.371256 215.561895 
L 200.393997 215.31401 
L 201.165829 215.13489 
L 202.960402 214.658475 
L 204.754975 214.122393 
L 205.202256 213.976764 
L 206.549548 213.55023 
L 208.344121 212.932913 
L 209.145577 212.639518 
L 210.138693 212.282697 
L 211.933266 211.601122 
L 212.688076 211.302271 
L 213.727839 210.895951 
L 215.522412 210.165328 
L 216.002575 209.965025 
L 217.316985 209.423259 
L 219.111558 208.654056 
L 219.171962 208.627779 
L 220.906131 207.884895 
L 222.240503 207.290533 
L 222.700704 207.089259 
L 224.495276 206.28293 
L 225.201644 205.953286 
L 226.289849 205.458086 
L 228.056946 204.61604 
L 228.084422 204.603312 
L 229.878995 203.739542 
L 230.786214 203.278794 
L 231.673568 202.84222 
L 233.405043 201.941548 
L 233.468141 201.909732 
L 235.262714 200.957754 
L 235.8917 200.604302 
L 237.057286 199.967128 
L 238.265382 199.267055 
L 238.851859 198.934803 
L 240.526341 197.929809 
L 240.646432 197.858899 
L 242.441005 196.742583 
L 242.670543 196.592563 
L 244.235578 195.575683 
L 244.705669 195.255317 
L 246.030151 194.350802 
L 246.637231 193.91807 
L 247.824724 193.063047 
L 248.47025 192.580824 
L 249.619296 191.707099 
L 250.211028 191.243578 
L 251.413869 190.277732 
L 251.866472 189.906332 
L 253.208442 188.770592 
L 253.44348 188.569085 
L 254.950677 187.231839 
L 255.003015 187.183968 
L 256.40751 185.894593 
L 256.797588 185.52185 
L 257.813113 184.557347 
L 258.592161 183.785936 
L 259.172722 183.220101 
L 260.386734 181.985835 
L 260.490608 181.882854 
L 261.797837 180.545608 
L 262.181307 180.137906 
L 263.085853 179.208362 
L 263.975879 178.255471 
L 264.349932 177.871116 
L 265.603729 176.533869 
L 265.770452 176.349902 
L 266.865031 175.196623 
L 267.565025 174.425996 
L 268.105303 173.859377 
L 269.322988 172.522131 
L 269.359598 172.48028 
L 270.548171 171.184884 
L 271.154171 170.487399 
L 271.735262 169.847638 
L 272.881515 168.510392 
L 272.948744 168.427726 
L 274.009762 167.173146 
L 274.743317 166.246447 
L 275.079129 165.835899 
L 276.108772 164.498653 
L 276.537889 163.904999 
L 277.090691 163.161407 
L 278.025116 161.824161 
L 278.332462 161.357663 
L 278.921179 160.486915 
L 279.774745 159.149668 
L 280.127035 158.56505 
L 280.592616 157.812422 
L 281.373691 156.475176 
L 281.921608 155.477408 
L 282.11341 155.13793 
L 282.812076 153.800683 
L 283.456447 152.463437 
L 283.716181 151.852873 
L 284.037011 151.126191 
L 284.538846 149.788945 
L 284.946635 148.451698 
L 285.24482 147.114452 
L 285.423199 145.777206 
L 285.485556 144.43996 
L 285.456787 143.102714 
L 285.382003 141.765467 
L 285.314806 140.428221 
L 285.300571 139.090975 
L 285.364686 137.753729 
L 285.510353 136.416482 
L 285.510754 136.413906 
L 285.716046 135.079236 
L 285.944845 133.74199 
L 286.147749 132.404744 
L 286.255514 131.067497 
L 286.158669 129.730251 
L 285.662908 128.393005 
L 285.510754 128.199496 
L 283.909365 127.055759 
L 283.716181 126.97719 
L 281.921608 126.620481 
L 280.127035 126.535627 
L 278.332462 126.588742 
L 276.537889 126.701437 
L 274.743317 126.82146 
L 272.948744 126.907987 
L 271.154171 126.923661 
L 269.359598 126.83068 
L 267.565025 126.591265 
L 265.770452 126.174899 
L 264.383277 125.718513 
L 263.975879 125.547883 
L 262.181307 124.691211 
L 261.525031 124.381266 
L 260.386734 123.825655 
L 258.592161 123.172658 
L 258.033515 123.04402 
L 256.797588 122.803186 
L 255.003015 122.649275 
L 253.208442 122.638093 
L 251.413869 122.719947 
L 249.619296 122.86176 
L 247.824724 123.04402 
L 247.824724 123.04402 
L 246.030151 123.265107 
L 244.235578 123.516337 
L 242.441005 123.805122 
L 240.646432 124.14289 
L 239.584956 124.381266 
L 238.851859 124.546356 
L 237.057286 125.02838 
L 235.262714 125.588609 
L 234.907937 125.718513 
L 233.468141 126.242488 
L 231.673568 126.978733 
L 231.507854 127.055759 
L 229.878995 127.806914 
L 228.722373 128.393005 
L 228.084422 128.713754 
L 226.289849 129.696677 
L 226.233212 129.730251 
L 224.495276 130.753909 
L 223.995441 131.067497 
L 222.700704 131.875111 
L 221.896121 132.404744 
L 220.906131 133.053212 
L 219.899826 133.74199 
L 219.111558 134.279517 
L 217.977202 135.079236 
L 217.316985 135.543701 
L 216.103198 136.416482 
L 215.522412 136.834042 
L 214.255796 137.753729 
L 213.727839 138.137873 
L 212.414979 139.090975 
L 211.933266 139.442199 
L 210.561883 140.428221 
L 210.138693 140.734424 
L 208.678205 141.765467 
L 208.344121 142.003165 
L 206.746067 143.102714 
L 206.549548 143.239083 
L 204.754975 144.435713 
L 204.748334 144.43996 
L 202.960402 145.591801 
L 202.660145 145.777206 
L 201.165829 146.705761 
L 200.481733 147.114452 
L 199.371256 147.780717 
L 198.21499 148.451698 
L 197.576683 148.822705 
L 195.871992 149.788945 
L 195.782111 149.839831 
L 193.987538 150.839045 
L 193.468836 151.126191 
L 192.192965 151.830063 
L 191.049554 152.463437 
L 190.398392 152.822582 
L 188.647893 153.800683 
L 188.603819 153.825231 
L 186.809246 154.843343 
L 186.304964 155.13793 
L 185.014673 155.890832 
L 184.047663 156.475176 
L 183.220101 156.977611 
L 181.897268 157.812422 
L 181.425528 158.114081 
L 179.870094 159.149668 
L 179.630955 159.31278 
L 177.97659 160.486915 
L 177.836382 160.590207 
L 176.221926 161.824161 
L 176.041809 161.969212 
L 174.607549 163.161407 
L 174.247236 163.482157 
L 173.13322 164.498653 
L 172.452663 165.175249 
L 171.798925 165.835899 
L 170.65809 167.114541 
L 170.606177 167.173146 
L 169.585018 168.510392 
L 168.863518 169.622548 
L 168.716326 169.847638 
L 168.035618 171.184884 
L 167.53114 172.522131 
L 167.210908 173.859377 
L 167.068945 175.14143 
L 167.062666 175.196623 
L 167.044396 176.533869 
L 167.068945 177.226674 
L 167.091188 177.871116 
L 167.129293 179.208362 
L 167.101796 180.545608 
L 167.068945 180.8889 
L 166.970177 181.882854 
L 166.723854 183.220101 
L 166.380053 184.557347 
L 165.96553 185.894593 
L 165.512377 187.231839 
L 165.274372 187.922859 
L 165.034722 188.569085 
L 164.568733 189.906332 
L 164.17511 191.243578 
L 163.891536 192.580824 
L 163.750825 193.91807 
L 163.774954 195.255317 
L 163.968921 196.592563 
L 164.317842 197.929809 
L 164.789955 199.267055 
L 165.274372 200.433004 
L 165.341399 200.604302 
L 165.920548 201.941548 
L 166.543964 203.278794 
L 167.068945 204.339094 
L 167.215958 204.61604 
L 167.98997 205.953286 
L 168.863518 207.240612 
L 168.90419 207.290533 
L 170.166827 208.627779 
L 170.65809 209.060064 
L 171.953985 209.965025 
L 172.452663 210.267388 
L 174.247236 211.19309 
L 174.472782 211.302271 
L 176.041809 212.016683 
L 177.35539 212.639518 
L 177.836382 212.854755 
L 179.630955 213.711278 
L 180.168527 213.976764 
L 181.425528 214.535671 
L 183.220101 215.267834 
L 183.350754 215.31401 
L 185.014673 215.83048 
z
" clip-path="url(#p9359a168a6)" style="fill: none; stroke: #4c72b0; stroke-width: 1.5"/>
   </g>
   <g id="PathCollection_5">
    <path d="M 192.192965 211.493099 
L 193.987538 211.705657 
L 195.782111 211.736672 
L 197.576683 211.621725 
L 199.371256 211.386855 
L 199.810325 211.302271 
L 201.165829 211.044835 
L 202.960402 210.61907 
L 204.754975 210.119159 
L 205.238714 209.965025 
L 206.549548 209.55106 
L 208.344121 208.927898 
L 209.142274 208.627779 
L 210.138693 208.254898 
L 211.933266 207.543113 
L 212.541868 207.290533 
L 213.727839 206.800368 
L 215.522412 206.031797 
L 215.702386 205.953286 
L 217.316985 205.253939 
L 218.757468 204.61604 
L 219.111558 204.460624 
L 220.906131 203.66911 
L 221.778978 203.278794 
L 222.700704 202.872989 
L 224.495276 202.072435 
L 224.784468 201.941548 
L 226.289849 201.274854 
L 227.762267 200.604302 
L 228.084422 200.460783 
L 229.878995 199.639768 
L 230.661094 199.267055 
L 231.673568 198.7955 
L 233.444224 197.929809 
L 233.468141 197.918336 
L 235.262714 197.015365 
L 236.055469 196.592563 
L 237.057286 196.065571 
L 238.507659 195.255317 
L 238.851859 195.064331 
L 240.646432 194.008036 
L 240.790986 193.91807 
L 242.441005 192.889233 
L 242.908776 192.580824 
L 244.235578 191.697738 
L 244.883732 191.243578 
L 246.030151 190.426849 
L 246.728111 189.906332 
L 247.824724 189.069478 
L 248.455394 188.569085 
L 249.619296 187.618907 
L 250.07888 187.231839 
L 251.413869 186.069801 
L 251.610662 185.894593 
L 253.062203 184.557347 
L 253.208442 184.417923 
L 254.448057 183.220101 
L 255.003015 182.66267 
L 255.776477 181.882854 
L 256.797588 180.811754 
L 257.052894 180.545608 
L 258.290364 179.208362 
L 258.592161 178.870424 
L 259.498603 177.871116 
L 260.386734 176.852469 
L 260.671543 176.533869 
L 261.824493 175.196623 
L 262.181307 174.767136 
L 262.96025 173.859377 
L 263.975879 172.622996 
L 264.062062 172.522131 
L 265.161198 171.184884 
L 265.770452 170.40657 
L 266.227237 169.847638 
L 267.265832 168.510392 
L 267.565025 168.104407 
L 268.283111 167.173146 
L 269.250182 165.835899 
L 269.359598 165.675311 
L 270.199952 164.498653 
L 271.085433 163.161407 
L 271.154171 163.049837 
L 271.947712 161.824161 
L 272.742594 160.486915 
L 272.948744 160.106751 
L 273.496183 159.149668 
L 274.186313 157.812422 
L 274.743317 156.599963 
L 274.804066 156.475176 
L 275.361598 155.13793 
L 275.828012 153.800683 
L 276.195249 152.463437 
L 276.454455 151.126191 
L 276.537889 150.344742 
L 276.60168 149.788945 
L 276.636613 148.451698 
L 276.571168 147.114452 
L 276.537889 146.786206 
L 276.4368 145.777206 
L 276.267433 144.43996 
L 276.091506 143.102714 
L 275.924721 141.765467 
L 275.761772 140.428221 
L 275.570827 139.090975 
L 275.283576 137.753729 
L 274.769287 136.416482 
L 274.743317 136.37484 
L 273.670558 135.079236 
L 272.948744 134.593105 
L 271.154171 133.801538 
L 270.962423 133.74199 
L 269.359598 133.36338 
L 267.565025 133.05203 
L 265.770452 132.804942 
L 263.975879 132.590602 
L 262.32015 132.404744 
L 262.181307 132.388278 
L 260.386734 132.166394 
L 258.592161 131.928571 
L 256.797588 131.676218 
L 255.003015 131.419297 
L 253.208442 131.176307 
L 252.242331 131.067497 
L 251.413869 130.960532 
L 249.619296 130.805194 
L 247.824724 130.735141 
L 246.030151 130.748905 
L 244.235578 130.838282 
L 242.441005 130.99429 
L 241.841318 131.067497 
L 240.646432 131.21112 
L 238.851859 131.491481 
L 237.057286 131.839604 
L 235.262714 132.260501 
L 234.754361 132.404744 
L 233.468141 132.765861 
L 231.673568 133.361055 
L 230.684824 133.74199 
L 229.878995 134.048535 
L 228.084422 134.831748 
L 227.582959 135.079236 
L 226.289849 135.710348 
L 224.980313 136.416482 
L 224.495276 136.675704 
L 222.700704 137.725324 
L 222.65587 137.753729 
L 220.906131 138.85883 
L 220.559391 139.090975 
L 219.111558 140.061008 
L 218.587274 140.428221 
L 217.316985 141.321733 
L 216.704563 141.765467 
L 215.522412 142.627921 
L 214.88103 143.102714 
L 213.727839 143.963366 
L 213.089105 144.43996 
L 211.933266 145.309115 
L 211.301985 145.777206 
L 210.138693 146.644709 
L 209.492136 147.114452 
L 208.344121 147.950367 
L 207.630641 148.451698 
L 206.549548 149.20972 
L 205.688098 149.788945 
L 204.754975 150.412279 
L 203.637791 151.126191 
L 202.960402 151.554735 
L 201.461441 152.463437 
L 201.165829 152.640549 
L 199.371256 153.679439 
L 199.156298 153.800683 
L 197.576683 154.683976 
L 196.749029 155.13793 
L 195.782111 155.665994 
L 194.288505 156.475176 
L 193.987538 156.638805 
L 192.192965 157.619684 
L 191.844054 157.812422 
L 190.398392 158.625201 
L 189.480553 159.149668 
L 188.603819 159.667282 
L 187.245536 160.486915 
L 186.809246 160.764022 
L 185.181904 161.824161 
L 185.014673 161.941389 
L 183.320118 163.161407 
L 183.220101 163.240913 
L 181.678385 164.498653 
L 181.425528 164.733305 
L 180.264577 165.835899 
L 179.630955 166.544586 
L 179.079286 167.173146 
L 178.122279 168.510392 
L 177.836382 169.026614 
L 177.386583 169.847638 
L 176.845184 171.184884 
L 176.464748 172.522131 
L 176.196132 173.859377 
L 176.041809 174.819234 
L 175.981287 175.196623 
L 175.766129 176.533869 
L 175.522905 177.871116 
L 175.23273 179.208362 
L 174.889861 180.545608 
L 174.498116 181.882854 
L 174.247236 182.652066 
L 174.0585 183.220101 
L 173.584857 184.557347 
L 173.110695 185.894593 
L 172.65675 187.231839 
L 172.452663 187.896195 
L 172.236958 188.569085 
L 171.881814 189.906332 
L 171.624148 191.243578 
L 171.48608 192.580824 
L 171.487514 193.91807 
L 171.645291 195.255317 
L 171.972874 196.592563 
L 172.452663 197.859219 
L 172.482589 197.929809 
L 173.238952 199.267055 
L 174.247236 200.604302 
L 174.247236 200.604302 
L 175.744252 201.941548 
L 176.041809 202.171864 
L 177.836382 203.23864 
L 177.920715 203.278794 
L 179.630955 204.097513 
L 180.767452 204.61604 
L 181.425528 204.944293 
L 183.163088 205.953286 
L 183.220101 205.990461 
L 184.865432 207.290533 
L 185.014673 207.412081 
L 186.367567 208.627779 
L 186.809246 208.972851 
L 188.161279 209.965025 
L 188.603819 210.216922 
L 190.398392 211.021262 
L 191.36014 211.302271 
L 192.192965 211.493099 
z
" clip-path="url(#p9359a168a6)" style="fill: none; stroke: #4c72b0; stroke-width: 1.5"/>
   </g>
   <g id="PathCollection_6">
    <path d="M 197.576683 206.309275 
L 199.371256 206.598799 
L 201.165829 206.596817 
L 202.960402 206.395642 
L 204.754975 206.053414 
L 205.134734 205.953286 
L 206.549548 205.573559 
L 208.344121 205.014443 
L 209.484135 204.61604 
L 210.138693 204.384446 
L 211.933266 203.695511 
L 212.964165 203.278794 
L 213.727839 202.968261 
L 215.522412 202.215053 
L 216.157492 201.941548 
L 217.316985 201.442501 
L 219.111558 200.667986 
L 219.257127 200.604302 
L 220.906131 199.887434 
L 222.338328 199.267055 
L 222.700704 199.111169 
L 224.495276 198.336592 
L 225.430684 197.929809 
L 226.289849 197.559438 
L 228.084422 196.776527 
L 228.495539 196.592563 
L 229.878995 195.978409 
L 231.458553 195.255317 
L 231.673568 195.157161 
L 233.468141 194.304233 
L 234.241923 193.91807 
L 235.262714 193.407723 
L 236.830282 192.580824 
L 237.057286 192.460055 
L 238.851859 191.449631 
L 239.196884 191.243578 
L 240.646432 190.365343 
L 241.361303 189.906332 
L 242.441005 189.19877 
L 243.350095 188.569085 
L 244.235578 187.939912 
L 245.182322 187.231839 
L 246.030151 186.578751 
L 246.87852 185.894593 
L 247.824724 185.106369 
L 248.45835 184.557347 
L 249.619296 183.516198 
L 249.93909 183.220101 
L 251.333109 181.882854 
L 251.413869 181.80275 
L 252.649954 180.545608 
L 253.208442 179.957981 
L 253.909406 179.208362 
L 255.003015 177.998414 
L 255.117289 177.871116 
L 256.279418 176.533869 
L 256.797588 175.918731 
L 257.406231 175.196623 
L 258.496581 173.859377 
L 258.592161 173.738662 
L 259.562922 172.522131 
L 260.386734 171.451187 
L 260.595192 171.184884 
L 261.603154 169.847638 
L 262.181307 169.046507 
L 262.577709 168.510392 
L 263.518116 167.173146 
L 263.975879 166.484454 
L 264.42066 165.835899 
L 265.277655 164.498653 
L 265.770452 163.668295 
L 266.083201 163.161407 
L 266.834304 161.824161 
L 267.510952 160.486915 
L 267.565025 160.363759 
L 268.124611 159.149668 
L 268.648266 157.812422 
L 269.074884 156.475176 
L 269.359598 155.287533 
L 269.397654 155.13793 
L 269.611612 153.800683 
L 269.708475 152.463437 
L 269.693754 151.126191 
L 269.582049 149.788945 
L 269.395518 148.451698 
L 269.359598 148.246267 
L 269.165215 147.114452 
L 268.901151 145.777206 
L 268.596828 144.43996 
L 268.222056 143.102714 
L 267.712996 141.765467 
L 267.565025 141.482689 
L 266.936995 140.428221 
L 265.770452 139.20136 
L 265.635913 139.090975 
L 263.975879 138.141046 
L 262.969404 137.753729 
L 262.181307 137.512602 
L 260.386734 137.130484 
L 258.592161 136.890957 
L 256.797588 136.754005 
L 255.003015 136.693305 
L 253.208442 136.691902 
L 251.413869 136.73957 
L 249.619296 136.830966 
L 247.824724 136.964107 
L 246.030151 137.138999 
L 244.235578 137.356491 
L 242.441005 137.617588 
L 241.621659 137.753729 
L 240.646432 137.908397 
L 238.851859 138.232968 
L 237.057286 138.609346 
L 235.262714 139.044276 
L 235.090116 139.090975 
L 233.468141 139.516752 
L 231.673568 140.067664 
L 230.652844 140.428221 
L 229.878995 140.695754 
L 228.084422 141.411366 
L 227.30705 141.765467 
L 226.289849 142.222933 
L 224.575721 143.102714 
L 224.495276 143.14361 
L 222.700704 144.159033 
L 222.249622 144.43996 
L 220.906131 145.273924 
L 220.15699 145.777206 
L 219.111558 146.477446 
L 218.216048 147.114452 
L 217.316985 147.751413 
L 216.368271 148.451698 
L 215.522412 149.072305 
L 214.56712 149.788945 
L 213.727839 150.413288 
L 212.773592 151.126191 
L 211.933266 151.747481 
L 210.953041 152.463437 
L 210.138693 153.051513 
L 209.073551 153.800683 
L 208.344121 154.308286 
L 207.10643 155.13793 
L 206.549548 155.508285 
L 205.029642 156.475176 
L 204.754975 156.649423 
L 202.960402 157.734743 
L 202.825967 157.812422 
L 201.165829 158.775358 
L 200.498628 159.149668 
L 199.371256 159.791557 
L 198.125868 160.486915 
L 197.576683 160.802371 
L 195.793265 161.824161 
L 195.782111 161.830842 
L 193.987538 162.918438 
L 193.59685 163.161407 
L 192.192965 164.097347 
L 191.613648 164.498653 
L 190.398392 165.422317 
L 189.879097 165.835899 
L 188.603819 166.979559 
L 188.398664 167.173146 
L 187.160211 168.510392 
L 186.809246 168.949859 
L 186.130964 169.847638 
L 185.272963 171.184884 
L 185.014673 171.642511 
L 184.543772 172.522131 
L 183.904303 173.859377 
L 183.320831 175.196623 
L 183.220101 175.429521 
L 182.762079 176.533869 
L 182.214714 177.871116 
L 181.668821 179.208362 
L 181.425528 179.792231 
L 181.118773 180.545608 
L 180.571681 181.882854 
L 180.037002 183.220101 
L 179.630955 184.283103 
L 179.526436 184.557347 
L 179.062661 185.894593 
L 178.666898 187.231839 
L 178.364325 188.569085 
L 178.186971 189.906332 
L 178.176596 191.243578 
L 178.388693 192.580824 
L 178.897172 193.91807 
L 179.630955 195.030395 
L 179.826809 195.255317 
L 181.425528 196.52587 
L 181.546885 196.592563 
L 183.220101 197.359072 
L 185.014673 197.929809 
L 185.014673 197.929809 
L 186.809246 198.414263 
L 188.603819 198.928616 
L 189.548942 199.267055 
L 190.398392 199.673899 
L 191.756515 200.604302 
L 192.192965 201.046931 
L 192.899196 201.941548 
L 193.757738 203.278794 
L 193.987538 203.607143 
L 194.764362 204.61604 
L 195.782111 205.48854 
L 196.600898 205.953286 
L 197.576683 206.309275 
z
" clip-path="url(#p9359a168a6)" style="fill: none; stroke: #4c72b0; stroke-width: 1.5"/>
   </g>
   <g id="PathCollection_7">
    <path d="M 208.344121 199.300175 
L 208.673039 199.267055 
L 210.138693 199.118068 
L 211.933266 198.732966 
L 213.727839 198.251398 
L 214.751528 197.929809 
L 215.522412 197.687802 
L 217.316985 197.065597 
L 218.640018 196.592563 
L 219.111558 196.424232 
L 220.906131 195.746642 
L 222.199636 195.255317 
L 222.700704 195.064666 
L 224.495276 194.35847 
L 225.599521 193.91807 
L 226.289849 193.640809 
L 228.084422 192.899623 
L 228.830792 192.580824 
L 229.878995 192.127313 
L 231.673568 191.325981 
L 231.848083 191.243578 
L 233.468141 190.464576 
L 234.576689 189.906332 
L 235.262714 189.552654 
L 237.057286 188.576612 
L 237.070252 188.569085 
L 238.851859 187.506689 
L 239.286539 187.231839 
L 240.646432 186.345895 
L 241.299564 185.894593 
L 242.441005 185.080718 
L 243.13408 184.557347 
L 244.235578 183.698829 
L 244.817267 183.220101 
L 246.030151 182.190616 
L 246.375023 181.882854 
L 247.824724 180.550391 
L 247.829701 180.545608 
L 249.176767 179.208362 
L 249.619296 178.758767 
L 250.457567 177.871116 
L 251.413869 176.835815 
L 251.683569 176.533869 
L 252.848207 175.196623 
L 253.208442 174.7741 
L 253.966616 173.859377 
L 255.003015 172.580979 
L 255.049856 172.522131 
L 256.081061 171.184884 
L 256.797588 170.22808 
L 257.079482 169.847638 
L 258.028471 168.510392 
L 258.592161 167.678162 
L 258.933658 167.173146 
L 259.780042 165.835899 
L 260.386734 164.805695 
L 260.569044 164.498653 
L 261.281193 163.161407 
L 261.916253 161.824161 
L 262.181307 161.16525 
L 262.459076 160.486915 
L 262.895925 159.149668 
L 263.222557 157.812422 
L 263.432106 156.475176 
L 263.523428 155.13793 
L 263.504914 153.800683 
L 263.394665 152.463437 
L 263.21516 151.126191 
L 262.983964 149.788945 
L 262.704303 148.451698 
L 262.357957 147.114452 
L 262.181307 146.585965 
L 261.88749 145.777206 
L 261.184524 144.43996 
L 260.386734 143.444383 
L 260.02826 143.102714 
L 258.592161 142.1735 
L 257.570875 141.765467 
L 256.797588 141.528921 
L 255.003015 141.221126 
L 253.208442 141.107992 
L 251.413869 141.133831 
L 249.619296 141.26335 
L 247.824724 141.474794 
L 246.030151 141.7553 
L 245.975287 141.765467 
L 244.235578 142.080402 
L 242.441005 142.451783 
L 240.646432 142.871189 
L 239.745445 143.102714 
L 238.851859 143.326757 
L 237.057286 143.816595 
L 235.262714 144.365574 
L 235.037708 144.43996 
L 233.468141 144.946683 
L 231.673568 145.601232 
L 231.235098 145.777206 
L 229.878995 146.310629 
L 228.085191 147.114452 
L 228.084422 147.114791 
L 226.289849 147.977446 
L 225.410317 148.451698 
L 224.495276 148.938602 
L 223.048864 149.788945 
L 222.700704 149.991528 
L 220.906131 151.126191 
L 220.906131 151.126191 
L 219.111558 152.319933 
L 218.906772 152.463437 
L 217.316985 153.572328 
L 217.000258 153.800683 
L 215.522412 154.865318 
L 215.149428 155.13793 
L 213.727839 156.180996 
L 213.325588 156.475176 
L 211.933266 157.503124 
L 211.506114 157.812422 
L 210.138693 158.818476 
L 209.67337 159.149668 
L 208.344121 160.117983 
L 207.815205 160.486915 
L 206.549548 161.397739 
L 205.9272 161.824161 
L 204.754975 162.659998 
L 204.016412 163.161407 
L 202.960402 163.914305 
L 202.105055 164.498653 
L 201.165829 165.178898 
L 200.230956 165.835899 
L 199.371256 166.482541 
L 198.441339 167.173146 
L 197.576683 167.866802 
L 196.779977 168.510392 
L 195.782111 169.388524 
L 195.273679 169.847638 
L 193.987538 171.121566 
L 193.926188 171.184884 
L 192.721491 172.522131 
L 192.192965 173.162112 
L 191.644655 173.859377 
L 190.670031 175.196623 
L 190.398392 175.591673 
L 189.780918 176.533869 
L 188.960063 177.871116 
L 188.603819 178.486834 
L 188.202718 179.208362 
L 187.510541 180.545608 
L 186.877839 181.882854 
L 186.809246 182.05065 
L 186.341394 183.220101 
L 185.909485 184.557347 
L 185.613808 185.894593 
L 185.511319 187.231839 
L 185.696381 188.569085 
L 186.325551 189.906332 
L 186.809246 190.449447 
L 187.877476 191.243578 
L 188.603819 191.605938 
L 190.398392 192.166605 
L 192.192965 192.493198 
L 192.938995 192.580824 
L 193.987538 192.703746 
L 195.782111 192.890079 
L 197.576683 193.127819 
L 199.371256 193.512506 
L 200.531579 193.91807 
L 201.165829 194.256348 
L 202.454759 195.255317 
L 202.960402 195.867034 
L 203.526061 196.592563 
L 204.555693 197.929809 
L 204.754975 198.12355 
L 206.549548 199.100711 
L 207.899477 199.267055 
L 208.344121 199.300175 
z
" clip-path="url(#p9359a168a6)" style="fill: none; stroke: #4c72b0; stroke-width: 1.5"/>
   </g>
   <g id="PathCollection_8">
    <path d="M 219.111558 190.126897 
L 220.906131 190.058759 
L 221.919373 189.906332 
L 222.700704 189.788481 
L 224.495276 189.362824 
L 226.289849 188.857832 
L 227.163281 188.569085 
L 228.084422 188.25832 
L 229.878995 187.578527 
L 230.70911 187.231839 
L 231.673568 186.818236 
L 233.468141 185.985807 
L 233.645924 185.894593 
L 235.262714 185.040658 
L 236.113262 184.557347 
L 237.057286 184.00612 
L 238.302448 183.220101 
L 238.851859 182.86491 
L 240.253865 181.882854 
L 240.646432 181.602424 
L 242.011965 180.545608 
L 242.441005 180.208415 
L 243.61795 179.208362 
L 244.235578 178.677268 
L 245.106057 177.871116 
L 246.030151 177.006879 
L 246.502323 176.533869 
L 247.824724 175.196623 
L 247.824724 175.196623 
L 249.036196 173.859377 
L 249.619296 173.208323 
L 250.199523 172.522131 
L 251.307624 171.184884 
L 251.413869 171.051068 
L 252.322505 169.847638 
L 253.208442 168.635539 
L 253.296399 168.510392 
L 254.164396 167.173146 
L 254.979682 165.835899 
L 255.003015 165.792034 
L 255.669751 164.498653 
L 256.272068 163.161407 
L 256.771976 161.824161 
L 256.797588 161.729736 
L 257.126532 160.486915 
L 257.358817 159.149668 
L 257.471006 157.812422 
L 257.474319 156.475176 
L 257.388786 155.13793 
L 257.235057 153.800683 
L 257.023449 152.463437 
L 256.797588 151.377268 
L 256.740997 151.126191 
L 256.323453 149.788945 
L 255.685005 148.451698 
L 255.003015 147.53762 
L 254.559878 147.114452 
L 253.208442 146.283052 
L 251.589991 145.777206 
L 251.413869 145.736946 
L 249.619296 145.577849 
L 247.824724 145.620232 
L 246.291868 145.777206 
L 246.030151 145.804192 
L 244.235578 146.09934 
L 242.441005 146.465993 
L 240.646432 146.893182 
L 239.828583 147.114452 
L 238.851859 147.378059 
L 237.057286 147.910716 
L 235.403844 148.451698 
L 235.262714 148.497755 
L 233.468141 149.134569 
L 231.797847 149.788945 
L 231.673568 149.837561 
L 229.878995 150.600576 
L 228.75881 151.126191 
L 228.084422 151.44291 
L 226.289849 152.363908 
L 226.110753 152.463437 
L 224.495276 153.364863 
L 223.771753 153.800683 
L 222.700704 154.452895 
L 221.642921 155.13793 
L 220.906131 155.62385 
L 219.672404 156.475176 
L 219.111558 156.872277 
L 217.820579 157.812422 
L 217.316985 158.19152 
L 216.05785 159.149668 
L 215.522412 159.573762 
L 214.362499 160.486915 
L 213.727839 161.010132 
L 212.718818 161.824161 
L 211.933266 162.491121 
L 211.11567 163.161407 
L 210.138693 164.007543 
L 209.545509 164.498653 
L 208.344121 165.552259 
L 208.003898 165.835899 
L 206.549548 167.122636 
L 206.489489 167.173146 
L 204.998568 168.510392 
L 204.754975 168.74239 
L 203.545008 169.847638 
L 202.960402 170.414189 
L 202.142134 171.184884 
L 201.165829 172.162033 
L 200.801663 172.522131 
L 199.538717 173.859377 
L 199.371256 174.05034 
L 198.376228 175.196623 
L 197.576683 176.188806 
L 197.304935 176.533869 
L 196.36747 177.871116 
L 195.782111 178.818268 
L 195.548766 179.208362 
L 194.922691 180.545608 
L 194.493376 181.882854 
L 194.376054 183.220101 
L 194.824413 184.557347 
L 195.782111 185.452736 
L 196.759719 185.894593 
L 197.576683 186.118696 
L 199.371256 186.317725 
L 201.165829 186.337708 
L 202.960402 186.268271 
L 204.754975 186.172022 
L 206.549548 186.10769 
L 208.344121 186.147505 
L 210.138693 186.39017 
L 211.933266 186.955053 
L 212.501894 187.231839 
L 213.727839 187.974565 
L 214.620352 188.569085 
L 215.522412 189.139677 
L 217.316985 189.897964 
L 217.362884 189.906332 
L 219.111558 190.126897 
z
" clip-path="url(#p9359a168a6)" style="fill: none; stroke: #4c72b0; stroke-width: 1.5"/>
   </g>
   <g id="PathCollection_9">
    <path d="M 226.289849 179.840565 
L 228.084422 180.201831 
L 229.878995 180.205791 
L 231.673568 179.902713 
L 233.468141 179.370153 
L 233.847751 179.208362 
L 235.262714 178.6138 
L 236.704826 177.871116 
L 237.057286 177.691892 
L 238.851859 176.591992 
L 238.933039 176.533869 
L 240.646432 175.311606 
L 240.788318 175.196623 
L 242.435045 173.859377 
L 242.441005 173.854452 
L 243.86276 172.522131 
L 244.235578 172.165423 
L 245.153323 171.184884 
L 246.030151 170.216502 
L 246.333567 169.847638 
L 247.353173 168.510392 
L 247.824724 167.832116 
L 248.245026 167.173146 
L 248.988537 165.835899 
L 249.619296 164.498653 
L 249.619296 164.498653 
L 250.054765 163.161407 
L 250.362954 161.824161 
L 250.544803 160.486915 
L 250.613164 159.149668 
L 250.584165 157.812422 
L 250.463806 156.475176 
L 250.234466 155.13793 
L 249.840494 153.800683 
L 249.619296 153.337707 
L 249.05505 152.463437 
L 247.824724 151.410521 
L 247.187907 151.126191 
L 246.030151 150.796467 
L 244.235578 150.65119 
L 242.441005 150.74755 
L 240.646432 150.997594 
L 240.030935 151.126191 
L 238.851859 151.379405 
L 237.057286 151.85142 
L 235.262714 152.387921 
L 235.044822 152.463437 
L 233.468141 153.024396 
L 231.673568 153.720056 
L 231.487621 153.800683 
L 229.878995 154.519883 
L 228.601282 155.13793 
L 228.084422 155.398552 
L 226.289849 156.374279 
L 226.117806 156.475176 
L 224.495276 157.470817 
L 223.968241 157.812422 
L 222.700704 158.681113 
L 222.043896 159.149668 
L 220.906131 160.016268 
L 220.302826 160.486915 
L 219.111558 161.487212 
L 218.713064 161.824161 
L 217.316985 163.10189 
L 217.251305 163.161407 
L 215.923376 164.498653 
L 215.522412 164.94609 
L 214.697607 165.835899 
L 213.727839 166.982751 
L 213.559089 167.173146 
L 212.543645 168.510392 
L 211.933266 169.409736 
L 211.616152 169.847638 
L 210.832326 171.184884 
L 210.174719 172.522131 
L 210.138693 172.680512 
L 209.843933 173.859377 
L 210.076433 175.196623 
L 210.138693 175.269297 
L 211.933266 176.231954 
L 213.490021 176.533869 
L 213.727839 176.564656 
L 215.522412 176.754396 
L 217.316985 176.978598 
L 219.111558 177.30187 
L 220.906131 177.763948 
L 221.238113 177.871116 
L 222.700704 178.418109 
L 224.495276 179.168639 
L 224.601868 179.208362 
L 226.289849 179.840565 
z
" clip-path="url(#p9359a168a6)" style="fill: none; stroke: #4c72b0; stroke-width: 1.5"/>
   </g>
   <g id="PathCollection_10"/>
   <g id="patch_3">
    <path d="M 57.6 307.584 
L 57.6 41.472 
" style="fill: none; stroke: #ffffff; stroke-width: 1.25; stroke-linejoin: miter; stroke-linecap: square"/>
   </g>
   <g id="patch_4">
    <path d="M 414.72 307.584 
L 414.72 41.472 
" style="fill: none; stroke: #ffffff; stroke-width: 1.25; stroke-linejoin: miter; stroke-linecap: square"/>
   </g>
   <g id="patch_5">
    <path d="M 57.6 307.584 
L 414.72 307.584 
" style="fill: none; stroke: #ffffff; stroke-width: 1.25; stroke-linejoin: miter; stroke-linecap: square"/>
   </g>
   <g id="patch_6">
    <path d="M 57.6 41.472 
L 414.72 41.472 
" style="fill: none; stroke: #ffffff; stroke-width: 1.25; stroke-linejoin: miter; stroke-linecap: square"/>
   </g>
  </g>
 </g>
 <defs>
  <clipPath id="p9359a168a6">
   <rect x="57.6" y="41.472" width="357.12" height="266.112"/>
  </clipPath>
 </defs>
</svg>
