<?xml version="1.0" encoding="utf-8" standalone="no"?>
<!DOCTYPE svg PUBLIC "-//W3C//DTD SVG 1.1//EN"
  "http://www.w3.org/Graphics/SVG/1.1/DTD/svg11.dtd">
<svg xmlns:xlink="http://www.w3.org/1999/xlink" width="460.8pt" height="345.6pt" viewBox="0 0 460.8 345.6" xmlns="http://www.w3.org/2000/svg" version="1.1">
 <metadata>
  <rdf:RDF xmlns:dc="http://purl.org/dc/elements/1.1/" xmlns:cc="http://creativecommons.org/ns#" xmlns:rdf="http://www.w3.org/1999/02/22-rdf-syntax-ns#">
   <cc:Work>
    <dc:type rdf:resource="http://purl.org/dc/dcmitype/StillImage"/>
    <dc:date>2023-08-10T22:37:15.391714</dc:date>
    <dc:format>image/svg+xml</dc:format>
    <dc:creator>
     <cc:Agent>
      <dc:title>Matplotlib v3.7.1, https://matplotlib.org/</dc:title>
     </cc:Agent>
    </dc:creator>
   </cc:Work>
  </rdf:RDF>
 </metadata>
 <defs>
  <style type="text/css">*{stroke-linejoin: round; stroke-linecap: butt}</style>
 </defs>
 <g id="figure_1">
  <g id="patch_1">
   <path d="M 0 345.6 
L 460.8 345.6 
L 460.8 0 
L 0 0 
z
" style="fill: #ffffff"/>
  </g>
  <g id="axes_1">
   <g id="patch_2">
    <path d="M 57.6 307.584 
L 414.72 307.584 
L 414.72 41.472 
L 57.6 41.472 
z
" style="fill: #eaeaf2"/>
   </g>
   <g id="matplotlib.axis_1">
    <g id="xtick_1">
     <g id="line2d_1">
      <path d="M 99.271148 307.584 
L 99.271148 41.472 
" clip-path="url(#pa6b998b6aa)" style="fill: none; stroke: #ffffff; stroke-linecap: round"/>
     </g>
     <g id="text_1">
      <!-- −7.5 -->
      <g style="fill: #262626" transform="translate(85.915602 325.442281) scale(0.11 -0.11)">
       <defs>
        <path id="DejaVuSans-2212" d="M 678 2272 
L 4684 2272 
L 4684 1741 
L 678 1741 
L 678 2272 
z
" transform="scale(0.015625)"/>
        <path id="DejaVuSans-37" d="M 525 4666 
L 3525 4666 
L 3525 4397 
L 1831 0 
L 1172 0 
L 2766 4134 
L 525 4134 
L 525 4666 
z
" transform="scale(0.015625)"/>
        <path id="DejaVuSans-2e" d="M 684 794 
L 1344 794 
L 1344 0 
L 684 0 
L 684 794 
z
" transform="scale(0.015625)"/>
        <path id="DejaVuSans-35" d="M 691 4666 
L 3169 4666 
L 3169 4134 
L 1269 4134 
L 1269 2991 
Q 1406 3038 1543 3061 
Q 1681 3084 1819 3084 
Q 2600 3084 3056 2656 
Q 3513 2228 3513 1497 
Q 3513 744 3044 326 
Q 2575 -91 1722 -91 
Q 1428 -91 1123 -41 
Q 819 9 494 109 
L 494 744 
Q 775 591 1075 516 
Q 1375 441 1709 441 
Q 2250 441 2565 725 
Q 2881 1009 2881 1497 
Q 2881 1984 2565 2268 
Q 2250 2553 1709 2553 
Q 1456 2553 1204 2497 
Q 953 2441 691 2322 
L 691 4666 
z
" transform="scale(0.015625)"/>
       </defs>
       <use xlink:href="#DejaVuSans-2212"/>
       <use xlink:href="#DejaVuSans-37" x="83.789062"/>
       <use xlink:href="#DejaVuSans-2e" x="147.412109"/>
       <use xlink:href="#DejaVuSans-35" x="179.199219"/>
      </g>
     </g>
    </g>
    <g id="xtick_2">
     <g id="line2d_2">
      <path d="M 146.964652 307.584 
L 146.964652 41.472 
" clip-path="url(#pa6b998b6aa)" style="fill: none; stroke: #ffffff; stroke-linecap: round"/>
     </g>
     <g id="text_2">
      <!-- −5.0 -->
      <g style="fill: #262626" transform="translate(133.609105 325.442281) scale(0.11 -0.11)">
       <defs>
        <path id="DejaVuSans-30" d="M 2034 4250 
Q 1547 4250 1301 3770 
Q 1056 3291 1056 2328 
Q 1056 1369 1301 889 
Q 1547 409 2034 409 
Q 2525 409 2770 889 
Q 3016 1369 3016 2328 
Q 3016 3291 2770 3770 
Q 2525 4250 2034 4250 
z
M 2034 4750 
Q 2819 4750 3233 4129 
Q 3647 3509 3647 2328 
Q 3647 1150 3233 529 
Q 2819 -91 2034 -91 
Q 1250 -91 836 529 
Q 422 1150 422 2328 
Q 422 3509 836 4129 
Q 1250 4750 2034 4750 
z
" transform="scale(0.015625)"/>
       </defs>
       <use xlink:href="#DejaVuSans-2212"/>
       <use xlink:href="#DejaVuSans-35" x="83.789062"/>
       <use xlink:href="#DejaVuSans-2e" x="147.412109"/>
       <use xlink:href="#DejaVuSans-30" x="179.199219"/>
      </g>
     </g>
    </g>
    <g id="xtick_3">
     <g id="line2d_3">
      <path d="M 194.658156 307.584 
L 194.658156 41.472 
" clip-path="url(#pa6b998b6aa)" style="fill: none; stroke: #ffffff; stroke-linecap: round"/>
     </g>
     <g id="text_3">
      <!-- −2.5 -->
      <g style="fill: #262626" transform="translate(181.302609 325.442281) scale(0.11 -0.11)">
       <defs>
        <path id="DejaVuSans-32" d="M 1228 531 
L 3431 531 
L 3431 0 
L 469 0 
L 469 531 
Q 828 903 1448 1529 
Q 2069 2156 2228 2338 
Q 2531 2678 2651 2914 
Q 2772 3150 2772 3378 
Q 2772 3750 2511 3984 
Q 2250 4219 1831 4219 
Q 1534 4219 1204 4116 
Q 875 4013 500 3803 
L 500 4441 
Q 881 4594 1212 4672 
Q 1544 4750 1819 4750 
Q 2544 4750 2975 4387 
Q 3406 4025 3406 3419 
Q 3406 3131 3298 2873 
Q 3191 2616 2906 2266 
Q 2828 2175 2409 1742 
Q 1991 1309 1228 531 
z
" transform="scale(0.015625)"/>
       </defs>
       <use xlink:href="#DejaVuSans-2212"/>
       <use xlink:href="#DejaVuSans-32" x="83.789062"/>
       <use xlink:href="#DejaVuSans-2e" x="147.412109"/>
       <use xlink:href="#DejaVuSans-35" x="179.199219"/>
      </g>
     </g>
    </g>
    <g id="xtick_4">
     <g id="line2d_4">
      <path d="M 242.35166 307.584 
L 242.35166 41.472 
" clip-path="url(#pa6b998b6aa)" style="fill: none; stroke: #ffffff; stroke-linecap: round"/>
     </g>
     <g id="text_4">
      <!-- 0.0 -->
      <g style="fill: #262626" transform="translate(233.604941 325.442281) scale(0.11 -0.11)">
       <use xlink:href="#DejaVuSans-30"/>
       <use xlink:href="#DejaVuSans-2e" x="63.623047"/>
       <use xlink:href="#DejaVuSans-30" x="95.410156"/>
      </g>
     </g>
    </g>
    <g id="xtick_5">
     <g id="line2d_5">
      <path d="M 290.045163 307.584 
L 290.045163 41.472 
" clip-path="url(#pa6b998b6aa)" style="fill: none; stroke: #ffffff; stroke-linecap: round"/>
     </g>
     <g id="text_5">
      <!-- 2.5 -->
      <g style="fill: #262626" transform="translate(281.298445 325.442281) scale(0.11 -0.11)">
       <use xlink:href="#DejaVuSans-32"/>
       <use xlink:href="#DejaVuSans-2e" x="63.623047"/>
       <use xlink:href="#DejaVuSans-35" x="95.410156"/>
      </g>
     </g>
    </g>
    <g id="xtick_6">
     <g id="line2d_6">
      <path d="M 337.738667 307.584 
L 337.738667 41.472 
" clip-path="url(#pa6b998b6aa)" style="fill: none; stroke: #ffffff; stroke-linecap: round"/>
     </g>
     <g id="text_6">
      <!-- 5.0 -->
      <g style="fill: #262626" transform="translate(328.991948 325.442281) scale(0.11 -0.11)">
       <use xlink:href="#DejaVuSans-35"/>
       <use xlink:href="#DejaVuSans-2e" x="63.623047"/>
       <use xlink:href="#DejaVuSans-30" x="95.410156"/>
      </g>
     </g>
    </g>
    <g id="xtick_7">
     <g id="line2d_7">
      <path d="M 385.432171 307.584 
L 385.432171 41.472 
" clip-path="url(#pa6b998b6aa)" style="fill: none; stroke: #ffffff; stroke-linecap: round"/>
     </g>
     <g id="text_7">
      <!-- 7.5 -->
      <g style="fill: #262626" transform="translate(376.685452 325.442281) scale(0.11 -0.11)">
       <use xlink:href="#DejaVuSans-37"/>
       <use xlink:href="#DejaVuSans-2e" x="63.623047"/>
       <use xlink:href="#DejaVuSans-35" x="95.410156"/>
      </g>
     </g>
    </g>
   </g>
   <g id="matplotlib.axis_2">
    <g id="ytick_1">
     <g id="line2d_8">
      <path d="M 57.6 307.584 
L 414.72 307.584 
" clip-path="url(#pa6b998b6aa)" style="fill: none; stroke: #ffffff; stroke-linecap: round"/>
     </g>
     <g id="text_8">
      <!-- 0.00 -->
      <g style="fill: #262626" transform="translate(23.607813 311.763141) scale(0.11 -0.11)">
       <use xlink:href="#DejaVuSans-30"/>
       <use xlink:href="#DejaVuSans-2e" x="63.623047"/>
       <use xlink:href="#DejaVuSans-30" x="95.410156"/>
       <use xlink:href="#DejaVuSans-30" x="159.033203"/>
      </g>
     </g>
    </g>
    <g id="ytick_2">
     <g id="line2d_9">
      <path d="M 57.6 270.51108 
L 414.72 270.51108 
" clip-path="url(#pa6b998b6aa)" style="fill: none; stroke: #ffffff; stroke-linecap: round"/>
     </g>
     <g id="text_9">
      <!-- 0.02 -->
      <g style="fill: #262626" transform="translate(23.607813 274.69022) scale(0.11 -0.11)">
       <use xlink:href="#DejaVuSans-30"/>
       <use xlink:href="#DejaVuSans-2e" x="63.623047"/>
       <use xlink:href="#DejaVuSans-30" x="95.410156"/>
       <use xlink:href="#DejaVuSans-32" x="159.033203"/>
      </g>
     </g>
    </g>
    <g id="ytick_3">
     <g id="line2d_10">
      <path d="M 57.6 233.43816 
L 414.72 233.43816 
" clip-path="url(#pa6b998b6aa)" style="fill: none; stroke: #ffffff; stroke-linecap: round"/>
     </g>
     <g id="text_10">
      <!-- 0.04 -->
      <g style="fill: #262626" transform="translate(23.607813 237.6173) scale(0.11 -0.11)">
       <defs>
        <path id="DejaVuSans-34" d="M 2419 4116 
L 825 1625 
L 2419 1625 
L 2419 4116 
z
M 2253 4666 
L 3047 4666 
L 3047 1625 
L 3713 1625 
L 3713 1100 
L 3047 1100 
L 3047 0 
L 2419 0 
L 2419 1100 
L 313 1100 
L 313 1709 
L 2253 4666 
z
" transform="scale(0.015625)"/>
       </defs>
       <use xlink:href="#DejaVuSans-30"/>
       <use xlink:href="#DejaVuSans-2e" x="63.623047"/>
       <use xlink:href="#DejaVuSans-30" x="95.410156"/>
       <use xlink:href="#DejaVuSans-34" x="159.033203"/>
      </g>
     </g>
    </g>
    <g id="ytick_4">
     <g id="line2d_11">
      <path d="M 57.6 196.365239 
L 414.72 196.365239 
" clip-path="url(#pa6b998b6aa)" style="fill: none; stroke: #ffffff; stroke-linecap: round"/>
     </g>
     <g id="text_11">
      <!-- 0.06 -->
      <g style="fill: #262626" transform="translate(23.607813 200.54438) scale(0.11 -0.11)">
       <defs>
        <path id="DejaVuSans-36" d="M 2113 2584 
Q 1688 2584 1439 2293 
Q 1191 2003 1191 1497 
Q 1191 994 1439 701 
Q 1688 409 2113 409 
Q 2538 409 2786 701 
Q 3034 994 3034 1497 
Q 3034 2003 2786 2293 
Q 2538 2584 2113 2584 
z
M 3366 4563 
L 3366 3988 
Q 3128 4100 2886 4159 
Q 2644 4219 2406 4219 
Q 1781 4219 1451 3797 
Q 1122 3375 1075 2522 
Q 1259 2794 1537 2939 
Q 1816 3084 2150 3084 
Q 2853 3084 3261 2657 
Q 3669 2231 3669 1497 
Q 3669 778 3244 343 
Q 2819 -91 2113 -91 
Q 1303 -91 875 529 
Q 447 1150 447 2328 
Q 447 3434 972 4092 
Q 1497 4750 2381 4750 
Q 2619 4750 2861 4703 
Q 3103 4656 3366 4563 
z
" transform="scale(0.015625)"/>
       </defs>
       <use xlink:href="#DejaVuSans-30"/>
       <use xlink:href="#DejaVuSans-2e" x="63.623047"/>
       <use xlink:href="#DejaVuSans-30" x="95.410156"/>
       <use xlink:href="#DejaVuSans-36" x="159.033203"/>
      </g>
     </g>
    </g>
    <g id="ytick_5">
     <g id="line2d_12">
      <path d="M 57.6 159.292319 
L 414.72 159.292319 
" clip-path="url(#pa6b998b6aa)" style="fill: none; stroke: #ffffff; stroke-linecap: round"/>
     </g>
     <g id="text_12">
      <!-- 0.08 -->
      <g style="fill: #262626" transform="translate(23.607813 163.47146) scale(0.11 -0.11)">
       <defs>
        <path id="DejaVuSans-38" d="M 2034 2216 
Q 1584 2216 1326 1975 
Q 1069 1734 1069 1313 
Q 1069 891 1326 650 
Q 1584 409 2034 409 
Q 2484 409 2743 651 
Q 3003 894 3003 1313 
Q 3003 1734 2745 1975 
Q 2488 2216 2034 2216 
z
M 1403 2484 
Q 997 2584 770 2862 
Q 544 3141 544 3541 
Q 544 4100 942 4425 
Q 1341 4750 2034 4750 
Q 2731 4750 3128 4425 
Q 3525 4100 3525 3541 
Q 3525 3141 3298 2862 
Q 3072 2584 2669 2484 
Q 3125 2378 3379 2068 
Q 3634 1759 3634 1313 
Q 3634 634 3220 271 
Q 2806 -91 2034 -91 
Q 1263 -91 848 271 
Q 434 634 434 1313 
Q 434 1759 690 2068 
Q 947 2378 1403 2484 
z
M 1172 3481 
Q 1172 3119 1398 2916 
Q 1625 2713 2034 2713 
Q 2441 2713 2670 2916 
Q 2900 3119 2900 3481 
Q 2900 3844 2670 4047 
Q 2441 4250 2034 4250 
Q 1625 4250 1398 4047 
Q 1172 3844 1172 3481 
z
" transform="scale(0.015625)"/>
       </defs>
       <use xlink:href="#DejaVuSans-30"/>
       <use xlink:href="#DejaVuSans-2e" x="63.623047"/>
       <use xlink:href="#DejaVuSans-30" x="95.410156"/>
       <use xlink:href="#DejaVuSans-38" x="159.033203"/>
      </g>
     </g>
    </g>
    <g id="ytick_6">
     <g id="line2d_13">
      <path d="M 57.6 122.219399 
L 414.72 122.219399 
" clip-path="url(#pa6b998b6aa)" style="fill: none; stroke: #ffffff; stroke-linecap: round"/>
     </g>
     <g id="text_13">
      <!-- 0.10 -->
      <g style="fill: #262626" transform="translate(23.607813 126.398539) scale(0.11 -0.11)">
       <defs>
        <path id="DejaVuSans-31" d="M 794 531 
L 1825 531 
L 1825 4091 
L 703 3866 
L 703 4441 
L 1819 4666 
L 2450 4666 
L 2450 531 
L 3481 531 
L 3481 0 
L 794 0 
L 794 531 
z
" transform="scale(0.015625)"/>
       </defs>
       <use xlink:href="#DejaVuSans-30"/>
       <use xlink:href="#DejaVuSans-2e" x="63.623047"/>
       <use xlink:href="#DejaVuSans-31" x="95.410156"/>
       <use xlink:href="#DejaVuSans-30" x="159.033203"/>
      </g>
     </g>
    </g>
    <g id="ytick_7">
     <g id="line2d_14">
      <path d="M 57.6 85.146479 
L 414.72 85.146479 
" clip-path="url(#pa6b998b6aa)" style="fill: none; stroke: #ffffff; stroke-linecap: round"/>
     </g>
     <g id="text_14">
      <!-- 0.12 -->
      <g style="fill: #262626" transform="translate(23.607813 89.325619) scale(0.11 -0.11)">
       <use xlink:href="#DejaVuSans-30"/>
       <use xlink:href="#DejaVuSans-2e" x="63.623047"/>
       <use xlink:href="#DejaVuSans-31" x="95.410156"/>
       <use xlink:href="#DejaVuSans-32" x="159.033203"/>
      </g>
     </g>
    </g>
    <g id="ytick_8">
     <g id="line2d_15">
      <path d="M 57.6 48.073558 
L 414.72 48.073558 
" clip-path="url(#pa6b998b6aa)" style="fill: none; stroke: #ffffff; stroke-linecap: round"/>
     </g>
     <g id="text_15">
      <!-- 0.14 -->
      <g style="fill: #262626" transform="translate(23.607813 52.252699) scale(0.11 -0.11)">
       <use xlink:href="#DejaVuSans-30"/>
       <use xlink:href="#DejaVuSans-2e" x="63.623047"/>
       <use xlink:href="#DejaVuSans-31" x="95.410156"/>
       <use xlink:href="#DejaVuSans-34" x="159.033203"/>
      </g>
     </g>
    </g>
    <g id="text_16">
     <!-- Density -->
     <g style="fill: #262626" transform="translate(17.112187 197.338313) rotate(-90) scale(0.12 -0.12)">
      <defs>
       <path id="DejaVuSans-44" d="M 1259 4147 
L 1259 519 
L 2022 519 
Q 2988 519 3436 956 
Q 3884 1394 3884 2338 
Q 3884 3275 3436 3711 
Q 2988 4147 2022 4147 
L 1259 4147 
z
M 628 4666 
L 1925 4666 
Q 3281 4666 3915 4102 
Q 4550 3538 4550 2338 
Q 4550 1131 3912 565 
Q 3275 0 1925 0 
L 628 0 
L 628 4666 
z
" transform="scale(0.015625)"/>
       <path id="DejaVuSans-65" d="M 3597 1894 
L 3597 1613 
L 953 1613 
Q 991 1019 1311 708 
Q 1631 397 2203 397 
Q 2534 397 2845 478 
Q 3156 559 3463 722 
L 3463 178 
Q 3153 47 2828 -22 
Q 2503 -91 2169 -91 
Q 1331 -91 842 396 
Q 353 884 353 1716 
Q 353 2575 817 3079 
Q 1281 3584 2069 3584 
Q 2775 3584 3186 3129 
Q 3597 2675 3597 1894 
z
M 3022 2063 
Q 3016 2534 2758 2815 
Q 2500 3097 2075 3097 
Q 1594 3097 1305 2825 
Q 1016 2553 972 2059 
L 3022 2063 
z
" transform="scale(0.015625)"/>
       <path id="DejaVuSans-6e" d="M 3513 2113 
L 3513 0 
L 2938 0 
L 2938 2094 
Q 2938 2591 2744 2837 
Q 2550 3084 2163 3084 
Q 1697 3084 1428 2787 
Q 1159 2491 1159 1978 
L 1159 0 
L 581 0 
L 581 3500 
L 1159 3500 
L 1159 2956 
Q 1366 3272 1645 3428 
Q 1925 3584 2291 3584 
Q 2894 3584 3203 3211 
Q 3513 2838 3513 2113 
z
" transform="scale(0.015625)"/>
       <path id="DejaVuSans-73" d="M 2834 3397 
L 2834 2853 
Q 2591 2978 2328 3040 
Q 2066 3103 1784 3103 
Q 1356 3103 1142 2972 
Q 928 2841 928 2578 
Q 928 2378 1081 2264 
Q 1234 2150 1697 2047 
L 1894 2003 
Q 2506 1872 2764 1633 
Q 3022 1394 3022 966 
Q 3022 478 2636 193 
Q 2250 -91 1575 -91 
Q 1294 -91 989 -36 
Q 684 19 347 128 
L 347 722 
Q 666 556 975 473 
Q 1284 391 1588 391 
Q 1994 391 2212 530 
Q 2431 669 2431 922 
Q 2431 1156 2273 1281 
Q 2116 1406 1581 1522 
L 1381 1569 
Q 847 1681 609 1914 
Q 372 2147 372 2553 
Q 372 3047 722 3315 
Q 1072 3584 1716 3584 
Q 2034 3584 2315 3537 
Q 2597 3491 2834 3397 
z
" transform="scale(0.015625)"/>
       <path id="DejaVuSans-69" d="M 603 3500 
L 1178 3500 
L 1178 0 
L 603 0 
L 603 3500 
z
M 603 4863 
L 1178 4863 
L 1178 4134 
L 603 4134 
L 603 4863 
z
" transform="scale(0.015625)"/>
       <path id="DejaVuSans-74" d="M 1172 4494 
L 1172 3500 
L 2356 3500 
L 2356 3053 
L 1172 3053 
L 1172 1153 
Q 1172 725 1289 603 
Q 1406 481 1766 481 
L 2356 481 
L 2356 0 
L 1766 0 
Q 1100 0 847 248 
Q 594 497 594 1153 
L 594 3053 
L 172 3053 
L 172 3500 
L 594 3500 
L 594 4494 
L 1172 4494 
z
" transform="scale(0.015625)"/>
       <path id="DejaVuSans-79" d="M 2059 -325 
Q 1816 -950 1584 -1140 
Q 1353 -1331 966 -1331 
L 506 -1331 
L 506 -850 
L 844 -850 
Q 1081 -850 1212 -737 
Q 1344 -625 1503 -206 
L 1606 56 
L 191 3500 
L 800 3500 
L 1894 763 
L 2988 3500 
L 3597 3500 
L 2059 -325 
z
" transform="scale(0.015625)"/>
      </defs>
      <use xlink:href="#DejaVuSans-44"/>
      <use xlink:href="#DejaVuSans-65" x="77.001953"/>
      <use xlink:href="#DejaVuSans-6e" x="138.525391"/>
      <use xlink:href="#DejaVuSans-73" x="201.904297"/>
      <use xlink:href="#DejaVuSans-69" x="254.003906"/>
      <use xlink:href="#DejaVuSans-74" x="281.787109"/>
      <use xlink:href="#DejaVuSans-79" x="320.996094"/>
     </g>
    </g>
   </g>
   <g id="PolyCollection_1">
    <defs>
     <path id="m728478034b" d="M 131.778995 -38.022884 
L 131.778995 -38.016 
L 132.8667 -38.016 
L 133.954405 -38.016 
L 135.04211 -38.016 
L 136.129815 -38.016 
L 137.21752 -38.016 
L 138.305225 -38.016 
L 139.39293 -38.016 
L 140.480635 -38.016 
L 141.56834 -38.016 
L 142.656044 -38.016 
L 143.743749 -38.016 
L 144.831454 -38.016 
L 145.919159 -38.016 
L 147.006864 -38.016 
L 148.094569 -38.016 
L 149.182274 -38.016 
L 150.269979 -38.016 
L 151.357684 -38.016 
L 152.445389 -38.016 
L 153.533094 -38.016 
L 154.620799 -38.016 
L 155.708504 -38.016 
L 156.796209 -38.016 
L 157.883914 -38.016 
L 158.971619 -38.016 
L 160.059323 -38.016 
L 161.147028 -38.016 
L 162.234733 -38.016 
L 163.322438 -38.016 
L 164.410143 -38.016 
L 165.497848 -38.016 
L 166.585553 -38.016 
L 167.673258 -38.016 
L 168.760963 -38.016 
L 169.848668 -38.016 
L 170.936373 -38.016 
L 172.024078 -38.016 
L 173.111783 -38.016 
L 174.199488 -38.016 
L 175.287193 -38.016 
L 176.374898 -38.016 
L 177.462602 -38.016 
L 178.550307 -38.016 
L 179.638012 -38.016 
L 180.725717 -38.016 
L 181.813422 -38.016 
L 182.901127 -38.016 
L 183.988832 -38.016 
L 185.076537 -38.016 
L 186.164242 -38.016 
L 187.251947 -38.016 
L 188.339652 -38.016 
L 189.427357 -38.016 
L 190.515062 -38.016 
L 191.602767 -38.016 
L 192.690472 -38.016 
L 193.778177 -38.016 
L 194.865881 -38.016 
L 195.953586 -38.016 
L 197.041291 -38.016 
L 198.128996 -38.016 
L 199.216701 -38.016 
L 200.304406 -38.016 
L 201.392111 -38.016 
L 202.479816 -38.016 
L 203.567521 -38.016 
L 204.655226 -38.016 
L 205.742931 -38.016 
L 206.830636 -38.016 
L 207.918341 -38.016 
L 209.006046 -38.016 
L 210.093751 -38.016 
L 211.181456 -38.016 
L 212.269161 -38.016 
L 213.356865 -38.016 
L 214.44457 -38.016 
L 215.532275 -38.016 
L 216.61998 -38.016 
L 217.707685 -38.016 
L 218.79539 -38.016 
L 219.883095 -38.016 
L 220.9708 -38.016 
L 222.058505 -38.016 
L 223.14621 -38.016 
L 224.233915 -38.016 
L 225.32162 -38.016 
L 226.409325 -38.016 
L 227.49703 -38.016 
L 228.584735 -38.016 
L 229.67244 -38.016 
L 230.760144 -38.016 
L 231.847849 -38.016 
L 232.935554 -38.016 
L 234.023259 -38.016 
L 235.110964 -38.016 
L 236.198669 -38.016 
L 237.286374 -38.016 
L 238.374079 -38.016 
L 239.461784 -38.016 
L 240.549489 -38.016 
L 241.637194 -38.016 
L 242.724899 -38.016 
L 243.812604 -38.016 
L 244.900309 -38.016 
L 245.988014 -38.016 
L 247.075719 -38.016 
L 248.163423 -38.016 
L 249.251128 -38.016 
L 250.338833 -38.016 
L 251.426538 -38.016 
L 252.514243 -38.016 
L 253.601948 -38.016 
L 254.689653 -38.016 
L 255.777358 -38.016 
L 256.865063 -38.016 
L 257.952768 -38.016 
L 259.040473 -38.016 
L 260.128178 -38.016 
L 261.215883 -38.016 
L 262.303588 -38.016 
L 263.391293 -38.016 
L 264.478998 -38.016 
L 265.566702 -38.016 
L 266.654407 -38.016 
L 267.742112 -38.016 
L 268.829817 -38.016 
L 269.917522 -38.016 
L 271.005227 -38.016 
L 272.092932 -38.016 
L 273.180637 -38.016 
L 274.268342 -38.016 
L 275.356047 -38.016 
L 276.443752 -38.016 
L 277.531457 -38.016 
L 278.619162 -38.016 
L 279.706867 -38.016 
L 280.794572 -38.016 
L 281.882277 -38.016 
L 282.969981 -38.016 
L 284.057686 -38.016 
L 285.145391 -38.016 
L 286.233096 -38.016 
L 287.320801 -38.016 
L 288.408506 -38.016 
L 289.496211 -38.016 
L 290.583916 -38.016 
L 291.671621 -38.016 
L 292.759326 -38.016 
L 293.847031 -38.016 
L 294.934736 -38.016 
L 296.022441 -38.016 
L 297.110146 -38.016 
L 298.197851 -38.016 
L 299.285556 -38.016 
L 300.373261 -38.016 
L 301.460965 -38.016 
L 302.54867 -38.016 
L 303.636375 -38.016 
L 304.72408 -38.016 
L 305.811785 -38.016 
L 306.89949 -38.016 
L 307.987195 -38.016 
L 309.0749 -38.016 
L 310.162605 -38.016 
L 311.25031 -38.016 
L 312.338015 -38.016 
L 313.42572 -38.016 
L 314.513425 -38.016 
L 315.60113 -38.016 
L 316.688835 -38.016 
L 317.77654 -38.016 
L 318.864244 -38.016 
L 319.951949 -38.016 
L 321.039654 -38.016 
L 322.127359 -38.016 
L 323.215064 -38.016 
L 324.302769 -38.016 
L 325.390474 -38.016 
L 326.478179 -38.016 
L 327.565884 -38.016 
L 328.653589 -38.016 
L 329.741294 -38.016 
L 330.828999 -38.016 
L 331.916704 -38.016 
L 333.004409 -38.016 
L 334.092114 -38.016 
L 335.179819 -38.016 
L 336.267523 -38.016 
L 337.355228 -38.016 
L 338.442933 -38.016 
L 339.530638 -38.016 
L 340.618343 -38.016 
L 341.706048 -38.016 
L 342.793753 -38.016 
L 343.881458 -38.016 
L 344.969163 -38.016 
L 346.056868 -38.016 
L 347.144573 -38.016 
L 348.232278 -38.016 
L 348.232278 -38.025655 
L 348.232278 -38.025655 
L 347.144573 -38.032734 
L 346.056868 -38.04406 
L 344.969163 -38.061528 
L 343.881458 -38.087491 
L 342.793753 -38.124662 
L 341.706048 -38.175912 
L 340.618343 -38.243943 
L 339.530638 -38.330871 
L 338.442933 -38.437801 
L 337.355228 -38.564485 
L 336.267523 -38.709209 
L 335.179819 -38.869019 
L 334.092114 -39.040324 
L 333.004409 -39.219859 
L 331.916704 -39.405826 
L 330.828999 -39.598972 
L 329.741294 -39.803323 
L 328.653589 -40.026305 
L 327.565884 -40.278158 
L 326.478179 -40.570678 
L 325.390474 -40.915544 
L 324.302769 -41.322618 
L 323.215064 -41.79861 
L 322.127359 -42.346459 
L 321.039654 -42.965569 
L 319.951949 -43.652826 
L 318.864244 -44.404125 
L 317.77654 -45.216024 
L 316.688835 -46.087104 
L 315.60113 -47.018773 
L 314.513425 -48.015359 
L 313.42572 -49.083562 
L 312.338015 -50.231436 
L 311.25031 -51.467139 
L 310.162605 -52.797681 
L 309.0749 -54.227828 
L 307.987195 -55.759257 
L 306.89949 -57.390007 
L 305.811785 -59.11426 
L 304.72408 -60.922453 
L 303.636375 -62.801764 
L 302.54867 -64.736968 
L 301.460965 -66.711655 
L 300.373261 -68.70979 
L 299.285556 -70.717582 
L 298.197851 -72.725622 
L 297.110146 -74.731223 
L 296.022441 -76.740847 
L 294.934736 -78.772419 
L 293.847031 -80.857216 
L 292.759326 -83.040914 
L 291.671621 -85.383356 
L 290.583916 -87.956599 
L 289.496211 -90.84094 
L 288.408506 -94.11885 
L 287.320801 -97.867092 
L 286.233096 -102.147725 
L 285.145391 -106.999164 
L 284.057686 -112.428802 
L 282.969981 -118.408823 
L 281.882277 -124.876524 
L 280.794572 -131.739775 
L 279.706867 -138.887129 
L 278.619162 -146.200995 
L 277.531457 -153.571331 
L 276.443752 -160.907088 
L 275.356047 -168.143037 
L 274.268342 -175.240849 
L 273.180637 -182.184776 
L 272.092932 -188.973702 
L 271.005227 -195.612212 
L 269.917522 -202.10327 
L 268.829817 -208.444368 
L 267.742112 -214.627656 
L 266.654407 -220.643225 
L 265.566702 -226.483756 
L 264.478998 -232.148451 
L 263.391293 -237.644532 
L 262.303588 -242.985533 
L 261.215883 -248.18664 
L 260.128178 -253.258266 
L 259.040473 -258.199535 
L 257.952768 -262.993373 
L 256.865063 -267.60444 
L 255.777358 -271.980466 
L 254.689653 -276.056744 
L 253.601948 -279.762947 
L 252.514243 -283.03099 
L 251.426538 -285.802644 
L 250.338833 -288.035726 
L 249.251128 -289.708122 
L 248.163423 -290.819282 
L 247.075719 -291.389304 
L 245.988014 -291.456 
L 244.900309 -291.070551 
L 243.812604 -290.292353 
L 242.724899 -289.183598 
L 241.637194 -287.803951 
L 240.549489 -286.205614 
L 239.461784 -284.428981 
L 238.374079 -282.499208 
L 237.286374 -280.424095 
L 236.198669 -278.193794 
L 235.110964 -275.782743 
L 234.023259 -273.15401 
L 232.935554 -270.265778 
L 231.847849 -267.079189 
L 230.760144 -263.56638 
L 229.67244 -259.717303 
L 228.584735 -255.544026 
L 227.49703 -251.081537 
L 226.409325 -246.384694 
L 225.32162 -241.521621 
L 224.233915 -236.564541 
L 223.14621 -231.579611 
L 222.058505 -226.617556 
L 220.9708 -221.706881 
L 219.883095 -216.850948 
L 218.79539 -212.029481 
L 217.707685 -207.204087 
L 216.61998 -202.326596 
L 215.532275 -197.348427 
L 214.44457 -192.22912 
L 213.356865 -186.942528 
L 212.269161 -181.479831 
L 211.181456 -175.849363 
L 210.093751 -170.073926 
L 209.006046 -164.18666 
L 207.918341 -158.226656 
L 206.830636 -152.23524 
L 205.742931 -146.253457 
L 204.655226 -140.32084 
L 203.567521 -134.475152 
L 202.479816 -128.752597 
L 201.392111 -123.187942 
L 200.304406 -117.814147 
L 199.216701 -112.6613 
L 198.128996 -107.754924 
L 197.041291 -103.113954 
L 195.953586 -98.748813 
L 194.865881 -94.660084 
L 193.778177 -90.838253 
L 192.690472 -87.264803 
L 191.602767 -83.914745 
L 190.515062 -80.760337 
L 189.427357 -77.775407 
L 188.339652 -74.939461 
L 187.251947 -72.240664 
L 186.164242 -69.676921 
L 185.076537 -67.254692 
L 183.988832 -64.985727 
L 182.901127 -62.882447 
L 181.813422 -60.953126 
L 180.725717 -59.198076 
L 179.638012 -57.607781 
L 178.550307 -56.163403 
L 177.462602 -54.839397 
L 176.374898 -53.607474 
L 175.287193 -52.440825 
L 174.199488 -51.317621 
L 173.111783 -50.2231 
L 172.024078 -49.15006 
L 170.936373 -48.098009 
L 169.848668 -47.071537 
L 168.760963 -46.078482 
L 167.673258 -45.128365 
L 166.585553 -44.231264 
L 165.497848 -43.397087 
L 164.410143 -42.635033 
L 163.322438 -41.953032 
L 162.234733 -41.357049 
L 161.147028 -40.85029 
L 160.059323 -40.432475 
L 158.971619 -40.099392 
L 157.883914 -39.842919 
L 156.796209 -39.651569 
L 155.708504 -39.511533 
L 154.620799 -39.408023 
L 153.533094 -39.326713 
L 152.445389 -39.255033 
L 151.357684 -39.183141 
L 150.269979 -39.104464 
L 149.182274 -39.015791 
L 148.094569 -38.91695 
L 147.006864 -38.810182 
L 145.919159 -38.699324 
L 144.831454 -38.588948 
L 143.743749 -38.483565 
L 142.656044 -38.387004 
L 141.56834 -38.302005 
L 140.480635 -38.230059 
L 139.39293 -38.171457 
L 138.305225 -38.125494 
L 137.21752 -38.090762 
L 136.129815 -38.065468 
L 135.04211 -38.047709 
L 133.954405 -38.035684 
L 132.8667 -38.027831 
L 131.778995 -38.022884 
z
" style="stroke: #dd8452"/>
    </defs>
    <g clip-path="url(#pa6b998b6aa)">
     <use xlink:href="#m728478034b" x="0" y="345.6" style="fill: #dd8452; fill-opacity: 0.25; stroke: #dd8452"/>
    </g>
   </g>
   <g id="PolyCollection_2">
    <defs>
     <path id="md5cd464b84" d="M 73.832727 -38.021425 
L 73.832727 -38.016 
L 75.464157 -38.016 
L 77.095587 -38.016 
L 78.727017 -38.016 
L 80.358447 -38.016 
L 81.989877 -38.016 
L 83.621307 -38.016 
L 85.252736 -38.016 
L 86.884166 -38.016 
L 88.515596 -38.016 
L 90.147026 -38.016 
L 91.778456 -38.016 
L 93.409886 -38.016 
L 95.041316 -38.016 
L 96.672746 -38.016 
L 98.304175 -38.016 
L 99.935605 -38.016 
L 101.567035 -38.016 
L 103.198465 -38.016 
L 104.829895 -38.016 
L 106.461325 -38.016 
L 108.092755 -38.016 
L 109.724185 -38.016 
L 111.355614 -38.016 
L 112.987044 -38.016 
L 114.618474 -38.016 
L 116.249904 -38.016 
L 117.881334 -38.016 
L 119.512764 -38.016 
L 121.144194 -38.016 
L 122.775624 -38.016 
L 124.407053 -38.016 
L 126.038483 -38.016 
L 127.669913 -38.016 
L 129.301343 -38.016 
L 130.932773 -38.016 
L 132.564203 -38.016 
L 134.195633 -38.016 
L 135.827063 -38.016 
L 137.458492 -38.016 
L 139.089922 -38.016 
L 140.721352 -38.016 
L 142.352782 -38.016 
L 143.984212 -38.016 
L 145.615642 -38.016 
L 147.247072 -38.016 
L 148.878502 -38.016 
L 150.509931 -38.016 
L 152.141361 -38.016 
L 153.772791 -38.016 
L 155.404221 -38.016 
L 157.035651 -38.016 
L 158.667081 -38.016 
L 160.298511 -38.016 
L 161.929941 -38.016 
L 163.56137 -38.016 
L 165.1928 -38.016 
L 166.82423 -38.016 
L 168.45566 -38.016 
L 170.08709 -38.016 
L 171.71852 -38.016 
L 173.34995 -38.016 
L 174.98138 -38.016 
L 176.61281 -38.016 
L 178.244239 -38.016 
L 179.875669 -38.016 
L 181.507099 -38.016 
L 183.138529 -38.016 
L 184.769959 -38.016 
L 186.401389 -38.016 
L 188.032819 -38.016 
L 189.664249 -38.016 
L 191.295678 -38.016 
L 192.927108 -38.016 
L 194.558538 -38.016 
L 196.189968 -38.016 
L 197.821398 -38.016 
L 199.452828 -38.016 
L 201.084258 -38.016 
L 202.715688 -38.016 
L 204.347117 -38.016 
L 205.978547 -38.016 
L 207.609977 -38.016 
L 209.241407 -38.016 
L 210.872837 -38.016 
L 212.504267 -38.016 
L 214.135697 -38.016 
L 215.767127 -38.016 
L 217.398556 -38.016 
L 219.029986 -38.016 
L 220.661416 -38.016 
L 222.292846 -38.016 
L 223.924276 -38.016 
L 225.555706 -38.016 
L 227.187136 -38.016 
L 228.818566 -38.016 
L 230.449995 -38.016 
L 232.081425 -38.016 
L 233.712855 -38.016 
L 235.344285 -38.016 
L 236.975715 -38.016 
L 238.607145 -38.016 
L 240.238575 -38.016 
L 241.870005 -38.016 
L 243.501434 -38.016 
L 245.132864 -38.016 
L 246.764294 -38.016 
L 248.395724 -38.016 
L 250.027154 -38.016 
L 251.658584 -38.016 
L 253.290014 -38.016 
L 254.921444 -38.016 
L 256.552873 -38.016 
L 258.184303 -38.016 
L 259.815733 -38.016 
L 261.447163 -38.016 
L 263.078593 -38.016 
L 264.710023 -38.016 
L 266.341453 -38.016 
L 267.972883 -38.016 
L 269.604312 -38.016 
L 271.235742 -38.016 
L 272.867172 -38.016 
L 274.498602 -38.016 
L 276.130032 -38.016 
L 277.761462 -38.016 
L 279.392892 -38.016 
L 281.024322 -38.016 
L 282.655751 -38.016 
L 284.287181 -38.016 
L 285.918611 -38.016 
L 287.550041 -38.016 
L 289.181471 -38.016 
L 290.812901 -38.016 
L 292.444331 -38.016 
L 294.075761 -38.016 
L 295.70719 -38.016 
L 297.33862 -38.016 
L 298.97005 -38.016 
L 300.60148 -38.016 
L 302.23291 -38.016 
L 303.86434 -38.016 
L 305.49577 -38.016 
L 307.1272 -38.016 
L 308.75863 -38.016 
L 310.390059 -38.016 
L 312.021489 -38.016 
L 313.652919 -38.016 
L 315.284349 -38.016 
L 316.915779 -38.016 
L 318.547209 -38.016 
L 320.178639 -38.016 
L 321.810069 -38.016 
L 323.441498 -38.016 
L 325.072928 -38.016 
L 326.704358 -38.016 
L 328.335788 -38.016 
L 329.967218 -38.016 
L 331.598648 -38.016 
L 333.230078 -38.016 
L 334.861508 -38.016 
L 336.492937 -38.016 
L 338.124367 -38.016 
L 339.755797 -38.016 
L 341.387227 -38.016 
L 343.018657 -38.016 
L 344.650087 -38.016 
L 346.281517 -38.016 
L 347.912947 -38.016 
L 349.544376 -38.016 
L 351.175806 -38.016 
L 352.807236 -38.016 
L 354.438666 -38.016 
L 356.070096 -38.016 
L 357.701526 -38.016 
L 359.332956 -38.016 
L 360.964386 -38.016 
L 362.595815 -38.016 
L 364.227245 -38.016 
L 365.858675 -38.016 
L 367.490105 -38.016 
L 369.121535 -38.016 
L 370.752965 -38.016 
L 372.384395 -38.016 
L 374.015825 -38.016 
L 375.647254 -38.016 
L 377.278684 -38.016 
L 378.910114 -38.016 
L 380.541544 -38.016 
L 382.172974 -38.016 
L 383.804404 -38.016 
L 385.435834 -38.016 
L 387.067264 -38.016 
L 388.698693 -38.016 
L 390.330123 -38.016 
L 391.961553 -38.016 
L 393.592983 -38.016 
L 395.224413 -38.016 
L 396.855843 -38.016 
L 398.487273 -38.016 
L 398.487273 -38.020145 
L 398.487273 -38.020145 
L 396.855843 -38.022855 
L 395.224413 -38.027004 
L 393.592983 -38.033149 
L 391.961553 -38.04195 
L 390.330123 -38.05413 
L 388.698693 -38.070416 
L 387.067264 -38.09145 
L 385.435834 -38.117683 
L 383.804404 -38.149292 
L 382.172974 -38.186123 
L 380.541544 -38.227732 
L 378.910114 -38.273542 
L 377.278684 -38.32314 
L 375.647254 -38.376737 
L 374.015825 -38.435736 
L 372.384395 -38.503365 
L 370.752965 -38.585256 
L 369.121535 -38.689857 
L 367.490105 -38.82855 
L 365.858675 -39.015356 
L 364.227245 -39.26619 
L 362.595815 -39.597643 
L 360.964386 -40.025412 
L 359.332956 -40.562524 
L 357.701526 -41.21762 
L 356.070096 -41.993558 
L 354.438666 -42.886599 
L 352.807236 -43.88638 
L 351.175806 -44.976748 
L 349.544376 -46.1374 
L 347.912947 -47.346146 
L 346.281517 -48.581473 
L 344.650087 -49.825089 
L 343.018657 -51.064093 
L 341.387227 -52.292532 
L 339.755797 -53.512208 
L 338.124367 -54.732709 
L 336.492937 -55.970729 
L 334.861508 -57.248802 
L 333.230078 -58.593573 
L 331.598648 -60.033719 
L 329.967218 -61.597611 
L 328.335788 -63.310839 
L 326.704358 -65.19372 
L 325.072928 -67.259013 
L 323.441498 -69.510087 
L 321.810069 -71.939845 
L 320.178639 -74.530699 
L 318.547209 -77.255782 
L 316.915779 -80.081456 
L 315.284349 -82.970947 
L 313.652919 -85.888711 
L 312.021489 -88.804919 
L 310.390059 -91.699347 
L 308.75863 -94.56394 
L 307.1272 -97.403494 
L 305.49577 -100.234224 
L 303.86434 -103.080342 
L 302.23291 -105.969227 
L 300.60148 -108.926044 
L 298.97005 -111.968827 
L 297.33862 -115.105 
L 295.70719 -118.32999 
L 294.075761 -121.628224 
L 292.444331 -124.976282 
L 290.812901 -128.34755 
L 289.181471 -131.717408 
L 287.550041 -135.067815 
L 285.918611 -138.390283 
L 284.287181 -141.686487 
L 282.655751 -144.966222 
L 281.024322 -148.24298 
L 279.392892 -151.527943 
L 277.761462 -154.823628 
L 276.130032 -158.118602 
L 274.498602 -161.384586 
L 272.867172 -164.576895 
L 271.235742 -167.63848 
L 269.604312 -170.507123 
L 267.972883 -173.124611 
L 266.341453 -175.446209 
L 264.710023 -177.448635 
L 263.078593 -179.134936 
L 261.447163 -180.535258 
L 259.815733 -181.703276 
L 258.184303 -182.708904 
L 256.552873 -183.628574 
L 254.921444 -184.534802 
L 253.290014 -185.486819 
L 251.658584 -186.523705 
L 250.027154 -187.660936 
L 248.395724 -188.890468 
L 246.764294 -190.183836 
L 245.132864 -191.497196 
L 243.501434 -192.776983 
L 241.870005 -193.964986 
L 240.238575 -195.001976 
L 238.607145 -195.829636 
L 236.975715 -196.3911 
L 235.344285 -196.630914 
L 233.712855 -196.495404 
L 232.081425 -195.934349 
L 230.449995 -194.904407 
L 228.818566 -193.374156 
L 227.187136 -191.329949 
L 225.555706 -188.781336 
L 223.924276 -185.764617 
L 222.292846 -182.343273 
L 220.661416 -178.604604 
L 219.029986 -174.652614 
L 217.398556 -170.598035 
L 215.767127 -166.547002 
L 214.135697 -162.590256 
L 212.504267 -158.794703 
L 210.872837 -155.198695 
L 209.241407 -151.811701 
L 207.609977 -148.618132 
L 205.978547 -145.584339 
L 204.347117 -142.667204 
L 202.715688 -139.822568 
L 201.084258 -137.011982 
L 199.452828 -134.206756 
L 197.821398 -131.389069 
L 196.189968 -128.550598 
L 194.558538 -125.689662 
L 192.927108 -122.808077 
L 191.295678 -119.908753 
L 189.664249 -116.994645 
L 188.032819 -114.069095 
L 186.401389 -111.137103 
L 184.769959 -108.206777 
L 183.138529 -105.290182 
L 181.507099 -102.403056 
L 179.875669 -99.563239 
L 178.244239 -96.788085 
L 176.61281 -94.091443 
L 174.98138 -91.480946 
L 173.34995 -88.956257 
L 171.71852 -86.508757 
L 170.08709 -84.1228 
L 168.45566 -81.778346 
L 166.82423 -79.45451 
L 165.1928 -77.133366 
L 163.56137 -74.803328 
L 161.929941 -72.461488 
L 160.298511 -70.114525 
L 158.667081 -67.778048 
L 157.035651 -65.474546 
L 155.404221 -63.230364 
L 153.772791 -61.072273 
L 152.141361 -59.024238 
L 150.509931 -57.104896 
L 148.878502 -55.326075 
L 147.247072 -53.692441 
L 145.615642 -52.202173 
L 143.984212 -50.84837 
L 142.352782 -49.620855 
L 140.721352 -48.508018 
L 139.089922 -47.498424 
L 137.458492 -46.581993 
L 135.827063 -45.750696 
L 134.195633 -44.998755 
L 132.564203 -44.322428 
L 130.932773 -43.719475 
L 129.301343 -43.188435 
L 127.669913 -42.727817 
L 126.038483 -42.335328 
L 124.407053 -42.007244 
L 122.775624 -41.737997 
L 121.144194 -41.520034 
L 119.512764 -41.343985 
L 117.881334 -41.199105 
L 116.249904 -41.07396 
L 114.618474 -40.957255 
L 112.987044 -40.83872 
L 111.355614 -40.709915 
L 109.724185 -40.564875 
L 108.092755 -40.400488 
L 106.461325 -40.216566 
L 104.829895 -40.015607 
L 103.198465 -39.80229 
L 101.567035 -39.582768 
L 99.935605 -39.363875 
L 98.304175 -39.152349 
L 96.672746 -38.954154 
L 95.041316 -38.773992 
L 93.409886 -38.615023 
L 91.778456 -38.478804 
L 90.147026 -38.365403 
L 88.515596 -38.27366 
L 86.884166 -38.201517 
L 85.252736 -38.146367 
L 83.621307 -38.10538 
L 81.989877 -38.075764 
L 80.358447 -38.054961 
L 78.727017 -38.040754 
L 77.095587 -38.031324 
L 75.464157 -38.02524 
L 73.832727 -38.021425 
z
" style="stroke: #4c72b0"/>
    </defs>
    <g clip-path="url(#pa6b998b6aa)">
     <use xlink:href="#md5cd464b84" x="0" y="345.6" style="fill: #4c72b0; fill-opacity: 0.25; stroke: #4c72b0"/>
    </g>
   </g>
   <g id="patch_3">
    <path d="M 57.6 307.584 
L 57.6 41.472 
" style="fill: none; stroke: #ffffff; stroke-width: 1.25; stroke-linejoin: miter; stroke-linecap: square"/>
   </g>
   <g id="patch_4">
    <path d="M 414.72 307.584 
L 414.72 41.472 
" style="fill: none; stroke: #ffffff; stroke-width: 1.25; stroke-linejoin: miter; stroke-linecap: square"/>
   </g>
   <g id="patch_5">
    <path d="M 57.6 307.584 
L 414.72 307.584 
" style="fill: none; stroke: #ffffff; stroke-width: 1.25; stroke-linejoin: miter; stroke-linecap: square"/>
   </g>
   <g id="patch_6">
    <path d="M 57.6 41.472 
L 414.72 41.472 
" style="fill: none; stroke: #ffffff; stroke-width: 1.25; stroke-linejoin: miter; stroke-linecap: square"/>
   </g>
   <g id="legend_1">
    <g id="patch_7">
     <path d="M 365.309375 82.563875 
L 407.02 82.563875 
Q 409.22 82.563875 409.22 80.363875 
L 409.22 49.172 
Q 409.22 46.972 407.02 46.972 
L 365.309375 46.972 
Q 363.109375 46.972 363.109375 49.172 
L 363.109375 80.363875 
Q 363.109375 82.563875 365.309375 82.563875 
z
" style="fill: #eaeaf2; opacity: 0.8; stroke: #cccccc; stroke-linejoin: miter"/>
    </g>
    <g id="patch_8">
     <path d="M 367.509375 59.730281 
L 389.509375 59.730281 
L 389.509375 52.030281 
L 367.509375 52.030281 
z
" style="fill: #4c72b0; fill-opacity: 0.25; stroke: #4c72b0; stroke-linejoin: miter"/>
    </g>
    <g id="text_17">
     <!-- x -->
     <g style="fill: #262626" transform="translate(398.309375 59.730281) scale(0.11 -0.11)">
      <defs>
       <path id="DejaVuSans-78" d="M 3513 3500 
L 2247 1797 
L 3578 0 
L 2900 0 
L 1881 1375 
L 863 0 
L 184 0 
L 1544 1831 
L 300 3500 
L 978 3500 
L 1906 2253 
L 2834 3500 
L 3513 3500 
z
" transform="scale(0.015625)"/>
      </defs>
      <use xlink:href="#DejaVuSans-78"/>
     </g>
    </g>
    <g id="patch_9">
     <path d="M 367.509375 75.876219 
L 389.509375 75.876219 
L 389.509375 68.176219 
L 367.509375 68.176219 
z
" style="fill: #dd8452; fill-opacity: 0.25; stroke: #dd8452; stroke-linejoin: miter"/>
    </g>
    <g id="text_18">
     <!-- y -->
     <g style="fill: #262626" transform="translate(398.309375 75.876219) scale(0.11 -0.11)">
      <use xlink:href="#DejaVuSans-79"/>
     </g>
    </g>
   </g>
  </g>
 </g>
 <defs>
  <clipPath id="pa6b998b6aa">
   <rect x="57.6" y="41.472" width="357.12" height="266.112"/>
  </clipPath>
 </defs>
</svg>
