<?xml version="1.0" encoding="utf-8" standalone="no"?>
<!DOCTYPE svg PUBLIC "-//W3C//DTD SVG 1.1//EN"
  "http://www.w3.org/Graphics/SVG/1.1/DTD/svg11.dtd">
<svg xmlns:xlink="http://www.w3.org/1999/xlink" width="460.8pt" height="345.6pt" viewBox="0 0 460.8 345.6" xmlns="http://www.w3.org/2000/svg" version="1.1">
 <metadata>
  <rdf:RDF xmlns:dc="http://purl.org/dc/elements/1.1/" xmlns:cc="http://creativecommons.org/ns#" xmlns:rdf="http://www.w3.org/1999/02/22-rdf-syntax-ns#">
   <cc:Work>
    <dc:type rdf:resource="http://purl.org/dc/dcmitype/StillImage"/>
    <dc:date>2023-07-26T08:33:20.382146</dc:date>
    <dc:format>image/svg+xml</dc:format>
    <dc:creator>
     <cc:Agent>
      <dc:title>Matplotlib v3.7.1, https://matplotlib.org/</dc:title>
     </cc:Agent>
    </dc:creator>
   </cc:Work>
  </rdf:RDF>
 </metadata>
 <defs>
  <style type="text/css">*{stroke-linejoin: round; stroke-linecap: butt}</style>
 </defs>
 <g id="figure_1">
  <g id="patch_1">
   <path d="M 0 345.6 
L 460.8 345.6 
L 460.8 0 
L 0 0 
z
" style="fill: #ffffff"/>
  </g>
  <g id="axes_1">
   <g id="patch_2">
    <path d="M 57.6 307.584 
L 414.72 307.584 
L 414.72 41.472 
L 57.6 41.472 
z
" style="fill: #ffffff"/>
   </g>
   <g id="matplotlib.axis_1">
    <g id="xtick_1">
     <g id="line2d_1">
      <path d="M 57.6 307.584 
L 57.6 41.472 
" clip-path="url(#peccae2f79d)" style="fill: none; stroke: #cccccc; stroke-width: 0.8; stroke-linecap: round"/>
     </g>
     <g id="line2d_2"/>
     <g id="text_1">
      <!-- 0.0 -->
      <g style="fill: #262626" transform="translate(50.65 318.330875) scale(0.1 -0.1)">
       <defs>
        <path id="LiberationSans-30" d="M 3309 2203 
Q 3309 1100 2920 518 
Q 2531 -63 1772 -63 
Q 1013 -63 631 515 
Q 250 1094 250 2203 
Q 250 3338 620 3903 
Q 991 4469 1791 4469 
Q 2569 4469 2939 3897 
Q 3309 3325 3309 2203 
z
M 2738 2203 
Q 2738 3156 2517 3584 
Q 2297 4013 1791 4013 
Q 1272 4013 1045 3591 
Q 819 3169 819 2203 
Q 819 1266 1048 831 
Q 1278 397 1778 397 
Q 2275 397 2506 840 
Q 2738 1284 2738 2203 
z
" transform="scale(0.015625)"/>
        <path id="LiberationSans-2e" d="M 584 0 
L 584 684 
L 1194 684 
L 1194 0 
L 584 0 
z
" transform="scale(0.015625)"/>
       </defs>
       <use xlink:href="#LiberationSans-30"/>
       <use xlink:href="#LiberationSans-2e" x="55.615234"/>
       <use xlink:href="#LiberationSans-30" x="83.398438"/>
      </g>
     </g>
    </g>
    <g id="xtick_2">
     <g id="line2d_3">
      <path d="M 97.28 307.584 
L 97.28 41.472 
" clip-path="url(#peccae2f79d)" style="fill: none; stroke: #cccccc; stroke-width: 0.8; stroke-linecap: round"/>
     </g>
     <g id="line2d_4"/>
     <g id="text_2">
      <!-- 0.2 -->
      <g style="fill: #262626" transform="translate(90.33 318.330875) scale(0.1 -0.1)">
       <defs>
        <path id="LiberationSans-32" d="M 322 0 
L 322 397 
Q 481 763 711 1042 
Q 941 1322 1194 1548 
Q 1447 1775 1695 1969 
Q 1944 2163 2144 2356 
Q 2344 2550 2467 2762 
Q 2591 2975 2591 3244 
Q 2591 3606 2378 3806 
Q 2166 4006 1788 4006 
Q 1428 4006 1195 3811 
Q 963 3616 922 3263 
L 347 3316 
Q 409 3844 795 4156 
Q 1181 4469 1788 4469 
Q 2453 4469 2811 4155 
Q 3169 3841 3169 3263 
Q 3169 3006 3051 2753 
Q 2934 2500 2703 2247 
Q 2472 1994 1819 1463 
Q 1459 1169 1246 933 
Q 1034 697 941 478 
L 3238 478 
L 3238 0 
L 322 0 
z
" transform="scale(0.015625)"/>
       </defs>
       <use xlink:href="#LiberationSans-30"/>
       <use xlink:href="#LiberationSans-2e" x="55.615234"/>
       <use xlink:href="#LiberationSans-32" x="83.398438"/>
      </g>
     </g>
    </g>
    <g id="xtick_3">
     <g id="line2d_5">
      <path d="M 136.96 307.584 
L 136.96 41.472 
" clip-path="url(#peccae2f79d)" style="fill: none; stroke: #cccccc; stroke-width: 0.8; stroke-linecap: round"/>
     </g>
     <g id="line2d_6"/>
     <g id="text_3">
      <!-- 0.4 -->
      <g style="fill: #262626" transform="translate(130.01 318.330875) scale(0.1 -0.1)">
       <defs>
        <path id="LiberationSans-34" d="M 2753 997 
L 2753 0 
L 2222 0 
L 2222 997 
L 147 997 
L 147 1434 
L 2163 4403 
L 2753 4403 
L 2753 1441 
L 3372 1441 
L 3372 997 
L 2753 997 
z
M 2222 3769 
Q 2216 3750 2134 3603 
Q 2053 3456 2013 3397 
L 884 1734 
L 716 1503 
L 666 1441 
L 2222 1441 
L 2222 3769 
z
" transform="scale(0.015625)"/>
       </defs>
       <use xlink:href="#LiberationSans-30"/>
       <use xlink:href="#LiberationSans-2e" x="55.615234"/>
       <use xlink:href="#LiberationSans-34" x="83.398438"/>
      </g>
     </g>
    </g>
    <g id="xtick_4">
     <g id="line2d_7">
      <path d="M 176.64 307.584 
L 176.64 41.472 
" clip-path="url(#peccae2f79d)" style="fill: none; stroke: #cccccc; stroke-width: 0.8; stroke-linecap: round"/>
     </g>
     <g id="line2d_8"/>
     <g id="text_4">
      <!-- 0.6 -->
      <g style="fill: #262626" transform="translate(169.69 318.330875) scale(0.1 -0.1)">
       <defs>
        <path id="LiberationSans-36" d="M 3278 1441 
Q 3278 744 2900 340 
Q 2522 -63 1856 -63 
Q 1113 -63 719 490 
Q 325 1044 325 2100 
Q 325 3244 734 3856 
Q 1144 4469 1900 4469 
Q 2897 4469 3156 3572 
L 2619 3475 
Q 2453 4013 1894 4013 
Q 1413 4013 1148 3564 
Q 884 3116 884 2266 
Q 1038 2550 1316 2698 
Q 1594 2847 1953 2847 
Q 2563 2847 2920 2465 
Q 3278 2084 3278 1441 
z
M 2706 1416 
Q 2706 1894 2472 2153 
Q 2238 2413 1819 2413 
Q 1425 2413 1183 2183 
Q 941 1953 941 1550 
Q 941 1041 1192 716 
Q 1444 391 1838 391 
Q 2244 391 2475 664 
Q 2706 938 2706 1416 
z
" transform="scale(0.015625)"/>
       </defs>
       <use xlink:href="#LiberationSans-30"/>
       <use xlink:href="#LiberationSans-2e" x="55.615234"/>
       <use xlink:href="#LiberationSans-36" x="83.398438"/>
      </g>
     </g>
    </g>
    <g id="xtick_5">
     <g id="line2d_9">
      <path d="M 216.32 307.584 
L 216.32 41.472 
" clip-path="url(#peccae2f79d)" style="fill: none; stroke: #cccccc; stroke-width: 0.8; stroke-linecap: round"/>
     </g>
     <g id="line2d_10"/>
     <g id="text_5">
      <!-- 0.8 -->
      <g style="fill: #262626" transform="translate(209.37 318.330875) scale(0.1 -0.1)">
       <defs>
        <path id="LiberationSans-38" d="M 3281 1228 
Q 3281 619 2893 278 
Q 2506 -63 1781 -63 
Q 1075 -63 676 271 
Q 278 606 278 1222 
Q 278 1653 525 1947 
Q 772 2241 1156 2303 
L 1156 2316 
Q 797 2400 589 2681 
Q 381 2963 381 3341 
Q 381 3844 757 4156 
Q 1134 4469 1769 4469 
Q 2419 4469 2795 4162 
Q 3172 3856 3172 3334 
Q 3172 2956 2962 2675 
Q 2753 2394 2391 2322 
L 2391 2309 
Q 2813 2241 3047 1952 
Q 3281 1663 3281 1228 
z
M 2588 3303 
Q 2588 4050 1769 4050 
Q 1372 4050 1164 3862 
Q 956 3675 956 3303 
Q 956 2925 1170 2726 
Q 1384 2528 1775 2528 
Q 2172 2528 2380 2711 
Q 2588 2894 2588 3303 
z
M 2697 1281 
Q 2697 1691 2453 1898 
Q 2209 2106 1769 2106 
Q 1341 2106 1100 1882 
Q 859 1659 859 1269 
Q 859 359 1788 359 
Q 2247 359 2472 579 
Q 2697 800 2697 1281 
z
" transform="scale(0.015625)"/>
       </defs>
       <use xlink:href="#LiberationSans-30"/>
       <use xlink:href="#LiberationSans-2e" x="55.615234"/>
       <use xlink:href="#LiberationSans-38" x="83.398438"/>
      </g>
     </g>
    </g>
    <g id="xtick_6">
     <g id="line2d_11">
      <path d="M 256 307.584 
L 256 41.472 
" clip-path="url(#peccae2f79d)" style="fill: none; stroke: #cccccc; stroke-width: 0.8; stroke-linecap: round"/>
     </g>
     <g id="line2d_12"/>
     <g id="text_6">
      <!-- 1.0 -->
      <g style="fill: #262626" transform="translate(249.05 318.330875) scale(0.1 -0.1)">
       <defs>
        <path id="LiberationSans-31" d="M 488 0 
L 488 478 
L 1609 478 
L 1609 3866 
L 616 3156 
L 616 3688 
L 1656 4403 
L 2175 4403 
L 2175 478 
L 3247 478 
L 3247 0 
L 488 0 
z
" transform="scale(0.015625)"/>
       </defs>
       <use xlink:href="#LiberationSans-31"/>
       <use xlink:href="#LiberationSans-2e" x="55.615234"/>
       <use xlink:href="#LiberationSans-30" x="83.398438"/>
      </g>
     </g>
    </g>
    <g id="xtick_7">
     <g id="line2d_13">
      <path d="M 295.68 307.584 
L 295.68 41.472 
" clip-path="url(#peccae2f79d)" style="fill: none; stroke: #cccccc; stroke-width: 0.8; stroke-linecap: round"/>
     </g>
     <g id="line2d_14"/>
     <g id="text_7">
      <!-- 1.2 -->
      <g style="fill: #262626" transform="translate(288.73 318.330875) scale(0.1 -0.1)">
       <use xlink:href="#LiberationSans-31"/>
       <use xlink:href="#LiberationSans-2e" x="55.615234"/>
       <use xlink:href="#LiberationSans-32" x="83.398438"/>
      </g>
     </g>
    </g>
    <g id="xtick_8">
     <g id="line2d_15">
      <path d="M 335.36 307.584 
L 335.36 41.472 
" clip-path="url(#peccae2f79d)" style="fill: none; stroke: #cccccc; stroke-width: 0.8; stroke-linecap: round"/>
     </g>
     <g id="line2d_16"/>
     <g id="text_8">
      <!-- 1.4 -->
      <g style="fill: #262626" transform="translate(328.41 318.330875) scale(0.1 -0.1)">
       <use xlink:href="#LiberationSans-31"/>
       <use xlink:href="#LiberationSans-2e" x="55.615234"/>
       <use xlink:href="#LiberationSans-34" x="83.398438"/>
      </g>
     </g>
    </g>
    <g id="xtick_9">
     <g id="line2d_17">
      <path d="M 375.04 307.584 
L 375.04 41.472 
" clip-path="url(#peccae2f79d)" style="fill: none; stroke: #cccccc; stroke-width: 0.8; stroke-linecap: round"/>
     </g>
     <g id="line2d_18"/>
     <g id="text_9">
      <!-- 1.6 -->
      <g style="fill: #262626" transform="translate(368.09 318.330875) scale(0.1 -0.1)">
       <use xlink:href="#LiberationSans-31"/>
       <use xlink:href="#LiberationSans-2e" x="55.615234"/>
       <use xlink:href="#LiberationSans-36" x="83.398438"/>
      </g>
     </g>
    </g>
    <g id="xtick_10">
     <g id="line2d_19">
      <path d="M 414.72 307.584 
L 414.72 41.472 
" clip-path="url(#peccae2f79d)" style="fill: none; stroke: #cccccc; stroke-width: 0.8; stroke-linecap: round"/>
     </g>
     <g id="line2d_20"/>
     <g id="text_10">
      <!-- 1.8 -->
      <g style="fill: #262626" transform="translate(407.77 318.330875) scale(0.1 -0.1)">
       <use xlink:href="#LiberationSans-31"/>
       <use xlink:href="#LiberationSans-2e" x="55.615234"/>
       <use xlink:href="#LiberationSans-38" x="83.398438"/>
      </g>
     </g>
    </g>
   </g>
   <g id="matplotlib.axis_2">
    <g id="ytick_1">
     <g id="line2d_21">
      <path d="M 57.6 296.154181 
L 414.72 296.154181 
" clip-path="url(#peccae2f79d)" style="fill: none; stroke: #cccccc; stroke-width: 0.8; stroke-linecap: round"/>
     </g>
     <g id="line2d_22"/>
     <g id="text_11">
      <!-- 0.0 -->
      <g style="fill: #262626" transform="translate(40.2 299.777618) scale(0.1 -0.1)">
       <use xlink:href="#LiberationSans-30"/>
       <use xlink:href="#LiberationSans-2e" x="55.615234"/>
       <use xlink:href="#LiberationSans-30" x="83.398438"/>
      </g>
     </g>
    </g>
    <g id="ytick_2">
     <g id="line2d_23">
      <path d="M 57.6 247.5012 
L 414.72 247.5012 
" clip-path="url(#peccae2f79d)" style="fill: none; stroke: #cccccc; stroke-width: 0.8; stroke-linecap: round"/>
     </g>
     <g id="line2d_24"/>
     <g id="text_12">
      <!-- 0.2 -->
      <g style="fill: #262626" transform="translate(40.2 251.124637) scale(0.1 -0.1)">
       <use xlink:href="#LiberationSans-30"/>
       <use xlink:href="#LiberationSans-2e" x="55.615234"/>
       <use xlink:href="#LiberationSans-32" x="83.398438"/>
      </g>
     </g>
    </g>
    <g id="ytick_3">
     <g id="line2d_25">
      <path d="M 57.6 198.848219 
L 414.72 198.848219 
" clip-path="url(#peccae2f79d)" style="fill: none; stroke: #cccccc; stroke-width: 0.8; stroke-linecap: round"/>
     </g>
     <g id="line2d_26"/>
     <g id="text_13">
      <!-- 0.4 -->
      <g style="fill: #262626" transform="translate(40.2 202.471656) scale(0.1 -0.1)">
       <use xlink:href="#LiberationSans-30"/>
       <use xlink:href="#LiberationSans-2e" x="55.615234"/>
       <use xlink:href="#LiberationSans-34" x="83.398438"/>
      </g>
     </g>
    </g>
    <g id="ytick_4">
     <g id="line2d_27">
      <path d="M 57.6 150.195238 
L 414.72 150.195238 
" clip-path="url(#peccae2f79d)" style="fill: none; stroke: #cccccc; stroke-width: 0.8; stroke-linecap: round"/>
     </g>
     <g id="line2d_28"/>
     <g id="text_14">
      <!-- 0.6 -->
      <g style="fill: #262626" transform="translate(40.2 153.818675) scale(0.1 -0.1)">
       <use xlink:href="#LiberationSans-30"/>
       <use xlink:href="#LiberationSans-2e" x="55.615234"/>
       <use xlink:href="#LiberationSans-36" x="83.398438"/>
      </g>
     </g>
    </g>
    <g id="ytick_5">
     <g id="line2d_29">
      <path d="M 57.6 101.542256 
L 414.72 101.542256 
" clip-path="url(#peccae2f79d)" style="fill: none; stroke: #cccccc; stroke-width: 0.8; stroke-linecap: round"/>
     </g>
     <g id="line2d_30"/>
     <g id="text_15">
      <!-- 0.8 -->
      <g style="fill: #262626" transform="translate(40.2 105.165694) scale(0.1 -0.1)">
       <use xlink:href="#LiberationSans-30"/>
       <use xlink:href="#LiberationSans-2e" x="55.615234"/>
       <use xlink:href="#LiberationSans-38" x="83.398438"/>
      </g>
     </g>
    </g>
    <g id="ytick_6">
     <g id="line2d_31">
      <path d="M 57.6 52.889275 
L 414.72 52.889275 
" clip-path="url(#peccae2f79d)" style="fill: none; stroke: #cccccc; stroke-width: 0.8; stroke-linecap: round"/>
     </g>
     <g id="line2d_32"/>
     <g id="text_16">
      <!-- 1.0 -->
      <g style="fill: #262626" transform="translate(40.2 56.512713) scale(0.1 -0.1)">
       <use xlink:href="#LiberationSans-31"/>
       <use xlink:href="#LiberationSans-2e" x="55.615234"/>
       <use xlink:href="#LiberationSans-30" x="83.398438"/>
      </g>
     </g>
    </g>
   </g>
   <g id="line2d_33">
    <defs>
     <path id="m088468685b" d="M 0 3 
C 0.795609 3 1.55874 2.683901 2.12132 2.12132 
C 2.683901 1.55874 3 0.795609 3 0 
C 3 -0.795609 2.683901 -1.55874 2.12132 -2.12132 
C 1.55874 -2.683901 0.795609 -3 0 -3 
C -0.795609 -3 -1.55874 -2.683901 -2.12132 -2.12132 
C -2.683901 -1.55874 -3 -0.795609 -3 0 
C -3 0.795609 -2.683901 1.55874 -2.12132 2.12132 
C -1.55874 2.683901 -0.795609 3 0 3 
z
" style="stroke: #000000"/>
    </defs>
    <g clip-path="url(#peccae2f79d)">
     <use xlink:href="#m088468685b" x="183.973199" y="286.186761" style="stroke: #000000"/>
     <use xlink:href="#m088468685b" x="111.125684" y="292.133587" style="stroke: #000000"/>
    </g>
   </g>
   <g id="line2d_34">
    <defs>
     <path id="m0a1466d8ab" d="M 0 1.5 
C 0.397805 1.5 0.77937 1.341951 1.06066 1.06066 
C 1.341951 0.77937 1.5 0.397805 1.5 0 
C 1.5 -0.397805 1.341951 -0.77937 1.06066 -1.06066 
C 0.77937 -1.341951 0.397805 -1.5 0 -1.5 
C -0.397805 -1.5 -0.77937 -1.341951 -1.06066 -1.06066 
C -1.341951 -0.77937 -1.5 -0.397805 -1.5 0 
C -1.5 0.397805 -1.341951 0.77937 -1.06066 1.06066 
C -0.77937 1.341951 -0.397805 1.5 0 1.5 
z
" style="stroke: #000000"/>
    </defs>
    <g clip-path="url(#peccae2f79d)">
     <use xlink:href="#m0a1466d8ab" x="218.952815" y="148.580986" style="stroke: #000000"/>
     <use xlink:href="#m0a1466d8ab" x="238.690707" y="118.693269" style="stroke: #000000"/>
    </g>
   </g>
   <g id="line2d_35">
    <defs>
     <path id="m9aae2695f9" d="M -0.49999 0.49999 
L 0.50001 0.49999 
L 0.50001 -0.50001 
L -0.49999 -0.50001 
z
"/>
    </defs>
    <g clip-path="url(#peccae2f79d)">
     <use xlink:href="#m9aae2695f9" x="165.455198" y="97.685643"/>
     <use xlink:href="#m9aae2695f9" x="243.118369" y="295.488"/>
    </g>
   </g>
   <g id="line2d_36">
    <defs>
     <path id="ma102364244" d="M -3 3 
L 3 -3 
M -3 -3 
L 3 3 
" style="stroke: #000000"/>
    </defs>
    <g clip-path="url(#peccae2f79d)">
     <use xlink:href="#ma102364244" x="227.709008" y="118.654618" style="stroke: #000000"/>
     <use xlink:href="#ma102364244" x="64.263378" y="253.423333" style="stroke: #000000"/>
    </g>
   </g>
   <g id="line2d_37">
    <defs>
     <path id="m7f853f6a14" d="M -3 0 
L 3 0 
M 0 3 
L 0 -3 
" style="stroke: #000000"/>
    </defs>
    <g clip-path="url(#peccae2f79d)">
     <use xlink:href="#m7f853f6a14" x="228.854698" y="223.244796" style="stroke: #000000"/>
     <use xlink:href="#m7f853f6a14" x="165.025906" y="193.329214" style="stroke: #000000"/>
    </g>
   </g>
   <g id="line2d_38">
    <defs>
     <path id="m33b5d49eec" d="M -0 3 
L 3 -3 
L -3 -3 
z
" style="stroke: #000000; stroke-linejoin: miter"/>
    </defs>
    <g clip-path="url(#peccae2f79d)">
     <use xlink:href="#m33b5d49eec" x="63.218623" y="133.014796" style="stroke: #000000; stroke-linejoin: miter"/>
     <use xlink:href="#m33b5d49eec" x="82.257802" y="138.715685" style="stroke: #000000; stroke-linejoin: miter"/>
    </g>
   </g>
   <g id="line2d_39">
    <defs>
     <path id="m5c424255fa" d="M 0 -3 
L -3 3 
L 3 3 
z
" style="stroke: #000000; stroke-linejoin: miter"/>
    </defs>
    <g clip-path="url(#peccae2f79d)">
     <use xlink:href="#m5c424255fa" x="179.692406" y="53.568" style="stroke: #000000; stroke-linejoin: miter"/>
     <use xlink:href="#m5c424255fa" x="133.721627" y="57.551365" style="stroke: #000000; stroke-linejoin: miter"/>
    </g>
   </g>
   <g id="line2d_40">
    <defs>
     <path id="mbe99dc260c" d="M -3 -0 
L 3 3 
L 3 -3 
z
" style="stroke: #000000; stroke-linejoin: miter"/>
    </defs>
    <g clip-path="url(#peccae2f79d)">
     <use xlink:href="#mbe99dc260c" x="193.61153" y="128.679252" style="stroke: #000000; stroke-linejoin: miter"/>
     <use xlink:href="#mbe99dc260c" x="186.65112" y="201.543247" style="stroke: #000000; stroke-linejoin: miter"/>
    </g>
   </g>
   <g id="line2d_41">
    <defs>
     <path id="m16ae3cc7cb" d="M 3 0 
L -3 -3 
L -3 3 
z
" style="stroke: #000000; stroke-linejoin: miter"/>
    </defs>
    <g clip-path="url(#peccae2f79d)">
     <use xlink:href="#m16ae3cc7cb" x="84.403147" y="168.353911" style="stroke: #000000; stroke-linejoin: miter"/>
     <use xlink:href="#m16ae3cc7cb" x="200.743287" y="220.68322" style="stroke: #000000; stroke-linejoin: miter"/>
    </g>
   </g>
   <g id="line2d_42">
    <defs>
     <path id="mb8048ae49b" d="M -3 3 
L 3 3 
L 3 -3 
L -3 -3 
z
" style="stroke: #000000; stroke-linejoin: miter"/>
    </defs>
    <g clip-path="url(#peccae2f79d)">
     <use xlink:href="#mb8048ae49b" x="153.989735" y="68.934173" style="stroke: #000000; stroke-linejoin: miter"/>
     <use xlink:href="#mb8048ae49b" x="234.074386" y="209.115166" style="stroke: #000000; stroke-linejoin: miter"/>
    </g>
   </g>
   <g id="line2d_43">
    <defs>
     <path id="m87b0ea3c17" d="M -0 4.242641 
L 2.545584 0 
L 0 -4.242641 
L -2.545584 -0 
z
" style="stroke: #000000; stroke-linejoin: miter"/>
    </defs>
    <g clip-path="url(#peccae2f79d)">
     <use xlink:href="#m87b0ea3c17" x="170.991518" y="151.58184" style="stroke: #000000; stroke-linejoin: miter"/>
     <use xlink:href="#m87b0ea3c17" x="121.458887" y="213.952239" style="stroke: #000000; stroke-linejoin: miter"/>
    </g>
   </g>
   <g id="patch_3">
    <path d="M 57.6 307.584 
L 57.6 41.472 
" style="fill: none; stroke: #cccccc; stroke-linejoin: miter; stroke-linecap: square"/>
   </g>
   <g id="patch_4">
    <path d="M 414.72 307.584 
L 414.72 41.472 
" style="fill: none; stroke: #cccccc; stroke-linejoin: miter; stroke-linecap: square"/>
   </g>
   <g id="patch_5">
    <path d="M 57.6 307.584 
L 414.72 307.584 
" style="fill: none; stroke: #cccccc; stroke-linejoin: miter; stroke-linecap: square"/>
   </g>
   <g id="patch_6">
    <path d="M 57.6 41.472 
L 414.72 41.472 
" style="fill: none; stroke: #cccccc; stroke-linejoin: miter; stroke-linecap: square"/>
   </g>
   <g id="legend_1">
    <g id="line2d_44">
     <g>
      <use xlink:href="#m088468685b" x="309.925781" y="58.042938" style="stroke: #000000"/>
      <use xlink:href="#m088468685b" x="319.025781" y="58.042938" style="stroke: #000000"/>
      <use xlink:href="#m088468685b" x="328.125781" y="58.042938" style="stroke: #000000"/>
     </g>
    </g>
    <g id="text_17">
     <!-- marker='o' -->
     <g style="fill: #262626" transform="translate(342.425781 62.592938) scale(0.13 -0.13)">
      <defs>
       <path id="LiberationSans-6d" d="M 2400 0 
L 2400 2144 
Q 2400 2634 2265 2821 
Q 2131 3009 1781 3009 
Q 1422 3009 1212 2734 
Q 1003 2459 1003 1959 
L 1003 0 
L 444 0 
L 444 2659 
Q 444 3250 425 3381 
L 956 3381 
Q 959 3366 962 3297 
Q 966 3228 970 3139 
Q 975 3050 981 2803 
L 991 2803 
Q 1172 3163 1406 3303 
Q 1641 3444 1978 3444 
Q 2363 3444 2586 3291 
Q 2809 3138 2897 2803 
L 2906 2803 
Q 3081 3144 3329 3294 
Q 3578 3444 3931 3444 
Q 4444 3444 4676 3166 
Q 4909 2888 4909 2253 
L 4909 0 
L 4353 0 
L 4353 2144 
Q 4353 2634 4218 2821 
Q 4084 3009 3734 3009 
Q 3366 3009 3161 2736 
Q 2956 2463 2956 1959 
L 2956 0 
L 2400 0 
z
" transform="scale(0.015625)"/>
       <path id="LiberationSans-61" d="M 1294 -63 
Q 784 -63 528 206 
Q 272 475 272 944 
Q 272 1469 617 1750 
Q 963 2031 1731 2050 
L 2491 2063 
L 2491 2247 
Q 2491 2659 2316 2837 
Q 2141 3016 1766 3016 
Q 1388 3016 1216 2887 
Q 1044 2759 1009 2478 
L 422 2531 
Q 566 3444 1778 3444 
Q 2416 3444 2737 3151 
Q 3059 2859 3059 2306 
L 3059 850 
Q 3059 600 3125 473 
Q 3191 347 3375 347 
Q 3456 347 3559 369 
L 3559 19 
Q 3347 -31 3125 -31 
Q 2813 -31 2670 133 
Q 2528 297 2509 647 
L 2491 647 
Q 2275 259 1989 98 
Q 1703 -63 1294 -63 
z
M 1422 359 
Q 1731 359 1972 500 
Q 2213 641 2352 886 
Q 2491 1131 2491 1391 
L 2491 1669 
L 1875 1656 
Q 1478 1650 1273 1575 
Q 1069 1500 959 1344 
Q 850 1188 850 934 
Q 850 659 998 509 
Q 1147 359 1422 359 
z
" transform="scale(0.015625)"/>
       <path id="LiberationSans-72" d="M 444 0 
L 444 2594 
Q 444 2950 425 3381 
L 956 3381 
Q 981 2806 981 2691 
L 994 2691 
Q 1128 3125 1303 3284 
Q 1478 3444 1797 3444 
Q 1909 3444 2025 3413 
L 2025 2897 
Q 1913 2928 1725 2928 
Q 1375 2928 1190 2626 
Q 1006 2325 1006 1763 
L 1006 0 
L 444 0 
z
" transform="scale(0.015625)"/>
       <path id="LiberationSans-6b" d="M 2550 0 
L 1406 1544 
L 994 1203 
L 994 0 
L 431 0 
L 431 4638 
L 994 4638 
L 994 1741 
L 2478 3381 
L 3138 3381 
L 1766 1928 
L 3209 0 
L 2550 0 
z
" transform="scale(0.015625)"/>
       <path id="LiberationSans-65" d="M 863 1572 
Q 863 991 1103 675 
Q 1344 359 1806 359 
Q 2172 359 2392 506 
Q 2613 653 2691 878 
L 3184 738 
Q 2881 -63 1806 -63 
Q 1056 -63 664 384 
Q 272 831 272 1713 
Q 272 2550 664 2997 
Q 1056 3444 1784 3444 
Q 3275 3444 3275 1647 
L 3275 1572 
L 863 1572 
z
M 2694 2003 
Q 2647 2538 2422 2783 
Q 2197 3028 1775 3028 
Q 1366 3028 1127 2754 
Q 888 2481 869 2003 
L 2694 2003 
z
" transform="scale(0.015625)"/>
       <path id="LiberationSans-3d" d="M 313 2675 
L 313 3138 
L 3422 3138 
L 3422 2675 
L 313 2675 
z
M 313 1075 
L 313 1538 
L 3422 1538 
L 3422 1075 
L 313 1075 
z
" transform="scale(0.015625)"/>
       <path id="LiberationSans-27" d="M 831 3019 
L 391 3019 
L 325 4403 
L 900 4403 
L 831 3019 
z
" transform="scale(0.015625)"/>
       <path id="LiberationSans-6f" d="M 3291 1694 
Q 3291 806 2900 371 
Q 2509 -63 1766 -63 
Q 1025 -63 647 389 
Q 269 841 269 1694 
Q 269 3444 1784 3444 
Q 2559 3444 2925 3017 
Q 3291 2591 3291 1694 
z
M 2700 1694 
Q 2700 2394 2492 2711 
Q 2284 3028 1794 3028 
Q 1300 3028 1079 2704 
Q 859 2381 859 1694 
Q 859 1025 1076 689 
Q 1294 353 1759 353 
Q 2266 353 2483 678 
Q 2700 1003 2700 1694 
z
" transform="scale(0.015625)"/>
      </defs>
      <use xlink:href="#LiberationSans-6d"/>
      <use xlink:href="#LiberationSans-61" x="83.300781"/>
      <use xlink:href="#LiberationSans-72" x="138.916016"/>
      <use xlink:href="#LiberationSans-6b" x="172.216797"/>
      <use xlink:href="#LiberationSans-65" x="222.216797"/>
      <use xlink:href="#LiberationSans-72" x="277.832031"/>
      <use xlink:href="#LiberationSans-3d" x="311.132812"/>
      <use xlink:href="#LiberationSans-27" x="369.53125"/>
      <use xlink:href="#LiberationSans-6f" x="388.623047"/>
      <use xlink:href="#LiberationSans-27" x="444.238281"/>
     </g>
    </g>
    <g id="line2d_45">
     <g>
      <use xlink:href="#m0a1466d8ab" x="309.925781" y="76.661375" style="stroke: #000000"/>
      <use xlink:href="#m0a1466d8ab" x="319.025781" y="76.661375" style="stroke: #000000"/>
      <use xlink:href="#m0a1466d8ab" x="328.125781" y="76.661375" style="stroke: #000000"/>
     </g>
    </g>
    <g id="text_18">
     <!-- marker='.' -->
     <g style="fill: #262626" transform="translate(342.425781 81.211375) scale(0.13 -0.13)">
      <use xlink:href="#LiberationSans-6d"/>
      <use xlink:href="#LiberationSans-61" x="83.300781"/>
      <use xlink:href="#LiberationSans-72" x="138.916016"/>
      <use xlink:href="#LiberationSans-6b" x="172.216797"/>
      <use xlink:href="#LiberationSans-65" x="222.216797"/>
      <use xlink:href="#LiberationSans-72" x="277.832031"/>
      <use xlink:href="#LiberationSans-3d" x="311.132812"/>
      <use xlink:href="#LiberationSans-27" x="369.53125"/>
      <use xlink:href="#LiberationSans-2e" x="388.623047"/>
      <use xlink:href="#LiberationSans-27" x="416.40625"/>
     </g>
    </g>
    <g id="line2d_46">
     <g>
      <use xlink:href="#m9aae2695f9" x="309.925781" y="95.279813"/>
      <use xlink:href="#m9aae2695f9" x="319.025781" y="95.279813"/>
      <use xlink:href="#m9aae2695f9" x="328.125781" y="95.279813"/>
     </g>
    </g>
    <g id="text_19">
     <!-- marker=',' -->
     <g style="fill: #262626" transform="translate(342.425781 99.829813) scale(0.13 -0.13)">
      <defs>
       <path id="LiberationSans-2c" d="M 1203 684 
L 1203 159 
Q 1203 -172 1143 -394 
Q 1084 -616 959 -819 
L 575 -819 
Q 869 -394 869 0 
L 594 0 
L 594 684 
L 1203 684 
z
" transform="scale(0.015625)"/>
      </defs>
      <use xlink:href="#LiberationSans-6d"/>
      <use xlink:href="#LiberationSans-61" x="83.300781"/>
      <use xlink:href="#LiberationSans-72" x="138.916016"/>
      <use xlink:href="#LiberationSans-6b" x="172.216797"/>
      <use xlink:href="#LiberationSans-65" x="222.216797"/>
      <use xlink:href="#LiberationSans-72" x="277.832031"/>
      <use xlink:href="#LiberationSans-3d" x="311.132812"/>
      <use xlink:href="#LiberationSans-27" x="369.53125"/>
      <use xlink:href="#LiberationSans-2c" x="388.623047"/>
      <use xlink:href="#LiberationSans-27" x="416.40625"/>
     </g>
    </g>
    <g id="line2d_47">
     <g>
      <use xlink:href="#ma102364244" x="309.925781" y="113.89825" style="stroke: #000000"/>
      <use xlink:href="#ma102364244" x="319.025781" y="113.89825" style="stroke: #000000"/>
      <use xlink:href="#ma102364244" x="328.125781" y="113.89825" style="stroke: #000000"/>
     </g>
    </g>
    <g id="text_20">
     <!-- marker='x' -->
     <g style="fill: #262626" transform="translate(342.425781 118.44825) scale(0.13 -0.13)">
      <defs>
       <path id="LiberationSans-78" d="M 2503 0 
L 1594 1388 
L 678 0 
L 72 0 
L 1275 1738 
L 128 3381 
L 750 3381 
L 1594 2066 
L 2431 3381 
L 3059 3381 
L 1913 1744 
L 3131 0 
L 2503 0 
z
" transform="scale(0.015625)"/>
      </defs>
      <use xlink:href="#LiberationSans-6d"/>
      <use xlink:href="#LiberationSans-61" x="83.300781"/>
      <use xlink:href="#LiberationSans-72" x="138.916016"/>
      <use xlink:href="#LiberationSans-6b" x="172.216797"/>
      <use xlink:href="#LiberationSans-65" x="222.216797"/>
      <use xlink:href="#LiberationSans-72" x="277.832031"/>
      <use xlink:href="#LiberationSans-3d" x="311.132812"/>
      <use xlink:href="#LiberationSans-27" x="369.53125"/>
      <use xlink:href="#LiberationSans-78" x="388.623047"/>
      <use xlink:href="#LiberationSans-27" x="438.623047"/>
     </g>
    </g>
    <g id="line2d_48">
     <g>
      <use xlink:href="#m7f853f6a14" x="309.925781" y="132.516687" style="stroke: #000000"/>
      <use xlink:href="#m7f853f6a14" x="319.025781" y="132.516687" style="stroke: #000000"/>
      <use xlink:href="#m7f853f6a14" x="328.125781" y="132.516687" style="stroke: #000000"/>
     </g>
    </g>
    <g id="text_21">
     <!-- marker='+' -->
     <g style="fill: #262626" transform="translate(342.425781 137.066688) scale(0.13 -0.13)">
      <defs>
       <path id="LiberationSans-2b" d="M 2097 1900 
L 2097 563 
L 1638 563 
L 1638 1900 
L 313 1900 
L 313 2356 
L 1638 2356 
L 1638 3694 
L 2097 3694 
L 2097 2356 
L 3422 2356 
L 3422 1900 
L 2097 1900 
z
" transform="scale(0.015625)"/>
      </defs>
      <use xlink:href="#LiberationSans-6d"/>
      <use xlink:href="#LiberationSans-61" x="83.300781"/>
      <use xlink:href="#LiberationSans-72" x="138.916016"/>
      <use xlink:href="#LiberationSans-6b" x="172.216797"/>
      <use xlink:href="#LiberationSans-65" x="222.216797"/>
      <use xlink:href="#LiberationSans-72" x="277.832031"/>
      <use xlink:href="#LiberationSans-3d" x="311.132812"/>
      <use xlink:href="#LiberationSans-27" x="369.53125"/>
      <use xlink:href="#LiberationSans-2b" x="388.623047"/>
      <use xlink:href="#LiberationSans-27" x="447.021484"/>
     </g>
    </g>
    <g id="line2d_49">
     <g>
      <use xlink:href="#m33b5d49eec" x="309.925781" y="151.135125" style="stroke: #000000; stroke-linejoin: miter"/>
      <use xlink:href="#m33b5d49eec" x="319.025781" y="151.135125" style="stroke: #000000; stroke-linejoin: miter"/>
      <use xlink:href="#m33b5d49eec" x="328.125781" y="151.135125" style="stroke: #000000; stroke-linejoin: miter"/>
     </g>
    </g>
    <g id="text_22">
     <!-- marker='v' -->
     <g style="fill: #262626" transform="translate(342.425781 155.685125) scale(0.13 -0.13)">
      <defs>
       <path id="LiberationSans-76" d="M 1916 0 
L 1250 0 
L 22 3381 
L 622 3381 
L 1366 1181 
Q 1406 1056 1581 441 
L 1691 806 
L 1813 1175 
L 2581 3381 
L 3178 3381 
L 1916 0 
z
" transform="scale(0.015625)"/>
      </defs>
      <use xlink:href="#LiberationSans-6d"/>
      <use xlink:href="#LiberationSans-61" x="83.300781"/>
      <use xlink:href="#LiberationSans-72" x="138.916016"/>
      <use xlink:href="#LiberationSans-6b" x="172.216797"/>
      <use xlink:href="#LiberationSans-65" x="222.216797"/>
      <use xlink:href="#LiberationSans-72" x="277.832031"/>
      <use xlink:href="#LiberationSans-3d" x="311.132812"/>
      <use xlink:href="#LiberationSans-27" x="369.53125"/>
      <use xlink:href="#LiberationSans-76" x="388.623047"/>
      <use xlink:href="#LiberationSans-27" x="438.623047"/>
     </g>
    </g>
    <g id="line2d_50">
     <g>
      <use xlink:href="#m5c424255fa" x="309.925781" y="169.753562" style="stroke: #000000; stroke-linejoin: miter"/>
      <use xlink:href="#m5c424255fa" x="319.025781" y="169.753562" style="stroke: #000000; stroke-linejoin: miter"/>
      <use xlink:href="#m5c424255fa" x="328.125781" y="169.753562" style="stroke: #000000; stroke-linejoin: miter"/>
     </g>
    </g>
    <g id="text_23">
     <!-- marker='^' -->
     <g style="fill: #262626" transform="translate(342.425781 174.303562) scale(0.13 -0.13)">
      <defs>
       <path id="LiberationSans-5e" d="M 2459 2103 
L 1494 4081 
L 538 2103 
L 31 2103 
L 1181 4403 
L 1816 4403 
L 2972 2103 
L 2459 2103 
z
" transform="scale(0.015625)"/>
      </defs>
      <use xlink:href="#LiberationSans-6d"/>
      <use xlink:href="#LiberationSans-61" x="83.300781"/>
      <use xlink:href="#LiberationSans-72" x="138.916016"/>
      <use xlink:href="#LiberationSans-6b" x="172.216797"/>
      <use xlink:href="#LiberationSans-65" x="222.216797"/>
      <use xlink:href="#LiberationSans-72" x="277.832031"/>
      <use xlink:href="#LiberationSans-3d" x="311.132812"/>
      <use xlink:href="#LiberationSans-27" x="369.53125"/>
      <use xlink:href="#LiberationSans-5e" x="388.623047"/>
      <use xlink:href="#LiberationSans-27" x="435.546875"/>
     </g>
    </g>
    <g id="line2d_51">
     <g>
      <use xlink:href="#mbe99dc260c" x="309.925781" y="188.372" style="stroke: #000000; stroke-linejoin: miter"/>
      <use xlink:href="#mbe99dc260c" x="319.025781" y="188.372" style="stroke: #000000; stroke-linejoin: miter"/>
      <use xlink:href="#mbe99dc260c" x="328.125781" y="188.372" style="stroke: #000000; stroke-linejoin: miter"/>
     </g>
    </g>
    <g id="text_24">
     <!-- marker='&lt;' -->
     <g style="fill: #262626" transform="translate(342.425781 192.922) scale(0.13 -0.13)">
      <defs>
       <path id="LiberationSans-3c" d="M 316 1784 
L 316 2425 
L 3425 3731 
L 3425 3250 
L 744 2106 
L 3425 959 
L 3425 481 
L 316 1784 
z
" transform="scale(0.015625)"/>
      </defs>
      <use xlink:href="#LiberationSans-6d"/>
      <use xlink:href="#LiberationSans-61" x="83.300781"/>
      <use xlink:href="#LiberationSans-72" x="138.916016"/>
      <use xlink:href="#LiberationSans-6b" x="172.216797"/>
      <use xlink:href="#LiberationSans-65" x="222.216797"/>
      <use xlink:href="#LiberationSans-72" x="277.832031"/>
      <use xlink:href="#LiberationSans-3d" x="311.132812"/>
      <use xlink:href="#LiberationSans-27" x="369.53125"/>
      <use xlink:href="#LiberationSans-3c" x="388.623047"/>
      <use xlink:href="#LiberationSans-27" x="447.021484"/>
     </g>
    </g>
    <g id="line2d_52">
     <g>
      <use xlink:href="#m16ae3cc7cb" x="309.925781" y="206.990437" style="stroke: #000000; stroke-linejoin: miter"/>
      <use xlink:href="#m16ae3cc7cb" x="319.025781" y="206.990437" style="stroke: #000000; stroke-linejoin: miter"/>
      <use xlink:href="#m16ae3cc7cb" x="328.125781" y="206.990437" style="stroke: #000000; stroke-linejoin: miter"/>
     </g>
    </g>
    <g id="text_25">
     <!-- marker='&gt;' -->
     <g style="fill: #262626" transform="translate(342.425781 211.540437) scale(0.13 -0.13)">
      <defs>
       <path id="LiberationSans-3e" d="M 316 481 
L 316 959 
L 2997 2106 
L 316 3250 
L 316 3731 
L 3425 2425 
L 3425 1784 
L 316 481 
z
" transform="scale(0.015625)"/>
      </defs>
      <use xlink:href="#LiberationSans-6d"/>
      <use xlink:href="#LiberationSans-61" x="83.300781"/>
      <use xlink:href="#LiberationSans-72" x="138.916016"/>
      <use xlink:href="#LiberationSans-6b" x="172.216797"/>
      <use xlink:href="#LiberationSans-65" x="222.216797"/>
      <use xlink:href="#LiberationSans-72" x="277.832031"/>
      <use xlink:href="#LiberationSans-3d" x="311.132812"/>
      <use xlink:href="#LiberationSans-27" x="369.53125"/>
      <use xlink:href="#LiberationSans-3e" x="388.623047"/>
      <use xlink:href="#LiberationSans-27" x="447.021484"/>
     </g>
    </g>
    <g id="line2d_53">
     <g>
      <use xlink:href="#mb8048ae49b" x="309.925781" y="225.608875" style="stroke: #000000; stroke-linejoin: miter"/>
      <use xlink:href="#mb8048ae49b" x="319.025781" y="225.608875" style="stroke: #000000; stroke-linejoin: miter"/>
      <use xlink:href="#mb8048ae49b" x="328.125781" y="225.608875" style="stroke: #000000; stroke-linejoin: miter"/>
     </g>
    </g>
    <g id="text_26">
     <!-- marker='s' -->
     <g style="fill: #262626" transform="translate(342.425781 230.158875) scale(0.13 -0.13)">
      <defs>
       <path id="LiberationSans-73" d="M 2969 934 
Q 2969 456 2608 196 
Q 2247 -63 1597 -63 
Q 966 -63 623 145 
Q 281 353 178 794 
L 675 891 
Q 747 619 972 492 
Q 1197 366 1597 366 
Q 2025 366 2223 497 
Q 2422 628 2422 891 
Q 2422 1091 2284 1216 
Q 2147 1341 1841 1422 
L 1438 1528 
Q 953 1653 748 1773 
Q 544 1894 428 2066 
Q 313 2238 313 2488 
Q 313 2950 642 3192 
Q 972 3434 1603 3434 
Q 2163 3434 2492 3237 
Q 2822 3041 2909 2606 
L 2403 2544 
Q 2356 2769 2151 2889 
Q 1947 3009 1603 3009 
Q 1222 3009 1040 2893 
Q 859 2778 859 2544 
Q 859 2400 934 2306 
Q 1009 2213 1156 2147 
Q 1303 2081 1775 1966 
Q 2222 1853 2419 1758 
Q 2616 1663 2730 1547 
Q 2844 1431 2906 1279 
Q 2969 1128 2969 934 
z
" transform="scale(0.015625)"/>
      </defs>
      <use xlink:href="#LiberationSans-6d"/>
      <use xlink:href="#LiberationSans-61" x="83.300781"/>
      <use xlink:href="#LiberationSans-72" x="138.916016"/>
      <use xlink:href="#LiberationSans-6b" x="172.216797"/>
      <use xlink:href="#LiberationSans-65" x="222.216797"/>
      <use xlink:href="#LiberationSans-72" x="277.832031"/>
      <use xlink:href="#LiberationSans-3d" x="311.132812"/>
      <use xlink:href="#LiberationSans-27" x="369.53125"/>
      <use xlink:href="#LiberationSans-73" x="388.623047"/>
      <use xlink:href="#LiberationSans-27" x="438.623047"/>
     </g>
    </g>
    <g id="line2d_54">
     <g>
      <use xlink:href="#m87b0ea3c17" x="309.925781" y="244.227312" style="stroke: #000000; stroke-linejoin: miter"/>
      <use xlink:href="#m87b0ea3c17" x="319.025781" y="244.227312" style="stroke: #000000; stroke-linejoin: miter"/>
      <use xlink:href="#m87b0ea3c17" x="328.125781" y="244.227312" style="stroke: #000000; stroke-linejoin: miter"/>
     </g>
    </g>
    <g id="text_27">
     <!-- marker='d' -->
     <g style="fill: #262626" transform="translate(342.425781 248.777312) scale(0.13 -0.13)">
      <defs>
       <path id="LiberationSans-64" d="M 2566 544 
Q 2409 219 2151 78 
Q 1894 -63 1513 -63 
Q 872 -63 570 368 
Q 269 800 269 1675 
Q 269 3444 1513 3444 
Q 1897 3444 2153 3303 
Q 2409 3163 2566 2856 
L 2572 2856 
L 2566 3234 
L 2566 4638 
L 3128 4638 
L 3128 697 
Q 3128 169 3147 0 
L 2609 0 
Q 2600 50 2589 231 
Q 2578 413 2578 544 
L 2566 544 
z
M 859 1694 
Q 859 984 1046 678 
Q 1234 372 1656 372 
Q 2134 372 2350 703 
Q 2566 1034 2566 1731 
Q 2566 2403 2350 2715 
Q 2134 3028 1663 3028 
Q 1238 3028 1048 2714 
Q 859 2400 859 1694 
z
" transform="scale(0.015625)"/>
      </defs>
      <use xlink:href="#LiberationSans-6d"/>
      <use xlink:href="#LiberationSans-61" x="83.300781"/>
      <use xlink:href="#LiberationSans-72" x="138.916016"/>
      <use xlink:href="#LiberationSans-6b" x="172.216797"/>
      <use xlink:href="#LiberationSans-65" x="222.216797"/>
      <use xlink:href="#LiberationSans-72" x="277.832031"/>
      <use xlink:href="#LiberationSans-3d" x="311.132812"/>
      <use xlink:href="#LiberationSans-27" x="369.53125"/>
      <use xlink:href="#LiberationSans-64" x="388.623047"/>
      <use xlink:href="#LiberationSans-27" x="444.238281"/>
     </g>
    </g>
   </g>
  </g>
 </g>
 <defs>
  <clipPath id="peccae2f79d">
   <rect x="57.6" y="41.472" width="357.12" height="266.112"/>
  </clipPath>
 </defs>
</svg>
