<?xml version="1.0" encoding="utf-8" standalone="no"?>
<!DOCTYPE svg PUBLIC "-//W3C//DTD SVG 1.1//EN"
  "http://www.w3.org/Graphics/SVG/1.1/DTD/svg11.dtd">
<svg xmlns:xlink="http://www.w3.org/1999/xlink" width="460.8pt" height="345.6pt" viewBox="0 0 460.8 345.6" xmlns="http://www.w3.org/2000/svg" version="1.1">
 <metadata>
  <rdf:RDF xmlns:dc="http://purl.org/dc/elements/1.1/" xmlns:cc="http://creativecommons.org/ns#" xmlns:rdf="http://www.w3.org/1999/02/22-rdf-syntax-ns#">
   <cc:Work>
    <dc:type rdf:resource="http://purl.org/dc/dcmitype/StillImage"/>
    <dc:date>2023-07-25T21:16:29.991599</dc:date>
    <dc:format>image/svg+xml</dc:format>
    <dc:creator>
     <cc:Agent>
      <dc:title>Matplotlib v3.7.1, https://matplotlib.org/</dc:title>
     </cc:Agent>
    </dc:creator>
   </cc:Work>
  </rdf:RDF>
 </metadata>
 <defs>
  <style type="text/css">*{stroke-linejoin: round; stroke-linecap: butt}</style>
 </defs>
 <g id="figure_1">
  <g id="patch_1">
   <path d="M 0 345.6 
L 460.8 345.6 
L 460.8 0 
L 0 0 
z
" style="fill: #ffffff"/>
  </g>
  <g id="axes_1">
   <g id="patch_2">
    <path d="M 57.6 307.584 
L 414.72 307.584 
L 414.72 41.472 
L 57.6 41.472 
z
" style="fill: #ffffff"/>
   </g>
   <g id="matplotlib.axis_1">
    <g id="xtick_1">
     <g id="line2d_1">
      <defs>
       <path id="m0b1e02d5de" d="M 0 0 
L 0 3.5 
" style="stroke: #000000; stroke-width: 0.8"/>
      </defs>
      <g>
       <use xlink:href="#m0b1e02d5de" x="73.832727" y="307.584" style="stroke: #000000; stroke-width: 0.8"/>
      </g>
     </g>
     <g id="text_1">
      <!-- 0 -->
      <g transform="translate(70.651477 322.182437) scale(0.1 -0.1)">
       <defs>
        <path id="DejaVuSans-30" d="M 2034 4250 
Q 1547 4250 1301 3770 
Q 1056 3291 1056 2328 
Q 1056 1369 1301 889 
Q 1547 409 2034 409 
Q 2525 409 2770 889 
Q 3016 1369 3016 2328 
Q 3016 3291 2770 3770 
Q 2525 4250 2034 4250 
z
M 2034 4750 
Q 2819 4750 3233 4129 
Q 3647 3509 3647 2328 
Q 3647 1150 3233 529 
Q 2819 -91 2034 -91 
Q 1250 -91 836 529 
Q 422 1150 422 2328 
Q 422 3509 836 4129 
Q 1250 4750 2034 4750 
z
" transform="scale(0.015625)"/>
       </defs>
       <use xlink:href="#DejaVuSans-30"/>
      </g>
     </g>
    </g>
    <g id="xtick_2">
     <g id="line2d_2">
      <g>
       <use xlink:href="#m0b1e02d5de" x="138.763636" y="307.584" style="stroke: #000000; stroke-width: 0.8"/>
      </g>
     </g>
     <g id="text_2">
      <!-- 2 -->
      <g transform="translate(135.582386 322.182437) scale(0.1 -0.1)">
       <defs>
        <path id="DejaVuSans-32" d="M 1228 531 
L 3431 531 
L 3431 0 
L 469 0 
L 469 531 
Q 828 903 1448 1529 
Q 2069 2156 2228 2338 
Q 2531 2678 2651 2914 
Q 2772 3150 2772 3378 
Q 2772 3750 2511 3984 
Q 2250 4219 1831 4219 
Q 1534 4219 1204 4116 
Q 875 4013 500 3803 
L 500 4441 
Q 881 4594 1212 4672 
Q 1544 4750 1819 4750 
Q 2544 4750 2975 4387 
Q 3406 4025 3406 3419 
Q 3406 3131 3298 2873 
Q 3191 2616 2906 2266 
Q 2828 2175 2409 1742 
Q 1991 1309 1228 531 
z
" transform="scale(0.015625)"/>
       </defs>
       <use xlink:href="#DejaVuSans-32"/>
      </g>
     </g>
    </g>
    <g id="xtick_3">
     <g id="line2d_3">
      <g>
       <use xlink:href="#m0b1e02d5de" x="203.694545" y="307.584" style="stroke: #000000; stroke-width: 0.8"/>
      </g>
     </g>
     <g id="text_3">
      <!-- 4 -->
      <g transform="translate(200.513295 322.182437) scale(0.1 -0.1)">
       <defs>
        <path id="DejaVuSans-34" d="M 2419 4116 
L 825 1625 
L 2419 1625 
L 2419 4116 
z
M 2253 4666 
L 3047 4666 
L 3047 1625 
L 3713 1625 
L 3713 1100 
L 3047 1100 
L 3047 0 
L 2419 0 
L 2419 1100 
L 313 1100 
L 313 1709 
L 2253 4666 
z
" transform="scale(0.015625)"/>
       </defs>
       <use xlink:href="#DejaVuSans-34"/>
      </g>
     </g>
    </g>
    <g id="xtick_4">
     <g id="line2d_4">
      <g>
       <use xlink:href="#m0b1e02d5de" x="268.625455" y="307.584" style="stroke: #000000; stroke-width: 0.8"/>
      </g>
     </g>
     <g id="text_4">
      <!-- 6 -->
      <g transform="translate(265.444205 322.182437) scale(0.1 -0.1)">
       <defs>
        <path id="DejaVuSans-36" d="M 2113 2584 
Q 1688 2584 1439 2293 
Q 1191 2003 1191 1497 
Q 1191 994 1439 701 
Q 1688 409 2113 409 
Q 2538 409 2786 701 
Q 3034 994 3034 1497 
Q 3034 2003 2786 2293 
Q 2538 2584 2113 2584 
z
M 3366 4563 
L 3366 3988 
Q 3128 4100 2886 4159 
Q 2644 4219 2406 4219 
Q 1781 4219 1451 3797 
Q 1122 3375 1075 2522 
Q 1259 2794 1537 2939 
Q 1816 3084 2150 3084 
Q 2853 3084 3261 2657 
Q 3669 2231 3669 1497 
Q 3669 778 3244 343 
Q 2819 -91 2113 -91 
Q 1303 -91 875 529 
Q 447 1150 447 2328 
Q 447 3434 972 4092 
Q 1497 4750 2381 4750 
Q 2619 4750 2861 4703 
Q 3103 4656 3366 4563 
z
" transform="scale(0.015625)"/>
       </defs>
       <use xlink:href="#DejaVuSans-36"/>
      </g>
     </g>
    </g>
    <g id="xtick_5">
     <g id="line2d_5">
      <g>
       <use xlink:href="#m0b1e02d5de" x="333.556364" y="307.584" style="stroke: #000000; stroke-width: 0.8"/>
      </g>
     </g>
     <g id="text_5">
      <!-- 8 -->
      <g transform="translate(330.375114 322.182437) scale(0.1 -0.1)">
       <defs>
        <path id="DejaVuSans-38" d="M 2034 2216 
Q 1584 2216 1326 1975 
Q 1069 1734 1069 1313 
Q 1069 891 1326 650 
Q 1584 409 2034 409 
Q 2484 409 2743 651 
Q 3003 894 3003 1313 
Q 3003 1734 2745 1975 
Q 2488 2216 2034 2216 
z
M 1403 2484 
Q 997 2584 770 2862 
Q 544 3141 544 3541 
Q 544 4100 942 4425 
Q 1341 4750 2034 4750 
Q 2731 4750 3128 4425 
Q 3525 4100 3525 3541 
Q 3525 3141 3298 2862 
Q 3072 2584 2669 2484 
Q 3125 2378 3379 2068 
Q 3634 1759 3634 1313 
Q 3634 634 3220 271 
Q 2806 -91 2034 -91 
Q 1263 -91 848 271 
Q 434 634 434 1313 
Q 434 1759 690 2068 
Q 947 2378 1403 2484 
z
M 1172 3481 
Q 1172 3119 1398 2916 
Q 1625 2713 2034 2713 
Q 2441 2713 2670 2916 
Q 2900 3119 2900 3481 
Q 2900 3844 2670 4047 
Q 2441 4250 2034 4250 
Q 1625 4250 1398 4047 
Q 1172 3844 1172 3481 
z
" transform="scale(0.015625)"/>
       </defs>
       <use xlink:href="#DejaVuSans-38"/>
      </g>
     </g>
    </g>
    <g id="xtick_6">
     <g id="line2d_6">
      <g>
       <use xlink:href="#m0b1e02d5de" x="398.487273" y="307.584" style="stroke: #000000; stroke-width: 0.8"/>
      </g>
     </g>
     <g id="text_6">
      <!-- 10 -->
      <g transform="translate(392.124773 322.182437) scale(0.1 -0.1)">
       <defs>
        <path id="DejaVuSans-31" d="M 794 531 
L 1825 531 
L 1825 4091 
L 703 3866 
L 703 4441 
L 1819 4666 
L 2450 4666 
L 2450 531 
L 3481 531 
L 3481 0 
L 794 0 
L 794 531 
z
" transform="scale(0.015625)"/>
       </defs>
       <use xlink:href="#DejaVuSans-31"/>
       <use xlink:href="#DejaVuSans-30" x="63.623047"/>
      </g>
     </g>
    </g>
   </g>
   <g id="matplotlib.axis_2">
    <g id="ytick_1">
     <g id="line2d_7">
      <defs>
       <path id="m2c688ae8e0" d="M 0 0 
L -3.5 0 
" style="stroke: #000000; stroke-width: 0.8"/>
      </defs>
      <g>
       <use xlink:href="#m2c688ae8e0" x="57.6" y="295.488091" style="stroke: #000000; stroke-width: 0.8"/>
      </g>
     </g>
     <g id="text_7">
      <!-- −1.00 -->
      <g transform="translate(19.954687 299.28731) scale(0.1 -0.1)">
       <defs>
        <path id="DejaVuSans-2212" d="M 678 2272 
L 4684 2272 
L 4684 1741 
L 678 1741 
L 678 2272 
z
" transform="scale(0.015625)"/>
        <path id="DejaVuSans-2e" d="M 684 794 
L 1344 794 
L 1344 0 
L 684 0 
L 684 794 
z
" transform="scale(0.015625)"/>
       </defs>
       <use xlink:href="#DejaVuSans-2212"/>
       <use xlink:href="#DejaVuSans-31" x="83.789062"/>
       <use xlink:href="#DejaVuSans-2e" x="147.412109"/>
       <use xlink:href="#DejaVuSans-30" x="179.199219"/>
       <use xlink:href="#DejaVuSans-30" x="242.822266"/>
      </g>
     </g>
    </g>
    <g id="ytick_2">
     <g id="line2d_8">
      <g>
       <use xlink:href="#m2c688ae8e0" x="57.6" y="265.248075" style="stroke: #000000; stroke-width: 0.8"/>
      </g>
     </g>
     <g id="text_8">
      <!-- −0.75 -->
      <g transform="translate(19.954687 269.047294) scale(0.1 -0.1)">
       <defs>
        <path id="DejaVuSans-37" d="M 525 4666 
L 3525 4666 
L 3525 4397 
L 1831 0 
L 1172 0 
L 2766 4134 
L 525 4134 
L 525 4666 
z
" transform="scale(0.015625)"/>
        <path id="DejaVuSans-35" d="M 691 4666 
L 3169 4666 
L 3169 4134 
L 1269 4134 
L 1269 2991 
Q 1406 3038 1543 3061 
Q 1681 3084 1819 3084 
Q 2600 3084 3056 2656 
Q 3513 2228 3513 1497 
Q 3513 744 3044 326 
Q 2575 -91 1722 -91 
Q 1428 -91 1123 -41 
Q 819 9 494 109 
L 494 744 
Q 775 591 1075 516 
Q 1375 441 1709 441 
Q 2250 441 2565 725 
Q 2881 1009 2881 1497 
Q 2881 1984 2565 2268 
Q 2250 2553 1709 2553 
Q 1456 2553 1204 2497 
Q 953 2441 691 2322 
L 691 4666 
z
" transform="scale(0.015625)"/>
       </defs>
       <use xlink:href="#DejaVuSans-2212"/>
       <use xlink:href="#DejaVuSans-30" x="83.789062"/>
       <use xlink:href="#DejaVuSans-2e" x="147.412109"/>
       <use xlink:href="#DejaVuSans-37" x="179.199219"/>
       <use xlink:href="#DejaVuSans-35" x="242.822266"/>
      </g>
     </g>
    </g>
    <g id="ytick_3">
     <g id="line2d_9">
      <g>
       <use xlink:href="#m2c688ae8e0" x="57.6" y="235.008059" style="stroke: #000000; stroke-width: 0.8"/>
      </g>
     </g>
     <g id="text_9">
      <!-- −0.50 -->
      <g transform="translate(19.954687 238.807278) scale(0.1 -0.1)">
       <use xlink:href="#DejaVuSans-2212"/>
       <use xlink:href="#DejaVuSans-30" x="83.789062"/>
       <use xlink:href="#DejaVuSans-2e" x="147.412109"/>
       <use xlink:href="#DejaVuSans-35" x="179.199219"/>
       <use xlink:href="#DejaVuSans-30" x="242.822266"/>
      </g>
     </g>
    </g>
    <g id="ytick_4">
     <g id="line2d_10">
      <g>
       <use xlink:href="#m2c688ae8e0" x="57.6" y="204.768043" style="stroke: #000000; stroke-width: 0.8"/>
      </g>
     </g>
     <g id="text_10">
      <!-- −0.25 -->
      <g transform="translate(19.954687 208.567262) scale(0.1 -0.1)">
       <use xlink:href="#DejaVuSans-2212"/>
       <use xlink:href="#DejaVuSans-30" x="83.789062"/>
       <use xlink:href="#DejaVuSans-2e" x="147.412109"/>
       <use xlink:href="#DejaVuSans-32" x="179.199219"/>
       <use xlink:href="#DejaVuSans-35" x="242.822266"/>
      </g>
     </g>
    </g>
    <g id="ytick_5">
     <g id="line2d_11">
      <g>
       <use xlink:href="#m2c688ae8e0" x="57.6" y="174.528027" style="stroke: #000000; stroke-width: 0.8"/>
      </g>
     </g>
     <g id="text_11">
      <!-- 0.00 -->
      <g transform="translate(28.334375 178.327246) scale(0.1 -0.1)">
       <use xlink:href="#DejaVuSans-30"/>
       <use xlink:href="#DejaVuSans-2e" x="63.623047"/>
       <use xlink:href="#DejaVuSans-30" x="95.410156"/>
       <use xlink:href="#DejaVuSans-30" x="159.033203"/>
      </g>
     </g>
    </g>
    <g id="ytick_6">
     <g id="line2d_12">
      <g>
       <use xlink:href="#m2c688ae8e0" x="57.6" y="144.288011" style="stroke: #000000; stroke-width: 0.8"/>
      </g>
     </g>
     <g id="text_12">
      <!-- 0.25 -->
      <g transform="translate(28.334375 148.08723) scale(0.1 -0.1)">
       <use xlink:href="#DejaVuSans-30"/>
       <use xlink:href="#DejaVuSans-2e" x="63.623047"/>
       <use xlink:href="#DejaVuSans-32" x="95.410156"/>
       <use xlink:href="#DejaVuSans-35" x="159.033203"/>
      </g>
     </g>
    </g>
    <g id="ytick_7">
     <g id="line2d_13">
      <g>
       <use xlink:href="#m2c688ae8e0" x="57.6" y="114.047995" style="stroke: #000000; stroke-width: 0.8"/>
      </g>
     </g>
     <g id="text_13">
      <!-- 0.50 -->
      <g transform="translate(28.334375 117.847214) scale(0.1 -0.1)">
       <use xlink:href="#DejaVuSans-30"/>
       <use xlink:href="#DejaVuSans-2e" x="63.623047"/>
       <use xlink:href="#DejaVuSans-35" x="95.410156"/>
       <use xlink:href="#DejaVuSans-30" x="159.033203"/>
      </g>
     </g>
    </g>
    <g id="ytick_8">
     <g id="line2d_14">
      <g>
       <use xlink:href="#m2c688ae8e0" x="57.6" y="83.80798" style="stroke: #000000; stroke-width: 0.8"/>
      </g>
     </g>
     <g id="text_14">
      <!-- 0.75 -->
      <g transform="translate(28.334375 87.607198) scale(0.1 -0.1)">
       <use xlink:href="#DejaVuSans-30"/>
       <use xlink:href="#DejaVuSans-2e" x="63.623047"/>
       <use xlink:href="#DejaVuSans-37" x="95.410156"/>
       <use xlink:href="#DejaVuSans-35" x="159.033203"/>
      </g>
     </g>
    </g>
    <g id="ytick_9">
     <g id="line2d_15">
      <g>
       <use xlink:href="#m2c688ae8e0" x="57.6" y="53.567964" style="stroke: #000000; stroke-width: 0.8"/>
      </g>
     </g>
     <g id="text_15">
      <!-- 1.00 -->
      <g transform="translate(28.334375 57.367182) scale(0.1 -0.1)">
       <use xlink:href="#DejaVuSans-31"/>
       <use xlink:href="#DejaVuSans-2e" x="63.623047"/>
       <use xlink:href="#DejaVuSans-30" x="95.410156"/>
       <use xlink:href="#DejaVuSans-30" x="159.033203"/>
      </g>
     </g>
    </g>
   </g>
   <g id="line2d_16">
    <path d="M 73.832727 174.528027 
L 82.607174 142.232669 
L 87.481867 125.158867 
L 91.381622 112.282034 
L 94.956396 101.262003 
L 98.206192 92.010537 
L 101.131007 84.388094 
L 103.730844 78.22456 
L 106.0057 73.33655 
L 108.280557 68.945167 
L 110.555414 65.071965 
L 112.505291 62.178986 
L 114.455168 59.691153 
L 116.080066 57.933961 
L 117.704963 56.468777 
L 119.329861 55.299271 
L 120.954758 54.428371 
L 122.579656 53.858259 
L 123.879574 53.619721 
L 125.179492 53.574999 
L 126.47941 53.724163 
L 127.779328 54.066974 
L 129.079247 54.602883 
L 130.704144 55.542976 
L 132.329042 56.781065 
L 133.953939 58.314049 
L 135.578837 60.13809 
L 137.528714 62.704649 
L 139.478591 65.674458 
L 141.428468 69.036807 
L 143.703325 73.439421 
L 145.978182 78.338159 
L 148.578018 84.513265 
L 151.177854 91.265312 
L 154.10267 99.496968 
L 157.352465 109.353923 
L 160.92724 120.946212 
L 165.151974 135.471418 
L 170.351646 154.228296 
L 188.5505 220.732695 
L 192.450254 233.795427 
L 196.025029 245.02365 
L 199.274824 254.493574 
L 202.19964 262.334542 
L 204.799476 268.708266 
L 207.399312 274.478352 
L 209.674169 279.002833 
L 211.949025 283.014571 
L 213.898903 286.030108 
L 215.84878 288.643555 
L 217.798657 290.845487 
L 219.423554 292.360304 
L 221.048452 293.580012 
L 222.67335 294.501556 
L 224.298247 295.122629 
L 225.598165 295.402076 
L 226.898084 295.487764 
L 228.198002 295.379554 
L 229.49792 295.077621 
L 230.797838 294.582447 
L 232.422735 293.692975 
L 234.047633 292.505057 
L 235.672531 291.021666 
L 237.297428 289.24652 
L 239.247305 286.737536 
L 241.197183 283.82391 
L 243.14706 280.516149 
L 245.421916 276.174943 
L 247.696773 271.334873 
L 250.296609 265.223092 
L 252.896446 258.53001 
L 255.821261 250.359007 
L 259.071057 240.561817 
L 262.645831 229.025307 
L 266.870565 214.551683 
L 272.070238 195.835772 
L 290.91905 127.034155 
L 294.818804 114.045615 
L 298.393579 102.900813 
L 301.643374 93.518651 
L 304.56819 85.765629 
L 307.168026 79.476613 
L 309.767862 73.796818 
L 312.042719 69.355469 
L 314.317576 65.430286 
L 316.267453 62.491343 
L 318.21733 59.956419 
L 319.842228 58.159247 
L 321.467125 56.653519 
L 323.092023 55.443005 
L 324.716921 54.530738 
L 326.341818 53.919003 
L 327.641736 53.647052 
L 328.941654 53.568872 
L 330.241572 53.684589 
L 331.541491 53.994017 
L 332.841409 54.496659 
L 334.466306 55.395414 
L 336.091204 56.592534 
L 337.716102 58.085022 
L 339.340999 59.86914 
L 341.290876 62.38869 
L 343.240753 65.312629 
L 345.190631 68.630413 
L 347.465487 72.982897 
L 349.740344 77.833746 
L 352.34018 83.957167 
L 354.940016 90.661092 
L 357.864832 98.843255 
L 361.114627 108.651452 
L 364.689402 120.198247 
L 368.914136 134.681403 
L 374.113808 153.404923 
L 392.962621 222.194328 
L 396.862375 235.172785 
L 398.487273 240.332856 
L 398.487273 240.332856 
" clip-path="url(#p6a9517dbda)" style="fill: none; stroke: #0000ff; stroke-width: 1.5; stroke-linecap: square"/>
   </g>
   <g id="line2d_17">
    <path d="M 73.832727 276.312411 
L 76.107584 271.486959 
L 78.70742 265.390965 
L 81.307256 258.712595 
L 84.232072 250.55674 
L 87.481867 240.774494 
L 91.056642 229.251959 
L 94.956396 215.931028 
L 99.831089 198.46414 
L 107.955577 168.355571 
L 115.430106 140.95111 
L 119.97982 125.048355 
L 123.879574 112.178246 
L 127.454349 101.165696 
L 130.379165 92.810661 
L 133.30398 85.118414 
L 135.903817 78.887841 
L 138.503653 73.270265 
L 140.778509 68.886139 
L 143.053366 65.020483 
L 145.003243 62.134176 
L 146.95312 59.653174 
L 148.578018 57.901782 
L 150.202916 56.442478 
L 151.827813 55.278918 
L 153.452711 54.414015 
L 154.752629 53.938607 
L 156.052547 53.656503 
L 157.352465 53.568154 
L 158.652383 53.673704 
L 159.952301 53.972981 
L 161.252219 54.465508 
L 162.877117 55.351689 
L 164.502015 56.536346 
L 166.126912 58.016511 
L 167.75181 59.788477 
L 169.701687 62.293715 
L 171.651564 65.203685 
L 173.601441 68.507891 
L 175.876298 72.845098 
L 178.151155 77.681345 
L 180.750991 83.788998 
L 183.350827 90.478233 
L 186.275643 98.645276 
L 189.525438 108.43856 
L 193.100213 119.971418 
L 197.324947 134.441656 
L 202.524619 153.154859 
L 221.373432 221.960764 
L 225.273186 234.95287 
L 228.847961 246.101671 
L 232.097756 255.488033 
L 235.022572 263.245258 
L 237.622408 269.53832 
L 240.222244 275.222424 
L 242.497101 279.667738 
L 244.771957 283.597047 
L 246.721835 286.539639 
L 248.671712 289.078303 
L 250.296609 290.878652 
L 251.921507 292.387601 
L 253.546405 293.601374 
L 255.171302 294.516929 
L 256.7962 295.131973 
L 258.096118 295.406581 
L 259.396036 295.487422 
L 260.695954 295.374365 
L 261.995872 295.067594 
L 263.29579 294.567598 
L 264.920688 293.672133 
L 266.545586 292.478273 
L 268.170483 290.989009 
L 269.795381 289.20807 
L 271.745258 286.692264 
L 273.695135 283.771979 
L 275.645012 280.457746 
L 277.919869 276.109258 
L 280.194726 271.262228 
L 282.794562 265.14293 
L 285.394398 258.442846 
L 288.319214 250.264636 
L 291.569009 240.460337 
L 295.143784 228.917184 
L 299.368518 214.437402 
L 304.56819 195.716574 
L 323.417002 126.922822 
L 327.316757 113.940787 
L 330.891532 102.803279 
L 334.141327 93.428775 
L 337.066143 85.683417 
L 339.665979 79.401775 
L 342.265815 73.729835 
L 344.540672 69.295712 
L 346.815528 65.378049 
L 348.765405 62.445757 
L 350.715283 59.917647 
L 352.34018 58.126262 
L 353.965078 56.626404 
L 355.589975 55.421828 
L 357.214873 54.515552 
L 358.839771 53.909845 
L 360.139689 53.642735 
L 361.439607 53.569402 
L 362.739525 53.689965 
L 364.039443 54.004231 
L 365.339361 54.511694 
L 366.964259 55.416441 
L 368.589156 56.6195 
L 370.214054 58.11786 
L 371.838952 59.907767 
L 373.788829 62.434136 
L 375.738706 65.36473 
L 377.688583 68.68898 
L 379.96344 73.04874 
L 382.238296 77.906541 
L 384.838133 84.037469 
L 387.437969 90.748386 
L 390.362785 98.937744 
L 393.61258 108.753034 
L 397.187355 120.306455 
L 398.487273 124.678149 
L 398.487273 124.678149 
" clip-path="url(#p6a9517dbda)" style="fill: none; stroke: #008000; stroke-width: 1.5; stroke-linecap: square"/>
   </g>
   <g id="line2d_18">
    <path d="M 73.832727 284.516702 
L 75.782604 287.33982 
L 77.732482 289.756125 
L 79.357379 291.452621 
L 80.982277 292.85628 
L 82.607174 293.963589 
L 84.232072 294.771773 
L 85.53199 295.201565 
L 86.831908 295.437919 
L 88.131826 295.480455 
L 89.431744 295.329105 
L 90.731663 294.984113 
L 92.031581 294.44603 
L 93.656478 293.503237 
L 95.281376 292.262473 
L 96.906274 290.726845 
L 98.531171 288.900199 
L 100.481048 286.330571 
L 102.430925 283.357769 
L 104.380803 279.992514 
L 106.655659 275.586631 
L 108.930516 270.684772 
L 111.530352 264.506298 
L 114.130188 257.751118 
L 117.055004 249.51624 
L 120.304799 239.656116 
L 123.879574 228.060872 
L 128.104308 213.532943 
L 133.30398 194.773916 
L 151.502834 128.27289 
L 155.402588 115.213024 
L 158.977363 103.988031 
L 162.227158 94.521511 
L 165.151974 86.683958 
L 167.75181 80.313526 
L 170.351646 74.546952 
L 172.626503 70.025707 
L 174.90136 66.01734 
L 176.851237 63.004787 
L 178.801114 60.3944 
L 180.750991 58.195594 
L 182.375889 56.683423 
L 184.000786 55.466392 
L 185.625684 54.54755 
L 187.250581 53.929196 
L 188.5505 53.651931 
L 189.850418 53.56843 
L 191.150336 53.678826 
L 192.450254 53.982942 
L 193.750172 54.480291 
L 195.37507 55.372466 
L 196.999967 56.563064 
L 198.624865 58.049104 
L 200.249762 59.826864 
L 202.19964 62.338926 
L 204.149517 65.255555 
L 206.099394 68.566236 
L 208.374251 72.910727 
L 210.649107 77.753937 
L 213.248943 83.869109 
L 215.84878 90.565351 
L 218.773595 98.739605 
L 222.023391 108.540003 
L 225.598165 120.079511 
L 229.822899 134.555915 
L 235.022572 153.274046 
L 253.871384 222.072124 
L 257.771138 235.057731 
L 261.345913 246.199245 
L 264.595708 255.577954 
L 267.520524 263.327519 
L 270.12036 269.61321 
L 272.720197 275.289463 
L 274.995053 279.727553 
L 277.26991 283.649344 
L 279.219787 286.585288 
L 281.169664 289.117138 
L 282.794562 290.9117 
L 284.419459 292.414781 
L 286.044357 293.622616 
L 287.669255 294.532181 
L 289.294152 295.141197 
L 290.59407 295.410965 
L 291.893989 295.486958 
L 293.193907 295.369056 
L 294.493825 295.057446 
L 295.793743 294.552629 
L 297.41864 293.651171 
L 299.043538 292.451372 
L 300.668436 290.956235 
L 302.293333 289.169506 
L 304.24321 286.64688 
L 306.193088 283.719939 
L 308.142965 280.399238 
L 310.417821 276.043471 
L 312.692678 271.189486 
L 315.292514 265.062678 
L 317.892351 258.355598 
L 320.817166 250.170189 
L 324.066962 240.358791 
L 327.641736 228.809006 
L 331.86647 214.323081 
L 337.066143 195.597354 
L 355.589975 127.926527 
L 359.48973 114.886409 
L 363.064505 103.683661 
L 366.3143 94.240572 
L 369.239115 86.426519 
L 371.838952 80.078735 
L 374.438788 74.336313 
L 376.713645 69.837315 
L 378.988501 65.852118 
L 380.938378 62.860076 
L 382.888256 60.270722 
L 384.838133 58.093395 
L 386.46303 56.599407 
L 388.087928 55.400771 
L 389.712826 54.500486 
L 391.337723 53.900809 
L 392.637641 53.638539 
L 393.937559 53.570053 
L 395.237477 53.695463 
L 396.537396 54.014565 
L 397.837314 54.52685 
L 398.487273 54.855191 
L 398.487273 54.855191 
" clip-path="url(#p6a9517dbda)" style="fill: none; stroke: #bfbfbf; stroke-width: 1.5; stroke-linecap: square"/>
   </g>
   <g id="line2d_19">
    <path d="M 73.832727 191.597912 
L 79.682359 212.781515 
L 84.232072 228.435261 
L 87.806847 240.007844 
L 91.056642 249.843664 
L 93.981458 258.053856 
L 96.906274 265.586593 
L 99.50611 271.664107 
L 101.780966 276.472454 
L 104.055823 280.780478 
L 106.0057 284.058757 
L 107.955577 286.942055 
L 109.905455 289.419973 
L 111.530352 291.168749 
L 113.15525 292.6254 
L 114.780147 293.786278 
L 116.405045 294.648476 
L 117.704963 295.121708 
L 119.004881 295.401629 
L 120.304799 295.487791 
L 121.604717 295.380055 
L 122.904636 295.078595 
L 124.204554 294.583894 
L 125.829451 293.695009 
L 127.454349 292.507672 
L 129.079247 291.024857 
L 130.704144 289.250277 
L 132.654021 286.741961 
L 134.603898 283.828987 
L 136.553776 280.52186 
L 138.828632 276.181367 
L 141.103489 271.341978 
L 143.703325 265.230933 
L 146.303161 258.538537 
L 149.227977 250.36824 
L 152.477772 240.571746 
L 156.052547 229.035887 
L 160.277281 214.562866 
L 165.476953 195.847438 
L 184.325766 127.045055 
L 188.22552 114.055879 
L 191.800295 102.910363 
L 195.05009 93.527452 
L 197.974906 85.773681 
L 200.574742 79.483943 
L 203.174578 73.80338 
L 205.449435 69.361323 
L 207.724292 65.435405 
L 209.674169 62.495811 
L 211.624046 59.96022 
L 213.248943 58.162482 
L 214.873841 56.656179 
L 216.498739 55.445084 
L 218.123636 54.532231 
L 219.748534 53.919906 
L 221.048452 53.647481 
L 222.34837 53.568827 
L 223.648288 53.684069 
L 224.948206 53.993023 
L 226.248124 54.495194 
L 227.873022 55.393362 
L 229.49792 56.589901 
L 231.122817 58.081814 
L 232.747715 59.865365 
L 234.697592 62.384248 
L 236.647469 65.307536 
L 238.597346 68.624686 
L 240.872203 72.976458 
L 243.14706 77.826626 
L 245.746896 83.949312 
L 248.346732 90.652552 
L 251.271548 98.834011 
L 254.521343 108.641513 
L 258.096118 120.187659 
L 262.320852 134.670214 
L 267.520524 153.393254 
L 286.369337 222.183436 
L 290.269091 235.162531 
L 293.843866 246.296746 
L 297.093661 255.667793 
L 300.018477 263.409691 
L 302.618313 269.688004 
L 305.218149 275.356401 
L 307.493006 279.787263 
L 309.767862 283.701533 
L 311.71774 286.630824 
L 313.667617 289.155858 
L 315.292514 290.944632 
L 316.917412 292.441842 
L 318.54231 293.64374 
L 320.167207 294.547313 
L 321.792105 295.1503 
L 323.092023 295.415227 
L 324.391941 295.486374 
L 325.691859 295.363625 
L 326.991777 295.047178 
L 328.291695 294.537539 
L 329.916593 293.63009 
L 331.541491 292.424352 
L 333.166388 290.923344 
L 334.791286 289.130826 
L 336.741163 286.601383 
L 338.69104 283.667789 
L 340.640917 280.340623 
L 342.915774 275.977582 
L 345.190631 271.116646 
L 347.790467 264.982335 
L 350.390303 258.268267 
L 353.315119 250.075666 
L 356.564914 240.257179 
L 360.139689 228.700774 
L 364.364423 214.20872 
L 369.564095 195.478113 
L 388.087928 127.814816 
L 391.987682 114.7811 
L 395.562457 103.585556 
L 398.487273 95.058887 
L 398.487273 95.058887 
" clip-path="url(#p6a9517dbda)" style="fill: none; stroke: #ffdd44; stroke-width: 1.5; stroke-linecap: square"/>
   </g>
   <g id="line2d_20">
    <path d="M 73.832727 82.985149 
L 76.432563 89.603265 
L 79.357379 97.697023 
L 82.607174 107.417923 
L 86.181949 118.882986 
L 90.081704 132.153965 
L 94.956396 149.578157 
L 102.755905 178.456548 
L 110.555414 207.109292 
L 115.430106 224.167972 
L 119.329861 237.028299 
L 122.904636 248.029974 
L 125.829451 256.374847 
L 128.754267 264.055882 
L 131.354103 270.27568 
L 133.953939 275.881793 
L 136.228796 280.255381 
L 138.503653 284.110079 
L 140.45353 286.986702 
L 142.403407 289.457784 
L 144.028305 291.200758 
L 145.653202 292.651527 
L 147.2781 293.806458 
L 148.902998 294.662657 
L 150.202916 295.131064 
L 151.502834 295.406146 
L 152.802752 295.487461 
L 154.10267 295.374879 
L 155.402588 295.06858 
L 156.702506 294.569057 
L 158.327404 293.674178 
L 159.952301 292.4809 
L 161.577199 290.992211 
L 163.202097 289.211839 
L 165.151974 286.6967 
L 167.101851 283.777067 
L 169.051728 280.463467 
L 171.326585 276.115691 
L 173.601441 271.269343 
L 176.201278 265.15078 
L 178.801114 258.451381 
L 181.72593 250.273876 
L 184.975725 240.470273 
L 188.5505 228.927769 
L 192.775233 214.448589 
L 197.974906 195.728242 
L 216.823718 126.933717 
L 220.723473 113.951045 
L 224.298247 102.812822 
L 227.548043 93.437568 
L 230.472858 85.69146 
L 233.072695 79.409096 
L 235.672531 73.736386 
L 237.947387 69.301556 
L 240.222244 65.383157 
L 242.172121 62.450214 
L 244.121998 59.921437 
L 245.746896 58.129486 
L 247.371794 56.629053 
L 248.996691 55.423896 
L 250.621589 54.517033 
L 252.246486 53.910736 
L 253.546405 53.643152 
L 254.846323 53.569345 
L 256.146241 53.689434 
L 257.446159 54.003225 
L 258.746077 54.510217 
L 260.370975 55.414377 
L 261.995872 56.616856 
L 263.62077 58.114641 
L 265.245667 59.903981 
L 267.195545 62.429683 
L 269.145422 65.359625 
L 271.095299 68.683243 
L 273.370156 73.042291 
L 275.645012 77.899412 
L 278.244848 84.029605 
L 280.844685 90.739838 
L 283.7695 98.928492 
L 287.019296 108.743088 
L 290.59407 120.295861 
L 294.818804 134.784553 
L 300.018477 153.512483 
L 318.54231 221.179922 
L 322.442064 234.217154 
L 326.016839 245.416654 
L 329.266634 254.856323 
L 332.19145 262.666949 
L 334.791286 269.011431 
L 337.391122 274.750331 
L 339.665979 279.246086 
L 341.940835 283.227906 
L 343.890713 286.21696 
L 345.84059 288.803249 
L 347.790467 290.977447 
L 349.415364 292.468786 
L 351.040262 293.664743 
L 352.66516 294.562325 
L 354.290057 295.159282 
L 355.589975 295.419369 
L 356.889894 295.485668 
L 358.189812 295.358073 
L 359.48973 295.036788 
L 360.789648 294.522329 
L 362.414545 293.60889 
L 364.039443 292.397214 
L 365.664341 290.890337 
L 367.289238 289.092032 
L 369.239115 286.555774 
L 371.188993 283.61553 
L 373.13887 280.281902 
L 375.413726 275.911592 
L 377.688583 271.043711 
L 380.288419 264.901902 
L 382.888256 258.180851 
L 385.813071 249.981067 
L 389.062867 240.155502 
L 392.637641 228.592487 
L 396.862375 214.09432 
L 398.487273 208.326144 
L 398.487273 208.326144 
" clip-path="url(#p6a9517dbda)" style="fill: none; stroke: #ff334c; stroke-width: 1.5; stroke-linecap: square"/>
   </g>
   <g id="line2d_21">
    <path d="M 73.832727 58.536486 
L 75.457625 56.965145 
L 77.082523 55.688239 
L 78.70742 54.708965 
L 80.332318 54.029776 
L 81.632236 53.703655 
L 82.932154 53.571214 
L 84.232072 53.632665 
L 85.53199 53.887911 
L 86.831908 54.336542 
L 88.456806 55.168153 
L 90.081704 56.298699 
L 91.706601 57.725348 
L 93.331499 59.444528 
L 94.956396 61.451933 
L 96.906274 64.234147 
L 98.856151 67.414094 
L 101.131007 71.611347 
L 103.405864 76.313696 
L 105.680721 81.498062 
L 108.280557 87.980532 
L 111.205373 95.934163 
L 114.130188 104.525247 
L 117.379984 114.733618 
L 121.279738 127.764443 
L 125.829451 143.805097 
L 132.004062 166.476164 
L 143.378346 208.389958 
L 147.928059 224.278363 
L 151.827813 237.131933 
L 155.402588 248.1261 
L 158.327404 256.463959 
L 161.252219 264.137258 
L 163.852056 270.349623 
L 166.126912 275.282906 
L 168.401769 279.721703 
L 170.676626 283.64423 
L 172.626503 286.580825 
L 174.57638 289.113342 
L 176.201278 290.908471 
L 177.826175 292.412126 
L 179.451073 293.620542 
L 181.075971 294.530694 
L 182.700868 295.1403 
L 184.000786 295.410541 
L 185.300704 295.487009 
L 186.600622 295.369581 
L 187.900541 295.058445 
L 189.200459 294.554099 
L 190.825356 293.653228 
L 192.450254 292.45401 
L 194.075152 290.959448 
L 195.700049 289.173285 
L 197.649926 286.651327 
L 199.599803 283.725037 
L 201.549681 280.404969 
L 203.824537 276.049914 
L 206.099394 271.19661 
L 208.69923 265.070537 
L 211.299066 258.364142 
L 214.223882 250.179436 
L 217.473677 240.368733 
L 221.048452 228.819597 
L 225.273186 214.334272 
L 230.472858 195.609024 
L 248.996691 127.937464 
L 252.896446 114.89672 
L 256.47122 103.693268 
L 259.721016 94.249437 
L 262.645831 86.43464 
L 265.245667 80.086139 
L 267.845504 74.342954 
L 270.12036 69.843252 
L 272.395217 65.857323 
L 274.345094 62.864632 
L 276.294971 60.274613 
L 278.244848 58.096607 
L 279.869746 56.602045 
L 281.494644 55.402826 
L 283.119541 54.501955 
L 284.744439 53.901688 
L 286.044357 53.638944 
L 287.344275 53.569984 
L 288.644193 53.694919 
L 289.944111 54.013548 
L 291.244029 54.525361 
L 292.868927 55.435512 
L 294.493825 56.643929 
L 296.118722 58.147584 
L 297.74362 59.942713 
L 299.693497 62.47523 
L 301.643374 65.411824 
L 303.593251 68.741905 
L 305.868108 73.108226 
L 308.142965 77.972295 
L 310.742801 84.109989 
L 313.342637 90.827207 
L 316.267453 99.02305 
L 319.517248 108.84473 
L 323.092023 120.404118 
L 327.316757 134.898931 
L 332.516429 153.631733 
L 351.040262 221.291612 
L 354.940016 234.322436 
L 358.514791 245.514727 
L 361.764586 254.94681 
L 364.689402 262.749831 
L 367.289238 269.086985 
L 369.889075 274.818074 
L 372.163931 279.306638 
L 374.438788 283.280968 
L 376.388665 286.263393 
L 378.338542 288.842886 
L 380.288419 291.010146 
L 381.913317 292.495611 
L 383.538215 293.685628 
L 385.163112 294.577216 
L 386.78801 295.168144 
L 388.087928 295.423389 
L 389.387846 295.484841 
L 390.687764 295.3524 
L 391.987682 295.026278 
L 393.2876 294.506999 
L 394.912498 293.58757 
L 396.537396 292.369958 
L 398.162293 290.857213 
L 398.487273 290.519569 
L 398.487273 290.519569 
" clip-path="url(#p6a9517dbda)" style="fill: none; stroke: #7fff00; stroke-width: 1.5; stroke-linecap: square"/>
   </g>
   <g id="patch_3">
    <path d="M 57.6 307.584 
L 57.6 41.472 
" style="fill: none; stroke: #000000; stroke-width: 0.8; stroke-linejoin: miter; stroke-linecap: square"/>
   </g>
   <g id="patch_4">
    <path d="M 414.72 307.584 
L 414.72 41.472 
" style="fill: none; stroke: #000000; stroke-width: 0.8; stroke-linejoin: miter; stroke-linecap: square"/>
   </g>
   <g id="patch_5">
    <path d="M 57.6 307.584 
L 414.72 307.584 
" style="fill: none; stroke: #000000; stroke-width: 0.8; stroke-linejoin: miter; stroke-linecap: square"/>
   </g>
   <g id="patch_6">
    <path d="M 57.6 41.472 
L 414.72 41.472 
" style="fill: none; stroke: #000000; stroke-width: 0.8; stroke-linejoin: miter; stroke-linecap: square"/>
   </g>
  </g>
 </g>
 <defs>
  <clipPath id="p6a9517dbda">
   <rect x="57.6" y="41.472" width="357.12" height="266.112"/>
  </clipPath>
 </defs>
</svg>
