<?xml version="1.0" encoding="utf-8" standalone="no"?>
<!DOCTYPE svg PUBLIC "-//W3C//DTD SVG 1.1//EN"
  "http://www.w3.org/Graphics/SVG/1.1/DTD/svg11.dtd">
<svg xmlns:xlink="http://www.w3.org/1999/xlink" width="460.8pt" height="345.6pt" viewBox="0 0 460.8 345.6" xmlns="http://www.w3.org/2000/svg" version="1.1">
 <metadata>
  <rdf:RDF xmlns:dc="http://purl.org/dc/elements/1.1/" xmlns:cc="http://creativecommons.org/ns#" xmlns:rdf="http://www.w3.org/1999/02/22-rdf-syntax-ns#">
   <cc:Work>
    <dc:type rdf:resource="http://purl.org/dc/dcmitype/StillImage"/>
    <dc:date>2023-07-25T21:33:05.855810</dc:date>
    <dc:format>image/svg+xml</dc:format>
    <dc:creator>
     <cc:Agent>
      <dc:title>Matplotlib v3.7.1, https://matplotlib.org/</dc:title>
     </cc:Agent>
    </dc:creator>
   </cc:Work>
  </rdf:RDF>
 </metadata>
 <defs>
  <style type="text/css">*{stroke-linejoin: round; stroke-linecap: butt}</style>
 </defs>
 <g id="figure_1">
  <g id="patch_1">
   <path d="M 0 345.6 
L 460.8 345.6 
L 460.8 0 
L 0 0 
z
" style="fill: #ffffff"/>
  </g>
  <g id="axes_1">
   <g id="patch_2">
    <path d="M 57.6 307.584 
L 414.72 307.584 
L 414.72 41.472 
L 57.6 41.472 
z
" style="fill: #ffffff"/>
   </g>
   <g id="matplotlib.axis_1">
    <g id="xtick_1">
     <g id="line2d_1">
      <path d="M 73.832727 307.584 
L 73.832727 41.472 
" clip-path="url(#p97f295109a)" style="fill: none; stroke: #cccccc; stroke-width: 0.8; stroke-linecap: round"/>
     </g>
     <g id="line2d_2"/>
     <g id="text_1">
      <!-- 0 -->
      <g style="fill: #262626" transform="translate(71.052259 318.330875) scale(0.1 -0.1)">
       <defs>
        <path id="LiberationSans-30" d="M 3309 2203 
Q 3309 1100 2920 518 
Q 2531 -63 1772 -63 
Q 1013 -63 631 515 
Q 250 1094 250 2203 
Q 250 3338 620 3903 
Q 991 4469 1791 4469 
Q 2569 4469 2939 3897 
Q 3309 3325 3309 2203 
z
M 2738 2203 
Q 2738 3156 2517 3584 
Q 2297 4013 1791 4013 
Q 1272 4013 1045 3591 
Q 819 3169 819 2203 
Q 819 1266 1048 831 
Q 1278 397 1778 397 
Q 2275 397 2506 840 
Q 2738 1284 2738 2203 
z
" transform="scale(0.015625)"/>
       </defs>
       <use xlink:href="#LiberationSans-30"/>
      </g>
     </g>
    </g>
    <g id="xtick_2">
     <g id="line2d_3">
      <path d="M 138.763636 307.584 
L 138.763636 41.472 
" clip-path="url(#p97f295109a)" style="fill: none; stroke: #cccccc; stroke-width: 0.8; stroke-linecap: round"/>
     </g>
     <g id="line2d_4"/>
     <g id="text_2">
      <!-- 2 -->
      <g style="fill: #262626" transform="translate(135.983168 318.330875) scale(0.1 -0.1)">
       <defs>
        <path id="LiberationSans-32" d="M 322 0 
L 322 397 
Q 481 763 711 1042 
Q 941 1322 1194 1548 
Q 1447 1775 1695 1969 
Q 1944 2163 2144 2356 
Q 2344 2550 2467 2762 
Q 2591 2975 2591 3244 
Q 2591 3606 2378 3806 
Q 2166 4006 1788 4006 
Q 1428 4006 1195 3811 
Q 963 3616 922 3263 
L 347 3316 
Q 409 3844 795 4156 
Q 1181 4469 1788 4469 
Q 2453 4469 2811 4155 
Q 3169 3841 3169 3263 
Q 3169 3006 3051 2753 
Q 2934 2500 2703 2247 
Q 2472 1994 1819 1463 
Q 1459 1169 1246 933 
Q 1034 697 941 478 
L 3238 478 
L 3238 0 
L 322 0 
z
" transform="scale(0.015625)"/>
       </defs>
       <use xlink:href="#LiberationSans-32"/>
      </g>
     </g>
    </g>
    <g id="xtick_3">
     <g id="line2d_5">
      <path d="M 203.694545 307.584 
L 203.694545 41.472 
" clip-path="url(#p97f295109a)" style="fill: none; stroke: #cccccc; stroke-width: 0.8; stroke-linecap: round"/>
     </g>
     <g id="line2d_6"/>
     <g id="text_3">
      <!-- 4 -->
      <g style="fill: #262626" transform="translate(200.914077 318.330875) scale(0.1 -0.1)">
       <defs>
        <path id="LiberationSans-34" d="M 2753 997 
L 2753 0 
L 2222 0 
L 2222 997 
L 147 997 
L 147 1434 
L 2163 4403 
L 2753 4403 
L 2753 1441 
L 3372 1441 
L 3372 997 
L 2753 997 
z
M 2222 3769 
Q 2216 3750 2134 3603 
Q 2053 3456 2013 3397 
L 884 1734 
L 716 1503 
L 666 1441 
L 2222 1441 
L 2222 3769 
z
" transform="scale(0.015625)"/>
       </defs>
       <use xlink:href="#LiberationSans-34"/>
      </g>
     </g>
    </g>
    <g id="xtick_4">
     <g id="line2d_7">
      <path d="M 268.625455 307.584 
L 268.625455 41.472 
" clip-path="url(#p97f295109a)" style="fill: none; stroke: #cccccc; stroke-width: 0.8; stroke-linecap: round"/>
     </g>
     <g id="line2d_8"/>
     <g id="text_4">
      <!-- 6 -->
      <g style="fill: #262626" transform="translate(265.844986 318.330875) scale(0.1 -0.1)">
       <defs>
        <path id="LiberationSans-36" d="M 3278 1441 
Q 3278 744 2900 340 
Q 2522 -63 1856 -63 
Q 1113 -63 719 490 
Q 325 1044 325 2100 
Q 325 3244 734 3856 
Q 1144 4469 1900 4469 
Q 2897 4469 3156 3572 
L 2619 3475 
Q 2453 4013 1894 4013 
Q 1413 4013 1148 3564 
Q 884 3116 884 2266 
Q 1038 2550 1316 2698 
Q 1594 2847 1953 2847 
Q 2563 2847 2920 2465 
Q 3278 2084 3278 1441 
z
M 2706 1416 
Q 2706 1894 2472 2153 
Q 2238 2413 1819 2413 
Q 1425 2413 1183 2183 
Q 941 1953 941 1550 
Q 941 1041 1192 716 
Q 1444 391 1838 391 
Q 2244 391 2475 664 
Q 2706 938 2706 1416 
z
" transform="scale(0.015625)"/>
       </defs>
       <use xlink:href="#LiberationSans-36"/>
      </g>
     </g>
    </g>
    <g id="xtick_5">
     <g id="line2d_9">
      <path d="M 333.556364 307.584 
L 333.556364 41.472 
" clip-path="url(#p97f295109a)" style="fill: none; stroke: #cccccc; stroke-width: 0.8; stroke-linecap: round"/>
     </g>
     <g id="line2d_10"/>
     <g id="text_5">
      <!-- 8 -->
      <g style="fill: #262626" transform="translate(330.775895 318.330875) scale(0.1 -0.1)">
       <defs>
        <path id="LiberationSans-38" d="M 3281 1228 
Q 3281 619 2893 278 
Q 2506 -63 1781 -63 
Q 1075 -63 676 271 
Q 278 606 278 1222 
Q 278 1653 525 1947 
Q 772 2241 1156 2303 
L 1156 2316 
Q 797 2400 589 2681 
Q 381 2963 381 3341 
Q 381 3844 757 4156 
Q 1134 4469 1769 4469 
Q 2419 4469 2795 4162 
Q 3172 3856 3172 3334 
Q 3172 2956 2962 2675 
Q 2753 2394 2391 2322 
L 2391 2309 
Q 2813 2241 3047 1952 
Q 3281 1663 3281 1228 
z
M 2588 3303 
Q 2588 4050 1769 4050 
Q 1372 4050 1164 3862 
Q 956 3675 956 3303 
Q 956 2925 1170 2726 
Q 1384 2528 1775 2528 
Q 2172 2528 2380 2711 
Q 2588 2894 2588 3303 
z
M 2697 1281 
Q 2697 1691 2453 1898 
Q 2209 2106 1769 2106 
Q 1341 2106 1100 1882 
Q 859 1659 859 1269 
Q 859 359 1788 359 
Q 2247 359 2472 579 
Q 2697 800 2697 1281 
z
" transform="scale(0.015625)"/>
       </defs>
       <use xlink:href="#LiberationSans-38"/>
      </g>
     </g>
    </g>
    <g id="xtick_6">
     <g id="line2d_11">
      <path d="M 398.487273 307.584 
L 398.487273 41.472 
" clip-path="url(#p97f295109a)" style="fill: none; stroke: #cccccc; stroke-width: 0.8; stroke-linecap: round"/>
     </g>
     <g id="line2d_12"/>
     <g id="text_6">
      <!-- 10 -->
      <g style="fill: #262626" transform="translate(392.926335 318.330875) scale(0.1 -0.1)">
       <defs>
        <path id="LiberationSans-31" d="M 488 0 
L 488 478 
L 1609 478 
L 1609 3866 
L 616 3156 
L 616 3688 
L 1656 4403 
L 2175 4403 
L 2175 478 
L 3247 478 
L 3247 0 
L 488 0 
z
" transform="scale(0.015625)"/>
       </defs>
       <use xlink:href="#LiberationSans-31"/>
       <use xlink:href="#LiberationSans-30" x="55.615234"/>
      </g>
     </g>
    </g>
   </g>
   <g id="matplotlib.axis_2">
    <g id="ytick_1">
     <g id="line2d_13">
      <path d="M 57.6 295.488145 
L 414.72 295.488145 
" clip-path="url(#p97f295109a)" style="fill: none; stroke: #cccccc; stroke-width: 0.8; stroke-linecap: round"/>
     </g>
     <g id="line2d_14"/>
     <g id="text_7">
      <!-- −1.00 -->
      <g style="fill: #262626" transform="translate(28.798437 299.111583) scale(0.1 -0.1)">
       <defs>
        <path id="LiberationSans-2212" d="M 316 1900 
L 316 2356 
L 3425 2356 
L 3425 1900 
L 316 1900 
z
" transform="scale(0.015625)"/>
        <path id="LiberationSans-2e" d="M 584 0 
L 584 684 
L 1194 684 
L 1194 0 
L 584 0 
z
" transform="scale(0.015625)"/>
       </defs>
       <use xlink:href="#LiberationSans-2212"/>
       <use xlink:href="#LiberationSans-31" x="58.398438"/>
       <use xlink:href="#LiberationSans-2e" x="114.013672"/>
       <use xlink:href="#LiberationSans-30" x="141.796875"/>
       <use xlink:href="#LiberationSans-30" x="197.412109"/>
      </g>
     </g>
    </g>
    <g id="ytick_2">
     <g id="line2d_15">
      <path d="M 57.6 265.248127 
L 414.72 265.248127 
" clip-path="url(#p97f295109a)" style="fill: none; stroke: #cccccc; stroke-width: 0.8; stroke-linecap: round"/>
     </g>
     <g id="line2d_16"/>
     <g id="text_8">
      <!-- −0.75 -->
      <g style="fill: #262626" transform="translate(28.798437 268.871565) scale(0.1 -0.1)">
       <defs>
        <path id="LiberationSans-37" d="M 3238 3947 
Q 2563 2916 2284 2331 
Q 2006 1747 1867 1178 
Q 1728 609 1728 0 
L 1141 0 
Q 1141 844 1498 1776 
Q 1856 2709 2694 3925 
L 328 3925 
L 328 4403 
L 3238 4403 
L 3238 3947 
z
" transform="scale(0.015625)"/>
        <path id="LiberationSans-35" d="M 3291 1434 
Q 3291 738 2877 337 
Q 2463 -63 1728 -63 
Q 1113 -63 734 206 
Q 356 475 256 984 
L 825 1050 
Q 1003 397 1741 397 
Q 2194 397 2450 670 
Q 2706 944 2706 1422 
Q 2706 1838 2448 2094 
Q 2191 2350 1753 2350 
Q 1525 2350 1328 2278 
Q 1131 2206 934 2034 
L 384 2034 
L 531 4403 
L 3034 4403 
L 3034 3925 
L 1044 3925 
L 959 2528 
Q 1325 2809 1869 2809 
Q 2519 2809 2905 2428 
Q 3291 2047 3291 1434 
z
" transform="scale(0.015625)"/>
       </defs>
       <use xlink:href="#LiberationSans-2212"/>
       <use xlink:href="#LiberationSans-30" x="58.398438"/>
       <use xlink:href="#LiberationSans-2e" x="114.013672"/>
       <use xlink:href="#LiberationSans-37" x="141.796875"/>
       <use xlink:href="#LiberationSans-35" x="197.412109"/>
      </g>
     </g>
    </g>
    <g id="ytick_3">
     <g id="line2d_17">
      <path d="M 57.6 235.008109 
L 414.72 235.008109 
" clip-path="url(#p97f295109a)" style="fill: none; stroke: #cccccc; stroke-width: 0.8; stroke-linecap: round"/>
     </g>
     <g id="line2d_18"/>
     <g id="text_9">
      <!-- −0.50 -->
      <g style="fill: #262626" transform="translate(28.798437 238.631547) scale(0.1 -0.1)">
       <use xlink:href="#LiberationSans-2212"/>
       <use xlink:href="#LiberationSans-30" x="58.398438"/>
       <use xlink:href="#LiberationSans-2e" x="114.013672"/>
       <use xlink:href="#LiberationSans-35" x="141.796875"/>
       <use xlink:href="#LiberationSans-30" x="197.412109"/>
      </g>
     </g>
    </g>
    <g id="ytick_4">
     <g id="line2d_19">
      <path d="M 57.6 204.768091 
L 414.72 204.768091 
" clip-path="url(#p97f295109a)" style="fill: none; stroke: #cccccc; stroke-width: 0.8; stroke-linecap: round"/>
     </g>
     <g id="line2d_20"/>
     <g id="text_10">
      <!-- −0.25 -->
      <g style="fill: #262626" transform="translate(28.798437 208.391528) scale(0.1 -0.1)">
       <use xlink:href="#LiberationSans-2212"/>
       <use xlink:href="#LiberationSans-30" x="58.398438"/>
       <use xlink:href="#LiberationSans-2e" x="114.013672"/>
       <use xlink:href="#LiberationSans-32" x="141.796875"/>
       <use xlink:href="#LiberationSans-35" x="197.412109"/>
      </g>
     </g>
    </g>
    <g id="ytick_5">
     <g id="line2d_21">
      <path d="M 57.6 174.528073 
L 414.72 174.528073 
" clip-path="url(#p97f295109a)" style="fill: none; stroke: #cccccc; stroke-width: 0.8; stroke-linecap: round"/>
     </g>
     <g id="line2d_22"/>
     <g id="text_11">
      <!-- 0.00 -->
      <g style="fill: #262626" transform="translate(34.639063 178.15151) scale(0.1 -0.1)">
       <use xlink:href="#LiberationSans-30"/>
       <use xlink:href="#LiberationSans-2e" x="55.615234"/>
       <use xlink:href="#LiberationSans-30" x="83.398438"/>
       <use xlink:href="#LiberationSans-30" x="139.013672"/>
      </g>
     </g>
    </g>
    <g id="ytick_6">
     <g id="line2d_23">
      <path d="M 57.6 144.288055 
L 414.72 144.288055 
" clip-path="url(#p97f295109a)" style="fill: none; stroke: #cccccc; stroke-width: 0.8; stroke-linecap: round"/>
     </g>
     <g id="line2d_24"/>
     <g id="text_12">
      <!-- 0.25 -->
      <g style="fill: #262626" transform="translate(34.639063 147.911492) scale(0.1 -0.1)">
       <use xlink:href="#LiberationSans-30"/>
       <use xlink:href="#LiberationSans-2e" x="55.615234"/>
       <use xlink:href="#LiberationSans-32" x="83.398438"/>
       <use xlink:href="#LiberationSans-35" x="139.013672"/>
      </g>
     </g>
    </g>
    <g id="ytick_7">
     <g id="line2d_25">
      <path d="M 57.6 114.048036 
L 414.72 114.048036 
" clip-path="url(#p97f295109a)" style="fill: none; stroke: #cccccc; stroke-width: 0.8; stroke-linecap: round"/>
     </g>
     <g id="line2d_26"/>
     <g id="text_13">
      <!-- 0.50 -->
      <g style="fill: #262626" transform="translate(34.639063 117.671474) scale(0.1 -0.1)">
       <use xlink:href="#LiberationSans-30"/>
       <use xlink:href="#LiberationSans-2e" x="55.615234"/>
       <use xlink:href="#LiberationSans-35" x="83.398438"/>
       <use xlink:href="#LiberationSans-30" x="139.013672"/>
      </g>
     </g>
    </g>
    <g id="ytick_8">
     <g id="line2d_27">
      <path d="M 57.6 83.808018 
L 414.72 83.808018 
" clip-path="url(#p97f295109a)" style="fill: none; stroke: #cccccc; stroke-width: 0.8; stroke-linecap: round"/>
     </g>
     <g id="line2d_28"/>
     <g id="text_14">
      <!-- 0.75 -->
      <g style="fill: #262626" transform="translate(34.639063 87.431456) scale(0.1 -0.1)">
       <use xlink:href="#LiberationSans-30"/>
       <use xlink:href="#LiberationSans-2e" x="55.615234"/>
       <use xlink:href="#LiberationSans-37" x="83.398438"/>
       <use xlink:href="#LiberationSans-35" x="139.013672"/>
      </g>
     </g>
    </g>
    <g id="ytick_9">
     <g id="line2d_29">
      <path d="M 57.6 53.568 
L 414.72 53.568 
" clip-path="url(#p97f295109a)" style="fill: none; stroke: #cccccc; stroke-width: 0.8; stroke-linecap: round"/>
     </g>
     <g id="line2d_30"/>
     <g id="text_15">
      <!-- 1.00 -->
      <g style="fill: #262626" transform="translate(34.639063 57.191438) scale(0.1 -0.1)">
       <use xlink:href="#LiberationSans-31"/>
       <use xlink:href="#LiberationSans-2e" x="55.615234"/>
       <use xlink:href="#LiberationSans-30" x="83.398438"/>
       <use xlink:href="#LiberationSans-30" x="139.013672"/>
      </g>
     </g>
    </g>
   </g>
   <g id="line2d_31">
    <path d="M 73.832727 174.528073 
L 82.607174 142.232712 
L 87.481867 125.158909 
L 91.381622 112.282075 
L 94.956396 101.262043 
L 98.206192 92.010577 
L 101.131007 84.388132 
L 103.730844 78.224599 
L 106.0057 73.336588 
L 108.280557 68.945205 
L 110.555414 65.072002 
L 112.505291 62.179023 
L 114.455168 59.69119 
L 116.080066 57.933997 
L 117.704963 56.468813 
L 119.329861 55.299307 
L 120.954758 54.428407 
L 122.579656 53.858295 
L 123.879574 53.619758 
L 125.179492 53.575035 
L 126.47941 53.724199 
L 127.779328 54.06701 
L 129.079247 54.60292 
L 130.704144 55.543013 
L 132.329042 56.781101 
L 133.953939 58.314086 
L 135.578837 60.138126 
L 137.528714 62.704686 
L 139.478591 65.674496 
L 141.428468 69.036845 
L 143.703325 73.439459 
L 145.978182 78.338197 
L 148.578018 84.513304 
L 151.177854 91.265351 
L 154.10267 99.497008 
L 157.352465 109.353964 
L 160.92724 120.946254 
L 165.151974 135.47146 
L 170.351646 154.22834 
L 188.5505 220.732744 
L 192.450254 233.795476 
L 196.025029 245.023701 
L 199.274824 254.493625 
L 202.19964 262.334594 
L 204.799476 268.708319 
L 207.399312 274.478405 
L 209.674169 279.002886 
L 211.949025 283.014625 
L 213.898903 286.030162 
L 215.84878 288.643609 
L 217.798657 290.845541 
L 219.423554 292.360358 
L 221.048452 293.580066 
L 222.67335 294.501611 
L 224.298247 295.122683 
L 225.598165 295.402131 
L 226.898084 295.487818 
L 228.198002 295.379609 
L 229.49792 295.077675 
L 230.797838 294.582501 
L 232.422735 293.69303 
L 234.047633 292.505111 
L 235.672531 291.021721 
L 237.297428 289.246574 
L 239.247305 286.737589 
L 241.197183 283.823963 
L 243.14706 280.516202 
L 245.421916 276.174996 
L 247.696773 271.334926 
L 250.296609 265.223144 
L 252.896446 258.530061 
L 255.821261 250.359058 
L 259.071057 240.561867 
L 262.645831 229.025356 
L 266.870565 214.551731 
L 272.070238 195.835819 
L 290.91905 127.034197 
L 294.818804 114.045656 
L 298.393579 102.900853 
L 301.643374 93.51869 
L 304.56819 85.765668 
L 307.168026 79.476651 
L 309.767862 73.796856 
L 312.042719 69.355506 
L 314.317576 65.430323 
L 316.267453 62.49138 
L 318.21733 59.956456 
L 319.842228 58.159284 
L 321.467125 56.653555 
L 323.092023 55.443042 
L 324.716921 54.530775 
L 326.341818 53.919039 
L 327.641736 53.647088 
L 328.941654 53.568909 
L 330.241572 53.684625 
L 331.541491 53.994053 
L 332.841409 54.496695 
L 334.466306 55.39545 
L 336.091204 56.592571 
L 337.716102 58.085059 
L 339.340999 59.869177 
L 341.290876 62.388727 
L 343.240753 65.312666 
L 345.190631 68.63045 
L 347.465487 72.982935 
L 349.740344 77.833784 
L 352.34018 83.957205 
L 354.940016 90.661131 
L 357.864832 98.843295 
L 361.114627 108.651492 
L 364.689402 120.198288 
L 368.914136 134.681446 
L 374.113808 153.404966 
L 392.962621 222.194377 
L 396.862375 235.172835 
L 398.487273 240.332906 
L 398.487273 240.332906 
" clip-path="url(#p97f295109a)" style="fill: none; stroke: #1f77b4; stroke-width: 1.5; stroke-linecap: round"/>
   </g>
   <g id="line2d_32">
    <path d="M 73.832727 53.568 
L 75.132645 53.664949 
L 76.432563 53.95564 
L 77.732482 54.439608 
L 79.357379 55.315152 
L 80.982277 56.489262 
L 82.607174 57.958999 
L 84.232072 59.720682 
L 86.181949 62.213805 
L 88.131826 65.111949 
L 90.081704 68.40466 
L 92.35656 72.728929 
L 94.631417 77.552809 
L 97.231253 83.647105 
L 99.831089 90.323892 
L 102.755905 98.478117 
L 106.0057 108.258755 
L 109.580475 119.779785 
L 113.480229 133.099412 
L 118.354922 150.565191 
L 126.47941 180.673258 
L 133.953939 208.078757 
L 138.503653 223.982829 
L 142.403407 236.854457 
L 145.978182 247.868696 
L 148.902998 256.225309 
L 151.827813 263.919299 
L 154.427649 270.151545 
L 157.027486 275.770902 
L 159.302342 280.156665 
L 161.577199 284.024024 
L 163.527076 286.911836 
L 165.476953 289.394379 
L 167.101851 291.14708 
L 168.726749 292.60771 
L 170.351646 293.772611 
L 171.976544 294.638867 
L 173.601441 295.204307 
L 174.90136 295.439094 
L 176.201278 295.480063 
L 177.501196 295.327146 
L 178.801114 294.98059 
L 180.101032 294.440949 
L 181.72593 293.496221 
L 183.350827 292.253538 
L 184.975725 290.716015 
L 186.600622 288.8875 
L 188.5505 286.315673 
L 190.500377 283.340725 
L 192.450254 279.973386 
L 194.725111 275.565159 
L 196.999967 270.661063 
L 199.599803 264.480174 
L 202.19964 257.722748 
L 205.124455 249.485562 
L 208.374251 239.623165 
L 211.949025 228.025804 
L 216.173759 213.495922 
L 221.373432 194.735356 
L 239.572285 128.236752 
L 243.472039 115.178941 
L 247.046814 103.956264 
L 250.296609 94.492185 
L 253.221425 86.657081 
L 255.821261 80.289011 
L 258.421097 74.524955 
L 260.695954 70.00603 
L 262.970811 66.00008 
L 264.920688 62.989666 
L 266.870565 60.381474 
L 268.820442 58.184909 
L 270.44534 56.674636 
L 272.070238 55.459525 
L 273.695135 54.542619 
L 275.320033 53.926215 
L 276.619951 53.650515 
L 277.919869 53.568582 
L 279.219787 53.680545 
L 280.519705 53.986226 
L 281.819623 54.485134 
L 283.444521 55.379247 
L 285.069419 56.571767 
L 286.694316 58.059707 
L 288.319214 59.83934 
L 290.269091 62.353608 
L 292.218968 65.272391 
L 294.168845 68.585165 
L 296.443702 72.932012 
L 298.718559 77.777473 
L 301.318395 83.895076 
L 303.918231 90.593582 
L 306.843047 98.770168 
L 310.092842 108.572865 
L 313.667617 120.114522 
L 317.892351 134.592918 
L 323.092023 153.31264 
L 341.940835 222.108177 
L 345.84059 235.091681 
L 349.415364 246.230836 
L 352.66516 255.607069 
L 355.589975 263.354156 
L 358.189812 269.637462 
L 360.789648 275.311175 
L 363.064505 279.746928 
L 365.339361 283.666288 
L 367.289238 286.60008 
L 369.239115 289.129727 
L 370.864013 290.922417 
L 372.488911 292.4236 
L 374.113808 293.629515 
L 375.738706 294.537142 
L 377.363604 295.144209 
L 378.663522 295.412411 
L 379.96344 295.486837 
L 381.263358 295.367367 
L 382.563276 295.054193 
L 383.863194 294.547816 
L 385.488092 293.644421 
L 387.112989 292.442701 
L 388.737887 290.945665 
L 390.362785 289.157063 
L 392.312662 286.632232 
L 394.262539 283.703138 
L 396.212416 280.380346 
L 398.487273 276.022226 
L 398.487273 276.022226 
" clip-path="url(#p97f295109a)" style="fill: none; stroke: #ff7f0e; stroke-width: 1.5; stroke-linecap: round"/>
   </g>
   <g id="patch_3">
    <path d="M 57.6 307.584 
L 57.6 41.472 
" style="fill: none; stroke: #cccccc; stroke-linejoin: miter; stroke-linecap: square"/>
   </g>
   <g id="patch_4">
    <path d="M 414.72 307.584 
L 414.72 41.472 
" style="fill: none; stroke: #cccccc; stroke-linejoin: miter; stroke-linecap: square"/>
   </g>
   <g id="patch_5">
    <path d="M 57.6 307.584 
L 414.72 307.584 
" style="fill: none; stroke: #cccccc; stroke-linejoin: miter; stroke-linecap: square"/>
   </g>
   <g id="patch_6">
    <path d="M 57.6 41.472 
L 414.72 41.472 
" style="fill: none; stroke: #cccccc; stroke-linejoin: miter; stroke-linecap: square"/>
   </g>
  </g>
 </g>
 <defs>
  <clipPath id="p97f295109a">
   <rect x="57.6" y="41.472" width="357.12" height="266.112"/>
  </clipPath>
 </defs>
</svg>
