<?xml version="1.0" encoding="utf-8" standalone="no"?>
<!DOCTYPE svg PUBLIC "-//W3C//DTD SVG 1.1//EN"
  "http://www.w3.org/Graphics/SVG/1.1/DTD/svg11.dtd">
<svg xmlns:xlink="http://www.w3.org/1999/xlink" width="460.8pt" height="345.6pt" viewBox="0 0 460.8 345.6" xmlns="http://www.w3.org/2000/svg" version="1.1">
 <metadata>
  <rdf:RDF xmlns:dc="http://purl.org/dc/elements/1.1/" xmlns:cc="http://creativecommons.org/ns#" xmlns:rdf="http://www.w3.org/1999/02/22-rdf-syntax-ns#">
   <cc:Work>
    <dc:type rdf:resource="http://purl.org/dc/dcmitype/StillImage"/>
    <dc:date>2023-07-25T21:16:29.929650</dc:date>
    <dc:format>image/svg+xml</dc:format>
    <dc:creator>
     <cc:Agent>
      <dc:title>Matplotlib v3.7.1, https://matplotlib.org/</dc:title>
     </cc:Agent>
    </dc:creator>
   </cc:Work>
  </rdf:RDF>
 </metadata>
 <defs>
  <style type="text/css">*{stroke-linejoin: round; stroke-linecap: butt}</style>
 </defs>
 <g id="figure_1">
  <g id="patch_1">
   <path d="M 0 345.6 
L 460.8 345.6 
L 460.8 0 
L 0 0 
z
" style="fill: #ffffff"/>
  </g>
  <g id="axes_1">
   <g id="patch_2">
    <path d="M 57.6 307.584 
L 414.72 307.584 
L 414.72 41.472 
L 57.6 41.472 
z
" style="fill: #ffffff"/>
   </g>
   <g id="matplotlib.axis_1">
    <g id="xtick_1">
     <g id="line2d_1">
      <defs>
       <path id="m9c35729688" d="M 0 0 
L 0 3.5 
" style="stroke: #000000; stroke-width: 0.8"/>
      </defs>
      <g>
       <use xlink:href="#m9c35729688" x="73.832727" y="307.584" style="stroke: #000000; stroke-width: 0.8"/>
      </g>
     </g>
     <g id="text_1">
      <!-- 0 -->
      <g transform="translate(70.651477 322.182437) scale(0.1 -0.1)">
       <defs>
        <path id="DejaVuSans-30" d="M 2034 4250 
Q 1547 4250 1301 3770 
Q 1056 3291 1056 2328 
Q 1056 1369 1301 889 
Q 1547 409 2034 409 
Q 2525 409 2770 889 
Q 3016 1369 3016 2328 
Q 3016 3291 2770 3770 
Q 2525 4250 2034 4250 
z
M 2034 4750 
Q 2819 4750 3233 4129 
Q 3647 3509 3647 2328 
Q 3647 1150 3233 529 
Q 2819 -91 2034 -91 
Q 1250 -91 836 529 
Q 422 1150 422 2328 
Q 422 3509 836 4129 
Q 1250 4750 2034 4750 
z
" transform="scale(0.015625)"/>
       </defs>
       <use xlink:href="#DejaVuSans-30"/>
      </g>
     </g>
    </g>
    <g id="xtick_2">
     <g id="line2d_2">
      <g>
       <use xlink:href="#m9c35729688" x="138.763636" y="307.584" style="stroke: #000000; stroke-width: 0.8"/>
      </g>
     </g>
     <g id="text_2">
      <!-- 2 -->
      <g transform="translate(135.582386 322.182437) scale(0.1 -0.1)">
       <defs>
        <path id="DejaVuSans-32" d="M 1228 531 
L 3431 531 
L 3431 0 
L 469 0 
L 469 531 
Q 828 903 1448 1529 
Q 2069 2156 2228 2338 
Q 2531 2678 2651 2914 
Q 2772 3150 2772 3378 
Q 2772 3750 2511 3984 
Q 2250 4219 1831 4219 
Q 1534 4219 1204 4116 
Q 875 4013 500 3803 
L 500 4441 
Q 881 4594 1212 4672 
Q 1544 4750 1819 4750 
Q 2544 4750 2975 4387 
Q 3406 4025 3406 3419 
Q 3406 3131 3298 2873 
Q 3191 2616 2906 2266 
Q 2828 2175 2409 1742 
Q 1991 1309 1228 531 
z
" transform="scale(0.015625)"/>
       </defs>
       <use xlink:href="#DejaVuSans-32"/>
      </g>
     </g>
    </g>
    <g id="xtick_3">
     <g id="line2d_3">
      <g>
       <use xlink:href="#m9c35729688" x="203.694545" y="307.584" style="stroke: #000000; stroke-width: 0.8"/>
      </g>
     </g>
     <g id="text_3">
      <!-- 4 -->
      <g transform="translate(200.513295 322.182437) scale(0.1 -0.1)">
       <defs>
        <path id="DejaVuSans-34" d="M 2419 4116 
L 825 1625 
L 2419 1625 
L 2419 4116 
z
M 2253 4666 
L 3047 4666 
L 3047 1625 
L 3713 1625 
L 3713 1100 
L 3047 1100 
L 3047 0 
L 2419 0 
L 2419 1100 
L 313 1100 
L 313 1709 
L 2253 4666 
z
" transform="scale(0.015625)"/>
       </defs>
       <use xlink:href="#DejaVuSans-34"/>
      </g>
     </g>
    </g>
    <g id="xtick_4">
     <g id="line2d_4">
      <g>
       <use xlink:href="#m9c35729688" x="268.625455" y="307.584" style="stroke: #000000; stroke-width: 0.8"/>
      </g>
     </g>
     <g id="text_4">
      <!-- 6 -->
      <g transform="translate(265.444205 322.182437) scale(0.1 -0.1)">
       <defs>
        <path id="DejaVuSans-36" d="M 2113 2584 
Q 1688 2584 1439 2293 
Q 1191 2003 1191 1497 
Q 1191 994 1439 701 
Q 1688 409 2113 409 
Q 2538 409 2786 701 
Q 3034 994 3034 1497 
Q 3034 2003 2786 2293 
Q 2538 2584 2113 2584 
z
M 3366 4563 
L 3366 3988 
Q 3128 4100 2886 4159 
Q 2644 4219 2406 4219 
Q 1781 4219 1451 3797 
Q 1122 3375 1075 2522 
Q 1259 2794 1537 2939 
Q 1816 3084 2150 3084 
Q 2853 3084 3261 2657 
Q 3669 2231 3669 1497 
Q 3669 778 3244 343 
Q 2819 -91 2113 -91 
Q 1303 -91 875 529 
Q 447 1150 447 2328 
Q 447 3434 972 4092 
Q 1497 4750 2381 4750 
Q 2619 4750 2861 4703 
Q 3103 4656 3366 4563 
z
" transform="scale(0.015625)"/>
       </defs>
       <use xlink:href="#DejaVuSans-36"/>
      </g>
     </g>
    </g>
    <g id="xtick_5">
     <g id="line2d_5">
      <g>
       <use xlink:href="#m9c35729688" x="333.556364" y="307.584" style="stroke: #000000; stroke-width: 0.8"/>
      </g>
     </g>
     <g id="text_5">
      <!-- 8 -->
      <g transform="translate(330.375114 322.182437) scale(0.1 -0.1)">
       <defs>
        <path id="DejaVuSans-38" d="M 2034 2216 
Q 1584 2216 1326 1975 
Q 1069 1734 1069 1313 
Q 1069 891 1326 650 
Q 1584 409 2034 409 
Q 2484 409 2743 651 
Q 3003 894 3003 1313 
Q 3003 1734 2745 1975 
Q 2488 2216 2034 2216 
z
M 1403 2484 
Q 997 2584 770 2862 
Q 544 3141 544 3541 
Q 544 4100 942 4425 
Q 1341 4750 2034 4750 
Q 2731 4750 3128 4425 
Q 3525 4100 3525 3541 
Q 3525 3141 3298 2862 
Q 3072 2584 2669 2484 
Q 3125 2378 3379 2068 
Q 3634 1759 3634 1313 
Q 3634 634 3220 271 
Q 2806 -91 2034 -91 
Q 1263 -91 848 271 
Q 434 634 434 1313 
Q 434 1759 690 2068 
Q 947 2378 1403 2484 
z
M 1172 3481 
Q 1172 3119 1398 2916 
Q 1625 2713 2034 2713 
Q 2441 2713 2670 2916 
Q 2900 3119 2900 3481 
Q 2900 3844 2670 4047 
Q 2441 4250 2034 4250 
Q 1625 4250 1398 4047 
Q 1172 3844 1172 3481 
z
" transform="scale(0.015625)"/>
       </defs>
       <use xlink:href="#DejaVuSans-38"/>
      </g>
     </g>
    </g>
    <g id="xtick_6">
     <g id="line2d_6">
      <g>
       <use xlink:href="#m9c35729688" x="398.487273" y="307.584" style="stroke: #000000; stroke-width: 0.8"/>
      </g>
     </g>
     <g id="text_6">
      <!-- 10 -->
      <g transform="translate(392.124773 322.182437) scale(0.1 -0.1)">
       <defs>
        <path id="DejaVuSans-31" d="M 794 531 
L 1825 531 
L 1825 4091 
L 703 3866 
L 703 4441 
L 1819 4666 
L 2450 4666 
L 2450 531 
L 3481 531 
L 3481 0 
L 794 0 
L 794 531 
z
" transform="scale(0.015625)"/>
       </defs>
       <use xlink:href="#DejaVuSans-31"/>
       <use xlink:href="#DejaVuSans-30" x="63.623047"/>
      </g>
     </g>
    </g>
   </g>
   <g id="matplotlib.axis_2">
    <g id="ytick_1">
     <g id="line2d_7">
      <defs>
       <path id="m1671f20616" d="M 0 0 
L -3.5 0 
" style="stroke: #000000; stroke-width: 0.8"/>
      </defs>
      <g>
       <use xlink:href="#m1671f20616" x="57.6" y="295.488145" style="stroke: #000000; stroke-width: 0.8"/>
      </g>
     </g>
     <g id="text_7">
      <!-- −1.00 -->
      <g transform="translate(19.954687 299.287364) scale(0.1 -0.1)">
       <defs>
        <path id="DejaVuSans-2212" d="M 678 2272 
L 4684 2272 
L 4684 1741 
L 678 1741 
L 678 2272 
z
" transform="scale(0.015625)"/>
        <path id="DejaVuSans-2e" d="M 684 794 
L 1344 794 
L 1344 0 
L 684 0 
L 684 794 
z
" transform="scale(0.015625)"/>
       </defs>
       <use xlink:href="#DejaVuSans-2212"/>
       <use xlink:href="#DejaVuSans-31" x="83.789062"/>
       <use xlink:href="#DejaVuSans-2e" x="147.412109"/>
       <use xlink:href="#DejaVuSans-30" x="179.199219"/>
       <use xlink:href="#DejaVuSans-30" x="242.822266"/>
      </g>
     </g>
    </g>
    <g id="ytick_2">
     <g id="line2d_8">
      <g>
       <use xlink:href="#m1671f20616" x="57.6" y="265.248127" style="stroke: #000000; stroke-width: 0.8"/>
      </g>
     </g>
     <g id="text_8">
      <!-- −0.75 -->
      <g transform="translate(19.954687 269.047346) scale(0.1 -0.1)">
       <defs>
        <path id="DejaVuSans-37" d="M 525 4666 
L 3525 4666 
L 3525 4397 
L 1831 0 
L 1172 0 
L 2766 4134 
L 525 4134 
L 525 4666 
z
" transform="scale(0.015625)"/>
        <path id="DejaVuSans-35" d="M 691 4666 
L 3169 4666 
L 3169 4134 
L 1269 4134 
L 1269 2991 
Q 1406 3038 1543 3061 
Q 1681 3084 1819 3084 
Q 2600 3084 3056 2656 
Q 3513 2228 3513 1497 
Q 3513 744 3044 326 
Q 2575 -91 1722 -91 
Q 1428 -91 1123 -41 
Q 819 9 494 109 
L 494 744 
Q 775 591 1075 516 
Q 1375 441 1709 441 
Q 2250 441 2565 725 
Q 2881 1009 2881 1497 
Q 2881 1984 2565 2268 
Q 2250 2553 1709 2553 
Q 1456 2553 1204 2497 
Q 953 2441 691 2322 
L 691 4666 
z
" transform="scale(0.015625)"/>
       </defs>
       <use xlink:href="#DejaVuSans-2212"/>
       <use xlink:href="#DejaVuSans-30" x="83.789062"/>
       <use xlink:href="#DejaVuSans-2e" x="147.412109"/>
       <use xlink:href="#DejaVuSans-37" x="179.199219"/>
       <use xlink:href="#DejaVuSans-35" x="242.822266"/>
      </g>
     </g>
    </g>
    <g id="ytick_3">
     <g id="line2d_9">
      <g>
       <use xlink:href="#m1671f20616" x="57.6" y="235.008109" style="stroke: #000000; stroke-width: 0.8"/>
      </g>
     </g>
     <g id="text_9">
      <!-- −0.50 -->
      <g transform="translate(19.954687 238.807328) scale(0.1 -0.1)">
       <use xlink:href="#DejaVuSans-2212"/>
       <use xlink:href="#DejaVuSans-30" x="83.789062"/>
       <use xlink:href="#DejaVuSans-2e" x="147.412109"/>
       <use xlink:href="#DejaVuSans-35" x="179.199219"/>
       <use xlink:href="#DejaVuSans-30" x="242.822266"/>
      </g>
     </g>
    </g>
    <g id="ytick_4">
     <g id="line2d_10">
      <g>
       <use xlink:href="#m1671f20616" x="57.6" y="204.768091" style="stroke: #000000; stroke-width: 0.8"/>
      </g>
     </g>
     <g id="text_10">
      <!-- −0.25 -->
      <g transform="translate(19.954687 208.56731) scale(0.1 -0.1)">
       <use xlink:href="#DejaVuSans-2212"/>
       <use xlink:href="#DejaVuSans-30" x="83.789062"/>
       <use xlink:href="#DejaVuSans-2e" x="147.412109"/>
       <use xlink:href="#DejaVuSans-32" x="179.199219"/>
       <use xlink:href="#DejaVuSans-35" x="242.822266"/>
      </g>
     </g>
    </g>
    <g id="ytick_5">
     <g id="line2d_11">
      <g>
       <use xlink:href="#m1671f20616" x="57.6" y="174.528073" style="stroke: #000000; stroke-width: 0.8"/>
      </g>
     </g>
     <g id="text_11">
      <!-- 0.00 -->
      <g transform="translate(28.334375 178.327291) scale(0.1 -0.1)">
       <use xlink:href="#DejaVuSans-30"/>
       <use xlink:href="#DejaVuSans-2e" x="63.623047"/>
       <use xlink:href="#DejaVuSans-30" x="95.410156"/>
       <use xlink:href="#DejaVuSans-30" x="159.033203"/>
      </g>
     </g>
    </g>
    <g id="ytick_6">
     <g id="line2d_12">
      <g>
       <use xlink:href="#m1671f20616" x="57.6" y="144.288055" style="stroke: #000000; stroke-width: 0.8"/>
      </g>
     </g>
     <g id="text_12">
      <!-- 0.25 -->
      <g transform="translate(28.334375 148.087273) scale(0.1 -0.1)">
       <use xlink:href="#DejaVuSans-30"/>
       <use xlink:href="#DejaVuSans-2e" x="63.623047"/>
       <use xlink:href="#DejaVuSans-32" x="95.410156"/>
       <use xlink:href="#DejaVuSans-35" x="159.033203"/>
      </g>
     </g>
    </g>
    <g id="ytick_7">
     <g id="line2d_13">
      <g>
       <use xlink:href="#m1671f20616" x="57.6" y="114.048036" style="stroke: #000000; stroke-width: 0.8"/>
      </g>
     </g>
     <g id="text_13">
      <!-- 0.50 -->
      <g transform="translate(28.334375 117.847255) scale(0.1 -0.1)">
       <use xlink:href="#DejaVuSans-30"/>
       <use xlink:href="#DejaVuSans-2e" x="63.623047"/>
       <use xlink:href="#DejaVuSans-35" x="95.410156"/>
       <use xlink:href="#DejaVuSans-30" x="159.033203"/>
      </g>
     </g>
    </g>
    <g id="ytick_8">
     <g id="line2d_14">
      <g>
       <use xlink:href="#m1671f20616" x="57.6" y="83.808018" style="stroke: #000000; stroke-width: 0.8"/>
      </g>
     </g>
     <g id="text_14">
      <!-- 0.75 -->
      <g transform="translate(28.334375 87.607237) scale(0.1 -0.1)">
       <use xlink:href="#DejaVuSans-30"/>
       <use xlink:href="#DejaVuSans-2e" x="63.623047"/>
       <use xlink:href="#DejaVuSans-37" x="95.410156"/>
       <use xlink:href="#DejaVuSans-35" x="159.033203"/>
      </g>
     </g>
    </g>
    <g id="ytick_9">
     <g id="line2d_15">
      <g>
       <use xlink:href="#m1671f20616" x="57.6" y="53.568" style="stroke: #000000; stroke-width: 0.8"/>
      </g>
     </g>
     <g id="text_15">
      <!-- 1.00 -->
      <g transform="translate(28.334375 57.367219) scale(0.1 -0.1)">
       <use xlink:href="#DejaVuSans-31"/>
       <use xlink:href="#DejaVuSans-2e" x="63.623047"/>
       <use xlink:href="#DejaVuSans-30" x="95.410156"/>
       <use xlink:href="#DejaVuSans-30" x="159.033203"/>
      </g>
     </g>
    </g>
   </g>
   <g id="line2d_16">
    <path d="M 73.832727 174.528073 
L 82.607174 142.232712 
L 87.481867 125.158909 
L 91.381622 112.282075 
L 94.956396 101.262043 
L 98.206192 92.010577 
L 101.131007 84.388132 
L 103.730844 78.224599 
L 106.0057 73.336588 
L 108.280557 68.945205 
L 110.555414 65.072002 
L 112.505291 62.179023 
L 114.455168 59.69119 
L 116.080066 57.933997 
L 117.704963 56.468813 
L 119.329861 55.299307 
L 120.954758 54.428407 
L 122.579656 53.858295 
L 123.879574 53.619758 
L 125.179492 53.575035 
L 126.47941 53.724199 
L 127.779328 54.06701 
L 129.079247 54.60292 
L 130.704144 55.543013 
L 132.329042 56.781101 
L 133.953939 58.314086 
L 135.578837 60.138126 
L 137.528714 62.704686 
L 139.478591 65.674496 
L 141.428468 69.036845 
L 143.703325 73.439459 
L 145.978182 78.338197 
L 148.578018 84.513304 
L 151.177854 91.265351 
L 154.10267 99.497008 
L 157.352465 109.353964 
L 160.92724 120.946254 
L 165.151974 135.47146 
L 170.351646 154.22834 
L 188.5505 220.732744 
L 192.450254 233.795476 
L 196.025029 245.023701 
L 199.274824 254.493625 
L 202.19964 262.334594 
L 204.799476 268.708319 
L 207.399312 274.478405 
L 209.674169 279.002886 
L 211.949025 283.014625 
L 213.898903 286.030162 
L 215.84878 288.643609 
L 217.798657 290.845541 
L 219.423554 292.360358 
L 221.048452 293.580066 
L 222.67335 294.501611 
L 224.298247 295.122683 
L 225.598165 295.402131 
L 226.898084 295.487818 
L 228.198002 295.379609 
L 229.49792 295.077675 
L 230.797838 294.582501 
L 232.422735 293.69303 
L 234.047633 292.505111 
L 235.672531 291.021721 
L 237.297428 289.246574 
L 239.247305 286.737589 
L 241.197183 283.823963 
L 243.14706 280.516202 
L 245.421916 276.174996 
L 247.696773 271.334926 
L 250.296609 265.223144 
L 252.896446 258.530061 
L 255.821261 250.359058 
L 259.071057 240.561867 
L 262.645831 229.025356 
L 266.870565 214.551731 
L 272.070238 195.835819 
L 290.91905 127.034197 
L 294.818804 114.045656 
L 298.393579 102.900853 
L 301.643374 93.51869 
L 304.56819 85.765668 
L 307.168026 79.476651 
L 309.767862 73.796856 
L 312.042719 69.355506 
L 314.317576 65.430323 
L 316.267453 62.49138 
L 318.21733 59.956456 
L 319.842228 58.159284 
L 321.467125 56.653555 
L 323.092023 55.443042 
L 324.716921 54.530775 
L 326.341818 53.919039 
L 327.641736 53.647088 
L 328.941654 53.568909 
L 330.241572 53.684625 
L 331.541491 53.994053 
L 332.841409 54.496695 
L 334.466306 55.39545 
L 336.091204 56.592571 
L 337.716102 58.085059 
L 339.340999 59.869177 
L 341.290876 62.388727 
L 343.240753 65.312666 
L 345.190631 68.63045 
L 347.465487 72.982935 
L 349.740344 77.833784 
L 352.34018 83.957205 
L 354.940016 90.661131 
L 357.864832 98.843295 
L 361.114627 108.651492 
L 364.689402 120.198288 
L 368.914136 134.681446 
L 374.113808 153.404966 
L 392.962621 222.194377 
L 396.862375 235.172835 
L 398.487273 240.332906 
L 398.487273 240.332906 
" clip-path="url(#p640b3c1c7c)" style="fill: none; stroke: #1f77b4; stroke-width: 1.5; stroke-linecap: square"/>
   </g>
   <g id="line2d_17">
    <path d="M 73.832727 53.568 
L 75.132645 53.664949 
L 76.432563 53.95564 
L 77.732482 54.439608 
L 79.357379 55.315152 
L 80.982277 56.489262 
L 82.607174 57.958999 
L 84.232072 59.720682 
L 86.181949 62.213805 
L 88.131826 65.111949 
L 90.081704 68.40466 
L 92.35656 72.728929 
L 94.631417 77.552809 
L 97.231253 83.647105 
L 99.831089 90.323892 
L 102.755905 98.478117 
L 106.0057 108.258755 
L 109.580475 119.779785 
L 113.480229 133.099412 
L 118.354922 150.565191 
L 126.47941 180.673258 
L 133.953939 208.078757 
L 138.503653 223.982829 
L 142.403407 236.854457 
L 145.978182 247.868696 
L 148.902998 256.225309 
L 151.827813 263.919299 
L 154.427649 270.151545 
L 157.027486 275.770902 
L 159.302342 280.156665 
L 161.577199 284.024024 
L 163.527076 286.911836 
L 165.476953 289.394379 
L 167.101851 291.14708 
L 168.726749 292.60771 
L 170.351646 293.772611 
L 171.976544 294.638867 
L 173.601441 295.204307 
L 174.90136 295.439094 
L 176.201278 295.480063 
L 177.501196 295.327146 
L 178.801114 294.98059 
L 180.101032 294.440949 
L 181.72593 293.496221 
L 183.350827 292.253538 
L 184.975725 290.716015 
L 186.600622 288.8875 
L 188.5505 286.315673 
L 190.500377 283.340725 
L 192.450254 279.973386 
L 194.725111 275.565159 
L 196.999967 270.661063 
L 199.599803 264.480174 
L 202.19964 257.722748 
L 205.124455 249.485562 
L 208.374251 239.623165 
L 211.949025 228.025804 
L 216.173759 213.495922 
L 221.373432 194.735356 
L 239.572285 128.236752 
L 243.472039 115.178941 
L 247.046814 103.956264 
L 250.296609 94.492185 
L 253.221425 86.657081 
L 255.821261 80.289011 
L 258.421097 74.524955 
L 260.695954 70.00603 
L 262.970811 66.00008 
L 264.920688 62.989666 
L 266.870565 60.381474 
L 268.820442 58.184909 
L 270.44534 56.674636 
L 272.070238 55.459525 
L 273.695135 54.542619 
L 275.320033 53.926215 
L 276.619951 53.650515 
L 277.919869 53.568582 
L 279.219787 53.680545 
L 280.519705 53.986226 
L 281.819623 54.485134 
L 283.444521 55.379247 
L 285.069419 56.571767 
L 286.694316 58.059707 
L 288.319214 59.83934 
L 290.269091 62.353608 
L 292.218968 65.272391 
L 294.168845 68.585165 
L 296.443702 72.932012 
L 298.718559 77.777473 
L 301.318395 83.895076 
L 303.918231 90.593582 
L 306.843047 98.770168 
L 310.092842 108.572865 
L 313.667617 120.114522 
L 317.892351 134.592918 
L 323.092023 153.31264 
L 341.940835 222.108177 
L 345.84059 235.091681 
L 349.415364 246.230836 
L 352.66516 255.607069 
L 355.589975 263.354156 
L 358.189812 269.637462 
L 360.789648 275.311175 
L 363.064505 279.746928 
L 365.339361 283.666288 
L 367.289238 286.60008 
L 369.239115 289.129727 
L 370.864013 290.922417 
L 372.488911 292.4236 
L 374.113808 293.629515 
L 375.738706 294.537142 
L 377.363604 295.144209 
L 378.663522 295.412411 
L 379.96344 295.486837 
L 381.263358 295.367367 
L 382.563276 295.054193 
L 383.863194 294.547816 
L 385.488092 293.644421 
L 387.112989 292.442701 
L 388.737887 290.945665 
L 390.362785 289.157063 
L 392.312662 286.632232 
L 394.262539 283.703138 
L 396.212416 280.380346 
L 398.487273 276.022226 
L 398.487273 276.022226 
" clip-path="url(#p640b3c1c7c)" style="fill: none; stroke: #ff7f0e; stroke-width: 1.5; stroke-linecap: square"/>
   </g>
   <g id="patch_3">
    <path d="M 57.6 307.584 
L 57.6 41.472 
" style="fill: none; stroke: #000000; stroke-width: 0.8; stroke-linejoin: miter; stroke-linecap: square"/>
   </g>
   <g id="patch_4">
    <path d="M 414.72 307.584 
L 414.72 41.472 
" style="fill: none; stroke: #000000; stroke-width: 0.8; stroke-linejoin: miter; stroke-linecap: square"/>
   </g>
   <g id="patch_5">
    <path d="M 57.6 307.584 
L 414.72 307.584 
" style="fill: none; stroke: #000000; stroke-width: 0.8; stroke-linejoin: miter; stroke-linecap: square"/>
   </g>
   <g id="patch_6">
    <path d="M 57.6 41.472 
L 414.72 41.472 
" style="fill: none; stroke: #000000; stroke-width: 0.8; stroke-linejoin: miter; stroke-linecap: square"/>
   </g>
  </g>
 </g>
 <defs>
  <clipPath id="p640b3c1c7c">
   <rect x="57.6" y="41.472" width="357.12" height="266.112"/>
  </clipPath>
 </defs>
</svg>
