<?xml version="1.0" encoding="utf-8" standalone="no"?>
<!DOCTYPE svg PUBLIC "-//W3C//DTD SVG 1.1//EN"
  "http://www.w3.org/Graphics/SVG/1.1/DTD/svg11.dtd">
<svg xmlns:xlink="http://www.w3.org/1999/xlink" width="460.8pt" height="345.6pt" viewBox="0 0 460.8 345.6" xmlns="http://www.w3.org/2000/svg" version="1.1">
 <metadata>
  <rdf:RDF xmlns:dc="http://purl.org/dc/elements/1.1/" xmlns:cc="http://creativecommons.org/ns#" xmlns:rdf="http://www.w3.org/1999/02/22-rdf-syntax-ns#">
   <cc:Work>
    <dc:type rdf:resource="http://purl.org/dc/dcmitype/StillImage"/>
    <dc:date>2023-07-25T21:33:06.529130</dc:date>
    <dc:format>image/svg+xml</dc:format>
    <dc:creator>
     <cc:Agent>
      <dc:title>Matplotlib v3.7.1, https://matplotlib.org/</dc:title>
     </cc:Agent>
    </dc:creator>
   </cc:Work>
  </rdf:RDF>
 </metadata>
 <defs>
  <style type="text/css">*{stroke-linejoin: round; stroke-linecap: butt}</style>
 </defs>
 <g id="figure_1">
  <g id="patch_1">
   <path d="M 0 345.6 
L 460.8 345.6 
L 460.8 0 
L 0 0 
z
" style="fill: #ffffff"/>
  </g>
  <g id="axes_1">
   <g id="patch_2">
    <path d="M 57.6 307.584 
L 414.72 307.584 
L 414.72 41.472 
L 57.6 41.472 
z
" style="fill: #ffffff"/>
   </g>
   <g id="matplotlib.axis_1">
    <g id="xtick_1">
     <g id="line2d_1">
      <path d="M 73.832727 307.584 
L 73.832727 41.472 
" clip-path="url(#p0a35f798e7)" style="fill: none; stroke: #cccccc; stroke-width: 0.8; stroke-linecap: round"/>
     </g>
     <g id="line2d_2"/>
     <g id="text_1">
      <!-- 0 -->
      <g style="fill: #262626" transform="translate(71.052259 318.330875) scale(0.1 -0.1)">
       <defs>
        <path id="LiberationSans-30" d="M 3309 2203 
Q 3309 1100 2920 518 
Q 2531 -63 1772 -63 
Q 1013 -63 631 515 
Q 250 1094 250 2203 
Q 250 3338 620 3903 
Q 991 4469 1791 4469 
Q 2569 4469 2939 3897 
Q 3309 3325 3309 2203 
z
M 2738 2203 
Q 2738 3156 2517 3584 
Q 2297 4013 1791 4013 
Q 1272 4013 1045 3591 
Q 819 3169 819 2203 
Q 819 1266 1048 831 
Q 1278 397 1778 397 
Q 2275 397 2506 840 
Q 2738 1284 2738 2203 
z
" transform="scale(0.015625)"/>
       </defs>
       <use xlink:href="#LiberationSans-30"/>
      </g>
     </g>
    </g>
    <g id="xtick_2">
     <g id="line2d_3">
      <path d="M 138.763636 307.584 
L 138.763636 41.472 
" clip-path="url(#p0a35f798e7)" style="fill: none; stroke: #cccccc; stroke-width: 0.8; stroke-linecap: round"/>
     </g>
     <g id="line2d_4"/>
     <g id="text_2">
      <!-- 2 -->
      <g style="fill: #262626" transform="translate(135.983168 318.330875) scale(0.1 -0.1)">
       <defs>
        <path id="LiberationSans-32" d="M 322 0 
L 322 397 
Q 481 763 711 1042 
Q 941 1322 1194 1548 
Q 1447 1775 1695 1969 
Q 1944 2163 2144 2356 
Q 2344 2550 2467 2762 
Q 2591 2975 2591 3244 
Q 2591 3606 2378 3806 
Q 2166 4006 1788 4006 
Q 1428 4006 1195 3811 
Q 963 3616 922 3263 
L 347 3316 
Q 409 3844 795 4156 
Q 1181 4469 1788 4469 
Q 2453 4469 2811 4155 
Q 3169 3841 3169 3263 
Q 3169 3006 3051 2753 
Q 2934 2500 2703 2247 
Q 2472 1994 1819 1463 
Q 1459 1169 1246 933 
Q 1034 697 941 478 
L 3238 478 
L 3238 0 
L 322 0 
z
" transform="scale(0.015625)"/>
       </defs>
       <use xlink:href="#LiberationSans-32"/>
      </g>
     </g>
    </g>
    <g id="xtick_3">
     <g id="line2d_5">
      <path d="M 203.694545 307.584 
L 203.694545 41.472 
" clip-path="url(#p0a35f798e7)" style="fill: none; stroke: #cccccc; stroke-width: 0.8; stroke-linecap: round"/>
     </g>
     <g id="line2d_6"/>
     <g id="text_3">
      <!-- 4 -->
      <g style="fill: #262626" transform="translate(200.914077 318.330875) scale(0.1 -0.1)">
       <defs>
        <path id="LiberationSans-34" d="M 2753 997 
L 2753 0 
L 2222 0 
L 2222 997 
L 147 997 
L 147 1434 
L 2163 4403 
L 2753 4403 
L 2753 1441 
L 3372 1441 
L 3372 997 
L 2753 997 
z
M 2222 3769 
Q 2216 3750 2134 3603 
Q 2053 3456 2013 3397 
L 884 1734 
L 716 1503 
L 666 1441 
L 2222 1441 
L 2222 3769 
z
" transform="scale(0.015625)"/>
       </defs>
       <use xlink:href="#LiberationSans-34"/>
      </g>
     </g>
    </g>
    <g id="xtick_4">
     <g id="line2d_7">
      <path d="M 268.625455 307.584 
L 268.625455 41.472 
" clip-path="url(#p0a35f798e7)" style="fill: none; stroke: #cccccc; stroke-width: 0.8; stroke-linecap: round"/>
     </g>
     <g id="line2d_8"/>
     <g id="text_4">
      <!-- 6 -->
      <g style="fill: #262626" transform="translate(265.844986 318.330875) scale(0.1 -0.1)">
       <defs>
        <path id="LiberationSans-36" d="M 3278 1441 
Q 3278 744 2900 340 
Q 2522 -63 1856 -63 
Q 1113 -63 719 490 
Q 325 1044 325 2100 
Q 325 3244 734 3856 
Q 1144 4469 1900 4469 
Q 2897 4469 3156 3572 
L 2619 3475 
Q 2453 4013 1894 4013 
Q 1413 4013 1148 3564 
Q 884 3116 884 2266 
Q 1038 2550 1316 2698 
Q 1594 2847 1953 2847 
Q 2563 2847 2920 2465 
Q 3278 2084 3278 1441 
z
M 2706 1416 
Q 2706 1894 2472 2153 
Q 2238 2413 1819 2413 
Q 1425 2413 1183 2183 
Q 941 1953 941 1550 
Q 941 1041 1192 716 
Q 1444 391 1838 391 
Q 2244 391 2475 664 
Q 2706 938 2706 1416 
z
" transform="scale(0.015625)"/>
       </defs>
       <use xlink:href="#LiberationSans-36"/>
      </g>
     </g>
    </g>
    <g id="xtick_5">
     <g id="line2d_9">
      <path d="M 333.556364 307.584 
L 333.556364 41.472 
" clip-path="url(#p0a35f798e7)" style="fill: none; stroke: #cccccc; stroke-width: 0.8; stroke-linecap: round"/>
     </g>
     <g id="line2d_10"/>
     <g id="text_5">
      <!-- 8 -->
      <g style="fill: #262626" transform="translate(330.775895 318.330875) scale(0.1 -0.1)">
       <defs>
        <path id="LiberationSans-38" d="M 3281 1228 
Q 3281 619 2893 278 
Q 2506 -63 1781 -63 
Q 1075 -63 676 271 
Q 278 606 278 1222 
Q 278 1653 525 1947 
Q 772 2241 1156 2303 
L 1156 2316 
Q 797 2400 589 2681 
Q 381 2963 381 3341 
Q 381 3844 757 4156 
Q 1134 4469 1769 4469 
Q 2419 4469 2795 4162 
Q 3172 3856 3172 3334 
Q 3172 2956 2962 2675 
Q 2753 2394 2391 2322 
L 2391 2309 
Q 2813 2241 3047 1952 
Q 3281 1663 3281 1228 
z
M 2588 3303 
Q 2588 4050 1769 4050 
Q 1372 4050 1164 3862 
Q 956 3675 956 3303 
Q 956 2925 1170 2726 
Q 1384 2528 1775 2528 
Q 2172 2528 2380 2711 
Q 2588 2894 2588 3303 
z
M 2697 1281 
Q 2697 1691 2453 1898 
Q 2209 2106 1769 2106 
Q 1341 2106 1100 1882 
Q 859 1659 859 1269 
Q 859 359 1788 359 
Q 2247 359 2472 579 
Q 2697 800 2697 1281 
z
" transform="scale(0.015625)"/>
       </defs>
       <use xlink:href="#LiberationSans-38"/>
      </g>
     </g>
    </g>
    <g id="xtick_6">
     <g id="line2d_11">
      <path d="M 398.487273 307.584 
L 398.487273 41.472 
" clip-path="url(#p0a35f798e7)" style="fill: none; stroke: #cccccc; stroke-width: 0.8; stroke-linecap: round"/>
     </g>
     <g id="line2d_12"/>
     <g id="text_6">
      <!-- 10 -->
      <g style="fill: #262626" transform="translate(392.926335 318.330875) scale(0.1 -0.1)">
       <defs>
        <path id="LiberationSans-31" d="M 488 0 
L 488 478 
L 1609 478 
L 1609 3866 
L 616 3156 
L 616 3688 
L 1656 4403 
L 2175 4403 
L 2175 478 
L 3247 478 
L 3247 0 
L 488 0 
z
" transform="scale(0.015625)"/>
       </defs>
       <use xlink:href="#LiberationSans-31"/>
       <use xlink:href="#LiberationSans-30" x="55.615234"/>
      </g>
     </g>
    </g>
   </g>
   <g id="matplotlib.axis_2">
    <g id="ytick_1">
     <g id="line2d_13">
      <path d="M 57.6 304.389838 
L 414.72 304.389838 
" clip-path="url(#p0a35f798e7)" style="fill: none; stroke: #cccccc; stroke-width: 0.8; stroke-linecap: round"/>
     </g>
     <g id="line2d_14"/>
     <g id="text_7">
      <!-- −4 -->
      <g style="fill: #262626" transform="translate(42.698437 308.013275) scale(0.1 -0.1)">
       <defs>
        <path id="LiberationSans-2212" d="M 316 1900 
L 316 2356 
L 3425 2356 
L 3425 1900 
L 316 1900 
z
" transform="scale(0.015625)"/>
       </defs>
       <use xlink:href="#LiberationSans-2212"/>
       <use xlink:href="#LiberationSans-34" x="58.398438"/>
      </g>
     </g>
    </g>
    <g id="ytick_2">
     <g id="line2d_15">
      <path d="M 57.6 271.924383 
L 414.72 271.924383 
" clip-path="url(#p0a35f798e7)" style="fill: none; stroke: #cccccc; stroke-width: 0.8; stroke-linecap: round"/>
     </g>
     <g id="line2d_16"/>
     <g id="text_8">
      <!-- −3 -->
      <g style="fill: #262626" transform="translate(42.698437 275.547821) scale(0.1 -0.1)">
       <defs>
        <path id="LiberationSans-33" d="M 3278 1216 
Q 3278 606 2890 271 
Q 2503 -63 1784 -63 
Q 1116 -63 717 239 
Q 319 541 244 1131 
L 825 1184 
Q 938 403 1784 403 
Q 2209 403 2451 612 
Q 2694 822 2694 1234 
Q 2694 1594 2417 1795 
Q 2141 1997 1619 1997 
L 1300 1997 
L 1300 2484 
L 1606 2484 
Q 2069 2484 2323 2686 
Q 2578 2888 2578 3244 
Q 2578 3597 2370 3801 
Q 2163 4006 1753 4006 
Q 1381 4006 1151 3815 
Q 922 3625 884 3278 
L 319 3322 
Q 381 3863 767 4166 
Q 1153 4469 1759 4469 
Q 2422 4469 2789 4161 
Q 3156 3853 3156 3303 
Q 3156 2881 2920 2617 
Q 2684 2353 2234 2259 
L 2234 2247 
Q 2728 2194 3003 1916 
Q 3278 1638 3278 1216 
z
" transform="scale(0.015625)"/>
       </defs>
       <use xlink:href="#LiberationSans-2212"/>
       <use xlink:href="#LiberationSans-33" x="58.398438"/>
      </g>
     </g>
    </g>
    <g id="ytick_3">
     <g id="line2d_17">
      <path d="M 57.6 239.458929 
L 414.72 239.458929 
" clip-path="url(#p0a35f798e7)" style="fill: none; stroke: #cccccc; stroke-width: 0.8; stroke-linecap: round"/>
     </g>
     <g id="line2d_18"/>
     <g id="text_9">
      <!-- −2 -->
      <g style="fill: #262626" transform="translate(42.698437 243.082366) scale(0.1 -0.1)">
       <use xlink:href="#LiberationSans-2212"/>
       <use xlink:href="#LiberationSans-32" x="58.398438"/>
      </g>
     </g>
    </g>
    <g id="ytick_4">
     <g id="line2d_19">
      <path d="M 57.6 206.993474 
L 414.72 206.993474 
" clip-path="url(#p0a35f798e7)" style="fill: none; stroke: #cccccc; stroke-width: 0.8; stroke-linecap: round"/>
     </g>
     <g id="line2d_20"/>
     <g id="text_10">
      <!-- −1 -->
      <g style="fill: #262626" transform="translate(42.698437 210.616912) scale(0.1 -0.1)">
       <use xlink:href="#LiberationSans-2212"/>
       <use xlink:href="#LiberationSans-31" x="58.398438"/>
      </g>
     </g>
    </g>
    <g id="ytick_5">
     <g id="line2d_21">
      <path d="M 57.6 174.52802 
L 414.72 174.52802 
" clip-path="url(#p0a35f798e7)" style="fill: none; stroke: #cccccc; stroke-width: 0.8; stroke-linecap: round"/>
     </g>
     <g id="line2d_22"/>
     <g id="text_11">
      <!-- 0 -->
      <g style="fill: #262626" transform="translate(48.539062 178.151457) scale(0.1 -0.1)">
       <use xlink:href="#LiberationSans-30"/>
      </g>
     </g>
    </g>
    <g id="ytick_6">
     <g id="line2d_23">
      <path d="M 57.6 142.062565 
L 414.72 142.062565 
" clip-path="url(#p0a35f798e7)" style="fill: none; stroke: #cccccc; stroke-width: 0.8; stroke-linecap: round"/>
     </g>
     <g id="line2d_24"/>
     <g id="text_12">
      <!-- 1 -->
      <g style="fill: #262626" transform="translate(48.539062 145.686002) scale(0.1 -0.1)">
       <use xlink:href="#LiberationSans-31"/>
      </g>
     </g>
    </g>
    <g id="ytick_7">
     <g id="line2d_25">
      <path d="M 57.6 109.59711 
L 414.72 109.59711 
" clip-path="url(#p0a35f798e7)" style="fill: none; stroke: #cccccc; stroke-width: 0.8; stroke-linecap: round"/>
     </g>
     <g id="line2d_26"/>
     <g id="text_13">
      <!-- 2 -->
      <g style="fill: #262626" transform="translate(48.539062 113.220548) scale(0.1 -0.1)">
       <use xlink:href="#LiberationSans-32"/>
      </g>
     </g>
    </g>
    <g id="ytick_8">
     <g id="line2d_27">
      <path d="M 57.6 77.131656 
L 414.72 77.131656 
" clip-path="url(#p0a35f798e7)" style="fill: none; stroke: #cccccc; stroke-width: 0.8; stroke-linecap: round"/>
     </g>
     <g id="line2d_28"/>
     <g id="text_14">
      <!-- 3 -->
      <g style="fill: #262626" transform="translate(48.539062 80.755093) scale(0.1 -0.1)">
       <use xlink:href="#LiberationSans-33"/>
      </g>
     </g>
    </g>
    <g id="ytick_9">
     <g id="line2d_29">
      <path d="M 57.6 44.666201 
L 414.72 44.666201 
" clip-path="url(#p0a35f798e7)" style="fill: none; stroke: #cccccc; stroke-width: 0.8; stroke-linecap: round"/>
     </g>
     <g id="line2d_30"/>
     <g id="text_15">
      <!-- 4 -->
      <g style="fill: #262626" transform="translate(48.539062 48.289639) scale(0.1 -0.1)">
       <use xlink:href="#LiberationSans-34"/>
      </g>
     </g>
    </g>
   </g>
   <g id="line2d_31">
    <path d="M 73.832727 174.52802 
L 83.582113 164.924508 
L 88.781785 160.101649 
L 93.331499 156.180555 
L 97.231253 153.103211 
L 100.806028 150.552547 
L 104.055823 148.485007 
L 107.305618 146.6782 
L 110.230434 145.29001 
L 113.15525 144.138961 
L 116.080066 143.23439 
L 119.004881 142.583634 
L 121.604717 142.222576 
L 124.204554 142.068577 
L 126.80439 142.122623 
L 129.404226 142.384368 
L 132.004062 142.852134 
L 134.928878 143.620847 
L 137.853694 144.64024 
L 140.778509 145.902044 
L 143.703325 147.396027 
L 146.95312 149.313516 
L 150.202916 151.483444 
L 153.77769 154.135934 
L 157.677445 157.310056 
L 162.227158 161.323399 
L 167.42683 166.22227 
L 174.90136 173.603543 
L 185.625684 184.179604 
L 190.825356 188.999467 
L 195.37507 192.91699 
L 199.274824 195.990622 
L 202.849599 198.537404 
L 206.099394 200.601057 
L 209.349189 202.403675 
L 212.274005 203.787874 
L 215.198821 204.934754 
L 218.123636 205.835013 
L 221.048452 206.481349 
L 223.648288 206.838416 
L 226.248124 206.988392 
L 228.847961 206.930317 
L 231.447797 206.664563 
L 234.047633 206.192833 
L 236.972449 205.419747 
L 239.897265 204.396107 
L 242.82208 203.130214 
L 245.746896 201.632336 
L 248.996691 199.710784 
L 252.246486 197.537111 
L 255.821261 194.880912 
L 259.721016 191.703287 
L 264.270729 187.686638 
L 269.470401 182.785097 
L 276.94493 175.402178 
L 287.669255 164.828385 
L 292.868927 160.011529 
L 297.41864 156.097587 
L 301.318395 153.027674 
L 304.89317 150.484781 
L 308.142965 148.42502 
L 311.39276 146.626594 
L 314.317576 145.24639 
L 317.242391 144.103682 
L 320.167207 143.207737 
L 323.092023 142.565823 
L 325.691859 142.212748 
L 328.291695 142.066795 
L 330.891532 142.128899 
L 333.491368 142.398662 
L 336.091204 142.874354 
L 339.01602 143.651811 
L 341.940835 144.679697 
L 344.865651 145.949674 
L 347.790467 147.451444 
L 351.040262 149.377054 
L 354.290057 151.554468 
L 357.864832 154.214368 
L 361.764586 157.395489 
L 366.3143 161.415434 
L 371.513972 166.319634 
L 379.313481 174.029092 
L 389.712826 184.27568 
L 394.912498 189.089517 
L 398.487273 192.189912 
L 398.487273 192.189912 
" clip-path="url(#p0a35f798e7)" style="fill: none; stroke: #008000; stroke-width: 1.5; stroke-linecap: round"/>
   </g>
   <g id="line2d_32">
    <path d="M 73.832727 142.062565 
L 76.432563 142.166607 
L 79.0324 142.478066 
L 81.632236 142.994946 
L 84.557052 143.817802 
L 87.481867 144.88974 
L 90.406683 146.202067 
L 93.331499 147.744138 
L 96.581294 149.711731 
L 100.156069 152.162212 
L 103.730844 154.883588 
L 107.630598 158.122505 
L 112.180311 162.196587 
L 117.704963 167.460682 
L 126.80439 176.501847 
L 134.928878 184.465444 
L 140.12855 189.267225 
L 144.678264 193.163282 
L 148.578018 196.214654 
L 152.152793 198.738185 
L 155.402588 200.778583 
L 158.652383 202.556169 
L 161.577199 203.916526 
L 164.502015 205.03852 
L 167.42683 205.913052 
L 170.351646 206.533028 
L 172.951482 206.866305 
L 175.551319 206.992312 
L 178.151155 206.910244 
L 180.750991 206.620625 
L 183.350827 206.125312 
L 186.275643 205.326219 
L 189.200459 204.277331 
L 192.125274 202.987153 
L 195.05009 201.466151 
L 198.299885 199.520494 
L 201.549681 197.324621 
L 205.124455 194.646468 
L 209.02421 191.448138 
L 213.573923 187.412001 
L 219.098575 182.179361 
L 227.223063 174.127544 
L 236.647469 164.852407 
L 241.847142 160.034046 
L 246.396855 156.118313 
L 250.296609 153.046539 
L 253.871384 150.501701 
L 257.121179 148.439993 
L 260.370975 146.639471 
L 263.29579 145.257269 
L 266.220606 144.112474 
L 269.145422 143.214372 
L 272.070238 142.570247 
L 274.670074 142.215176 
L 277.26991 142.067212 
L 279.869746 142.127301 
L 282.469582 142.395059 
L 285.069419 142.86877 
L 287.994234 143.644042 
L 290.91905 144.669806 
L 293.843866 145.937741 
L 296.768681 147.437565 
L 300.018477 149.361147 
L 303.268272 151.536691 
L 306.843047 154.194741 
L 310.742801 157.374115 
L 315.292514 161.392413 
L 320.492187 166.295285 
L 328.291695 174.003927 
L 338.69104 184.25167 
L 343.890713 189.067018 
L 348.440426 192.979166 
L 352.34018 196.047217 
L 355.914955 198.588163 
L 359.16475 200.645976 
L 362.414545 202.442304 
L 365.339361 203.82051 
L 368.264177 204.961132 
L 371.188993 205.854919 
L 374.113808 206.494621 
L 376.713645 206.845699 
L 379.313481 206.98964 
L 381.913317 206.925522 
L 384.513153 206.653755 
L 387.112989 206.176082 
L 390.037805 205.396441 
L 392.962621 204.366433 
L 395.887437 203.094414 
L 398.487273 201.768858 
L 398.487273 201.768858 
" clip-path="url(#p0a35f798e7)" style="fill: none; stroke-dasharray: 1.5,2.475; stroke-dashoffset: 0; stroke: #0000ff; stroke-width: 1.5"/>
   </g>
   <g id="patch_3">
    <path d="M 57.6 307.584 
L 57.6 41.472 
" style="fill: none; stroke: #cccccc; stroke-linejoin: miter; stroke-linecap: square"/>
   </g>
   <g id="patch_4">
    <path d="M 414.72 307.584 
L 414.72 41.472 
" style="fill: none; stroke: #cccccc; stroke-linejoin: miter; stroke-linecap: square"/>
   </g>
   <g id="patch_5">
    <path d="M 57.6 307.584 
L 414.72 307.584 
" style="fill: none; stroke: #cccccc; stroke-linejoin: miter; stroke-linecap: square"/>
   </g>
   <g id="patch_6">
    <path d="M 57.6 41.472 
L 414.72 41.472 
" style="fill: none; stroke: #cccccc; stroke-linejoin: miter; stroke-linecap: square"/>
   </g>
   <g id="legend_1">
    <g id="line2d_33">
     <path d="M 347.12 54.218875 
L 357.12 54.218875 
L 367.12 54.218875 
" style="fill: none; stroke: #008000; stroke-width: 1.5; stroke-linecap: round"/>
    </g>
    <g id="text_16">
     <!-- $\sin(x)$ -->
     <g style="fill: #262626" transform="translate(375.12 57.718875) scale(0.1 -0.1)">
      <defs>
       <path id="DejaVuSans-73" d="M 2834 3397 
L 2834 2853 
Q 2591 2978 2328 3040 
Q 2066 3103 1784 3103 
Q 1356 3103 1142 2972 
Q 928 2841 928 2578 
Q 928 2378 1081 2264 
Q 1234 2150 1697 2047 
L 1894 2003 
Q 2506 1872 2764 1633 
Q 3022 1394 3022 966 
Q 3022 478 2636 193 
Q 2250 -91 1575 -91 
Q 1294 -91 989 -36 
Q 684 19 347 128 
L 347 722 
Q 666 556 975 473 
Q 1284 391 1588 391 
Q 1994 391 2212 530 
Q 2431 669 2431 922 
Q 2431 1156 2273 1281 
Q 2116 1406 1581 1522 
L 1381 1569 
Q 847 1681 609 1914 
Q 372 2147 372 2553 
Q 372 3047 722 3315 
Q 1072 3584 1716 3584 
Q 2034 3584 2315 3537 
Q 2597 3491 2834 3397 
z
" transform="scale(0.015625)"/>
       <path id="DejaVuSans-69" d="M 603 3500 
L 1178 3500 
L 1178 0 
L 603 0 
L 603 3500 
z
M 603 4863 
L 1178 4863 
L 1178 4134 
L 603 4134 
L 603 4863 
z
" transform="scale(0.015625)"/>
       <path id="DejaVuSans-6e" d="M 3513 2113 
L 3513 0 
L 2938 0 
L 2938 2094 
Q 2938 2591 2744 2837 
Q 2550 3084 2163 3084 
Q 1697 3084 1428 2787 
Q 1159 2491 1159 1978 
L 1159 0 
L 581 0 
L 581 3500 
L 1159 3500 
L 1159 2956 
Q 1366 3272 1645 3428 
Q 1925 3584 2291 3584 
Q 2894 3584 3203 3211 
Q 3513 2838 3513 2113 
z
" transform="scale(0.015625)"/>
       <path id="DejaVuSans-28" d="M 1984 4856 
Q 1566 4138 1362 3434 
Q 1159 2731 1159 2009 
Q 1159 1288 1364 580 
Q 1569 -128 1984 -844 
L 1484 -844 
Q 1016 -109 783 600 
Q 550 1309 550 2009 
Q 550 2706 781 3412 
Q 1013 4119 1484 4856 
L 1984 4856 
z
" transform="scale(0.015625)"/>
       <path id="DejaVuSans-Oblique-78" d="M 3841 3500 
L 2234 1784 
L 3219 0 
L 2559 0 
L 1819 1388 
L 531 0 
L -166 0 
L 1556 1844 
L 641 3500 
L 1300 3500 
L 1972 2234 
L 3144 3500 
L 3841 3500 
z
" transform="scale(0.015625)"/>
       <path id="DejaVuSans-29" d="M 513 4856 
L 1013 4856 
Q 1481 4119 1714 3412 
Q 1947 2706 1947 2009 
Q 1947 1309 1714 600 
Q 1481 -109 1013 -844 
L 513 -844 
Q 928 -128 1133 580 
Q 1338 1288 1338 2009 
Q 1338 2731 1133 3434 
Q 928 4138 513 4856 
z
" transform="scale(0.015625)"/>
      </defs>
      <use xlink:href="#DejaVuSans-73" transform="translate(0 0.015625)"/>
      <use xlink:href="#DejaVuSans-69" transform="translate(52.099609 0.015625)"/>
      <use xlink:href="#DejaVuSans-6e" transform="translate(79.882812 0.015625)"/>
      <use xlink:href="#DejaVuSans-28" transform="translate(143.261719 0.015625)"/>
      <use xlink:href="#DejaVuSans-Oblique-78" transform="translate(182.275391 0.015625)"/>
      <use xlink:href="#DejaVuSans-29" transform="translate(241.455078 0.015625)"/>
     </g>
    </g>
    <g id="line2d_34">
     <path d="M 347.12 68.54075 
L 357.12 68.54075 
L 367.12 68.54075 
" style="fill: none; stroke-dasharray: 1.5,2.475; stroke-dashoffset: 0; stroke: #0000ff; stroke-width: 1.5"/>
    </g>
    <g id="text_17">
     <!-- $\cos(x)$ -->
     <g style="fill: #262626" transform="translate(375.12 72.04075) scale(0.1 -0.1)">
      <defs>
       <path id="DejaVuSans-63" d="M 3122 3366 
L 3122 2828 
Q 2878 2963 2633 3030 
Q 2388 3097 2138 3097 
Q 1578 3097 1268 2742 
Q 959 2388 959 1747 
Q 959 1106 1268 751 
Q 1578 397 2138 397 
Q 2388 397 2633 464 
Q 2878 531 3122 666 
L 3122 134 
Q 2881 22 2623 -34 
Q 2366 -91 2075 -91 
Q 1284 -91 818 406 
Q 353 903 353 1747 
Q 353 2603 823 3093 
Q 1294 3584 2113 3584 
Q 2378 3584 2631 3529 
Q 2884 3475 3122 3366 
z
" transform="scale(0.015625)"/>
       <path id="DejaVuSans-6f" d="M 1959 3097 
Q 1497 3097 1228 2736 
Q 959 2375 959 1747 
Q 959 1119 1226 758 
Q 1494 397 1959 397 
Q 2419 397 2687 759 
Q 2956 1122 2956 1747 
Q 2956 2369 2687 2733 
Q 2419 3097 1959 3097 
z
M 1959 3584 
Q 2709 3584 3137 3096 
Q 3566 2609 3566 1747 
Q 3566 888 3137 398 
Q 2709 -91 1959 -91 
Q 1206 -91 779 398 
Q 353 888 353 1747 
Q 353 2609 779 3096 
Q 1206 3584 1959 3584 
z
" transform="scale(0.015625)"/>
      </defs>
      <use xlink:href="#DejaVuSans-63" transform="translate(0 0.125)"/>
      <use xlink:href="#DejaVuSans-6f" transform="translate(54.980469 0.125)"/>
      <use xlink:href="#DejaVuSans-73" transform="translate(116.162109 0.125)"/>
      <use xlink:href="#DejaVuSans-28" transform="translate(168.261719 0.125)"/>
      <use xlink:href="#DejaVuSans-Oblique-78" transform="translate(207.275391 0.125)"/>
      <use xlink:href="#DejaVuSans-29" transform="translate(266.455078 0.125)"/>
     </g>
    </g>
   </g>
  </g>
 </g>
 <defs>
  <clipPath id="p0a35f798e7">
   <rect x="57.6" y="41.472" width="357.12" height="266.112"/>
  </clipPath>
 </defs>
</svg>
