<?xml version="1.0" encoding="utf-8" standalone="no"?>
<!DOCTYPE svg PUBLIC "-//W3C//DTD SVG 1.1//EN"
  "http://www.w3.org/Graphics/SVG/1.1/DTD/svg11.dtd">
<svg xmlns:xlink="http://www.w3.org/1999/xlink" width="460.8pt" height="345.6pt" viewBox="0 0 460.8 345.6" xmlns="http://www.w3.org/2000/svg" version="1.1">
 <metadata>
  <rdf:RDF xmlns:dc="http://purl.org/dc/elements/1.1/" xmlns:cc="http://creativecommons.org/ns#" xmlns:rdf="http://www.w3.org/1999/02/22-rdf-syntax-ns#">
   <cc:Work>
    <dc:type rdf:resource="http://purl.org/dc/dcmitype/StillImage"/>
    <dc:date>2023-07-26T08:33:21.314890</dc:date>
    <dc:format>image/svg+xml</dc:format>
    <dc:creator>
     <cc:Agent>
      <dc:title>Matplotlib v3.7.1, https://matplotlib.org/</dc:title>
     </cc:Agent>
    </dc:creator>
   </cc:Work>
  </rdf:RDF>
 </metadata>
 <defs>
  <style type="text/css">*{stroke-linejoin: round; stroke-linecap: butt}</style>
 </defs>
 <g id="figure_1">
  <g id="patch_1">
   <path d="M 0 345.6 
L 460.8 345.6 
L 460.8 0 
L 0 0 
z
" style="fill: #ffffff"/>
  </g>
  <g id="axes_1">
   <g id="patch_2">
    <path d="M 57.6 307.584 
L 414.72 307.584 
L 414.72 41.472 
L 57.6 41.472 
z
" style="fill: #ffffff"/>
   </g>
   <g id="matplotlib.axis_1">
    <g id="xtick_1">
     <g id="line2d_1">
      <path d="M 57.6 307.584 
L 57.6 41.472 
" clip-path="url(#pf181fa19d4)" style="fill: none; stroke: #cccccc; stroke-width: 0.8; stroke-linecap: round"/>
     </g>
     <g id="line2d_2"/>
     <g id="text_1">
      <!-- 0 -->
      <g style="fill: #262626" transform="translate(54.819531 318.330875) scale(0.1 -0.1)">
       <defs>
        <path id="LiberationSans-30" d="M 3309 2203 
Q 3309 1100 2920 518 
Q 2531 -63 1772 -63 
Q 1013 -63 631 515 
Q 250 1094 250 2203 
Q 250 3338 620 3903 
Q 991 4469 1791 4469 
Q 2569 4469 2939 3897 
Q 3309 3325 3309 2203 
z
M 2738 2203 
Q 2738 3156 2517 3584 
Q 2297 4013 1791 4013 
Q 1272 4013 1045 3591 
Q 819 3169 819 2203 
Q 819 1266 1048 831 
Q 1278 397 1778 397 
Q 2275 397 2506 840 
Q 2738 1284 2738 2203 
z
" transform="scale(0.015625)"/>
       </defs>
       <use xlink:href="#LiberationSans-30"/>
      </g>
     </g>
    </g>
    <g id="xtick_2">
     <g id="line2d_3">
      <path d="M 129.024 307.584 
L 129.024 41.472 
" clip-path="url(#pf181fa19d4)" style="fill: none; stroke: #cccccc; stroke-width: 0.8; stroke-linecap: round"/>
     </g>
     <g id="line2d_4"/>
     <g id="text_2">
      <!-- 2 -->
      <g style="fill: #262626" transform="translate(126.243531 318.330875) scale(0.1 -0.1)">
       <defs>
        <path id="LiberationSans-32" d="M 322 0 
L 322 397 
Q 481 763 711 1042 
Q 941 1322 1194 1548 
Q 1447 1775 1695 1969 
Q 1944 2163 2144 2356 
Q 2344 2550 2467 2762 
Q 2591 2975 2591 3244 
Q 2591 3606 2378 3806 
Q 2166 4006 1788 4006 
Q 1428 4006 1195 3811 
Q 963 3616 922 3263 
L 347 3316 
Q 409 3844 795 4156 
Q 1181 4469 1788 4469 
Q 2453 4469 2811 4155 
Q 3169 3841 3169 3263 
Q 3169 3006 3051 2753 
Q 2934 2500 2703 2247 
Q 2472 1994 1819 1463 
Q 1459 1169 1246 933 
Q 1034 697 941 478 
L 3238 478 
L 3238 0 
L 322 0 
z
" transform="scale(0.015625)"/>
       </defs>
       <use xlink:href="#LiberationSans-32"/>
      </g>
     </g>
    </g>
    <g id="xtick_3">
     <g id="line2d_5">
      <path d="M 200.448 307.584 
L 200.448 41.472 
" clip-path="url(#pf181fa19d4)" style="fill: none; stroke: #cccccc; stroke-width: 0.8; stroke-linecap: round"/>
     </g>
     <g id="line2d_6"/>
     <g id="text_3">
      <!-- 4 -->
      <g style="fill: #262626" transform="translate(197.667531 318.330875) scale(0.1 -0.1)">
       <defs>
        <path id="LiberationSans-34" d="M 2753 997 
L 2753 0 
L 2222 0 
L 2222 997 
L 147 997 
L 147 1434 
L 2163 4403 
L 2753 4403 
L 2753 1441 
L 3372 1441 
L 3372 997 
L 2753 997 
z
M 2222 3769 
Q 2216 3750 2134 3603 
Q 2053 3456 2013 3397 
L 884 1734 
L 716 1503 
L 666 1441 
L 2222 1441 
L 2222 3769 
z
" transform="scale(0.015625)"/>
       </defs>
       <use xlink:href="#LiberationSans-34"/>
      </g>
     </g>
    </g>
    <g id="xtick_4">
     <g id="line2d_7">
      <path d="M 271.872 307.584 
L 271.872 41.472 
" clip-path="url(#pf181fa19d4)" style="fill: none; stroke: #cccccc; stroke-width: 0.8; stroke-linecap: round"/>
     </g>
     <g id="line2d_8"/>
     <g id="text_4">
      <!-- 6 -->
      <g style="fill: #262626" transform="translate(269.091531 318.330875) scale(0.1 -0.1)">
       <defs>
        <path id="LiberationSans-36" d="M 3278 1441 
Q 3278 744 2900 340 
Q 2522 -63 1856 -63 
Q 1113 -63 719 490 
Q 325 1044 325 2100 
Q 325 3244 734 3856 
Q 1144 4469 1900 4469 
Q 2897 4469 3156 3572 
L 2619 3475 
Q 2453 4013 1894 4013 
Q 1413 4013 1148 3564 
Q 884 3116 884 2266 
Q 1038 2550 1316 2698 
Q 1594 2847 1953 2847 
Q 2563 2847 2920 2465 
Q 3278 2084 3278 1441 
z
M 2706 1416 
Q 2706 1894 2472 2153 
Q 2238 2413 1819 2413 
Q 1425 2413 1183 2183 
Q 941 1953 941 1550 
Q 941 1041 1192 716 
Q 1444 391 1838 391 
Q 2244 391 2475 664 
Q 2706 938 2706 1416 
z
" transform="scale(0.015625)"/>
       </defs>
       <use xlink:href="#LiberationSans-36"/>
      </g>
     </g>
    </g>
    <g id="xtick_5">
     <g id="line2d_9">
      <path d="M 343.296 307.584 
L 343.296 41.472 
" clip-path="url(#pf181fa19d4)" style="fill: none; stroke: #cccccc; stroke-width: 0.8; stroke-linecap: round"/>
     </g>
     <g id="line2d_10"/>
     <g id="text_5">
      <!-- 8 -->
      <g style="fill: #262626" transform="translate(340.515531 318.330875) scale(0.1 -0.1)">
       <defs>
        <path id="LiberationSans-38" d="M 3281 1228 
Q 3281 619 2893 278 
Q 2506 -63 1781 -63 
Q 1075 -63 676 271 
Q 278 606 278 1222 
Q 278 1653 525 1947 
Q 772 2241 1156 2303 
L 1156 2316 
Q 797 2400 589 2681 
Q 381 2963 381 3341 
Q 381 3844 757 4156 
Q 1134 4469 1769 4469 
Q 2419 4469 2795 4162 
Q 3172 3856 3172 3334 
Q 3172 2956 2962 2675 
Q 2753 2394 2391 2322 
L 2391 2309 
Q 2813 2241 3047 1952 
Q 3281 1663 3281 1228 
z
M 2588 3303 
Q 2588 4050 1769 4050 
Q 1372 4050 1164 3862 
Q 956 3675 956 3303 
Q 956 2925 1170 2726 
Q 1384 2528 1775 2528 
Q 2172 2528 2380 2711 
Q 2588 2894 2588 3303 
z
M 2697 1281 
Q 2697 1691 2453 1898 
Q 2209 2106 1769 2106 
Q 1341 2106 1100 1882 
Q 859 1659 859 1269 
Q 859 359 1788 359 
Q 2247 359 2472 579 
Q 2697 800 2697 1281 
z
" transform="scale(0.015625)"/>
       </defs>
       <use xlink:href="#LiberationSans-38"/>
      </g>
     </g>
    </g>
    <g id="xtick_6">
     <g id="line2d_11">
      <path d="M 414.72 307.584 
L 414.72 41.472 
" clip-path="url(#pf181fa19d4)" style="fill: none; stroke: #cccccc; stroke-width: 0.8; stroke-linecap: round"/>
     </g>
     <g id="line2d_12"/>
     <g id="text_6">
      <!-- 10 -->
      <g style="fill: #262626" transform="translate(409.159063 318.330875) scale(0.1 -0.1)">
       <defs>
        <path id="LiberationSans-31" d="M 488 0 
L 488 478 
L 1609 478 
L 1609 3866 
L 616 3156 
L 616 3688 
L 1656 4403 
L 2175 4403 
L 2175 478 
L 3247 478 
L 3247 0 
L 488 0 
z
" transform="scale(0.015625)"/>
       </defs>
       <use xlink:href="#LiberationSans-31"/>
       <use xlink:href="#LiberationSans-30" x="55.615234"/>
      </g>
     </g>
    </g>
   </g>
   <g id="matplotlib.axis_2">
    <g id="ytick_1">
     <g id="line2d_13">
      <path d="M 57.6 279.290381 
L 414.72 279.290381 
" clip-path="url(#pf181fa19d4)" style="fill: none; stroke: #cccccc; stroke-width: 0.8; stroke-linecap: round"/>
     </g>
     <g id="line2d_14"/>
     <g id="text_7">
      <!-- −4 -->
      <g style="fill: #262626" transform="translate(42.698437 282.913818) scale(0.1 -0.1)">
       <defs>
        <path id="LiberationSans-2212" d="M 316 1900 
L 316 2356 
L 3425 2356 
L 3425 1900 
L 316 1900 
z
" transform="scale(0.015625)"/>
       </defs>
       <use xlink:href="#LiberationSans-2212"/>
       <use xlink:href="#LiberationSans-34" x="58.398438"/>
      </g>
     </g>
    </g>
    <g id="ytick_2">
     <g id="line2d_15">
      <path d="M 57.6 241.598734 
L 414.72 241.598734 
" clip-path="url(#pf181fa19d4)" style="fill: none; stroke: #cccccc; stroke-width: 0.8; stroke-linecap: round"/>
     </g>
     <g id="line2d_16"/>
     <g id="text_8">
      <!-- −2 -->
      <g style="fill: #262626" transform="translate(42.698437 245.222172) scale(0.1 -0.1)">
       <use xlink:href="#LiberationSans-2212"/>
       <use xlink:href="#LiberationSans-32" x="58.398438"/>
      </g>
     </g>
    </g>
    <g id="ytick_3">
     <g id="line2d_17">
      <path d="M 57.6 203.907087 
L 414.72 203.907087 
" clip-path="url(#pf181fa19d4)" style="fill: none; stroke: #cccccc; stroke-width: 0.8; stroke-linecap: round"/>
     </g>
     <g id="line2d_18"/>
     <g id="text_9">
      <!-- 0 -->
      <g style="fill: #262626" transform="translate(48.539062 207.530525) scale(0.1 -0.1)">
       <use xlink:href="#LiberationSans-30"/>
      </g>
     </g>
    </g>
    <g id="ytick_4">
     <g id="line2d_19">
      <path d="M 57.6 166.215441 
L 414.72 166.215441 
" clip-path="url(#pf181fa19d4)" style="fill: none; stroke: #cccccc; stroke-width: 0.8; stroke-linecap: round"/>
     </g>
     <g id="line2d_20"/>
     <g id="text_10">
      <!-- 2 -->
      <g style="fill: #262626" transform="translate(48.539062 169.838878) scale(0.1 -0.1)">
       <use xlink:href="#LiberationSans-32"/>
      </g>
     </g>
    </g>
    <g id="ytick_5">
     <g id="line2d_21">
      <path d="M 57.6 128.523794 
L 414.72 128.523794 
" clip-path="url(#pf181fa19d4)" style="fill: none; stroke: #cccccc; stroke-width: 0.8; stroke-linecap: round"/>
     </g>
     <g id="line2d_22"/>
     <g id="text_11">
      <!-- 4 -->
      <g style="fill: #262626" transform="translate(48.539062 132.147232) scale(0.1 -0.1)">
       <use xlink:href="#LiberationSans-34"/>
      </g>
     </g>
    </g>
    <g id="ytick_6">
     <g id="line2d_23">
      <path d="M 57.6 90.832148 
L 414.72 90.832148 
" clip-path="url(#pf181fa19d4)" style="fill: none; stroke: #cccccc; stroke-width: 0.8; stroke-linecap: round"/>
     </g>
     <g id="line2d_24"/>
     <g id="text_12">
      <!-- 6 -->
      <g style="fill: #262626" transform="translate(48.539062 94.455585) scale(0.1 -0.1)">
       <use xlink:href="#LiberationSans-36"/>
      </g>
     </g>
    </g>
    <g id="ytick_7">
     <g id="line2d_25">
      <path d="M 57.6 53.140501 
L 414.72 53.140501 
" clip-path="url(#pf181fa19d4)" style="fill: none; stroke: #cccccc; stroke-width: 0.8; stroke-linecap: round"/>
     </g>
     <g id="line2d_26"/>
     <g id="text_13">
      <!-- 8 -->
      <g style="fill: #262626" transform="translate(48.539062 56.763939) scale(0.1 -0.1)">
       <use xlink:href="#LiberationSans-38"/>
      </g>
     </g>
    </g>
   </g>
   <g id="PolyCollection_1">
    <defs>
     <path id="mcecfc2a0f3" d="M 57.6 -164.860587 
L 57.6 -135.018586 
L 57.957477 -135.19478 
L 58.314955 -135.372534 
L 58.672432 -135.551841 
L 59.02991 -135.732695 
L 59.387387 -135.915088 
L 59.744865 -136.099012 
L 60.102342 -136.284458 
L 60.45982 -136.471417 
L 60.817297 -136.65988 
L 61.174775 -136.849837 
L 61.532252 -137.041277 
L 61.88973 -137.23419 
L 62.247207 -137.428564 
L 62.604685 -137.624387 
L 62.962162 -137.821647 
L 63.31964 -138.020332 
L 63.677117 -138.220428 
L 64.034595 -138.42192 
L 64.392072 -138.624796 
L 64.74955 -138.829041 
L 65.107027 -139.034638 
L 65.464505 -139.241573 
L 65.821982 -139.44983 
L 66.179459 -139.659392 
L 66.536937 -139.870241 
L 66.894414 -140.082362 
L 67.251892 -140.295734 
L 67.609369 -140.510342 
L 67.966847 -140.726164 
L 68.324324 -140.943183 
L 68.681802 -141.161378 
L 69.039279 -141.38073 
L 69.396757 -141.601218 
L 69.754234 -141.82282 
L 70.111712 -142.045516 
L 70.469189 -142.269283 
L 70.826667 -142.4941 
L 71.184144 -142.719944 
L 71.541622 -142.946791 
L 71.899099 -143.174619 
L 72.256577 -143.403403 
L 72.614054 -143.633119 
L 72.971532 -143.863744 
L 73.329009 -144.09525 
L 73.686486 -144.327615 
L 74.043964 -144.560811 
L 74.401441 -144.794813 
L 74.758919 -145.029594 
L 75.116396 -145.265128 
L 75.473874 -145.501388 
L 75.831351 -145.738347 
L 76.188829 -145.975976 
L 76.546306 -146.214248 
L 76.903784 -146.453135 
L 77.261261 -146.692607 
L 77.618739 -146.932638 
L 77.976216 -147.173196 
L 78.333694 -147.414254 
L 78.691171 -147.655781 
L 79.048649 -147.897747 
L 79.406126 -148.140123 
L 79.763604 -148.382879 
L 80.121081 -148.625983 
L 80.478559 -148.869405 
L 80.836036 -149.113115 
L 81.193514 -149.357081 
L 81.550991 -149.601271 
L 81.908468 -149.845656 
L 82.265946 -150.090202 
L 82.623423 -150.334878 
L 82.980901 -150.579652 
L 83.338378 -150.824493 
L 83.695856 -151.069368 
L 84.053333 -151.314244 
L 84.410811 -151.55909 
L 84.768288 -151.803873 
L 85.125766 -152.048561 
L 85.483243 -152.29312 
L 85.840721 -152.537518 
L 86.198198 -152.781723 
L 86.555676 -153.025701 
L 86.913153 -153.269419 
L 87.270631 -153.512845 
L 87.628108 -153.755946 
L 87.985586 -153.998688 
L 88.343063 -154.24104 
L 88.700541 -154.482966 
L 89.058018 -154.724436 
L 89.415495 -154.965415 
L 89.772973 -155.205872 
L 90.13045 -155.445771 
L 90.487928 -155.685082 
L 90.845405 -155.923771 
L 91.202883 -156.161805 
L 91.56036 -156.399152 
L 91.917838 -156.635778 
L 92.275315 -156.871652 
L 92.632793 -157.106739 
L 92.99027 -157.341009 
L 93.347748 -157.538174 
L 93.705225 -157.408522 
L 94.062703 -157.278633 
L 94.42018 -157.14855 
L 94.777658 -157.018312 
L 95.135135 -156.88796 
L 95.492613 -156.757535 
L 95.85009 -156.627077 
L 96.207568 -156.496628 
L 96.565045 -156.36623 
L 96.922523 -156.235923 
L 97.28 -156.10575 
L 97.637477 -155.975752 
L 97.994955 -155.845972 
L 98.352432 -155.716451 
L 98.70991 -155.587232 
L 99.067387 -155.458357 
L 99.424865 -155.329868 
L 99.782342 -155.201807 
L 100.13982 -155.074217 
L 100.497297 -154.947139 
L 100.854775 -154.820616 
L 101.212252 -154.694691 
L 101.56973 -154.569404 
L 101.927207 -154.444797 
L 102.284685 -154.320913 
L 102.642162 -154.197793 
L 102.99964 -154.075478 
L 103.357117 -153.954008 
L 103.714595 -153.833426 
L 104.072072 -153.713772 
L 104.42955 -153.595085 
L 104.787027 -153.477406 
L 105.144505 -153.360774 
L 105.501982 -153.245229 
L 105.859459 -153.130809 
L 106.216937 -153.017554 
L 106.574414 -152.905501 
L 106.931892 -152.794687 
L 107.289369 -152.685151 
L 107.646847 -152.576928 
L 108.004324 -152.470055 
L 108.361802 -152.364567 
L 108.719279 -152.260499 
L 109.076757 -152.157887 
L 109.434234 -152.056763 
L 109.791712 -151.957161 
L 110.149189 -151.859113 
L 110.506667 -151.762652 
L 110.864144 -151.667808 
L 111.221622 -151.574612 
L 111.579099 -151.483094 
L 111.936577 -151.393283 
L 112.294054 -151.305206 
L 112.651532 -151.218892 
L 113.009009 -151.134367 
L 113.366486 -151.051657 
L 113.723964 -150.970786 
L 114.081441 -150.891778 
L 114.438919 -150.814657 
L 114.796396 -150.739445 
L 115.153874 -150.666162 
L 115.511351 -150.59483 
L 115.868829 -150.525467 
L 116.226306 -150.458092 
L 116.583784 -150.392721 
L 116.941261 -150.329372 
L 117.298739 -150.26806 
L 117.656216 -150.208797 
L 118.013694 -150.151599 
L 118.371171 -150.096475 
L 118.728649 -150.043438 
L 119.086126 -149.992497 
L 119.443604 -149.94366 
L 119.801081 -149.896934 
L 120.158559 -149.852327 
L 120.516036 -149.809843 
L 120.873514 -149.769485 
L 121.230991 -149.731257 
L 121.588468 -149.69516 
L 121.945946 -149.661193 
L 122.303423 -149.629356 
L 122.660901 -149.599647 
L 123.018378 -149.572061 
L 123.375856 -149.546593 
L 123.733333 -149.523239 
L 124.090811 -149.501989 
L 124.448288 -149.482835 
L 124.805766 -149.465767 
L 125.163243 -149.450773 
L 125.520721 -149.43784 
L 125.878198 -149.426955 
L 126.235676 -149.418102 
L 126.593153 -149.411264 
L 126.950631 -149.406422 
L 127.308108 -149.403558 
L 127.665586 -149.40265 
L 128.023063 -149.403675 
L 128.380541 -149.40661 
L 128.738018 -149.411431 
L 129.095495 -149.41811 
L 129.452973 -149.426619 
L 129.81045 -149.43693 
L 130.167928 -149.449012 
L 130.525405 -149.462833 
L 130.882883 -149.478359 
L 131.24036 -149.495557 
L 131.597838 -149.514388 
L 131.955315 -149.534818 
L 132.312793 -149.556805 
L 132.67027 -149.580311 
L 133.027748 -149.605294 
L 133.385225 -149.63171 
L 133.742703 -149.659516 
L 134.10018 -149.688666 
L 134.457658 -149.719112 
L 134.815135 -149.750808 
L 135.172613 -149.783703 
L 135.53009 -149.817746 
L 135.887568 -149.852885 
L 136.245045 -149.889067 
L 136.602523 -149.926236 
L 136.96 -149.964338 
L 137.317477 -150.003315 
L 137.674955 -150.043107 
L 138.032432 -150.083656 
L 138.38991 -150.124901 
L 138.747387 -150.166779 
L 139.104865 -150.209227 
L 139.462342 -150.252181 
L 139.81982 -150.295574 
L 140.177297 -150.339341 
L 140.534775 -150.383413 
L 140.892252 -150.427721 
L 141.24973 -150.472195 
L 141.607207 -150.516765 
L 141.964685 -150.561357 
L 142.322162 -150.605898 
L 142.67964 -150.650315 
L 143.037117 -150.694533 
L 143.394595 -150.738474 
L 143.752072 -150.782062 
L 144.10955 -150.82522 
L 144.467027 -150.867867 
L 144.824505 -150.909924 
L 145.181982 -150.951312 
L 145.539459 -150.991948 
L 145.896937 -151.03175 
L 146.254414 -151.070635 
L 146.611892 -151.108519 
L 146.969369 -151.145319 
L 147.326847 -151.180949 
L 147.684324 -151.215323 
L 148.041802 -151.248356 
L 148.399279 -151.279959 
L 148.756757 -151.310047 
L 149.114234 -151.33853 
L 149.471712 -151.36532 
L 149.829189 -151.390328 
L 150.186667 -151.413465 
L 150.544144 -151.434641 
L 150.901622 -151.453766 
L 151.259099 -151.470749 
L 151.616577 -151.4855 
L 151.974054 -151.497927 
L 152.331532 -151.50794 
L 152.689009 -151.515446 
L 153.046486 -151.520353 
L 153.403964 -151.522572 
L 153.761441 -151.522008 
L 154.118919 -151.518571 
L 154.476396 -151.512168 
L 154.833874 -151.502707 
L 155.191351 -151.490098 
L 155.548829 -151.474247 
L 155.906306 -151.455063 
L 156.263784 -151.432454 
L 156.621261 -151.406331 
L 156.978739 -151.3766 
L 157.336216 -151.343172 
L 157.693694 -151.305957 
L 158.051171 -151.264863 
L 158.408649 -151.219802 
L 158.766126 -151.170685 
L 159.123604 -151.117422 
L 159.481081 -151.059925 
L 159.838559 -150.998108 
L 160.196036 -150.931882 
L 160.553514 -150.861162 
L 160.910991 -150.785862 
L 161.268468 -150.705896 
L 161.625946 -150.621181 
L 161.983423 -150.531634 
L 162.340901 -150.437171 
L 162.698378 -150.337711 
L 163.055856 -150.233174 
L 163.413333 -150.12348 
L 163.770811 -150.00855 
L 164.128288 -149.888306 
L 164.485766 -149.762672 
L 164.843243 -149.528742 
L 165.200721 -149.049505 
L 165.558198 -148.564984 
L 165.915676 -148.075197 
L 166.273153 -147.580165 
L 166.630631 -147.079908 
L 166.988108 -146.574447 
L 167.345586 -146.063808 
L 167.703063 -145.548014 
L 168.060541 -145.027092 
L 168.418018 -144.501069 
L 168.775495 -143.969974 
L 169.132973 -143.433837 
L 169.49045 -142.89269 
L 169.847928 -142.346565 
L 170.205405 -141.795497 
L 170.562883 -141.239521 
L 170.92036 -140.678676 
L 171.277838 -140.112998 
L 171.635315 -139.54253 
L 171.992793 -138.967311 
L 172.35027 -138.387385 
L 172.707748 -137.802796 
L 173.065225 -137.213591 
L 173.422703 -136.619816 
L 173.78018 -136.021522 
L 174.137658 -135.418757 
L 174.495135 -134.811574 
L 174.852613 -134.200027 
L 175.21009 -133.58417 
L 175.567568 -132.96406 
L 175.925045 -132.339756 
L 176.282523 -131.711316 
L 176.64 -131.078802 
L 176.997477 -130.442276 
L 177.354955 -129.801804 
L 177.712432 -129.15745 
L 178.06991 -128.509282 
L 178.427387 -127.857369 
L 178.784865 -127.201781 
L 179.142342 -126.542591 
L 179.49982 -125.879872 
L 179.857297 -125.213699 
L 180.214775 -124.54415 
L 180.572252 -123.871301 
L 180.92973 -123.195234 
L 181.287207 -122.516029 
L 181.644685 -121.833769 
L 182.002162 -121.148539 
L 182.35964 -120.460425 
L 182.717117 -119.769515 
L 183.074595 -119.075896 
L 183.432072 -118.37966 
L 183.78955 -117.680899 
L 184.147027 -116.979706 
L 184.504505 -116.276177 
L 184.861982 -115.570407 
L 185.219459 -114.862494 
L 185.576937 -114.152539 
L 185.934414 -113.440641 
L 186.291892 -112.726903 
L 186.649369 -112.011429 
L 187.006847 -111.294323 
L 187.364324 -110.575691 
L 187.721802 -109.855642 
L 188.079279 -109.134285 
L 188.436757 -108.411729 
L 188.794234 -107.688087 
L 189.151712 -106.963471 
L 189.509189 -106.237995 
L 189.866667 -105.511776 
L 190.224144 -104.784928 
L 190.581622 -104.057571 
L 190.939099 -103.329823 
L 191.296577 -102.601804 
L 191.654054 -101.873636 
L 192.011532 -101.14544 
L 192.369009 -100.417341 
L 192.726486 -99.689461 
L 193.083964 -98.961927 
L 193.441441 -98.234865 
L 193.798919 -97.508403 
L 194.156396 -96.782667 
L 194.513874 -96.057788 
L 194.871351 -95.333895 
L 195.228829 -94.611119 
L 195.586306 -93.889592 
L 195.943784 -93.169445 
L 196.301261 -92.450811 
L 196.658739 -91.733824 
L 197.016216 -91.018618 
L 197.373694 -90.305328 
L 197.731171 -89.594089 
L 198.088649 -88.885038 
L 198.446126 -88.178309 
L 198.803604 -87.474041 
L 199.161081 -86.77237 
L 199.518559 -86.073433 
L 199.876036 -85.377369 
L 200.233514 -84.684315 
L 200.590991 -83.99441 
L 200.948468 -83.307792 
L 201.305946 -82.6246 
L 201.663423 -81.944972 
L 202.020901 -81.269048 
L 202.378378 -80.596965 
L 202.735856 -79.928863 
L 203.093333 -79.26488 
L 203.450811 -78.605155 
L 203.808288 -77.949826 
L 204.165766 -77.29903 
L 204.523243 -76.652906 
L 204.880721 -76.011591 
L 205.238198 -75.375222 
L 205.595676 -74.743935 
L 205.953153 -74.117868 
L 206.310631 -73.497154 
L 206.668108 -72.88193 
L 207.025586 -72.27233 
L 207.383063 -71.668487 
L 207.740541 -71.070535 
L 208.098018 -70.478606 
L 208.455495 -69.892831 
L 208.812973 -69.313341 
L 209.17045 -68.740266 
L 209.527928 -68.173734 
L 209.885405 -67.613872 
L 210.242883 -67.060808 
L 210.60036 -66.514667 
L 210.957838 -65.975574 
L 211.315315 -65.443651 
L 211.672793 -64.919021 
L 212.03027 -64.401804 
L 212.387748 -63.892119 
L 212.745225 -63.390084 
L 213.102703 -62.895816 
L 213.46018 -62.409429 
L 213.817658 -61.931038 
L 214.175135 -61.460754 
L 214.532613 -60.998686 
L 214.89009 -60.544944 
L 215.247568 -60.099635 
L 215.605045 -59.662864 
L 215.962523 -59.234734 
L 216.32 -58.815346 
L 216.677477 -58.4048 
L 217.034955 -58.003195 
L 217.392432 -57.610625 
L 217.74991 -57.227185 
L 218.107387 -56.852967 
L 218.464865 -56.488059 
L 218.822342 -56.132551 
L 219.17982 -55.786527 
L 219.537297 -55.45007 
L 219.894775 -55.123263 
L 220.252252 -54.806184 
L 220.60973 -54.49891 
L 220.967207 -54.201515 
L 221.324685 -53.914072 
L 221.682162 -53.63665 
L 222.03964 -53.369317 
L 222.397117 -53.112139 
L 222.754595 -52.865176 
L 223.112072 -52.628491 
L 223.46955 -52.402141 
L 223.827027 -52.186182 
L 224.184505 -51.980666 
L 224.541982 -51.785643 
L 224.899459 -51.601163 
L 225.256937 -51.427269 
L 225.614414 -51.264006 
L 225.971892 -51.111413 
L 226.329369 -50.969528 
L 226.686847 -50.838387 
L 227.044324 -50.718022 
L 227.401802 -50.608464 
L 227.759279 -50.509739 
L 228.116757 -50.421872 
L 228.474234 -50.344887 
L 228.831712 -50.278803 
L 229.189189 -50.223637 
L 229.546667 -50.179404 
L 229.904144 -50.146115 
L 230.261622 -50.123781 
L 230.619099 -50.112407 
L 230.976577 -50.112 
L 231.334054 -50.12256 
L 231.691532 -50.144087 
L 232.049009 -50.176577 
L 232.406486 -50.220026 
L 232.763964 -50.274424 
L 233.121441 -50.339762 
L 233.478919 -50.416025 
L 233.836396 -50.5032 
L 234.193874 -50.601267 
L 234.551351 -50.710207 
L 234.908829 -50.829997 
L 235.266306 -50.960612 
L 235.623784 -51.102025 
L 235.981261 -51.254206 
L 236.338739 -51.30315 
L 236.696216 -51.251002 
L 237.053694 -51.212502 
L 237.411171 -51.187707 
L 237.768649 -51.176669 
L 238.126126 -51.179436 
L 238.483604 -51.196053 
L 238.841081 -51.226561 
L 239.198559 -51.271001 
L 239.556036 -51.329406 
L 239.913514 -51.401809 
L 240.270991 -51.488237 
L 240.628468 -51.588718 
L 240.985946 -51.703271 
L 241.343423 -51.831917 
L 241.700901 -51.97467 
L 242.058378 -52.131543 
L 242.415856 -52.302543 
L 242.773333 -52.487677 
L 243.130811 -52.686948 
L 243.488288 -52.900353 
L 243.845766 -53.127889 
L 244.203243 -53.369549 
L 244.560721 -53.625322 
L 244.918198 -53.895194 
L 245.275676 -54.179149 
L 245.633153 -54.477167 
L 245.990631 -54.789225 
L 246.348108 -55.115297 
L 246.705586 -55.455354 
L 247.063063 -55.809364 
L 247.420541 -56.177292 
L 247.778018 -56.5591 
L 248.135495 -56.954749 
L 248.492973 -57.364193 
L 248.85045 -57.787387 
L 249.207928 -58.224282 
L 249.565405 -58.674826 
L 249.922883 -59.138964 
L 250.28036 -59.61664 
L 250.637838 -60.107792 
L 250.995315 -60.612359 
L 251.352793 -61.130276 
L 251.71027 -61.661475 
L 252.067748 -62.205887 
L 252.425225 -62.76344 
L 252.782703 -63.334057 
L 253.14018 -63.917664 
L 253.497658 -64.514179 
L 253.855135 -65.123523 
L 254.212613 -65.745611 
L 254.57009 -66.380358 
L 254.927568 -67.027675 
L 255.285045 -67.687473 
L 255.642523 -68.35966 
L 256 -69.044143 
L 256.357477 -69.740826 
L 256.714955 -70.44961 
L 257.072432 -71.170398 
L 257.42991 -71.903088 
L 257.787387 -72.647578 
L 258.144865 -73.403762 
L 258.502342 -74.171536 
L 258.85982 -74.950792 
L 259.217297 -75.741421 
L 259.574775 -76.543313 
L 259.932252 -77.356356 
L 260.28973 -78.180437 
L 260.647207 -79.015443 
L 261.004685 -79.861256 
L 261.362162 -80.717762 
L 261.71964 -81.584841 
L 262.077117 -82.462376 
L 262.434595 -83.350246 
L 262.792072 -84.24833 
L 263.14955 -85.156506 
L 263.507027 -86.074652 
L 263.864505 -87.002644 
L 264.221982 -87.940358 
L 264.579459 -88.887668 
L 264.936937 -89.844448 
L 265.294414 -90.810573 
L 265.651892 -91.785914 
L 266.009369 -92.770343 
L 266.366847 -93.763733 
L 266.724324 -94.765955 
L 267.081802 -95.776878 
L 267.439279 -96.796374 
L 267.796757 -97.824312 
L 268.154234 -98.860561 
L 268.511712 -99.904991 
L 268.869189 -100.95747 
L 269.226667 -102.017866 
L 269.584144 -103.086049 
L 269.941622 -104.161885 
L 270.299099 -105.245243 
L 270.656577 -106.335991 
L 271.014054 -107.433995 
L 271.371532 -108.539124 
L 271.729009 -109.651245 
L 272.086486 -110.632408 
L 272.443964 -111.526194 
L 272.801441 -112.423875 
L 273.158919 -113.325418 
L 273.516396 -114.230786 
L 273.873874 -115.139949 
L 274.231351 -116.052872 
L 274.588829 -116.969526 
L 274.946306 -117.88988 
L 275.303784 -118.813904 
L 275.661261 -119.74157 
L 276.018739 -120.67285 
L 276.376216 -121.607717 
L 276.733694 -122.546145 
L 277.091171 -123.488108 
L 277.448649 -124.43358 
L 277.806126 -125.382539 
L 278.163604 -126.334959 
L 278.521081 -127.290818 
L 278.878559 -128.250092 
L 279.236036 -129.212759 
L 279.593514 -130.178798 
L 279.950991 -131.148186 
L 280.308468 -132.120902 
L 280.665946 -133.096925 
L 281.023423 -134.076234 
L 281.380901 -135.058807 
L 281.738378 -136.044626 
L 282.095856 -137.033667 
L 282.453333 -138.025912 
L 282.810811 -139.021338 
L 283.168288 -140.019925 
L 283.525766 -141.021653 
L 283.883243 -142.026499 
L 284.240721 -143.034442 
L 284.598198 -144.04546 
L 284.955676 -145.059531 
L 285.313153 -146.076632 
L 285.670631 -147.096739 
L 286.028108 -148.119829 
L 286.385586 -149.145877 
L 286.743063 -150.174859 
L 287.100541 -151.206747 
L 287.458018 -152.241517 
L 287.815495 -153.279139 
L 288.172973 -154.319587 
L 288.53045 -155.36283 
L 288.887928 -156.408838 
L 289.245405 -157.45758 
L 289.602883 -158.509024 
L 289.96036 -159.563135 
L 290.317838 -160.61988 
L 290.675315 -161.679222 
L 291.032793 -162.741123 
L 291.39027 -163.805546 
L 291.747748 -164.872449 
L 292.105225 -165.941792 
L 292.462703 -167.013531 
L 292.82018 -168.087621 
L 293.177658 -169.164017 
L 293.535135 -170.242671 
L 293.892613 -171.323533 
L 294.25009 -172.406551 
L 294.607568 -173.491674 
L 294.965045 -174.578845 
L 295.322523 -175.668009 
L 295.68 -176.759107 
L 296.037477 -177.852079 
L 296.394955 -178.946861 
L 296.752432 -180.04339 
L 297.10991 -181.1416 
L 297.467387 -182.241422 
L 297.824865 -183.342785 
L 298.182342 -184.445617 
L 298.53982 -185.549843 
L 298.897297 -186.655387 
L 299.254775 -187.762169 
L 299.612252 -188.870108 
L 299.96973 -189.979121 
L 300.327207 -191.089122 
L 300.684685 -192.200024 
L 301.042162 -193.311735 
L 301.39964 -194.424164 
L 301.757117 -195.537217 
L 302.114595 -196.650795 
L 302.472072 -197.764801 
L 302.82955 -198.879131 
L 303.187027 -199.993684 
L 303.544505 -201.108352 
L 303.901982 -202.223027 
L 304.259459 -203.337598 
L 304.616937 -204.451953 
L 304.974414 -205.565976 
L 305.331892 -206.67955 
L 305.689369 -207.792554 
L 306.046847 -208.904868 
L 306.404324 -210.016367 
L 306.761802 -211.126924 
L 307.119279 -212.236411 
L 307.476757 -213.344696 
L 307.834234 -214.451649 
L 308.191712 -215.557132 
L 308.549189 -216.661009 
L 308.906667 -217.763142 
L 309.264144 -218.863389 
L 309.621622 -219.961606 
L 309.979099 -221.057649 
L 310.336577 -222.15137 
L 310.694054 -223.242622 
L 311.051532 -224.331252 
L 311.409009 -225.41711 
L 311.766486 -226.500039 
L 312.123964 -227.579886 
L 312.481441 -228.656491 
L 312.838919 -229.729696 
L 313.196396 -230.79934 
L 313.553874 -231.865262 
L 313.911351 -232.927296 
L 314.268829 -233.985279 
L 314.626306 -235.039044 
L 314.983784 -236.088424 
L 315.341261 -237.133249 
L 315.698739 -238.17335 
L 316.056216 -239.208556 
L 316.413694 -240.238695 
L 316.771171 -241.263594 
L 317.128649 -242.28308 
L 317.486126 -243.296977 
L 317.843604 -244.305111 
L 318.201081 -245.307306 
L 318.558559 -246.303385 
L 318.916036 -247.293171 
L 319.273514 -248.276488 
L 319.630991 -249.253157 
L 319.988468 -250.223 
L 320.345946 -251.185839 
L 320.703423 -252.141497 
L 321.060901 -253.089794 
L 321.418378 -254.030553 
L 321.775856 -254.963596 
L 322.133333 -255.888744 
L 322.490811 -256.80582 
L 322.848288 -257.714648 
L 323.205766 -258.61505 
L 323.563243 -259.50685 
L 323.920721 -260.389874 
L 324.278198 -261.263946 
L 324.635676 -262.128892 
L 324.993153 -262.984539 
L 325.350631 -263.830717 
L 325.708108 -264.667253 
L 326.065586 -265.493977 
L 326.423063 -266.310723 
L 326.780541 -267.117321 
L 327.138018 -267.913608 
L 327.495495 -268.699418 
L 327.852973 -269.474589 
L 328.21045 -270.238959 
L 328.567928 -270.992371 
L 328.925405 -271.734666 
L 329.282883 -272.465689 
L 329.64036 -273.185288 
L 329.997838 -273.893309 
L 330.355315 -274.589605 
L 330.712793 -275.274029 
L 331.07027 -275.946436 
L 331.427748 -276.606684 
L 331.785225 -277.254634 
L 332.142703 -277.890148 
L 332.50018 -278.513092 
L 332.857658 -279.123335 
L 333.215135 -279.720747 
L 333.572613 -280.305203 
L 333.93009 -280.876579 
L 334.287568 -281.434756 
L 334.645045 -281.979617 
L 335.002523 -282.511047 
L 335.36 -283.028936 
L 335.717477 -283.533177 
L 336.074955 -284.023666 
L 336.432432 -284.500302 
L 336.78991 -284.962987 
L 337.147387 -285.411629 
L 337.504865 -285.846136 
L 337.862342 -286.266424 
L 338.21982 -286.672407 
L 338.577297 -287.064009 
L 338.934775 -287.441152 
L 339.292252 -287.803766 
L 339.64973 -288.151783 
L 340.007207 -288.485139 
L 340.364685 -288.803774 
L 340.722162 -289.107633 
L 341.07964 -289.396663 
L 341.437117 -289.670816 
L 341.794595 -289.930049 
L 342.152072 -290.174322 
L 342.50955 -290.4036 
L 342.867027 -290.617851 
L 343.224505 -290.817047 
L 343.581982 -290.715156 
L 343.939459 -290.526007 
L 344.296937 -290.321085 
L 344.654414 -290.100455 
L 345.011892 -289.864184 
L 345.369369 -289.612346 
L 345.726847 -289.345016 
L 346.084324 -289.062276 
L 346.441802 -288.764209 
L 346.799279 -288.450903 
L 347.156757 -288.12245 
L 347.514234 -287.778946 
L 347.871712 -287.420489 
L 348.229189 -287.047184 
L 348.586667 -286.659136 
L 348.944144 -286.256457 
L 349.301622 -285.839259 
L 349.659099 -285.407662 
L 350.016577 -284.961786 
L 350.374054 -284.501756 
L 350.731532 -284.0277 
L 351.089009 -283.53975 
L 351.446486 -283.03804 
L 351.803964 -282.52271 
L 352.161441 -281.993899 
L 352.518919 -281.451754 
L 352.876396 -280.896423 
L 353.233874 -280.328055 
L 353.591351 -279.746805 
L 353.948829 -279.152831 
L 354.306306 -278.546291 
L 354.663784 -277.92735 
L 355.021261 -277.296172 
L 355.378739 -276.652925 
L 355.736216 -275.997782 
L 356.093694 -275.330915 
L 356.451171 -274.6525 
L 356.808649 -273.962717 
L 357.166126 -273.261745 
L 357.523604 -272.549768 
L 357.881081 -271.826973 
L 358.238559 -271.093545 
L 358.596036 -270.349676 
L 358.953514 -269.595556 
L 359.310991 -268.83138 
L 359.668468 -268.057343 
L 360.025946 -267.273642 
L 360.383423 -266.480476 
L 360.740901 -265.678047 
L 361.098378 -264.866555 
L 361.455856 -264.046206 
L 361.813333 -263.217203 
L 362.170811 -262.379753 
L 362.528288 -261.534064 
L 362.885766 -260.680345 
L 363.243243 -259.818804 
L 363.600721 -258.949653 
L 363.958198 -258.073103 
L 364.315676 -257.189366 
L 364.673153 -256.298656 
L 365.030631 -255.401186 
L 365.388108 -254.497171 
L 365.745586 -253.586825 
L 366.103063 -252.670363 
L 366.460541 -251.748001 
L 366.818018 -250.819954 
L 367.175495 -249.886439 
L 367.532973 -248.94767 
L 367.89045 -248.003863 
L 368.247928 -247.055235 
L 368.605405 -246.102 
L 368.962883 -245.144375 
L 369.32036 -244.182573 
L 369.677838 -243.21681 
L 370.035315 -242.247298 
L 370.392793 -241.274252 
L 370.75027 -240.297885 
L 371.107748 -239.318407 
L 371.465225 -238.336031 
L 371.822703 -237.350966 
L 372.18018 -236.363422 
L 372.537658 -235.373608 
L 372.895135 -234.38173 
L 373.252613 -233.387994 
L 373.61009 -232.392606 
L 373.967568 -231.395768 
L 374.325045 -230.397683 
L 374.682523 -229.398552 
L 375.04 -228.398573 
L 375.397477 -227.397945 
L 375.754955 -226.396863 
L 376.112432 -225.395522 
L 376.46991 -224.394114 
L 376.827387 -223.392831 
L 377.184865 -222.39186 
L 377.542342 -221.39139 
L 377.89982 -220.391604 
L 378.257297 -219.392687 
L 378.614775 -218.394819 
L 378.972252 -217.398178 
L 379.32973 -216.402943 
L 379.687207 -215.409287 
L 380.044685 -214.417382 
L 380.402162 -213.427398 
L 380.75964 -212.439504 
L 381.117117 -211.453863 
L 381.474595 -210.47064 
L 381.832072 -209.489994 
L 382.18955 -208.512083 
L 382.547027 -207.537063 
L 382.904505 -206.565086 
L 383.261982 -205.596303 
L 383.619459 -204.630861 
L 383.976937 -203.668905 
L 384.334414 -202.710577 
L 384.691892 -201.756018 
L 385.049369 -200.805363 
L 385.406847 -199.858748 
L 385.764324 -198.916303 
L 386.121802 -197.978157 
L 386.479279 -197.044436 
L 386.836757 -196.115264 
L 387.194234 -195.190759 
L 387.551712 -194.27104 
L 387.909189 -193.356222 
L 388.266667 -192.446415 
L 388.624144 -191.541729 
L 388.981622 -190.64227 
L 389.339099 -189.748141 
L 389.696577 -188.859442 
L 390.054054 -187.976271 
L 390.411532 -187.098723 
L 390.769009 -186.226888 
L 391.126486 -185.360856 
L 391.483964 -184.500713 
L 391.841441 -183.646542 
L 392.198919 -182.798422 
L 392.556396 -181.956433 
L 392.913874 -181.120648 
L 393.271351 -180.291139 
L 393.628829 -179.467975 
L 393.986306 -178.651222 
L 394.343784 -177.840944 
L 394.701261 -177.037201 
L 395.058739 -176.240051 
L 395.416216 -175.44955 
L 395.773694 -174.66575 
L 396.131171 -173.888701 
L 396.488649 -173.118449 
L 396.846126 -172.35504 
L 397.203604 -171.598515 
L 397.561081 -170.848914 
L 397.918559 -170.106272 
L 398.276036 -169.370625 
L 398.633514 -168.642004 
L 398.990991 -167.920438 
L 399.348468 -167.205954 
L 399.705946 -166.498575 
L 400.063423 -165.798324 
L 400.420901 -165.105221 
L 400.778378 -164.419281 
L 401.135856 -163.74052 
L 401.493333 -163.06895 
L 401.850811 -162.404582 
L 402.208288 -161.747423 
L 402.565766 -161.09748 
L 402.923243 -160.454756 
L 403.280721 -159.819251 
L 403.638198 -159.190967 
L 403.995676 -158.5699 
L 404.353153 -157.956045 
L 404.710631 -157.349397 
L 405.068108 -156.749946 
L 405.425586 -156.157681 
L 405.783063 -155.572592 
L 406.140541 -154.994662 
L 406.498018 -154.423877 
L 406.855495 -153.860219 
L 407.212973 -153.303669 
L 407.57045 -152.754204 
L 407.927928 -152.211803 
L 408.285405 -151.676441 
L 408.642883 -151.148093 
L 409.00036 -150.62673 
L 409.357838 -150.112324 
L 409.715315 -149.604844 
L 410.072793 -149.10426 
L 410.43027 -148.610536 
L 410.787748 -148.12364 
L 411.145225 -147.643535 
L 411.502703 -147.170184 
L 411.86018 -146.703549 
L 412.217658 -146.243591 
L 412.575135 -145.790268 
L 412.932613 -145.34354 
L 413.29009 -144.903362 
L 413.647568 -144.469693 
L 414.005045 -144.042486 
L 414.362523 -143.621696 
L 414.72 -143.207276 
L 414.72 -180.543042 
L 414.72 -180.543042 
L 414.362523 -180.942896 
L 414.005045 -181.348598 
L 413.647568 -181.760181 
L 413.29009 -182.177674 
L 412.932613 -182.601106 
L 412.575135 -183.030505 
L 412.217658 -183.465896 
L 411.86018 -183.907305 
L 411.502703 -184.354755 
L 411.145225 -184.808267 
L 410.787748 -185.267862 
L 410.43027 -185.73356 
L 410.072793 -186.205376 
L 409.715315 -186.683327 
L 409.357838 -187.167427 
L 409.00036 -187.657687 
L 408.642883 -188.15412 
L 408.285405 -188.656732 
L 407.927928 -189.165531 
L 407.57045 -189.680523 
L 407.212973 -190.201711 
L 406.855495 -190.729095 
L 406.498018 -191.262676 
L 406.140541 -191.80245 
L 405.783063 -192.348414 
L 405.425586 -192.90056 
L 405.068108 -193.45888 
L 404.710631 -194.023362 
L 404.353153 -194.593994 
L 403.995676 -195.170761 
L 403.638198 -195.753646 
L 403.280721 -196.342628 
L 402.923243 -196.937685 
L 402.565766 -197.538795 
L 402.208288 -198.145929 
L 401.850811 -198.759059 
L 401.493333 -199.378154 
L 401.135856 -200.00318 
L 400.778378 -200.634101 
L 400.420901 -201.270878 
L 400.063423 -201.91347 
L 399.705946 -202.561835 
L 399.348468 -203.215925 
L 398.990991 -203.875691 
L 398.633514 -204.541083 
L 398.276036 -205.212048 
L 397.918559 -205.888527 
L 397.561081 -206.570463 
L 397.203604 -207.257793 
L 396.846126 -207.950454 
L 396.488649 -208.648378 
L 396.131171 -209.351495 
L 395.773694 -210.059734 
L 395.416216 -210.773019 
L 395.058739 -211.491272 
L 394.701261 -212.214412 
L 394.343784 -212.942357 
L 393.986306 -213.675021 
L 393.628829 -214.412314 
L 393.271351 -215.154146 
L 392.913874 -215.900421 
L 392.556396 -216.651045 
L 392.198919 -217.405915 
L 391.841441 -218.164931 
L 391.483964 -218.927988 
L 391.126486 -219.694976 
L 390.769009 -220.465787 
L 390.411532 -221.240306 
L 390.054054 -222.018418 
L 389.696577 -222.800004 
L 389.339099 -223.584943 
L 388.981622 -224.373111 
L 388.624144 -225.164382 
L 388.266667 -225.958626 
L 387.909189 -226.755712 
L 387.551712 -227.555505 
L 387.194234 -228.357869 
L 386.836757 -229.162665 
L 386.479279 -229.969749 
L 386.121802 -230.77898 
L 385.764324 -231.590208 
L 385.406847 -232.403286 
L 385.049369 -233.218061 
L 384.691892 -234.03438 
L 384.334414 -234.852088 
L 383.976937 -235.671024 
L 383.619459 -236.491029 
L 383.261982 -237.31194 
L 382.904505 -238.133591 
L 382.547027 -238.955817 
L 382.18955 -239.778446 
L 381.832072 -240.60131 
L 381.474595 -241.424233 
L 381.117117 -242.247042 
L 380.75964 -243.069559 
L 380.402162 -243.891606 
L 380.044685 -244.713002 
L 379.687207 -245.533565 
L 379.32973 -246.353111 
L 378.972252 -247.171455 
L 378.614775 -247.98841 
L 378.257297 -248.803788 
L 377.89982 -249.617399 
L 377.542342 -250.429051 
L 377.184865 -251.238552 
L 376.827387 -252.04571 
L 376.46991 -252.850328 
L 376.112432 -253.652211 
L 375.754955 -254.451163 
L 375.397477 -255.246985 
L 375.04 -256.039479 
L 374.682523 -256.828446 
L 374.325045 -257.613685 
L 373.967568 -258.394996 
L 373.61009 -259.172178 
L 373.252613 -259.945028 
L 372.895135 -260.713344 
L 372.537658 -261.476924 
L 372.18018 -262.235565 
L 371.822703 -262.989064 
L 371.465225 -263.737218 
L 371.107748 -264.479823 
L 370.75027 -265.216678 
L 370.392793 -265.947578 
L 370.035315 -266.672321 
L 369.677838 -267.390705 
L 369.32036 -268.102528 
L 368.962883 -268.807589 
L 368.605405 -269.505686 
L 368.247928 -270.196619 
L 367.89045 -270.880189 
L 367.532973 -271.556197 
L 367.175495 -272.224445 
L 366.818018 -272.884736 
L 366.460541 -273.536875 
L 366.103063 -274.180667 
L 365.745586 -274.815919 
L 365.388108 -275.442439 
L 365.030631 -276.060035 
L 364.673153 -276.668519 
L 364.315676 -277.267704 
L 363.958198 -277.857403 
L 363.600721 -278.437433 
L 363.243243 -279.00761 
L 362.885766 -279.567755 
L 362.528288 -280.117689 
L 362.170811 -280.657236 
L 361.813333 -281.186221 
L 361.455856 -281.704473 
L 361.098378 -282.211822 
L 360.740901 -282.708101 
L 360.383423 -283.193145 
L 360.025946 -283.66679 
L 359.668468 -284.128879 
L 359.310991 -284.579254 
L 358.953514 -285.01776 
L 358.596036 -285.444246 
L 358.238559 -285.858564 
L 357.881081 -286.260569 
L 357.523604 -286.650116 
L 357.166126 -287.027068 
L 356.808649 -287.391288 
L 356.451171 -287.742643 
L 356.093694 -288.081004 
L 355.736216 -288.406243 
L 355.378739 -288.718238 
L 355.021261 -289.01687 
L 354.663784 -289.302022 
L 354.306306 -289.573582 
L 353.948829 -289.831442 
L 353.591351 -290.075495 
L 353.233874 -290.305642 
L 352.876396 -290.521785 
L 352.518919 -290.723829 
L 352.161441 -290.911685 
L 351.803964 -291.085266 
L 351.446486 -291.244492 
L 351.089009 -291.389283 
L 350.731532 -291.519566 
L 350.374054 -291.635271 
L 350.016577 -291.736332 
L 349.659099 -291.822687 
L 349.301622 -291.894278 
L 348.944144 -291.951052 
L 348.586667 -291.99296 
L 348.229189 -292.019956 
L 347.871712 -292.032 
L 347.514234 -292.029055 
L 347.156757 -292.011088 
L 346.799279 -291.978072 
L 346.441802 -291.929982 
L 346.084324 -291.8668 
L 345.726847 -291.788509 
L 345.369369 -291.695098 
L 345.011892 -291.586561 
L 344.654414 -291.462896 
L 344.296937 -291.324104 
L 343.939459 -291.17019 
L 343.581982 -291.001167 
L 343.224505 -290.888472 
L 342.867027 -291.045897 
L 342.50955 -291.187378 
L 342.152072 -291.312869 
L 341.794595 -291.422322 
L 341.437117 -291.515699 
L 341.07964 -291.592962 
L 340.722162 -291.654078 
L 340.364685 -291.699019 
L 340.007207 -291.72776 
L 339.64973 -291.740281 
L 339.292252 -291.736564 
L 338.934775 -291.716596 
L 338.577297 -291.68037 
L 338.21982 -291.627879 
L 337.862342 -291.559123 
L 337.504865 -291.474104 
L 337.147387 -291.372831 
L 336.78991 -291.255311 
L 336.432432 -291.121562 
L 336.074955 -290.9716 
L 335.717477 -290.805447 
L 335.36 -290.62313 
L 335.002523 -290.424677 
L 334.645045 -290.210122 
L 334.287568 -289.979502 
L 333.93009 -289.732857 
L 333.572613 -289.47023 
L 333.215135 -289.19167 
L 332.857658 -288.897226 
L 332.50018 -288.586955 
L 332.142703 -288.260912 
L 331.785225 -287.91916 
L 331.427748 -287.561763 
L 331.07027 -287.188789 
L 330.712793 -286.800307 
L 330.355315 -286.396394 
L 329.997838 -285.977125 
L 329.64036 -285.54258 
L 329.282883 -285.092844 
L 328.925405 -284.628002 
L 328.567928 -284.148144 
L 328.21045 -283.65336 
L 327.852973 -283.143747 
L 327.495495 -282.6194 
L 327.138018 -282.080421 
L 326.780541 -281.526911 
L 326.423063 -280.958976 
L 326.065586 -280.376724 
L 325.708108 -279.780265 
L 325.350631 -279.16971 
L 324.993153 -278.545175 
L 324.635676 -277.906777 
L 324.278198 -277.254634 
L 323.920721 -276.588867 
L 323.563243 -275.909601 
L 323.205766 -275.21696 
L 322.848288 -274.51107 
L 322.490811 -273.792062 
L 322.133333 -273.060065 
L 321.775856 -272.315212 
L 321.418378 -271.557638 
L 321.060901 -270.787476 
L 320.703423 -270.004866 
L 320.345946 -269.209944 
L 319.988468 -268.402852 
L 319.630991 -267.583731 
L 319.273514 -266.752722 
L 318.916036 -265.90997 
L 318.558559 -265.05562 
L 318.201081 -264.189818 
L 317.843604 -263.31271 
L 317.486126 -262.424445 
L 317.128649 -261.525171 
L 316.771171 -260.615038 
L 316.413694 -259.694197 
L 316.056216 -258.762799 
L 315.698739 -257.820995 
L 315.341261 -256.868939 
L 314.983784 -255.906782 
L 314.626306 -254.93468 
L 314.268829 -253.952785 
L 313.911351 -252.961252 
L 313.553874 -251.960237 
L 313.196396 -250.949893 
L 312.838919 -249.930377 
L 312.481441 -248.901843 
L 312.123964 -247.864448 
L 311.766486 -246.818348 
L 311.409009 -245.763698 
L 311.051532 -244.700654 
L 310.694054 -243.629372 
L 310.336577 -242.550008 
L 309.979099 -241.462718 
L 309.621622 -240.367657 
L 309.264144 -239.264982 
L 308.906667 -238.154846 
L 308.549189 -237.037406 
L 308.191712 -235.912817 
L 307.834234 -234.781232 
L 307.476757 -233.642806 
L 307.119279 -232.497693 
L 306.761802 -231.346046 
L 306.404324 -230.188019 
L 306.046847 -229.023764 
L 305.689369 -227.853434 
L 305.331892 -226.67718 
L 304.974414 -225.495153 
L 304.616937 -224.307506 
L 304.259459 -223.114387 
L 303.901982 -221.915947 
L 303.544505 -220.712335 
L 303.187027 -219.503699 
L 302.82955 -218.290189 
L 302.472072 -217.071951 
L 302.114595 -215.849132 
L 301.757117 -214.621879 
L 301.39964 -213.390338 
L 301.042162 -212.154655 
L 300.684685 -210.914972 
L 300.327207 -209.671436 
L 299.96973 -208.424188 
L 299.612252 -207.173373 
L 299.254775 -205.919131 
L 298.897297 -204.661606 
L 298.53982 -203.400938 
L 298.182342 -202.137266 
L 297.824865 -200.870733 
L 297.467387 -199.601475 
L 297.10991 -198.329634 
L 296.752432 -197.055345 
L 296.394955 -195.778748 
L 296.037477 -194.499979 
L 295.68 -193.219175 
L 295.322523 -191.936472 
L 294.965045 -190.652006 
L 294.607568 -189.365911 
L 294.25009 -188.078322 
L 293.892613 -186.789374 
L 293.535135 -185.4992 
L 293.177658 -184.207933 
L 292.82018 -182.915706 
L 292.462703 -181.622652 
L 292.105225 -180.328902 
L 291.747748 -179.034589 
L 291.39027 -177.739844 
L 291.032793 -176.444798 
L 290.675315 -175.149582 
L 290.317838 -173.854326 
L 289.96036 -172.55916 
L 289.602883 -171.264215 
L 289.245405 -169.96962 
L 288.887928 -168.675504 
L 288.53045 -167.381998 
L 288.172973 -166.08923 
L 287.815495 -164.797328 
L 287.458018 -163.506423 
L 287.100541 -162.216643 
L 286.743063 -160.928117 
L 286.385586 -159.640972 
L 286.028108 -158.355338 
L 285.670631 -157.071343 
L 285.313153 -155.789116 
L 284.955676 -154.508785 
L 284.598198 -153.230478 
L 284.240721 -151.954324 
L 283.883243 -150.680452 
L 283.525766 -149.408989 
L 283.168288 -148.140065 
L 282.810811 -146.873809 
L 282.453333 -145.610349 
L 282.095856 -144.349813 
L 281.738378 -143.092332 
L 281.380901 -141.838033 
L 281.023423 -140.587048 
L 280.665946 -139.339503 
L 280.308468 -138.09553 
L 279.950991 -136.855259 
L 279.593514 -135.618818 
L 279.236036 -134.386337 
L 278.878559 -133.157948 
L 278.521081 -131.933781 
L 278.163604 -130.713965 
L 277.806126 -129.498632 
L 277.448649 -128.287912 
L 277.091171 -127.081937 
L 276.733694 -125.880838 
L 276.376216 -124.684746 
L 276.018739 -123.493793 
L 275.661261 -122.30811 
L 275.303784 -121.12783 
L 274.946306 -119.953084 
L 274.588829 -118.784004 
L 274.231351 -117.620723 
L 273.873874 -116.463373 
L 273.516396 -115.312086 
L 273.158919 -114.166996 
L 272.801441 -113.028234 
L 272.443964 -111.895933 
L 272.086486 -110.770226 
L 271.729009 -109.742555 
L 271.371532 -108.85667 
L 271.014054 -107.974793 
L 270.656577 -107.096962 
L 270.299099 -106.223219 
L 269.941622 -105.353604 
L 269.584144 -104.488161 
L 269.226667 -103.626934 
L 268.869189 -102.769968 
L 268.511712 -101.917308 
L 268.154234 -101.069004 
L 267.796757 -100.225103 
L 267.439279 -99.385655 
L 267.081802 -98.550712 
L 266.724324 -97.720326 
L 266.366847 -96.894551 
L 266.009369 -96.073442 
L 265.651892 -95.257054 
L 265.294414 -94.445446 
L 264.936937 -93.638675 
L 264.579459 -92.836802 
L 264.221982 -92.039887 
L 263.864505 -91.247993 
L 263.507027 -90.461183 
L 263.14955 -89.679521 
L 262.792072 -88.903074 
L 262.434595 -88.131907 
L 262.077117 -87.36609 
L 261.71964 -86.605691 
L 261.362162 -85.850779 
L 261.004685 -85.101427 
L 260.647207 -84.357707 
L 260.28973 -83.619691 
L 259.932252 -82.887454 
L 259.574775 -82.161071 
L 259.217297 -81.440617 
L 258.85982 -80.726171 
L 258.502342 -80.01781 
L 258.144865 -79.315611 
L 257.787387 -78.619656 
L 257.42991 -77.930024 
L 257.072432 -77.246795 
L 256.714955 -76.570052 
L 256.357477 -75.899876 
L 256 -75.23635 
L 255.642523 -74.579558 
L 255.285045 -73.929584 
L 254.927568 -73.286511 
L 254.57009 -72.650425 
L 254.212613 -72.021411 
L 253.855135 -71.399554 
L 253.497658 -70.784939 
L 253.14018 -70.177653 
L 252.782703 -69.577783 
L 252.425225 -68.985413 
L 252.067748 -68.400631 
L 251.71027 -67.823523 
L 251.352793 -67.254176 
L 250.995315 -66.692675 
L 250.637838 -66.139106 
L 250.28036 -65.593557 
L 249.922883 -65.056113 
L 249.565405 -64.526858 
L 249.207928 -64.005879 
L 248.85045 -63.49326 
L 248.492973 -62.989085 
L 248.135495 -62.493439 
L 247.778018 -62.006404 
L 247.420541 -61.528063 
L 247.063063 -61.058499 
L 246.705586 -60.597792 
L 246.348108 -60.146023 
L 245.990631 -59.703272 
L 245.633153 -59.269617 
L 245.275676 -58.845137 
L 244.918198 -58.429908 
L 244.560721 -58.024005 
L 244.203243 -57.627505 
L 243.845766 -57.24048 
L 243.488288 -56.863003 
L 243.130811 -56.495144 
L 242.773333 -56.136974 
L 242.415856 -55.788561 
L 242.058378 -55.449972 
L 241.700901 -55.121273 
L 241.343423 -54.802528 
L 240.985946 -54.493799 
L 240.628468 -54.195147 
L 240.270991 -53.906632 
L 239.913514 -53.62831 
L 239.556036 -53.360238 
L 239.198559 -53.102471 
L 238.841081 -52.855059 
L 238.483604 -52.618053 
L 238.126126 -52.391502 
L 237.768649 -52.175453 
L 237.411171 -51.969949 
L 237.053694 -51.775033 
L 236.696216 -51.590745 
L 236.338739 -51.417125 
L 235.981261 -51.368891 
L 235.623784 -51.44816 
L 235.266306 -51.540893 
L 234.908829 -51.647023 
L 234.551351 -51.766477 
L 234.193874 -51.899181 
L 233.836396 -52.045057 
L 233.478919 -52.204023 
L 233.121441 -52.375995 
L 232.763964 -52.560886 
L 232.406486 -52.758604 
L 232.049009 -52.969057 
L 231.691532 -53.192147 
L 231.334054 -53.427774 
L 230.976577 -53.675835 
L 230.619099 -53.936225 
L 230.261622 -54.208834 
L 229.904144 -54.49355 
L 229.546667 -54.790259 
L 229.189189 -55.098843 
L 228.831712 -55.419181 
L 228.474234 -55.751151 
L 228.116757 -56.094627 
L 227.759279 -56.449478 
L 227.401802 -56.815576 
L 227.044324 -57.192784 
L 226.686847 -57.580967 
L 226.329369 -57.979987 
L 225.971892 -58.3897 
L 225.614414 -58.809964 
L 225.256937 -59.240631 
L 224.899459 -59.681554 
L 224.541982 -60.132582 
L 224.184505 -60.59356 
L 223.827027 -61.064335 
L 223.46955 -61.544748 
L 223.112072 -62.03464 
L 222.754595 -62.53385 
L 222.397117 -63.042215 
L 222.03964 -63.559568 
L 221.682162 -64.085743 
L 221.324685 -64.620571 
L 220.967207 -65.163882 
L 220.60973 -65.715503 
L 220.252252 -66.275261 
L 219.894775 -66.84298 
L 219.537297 -67.418484 
L 219.17982 -68.001594 
L 218.822342 -68.592132 
L 218.464865 -69.189916 
L 218.107387 -69.794764 
L 217.74991 -70.406494 
L 217.392432 -71.024922 
L 217.034955 -71.649862 
L 216.677477 -72.281129 
L 216.32 -72.918536 
L 215.962523 -73.561895 
L 215.605045 -74.211018 
L 215.247568 -74.865716 
L 214.89009 -75.525799 
L 214.532613 -76.191078 
L 214.175135 -76.861361 
L 213.817658 -77.536458 
L 213.46018 -78.216178 
L 213.102703 -78.90033 
L 212.745225 -79.58872 
L 212.387748 -80.281159 
L 212.03027 -80.977453 
L 211.672793 -81.677412 
L 211.315315 -82.380844 
L 210.957838 -83.087556 
L 210.60036 -83.797358 
L 210.242883 -84.510058 
L 209.885405 -85.225467 
L 209.527928 -85.943393 
L 209.17045 -86.663647 
L 208.812973 -87.386039 
L 208.455495 -88.110382 
L 208.098018 -88.836486 
L 207.740541 -89.564165 
L 207.383063 -90.293233 
L 207.025586 -91.023504 
L 206.668108 -91.754792 
L 206.310631 -92.486915 
L 205.953153 -93.21969 
L 205.595676 -93.952935 
L 205.238198 -94.68647 
L 204.880721 -95.420116 
L 204.523243 -96.153695 
L 204.165766 -96.88703 
L 203.808288 -97.619946 
L 203.450811 -98.352269 
L 203.093333 -99.083827 
L 202.735856 -99.81445 
L 202.378378 -100.543967 
L 202.020901 -101.272212 
L 201.663423 -101.999019 
L 201.305946 -102.724224 
L 200.948468 -103.447664 
L 200.590991 -104.169179 
L 200.233514 -104.88861 
L 199.876036 -105.605801 
L 199.518559 -106.320597 
L 199.161081 -107.032845 
L 198.803604 -107.742395 
L 198.446126 -108.449097 
L 198.088649 -109.152806 
L 197.731171 -109.853378 
L 197.373694 -110.550669 
L 197.016216 -111.244541 
L 196.658739 -111.934856 
L 196.301261 -112.621479 
L 195.943784 -113.304276 
L 195.586306 -113.983117 
L 195.228829 -114.657874 
L 194.871351 -115.328421 
L 194.513874 -115.994635 
L 194.156396 -116.656396 
L 193.798919 -117.313584 
L 193.441441 -117.966084 
L 193.083964 -118.613783 
L 192.726486 -119.256571 
L 192.369009 -119.894339 
L 192.011532 -120.526982 
L 191.654054 -121.154397 
L 191.296577 -121.776484 
L 190.939099 -122.393146 
L 190.581622 -123.004287 
L 190.224144 -123.609817 
L 189.866667 -124.209645 
L 189.509189 -124.803684 
L 189.151712 -125.391852 
L 188.794234 -125.974066 
L 188.436757 -126.550249 
L 188.079279 -127.120324 
L 187.721802 -127.684219 
L 187.364324 -128.241864 
L 187.006847 -128.793191 
L 186.649369 -129.338136 
L 186.291892 -129.876637 
L 185.934414 -130.408634 
L 185.576937 -130.934072 
L 185.219459 -131.452898 
L 184.861982 -131.965059 
L 184.504505 -132.470509 
L 184.147027 -132.969202 
L 183.78955 -133.461095 
L 183.432072 -133.946149 
L 183.074595 -134.424327 
L 182.717117 -134.895594 
L 182.35964 -135.35992 
L 182.002162 -135.817274 
L 181.644685 -136.267632 
L 181.287207 -136.710969 
L 180.92973 -137.147264 
L 180.572252 -137.576499 
L 180.214775 -137.998659 
L 179.857297 -138.413731 
L 179.49982 -138.821705 
L 179.142342 -139.222572 
L 178.784865 -139.616327 
L 178.427387 -140.002968 
L 178.06991 -140.382494 
L 177.712432 -140.754908 
L 177.354955 -141.120215 
L 176.997477 -141.478421 
L 176.64 -141.829536 
L 176.282523 -142.173573 
L 175.925045 -142.510546 
L 175.567568 -142.840471 
L 175.21009 -143.163368 
L 174.852613 -143.479258 
L 174.495135 -143.788164 
L 174.137658 -144.090112 
L 173.78018 -144.385131 
L 173.422703 -144.67325 
L 173.065225 -144.954502 
L 172.707748 -145.228922 
L 172.35027 -145.496545 
L 171.992793 -145.757411 
L 171.635315 -146.011559 
L 171.277838 -146.259033 
L 170.92036 -146.499877 
L 170.562883 -146.734138 
L 170.205405 -146.961862 
L 169.847928 -147.183102 
L 169.49045 -147.397908 
L 169.132973 -147.606334 
L 168.775495 -147.808435 
L 168.418018 -148.004269 
L 168.060541 -148.193894 
L 167.703063 -148.377371 
L 167.345586 -148.554761 
L 166.988108 -148.726127 
L 166.630631 -148.891536 
L 166.273153 -149.051052 
L 165.915676 -149.204744 
L 165.558198 -149.352681 
L 165.200721 -149.494933 
L 164.843243 -149.631573 
L 164.485766 -150.002679 
L 164.128288 -150.471299 
L 163.770811 -150.934587 
L 163.413333 -151.392529 
L 163.055856 -151.845115 
L 162.698378 -152.292332 
L 162.340901 -152.73417 
L 161.983423 -153.17062 
L 161.625946 -153.601675 
L 161.268468 -154.027328 
L 160.910991 -154.447573 
L 160.553514 -154.862406 
L 160.196036 -155.271823 
L 159.838559 -155.675821 
L 159.481081 -156.0744 
L 159.123604 -156.467557 
L 158.766126 -156.855295 
L 158.408649 -157.237614 
L 158.051171 -157.614516 
L 157.693694 -157.986006 
L 157.336216 -158.352086 
L 156.978739 -158.712762 
L 156.621261 -159.068041 
L 156.263784 -159.417927 
L 155.906306 -159.76243 
L 155.548829 -160.101557 
L 155.191351 -160.435318 
L 154.833874 -160.763722 
L 154.476396 -161.086781 
L 154.118919 -161.404505 
L 153.761441 -161.716907 
L 153.403964 -162.023999 
L 153.046486 -162.325795 
L 152.689009 -162.62231 
L 152.331532 -162.913558 
L 151.974054 -163.199554 
L 151.616577 -163.480314 
L 151.259099 -163.755856 
L 150.901622 -164.026196 
L 150.544144 -164.291352 
L 150.186667 -164.551343 
L 149.829189 -164.806187 
L 149.471712 -165.055904 
L 149.114234 -165.300513 
L 148.756757 -165.540035 
L 148.399279 -165.774491 
L 148.041802 -166.003902 
L 147.684324 -166.228289 
L 147.326847 -166.447675 
L 146.969369 -166.662082 
L 146.611892 -166.871532 
L 146.254414 -167.07605 
L 145.896937 -167.275658 
L 145.539459 -167.470381 
L 145.181982 -167.660242 
L 144.824505 -167.845267 
L 144.467027 -168.025479 
L 144.10955 -168.200904 
L 143.752072 -168.371568 
L 143.394595 -168.537495 
L 143.037117 -168.698712 
L 142.67964 -168.855244 
L 142.322162 -169.007118 
L 141.964685 -169.15436 
L 141.607207 -169.296997 
L 141.24973 -169.435055 
L 140.892252 -169.568562 
L 140.534775 -169.697544 
L 140.177297 -169.822028 
L 139.81982 -169.942042 
L 139.462342 -170.057614 
L 139.104865 -170.16877 
L 138.747387 -170.275539 
L 138.38991 -170.377948 
L 138.032432 -170.476024 
L 137.674955 -170.569796 
L 137.317477 -170.659291 
L 136.96 -170.744537 
L 136.602523 -170.825562 
L 136.245045 -170.902395 
L 135.887568 -170.975063 
L 135.53009 -171.043593 
L 135.172613 -171.108015 
L 134.815135 -171.168355 
L 134.457658 -171.224642 
L 134.10018 -171.276904 
L 133.742703 -171.325169 
L 133.385225 -171.369464 
L 133.027748 -171.409818 
L 132.67027 -171.446257 
L 132.312793 -171.478811 
L 131.955315 -171.507506 
L 131.597838 -171.532371 
L 131.24036 -171.553432 
L 130.882883 -171.570717 
L 130.525405 -171.584254 
L 130.167928 -171.594071 
L 129.81045 -171.600194 
L 129.452973 -171.60265 
L 129.095495 -171.601467 
L 128.738018 -171.596672 
L 128.380541 -171.588292 
L 128.023063 -171.576354 
L 127.665586 -171.560885 
L 127.308108 -171.54191 
L 126.950631 -171.519458 
L 126.593153 -171.493554 
L 126.235676 -171.464226 
L 125.878198 -171.431499 
L 125.520721 -171.395399 
L 125.163243 -171.355954 
L 124.805766 -171.313189 
L 124.448288 -171.26713 
L 124.090811 -171.217804 
L 123.733333 -171.165236 
L 123.375856 -171.109452 
L 123.018378 -171.050478 
L 122.660901 -170.988339 
L 122.303423 -170.923062 
L 121.945946 -170.854671 
L 121.588468 -170.783193 
L 121.230991 -170.708653 
L 120.873514 -170.631076 
L 120.516036 -170.550487 
L 120.158559 -170.466913 
L 119.801081 -170.380378 
L 119.443604 -170.290907 
L 119.086126 -170.198526 
L 118.728649 -170.103259 
L 118.371171 -170.005133 
L 118.013694 -169.904171 
L 117.656216 -169.8004 
L 117.298739 -169.693844 
L 116.941261 -169.584528 
L 116.583784 -169.472478 
L 116.226306 -169.357718 
L 115.868829 -169.240274 
L 115.511351 -169.120171 
L 115.153874 -168.997433 
L 114.796396 -168.872086 
L 114.438919 -168.744155 
L 114.081441 -168.613666 
L 113.723964 -168.480643 
L 113.366486 -168.345112 
L 113.009009 -168.207098 
L 112.651532 -168.066626 
L 112.294054 -167.923723 
L 111.936577 -167.778413 
L 111.579099 -167.630721 
L 111.221622 -167.480675 
L 110.864144 -167.328298 
L 110.506667 -167.173618 
L 110.149189 -167.01666 
L 109.791712 -166.857449 
L 109.434234 -166.696013 
L 109.076757 -166.532377 
L 108.719279 -166.366567 
L 108.361802 -166.198609 
L 108.004324 -166.028531 
L 107.646847 -165.856359 
L 107.289369 -165.68212 
L 106.931892 -165.505839 
L 106.574414 -165.327545 
L 106.216937 -165.147265 
L 105.859459 -164.965025 
L 105.501982 -164.780853 
L 105.144505 -164.594776 
L 104.787027 -164.406823 
L 104.42955 -164.217021 
L 104.072072 -164.025397 
L 103.714595 -163.83198 
L 103.357117 -163.636798 
L 102.99964 -163.439879 
L 102.642162 -163.241253 
L 102.284685 -163.040947 
L 101.927207 -162.83899 
L 101.56973 -162.635412 
L 101.212252 -162.430241 
L 100.854775 -162.223508 
L 100.497297 -162.01524 
L 100.13982 -161.805468 
L 99.782342 -161.594221 
L 99.424865 -161.38153 
L 99.067387 -161.167425 
L 98.70991 -160.951935 
L 98.352432 -160.735091 
L 97.994955 -160.516923 
L 97.637477 -160.297463 
L 97.28 -160.07674 
L 96.922523 -159.854787 
L 96.565045 -159.631633 
L 96.207568 -159.40731 
L 95.85009 -159.181849 
L 95.492613 -158.955283 
L 95.135135 -158.727641 
L 94.777658 -158.498957 
L 94.42018 -158.269262 
L 94.062703 -158.038587 
L 93.705225 -157.806966 
L 93.347748 -157.57443 
L 92.99027 -157.667554 
L 92.632793 -157.796619 
L 92.275315 -157.925332 
L 91.917838 -158.053653 
L 91.56036 -158.181544 
L 91.202883 -158.308968 
L 90.845405 -158.435886 
L 90.487928 -158.562263 
L 90.13045 -158.688062 
L 89.772973 -158.813246 
L 89.415495 -158.93778 
L 89.058018 -159.061628 
L 88.700541 -159.184757 
L 88.343063 -159.307131 
L 87.985586 -159.428718 
L 87.628108 -159.549484 
L 87.270631 -159.669397 
L 86.913153 -159.788424 
L 86.555676 -159.906536 
L 86.198198 -160.0237 
L 85.840721 -160.139887 
L 85.483243 -160.255067 
L 85.125766 -160.369211 
L 84.768288 -160.482291 
L 84.410811 -160.59428 
L 84.053333 -160.70515 
L 83.695856 -160.814875 
L 83.338378 -160.923429 
L 82.980901 -161.030788 
L 82.623423 -161.136926 
L 82.265946 -161.241822 
L 81.908468 -161.345451 
L 81.550991 -161.447791 
L 81.193514 -161.548821 
L 80.836036 -161.64852 
L 80.478559 -161.746869 
L 80.121081 -161.843847 
L 79.763604 -161.939436 
L 79.406126 -162.033618 
L 79.048649 -162.126377 
L 78.691171 -162.217694 
L 78.333694 -162.307556 
L 77.976216 -162.395947 
L 77.618739 -162.482852 
L 77.261261 -162.568259 
L 76.903784 -162.652154 
L 76.546306 -162.734525 
L 76.188829 -162.815362 
L 75.831351 -162.894653 
L 75.473874 -162.972389 
L 75.116396 -163.048561 
L 74.758919 -163.12316 
L 74.401441 -163.196179 
L 74.043964 -163.267611 
L 73.686486 -163.33745 
L 73.329009 -163.405691 
L 72.971532 -163.472328 
L 72.614054 -163.537358 
L 72.256577 -163.600777 
L 71.899099 -163.662583 
L 71.541622 -163.722774 
L 71.184144 -163.781348 
L 70.826667 -163.838306 
L 70.469189 -163.893647 
L 70.111712 -163.947372 
L 69.754234 -163.999483 
L 69.396757 -164.049981 
L 69.039279 -164.09887 
L 68.681802 -164.146153 
L 68.324324 -164.191834 
L 67.966847 -164.235917 
L 67.609369 -164.278409 
L 67.251892 -164.319314 
L 66.894414 -164.35864 
L 66.536937 -164.396393 
L 66.179459 -164.432581 
L 65.821982 -164.467213 
L 65.464505 -164.500297 
L 65.107027 -164.531842 
L 64.74955 -164.561859 
L 64.392072 -164.590357 
L 64.034595 -164.617348 
L 63.677117 -164.642842 
L 63.31964 -164.666853 
L 62.962162 -164.689392 
L 62.604685 -164.710471 
L 62.247207 -164.730106 
L 61.88973 -164.748308 
L 61.532252 -164.765092 
L 61.174775 -164.780473 
L 60.817297 -164.794466 
L 60.45982 -164.807086 
L 60.102342 -164.818349 
L 59.744865 -164.828271 
L 59.387387 -164.836868 
L 59.02991 -164.844158 
L 58.672432 -164.850157 
L 58.314955 -164.854883 
L 57.957477 -164.858354 
L 57.6 -164.860587 
z
" style="stroke: #808080; stroke-opacity: 0.2"/>
    </defs>
    <g clip-path="url(#pf181fa19d4)">
     <use xlink:href="#mcecfc2a0f3" x="0" y="345.6" style="fill: #808080; fill-opacity: 0.2; stroke: #808080; stroke-opacity: 0.2"/>
    </g>
   </g>
   <g id="line2d_27">
    <defs>
     <path id="mf327ba1f4a" d="M 0 3 
C 0.795609 3 1.55874 2.683901 2.12132 2.12132 
C 2.683901 1.55874 3 0.795609 3 0 
C 3 -0.795609 2.683901 -1.55874 2.12132 -2.12132 
C 1.55874 -2.683901 0.795609 -3 0 -3 
C -0.795609 -3 -1.55874 -2.683901 -2.12132 -2.12132 
C -2.683901 -1.55874 -3 -0.795609 -3 0 
C -3 0.795609 -2.683901 1.55874 -2.12132 2.12132 
C -1.55874 2.683901 -0.795609 3 0 3 
z
" style="stroke: #ff0000"/>
    </defs>
    <g clip-path="url(#pf181fa19d4)">
     <use xlink:href="#mf327ba1f4a" x="93.312" y="188.048874" style="fill: #ff0000; stroke: #ff0000"/>
     <use xlink:href="#mf327ba1f4a" x="164.736" y="195.928519" style="fill: #ff0000; stroke: #ff0000"/>
     <use xlink:href="#mf327ba1f4a" x="236.16" y="294.265675" style="fill: #ff0000; stroke: #ff0000"/>
     <use xlink:href="#mf327ba1f4a" x="271.872" y="235.501978" style="fill: #ff0000; stroke: #ff0000"/>
     <use xlink:href="#mf327ba1f4a" x="343.296" y="54.744922" style="fill: #ff0000; stroke: #ff0000"/>
    </g>
   </g>
   <g id="line2d_28">
    <path d="M 57.6 195.660413 
L 77.976216 190.815429 
L 85.483243 189.325907 
L 92.275315 188.201508 
L 99.424865 187.244301 
L 107.289369 186.416365 
L 116.583784 185.6674 
L 124.805766 185.210522 
L 130.882883 185.075462 
L 135.887568 185.186026 
L 139.81982 185.481192 
L 143.394595 185.962016 
L 146.611892 186.609974 
L 149.471712 187.389388 
L 152.331532 188.389251 
L 155.191351 189.637292 
L 157.693694 190.954019 
L 160.196036 192.498147 
L 162.698378 194.284978 
L 165.200721 196.327781 
L 167.703063 198.637307 
L 170.205405 201.22132 
L 173.065225 204.515953 
L 175.925045 208.174849 
L 178.784865 212.190946 
L 182.002162 217.117093 
L 185.219459 222.442304 
L 188.794234 228.768924 
L 193.083964 236.812145 
L 199.876036 250.108415 
L 206.668108 263.281639 
L 210.60036 270.443987 
L 213.817658 275.866252 
L 216.677477 280.257035 
L 219.17982 283.70594 
L 221.324685 286.332678 
L 223.46955 288.626555 
L 225.614414 290.563015 
L 227.401802 291.88798 
L 229.189189 292.93876 
L 230.976577 293.706082 
L 232.406486 294.110685 
L 233.836396 294.325872 
L 235.266306 294.349247 
L 236.696216 294.179126 
L 238.126126 293.814531 
L 239.556036 293.255178 
L 241.343423 292.282777 
L 243.130811 291.008954 
L 244.918198 289.437449 
L 246.705586 287.573427 
L 248.492973 285.423361 
L 250.637838 282.476551 
L 252.782703 279.14408 
L 255.285045 274.791472 
L 257.787387 269.966383 
L 260.647207 263.913425 
L 263.507027 257.332082 
L 266.724324 249.35686 
L 270.299099 239.865769 
L 274.231351 228.763202 
L 278.521081 215.987701 
L 283.525766 200.384679 
L 289.96036 179.538852 
L 308.549189 118.750792 
L 312.838919 105.769964 
L 316.413694 95.633554 
L 319.630991 87.181556 
L 322.490811 80.301059 
L 324.993153 74.835143 
L 327.495495 69.940591 
L 329.64036 66.236066 
L 331.785225 63.013103 
L 333.572613 60.712284 
L 335.36 58.773967 
L 337.147387 57.20777 
L 338.577297 56.227811 
L 340.007207 55.49355 
L 341.437117 55.006743 
L 342.867027 54.768126 
L 344.296937 54.777406 
L 345.726847 55.033237 
L 347.156757 55.533231 
L 348.586667 56.273952 
L 350.016577 57.250941 
L 351.446486 58.458734 
L 353.233874 60.283151 
L 355.021261 62.443479 
L 356.808649 64.922997 
L 358.953514 68.293342 
L 361.098378 72.060811 
L 363.600721 76.906457 
L 366.460541 82.957562 
L 369.677838 90.296243 
L 373.967568 100.704618 
L 382.547027 122.35356 
L 387.909189 135.544033 
L 392.198919 145.497831 
L 395.773694 153.237258 
L 398.990991 159.701935 
L 402.208288 165.653324 
L 405.068108 170.495587 
L 407.927928 174.911333 
L 410.787748 178.904249 
L 413.647568 182.485063 
L 414.72 183.724841 
L 414.72 183.724841 
" clip-path="url(#pf181fa19d4)" style="fill: none; stroke: #808080; stroke-width: 1.5; stroke-linecap: round"/>
   </g>
   <g id="patch_3">
    <path d="M 57.6 307.584 
L 57.6 41.472 
" style="fill: none; stroke: #cccccc; stroke-linejoin: miter; stroke-linecap: square"/>
   </g>
   <g id="patch_4">
    <path d="M 414.72 307.584 
L 414.72 41.472 
" style="fill: none; stroke: #cccccc; stroke-linejoin: miter; stroke-linecap: square"/>
   </g>
   <g id="patch_5">
    <path d="M 57.6 307.584 
L 414.72 307.584 
" style="fill: none; stroke: #cccccc; stroke-linejoin: miter; stroke-linecap: square"/>
   </g>
   <g id="patch_6">
    <path d="M 57.6 41.472 
L 414.72 41.472 
" style="fill: none; stroke: #cccccc; stroke-linejoin: miter; stroke-linecap: square"/>
   </g>
  </g>
 </g>
 <defs>
  <clipPath id="pf181fa19d4">
   <rect x="57.6" y="41.472" width="357.12" height="266.112"/>
  </clipPath>
 </defs>
</svg>
