<?xml version="1.0" encoding="utf-8" standalone="no"?>
<!DOCTYPE svg PUBLIC "-//W3C//DTD SVG 1.1//EN"
  "http://www.w3.org/Graphics/SVG/1.1/DTD/svg11.dtd">
<svg xmlns:xlink="http://www.w3.org/1999/xlink" width="864pt" height="288pt" viewBox="0 0 864 288" xmlns="http://www.w3.org/2000/svg" version="1.1">
 <metadata>
  <rdf:RDF xmlns:dc="http://purl.org/dc/elements/1.1/" xmlns:cc="http://creativecommons.org/ns#" xmlns:rdf="http://www.w3.org/1999/02/22-rdf-syntax-ns#">
   <cc:Work>
    <dc:type rdf:resource="http://purl.org/dc/dcmitype/StillImage"/>
    <dc:date>2023-08-03T20:33:44.898935</dc:date>
    <dc:format>image/svg+xml</dc:format>
    <dc:creator>
     <cc:Agent>
      <dc:title>Matplotlib v3.7.1, https://matplotlib.org/</dc:title>
     </cc:Agent>
    </dc:creator>
   </cc:Work>
  </rdf:RDF>
 </metadata>
 <defs>
  <style type="text/css">*{stroke-linejoin: round; stroke-linecap: butt}</style>
 </defs>
 <g id="figure_1">
  <g id="patch_1">
   <path d="M 0 288 
L 864 288 
L 864 0 
L 0 0 
z
" style="fill: #ffffff"/>
  </g>
  <g id="axes_1">
   <g id="patch_2">
    <path d="M 108 256.32 
L 777.6 256.32 
L 777.6 34.56 
L 108 34.56 
z
" style="fill: #ffffff"/>
   </g>
   <g id="matplotlib.axis_1">
    <g id="xtick_1">
     <g id="line2d_1">
      <path d="M 108 256.32 
L 108 34.56 
" clip-path="url(#pec8491e06e)" style="fill: none; stroke: #cccccc; stroke-width: 0.8; stroke-linecap: round"/>
     </g>
     <g id="line2d_2"/>
    </g>
    <g id="xtick_2">
     <g id="line2d_3">
      <path d="M 164.870137 256.32 
L 164.870137 34.56 
" clip-path="url(#pec8491e06e)" style="fill: none; stroke: #cccccc; stroke-width: 0.8; stroke-linecap: round"/>
     </g>
     <g id="line2d_4"/>
    </g>
    <g id="xtick_3">
     <g id="line2d_5">
      <path d="M 218.071233 256.32 
L 218.071233 34.56 
" clip-path="url(#pec8491e06e)" style="fill: none; stroke: #cccccc; stroke-width: 0.8; stroke-linecap: round"/>
     </g>
     <g id="line2d_6"/>
    </g>
    <g id="xtick_4">
     <g id="line2d_7">
      <path d="M 274.94137 256.32 
L 274.94137 34.56 
" clip-path="url(#pec8491e06e)" style="fill: none; stroke: #cccccc; stroke-width: 0.8; stroke-linecap: round"/>
     </g>
     <g id="line2d_8"/>
    </g>
    <g id="xtick_5">
     <g id="line2d_9">
      <path d="M 329.976986 256.32 
L 329.976986 34.56 
" clip-path="url(#pec8491e06e)" style="fill: none; stroke: #cccccc; stroke-width: 0.8; stroke-linecap: round"/>
     </g>
     <g id="line2d_10"/>
    </g>
    <g id="xtick_6">
     <g id="line2d_11">
      <path d="M 386.847123 256.32 
L 386.847123 34.56 
" clip-path="url(#pec8491e06e)" style="fill: none; stroke: #cccccc; stroke-width: 0.8; stroke-linecap: round"/>
     </g>
     <g id="line2d_12"/>
    </g>
    <g id="xtick_7">
     <g id="line2d_13">
      <path d="M 441.88274 256.32 
L 441.88274 34.56 
" clip-path="url(#pec8491e06e)" style="fill: none; stroke: #cccccc; stroke-width: 0.8; stroke-linecap: round"/>
     </g>
     <g id="line2d_14"/>
    </g>
    <g id="xtick_8">
     <g id="line2d_15">
      <path d="M 498.752877 256.32 
L 498.752877 34.56 
" clip-path="url(#pec8491e06e)" style="fill: none; stroke: #cccccc; stroke-width: 0.8; stroke-linecap: round"/>
     </g>
     <g id="line2d_16"/>
    </g>
    <g id="xtick_9">
     <g id="line2d_17">
      <path d="M 555.623014 256.32 
L 555.623014 34.56 
" clip-path="url(#pec8491e06e)" style="fill: none; stroke: #cccccc; stroke-width: 0.8; stroke-linecap: round"/>
     </g>
     <g id="line2d_18"/>
    </g>
    <g id="xtick_10">
     <g id="line2d_19">
      <path d="M 610.65863 256.32 
L 610.65863 34.56 
" clip-path="url(#pec8491e06e)" style="fill: none; stroke: #cccccc; stroke-width: 0.8; stroke-linecap: round"/>
     </g>
     <g id="line2d_20"/>
    </g>
    <g id="xtick_11">
     <g id="line2d_21">
      <path d="M 667.528767 256.32 
L 667.528767 34.56 
" clip-path="url(#pec8491e06e)" style="fill: none; stroke: #cccccc; stroke-width: 0.8; stroke-linecap: round"/>
     </g>
     <g id="line2d_22"/>
    </g>
    <g id="xtick_12">
     <g id="line2d_23">
      <path d="M 722.564384 256.32 
L 722.564384 34.56 
" clip-path="url(#pec8491e06e)" style="fill: none; stroke: #cccccc; stroke-width: 0.8; stroke-linecap: round"/>
     </g>
     <g id="line2d_24"/>
    </g>
    <g id="xtick_13">
     <g id="line2d_25"/>
     <g id="text_1">
      <!-- Jan -->
      <g style="fill: #262626" transform="translate(125.62235 266.966875) scale(0.1 -0.1)">
       <defs>
        <path id="LiberationSans-4a" d="M 1428 -63 
Q 309 -63 100 1094 
L 684 1191 
Q 741 828 937 625 
Q 1134 422 1431 422 
Q 1756 422 1943 645 
Q 2131 869 2131 1300 
L 2131 3916 
L 1284 3916 
L 1284 4403 
L 2725 4403 
L 2725 1313 
Q 2725 672 2378 304 
Q 2031 -63 1428 -63 
z
" transform="scale(0.015625)"/>
        <path id="LiberationSans-61" d="M 1294 -63 
Q 784 -63 528 206 
Q 272 475 272 944 
Q 272 1469 617 1750 
Q 963 2031 1731 2050 
L 2491 2063 
L 2491 2247 
Q 2491 2659 2316 2837 
Q 2141 3016 1766 3016 
Q 1388 3016 1216 2887 
Q 1044 2759 1009 2478 
L 422 2531 
Q 566 3444 1778 3444 
Q 2416 3444 2737 3151 
Q 3059 2859 3059 2306 
L 3059 850 
Q 3059 600 3125 473 
Q 3191 347 3375 347 
Q 3456 347 3559 369 
L 3559 19 
Q 3347 -31 3125 -31 
Q 2813 -31 2670 133 
Q 2528 297 2509 647 
L 2491 647 
Q 2275 259 1989 98 
Q 1703 -63 1294 -63 
z
M 1422 359 
Q 1731 359 1972 500 
Q 2213 641 2352 886 
Q 2491 1131 2491 1391 
L 2491 1669 
L 1875 1656 
Q 1478 1650 1273 1575 
Q 1069 1500 959 1344 
Q 850 1188 850 934 
Q 850 659 998 509 
Q 1147 359 1422 359 
z
" transform="scale(0.015625)"/>
        <path id="LiberationSans-6e" d="M 2578 0 
L 2578 2144 
Q 2578 2478 2512 2662 
Q 2447 2847 2303 2928 
Q 2159 3009 1881 3009 
Q 1475 3009 1240 2731 
Q 1006 2453 1006 1959 
L 1006 0 
L 444 0 
L 444 2659 
Q 444 3250 425 3381 
L 956 3381 
Q 959 3366 962 3297 
Q 966 3228 970 3139 
Q 975 3050 981 2803 
L 991 2803 
Q 1184 3153 1439 3298 
Q 1694 3444 2072 3444 
Q 2628 3444 2886 3167 
Q 3144 2891 3144 2253 
L 3144 0 
L 2578 0 
z
" transform="scale(0.015625)"/>
       </defs>
       <use xlink:href="#LiberationSans-4a"/>
       <use xlink:href="#LiberationSans-61" x="50"/>
       <use xlink:href="#LiberationSans-6e" x="105.615234"/>
      </g>
     </g>
    </g>
    <g id="xtick_14">
     <g id="line2d_26"/>
     <g id="text_2">
      <!-- Feb -->
      <g style="fill: #262626" transform="translate(181.938581 266.966875) scale(0.1 -0.1)">
       <defs>
        <path id="LiberationSans-46" d="M 1122 3916 
L 1122 2278 
L 3578 2278 
L 3578 1784 
L 1122 1784 
L 1122 0 
L 525 0 
L 525 4403 
L 3653 4403 
L 3653 3916 
L 1122 3916 
z
" transform="scale(0.015625)"/>
        <path id="LiberationSans-65" d="M 863 1572 
Q 863 991 1103 675 
Q 1344 359 1806 359 
Q 2172 359 2392 506 
Q 2613 653 2691 878 
L 3184 738 
Q 2881 -63 1806 -63 
Q 1056 -63 664 384 
Q 272 831 272 1713 
Q 272 2550 664 2997 
Q 1056 3444 1784 3444 
Q 3275 3444 3275 1647 
L 3275 1572 
L 863 1572 
z
M 2694 2003 
Q 2647 2538 2422 2783 
Q 2197 3028 1775 3028 
Q 1366 3028 1127 2754 
Q 888 2481 869 2003 
L 2694 2003 
z
" transform="scale(0.015625)"/>
        <path id="LiberationSans-62" d="M 3291 1706 
Q 3291 -63 2047 -63 
Q 1663 -63 1408 76 
Q 1153 216 994 525 
L 988 525 
Q 988 428 975 229 
Q 963 31 956 0 
L 413 0 
Q 431 169 431 697 
L 431 4638 
L 994 4638 
L 994 3316 
Q 994 3113 981 2838 
L 994 2838 
Q 1150 3163 1408 3303 
Q 1666 3444 2047 3444 
Q 2688 3444 2989 3012 
Q 3291 2581 3291 1706 
z
M 2700 1688 
Q 2700 2397 2512 2703 
Q 2325 3009 1903 3009 
Q 1428 3009 1211 2684 
Q 994 2359 994 1653 
Q 994 988 1206 670 
Q 1419 353 1897 353 
Q 2322 353 2511 667 
Q 2700 981 2700 1688 
z
" transform="scale(0.015625)"/>
       </defs>
       <use xlink:href="#LiberationSans-46"/>
       <use xlink:href="#LiberationSans-65" x="61.083984"/>
       <use xlink:href="#LiberationSans-62" x="116.699219"/>
      </g>
     </g>
    </g>
    <g id="xtick_15">
     <g id="line2d_27"/>
     <g id="text_3">
      <!-- Mär -->
      <g style="fill: #262626" transform="translate(235.144364 266.966875) scale(0.1 -0.1)">
       <defs>
        <path id="LiberationSans-4d" d="M 4269 0 
L 4269 2938 
Q 4269 3425 4297 3875 
Q 4144 3316 4022 3000 
L 2884 0 
L 2466 0 
L 1313 3000 
L 1138 3531 
L 1034 3875 
L 1044 3528 
L 1056 2938 
L 1056 0 
L 525 0 
L 525 4403 
L 1309 4403 
L 2481 1350 
Q 2544 1166 2601 955 
Q 2659 744 2678 650 
Q 2703 775 2783 1029 
Q 2863 1284 2891 1350 
L 4041 4403 
L 4806 4403 
L 4806 0 
L 4269 0 
z
" transform="scale(0.015625)"/>
        <path id="LiberationSans-e4" d="M 1294 -63 
Q 784 -63 528 206 
Q 272 475 272 944 
Q 272 1469 617 1750 
Q 963 2031 1731 2050 
L 2491 2063 
L 2491 2247 
Q 2491 2659 2316 2837 
Q 2141 3016 1766 3016 
Q 1388 3016 1216 2887 
Q 1044 2759 1009 2478 
L 422 2531 
Q 566 3444 1778 3444 
Q 2416 3444 2737 3151 
Q 3059 2859 3059 2306 
L 3059 850 
Q 3059 600 3125 473 
Q 3191 347 3375 347 
Q 3456 347 3559 369 
L 3559 19 
Q 3347 -31 3125 -31 
Q 2813 -31 2670 133 
Q 2528 297 2509 647 
L 2491 647 
Q 2275 259 1989 98 
Q 1703 -63 1294 -63 
z
M 1422 359 
Q 1731 359 1972 500 
Q 2213 641 2352 886 
Q 2491 1131 2491 1391 
L 2491 1669 
L 1875 1656 
Q 1478 1650 1273 1575 
Q 1069 1500 959 1344 
Q 850 1188 850 934 
Q 850 659 998 509 
Q 1147 359 1422 359 
z
M 2108 3809 
L 2108 4384 
L 2617 4384 
L 2617 3809 
L 2108 3809 
z
M 877 3809 
L 877 4384 
L 1392 4384 
L 1392 3809 
L 877 3809 
z
" transform="scale(0.015625)"/>
        <path id="LiberationSans-72" d="M 444 0 
L 444 2594 
Q 444 2950 425 3381 
L 956 3381 
Q 981 2806 981 2691 
L 994 2691 
Q 1128 3125 1303 3284 
Q 1478 3444 1797 3444 
Q 1909 3444 2025 3413 
L 2025 2897 
Q 1913 2928 1725 2928 
Q 1375 2928 1190 2626 
Q 1006 2325 1006 1763 
L 1006 0 
L 444 0 
z
" transform="scale(0.015625)"/>
       </defs>
       <use xlink:href="#LiberationSans-4d"/>
       <use xlink:href="#LiberationSans-e4" x="83.300781"/>
       <use xlink:href="#LiberationSans-72" x="138.916016"/>
      </g>
     </g>
    </g>
    <g id="xtick_16">
     <g id="line2d_28"/>
     <g id="text_4">
      <!-- Apr -->
      <g style="fill: #262626" transform="translate(292.844189 266.966875) scale(0.1 -0.1)">
       <defs>
        <path id="LiberationSans-41" d="M 3647 0 
L 3144 1288 
L 1138 1288 
L 631 0 
L 13 0 
L 1809 4403 
L 2488 4403 
L 4256 0 
L 3647 0 
z
M 2141 3953 
L 2113 3866 
Q 2034 3606 1881 3200 
L 1319 1753 
L 2966 1753 
L 2400 3206 
Q 2313 3422 2225 3694 
L 2141 3953 
z
" transform="scale(0.015625)"/>
        <path id="LiberationSans-70" d="M 3291 1706 
Q 3291 -63 2047 -63 
Q 1266 -63 997 525 
L 981 525 
Q 994 500 994 -6 
L 994 -1328 
L 431 -1328 
L 431 2691 
Q 431 3213 413 3381 
L 956 3381 
Q 959 3369 965 3292 
Q 972 3216 980 3056 
Q 988 2897 988 2838 
L 1000 2838 
Q 1150 3150 1397 3295 
Q 1644 3441 2047 3441 
Q 2672 3441 2981 3022 
Q 3291 2603 3291 1706 
z
M 2700 1694 
Q 2700 2400 2509 2703 
Q 2319 3006 1903 3006 
Q 1569 3006 1380 2865 
Q 1191 2725 1092 2426 
Q 994 2128 994 1650 
Q 994 984 1206 668 
Q 1419 353 1897 353 
Q 2316 353 2508 661 
Q 2700 969 2700 1694 
z
" transform="scale(0.015625)"/>
       </defs>
       <use xlink:href="#LiberationSans-41"/>
       <use xlink:href="#LiberationSans-70" x="66.699219"/>
       <use xlink:href="#LiberationSans-72" x="122.314453"/>
      </g>
     </g>
    </g>
    <g id="xtick_17">
     <g id="line2d_29"/>
     <g id="text_5">
      <!-- Mai -->
      <g style="fill: #262626" transform="translate(347.604024 266.966875) scale(0.1 -0.1)">
       <defs>
        <path id="LiberationSans-69" d="M 428 4100 
L 428 4638 
L 991 4638 
L 991 4100 
L 428 4100 
z
M 428 0 
L 428 3381 
L 991 3381 
L 991 0 
L 428 0 
z
" transform="scale(0.015625)"/>
       </defs>
       <use xlink:href="#LiberationSans-4d"/>
       <use xlink:href="#LiberationSans-61" x="83.300781"/>
       <use xlink:href="#LiberationSans-69" x="138.916016"/>
      </g>
     </g>
    </g>
    <g id="xtick_18">
     <g id="line2d_30"/>
     <g id="text_6">
      <!-- Jun -->
      <g style="fill: #262626" transform="translate(404.469473 266.966875) scale(0.1 -0.1)">
       <defs>
        <path id="LiberationSans-75" d="M 981 3381 
L 981 1238 
Q 981 903 1047 718 
Q 1113 534 1256 453 
Q 1400 372 1678 372 
Q 2084 372 2318 650 
Q 2553 928 2553 1422 
L 2553 3381 
L 3116 3381 
L 3116 722 
Q 3116 131 3134 0 
L 2603 0 
Q 2600 16 2597 84 
Q 2594 153 2589 242 
Q 2584 331 2578 578 
L 2569 578 
Q 2375 228 2120 82 
Q 1866 -63 1488 -63 
Q 931 -63 673 214 
Q 416 491 416 1128 
L 416 3381 
L 981 3381 
z
" transform="scale(0.015625)"/>
       </defs>
       <use xlink:href="#LiberationSans-4a"/>
       <use xlink:href="#LiberationSans-75" x="50"/>
       <use xlink:href="#LiberationSans-6e" x="105.615234"/>
      </g>
     </g>
    </g>
    <g id="xtick_19">
     <g id="line2d_31"/>
     <g id="text_7">
      <!-- Jul -->
      <g style="fill: #262626" transform="translate(461.174621 266.966875) scale(0.1 -0.1)">
       <defs>
        <path id="LiberationSans-6c" d="M 431 0 
L 431 4638 
L 994 4638 
L 994 0 
L 431 0 
z
" transform="scale(0.015625)"/>
       </defs>
       <use xlink:href="#LiberationSans-4a"/>
       <use xlink:href="#LiberationSans-75" x="50"/>
       <use xlink:href="#LiberationSans-6c" x="105.615234"/>
      </g>
     </g>
    </g>
    <g id="xtick_20">
     <g id="line2d_32"/>
     <g id="text_8">
      <!-- Aug -->
      <g style="fill: #262626" transform="translate(515.540071 266.966875) scale(0.1 -0.1)">
       <defs>
        <path id="LiberationSans-67" d="M 1713 -1328 
Q 1159 -1328 831 -1111 
Q 503 -894 409 -494 
L 975 -413 
Q 1031 -647 1223 -773 
Q 1416 -900 1728 -900 
Q 2569 -900 2569 84 
L 2569 628 
L 2563 628 
Q 2403 303 2125 139 
Q 1847 -25 1475 -25 
Q 853 -25 561 387 
Q 269 800 269 1684 
Q 269 2581 583 3007 
Q 897 3434 1538 3434 
Q 1897 3434 2161 3270 
Q 2425 3106 2569 2803 
L 2575 2803 
Q 2575 2897 2587 3128 
Q 2600 3359 2613 3381 
L 3147 3381 
Q 3128 3213 3128 2681 
L 3128 97 
Q 3128 -1328 1713 -1328 
z
M 2569 1691 
Q 2569 2103 2456 2401 
Q 2344 2700 2139 2858 
Q 1934 3016 1675 3016 
Q 1244 3016 1047 2703 
Q 850 2391 850 1691 
Q 850 997 1034 694 
Q 1219 391 1666 391 
Q 1931 391 2137 547 
Q 2344 703 2456 995 
Q 2569 1288 2569 1691 
z
" transform="scale(0.015625)"/>
       </defs>
       <use xlink:href="#LiberationSans-41"/>
       <use xlink:href="#LiberationSans-75" x="66.699219"/>
       <use xlink:href="#LiberationSans-67" x="122.314453"/>
      </g>
     </g>
    </g>
    <g id="xtick_21">
     <g id="line2d_33"/>
     <g id="text_9">
      <!-- Sep -->
      <g style="fill: #262626" transform="translate(572.410208 266.966875) scale(0.1 -0.1)">
       <defs>
        <path id="LiberationSans-53" d="M 3975 1216 
Q 3975 606 3498 271 
Q 3022 -63 2156 -63 
Q 547 -63 291 1056 
L 869 1172 
Q 969 775 1294 589 
Q 1619 403 2178 403 
Q 2756 403 3070 601 
Q 3384 800 3384 1184 
Q 3384 1400 3286 1534 
Q 3188 1669 3009 1756 
Q 2831 1844 2584 1903 
Q 2338 1963 2038 2031 
Q 1516 2147 1245 2262 
Q 975 2378 819 2520 
Q 663 2663 580 2853 
Q 497 3044 497 3291 
Q 497 3856 930 4162 
Q 1363 4469 2169 4469 
Q 2919 4469 3316 4239 
Q 3713 4009 3872 3456 
L 3284 3353 
Q 3188 3703 2916 3861 
Q 2644 4019 2163 4019 
Q 1634 4019 1356 3844 
Q 1078 3669 1078 3322 
Q 1078 3119 1186 2986 
Q 1294 2853 1497 2761 
Q 1700 2669 2306 2534 
Q 2509 2488 2711 2439 
Q 2913 2391 3097 2323 
Q 3281 2256 3442 2165 
Q 3603 2075 3722 1944 
Q 3841 1813 3908 1634 
Q 3975 1456 3975 1216 
z
" transform="scale(0.015625)"/>
       </defs>
       <use xlink:href="#LiberationSans-53"/>
       <use xlink:href="#LiberationSans-65" x="66.699219"/>
       <use xlink:href="#LiberationSans-70" x="122.314453"/>
      </g>
     </g>
    </g>
    <g id="xtick_22">
     <g id="line2d_34"/>
     <g id="text_10">
      <!-- Okt -->
      <g style="fill: #262626" transform="translate(628.563793 266.966875) scale(0.1 -0.1)">
       <defs>
        <path id="LiberationSans-4f" d="M 4672 2222 
Q 4672 1531 4408 1012 
Q 4144 494 3650 215 
Q 3156 -63 2484 -63 
Q 1806 -63 1314 212 
Q 822 488 562 1008 
Q 303 1528 303 2222 
Q 303 3278 881 3873 
Q 1459 4469 2491 4469 
Q 3163 4469 3656 4201 
Q 4150 3934 4411 3425 
Q 4672 2916 4672 2222 
z
M 4063 2222 
Q 4063 3044 3652 3512 
Q 3241 3981 2491 3981 
Q 1734 3981 1321 3518 
Q 909 3056 909 2222 
Q 909 1394 1326 908 
Q 1744 422 2484 422 
Q 3247 422 3655 892 
Q 4063 1363 4063 2222 
z
" transform="scale(0.015625)"/>
        <path id="LiberationSans-6b" d="M 2550 0 
L 1406 1544 
L 994 1203 
L 994 0 
L 431 0 
L 431 4638 
L 994 4638 
L 994 1741 
L 2478 3381 
L 3138 3381 
L 1766 1928 
L 3209 0 
L 2550 0 
z
" transform="scale(0.015625)"/>
        <path id="LiberationSans-74" d="M 1731 25 
Q 1453 -50 1163 -50 
Q 488 -50 488 716 
L 488 2972 
L 97 2972 
L 97 3381 
L 509 3381 
L 675 4138 
L 1050 4138 
L 1050 3381 
L 1675 3381 
L 1675 2972 
L 1050 2972 
L 1050 838 
Q 1050 594 1129 495 
Q 1209 397 1406 397 
Q 1519 397 1731 441 
L 1731 25 
z
" transform="scale(0.015625)"/>
       </defs>
       <use xlink:href="#LiberationSans-4f"/>
       <use xlink:href="#LiberationSans-6b" x="77.783203"/>
       <use xlink:href="#LiberationSans-74" x="127.783203"/>
      </g>
     </g>
    </g>
    <g id="xtick_23">
     <g id="line2d_35"/>
     <g id="text_11">
      <!-- Nov -->
      <g style="fill: #262626" transform="translate(684.320649 266.966875) scale(0.1 -0.1)">
       <defs>
        <path id="LiberationSans-4e" d="M 3381 0 
L 1025 3750 
L 1041 3447 
L 1056 2925 
L 1056 0 
L 525 0 
L 525 4403 
L 1219 4403 
L 3600 628 
Q 3563 1241 3563 1516 
L 3563 4403 
L 4100 4403 
L 4100 0 
L 3381 0 
z
" transform="scale(0.015625)"/>
        <path id="LiberationSans-6f" d="M 3291 1694 
Q 3291 806 2900 371 
Q 2509 -63 1766 -63 
Q 1025 -63 647 389 
Q 269 841 269 1694 
Q 269 3444 1784 3444 
Q 2559 3444 2925 3017 
Q 3291 2591 3291 1694 
z
M 2700 1694 
Q 2700 2394 2492 2711 
Q 2284 3028 1794 3028 
Q 1300 3028 1079 2704 
Q 859 2381 859 1694 
Q 859 1025 1076 689 
Q 1294 353 1759 353 
Q 2266 353 2483 678 
Q 2700 1003 2700 1694 
z
" transform="scale(0.015625)"/>
        <path id="LiberationSans-76" d="M 1916 0 
L 1250 0 
L 22 3381 
L 622 3381 
L 1366 1181 
Q 1406 1056 1581 441 
L 1691 806 
L 1813 1175 
L 2581 3381 
L 3178 3381 
L 1916 0 
z
" transform="scale(0.015625)"/>
       </defs>
       <use xlink:href="#LiberationSans-4e"/>
       <use xlink:href="#LiberationSans-6f" x="72.216797"/>
       <use xlink:href="#LiberationSans-76" x="127.832031"/>
      </g>
     </g>
    </g>
    <g id="xtick_24">
     <g id="line2d_36"/>
     <g id="text_12">
      <!-- Dez -->
      <g style="fill: #262626" transform="translate(739.356265 266.966875) scale(0.1 -0.1)">
       <defs>
        <path id="LiberationSans-44" d="M 4316 2247 
Q 4316 1566 4050 1055 
Q 3784 544 3296 272 
Q 2809 0 2172 0 
L 525 0 
L 525 4403 
L 1981 4403 
Q 3100 4403 3708 3842 
Q 4316 3281 4316 2247 
z
M 3716 2247 
Q 3716 3066 3267 3495 
Q 2819 3925 1969 3925 
L 1122 3925 
L 1122 478 
L 2103 478 
Q 2588 478 2955 690 
Q 3322 903 3519 1303 
Q 3716 1703 3716 2247 
z
" transform="scale(0.015625)"/>
        <path id="LiberationSans-7a" d="M 259 0 
L 259 428 
L 2150 2947 
L 366 2947 
L 366 3381 
L 2816 3381 
L 2816 2953 
L 922 434 
L 2881 434 
L 2881 0 
L 259 0 
z
" transform="scale(0.015625)"/>
       </defs>
       <use xlink:href="#LiberationSans-44"/>
       <use xlink:href="#LiberationSans-65" x="72.216797"/>
       <use xlink:href="#LiberationSans-7a" x="127.832031"/>
      </g>
     </g>
    </g>
   </g>
   <g id="matplotlib.axis_2">
    <g id="ytick_1">
     <g id="line2d_37">
      <path d="M 108 256.32 
L 777.6 256.32 
" clip-path="url(#pec8491e06e)" style="fill: none; stroke: #cccccc; stroke-width: 0.8; stroke-linecap: round"/>
     </g>
     <g id="line2d_38"/>
     <g id="text_13">
      <!-- 3600 -->
      <g style="fill: #262626" transform="translate(82.25625 259.943438) scale(0.1 -0.1)">
       <defs>
        <path id="LiberationSans-33" d="M 3278 1216 
Q 3278 606 2890 271 
Q 2503 -63 1784 -63 
Q 1116 -63 717 239 
Q 319 541 244 1131 
L 825 1184 
Q 938 403 1784 403 
Q 2209 403 2451 612 
Q 2694 822 2694 1234 
Q 2694 1594 2417 1795 
Q 2141 1997 1619 1997 
L 1300 1997 
L 1300 2484 
L 1606 2484 
Q 2069 2484 2323 2686 
Q 2578 2888 2578 3244 
Q 2578 3597 2370 3801 
Q 2163 4006 1753 4006 
Q 1381 4006 1151 3815 
Q 922 3625 884 3278 
L 319 3322 
Q 381 3863 767 4166 
Q 1153 4469 1759 4469 
Q 2422 4469 2789 4161 
Q 3156 3853 3156 3303 
Q 3156 2881 2920 2617 
Q 2684 2353 2234 2259 
L 2234 2247 
Q 2728 2194 3003 1916 
Q 3278 1638 3278 1216 
z
" transform="scale(0.015625)"/>
        <path id="LiberationSans-36" d="M 3278 1441 
Q 3278 744 2900 340 
Q 2522 -63 1856 -63 
Q 1113 -63 719 490 
Q 325 1044 325 2100 
Q 325 3244 734 3856 
Q 1144 4469 1900 4469 
Q 2897 4469 3156 3572 
L 2619 3475 
Q 2453 4013 1894 4013 
Q 1413 4013 1148 3564 
Q 884 3116 884 2266 
Q 1038 2550 1316 2698 
Q 1594 2847 1953 2847 
Q 2563 2847 2920 2465 
Q 3278 2084 3278 1441 
z
M 2706 1416 
Q 2706 1894 2472 2153 
Q 2238 2413 1819 2413 
Q 1425 2413 1183 2183 
Q 941 1953 941 1550 
Q 941 1041 1192 716 
Q 1444 391 1838 391 
Q 2244 391 2475 664 
Q 2706 938 2706 1416 
z
" transform="scale(0.015625)"/>
        <path id="LiberationSans-30" d="M 3309 2203 
Q 3309 1100 2920 518 
Q 2531 -63 1772 -63 
Q 1013 -63 631 515 
Q 250 1094 250 2203 
Q 250 3338 620 3903 
Q 991 4469 1791 4469 
Q 2569 4469 2939 3897 
Q 3309 3325 3309 2203 
z
M 2738 2203 
Q 2738 3156 2517 3584 
Q 2297 4013 1791 4013 
Q 1272 4013 1045 3591 
Q 819 3169 819 2203 
Q 819 1266 1048 831 
Q 1278 397 1778 397 
Q 2275 397 2506 840 
Q 2738 1284 2738 2203 
z
" transform="scale(0.015625)"/>
       </defs>
       <use xlink:href="#LiberationSans-33"/>
       <use xlink:href="#LiberationSans-36" x="55.615234"/>
       <use xlink:href="#LiberationSans-30" x="111.230469"/>
       <use xlink:href="#LiberationSans-30" x="166.845703"/>
      </g>
     </g>
    </g>
    <g id="ytick_2">
     <g id="line2d_39">
      <path d="M 108 231.68 
L 777.6 231.68 
" clip-path="url(#pec8491e06e)" style="fill: none; stroke: #cccccc; stroke-width: 0.8; stroke-linecap: round"/>
     </g>
     <g id="line2d_40"/>
     <g id="text_14">
      <!-- 3800 -->
      <g style="fill: #262626" transform="translate(82.25625 235.303438) scale(0.1 -0.1)">
       <defs>
        <path id="LiberationSans-38" d="M 3281 1228 
Q 3281 619 2893 278 
Q 2506 -63 1781 -63 
Q 1075 -63 676 271 
Q 278 606 278 1222 
Q 278 1653 525 1947 
Q 772 2241 1156 2303 
L 1156 2316 
Q 797 2400 589 2681 
Q 381 2963 381 3341 
Q 381 3844 757 4156 
Q 1134 4469 1769 4469 
Q 2419 4469 2795 4162 
Q 3172 3856 3172 3334 
Q 3172 2956 2962 2675 
Q 2753 2394 2391 2322 
L 2391 2309 
Q 2813 2241 3047 1952 
Q 3281 1663 3281 1228 
z
M 2588 3303 
Q 2588 4050 1769 4050 
Q 1372 4050 1164 3862 
Q 956 3675 956 3303 
Q 956 2925 1170 2726 
Q 1384 2528 1775 2528 
Q 2172 2528 2380 2711 
Q 2588 2894 2588 3303 
z
M 2697 1281 
Q 2697 1691 2453 1898 
Q 2209 2106 1769 2106 
Q 1341 2106 1100 1882 
Q 859 1659 859 1269 
Q 859 359 1788 359 
Q 2247 359 2472 579 
Q 2697 800 2697 1281 
z
" transform="scale(0.015625)"/>
       </defs>
       <use xlink:href="#LiberationSans-33"/>
       <use xlink:href="#LiberationSans-38" x="55.615234"/>
       <use xlink:href="#LiberationSans-30" x="111.230469"/>
       <use xlink:href="#LiberationSans-30" x="166.845703"/>
      </g>
     </g>
    </g>
    <g id="ytick_3">
     <g id="line2d_41">
      <path d="M 108 207.04 
L 777.6 207.04 
" clip-path="url(#pec8491e06e)" style="fill: none; stroke: #cccccc; stroke-width: 0.8; stroke-linecap: round"/>
     </g>
     <g id="line2d_42"/>
     <g id="text_15">
      <!-- 4000 -->
      <g style="fill: #262626" transform="translate(82.25625 210.663438) scale(0.1 -0.1)">
       <defs>
        <path id="LiberationSans-34" d="M 2753 997 
L 2753 0 
L 2222 0 
L 2222 997 
L 147 997 
L 147 1434 
L 2163 4403 
L 2753 4403 
L 2753 1441 
L 3372 1441 
L 3372 997 
L 2753 997 
z
M 2222 3769 
Q 2216 3750 2134 3603 
Q 2053 3456 2013 3397 
L 884 1734 
L 716 1503 
L 666 1441 
L 2222 1441 
L 2222 3769 
z
" transform="scale(0.015625)"/>
       </defs>
       <use xlink:href="#LiberationSans-34"/>
       <use xlink:href="#LiberationSans-30" x="55.615234"/>
       <use xlink:href="#LiberationSans-30" x="111.230469"/>
       <use xlink:href="#LiberationSans-30" x="166.845703"/>
      </g>
     </g>
    </g>
    <g id="ytick_4">
     <g id="line2d_43">
      <path d="M 108 182.4 
L 777.6 182.4 
" clip-path="url(#pec8491e06e)" style="fill: none; stroke: #cccccc; stroke-width: 0.8; stroke-linecap: round"/>
     </g>
     <g id="line2d_44"/>
     <g id="text_16">
      <!-- 4200 -->
      <g style="fill: #262626" transform="translate(82.25625 186.023438) scale(0.1 -0.1)">
       <defs>
        <path id="LiberationSans-32" d="M 322 0 
L 322 397 
Q 481 763 711 1042 
Q 941 1322 1194 1548 
Q 1447 1775 1695 1969 
Q 1944 2163 2144 2356 
Q 2344 2550 2467 2762 
Q 2591 2975 2591 3244 
Q 2591 3606 2378 3806 
Q 2166 4006 1788 4006 
Q 1428 4006 1195 3811 
Q 963 3616 922 3263 
L 347 3316 
Q 409 3844 795 4156 
Q 1181 4469 1788 4469 
Q 2453 4469 2811 4155 
Q 3169 3841 3169 3263 
Q 3169 3006 3051 2753 
Q 2934 2500 2703 2247 
Q 2472 1994 1819 1463 
Q 1459 1169 1246 933 
Q 1034 697 941 478 
L 3238 478 
L 3238 0 
L 322 0 
z
" transform="scale(0.015625)"/>
       </defs>
       <use xlink:href="#LiberationSans-34"/>
       <use xlink:href="#LiberationSans-32" x="55.615234"/>
       <use xlink:href="#LiberationSans-30" x="111.230469"/>
       <use xlink:href="#LiberationSans-30" x="166.845703"/>
      </g>
     </g>
    </g>
    <g id="ytick_5">
     <g id="line2d_45">
      <path d="M 108 157.76 
L 777.6 157.76 
" clip-path="url(#pec8491e06e)" style="fill: none; stroke: #cccccc; stroke-width: 0.8; stroke-linecap: round"/>
     </g>
     <g id="line2d_46"/>
     <g id="text_17">
      <!-- 4400 -->
      <g style="fill: #262626" transform="translate(82.25625 161.383438) scale(0.1 -0.1)">
       <use xlink:href="#LiberationSans-34"/>
       <use xlink:href="#LiberationSans-34" x="55.615234"/>
       <use xlink:href="#LiberationSans-30" x="111.230469"/>
       <use xlink:href="#LiberationSans-30" x="166.845703"/>
      </g>
     </g>
    </g>
    <g id="ytick_6">
     <g id="line2d_47">
      <path d="M 108 133.12 
L 777.6 133.12 
" clip-path="url(#pec8491e06e)" style="fill: none; stroke: #cccccc; stroke-width: 0.8; stroke-linecap: round"/>
     </g>
     <g id="line2d_48"/>
     <g id="text_18">
      <!-- 4600 -->
      <g style="fill: #262626" transform="translate(82.25625 136.743438) scale(0.1 -0.1)">
       <use xlink:href="#LiberationSans-34"/>
       <use xlink:href="#LiberationSans-36" x="55.615234"/>
       <use xlink:href="#LiberationSans-30" x="111.230469"/>
       <use xlink:href="#LiberationSans-30" x="166.845703"/>
      </g>
     </g>
    </g>
    <g id="ytick_7">
     <g id="line2d_49">
      <path d="M 108 108.48 
L 777.6 108.48 
" clip-path="url(#pec8491e06e)" style="fill: none; stroke: #cccccc; stroke-width: 0.8; stroke-linecap: round"/>
     </g>
     <g id="line2d_50"/>
     <g id="text_19">
      <!-- 4800 -->
      <g style="fill: #262626" transform="translate(82.25625 112.103438) scale(0.1 -0.1)">
       <use xlink:href="#LiberationSans-34"/>
       <use xlink:href="#LiberationSans-38" x="55.615234"/>
       <use xlink:href="#LiberationSans-30" x="111.230469"/>
       <use xlink:href="#LiberationSans-30" x="166.845703"/>
      </g>
     </g>
    </g>
    <g id="ytick_8">
     <g id="line2d_51">
      <path d="M 108 83.84 
L 777.6 83.84 
" clip-path="url(#pec8491e06e)" style="fill: none; stroke: #cccccc; stroke-width: 0.8; stroke-linecap: round"/>
     </g>
     <g id="line2d_52"/>
     <g id="text_20">
      <!-- 5000 -->
      <g style="fill: #262626" transform="translate(82.25625 87.463437) scale(0.1 -0.1)">
       <defs>
        <path id="LiberationSans-35" d="M 3291 1434 
Q 3291 738 2877 337 
Q 2463 -63 1728 -63 
Q 1113 -63 734 206 
Q 356 475 256 984 
L 825 1050 
Q 1003 397 1741 397 
Q 2194 397 2450 670 
Q 2706 944 2706 1422 
Q 2706 1838 2448 2094 
Q 2191 2350 1753 2350 
Q 1525 2350 1328 2278 
Q 1131 2206 934 2034 
L 384 2034 
L 531 4403 
L 3034 4403 
L 3034 3925 
L 1044 3925 
L 959 2528 
Q 1325 2809 1869 2809 
Q 2519 2809 2905 2428 
Q 3291 2047 3291 1434 
z
" transform="scale(0.015625)"/>
       </defs>
       <use xlink:href="#LiberationSans-35"/>
       <use xlink:href="#LiberationSans-30" x="55.615234"/>
       <use xlink:href="#LiberationSans-30" x="111.230469"/>
       <use xlink:href="#LiberationSans-30" x="166.845703"/>
      </g>
     </g>
    </g>
    <g id="ytick_9">
     <g id="line2d_53">
      <path d="M 108 59.2 
L 777.6 59.2 
" clip-path="url(#pec8491e06e)" style="fill: none; stroke: #cccccc; stroke-width: 0.8; stroke-linecap: round"/>
     </g>
     <g id="line2d_54"/>
     <g id="text_21">
      <!-- 5200 -->
      <g style="fill: #262626" transform="translate(82.25625 62.823437) scale(0.1 -0.1)">
       <use xlink:href="#LiberationSans-35"/>
       <use xlink:href="#LiberationSans-32" x="55.615234"/>
       <use xlink:href="#LiberationSans-30" x="111.230469"/>
       <use xlink:href="#LiberationSans-30" x="166.845703"/>
      </g>
     </g>
    </g>
    <g id="ytick_10">
     <g id="line2d_55">
      <path d="M 108 34.56 
L 777.6 34.56 
" clip-path="url(#pec8491e06e)" style="fill: none; stroke: #cccccc; stroke-width: 0.8; stroke-linecap: round"/>
     </g>
     <g id="line2d_56"/>
     <g id="text_22">
      <!-- 5400 -->
      <g style="fill: #262626" transform="translate(82.25625 38.183437) scale(0.1 -0.1)">
       <use xlink:href="#LiberationSans-35"/>
       <use xlink:href="#LiberationSans-34" x="55.615234"/>
       <use xlink:href="#LiberationSans-30" x="111.230469"/>
       <use xlink:href="#LiberationSans-30" x="166.845703"/>
      </g>
     </g>
    </g>
    <g id="text_23">
     <!-- average daily births -->
     <g style="fill: #262626" transform="translate(76.18125 188.793906) rotate(-90) scale(0.1 -0.1)">
      <defs>
       <path id="LiberationSans-20" transform="scale(0.015625)"/>
       <path id="LiberationSans-64" d="M 2566 544 
Q 2409 219 2151 78 
Q 1894 -63 1513 -63 
Q 872 -63 570 368 
Q 269 800 269 1675 
Q 269 3444 1513 3444 
Q 1897 3444 2153 3303 
Q 2409 3163 2566 2856 
L 2572 2856 
L 2566 3234 
L 2566 4638 
L 3128 4638 
L 3128 697 
Q 3128 169 3147 0 
L 2609 0 
Q 2600 50 2589 231 
Q 2578 413 2578 544 
L 2566 544 
z
M 859 1694 
Q 859 984 1046 678 
Q 1234 372 1656 372 
Q 2134 372 2350 703 
Q 2566 1034 2566 1731 
Q 2566 2403 2350 2715 
Q 2134 3028 1663 3028 
Q 1238 3028 1048 2714 
Q 859 2400 859 1694 
z
" transform="scale(0.015625)"/>
       <path id="LiberationSans-79" d="M 597 -1328 
Q 366 -1328 209 -1294 
L 209 -872 
Q 328 -891 472 -891 
Q 997 -891 1303 -119 
L 1356 16 
L 16 3381 
L 616 3381 
L 1328 1513 
Q 1344 1469 1366 1408 
Q 1388 1347 1506 1000 
Q 1625 653 1634 613 
L 1853 1228 
L 2594 3381 
L 3188 3381 
L 1888 0 
Q 1678 -541 1497 -805 
Q 1316 -1069 1095 -1198 
Q 875 -1328 597 -1328 
z
" transform="scale(0.015625)"/>
       <path id="LiberationSans-68" d="M 991 2803 
Q 1172 3134 1426 3289 
Q 1681 3444 2072 3444 
Q 2622 3444 2883 3170 
Q 3144 2897 3144 2253 
L 3144 0 
L 2578 0 
L 2578 2144 
Q 2578 2500 2512 2673 
Q 2447 2847 2297 2928 
Q 2147 3009 1881 3009 
Q 1484 3009 1245 2734 
Q 1006 2459 1006 1994 
L 1006 0 
L 444 0 
L 444 4638 
L 1006 4638 
L 1006 3431 
Q 1006 3241 995 3037 
Q 984 2834 981 2803 
L 991 2803 
z
" transform="scale(0.015625)"/>
       <path id="LiberationSans-73" d="M 2969 934 
Q 2969 456 2608 196 
Q 2247 -63 1597 -63 
Q 966 -63 623 145 
Q 281 353 178 794 
L 675 891 
Q 747 619 972 492 
Q 1197 366 1597 366 
Q 2025 366 2223 497 
Q 2422 628 2422 891 
Q 2422 1091 2284 1216 
Q 2147 1341 1841 1422 
L 1438 1528 
Q 953 1653 748 1773 
Q 544 1894 428 2066 
Q 313 2238 313 2488 
Q 313 2950 642 3192 
Q 972 3434 1603 3434 
Q 2163 3434 2492 3237 
Q 2822 3041 2909 2606 
L 2403 2544 
Q 2356 2769 2151 2889 
Q 1947 3009 1603 3009 
Q 1222 3009 1040 2893 
Q 859 2778 859 2544 
Q 859 2400 934 2306 
Q 1009 2213 1156 2147 
Q 1303 2081 1775 1966 
Q 2222 1853 2419 1758 
Q 2616 1663 2730 1547 
Q 2844 1431 2906 1279 
Q 2969 1128 2969 934 
z
" transform="scale(0.015625)"/>
      </defs>
      <use xlink:href="#LiberationSans-61"/>
      <use xlink:href="#LiberationSans-76" x="55.615234"/>
      <use xlink:href="#LiberationSans-65" x="105.615234"/>
      <use xlink:href="#LiberationSans-72" x="161.230469"/>
      <use xlink:href="#LiberationSans-61" x="194.53125"/>
      <use xlink:href="#LiberationSans-67" x="250.146484"/>
      <use xlink:href="#LiberationSans-65" x="305.761719"/>
      <use xlink:href="#LiberationSans-20" x="361.376953"/>
      <use xlink:href="#LiberationSans-64" x="389.160156"/>
      <use xlink:href="#LiberationSans-61" x="444.775391"/>
      <use xlink:href="#LiberationSans-69" x="500.390625"/>
      <use xlink:href="#LiberationSans-6c" x="522.607422"/>
      <use xlink:href="#LiberationSans-79" x="544.824219"/>
      <use xlink:href="#LiberationSans-20" x="594.824219"/>
      <use xlink:href="#LiberationSans-62" x="622.607422"/>
      <use xlink:href="#LiberationSans-69" x="678.222656"/>
      <use xlink:href="#LiberationSans-72" x="700.439453"/>
      <use xlink:href="#LiberationSans-74" x="733.740234"/>
      <use xlink:href="#LiberationSans-68" x="761.523438"/>
      <use xlink:href="#LiberationSans-73" x="817.138672"/>
     </g>
    </g>
   </g>
   <g id="line2d_57">
    <path d="M 108 205.90348 
L 109.834521 176.56032 
L 111.669041 145.32912 
L 113.503562 136.64968 
L 115.338082 132.6734 
L 117.172603 124.72392 
L 119.007123 119.94684 
L 120.841644 129.46712 
L 122.676164 140.78612 
L 124.510685 134.14256 
L 126.345205 123.86152 
L 128.179726 120.70144 
L 130.014247 117.09784 
L 131.848767 106.48416 
L 133.683288 116.65432 
L 135.517808 125.10892 
L 137.352329 126.38712 
L 139.186849 119.89756 
L 141.02137 116.91612 
L 142.85589 112.48092 
L 144.690411 109.6812 
L 146.524932 115.52704 
L 148.359452 124.8964 
L 150.193973 126.56576 
L 152.028493 121.0464 
L 153.863014 118.84112 
L 155.697534 115.00652 
L 157.532055 111.95424 
L 159.366575 120.51664 
L 161.201096 127.67148 
L 163.035616 133.33252 
L 164.870137 125.54936 
L 166.704658 115.49932 
L 168.539178 113.18316 
L 170.373699 113.30636 
L 172.208219 117.31344 
L 174.04274 123.49808 
L 175.87726 127.00312 
L 177.711781 124.67772 
L 179.546301 119.12756 
L 181.380822 108.37528 
L 183.215342 106.53344 
L 185.049863 105.56016 
L 186.884384 128.26592 
L 188.718904 100.7492 
L 190.553425 120.02076 
L 192.387945 116.85452 
L 194.222466 109.38244 
L 196.056986 105.89588 
L 197.891507 114.44288 
L 199.726027 114.48292 
L 201.560548 124.3112 
L 203.395068 114.45212 
L 205.229589 113.72216 
L 207.06411 104.9072 
L 208.89863 101.45452 
L 210.733151 109.64116 
L 212.567671 121.57 
L 214.402192 121.37904 
L 216.236712 130.23712 
L 218.071233 115.60404 
L 219.905753 114.57224 
L 221.740274 99.63732 
L 223.574795 105.82504 
L 225.409315 110.74688 
L 227.243836 118.105 
L 229.078356 118.03416 
L 230.912877 118.55468 
L 232.747397 121.77636 
L 234.581918 110.2818 
L 236.416438 110.23868 
L 238.250959 113.10924 
L 240.085479 126.65816 
L 241.92 118.45612 
L 243.754521 124.49292 
L 245.589041 120.34724 
L 247.423562 104.96264 
L 249.258082 111.7448 
L 251.092603 114.871 
L 252.927123 118.78568 
L 254.761644 117.9818 
L 256.596164 124.84096 
L 258.430685 121.14496 
L 260.265205 117.71384 
L 262.099726 111.72632 
L 263.934247 117.98796 
L 265.768767 123.15928 
L 267.603288 121.45912 
L 269.437808 125.10892 
L 271.272329 125.30604 
L 273.106849 117.9356 
L 274.94137 130.18476 
L 276.77589 115.40076 
L 278.610411 126.59964 
L 280.444932 123.32252 
L 282.279452 134.74316 
L 284.113973 127.84088 
L 285.948493 122.05048 
L 287.783014 119.31852 
L 289.617534 126.9754 
L 291.452055 131.80484 
L 293.286575 131.89416 
L 295.121096 134.25344 
L 296.955616 138.11268 
L 298.790137 123.2486 
L 300.624658 120.44272 
L 302.459178 126.16536 
L 304.293699 132.57792 
L 306.128219 128.9928 
L 307.96274 135.25136 
L 309.79726 134.19492 
L 311.631781 126.16844 
L 313.466301 122.43856 
L 315.300822 127.73308 
L 317.135342 135.44232 
L 318.969863 132.8428 
L 320.804384 134.5368 
L 322.638904 136.57576 
L 324.473425 126.15304 
L 326.307945 131.4876 
L 328.142466 131.25968 
L 329.976986 126.80292 
L 331.811507 131.06256 
L 333.646027 136.78828 
L 335.480548 135.9536 
L 337.315068 122.36464 
L 339.149589 123.39336 
L 340.98411 125.85736 
L 342.81863 130.194 
L 344.653151 132.02968 
L 346.487671 130.26484 
L 348.322192 126.68896 
L 350.156712 120.91704 
L 351.991233 125.52472 
L 353.825753 124.38512 
L 355.660274 123.44572 
L 357.494795 125.54936 
L 359.329315 129.82748 
L 362.998356 118.1204 
L 364.832877 107.62684 
L 366.667397 117.62144 
L 368.501918 119.1368 
L 370.336438 118.20048 
L 372.170959 122.1398 
L 374.005479 125.49084 
L 375.84 126.0052 
L 377.674521 116.09992 
L 379.509041 124.29272 
L 381.343562 120.30104 
L 383.178082 132.97524 
L 385.012603 133.48344 
L 386.847123 114.45828 
L 388.681644 107.90712 
L 390.516164 110.54052 
L 394.185205 119.953 
L 396.019726 111.94808 
L 397.854247 123.13464 
L 399.688767 123.02376 
L 401.523288 110.41732 
L 403.357808 104.6146 
L 405.192329 111.7294 
L 407.026849 115.102 
L 408.86137 124.32044 
L 410.69589 117.78776 
L 412.530411 114.58148 
L 414.364932 101.29128 
L 416.199452 100.64448 
L 419.868493 112.30228 
L 421.703014 104.62692 
L 423.537534 114.49524 
L 425.372055 109.019 
L 427.206575 102.25224 
L 429.041096 96.46492 
L 430.875616 97.27804 
L 432.710137 101.83028 
L 434.544658 102.03356 
L 436.379178 100.72148 
L 438.213699 98.42072 
L 440.048219 86.10688 
L 441.88274 81.13268 
L 443.71726 81.19736 
L 445.551781 99.92684 
L 447.386301 165.72796 
L 449.220822 120.94476 
L 451.055342 85.7496 
L 452.889863 64.93804 
L 454.724384 64.15264 
L 456.558904 74.55072 
L 458.393425 78.75184 
L 460.227945 86.02988 
L 462.062466 91.64164 
L 463.896986 92.16832 
L 465.731507 70.7808 
L 467.566027 66.5766 
L 473.069589 83.80304 
L 474.90411 87.55448 
L 476.73863 76.74984 
L 478.573151 73.07848 
L 480.407671 67.12484 
L 482.242192 72.47172 
L 484.076712 79.39864 
L 485.911233 80.22716 
L 487.745753 84.00016 
L 489.580274 75.1852 
L 491.414795 67.38972 
L 493.249315 65.12592 
L 495.083836 71.36908 
L 496.918356 78.26212 
L 498.752877 75.4624 
L 500.587397 82.78972 
L 502.421918 75.8012 
L 504.256438 73.00456 
L 506.090959 70.5344 
L 507.925479 70.17404 
L 509.76 73.65444 
L 511.594521 64.91956 
L 513.429041 80.41812 
L 515.263562 73.5682 
L 517.098082 70.99948 
L 518.932603 61.9566 
L 520.767123 74.43984 
L 522.601644 71.9204 
L 524.436164 70.7192 
L 526.270685 77.95104 
L 528.105205 74.61232 
L 529.939726 65.6064 
L 531.774247 64.94112 
L 533.608767 66.45648 
L 535.443288 73.71296 
L 537.277808 76.58968 
L 539.112329 82.97144 
L 540.946849 79.50336 
L 542.78137 70.57444 
L 544.61589 63.204 
L 546.450411 68.47696 
L 548.284932 71.54772 
L 550.119452 76.2016 
L 551.953973 80.40888 
L 553.788493 77.84632 
L 555.623014 95.13436 
L 557.457534 86.0576 
L 559.292055 83.35644 
L 561.126575 82.18912 
L 562.961096 89.43328 
L 564.795616 89.384 
L 566.630137 84.40056 
L 568.464658 63.45348 
L 570.299178 51.38912 
L 572.133699 57.4136 
L 573.968219 65.11976 
L 575.80274 64.02636 
L 577.63726 74.7386 
L 579.471781 58.67332 
L 581.306301 52.38088 
L 583.140822 44.0618 
L 584.975342 49.14996 
L 586.809863 53.44964 
L 588.644384 51.6232 
L 590.478904 53.25252 
L 592.313425 50.34192 
L 594.147945 44.80716 
L 595.982466 44.36364 
L 597.816986 48.84504 
L 599.651507 54.272 
L 601.486027 52.95992 
L 603.320548 60.41352 
L 605.155068 63.08696 
L 606.989589 56.88076 
L 608.82411 56.14772 
L 610.65863 63.22556 
L 612.493151 71.0734 
L 614.327671 75.5394 
L 616.162192 83.20244 
L 617.996712 80.75076 
L 619.831233 77.91408 
L 621.665753 80.87088 
L 623.500274 85.0874 
L 625.334795 90.56364 
L 627.169315 86.79988 
L 629.003836 101.781 
L 630.838356 96.97004 
L 632.672877 100.3642 
L 634.507397 91.96504 
L 636.341918 93.76376 
L 638.176438 104.97496 
L 640.010959 106.15768 
L 641.845479 114.4398 
L 643.68 110.59288 
L 645.514521 104.43596 
L 647.349041 100.75844 
L 651.018082 113.9624 
L 652.852603 113.55892 
L 654.687123 115.33608 
L 656.521644 109.95224 
L 658.356164 105.84968 
L 660.190685 105.26448 
L 662.025205 111.48916 
L 663.859726 115.24984 
L 665.694247 125.38304 
L 667.528767 117.12864 
L 669.363288 117.45512 
L 671.197808 105.79732 
L 673.032329 102.39392 
L 674.866849 107.48516 
L 676.70137 113.59588 
L 678.53589 110.55284 
L 680.370411 114.3012 
L 682.204932 110.4358 
L 684.039452 104.00784 
L 685.873973 102.89904 
L 687.708493 109.58572 
L 689.543014 116.75596 
L 691.377534 110.67912 
L 693.212055 114.45212 
L 695.046575 111.62776 
L 696.881096 103.25632 
L 698.715616 100.43504 
L 700.550137 103.013 
L 702.384658 106.093 
L 704.219178 108.37836 
L 706.053699 132.88592 
L 707.888219 126.87992 
L 709.72274 127.3142 
L 711.55726 126.98464 
L 713.391781 134.6908 
L 715.226301 144.01704 
L 717.060822 134.25652 
L 720.729863 112.73348 
L 722.564384 103.9832 
L 724.398904 104.74704 
L 726.233425 113.5928 
L 728.067945 118.49308 
L 729.902466 116.52804 
L 731.736986 122.88824 
L 733.571507 120.26716 
L 735.406027 108.01184 
L 737.240548 109.24076 
L 739.075068 110.28796 
L 740.909589 116.0568 
L 742.74411 109.55184 
L 744.57863 123.67364 
L 746.413151 109.45328 
L 748.247671 93.59744 
L 750.082192 87.77008 
L 753.751233 91.6786 
L 755.585753 88.40764 
L 757.420274 98.99052 
L 759.254795 106.49648 
L 761.089315 125.49084 
L 762.923836 149.54564 
L 764.758356 191.486 
L 766.592877 226.20376 
L 768.427397 159.78972 
L 770.261918 102.30152 
L 772.096438 78.39456 
L 773.930959 69.03752 
L 775.765479 62.60648 
L 777.6 101.18656 
L 777.6 101.18656 
" clip-path="url(#pec8491e06e)" style="fill: none; stroke: #1f77b4; stroke-width: 1.5; stroke-linecap: round"/>
   </g>
   <g id="patch_3">
    <path d="M 108 256.32 
L 108 34.56 
" style="fill: none; stroke: #cccccc; stroke-linejoin: miter; stroke-linecap: square"/>
   </g>
   <g id="patch_4">
    <path d="M 777.6 256.32 
L 777.6 34.56 
" style="fill: none; stroke: #cccccc; stroke-linejoin: miter; stroke-linecap: square"/>
   </g>
   <g id="patch_5">
    <path d="M 108 256.32 
L 777.6 256.32 
" style="fill: none; stroke: #cccccc; stroke-linejoin: miter; stroke-linecap: square"/>
   </g>
   <g id="patch_6">
    <path d="M 108 34.56 
L 777.6 34.56 
" style="fill: none; stroke: #cccccc; stroke-linejoin: miter; stroke-linecap: square"/>
   </g>
   <g id="patch_7">
    <path d="M 154.060218 218.749701 
Q 130.13476 212.549595 110.417994 196.68421 
" style="fill: none; stroke: #000000; stroke-linecap: round"/>
    <path d="M 112.280549 200.75003 
L 110.417994 196.68421 
L 114.788183 197.633658 
" style="fill: none; stroke: #000000; stroke-linecap: round"/>
   </g>
   <g id="text_24">
    <!-- New Year's Day -->
    <g style="fill: #262626" transform="translate(158 224.72) scale(0.1 -0.1)">
     <defs>
      <path id="LiberationSans-77" d="M 3669 0 
L 3016 0 
L 2425 2391 
L 2313 2919 
Q 2284 2778 2225 2514 
Q 2166 2250 1588 0 
L 938 0 
L -9 3381 
L 547 3381 
L 1119 1084 
Q 1141 1009 1253 466 
L 1306 697 
L 2013 3381 
L 2616 3381 
L 3206 1059 
L 3350 466 
L 3447 900 
L 4088 3381 
L 4638 3381 
L 3669 0 
z
" transform="scale(0.015625)"/>
      <path id="LiberationSans-59" d="M 2428 1825 
L 2428 0 
L 1834 0 
L 1834 1825 
L 141 4403 
L 797 4403 
L 2138 2306 
L 3472 4403 
L 4128 4403 
L 2428 1825 
z
" transform="scale(0.015625)"/>
      <path id="LiberationSans-27" d="M 831 3019 
L 391 3019 
L 325 4403 
L 900 4403 
L 831 3019 
z
" transform="scale(0.015625)"/>
     </defs>
     <use xlink:href="#LiberationSans-4e"/>
     <use xlink:href="#LiberationSans-65" x="72.216797"/>
     <use xlink:href="#LiberationSans-77" x="127.832031"/>
     <use xlink:href="#LiberationSans-20" x="200.048828"/>
     <use xlink:href="#LiberationSans-59" x="226.082031"/>
     <use xlink:href="#LiberationSans-65" x="283.65625"/>
     <use xlink:href="#LiberationSans-61" x="339.271484"/>
     <use xlink:href="#LiberationSans-72" x="394.886719"/>
     <use xlink:href="#LiberationSans-27" x="428.1875"/>
     <use xlink:href="#LiberationSans-73" x="447.279297"/>
     <use xlink:href="#LiberationSans-20" x="497.279297"/>
     <use xlink:href="#LiberationSans-44" x="525.0625"/>
     <use xlink:href="#LiberationSans-61" x="597.279297"/>
     <use xlink:href="#LiberationSans-79" x="652.894531"/>
    </g>
   </g>
   <g id="patch_8">
    <path d="M 454.688564 203.560731 
Q 451.29549 190.865863 448.191109 179.251113 
" style="fill: none; stroke: #000000; stroke-linecap: round"/>
    <path d="M 447.291794 183.631893 
L 448.191109 179.251113 
L 451.156144 182.599032 
" style="fill: none; stroke: #000000; stroke-linecap: round"/>
   </g>
   <g id="text_25">
    <g id="patch_9">
     <path d="M 415.412083 221.315 
L 499.36052 221.315 
Q 502.36052 221.315 502.36052 218.315 
L 502.36052 208.993125 
Q 502.36052 205.993125 499.36052 205.993125 
L 415.412083 205.993125 
Q 412.412083 205.993125 412.412083 208.993125 
L 412.412083 218.315 
Q 412.412083 221.315 415.412083 221.315 
L 415.412083 221.315 
z
" style="fill: none; stroke: #808080; stroke-linejoin: miter"/>
    </g>
    <!-- Independence Day -->
    <g style="fill: #262626" transform="translate(415.412083 216.24) scale(0.1 -0.1)">
     <defs>
      <path id="LiberationSans-49" d="M 591 0 
L 591 4403 
L 1188 4403 
L 1188 0 
L 591 0 
z
" transform="scale(0.015625)"/>
      <path id="LiberationSans-63" d="M 859 1706 
Q 859 1031 1071 706 
Q 1284 381 1713 381 
Q 2013 381 2214 543 
Q 2416 706 2463 1044 
L 3031 1006 
Q 2966 519 2616 228 
Q 2266 -63 1728 -63 
Q 1019 -63 645 385 
Q 272 834 272 1694 
Q 272 2547 647 2995 
Q 1022 3444 1722 3444 
Q 2241 3444 2583 3175 
Q 2925 2906 3013 2434 
L 2434 2391 
Q 2391 2672 2212 2837 
Q 2034 3003 1706 3003 
Q 1259 3003 1059 2706 
Q 859 2409 859 1706 
z
" transform="scale(0.015625)"/>
     </defs>
     <use xlink:href="#LiberationSans-49"/>
     <use xlink:href="#LiberationSans-6e" x="27.783203"/>
     <use xlink:href="#LiberationSans-64" x="83.398438"/>
     <use xlink:href="#LiberationSans-65" x="139.013672"/>
     <use xlink:href="#LiberationSans-70" x="194.628906"/>
     <use xlink:href="#LiberationSans-65" x="250.244141"/>
     <use xlink:href="#LiberationSans-6e" x="305.859375"/>
     <use xlink:href="#LiberationSans-64" x="361.474609"/>
     <use xlink:href="#LiberationSans-65" x="417.089844"/>
     <use xlink:href="#LiberationSans-6e" x="472.705078"/>
     <use xlink:href="#LiberationSans-63" x="528.320312"/>
     <use xlink:href="#LiberationSans-65" x="578.320312"/>
     <use xlink:href="#LiberationSans-20" x="633.935547"/>
     <use xlink:href="#LiberationSans-44" x="661.71875"/>
     <use xlink:href="#LiberationSans-61" x="733.935547"/>
     <use xlink:href="#LiberationSans-79" x="789.550781"/>
    </g>
   </g>
   <g id="text_26">
    <!-- Labor Day Weekend -->
    <g style="fill: #262626" transform="translate(515.63595 122.32) scale(0.1 -0.1)">
     <defs>
      <path id="LiberationSans-4c" d="M 525 0 
L 525 4403 
L 1122 4403 
L 1122 488 
L 3347 488 
L 3347 0 
L 525 0 
z
" transform="scale(0.015625)"/>
      <path id="LiberationSans-57" d="M 4722 0 
L 4009 0 
L 3247 2797 
Q 3172 3059 3028 3738 
Q 2947 3375 2890 3131 
Q 2834 2888 2038 0 
L 1325 0 
L 28 4403 
L 650 4403 
L 1441 1606 
Q 1581 1081 1700 525 
Q 1775 869 1873 1275 
Q 1972 1681 2741 4403 
L 3313 4403 
L 4078 1663 
Q 4253 991 4353 525 
L 4381 634 
Q 4466 994 4519 1220 
Q 4572 1447 5397 4403 
L 6019 4403 
L 4722 0 
z
" transform="scale(0.015625)"/>
     </defs>
     <use xlink:href="#LiberationSans-4c"/>
     <use xlink:href="#LiberationSans-61" x="55.615234"/>
     <use xlink:href="#LiberationSans-62" x="111.230469"/>
     <use xlink:href="#LiberationSans-6f" x="166.845703"/>
     <use xlink:href="#LiberationSans-72" x="222.460938"/>
     <use xlink:href="#LiberationSans-20" x="255.761719"/>
     <use xlink:href="#LiberationSans-44" x="283.544922"/>
     <use xlink:href="#LiberationSans-61" x="355.761719"/>
     <use xlink:href="#LiberationSans-79" x="411.376953"/>
     <use xlink:href="#LiberationSans-20" x="461.376953"/>
     <use xlink:href="#LiberationSans-57" x="489.160156"/>
     <use xlink:href="#LiberationSans-65" x="581.794922"/>
     <use xlink:href="#LiberationSans-65" x="637.410156"/>
     <use xlink:href="#LiberationSans-6b" x="693.025391"/>
     <use xlink:href="#LiberationSans-65" x="743.025391"/>
     <use xlink:href="#LiberationSans-6e" x="798.640625"/>
     <use xlink:href="#LiberationSans-64" x="854.255859"/>
    </g>
   </g>
   <g id="patch_10">
    <path d="M 564.628109 102.32 
Q 561.125883 102.32 557.623657 102.32 
" style="fill: none; stroke: #000000; stroke-linecap: round"/>
    <path d="M 564.628109 104.32 
L 564.628109 104.32 
L 564.628109 100.32 
L 564.628109 100.32 
" style="fill: none; stroke: #000000; stroke-linecap: round"/>
    <path d="M 557.623657 100.32 
L 557.623657 100.32 
L 557.623657 104.32 
L 557.623657 104.32 
" style="fill: none; stroke: #000000; stroke-linecap: round"/>
   </g>
   <g id="patch_11">
    <path d="M 637.489055 167.291014 
L 635.833684 165.662041 
Q 661.602014 160.122201 664.804841 138.242046 
L 663.318203 138.832535 
Q 664.166022 137.097666 665.652605 135.121184 
Q 666.966034 137.248178 667.280694 139.379038 
L 665.99665 138.382016 
Q 663.915179 161.496553 636.829047 169.536218 
L 637.489055 167.291014 
z
" style="fill: #999999"/>
   </g>
   <g id="text_27">
    <!-- Halloween -->
    <g style="fill: #262626" transform="translate(585.694247 173.12) scale(0.1 -0.1)">
     <defs>
      <path id="LiberationSans-48" d="M 3503 0 
L 3503 2041 
L 1122 2041 
L 1122 0 
L 525 0 
L 525 4403 
L 1122 4403 
L 1122 2541 
L 3503 2541 
L 3503 4403 
L 4100 4403 
L 4100 0 
L 3503 0 
z
" transform="scale(0.015625)"/>
     </defs>
     <use xlink:href="#LiberationSans-48"/>
     <use xlink:href="#LiberationSans-61" x="72.216797"/>
     <use xlink:href="#LiberationSans-6c" x="127.832031"/>
     <use xlink:href="#LiberationSans-6c" x="150.048828"/>
     <use xlink:href="#LiberationSans-6f" x="172.265625"/>
     <use xlink:href="#LiberationSans-77" x="227.880859"/>
     <use xlink:href="#LiberationSans-65" x="300.097656"/>
     <use xlink:href="#LiberationSans-65" x="355.712891"/>
     <use xlink:href="#LiberationSans-6e" x="411.328125"/>
    </g>
   </g>
   <g id="patch_12">
    <path d="M 657.272548 202.854062 
L 681.433612 202.854062 
Q 701.433612 202.854062 704.906576 183.157907 
L 711.016455 148.507058 
" style="fill: none; stroke: #000000; stroke-linecap: round"/>
    <path d="M 708.352247 152.098992 
L 711.016455 148.507058 
L 712.291478 152.793585 
" style="fill: none; stroke: #000000; stroke-linecap: round"/>
   </g>
   <g id="text_28">
    <g id="patch_13">
     <path d="M 589.05726 210.015 
C 591.55726 212.515 650.474448 212.515 652.974448 210.015 
C 655.474448 207.515 655.474448 198.193125 652.974448 195.693125 
C 650.474448 193.193125 591.55726 193.193125 589.05726 195.693125 
C 586.55726 198.193125 586.55726 207.515 589.05726 210.015 
z
" style="fill: #e6e6e6; stroke: #000000; stroke-linejoin: miter"/>
    </g>
    <!-- Thanksgiving -->
    <g style="fill: #262626" transform="translate(591.55726 205.44) scale(0.1 -0.1)">
     <defs>
      <path id="LiberationSans-54" d="M 2250 3916 
L 2250 0 
L 1656 0 
L 1656 3916 
L 144 3916 
L 144 4403 
L 3763 4403 
L 3763 3916 
L 2250 3916 
z
" transform="scale(0.015625)"/>
     </defs>
     <use xlink:href="#LiberationSans-54"/>
     <use xlink:href="#LiberationSans-68" x="61.083984"/>
     <use xlink:href="#LiberationSans-61" x="116.699219"/>
     <use xlink:href="#LiberationSans-6e" x="172.314453"/>
     <use xlink:href="#LiberationSans-6b" x="227.929688"/>
     <use xlink:href="#LiberationSans-73" x="277.929688"/>
     <use xlink:href="#LiberationSans-67" x="327.929688"/>
     <use xlink:href="#LiberationSans-69" x="383.544922"/>
     <use xlink:href="#LiberationSans-76" x="405.761719"/>
     <use xlink:href="#LiberationSans-69" x="455.761719"/>
     <use xlink:href="#LiberationSans-6e" x="477.978516"/>
     <use xlink:href="#LiberationSans-67" x="533.59375"/>
    </g>
   </g>
   <g id="patch_14">
    <path d="M 742.988923 228.77 
Q 753.789633 227.145 764.590344 225.52 
L 764.590344 225.52 
Q 753.789633 223.895 742.988923 222.27 
z
" style="fill: #1f77b4; opacity: 0.1; stroke: #000000; stroke-linecap: round"/>
   </g>
   <g id="text_29">
    <g id="patch_15">
     <path d="M 678.088814 235.479219 
L 736.592877 235.479219 
Q 740.492877 235.479219 740.492877 231.579219 
L 740.492877 219.460781 
Q 740.492877 215.560781 736.592877 215.560781 
L 678.088814 215.560781 
Q 674.188814 215.560781 674.188814 219.460781 
L 674.188814 231.579219 
Q 674.188814 235.479219 678.088814 235.479219 
z
" style="fill: #1f77b4; opacity: 0.1; stroke: #000000; stroke-linejoin: miter"/>
    </g>
    <!-- Christmas -->
    <g style="fill: #262626" transform="translate(678.088814 228.881719) scale(0.13 -0.13)">
     <defs>
      <path id="LiberationSans-43" d="M 2475 3981 
Q 1744 3981 1337 3511 
Q 931 3041 931 2222 
Q 931 1413 1354 920 
Q 1778 428 2500 428 
Q 3425 428 3891 1344 
L 4378 1100 
Q 4106 531 3614 234 
Q 3122 -63 2472 -63 
Q 1806 -63 1320 214 
Q 834 491 579 1005 
Q 325 1519 325 2222 
Q 325 3275 894 3872 
Q 1463 4469 2469 4469 
Q 3172 4469 3644 4194 
Q 4116 3919 4338 3378 
L 3772 3191 
Q 3619 3575 3280 3778 
Q 2941 3981 2475 3981 
z
" transform="scale(0.015625)"/>
      <path id="LiberationSans-6d" d="M 2400 0 
L 2400 2144 
Q 2400 2634 2265 2821 
Q 2131 3009 1781 3009 
Q 1422 3009 1212 2734 
Q 1003 2459 1003 1959 
L 1003 0 
L 444 0 
L 444 2659 
Q 444 3250 425 3381 
L 956 3381 
Q 959 3366 962 3297 
Q 966 3228 970 3139 
Q 975 3050 981 2803 
L 991 2803 
Q 1172 3163 1406 3303 
Q 1641 3444 1978 3444 
Q 2363 3444 2586 3291 
Q 2809 3138 2897 2803 
L 2906 2803 
Q 3081 3144 3329 3294 
Q 3578 3444 3931 3444 
Q 4444 3444 4676 3166 
Q 4909 2888 4909 2253 
L 4909 0 
L 4353 0 
L 4353 2144 
Q 4353 2634 4218 2821 
Q 4084 3009 3734 3009 
Q 3366 3009 3161 2736 
Q 2956 2463 2956 1959 
L 2956 0 
L 2400 0 
z
" transform="scale(0.015625)"/>
     </defs>
     <use xlink:href="#LiberationSans-43"/>
     <use xlink:href="#LiberationSans-68" x="72.216797"/>
     <use xlink:href="#LiberationSans-72" x="127.832031"/>
     <use xlink:href="#LiberationSans-69" x="161.132812"/>
     <use xlink:href="#LiberationSans-73" x="183.349609"/>
     <use xlink:href="#LiberationSans-74" x="233.349609"/>
     <use xlink:href="#LiberationSans-6d" x="261.132812"/>
     <use xlink:href="#LiberationSans-61" x="344.433594"/>
     <use xlink:href="#LiberationSans-73" x="400.048828"/>
    </g>
   </g>
   <g id="text_30">
    <!-- USA births by day of year (1969-1988) -->
    <g style="fill: #262626" transform="translate(340.750313 28.56) scale(0.12 -0.12)">
     <defs>
      <path id="LiberationSans-55" d="M 2284 -63 
Q 1744 -63 1341 134 
Q 938 331 716 706 
Q 494 1081 494 1600 
L 494 4403 
L 1091 4403 
L 1091 1650 
Q 1091 1047 1397 734 
Q 1703 422 2281 422 
Q 2875 422 3204 745 
Q 3534 1069 3534 1691 
L 3534 4403 
L 4128 4403 
L 4128 1656 
Q 4128 1122 3901 734 
Q 3675 347 3261 142 
Q 2847 -63 2284 -63 
z
" transform="scale(0.015625)"/>
      <path id="LiberationSans-66" d="M 1128 2972 
L 1128 0 
L 566 0 
L 566 2972 
L 91 2972 
L 91 3381 
L 566 3381 
L 566 3763 
Q 566 4225 769 4428 
Q 972 4631 1391 4631 
Q 1625 4631 1788 4594 
L 1788 4166 
Q 1647 4191 1538 4191 
Q 1322 4191 1225 4081 
Q 1128 3972 1128 3684 
L 1128 3381 
L 1788 3381 
L 1788 2972 
L 1128 2972 
z
" transform="scale(0.015625)"/>
      <path id="LiberationSans-28" d="M 397 1663 
Q 397 2566 680 3284 
Q 963 4003 1550 4638 
L 2094 4638 
Q 1509 3988 1236 3256 
Q 963 2525 963 1656 
Q 963 791 1233 62 
Q 1503 -666 2094 -1325 
L 1550 -1325 
Q 959 -688 678 32 
Q 397 753 397 1650 
L 397 1663 
z
" transform="scale(0.015625)"/>
      <path id="LiberationSans-31" d="M 488 0 
L 488 478 
L 1609 478 
L 1609 3866 
L 616 3156 
L 616 3688 
L 1656 4403 
L 2175 4403 
L 2175 478 
L 3247 478 
L 3247 0 
L 488 0 
z
" transform="scale(0.015625)"/>
      <path id="LiberationSans-39" d="M 3256 2291 
Q 3256 1156 2842 546 
Q 2428 -63 1663 -63 
Q 1147 -63 836 154 
Q 525 372 391 856 
L 928 941 
Q 1097 391 1672 391 
Q 2156 391 2422 841 
Q 2688 1291 2700 2125 
Q 2575 1844 2272 1673 
Q 1969 1503 1606 1503 
Q 1013 1503 656 1909 
Q 300 2316 300 2988 
Q 300 3678 687 4073 
Q 1075 4469 1766 4469 
Q 2500 4469 2878 3925 
Q 3256 3381 3256 2291 
z
M 2644 2834 
Q 2644 3366 2400 3689 
Q 2156 4013 1747 4013 
Q 1341 4013 1106 3736 
Q 872 3459 872 2988 
Q 872 2506 1106 2226 
Q 1341 1947 1741 1947 
Q 1984 1947 2193 2058 
Q 2403 2169 2523 2372 
Q 2644 2575 2644 2834 
z
" transform="scale(0.015625)"/>
      <path id="LiberationSans-2d" d="M 284 1450 
L 284 1950 
L 1847 1950 
L 1847 1450 
L 284 1450 
z
" transform="scale(0.015625)"/>
      <path id="LiberationSans-29" d="M 1734 1650 
Q 1734 747 1451 28 
Q 1169 -691 581 -1325 
L 38 -1325 
Q 625 -669 897 57 
Q 1169 784 1169 1656 
Q 1169 2528 895 3256 
Q 622 3984 38 4638 
L 581 4638 
Q 1172 4000 1453 3279 
Q 1734 2559 1734 1663 
L 1734 1650 
z
" transform="scale(0.015625)"/>
     </defs>
     <use xlink:href="#LiberationSans-55"/>
     <use xlink:href="#LiberationSans-53" x="72.216797"/>
     <use xlink:href="#LiberationSans-41" x="138.916016"/>
     <use xlink:href="#LiberationSans-20" x="200.115234"/>
     <use xlink:href="#LiberationSans-62" x="227.898438"/>
     <use xlink:href="#LiberationSans-69" x="283.513672"/>
     <use xlink:href="#LiberationSans-72" x="305.730469"/>
     <use xlink:href="#LiberationSans-74" x="339.03125"/>
     <use xlink:href="#LiberationSans-68" x="366.814453"/>
     <use xlink:href="#LiberationSans-73" x="422.429688"/>
     <use xlink:href="#LiberationSans-20" x="472.429688"/>
     <use xlink:href="#LiberationSans-62" x="500.212891"/>
     <use xlink:href="#LiberationSans-79" x="555.828125"/>
     <use xlink:href="#LiberationSans-20" x="605.828125"/>
     <use xlink:href="#LiberationSans-64" x="633.611328"/>
     <use xlink:href="#LiberationSans-61" x="689.226562"/>
     <use xlink:href="#LiberationSans-79" x="744.841797"/>
     <use xlink:href="#LiberationSans-20" x="794.841797"/>
     <use xlink:href="#LiberationSans-6f" x="822.625"/>
     <use xlink:href="#LiberationSans-66" x="878.240234"/>
     <use xlink:href="#LiberationSans-20" x="906.023438"/>
     <use xlink:href="#LiberationSans-79" x="933.806641"/>
     <use xlink:href="#LiberationSans-65" x="983.806641"/>
     <use xlink:href="#LiberationSans-61" x="1039.421875"/>
     <use xlink:href="#LiberationSans-72" x="1095.037109"/>
     <use xlink:href="#LiberationSans-20" x="1128.337891"/>
     <use xlink:href="#LiberationSans-28" x="1156.121094"/>
     <use xlink:href="#LiberationSans-31" x="1189.421875"/>
     <use xlink:href="#LiberationSans-39" x="1245.037109"/>
     <use xlink:href="#LiberationSans-36" x="1300.652344"/>
     <use xlink:href="#LiberationSans-39" x="1356.267578"/>
     <use xlink:href="#LiberationSans-2d" x="1411.882812"/>
     <use xlink:href="#LiberationSans-31" x="1445.183594"/>
     <use xlink:href="#LiberationSans-39" x="1500.798828"/>
     <use xlink:href="#LiberationSans-38" x="1556.414062"/>
     <use xlink:href="#LiberationSans-38" x="1612.029297"/>
     <use xlink:href="#LiberationSans-29" x="1667.644531"/>
    </g>
   </g>
   <g id="legend_1">
    <g id="line2d_58">
     <path d="M 716.148438 47.306875 
L 726.148438 47.306875 
L 736.148438 47.306875 
" style="fill: none; stroke: #1f77b4; stroke-width: 1.5; stroke-linecap: round"/>
    </g>
    <g id="text_31">
     <!-- births -->
     <g style="fill: #262626" transform="translate(744.148438 50.806875) scale(0.1 -0.1)">
      <use xlink:href="#LiberationSans-62"/>
      <use xlink:href="#LiberationSans-69" x="55.615234"/>
      <use xlink:href="#LiberationSans-72" x="77.832031"/>
      <use xlink:href="#LiberationSans-74" x="111.132812"/>
      <use xlink:href="#LiberationSans-68" x="138.916016"/>
      <use xlink:href="#LiberationSans-73" x="194.53125"/>
     </g>
    </g>
   </g>
  </g>
 </g>
 <defs>
  <clipPath id="pec8491e06e">
   <rect x="108" y="34.56" width="669.6" height="221.76"/>
  </clipPath>
 </defs>
</svg>
