<?xml version="1.0" encoding="utf-8" standalone="no"?>
<!DOCTYPE svg PUBLIC "-//W3C//DTD SVG 1.1//EN"
  "http://www.w3.org/Graphics/SVG/1.1/DTD/svg11.dtd">
<svg xmlns:xlink="http://www.w3.org/1999/xlink" width="460.8pt" height="345.6pt" viewBox="0 0 460.8 345.6" xmlns="http://www.w3.org/2000/svg" version="1.1">
 <metadata>
  <rdf:RDF xmlns:dc="http://purl.org/dc/elements/1.1/" xmlns:cc="http://creativecommons.org/ns#" xmlns:rdf="http://www.w3.org/1999/02/22-rdf-syntax-ns#">
   <cc:Work>
    <dc:type rdf:resource="http://purl.org/dc/dcmitype/StillImage"/>
    <dc:date>2023-08-07T19:12:33.250842</dc:date>
    <dc:format>image/svg+xml</dc:format>
    <dc:creator>
     <cc:Agent>
      <dc:title>Matplotlib v3.7.1, https://matplotlib.org/</dc:title>
     </cc:Agent>
    </dc:creator>
   </cc:Work>
  </rdf:RDF>
 </metadata>
 <defs>
  <style type="text/css">*{stroke-linejoin: round; stroke-linecap: butt}</style>
 </defs>
 <g id="figure_1">
  <g id="patch_1">
   <path d="M 0 345.6 
L 460.8 345.6 
L 460.8 0 
L 0 0 
z
" style="fill: #ffffff"/>
  </g>
  <g id="patch_2">
   <path d="M 103.104 307.584 
L 369.216 307.584 
L 369.216 41.472 
L 103.104 41.472 
z
" style="fill: #ffffff"/>
  </g>
  <g id="pane3d_1">
   <g id="patch_3">
    <path d="M 123.197291 241.969309 
L 211.076164 168.307495 
L 209.854564 62.073991 
L 117.770234 129.272941 
" style="fill: #f2f2f2; opacity: 0.5; stroke: #f2f2f2; stroke-linejoin: miter"/>
   </g>
  </g>
  <g id="pane3d_2">
   <g id="patch_4">
    <path d="M 211.076164 168.307495 
L 352.090401 209.294766 
L 357.122702 99.402171 
L 209.854564 62.073991 
" style="fill: #e6e6e6; opacity: 0.5; stroke: #e6e6e6; stroke-linejoin: miter"/>
   </g>
  </g>
  <g id="pane3d_3">
   <g id="patch_5">
    <path d="M 123.197291 241.969309 
L 272.679269 290.790123 
L 352.090401 209.294766 
L 211.076164 168.307495 
" style="fill: #ececec; opacity: 0.5; stroke: #ececec; stroke-linejoin: miter"/>
   </g>
  </g>
  <g id="axis3d_1">
   <g id="line2d_1">
    <path d="M 123.197291 241.969309 
L 272.679269 290.790123 
" style="fill: none; stroke: #000000; stroke-width: 0.8; stroke-linecap: square"/>
   </g>
   <g id="Line3DCollection_1">
    <path d="M 132.250704 244.926154 
L 219.652219 170.800215 
L 218.79322 64.33968 
" style="fill: none; stroke: #b0b0b0; stroke-width: 0.8"/>
    <path d="M 153.16891 251.75804 
L 239.449907 176.554622 
L 239.436729 69.572207 
" style="fill: none; stroke: #b0b0b0; stroke-width: 0.8"/>
    <path d="M 174.405527 258.693919 
L 259.523908 182.389341 
L 260.380846 74.88093 
" style="fill: none; stroke: #b0b0b0; stroke-width: 0.8"/>
    <path d="M 195.967881 265.736184 
L 279.880048 188.306068 
L 281.632185 80.267526 
" style="fill: none; stroke: #b0b0b0; stroke-width: 0.8"/>
    <path d="M 217.863526 272.887301 
L 300.524317 194.306542 
L 303.197557 85.733719 
" style="fill: none; stroke: #b0b0b0; stroke-width: 0.8"/>
    <path d="M 240.100249 280.149815 
L 321.462876 200.392554 
L 325.083974 91.281287 
" style="fill: none; stroke: #b0b0b0; stroke-width: 0.8"/>
    <path d="M 262.686081 287.526347 
L 342.702063 206.565947 
L 347.298659 96.912062 
" style="fill: none; stroke: #b0b0b0; stroke-width: 0.8"/>
   </g>
   <g id="xtick_1">
    <g id="line2d_2">
     <path d="M 133.011792 244.280669 
L 130.725263 246.219892 
" style="fill: none; stroke: #000000; stroke-width: 0.8; stroke-linecap: square"/>
    </g>
    <g id="text_1">
     <!-- −6 -->
     <g transform="translate(117.350561 268.235303) scale(0.1 -0.1)">
      <defs>
       <path id="DejaVuSans-2212" d="M 678 2272 
L 4684 2272 
L 4684 1741 
L 678 1741 
L 678 2272 
z
" transform="scale(0.015625)"/>
       <path id="DejaVuSans-36" d="M 2113 2584 
Q 1688 2584 1439 2293 
Q 1191 2003 1191 1497 
Q 1191 994 1439 701 
Q 1688 409 2113 409 
Q 2538 409 2786 701 
Q 3034 994 3034 1497 
Q 3034 2003 2786 2293 
Q 2538 2584 2113 2584 
z
M 3366 4563 
L 3366 3988 
Q 3128 4100 2886 4159 
Q 2644 4219 2406 4219 
Q 1781 4219 1451 3797 
Q 1122 3375 1075 2522 
Q 1259 2794 1537 2939 
Q 1816 3084 2150 3084 
Q 2853 3084 3261 2657 
Q 3669 2231 3669 1497 
Q 3669 778 3244 343 
Q 2819 -91 2113 -91 
Q 1303 -91 875 529 
Q 447 1150 447 2328 
Q 447 3434 972 4092 
Q 1497 4750 2381 4750 
Q 2619 4750 2861 4703 
Q 3103 4656 3366 4563 
z
" transform="scale(0.015625)"/>
      </defs>
      <use xlink:href="#DejaVuSans-2212"/>
      <use xlink:href="#DejaVuSans-36" x="83.789062"/>
     </g>
    </g>
   </g>
   <g id="xtick_2">
    <g id="line2d_3">
     <path d="M 153.920701 251.102771 
L 151.662077 253.071411 
" style="fill: none; stroke: #000000; stroke-width: 0.8; stroke-linecap: square"/>
    </g>
    <g id="text_2">
     <!-- −4 -->
     <g transform="translate(138.290031 275.211891) scale(0.1 -0.1)">
      <defs>
       <path id="DejaVuSans-34" d="M 2419 4116 
L 825 1625 
L 2419 1625 
L 2419 4116 
z
M 2253 4666 
L 3047 4666 
L 3047 1625 
L 3713 1625 
L 3713 1100 
L 3047 1100 
L 3047 0 
L 2419 0 
L 2419 1100 
L 313 1100 
L 313 1709 
L 2253 4666 
z
" transform="scale(0.015625)"/>
      </defs>
      <use xlink:href="#DejaVuSans-2212"/>
      <use xlink:href="#DejaVuSans-34" x="83.789062"/>
     </g>
    </g>
   </g>
   <g id="xtick_3">
    <g id="line2d_4">
     <path d="M 175.147649 258.028641 
L 172.918048 260.027372 
" style="fill: none; stroke: #000000; stroke-width: 0.8; stroke-linecap: square"/>
    </g>
    <g id="text_3">
     <!-- −2 -->
     <g transform="translate(159.54944 282.295075) scale(0.1 -0.1)">
      <defs>
       <path id="DejaVuSans-32" d="M 1228 531 
L 3431 531 
L 3431 0 
L 469 0 
L 469 531 
Q 828 903 1448 1529 
Q 2069 2156 2228 2338 
Q 2531 2678 2651 2914 
Q 2772 3150 2772 3378 
Q 2772 3750 2511 3984 
Q 2250 4219 1831 4219 
Q 1534 4219 1204 4116 
Q 875 4013 500 3803 
L 500 4441 
Q 881 4594 1212 4672 
Q 1544 4750 1819 4750 
Q 2544 4750 2975 4387 
Q 3406 4025 3406 3419 
Q 3406 3131 3298 2873 
Q 3191 2616 2906 2266 
Q 2828 2175 2409 1742 
Q 1991 1309 1228 531 
z
" transform="scale(0.015625)"/>
      </defs>
      <use xlink:href="#DejaVuSans-2212"/>
      <use xlink:href="#DejaVuSans-32" x="83.789062"/>
     </g>
    </g>
   </g>
   <g id="xtick_4">
    <g id="line2d_5">
     <path d="M 196.69995 265.060666 
L 194.500531 267.090184 
" style="fill: none; stroke: #000000; stroke-width: 0.8; stroke-linecap: square"/>
    </g>
    <g id="text_4">
     <!-- 0 -->
     <g transform="translate(185.32602 289.487318) scale(0.1 -0.1)">
      <defs>
       <path id="DejaVuSans-30" d="M 2034 4250 
Q 1547 4250 1301 3770 
Q 1056 3291 1056 2328 
Q 1056 1369 1301 889 
Q 1547 409 2034 409 
Q 2525 409 2770 889 
Q 3016 1369 3016 2328 
Q 3016 3291 2770 3770 
Q 2525 4250 2034 4250 
z
M 2034 4750 
Q 2819 4750 3233 4129 
Q 3647 3509 3647 2328 
Q 3647 1150 3233 529 
Q 2819 -91 2034 -91 
Q 1250 -91 836 529 
Q 422 1150 422 2328 
Q 422 3509 836 4129 
Q 1250 4750 2034 4750 
z
" transform="scale(0.015625)"/>
      </defs>
      <use xlink:href="#DejaVuSans-30"/>
     </g>
    </g>
   </g>
   <g id="xtick_5">
    <g id="line2d_6">
     <path d="M 218.585139 272.201306 
L 216.417107 274.262327 
" style="fill: none; stroke: #000000; stroke-width: 0.8; stroke-linecap: square"/>
    </g>
    <g id="text_5">
     <!-- 2 -->
     <g transform="translate(207.247702 296.791158) scale(0.1 -0.1)">
      <use xlink:href="#DejaVuSans-32"/>
     </g>
    </g>
   </g>
   <g id="xtick_6">
    <g id="line2d_7">
     <path d="M 240.810991 279.453096 
L 238.675594 281.546359 
" style="fill: none; stroke: #000000; stroke-width: 0.8; stroke-linecap: square"/>
    </g>
    <g id="text_6">
     <!-- 4 -->
     <g transform="translate(229.512186 304.209212) scale(0.1 -0.1)">
      <use xlink:href="#DejaVuSans-34"/>
     </g>
    </g>
   </g>
   <g id="xtick_7">
    <g id="line2d_8">
     <path d="M 263.385522 286.818651 
L 261.284057 288.94492 
" style="fill: none; stroke: #000000; stroke-width: 0.8; stroke-linecap: square"/>
    </g>
    <g id="text_7">
     <!-- 6 -->
     <g transform="translate(252.127577 311.744181) scale(0.1 -0.1)">
      <use xlink:href="#DejaVuSans-36"/>
     </g>
    </g>
   </g>
  </g>
  <g id="axis3d_2">
   <g id="line2d_9">
    <path d="M 352.090401 209.294766 
L 272.679269 290.790123 
" style="fill: none; stroke: #000000; stroke-width: 0.8; stroke-linecap: square"/>
   </g>
   <g id="Line3DCollection_2">
    <path d="M 124.138093 124.625967 
L 129.252888 236.893387 
L 278.173905 285.151275 
" style="fill: none; stroke: #b0b0b0; stroke-width: 0.8"/>
    <path d="M 138.415213 114.207175 
L 142.841443 225.503191 
L 290.491498 272.510394 
" style="fill: none; stroke: #b0b0b0; stroke-width: 0.8"/>
    <path d="M 152.31793 104.061606 
L 156.089021 214.398809 
L 302.483806 260.203335 
" style="fill: none; stroke: #b0b0b0; stroke-width: 0.8"/>
    <path d="M 165.860779 94.178651 
L 169.008295 203.569617 
L 314.163547 248.217048 
" style="fill: none; stroke: #b0b0b0; stroke-width: 0.8"/>
    <path d="M 179.057556 84.548245 
L 181.611321 193.005511 
L 325.542782 236.539153 
" style="fill: none; stroke: #b0b0b0; stroke-width: 0.8"/>
    <path d="M 191.921358 75.160828 
L 193.909571 182.696874 
L 336.632963 225.1579 
" style="fill: none; stroke: #b0b0b0; stroke-width: 0.8"/>
    <path d="M 204.46463 66.007319 
L 205.913967 172.634551 
L 347.444965 214.062126 
" style="fill: none; stroke: #b0b0b0; stroke-width: 0.8"/>
   </g>
   <g id="xtick_8">
    <g id="line2d_10">
     <path d="M 276.918943 284.744604 
L 280.687074 285.965668 
" style="fill: none; stroke: #000000; stroke-width: 0.8; stroke-linecap: square"/>
    </g>
    <g id="text_8">
     <!-- −6 -->
     <g transform="translate(283.683445 306.173005) scale(0.1 -0.1)">
      <use xlink:href="#DejaVuSans-2212"/>
      <use xlink:href="#DejaVuSans-36" x="83.789062"/>
     </g>
    </g>
   </g>
   <g id="xtick_9">
    <g id="line2d_11">
     <path d="M 289.24809 272.114531 
L 292.981487 273.303129 
" style="fill: none; stroke: #000000; stroke-width: 0.8; stroke-linecap: square"/>
    </g>
    <g id="text_9">
     <!-- −4 -->
     <g transform="translate(295.83586 293.344936) scale(0.1 -0.1)">
      <use xlink:href="#DejaVuSans-2212"/>
      <use xlink:href="#DejaVuSans-34" x="83.789062"/>
     </g>
    </g>
   </g>
   <g id="xtick_10">
    <g id="line2d_12">
     <path d="M 301.251783 259.817855 
L 304.950954 260.975265 
" style="fill: none; stroke: #000000; stroke-width: 0.8; stroke-linecap: square"/>
    </g>
    <g id="text_10">
     <!-- −2 -->
     <g transform="translate(307.667166 280.85583) scale(0.1 -0.1)">
      <use xlink:href="#DejaVuSans-2212"/>
      <use xlink:href="#DejaVuSans-32" x="83.789062"/>
     </g>
    </g>
   </g>
   <g id="xtick_11">
    <g id="line2d_13">
     <path d="M 312.942742 247.841548 
L 316.608191 248.968982 
" style="fill: none; stroke: #000000; stroke-width: 0.8; stroke-linecap: square"/>
    </g>
    <g id="text_11">
     <!-- 0 -->
     <g transform="translate(323.379766 268.692429) scale(0.1 -0.1)">
      <use xlink:href="#DejaVuSans-30"/>
     </g>
    </g>
   </g>
   <g id="xtick_12">
    <g id="line2d_14">
     <path d="M 324.333029 236.17325 
L 327.965256 237.271857 
" style="fill: none; stroke: #000000; stroke-width: 0.8; stroke-linecap: square"/>
    </g>
    <g id="text_12">
     <!-- 2 -->
     <g transform="translate(334.605888 256.842154) scale(0.1 -0.1)">
      <use xlink:href="#DejaVuSans-32"/>
     </g>
    </g>
   </g>
   <g id="xtick_13">
    <g id="line2d_15">
     <path d="M 335.434098 224.80123 
L 339.033597 225.872102 
" style="fill: none; stroke: #000000; stroke-width: 0.8; stroke-linecap: square"/>
    </g>
    <g id="text_13">
     <!-- 4 -->
     <g transform="translate(345.546685 245.293067) scale(0.1 -0.1)">
      <use xlink:href="#DejaVuSans-34"/>
     </g>
    </g>
   </g>
   <g id="xtick_14">
    <g id="line2d_16">
     <path d="M 346.256825 213.714346 
L 349.824086 214.758519 
" style="fill: none; stroke: #000000; stroke-width: 0.8; stroke-linecap: square"/>
    </g>
    <g id="text_14">
     <!-- 6 -->
     <g transform="translate(356.212898 234.033832) scale(0.1 -0.1)">
      <use xlink:href="#DejaVuSans-36"/>
     </g>
    </g>
   </g>
  </g>
  <g id="axis3d_3">
   <g id="line2d_17">
    <path d="M 352.090401 209.294766 
L 357.122702 99.402171 
" style="fill: none; stroke: #000000; stroke-width: 0.8; stroke-linecap: square"/>
   </g>
   <g id="Line3DCollection_3">
    <path d="M 352.768571 194.485252 
L 210.911236 153.964922 
L 122.466988 226.804091 
" style="fill: none; stroke: #b0b0b0; stroke-width: 0.8"/>
    <path d="M 353.356634 181.643467 
L 210.768298 141.534648 
L 121.833451 213.648289 
" style="fill: none; stroke: #b0b0b0; stroke-width: 0.8"/>
    <path d="M 353.950848 168.667339 
L 210.623936 128.980565 
L 121.193033 200.349592 
" style="fill: none; stroke: #b0b0b0; stroke-width: 0.8"/>
    <path d="M 354.551312 155.554748 
L 210.478129 116.300816 
L 120.545621 186.905662 
" style="fill: none; stroke: #b0b0b0; stroke-width: 0.8"/>
    <path d="M 355.158124 142.303529 
L 210.330855 103.493503 
L 119.8911 173.314104 
" style="fill: none; stroke: #b0b0b0; stroke-width: 0.8"/>
    <path d="M 355.771385 128.911472 
L 210.182092 90.556693 
L 119.229352 159.572474 
" style="fill: none; stroke: #b0b0b0; stroke-width: 0.8"/>
    <path d="M 356.391199 115.376322 
L 210.031817 77.488411 
L 118.560256 145.678273 
" style="fill: none; stroke: #b0b0b0; stroke-width: 0.8"/>
   </g>
   <g id="xtick_15">
    <g id="line2d_18">
     <path d="M 351.577661 194.145078 
L 355.153241 195.166412 
" style="fill: none; stroke: #000000; stroke-width: 0.8; stroke-linecap: square"/>
    </g>
    <g id="text_15">
     <!-- −0.75 -->
     <g transform="translate(355.802345 199.507682) scale(0.1 -0.1)">
      <defs>
       <path id="DejaVuSans-2e" d="M 684 794 
L 1344 794 
L 1344 0 
L 684 0 
L 684 794 
z
" transform="scale(0.015625)"/>
       <path id="DejaVuSans-37" d="M 525 4666 
L 3525 4666 
L 3525 4397 
L 1831 0 
L 1172 0 
L 2766 4134 
L 525 4134 
L 525 4666 
z
" transform="scale(0.015625)"/>
       <path id="DejaVuSans-35" d="M 691 4666 
L 3169 4666 
L 3169 4134 
L 1269 4134 
L 1269 2991 
Q 1406 3038 1543 3061 
Q 1681 3084 1819 3084 
Q 2600 3084 3056 2656 
Q 3513 2228 3513 1497 
Q 3513 744 3044 326 
Q 2575 -91 1722 -91 
Q 1428 -91 1123 -41 
Q 819 9 494 109 
L 494 744 
Q 775 591 1075 516 
Q 1375 441 1709 441 
Q 2250 441 2565 725 
Q 2881 1009 2881 1497 
Q 2881 1984 2565 2268 
Q 2250 2553 1709 2553 
Q 1456 2553 1204 2497 
Q 953 2441 691 2322 
L 691 4666 
z
" transform="scale(0.015625)"/>
      </defs>
      <use xlink:href="#DejaVuSans-2212"/>
      <use xlink:href="#DejaVuSans-30" x="83.789062"/>
      <use xlink:href="#DejaVuSans-2e" x="147.412109"/>
      <use xlink:href="#DejaVuSans-37" x="179.199219"/>
      <use xlink:href="#DejaVuSans-35" x="242.822266"/>
     </g>
    </g>
   </g>
   <g id="xtick_16">
    <g id="line2d_19">
     <path d="M 352.159294 181.306666 
L 355.754193 182.317879 
" style="fill: none; stroke: #000000; stroke-width: 0.8; stroke-linecap: square"/>
    </g>
    <g id="text_16">
     <!-- −0.50 -->
     <g transform="translate(356.483853 186.691469) scale(0.1 -0.1)">
      <use xlink:href="#DejaVuSans-2212"/>
      <use xlink:href="#DejaVuSans-30" x="83.789062"/>
      <use xlink:href="#DejaVuSans-2e" x="147.412109"/>
      <use xlink:href="#DejaVuSans-35" x="179.199219"/>
      <use xlink:href="#DejaVuSans-30" x="242.822266"/>
     </g>
    </g>
   </g>
   <g id="xtick_17">
    <g id="line2d_20">
     <path d="M 352.747009 168.334 
L 356.361438 169.334824 
" style="fill: none; stroke: #000000; stroke-width: 0.8; stroke-linecap: square"/>
    </g>
    <g id="text_17">
     <!-- −0.25 -->
     <g transform="translate(357.172469 173.741589) scale(0.1 -0.1)">
      <use xlink:href="#DejaVuSans-2212"/>
      <use xlink:href="#DejaVuSans-30" x="83.789062"/>
      <use xlink:href="#DejaVuSans-2e" x="147.412109"/>
      <use xlink:href="#DejaVuSans-32" x="179.199219"/>
      <use xlink:href="#DejaVuSans-35" x="242.822266"/>
     </g>
    </g>
   </g>
   <g id="xtick_18">
    <g id="line2d_21">
     <path d="M 353.340902 155.224961 
L 356.975074 156.215121 
" style="fill: none; stroke: #000000; stroke-width: 0.8; stroke-linecap: square"/>
    </g>
    <g id="text_18">
     <!-- 0.00 -->
     <g transform="translate(362.058148 160.655938) scale(0.1 -0.1)">
      <use xlink:href="#DejaVuSans-30"/>
      <use xlink:href="#DejaVuSans-2e" x="63.623047"/>
      <use xlink:href="#DejaVuSans-30" x="95.410156"/>
      <use xlink:href="#DejaVuSans-30" x="159.033203"/>
     </g>
    </g>
   </g>
   <g id="xtick_19">
    <g id="line2d_22">
     <path d="M 353.941071 141.97739 
L 357.595202 142.956604 
" style="fill: none; stroke: #000000; stroke-width: 0.8; stroke-linecap: square"/>
    </g>
    <g id="text_19">
     <!-- 0.25 -->
     <g transform="translate(362.761317 147.432371) scale(0.1 -0.1)">
      <use xlink:href="#DejaVuSans-30"/>
      <use xlink:href="#DejaVuSans-2e" x="63.623047"/>
      <use xlink:href="#DejaVuSans-32" x="95.410156"/>
      <use xlink:href="#DejaVuSans-35" x="159.033203"/>
     </g>
    </g>
   </g>
   <g id="xtick_20">
    <g id="line2d_23">
     <path d="M 354.547617 128.589077 
L 358.221927 129.557056 
" style="fill: none; stroke: #000000; stroke-width: 0.8; stroke-linecap: square"/>
    </g>
    <g id="text_20">
     <!-- 0.50 -->
     <g transform="translate(363.471937 134.068696) scale(0.1 -0.1)">
      <use xlink:href="#DejaVuSans-30"/>
      <use xlink:href="#DejaVuSans-2e" x="63.623047"/>
      <use xlink:href="#DejaVuSans-35" x="95.410156"/>
      <use xlink:href="#DejaVuSans-30" x="159.033203"/>
     </g>
    </g>
   </g>
   <g id="xtick_21">
    <g id="line2d_24">
     <path d="M 355.160641 115.057768 
L 358.855354 116.014215 
" style="fill: none; stroke: #000000; stroke-width: 0.8; stroke-linecap: square"/>
    </g>
    <g id="text_21">
     <!-- 0.75 -->
     <g transform="translate(364.190126 120.562673) scale(0.1 -0.1)">
      <use xlink:href="#DejaVuSans-30"/>
      <use xlink:href="#DejaVuSans-2e" x="63.623047"/>
      <use xlink:href="#DejaVuSans-37" x="95.410156"/>
      <use xlink:href="#DejaVuSans-35" x="159.033203"/>
     </g>
    </g>
   </g>
  </g>
  <g id="axes_1">
   <g id="Line3DCollection_4">
    <path d="M 134.113732 140.480834 
L 138.26771 134.231825 
L 142.629481 132.337171 
L 147.16812 134.573751 
L 151.839828 140.309326 
L 156.596646 148.655771 
L 161.393846 158.630766 
L 166.19493 169.296315 
L 170.973973 179.855152 
L 175.715696 189.699754 
L 180.413969 198.419173 
L 185.069527 205.774758 
L 189.687558 211.657678 
L 194.275623 216.040294 
L 198.842167 218.931292 
L 203.395679 220.34181 
L 207.944433 220.267285 
L 212.496634 218.687322 
L 217.060736 215.583738 
L 221.645674 210.974675 
L 226.260773 204.960305 
L 230.915146 197.772988 
L 235.616501 189.821963 
L 240.369409 181.720285 
L 245.173319 174.280503 
L 250.020761 168.467138 
L 254.896391 165.299615 
L 259.777506 165.710001 
L 264.636497 170.374285 
L 269.445237 179.549885 
" clip-path="url(#pcb4e4c55f0)" style="fill: none; stroke: #1f77b4; stroke-width: 1.5"/>
    <path d="M 136.760392 130.749286 
L 141.095955 128.783588 
L 145.635783 131.623243 
L 150.330926 138.59718 
L 155.124991 148.679039 
L 159.963836 160.690607 
L 164.802565 173.486841 
L 169.609184 186.092261 
L 174.365185 197.776982 
L 179.063874 208.075766 
L 183.707452 216.76262 
L 188.303737 223.796786 
L 192.863192 229.255461 
L 197.39667 233.26612 
L 201.91403 235.948176 
L 206.423627 237.370609 
L 210.932501 237.529639 
L 215.447051 236.348318 
L 219.973895 233.69822 
L 224.520626 229.441566 
L 229.096172 223.490007 
L 233.710507 215.873602 
L 238.373568 206.810366 
L 243.093375 196.763421 
L 247.873561 186.470022 
L 252.710765 176.925745 
L 257.59259 169.31007 
L 262.496983 164.848415 
L 267.39379 164.621307 
L 272.248855 169.351 
" clip-path="url(#pcb4e4c55f0)" style="fill: none; stroke: #1f77b4; stroke-width: 1.5"/>
    <path d="M 139.581246 125.399356 
L 144.096935 128.153942 
L 148.79619 135.757996 
L 153.614931 147.083751 
L 158.488696 160.753704 
L 163.362287 175.380155 
L 168.195457 189.755077 
L 172.964604 202.967604 
L 177.661312 214.447898 
L 182.28895 223.950044 
L 186.8585 231.492588 
L 191.384521 237.275743 
L 195.881874 241.591739 
L 200.363498 244.741143 
L 204.839318 246.964124 
L 209.316172 248.392129 
L 213.798529 249.022819 
L 218.289718 248.719391 
L 222.793354 247.234456 
L 227.314635 244.257613 
L 231.861177 239.484181 
L 236.443108 232.699829 
L 241.072178 223.872319 
L 245.759831 213.237591 
L 250.514353 201.363515 
L 255.337518 189.171669 
L 260.221442 177.897313 
L 265.146635 168.973111 
L 270.082315 163.835903 
L 274.989741 163.6782 
" clip-path="url(#pcb4e4c55f0)" style="fill: none; stroke: #1f77b4; stroke-width: 1.5"/>
    <path d="M 142.550671 124.170411 
L 147.227643 131.632405 
L 152.053076 143.573584 
L 156.952215 158.445859 
L 161.85778 174.598659 
L 166.718542 190.534844 
L 171.502972 205.086672 
L 176.198644 217.501119 
L 180.808734 227.444712 
L 185.347072 234.948333 
L 189.832982 240.314654 
L 194.286763 244.008935 
L 198.726344 246.550193 
L 203.165307 248.415381 
L 207.612228 249.964493 
L 212.071143 251.390093 
L 216.542822 252.691827 
L 221.026536 253.675479 
L 225.522006 253.976735 
L 230.031212 253.110404 
L 234.559723 250.544849 
L 239.117196 245.798378 
L 243.716772 238.549883 
L 248.373185 228.751239 
L 253.099645 216.72441 
L 257.903838 203.222233 
L 262.783731 189.429242 
L 267.724229 176.880342 
L 272.695991 167.284721 
L 277.657564 162.263462 
" clip-path="url(#pcb4e4c55f0)" style="fill: none; stroke: #1f77b4; stroke-width: 1.5"/>
    <path d="M 145.62961 126.400693 
L 150.436517 138.165395 
L 155.34669 153.668789 
L 160.279888 171.013815 
L 165.171131 188.373846 
L 169.977372 204.244624 
L 174.678695 217.591457 
L 179.275396 227.894659 
L 183.782625 235.113243 
L 188.224177 239.592377 
L 192.626608 241.93936 
L 197.014482 242.889972 
L 201.40718 243.183427 
L 205.817362 243.459156 
L 210.250912 244.182146 
L 214.708015 245.596794 
L 219.184966 247.705143 
L 223.676389 250.26568 
L 228.177596 252.812879 
L 232.686832 254.701592 
L 237.207076 255.180786 
L 241.747004 253.496941 
L 246.320734 249.020619 
L 250.946076 241.383102 
L 255.641254 230.604965 
L 260.420375 217.194606 
L 265.288278 202.191422 
L 270.235835 187.126695 
L 275.237136 173.879636 
L 280.25009 164.422498 
" clip-path="url(#pcb4e4c55f0)" style="fill: none; stroke: #1f77b4; stroke-width: 1.5"/>
    <path d="M 148.773561 131.184775 
L 153.672447 146.562521 
L 158.624222 164.649539 
L 163.548252 183.290504 
L 168.386169 200.582055 
L 173.106116 215.1042 
L 177.701417 226.029988 
L 182.185512 233.128862 
L 186.585038 236.690191 
L 190.932608 237.394482 
L 195.260438 236.157867 
L 199.595549 233.973851 
L 203.956951 231.77407 
L 208.354785 230.324025 
L 212.791053 230.159184 
L 217.261393 231.554773 
L 221.757349 234.515452 
L 226.268845 238.773929 
L 230.786737 243.798623 
L 235.305345 248.821616 
L 239.82471 252.901097 
L 244.352092 255.025385 
L 248.902172 254.253419 
L 253.49555 249.875835 
L 258.155401 241.574937 
L 262.902502 229.559563 
L 267.749244 214.649047 
L 272.693661 198.277813 
L 277.714981 182.391888 
L 282.772501 169.218433 
" clip-path="url(#pcb4e4c55f0)" style="fill: none; stroke: #1f77b4; stroke-width: 1.5"/>
    <path d="M 151.93958 137.535952 
L 156.891545 155.680415 
L 161.845483 175.315566 
L 166.724719 194.122129 
L 171.480623 210.209003 
L 176.094263 222.313892 
L 180.572706 229.872995 
L 184.942106 232.984138 
L 189.239495 232.292066 
L 193.504749 228.82261 
L 197.773851 223.791973 
L 202.074219 218.419921 
L 206.422508 213.776793 
L 210.824723 210.686999 
L 215.278026 209.693347 
L 219.773294 211.063241 
L 224.297698 214.803894 
L 228.837079 220.660902 
L 233.378313 228.100157 
L 237.911934 236.298851 
L 242.434826 244.178995 
L 246.952403 250.503063 
L 251.479447 254.027926 
L 256.03898 253.694425 
L 260.658933 248.822561 
L 265.366795 239.283407 
L 270.182864 225.621516 
L 275.113114 209.10066 
L 280.143203 191.642536 
L 285.235558 175.630674 
" clip-path="url(#pcb4e4c55f0)" style="fill: none; stroke: #1f77b4; stroke-width: 1.5"/>
    <path d="M 155.091258 144.522668 
L 160.061011 164.555369 
L 164.985071 184.772611 
L 169.793963 202.776926 
L 174.450666 216.761078 
L 178.94977 225.674409 
L 183.311723 229.255223 
L 187.574388 227.957825 
L 191.783743 222.800789 
L 195.985125 215.159927 
L 200.216195 206.533475 
L 204.502514 198.317421 
L 208.856241 191.636268 
L 213.277657 187.265817 
L 217.758414 185.653006 
L 222.285024 186.993136 
L 226.841471 191.295452 
L 231.410897 198.382012 
L 235.977228 207.81944 
L 240.52758 218.838342 
L 245.05547 230.310209 
L 249.563938 240.822762 
L 254.067292 248.849643 
L 258.590523 252.977912 
L 263.166028 252.14759 
L 267.827893 245.864932 
L 272.604406 234.361887 
L 277.509872 218.678299 
L 282.537185 200.639323 
L 287.653214 182.696549 
" clip-path="url(#pcb4e4c55f0)" style="fill: none; stroke: #1f77b4; stroke-width: 1.5"/>
    <path d="M 158.201342 151.361377 
L 163.160203 172.474741 
L 168.031634 192.470852 
L 172.755396 208.94396 
L 177.306789 220.222524 
L 181.693623 225.503485 
L 185.948757 224.853437 
L 190.120397 219.104689 
L 194.261832 209.666412 
L 198.421961 198.268819 
L 202.637937 186.669912 
L 206.931114 176.37687 
L 211.306954 168.452338 
L 215.758481 163.468195 
L 220.271536 161.619601 
L 224.829376 162.929455 
L 229.414895 167.407896 
L 234.010738 175.052052 
L 238.599339 185.68484 
L 243.164825 198.746535 
L 247.696967 213.175689 
L 252.195689 227.451753 
L 256.674106 239.788378 
L 261.158652 248.415004 
L 265.685862 251.875452 
L 270.296212 249.290462 
L 275.025875 240.55438 
L 279.89752 226.448384 
L 284.911625 208.649789 
L 290.040288 189.607353 
" clip-path="url(#pcb4e4c55f0)" style="fill: none; stroke: #1f77b4; stroke-width: 1.5"/>
    <path d="M 161.25223 157.461829 
L 166.179577 178.991863 
L 170.98526 198.183421 
L 175.619172 212.673415 
L 180.068707 220.958291 
L 184.353902 222.502317 
L 188.518634 217.715547 
L 192.619866 207.824394 
L 196.716481 194.645038 
L 200.859057 180.269707 
L 205.082147 166.697224 
L 209.400656 155.477469 
L 213.811265 147.474318 
L 218.298388 142.85314 
L 222.842117 141.335083 
L 227.424303 142.61825 
L 232.029815 146.711821 
L 236.643712 153.937595 
L 241.248569 164.596302 
L 245.825686 178.541654 
L 250.360334 194.918222 
L 254.848325 212.167562 
L 259.300768 228.263496 
L 263.745026 241.070819 
L 268.221477 248.721105 
L 272.776766 249.934078 
L 277.454701 244.252377 
L 282.286076 232.180184 
L 287.278851 215.21592 
L 292.410616 195.754819 
" clip-path="url(#pcb4e4c55f0)" style="fill: none; stroke: #1f77b4; stroke-width: 1.5"/>
    <path d="M 164.234932 162.430892 
L 169.118325 183.897703 
L 173.853945 201.944161 
L 178.401761 214.281394 
L 182.760279 219.587419 
L 186.960262 217.597453 
L 191.054882 209.06719 
L 195.108103 195.623787 
L 199.182666 179.502317 
L 203.32909 163.167671 
L 207.577574 148.853514 
L 211.934822 138.104122 
L 216.387129 131.458982 
L 220.90923 128.445699 
L 225.47578 128.004561 
L 230.069678 129.268431 
L 234.681767 132.24297 
L 239.302928 137.811383 
L 243.917151 147.058271 
L 248.502362 160.483493 
L 253.038073 177.565568 
L 257.514852 196.758513 
L 261.94109 215.803608 
L 266.344743 232.190974 
L 270.769871 243.628379 
L 275.269085 248.428358 
L 279.893472 245.780598 
L 284.681457 235.91008 
L 289.647992 220.124327 
L 294.775907 200.734597 
" clip-path="url(#pcb4e4c55f0)" style="fill: none; stroke: #1f77b4; stroke-width: 1.5"/>
    <path d="M 167.147158 166.046388 
L 171.981484 187.16533 
L 176.649973 203.963669 
L 181.121837 214.239828 
L 185.405151 216.848719 
L 189.539494 211.782035 
L 193.585331 200.124644 
L 197.611704 183.892351 
L 201.683472 165.735591 
L 205.849633 148.49847 
L 210.134903 134.663084 
L 214.537 125.773851 
L 219.031241 121.99784 
L 223.582135 122.027138 
L 228.15903 123.602229 
L 232.748513 124.856651 
L 237.352414 125.789343 
L 241.970945 128.274993 
L 246.589501 134.600866 
L 251.180876 146.112457 
L 255.717225 162.672194 
L 260.183012 182.742357 
L 264.583663 203.819114 
L 268.947773 223.011951 
L 273.323114 237.608773 
L 277.768078 245.527576 
L 282.340544 245.622488 
L 287.085807 237.855178 
L 292.02495 223.348683 
L 297.145322 204.318811 
" clip-path="url(#pcb4e4c55f0)" style="fill: none; stroke: #1f77b4; stroke-width: 1.5"/>
    <path d="M 169.991119 168.21385 
L 174.777145 188.882433 
L 179.386742 204.539912 
L 183.796977 213.068303 
L 188.023526 213.476727 
L 192.112562 205.977955 
L 196.129594 191.943835 
L 200.146658 173.735985 
L 204.229013 154.384929 
L 208.422996 137.098824 
L 212.747518 124.631694 
L 217.191876 118.610018 
L 221.721495 118.955881 
L 226.291183 123.537762 
L 230.864287 128.378411 
L 235.432863 129.633548 
L 240.016386 127.291345 
L 244.627186 125.193455 
L 249.249083 127.34966 
L 253.846698 135.940732 
L 258.383695 151.086022 
L 262.838588 171.174286 
L 267.214456 193.433358 
L 271.541085 214.607727 
L 275.870159 231.601365 
L 280.26559 241.981415 
L 284.79133 244.309765 
L 289.498481 238.321653 
L 294.413019 224.980135 
L 299.525664 206.411161 
" clip-path="url(#pcb4e4c55f0)" style="fill: none; stroke: #1f77b4; stroke-width: 1.5"/>
    <path d="M 172.771509 168.918091 
L 177.51413 189.184468 
L 182.076375 203.975927 
L 186.441392 211.240116 
L 190.630226 210.100831 
L 194.693213 200.934458 
L 198.698494 185.327431 
L 202.718921 165.904552 
L 206.818486 145.993626 
L 211.040064 129.103956 
L 215.397144 118.254641 
L 219.872379 115.266596 
L 224.424313 120.150458 
L 229.000966 130.538856 
L 233.558577 140.651265 
L 238.092862 141.915197 
L 242.651665 134.301879 
L 247.258031 126.372092 
L 251.886156 123.948745 
L 256.490106 129.459598 
L 261.026022 142.945055 
L 265.468302 162.606162 
L 269.819283 185.408597 
L 274.110895 207.795118 
L 278.398927 226.369579 
L 282.752301 238.432219 
L 287.239981 242.326554 
L 291.917432 237.6205 
L 296.813914 225.158559 
L 301.921985 206.996832 
" clip-path="url(#pcb4e4c55f0)" style="fill: none; stroke: #1f77b4; stroke-width: 1.5"/>
    <path d="M 175.493922 168.179118 
L 180.200375 188.197784 
L 184.728222 202.513188 
L 189.064729 209.110056 
L 193.233965 207.173845 
L 197.287946 197.167994 
L 201.29502 180.793376 
L 205.326737 160.816385 
L 209.444344 140.727684 
L 213.686776 124.208963 
L 218.062938 114.452156 
L 222.551099 113.470045 
L 227.106587 121.590111 
L 231.675868 137.218373 
L 236.212356 155.904409 
L 240.707139 157.180034 
L 245.254101 140.989543 
L 249.866456 127.797255 
L 254.50221 122.107009 
L 259.108079 125.578961 
L 263.636549 137.941435 
L 268.061072 157.207095 
L 272.385377 180.17038 
L 276.644515 203.101423 
L 280.898284 222.439772 
L 285.219683 235.342146 
L 289.681176 240.035685 
L 294.340746 235.99939 
L 299.228961 224.01419 
L 304.338378 206.09701 
" clip-path="url(#pcb4e4c55f0)" style="fill: none; stroke: #1f77b4; stroke-width: 1.5"/>
    <path d="M 178.163855 166.019288 
L 182.842052 185.999015 
L 187.348246 200.285714 
L 191.671822 206.867022 
L 195.837592 204.929518 
L 199.896893 194.936044 
L 203.916055 178.585107 
L 207.963491 158.638881 
L 212.096595 138.582123 
L 216.350338 122.089639 
L 220.730282 112.34689 
L 225.212706 111.362327 
L 229.752785 119.462655 
L 234.298858 135.057221 
L 238.809124 153.704365 
L 243.295813 154.97311 
L 247.852468 138.807913 
L 252.471145 125.6359 
L 257.105385 119.951995 
L 261.70042 123.412816 
L 266.209226 135.747299 
L 270.60741 154.972385 
L 274.901987 177.889065 
L 279.131695 200.774517 
L 283.359753 220.074385 
L 287.66179 232.949771 
L 292.111804 237.630319 
L 296.768072 233.595748 
L 301.660218 221.625967 
L 306.778728 203.735049 
" clip-path="url(#pcb4e4c55f0)" style="fill: none; stroke: #1f77b4; stroke-width: 1.5"/>
    <path d="M 180.786284 162.446006 
L 185.4434 182.594332 
L 189.939156 197.297327 
L 194.263191 204.511548 
L 198.438987 203.364391 
L 202.515142 194.230763 
L 206.554125 178.690489 
L 210.61985 159.356468 
L 214.76529 139.539822 
L 219.021975 122.730428 
L 223.393909 111.929189 
L 227.858342 108.945186 
L 232.374302 113.788272 
L 236.897744 124.104831 
L 241.403234 134.147332 
L 245.912897 135.390786 
L 250.474058 127.806672 
L 255.083143 119.908388 
L 259.696779 117.485465 
L 264.262161 122.95135 
L 268.735873 136.346786 
L 273.098155 155.884534 
L 277.360621 178.548705 
L 281.565717 200.801954 
L 285.778974 219.265355 
L 290.076771 231.251525 
L 294.532329 235.110995 
L 299.201749 230.413515 
L 304.111286 218.00029 
L 309.247203 199.918667 
" clip-path="url(#pcb4e4c55f0)" style="fill: none; stroke: #1f77b4; stroke-width: 1.5"/>
    <path d="M 183.365756 157.451919 
L 188.00712 177.920095 
L 192.501138 193.422758 
L 196.836087 201.85737 
L 201.032373 202.239784 
L 205.13419 194.781285 
L 209.198791 180.844179 
L 213.284759 162.772482 
L 217.440583 143.571934 
L 221.695277 126.421811 
L 226.053285 114.049039 
L 230.495808 108.062531 
L 234.989373 108.383513 
L 239.50059 112.900281 
L 244.013834 117.673334 
L 248.540904 118.894572 
L 253.100922 116.552342 
L 257.68639 114.452161 
L 262.261057 116.565565 
L 266.7792 125.052762 
L 271.20464 140.033395 
L 275.524525 159.91369 
L 279.755953 181.948988 
L 283.944648 202.913397 
L 288.156999 219.736489 
L 292.468021 230.003747 
L 296.947704 232.287248 
L 301.647427 226.324291 
L 306.587647 213.071689 
L 311.74833 194.640158 
" clip-path="url(#pcb4e4c55f0)" style="fill: none; stroke: #1f77b4; stroke-width: 1.5"/>
    <path d="M 185.906844 151.032398 
L 190.53518 171.864653 
L 195.032988 188.432366 
L 199.385901 198.556773 
L 203.609871 201.103674 
L 207.743465 196.064532 
L 211.837814 184.51351 
L 215.94577 168.445648 
L 220.111569 150.48185 
L 224.362613 133.431569 
L 228.705261 119.743867 
L 233.126304 110.940514 
L 237.600565 107.184044 
L 242.102853 107.182608 
L 246.619423 108.706316 
L 251.150481 109.913436 
L 255.697808 110.802928 
L 260.24833 113.224573 
L 264.771671 119.435424 
L 269.231898 130.764146 
L 273.602945 147.077193 
L 277.880594 166.859519 
L 282.087817 187.64092 
L 286.272857 206.566469 
L 290.501355 220.95462 
L 294.84483 228.745074 
L 299.367648 228.803518 
L 304.114034 221.092631 
L 309.096378 206.725196 
L 314.286522 187.894392 
" clip-path="url(#pcb4e4c55f0)" style="fill: none; stroke: #1f77b4; stroke-width: 1.5"/>
    <path d="M 188.414791 143.217948 
L 193.029832 164.309324 
L 197.533456 182.039236 
L 201.907749 194.150036 
L 206.163227 199.336095 
L 210.331976 197.335171 
L 214.458465 188.892951 
L 218.58966 175.615123 
L 222.765792 159.70556 
L 227.013177 143.592006 
L 231.340617 129.471589 
L 235.740525 118.860989 
L 240.194782 112.288098 
L 244.68333 109.286563 
L 249.191362 108.813658 
L 253.710272 110.016636 
L 258.231198 112.901005 
L 262.737369 118.335142 
L 267.20356 127.386011 
L 271.603993 140.546765 
L 275.923646 157.307182 
L 280.167402 176.149094 
L 284.363771 194.851072 
L 288.562419 210.94145 
L 292.826594 222.160335 
L 297.222315 226.842829 
L 301.806142 224.189658 
L 306.61296 214.42422 
L 311.645151 198.838385 
L 316.865034 179.71222 
" clip-path="url(#pcb4e4c55f0)" style="fill: none; stroke: #1f77b4; stroke-width: 1.5"/>
    <path d="M 190.896153 134.116924 
L 195.494631 155.184515 
L 200.002591 173.965806 
L 204.398081 188.138407 
L 208.685563 196.222125 
L 212.890112 197.68822 
L 217.049217 192.939253 
L 221.203896 183.181515 
L 225.390469 170.200686 
L 229.634225 156.051802 
L 233.946131 142.695587 
L 238.32331 131.65007 
L 242.753044 123.759565 
L 247.218606 119.183912 
L 251.704052 117.64847 
L 256.19538 118.856802 
L 260.678049 122.817791 
L 265.134261 129.847139 
L 269.544075 140.24071 
L 273.891233 153.85723 
L 278.171059 169.860717 
L 282.396676 186.724985 
L 286.600985 202.462825 
L 290.833657 214.977361 
L 295.15389 222.431888 
L 299.620378 223.567469 
L 304.279973 217.935431 
L 309.156395 206.034033 
L 314.240527 189.338989 
L 319.484384 170.204528 
" clip-path="url(#pcb4e4c55f0)" style="fill: none; stroke: #1f77b4; stroke-width: 1.5"/>
    <path d="M 193.359235 123.961471 
L 197.93525 144.534416 
L 202.442885 164.024543 
L 206.85608 180.077063 
L 211.172991 191.05242 
L 215.41141 196.160863 
L 219.601677 195.46582 
L 223.778796 189.782562 
L 227.9751 180.492175 
L 232.214566 169.289348 
L 236.509636 157.89409 
L 240.861 147.778971 
L 245.260048 139.980549 
L 249.69275 135.055388 
L 254.143162 133.192428 
L 258.595132 134.413095 
L 263.032338 138.72716 
L 267.438384 146.132505 
L 271.798922 156.457662 
L 276.106143 169.15788 
L 280.364063 183.19788 
L 284.592264 197.092267 
L 288.826291 209.093625 
L 293.114135 217.468088 
L 297.509299 220.788849 
L 302.061508 218.195009 
L 306.806304 209.58539 
L 311.754852 195.72894 
L 316.885651 178.271414 
L 322.140422 159.609726 
" clip-path="url(#pcb4e4c55f0)" style="fill: none; stroke: #1f77b4; stroke-width: 1.5"/>
    <path d="M 195.814137 113.147182 
L 200.359875 132.58076 
L 204.859974 152.20383 
L 209.284637 169.680208 
L 213.625815 183.244678 
L 217.893993 191.868186 
L 222.112312 195.292167 
L 226.309688 193.958682 
L 230.514288 188.862068 
L 234.748342 181.345632 
L 239.025009 172.871235 
L 243.347563 164.799499 
L 247.710708 158.225013 
L 252.103165 153.90186 
L 256.510446 152.263793 
L 260.916977 153.500056 
L 265.307576 157.619525 
L 269.669047 164.449641 
L 273.992714 173.56972 
L 278.277877 184.23191 
L 282.535187 195.33784 
L 286.788465 205.511236 
L 291.073843 213.263088 
L 295.435818 217.214159 
L 299.920583 216.330055 
L 304.567435 210.130685 
L 309.399347 198.846198 
L 314.414072 183.495761 
L 319.577606 165.862451 
L 324.822362 148.334871 
" clip-path="url(#pcb4e4c55f0)" style="fill: none; stroke: #1f77b4; stroke-width: 1.5"/>
    <path d="M 198.272284 102.255028 
L 202.779028 119.773252 
L 207.262741 138.746496 
L 211.690678 156.925818 
L 216.049062 172.472879 
L 220.341313 184.157112 
L 224.583454 191.426298 
L 228.798281 194.372759 
L 233.009598 193.622426 
L 237.237467 190.173001 
L 241.495107 185.20743 
L 245.787667 179.911435 
L 250.112742 175.324534 
L 254.462116 172.246587 
L 258.824048 171.203717 
L 263.185552 172.454894 
L 267.534548 176.007024 
L 271.862092 181.613599 
L 276.164883 188.756853 
L 280.447858 196.638501 
L 284.726154 204.211707 
L 289.025539 210.273692 
L 293.380616 213.615585 
L 297.830577 213.207594 
L 302.412785 208.389929 
L 307.154885 199.040597 
L 312.066458 185.693777 
L 317.131676 169.582034 
L 322.304868 152.573491 
L 327.511234 136.978618 
" clip-path="url(#pcb4e4c55f0)" style="fill: none; stroke: #1f77b4; stroke-width: 1.5"/>
    <path d="M 200.745382 92.043554 
L 205.204728 106.812104 
L 209.662675 124.205063 
L 214.084703 142.143297 
L 218.452165 158.786256 
L 222.761945 172.756941 
L 227.023225 183.250489 
L 231.252742 190.039783 
L 235.469793 193.402745 
L 239.691935 193.997765 
L 243.931954 192.712455 
L 248.196373 190.509545 
L 252.48544 188.291488 
L 256.794281 186.79937 
L 261.114776 186.55126 
L 265.437761 187.813299 
L 269.755325 190.589938 
L 274.063119 194.622618 
L 278.362573 199.396988 
L 282.662721 204.16966 
L 286.981129 208.028441 
L 291.343337 209.993184 
L 295.780421 209.152396 
L 300.324578 204.820103 
L 305.003027 196.691454 
L 309.830896 184.973161 
L 314.804163 170.463324 
L 319.894144 154.553205 
L 325.045446 139.124208 
L 330.179314 126.323486 
" clip-path="url(#pcb4e4c55f0)" style="fill: none; stroke: #1f77b4; stroke-width: 1.5"/>
    <path d="M 203.243882 83.401284 
L 207.648992 94.627974 
L 212.072466 109.455703 
L 216.479474 126.064061 
L 220.847703 142.696492 
L 225.168357 157.902653 
L 229.444277 170.681781 
L 233.686349 180.528679 
L 237.909334 187.400486 
L 242.128042 191.628268 
L 246.354455 193.797343 
L 250.596088 194.617836 
L 254.855614 194.803451 
L 259.13157 194.971522 
L 263.419841 195.570863 
L 267.715588 196.837312 
L 272.015367 198.772811 
L 276.319182 201.144268 
L 280.632254 203.502347 
L 284.966166 205.224261 
L 289.339007 205.585029 
L 293.77413 203.857623 
L 298.297305 199.435676 
L 302.932298 191.965846 
L 307.695232 181.471863 
L 312.588432 168.44862 
L 317.594896 153.901809 
L 322.674896 139.30767 
L 327.76645 126.472407 
L 332.791129 117.28688 
" clip-path="url(#pcb4e4c55f0)" style="fill: none; stroke: #1f77b4; stroke-width: 1.5"/>
    <path d="M 205.775166 77.254977 
L 210.121876 84.308118 
L 214.503988 95.653741 
L 218.887962 109.813622 
L 223.249312 125.209285 
L 227.574714 140.405824 
L 231.861436 154.280998 
L 236.114912 166.108607 
L 240.345456 175.564878 
L 244.564987 182.676721 
L 248.784379 187.733357 
L 253.011769 191.18132 
L 257.251931 193.519502 
L 261.506608 195.206662 
L 265.775589 196.589139 
L 270.058254 197.852209 
L 274.355309 198.995532 
L 278.670413 199.832259 
L 283.011424 200.011943 
L 287.390943 199.06801 
L 291.825851 196.48961 
L 296.335613 191.814683 
L 300.939233 184.736672 
L 305.651038 175.212581 
L 310.475687 163.555649 
L 315.403233 150.492287 
L 320.405377 137.160849 
L 325.43434 125.031781 
L 330.425765 115.738235 
L 335.306459 110.826188 
" clip-path="url(#pcb4e4c55f0)" style="fill: none; stroke: #1f77b4; stroke-width: 1.5"/>
    <path d="M 208.341831 74.439159 
L 212.629388 76.96634 
L 216.965948 84.119682 
L 221.320827 94.826611 
L 225.669 107.776455 
L 229.994023 121.646856 
L 234.288608 135.284188 
L 238.553342 147.81627 
L 242.794325 158.695516 
L 247.020522 167.683872 
L 251.241415 174.796829 
L 255.465348 180.22457 
L 259.698719 184.246135 
L 263.945985 187.149076 
L 268.210331 189.16337 
L 272.494766 190.414952 
L 276.803378 190.901611 
L 281.142457 190.492352 
L 285.521208 188.950386 
L 289.951764 185.978907 
L 294.448277 181.28719 
L 299.024954 174.67186 
L 303.693043 166.104734 
L 308.457032 155.81476 
L 313.310583 144.347979 
L 318.233045 132.586849 
L 323.187667 121.710518 
L 328.122692 113.083075 
L 332.976286 108.06998 
L 337.685404 107.803484 
" clip-path="url(#pcb4e4c55f0)" style="fill: none; stroke: #1f77b4; stroke-width: 1.5"/>
    <path d="M 210.940526 75.544854 
L 215.171769 73.568484 
L 219.461728 76.158085 
L 223.783912 82.676469 
L 228.11437 92.15088 
L 232.435081 103.464255 
L 236.735429 115.529512 
L 241.011956 127.418729 
L 245.266933 138.435877 
L 249.506383 148.135852 
L 253.73812 156.301178 
L 257.970209 162.891178 
L 262.210035 167.978135 
L 266.464033 171.682798 
L 270.73795 174.118633 
L 275.037486 175.35129 
L 279.369034 175.377222 
L 283.740293 174.123316 
L 288.160474 171.467678 
L 292.639883 167.279953 
L 297.188711 161.477509 
L 301.814996 154.091167 
L 306.521869 145.331149 
L 311.304422 135.640811 
L 316.146799 125.723216 
L 321.020334 116.525007 
L 325.883701 109.165044 
L 330.68592 104.803739 
L 335.37261 104.463493 
L 339.895015 108.828527 
" clip-path="url(#pcb4e4c55f0)" style="fill: none; stroke: #1f77b4; stroke-width: 1.5"/>
    <path d="M 213.561764 80.776815 
L 217.742678 74.741942 
L 221.987999 72.831487 
L 226.27638 74.831436 
L 230.586371 80.143365 
L 234.899906 87.928275 
L 239.204381 97.258094 
L 243.493263 107.245684 
L 247.765519 117.135754 
L 252.024336 126.351549 
L 256.275606 134.501907 
L 260.526569 141.358829 
L 264.784839 146.817624 
L 269.0579 150.850995 
L 273.353012 153.466522 
L 277.677399 154.674505 
L 282.038518 154.470703 
L 286.444187 152.836227 
L 290.902362 149.7547 
L 295.420404 145.24466 
L 300.003738 139.402863 
L 304.653942 132.451605 
L 309.366479 124.780616 
L 314.128457 116.971872 
L 318.91703 109.794788 
L 323.699155 104.160818 
L 328.433425 101.03191 
L 333.0744 101.287124 
L 337.57933 105.564865 
L 341.916389 114.110771 
" clip-path="url(#pcb4e4c55f0)" style="fill: none; stroke: #1f77b4; stroke-width: 1.5"/>
    <path d="M 134.113732 140.480834 
L 136.760392 130.749286 
L 139.581246 125.399356 
L 142.550671 124.170411 
L 145.62961 126.400693 
L 148.773561 131.184775 
L 151.93958 137.535952 
L 155.091258 144.522668 
L 158.201342 151.361377 
L 161.25223 157.461829 
L 164.234932 162.430892 
L 167.147158 166.046388 
L 169.991119 168.21385 
L 172.771509 168.918091 
L 175.493922 168.179118 
L 178.163855 166.019288 
L 180.786284 162.446006 
L 183.365756 157.451919 
L 185.906844 151.032398 
L 188.414791 143.217948 
L 190.896153 134.116924 
L 193.359235 123.961471 
L 195.814137 113.147182 
L 198.272284 102.255028 
L 200.745382 92.043554 
L 203.243882 83.401284 
L 205.775166 77.254977 
L 208.341831 74.439159 
L 210.940526 75.544854 
L 213.561764 80.776815 
" clip-path="url(#pcb4e4c55f0)" style="fill: none; stroke: #1f77b4; stroke-width: 1.5"/>
    <path d="M 138.26771 134.231825 
L 141.095955 128.783588 
L 144.096935 128.153942 
L 147.227643 131.632405 
L 150.436517 138.165395 
L 153.672447 146.562521 
L 156.891545 155.680415 
L 160.061011 164.555369 
L 163.160203 172.474741 
L 166.179577 178.991863 
L 169.118325 183.897703 
L 171.981484 187.16533 
L 174.777145 188.882433 
L 177.51413 189.184468 
L 180.200375 188.197784 
L 182.842052 185.999015 
L 185.4434 182.594332 
L 188.00712 177.920095 
L 190.53518 171.864653 
L 193.029832 164.309324 
L 195.494631 155.184515 
L 197.93525 144.534416 
L 200.359875 132.58076 
L 202.779028 119.773252 
L 205.204728 106.812104 
L 207.648992 94.627974 
L 210.121876 84.308118 
L 212.629388 76.96634 
L 215.171769 73.568484 
L 217.742678 74.741942 
" clip-path="url(#pcb4e4c55f0)" style="fill: none; stroke: #1f77b4; stroke-width: 1.5"/>
    <path d="M 142.629481 132.337171 
L 145.635783 131.623243 
L 148.79619 135.757996 
L 152.053076 143.573584 
L 155.34669 153.668789 
L 158.624222 164.649539 
L 161.845483 175.315566 
L 164.985071 184.772611 
L 168.031634 192.470852 
L 170.98526 198.183421 
L 173.853945 201.944161 
L 176.649973 203.963669 
L 179.386742 204.539912 
L 182.076375 203.975927 
L 184.728222 202.513188 
L 187.348246 200.285714 
L 189.939156 197.297327 
L 192.501138 193.422758 
L 195.032988 188.432366 
L 197.533456 182.039236 
L 200.002591 173.965806 
L 202.442885 164.024543 
L 204.859974 152.20383 
L 207.262741 138.746496 
L 209.662675 124.205063 
L 212.072466 109.455703 
L 214.503988 95.653741 
L 216.965948 84.119682 
L 219.461728 76.158085 
L 221.987999 72.831487 
" clip-path="url(#pcb4e4c55f0)" style="fill: none; stroke: #1f77b4; stroke-width: 1.5"/>
    <path d="M 147.16812 134.573751 
L 150.330926 138.59718 
L 153.614931 147.083751 
L 156.952215 158.445859 
L 160.279888 171.013815 
L 163.548252 183.290504 
L 166.724719 194.122129 
L 169.793963 202.776926 
L 172.755396 208.94396 
L 175.619172 212.673415 
L 178.401761 214.281394 
L 181.121837 214.239828 
L 183.796977 213.068303 
L 186.441392 211.240116 
L 189.064729 209.110056 
L 191.671822 206.867022 
L 194.263191 204.511548 
L 196.836087 201.85737 
L 199.385901 198.556773 
L 201.907749 194.150036 
L 204.398081 188.138407 
L 206.85608 180.077063 
L 209.284637 169.680208 
L 211.690678 156.925818 
L 214.084703 142.143297 
L 216.479474 126.064061 
L 218.887962 109.813622 
L 221.320827 94.826611 
L 223.783912 82.676469 
L 226.27638 74.831436 
" clip-path="url(#pcb4e4c55f0)" style="fill: none; stroke: #1f77b4; stroke-width: 1.5"/>
    <path d="M 151.839828 140.309326 
L 155.124991 148.679039 
L 158.488696 160.753704 
L 161.85778 174.598659 
L 165.171131 188.373846 
L 168.386169 200.582055 
L 171.480623 210.209003 
L 174.450666 216.761078 
L 177.306789 220.222524 
L 180.068707 220.958291 
L 182.760279 219.587419 
L 185.405151 216.848719 
L 188.023526 213.476727 
L 190.630226 210.100831 
L 193.233965 207.173845 
L 195.837592 204.929518 
L 198.438987 203.364391 
L 201.032373 202.239784 
L 203.609871 201.103674 
L 206.163227 199.336095 
L 208.685563 196.222125 
L 211.172991 191.05242 
L 213.625815 183.244678 
L 216.049062 172.472879 
L 218.452165 158.786256 
L 220.847703 142.696492 
L 223.249312 125.209285 
L 225.669 107.776455 
L 228.11437 92.15088 
L 230.586371 80.143365 
" clip-path="url(#pcb4e4c55f0)" style="fill: none; stroke: #1f77b4; stroke-width: 1.5"/>
    <path d="M 156.596646 148.655771 
L 159.963836 160.690607 
L 163.362287 175.380155 
L 166.718542 190.534844 
L 169.977372 204.244624 
L 173.106116 215.1042 
L 176.094263 222.313892 
L 178.94977 225.674409 
L 181.693623 225.503485 
L 184.353902 222.502317 
L 186.960262 217.597453 
L 189.539494 211.782035 
L 192.112562 205.977955 
L 194.693213 200.934458 
L 197.287946 197.167994 
L 199.896893 194.936044 
L 202.515142 194.230763 
L 205.13419 194.781285 
L 207.743465 196.064532 
L 210.331976 197.335171 
L 212.890112 197.68822 
L 215.41141 196.160863 
L 217.893993 191.868186 
L 220.341313 184.157112 
L 222.761945 172.756941 
L 225.168357 157.902653 
L 227.574714 140.405824 
L 229.994023 121.646856 
L 232.435081 103.464255 
L 234.899906 87.928275 
" clip-path="url(#pcb4e4c55f0)" style="fill: none; stroke: #1f77b4; stroke-width: 1.5"/>
    <path d="M 161.393846 158.630766 
L 164.802565 173.486841 
L 168.195457 189.755077 
L 171.502972 205.086672 
L 174.678695 217.591457 
L 177.701417 226.029988 
L 180.572706 229.872995 
L 183.311723 229.255223 
L 185.948757 224.853437 
L 188.518634 217.715547 
L 191.054882 209.06719 
L 193.585331 200.124644 
L 196.129594 191.943835 
L 198.698494 185.327431 
L 201.29502 180.793376 
L 203.916055 178.585107 
L 206.554125 178.690489 
L 209.198791 180.844179 
L 211.837814 184.51351 
L 214.458465 188.892951 
L 217.049217 192.939253 
L 219.601677 195.46582 
L 222.112312 195.292167 
L 224.583454 191.426298 
L 227.023225 183.250489 
L 229.444277 170.681781 
L 231.861436 154.280998 
L 234.288608 135.284188 
L 236.735429 115.529512 
L 239.204381 97.258094 
" clip-path="url(#pcb4e4c55f0)" style="fill: none; stroke: #1f77b4; stroke-width: 1.5"/>
    <path d="M 166.19493 169.296315 
L 169.609184 186.092261 
L 172.964604 202.967604 
L 176.198644 217.501119 
L 179.275396 227.894659 
L 182.185512 233.128862 
L 184.942106 232.984138 
L 187.574388 227.957825 
L 190.120397 219.104689 
L 192.619866 207.824394 
L 195.108103 195.623787 
L 197.611704 183.892351 
L 200.146658 173.735985 
L 202.718921 165.904552 
L 205.326737 160.816385 
L 207.963491 158.638881 
L 210.61985 159.356468 
L 213.284759 162.772482 
L 215.94577 168.445648 
L 218.58966 175.615123 
L 221.203896 183.181515 
L 223.778796 189.782562 
L 226.309688 193.958682 
L 228.798281 194.372759 
L 231.252742 190.039783 
L 233.686349 180.528679 
L 236.114912 166.108607 
L 238.553342 147.81627 
L 241.011956 127.418729 
L 243.493263 107.245684 
" clip-path="url(#pcb4e4c55f0)" style="fill: none; stroke: #1f77b4; stroke-width: 1.5"/>
    <path d="M 170.973973 179.855152 
L 174.365185 197.776982 
L 177.661312 214.447898 
L 180.808734 227.444712 
L 183.782625 235.113243 
L 186.585038 236.690191 
L 189.239495 232.292066 
L 191.783743 222.800789 
L 194.261832 209.666412 
L 196.716481 194.645038 
L 199.182666 179.502317 
L 201.683472 165.735591 
L 204.229013 154.384929 
L 206.818486 145.993626 
L 209.444344 140.727684 
L 212.096595 138.582123 
L 214.76529 139.539822 
L 217.440583 143.571934 
L 220.111569 150.48185 
L 222.765792 159.70556 
L 225.390469 170.200686 
L 227.9751 180.492175 
L 230.514288 188.862068 
L 233.009598 193.622426 
L 235.469793 193.402745 
L 237.909334 187.400486 
L 240.345456 175.564878 
L 242.794325 158.695516 
L 245.266933 138.435877 
L 247.765519 117.135754 
" clip-path="url(#pcb4e4c55f0)" style="fill: none; stroke: #1f77b4; stroke-width: 1.5"/>
    <path d="M 175.715696 189.699754 
L 179.063874 208.075766 
L 182.28895 223.950044 
L 185.347072 234.948333 
L 188.224177 239.592377 
L 190.932608 237.394482 
L 193.504749 228.82261 
L 195.985125 215.159927 
L 198.421961 198.268819 
L 200.859057 180.269707 
L 203.32909 163.167671 
L 205.849633 148.49847 
L 208.422996 137.098824 
L 211.040064 129.103956 
L 213.686776 124.208963 
L 216.350338 122.089639 
L 219.021975 122.730428 
L 221.695277 126.421811 
L 224.362613 133.431569 
L 227.013177 143.592006 
L 229.634225 156.051802 
L 232.214566 169.289348 
L 234.748342 181.345632 
L 237.237467 190.173001 
L 239.691935 193.997765 
L 242.128042 191.628268 
L 244.564987 182.676721 
L 247.020522 167.683872 
L 249.506383 148.135852 
L 252.024336 126.351549 
" clip-path="url(#pcb4e4c55f0)" style="fill: none; stroke: #1f77b4; stroke-width: 1.5"/>
    <path d="M 180.413969 198.419173 
L 183.707452 216.76262 
L 186.8585 231.492588 
L 189.832982 240.314654 
L 192.626608 241.93936 
L 195.260438 236.157867 
L 197.773851 223.791973 
L 200.216195 206.533475 
L 202.637937 186.669912 
L 205.082147 166.697224 
L 207.577574 148.853514 
L 210.134903 134.663084 
L 212.747518 124.631694 
L 215.397144 118.254641 
L 218.062938 114.452156 
L 220.730282 112.34689 
L 223.393909 111.929189 
L 226.053285 114.049039 
L 228.705261 119.743867 
L 231.340617 129.471589 
L 233.946131 142.695587 
L 236.509636 157.89409 
L 239.025009 172.871235 
L 241.495107 185.20743 
L 243.931954 192.712455 
L 246.354455 193.797343 
L 248.784379 187.733357 
L 251.241415 174.796829 
L 253.73812 156.301178 
L 256.275606 134.501907 
" clip-path="url(#pcb4e4c55f0)" style="fill: none; stroke: #1f77b4; stroke-width: 1.5"/>
    <path d="M 185.069527 205.774758 
L 188.303737 223.796786 
L 191.384521 237.275743 
L 194.286763 244.008935 
L 197.014482 242.889972 
L 199.595549 233.973851 
L 202.074219 218.419921 
L 204.502514 198.317421 
L 206.931114 176.37687 
L 209.400656 155.477469 
L 211.934822 138.104122 
L 214.537 125.773851 
L 217.191876 118.610018 
L 219.872379 115.266596 
L 222.551099 113.470045 
L 225.212706 111.362327 
L 227.858342 108.945186 
L 230.495808 108.062531 
L 233.126304 110.940514 
L 235.740525 118.860989 
L 238.32331 131.65007 
L 240.861 147.778971 
L 243.347563 164.799499 
L 245.787667 179.911435 
L 248.196373 190.509545 
L 250.596088 194.617836 
L 253.011769 191.18132 
L 255.465348 180.22457 
L 257.970209 162.891178 
L 260.526569 141.358829 
" clip-path="url(#pcb4e4c55f0)" style="fill: none; stroke: #1f77b4; stroke-width: 1.5"/>
    <path d="M 189.687558 211.657678 
L 192.863192 229.255461 
L 195.881874 241.591739 
L 198.726344 246.550193 
L 201.40718 243.183427 
L 203.956951 231.77407 
L 206.422508 213.776793 
L 208.856241 191.636268 
L 211.306954 168.452338 
L 213.811265 147.474318 
L 216.387129 131.458982 
L 219.031241 121.99784 
L 221.721495 118.955881 
L 224.424313 120.150458 
L 227.106587 121.590111 
L 229.752785 119.462655 
L 232.374302 113.788272 
L 234.989373 108.383513 
L 237.600565 107.184044 
L 240.194782 112.288098 
L 242.753044 123.759565 
L 245.260048 139.980549 
L 247.710708 158.225013 
L 250.112742 175.324534 
L 252.48544 188.291488 
L 254.855614 194.803451 
L 257.251931 193.519502 
L 259.698719 184.246135 
L 262.210035 167.978135 
L 264.784839 146.817624 
" clip-path="url(#pcb4e4c55f0)" style="fill: none; stroke: #1f77b4; stroke-width: 1.5"/>
    <path d="M 194.275623 216.040294 
L 197.39667 233.26612 
L 200.363498 244.741143 
L 203.165307 248.415381 
L 205.817362 243.459156 
L 208.354785 230.324025 
L 210.824723 210.686999 
L 213.277657 187.265817 
L 215.758481 163.468195 
L 218.298388 142.85314 
L 220.90923 128.445699 
L 223.582135 122.027138 
L 226.291183 123.537762 
L 229.000966 130.538856 
L 231.675868 137.218373 
L 234.298858 135.057221 
L 236.897744 124.104831 
L 239.50059 112.900281 
L 242.102853 107.182608 
L 244.68333 109.286563 
L 247.218606 119.183912 
L 249.69275 135.055388 
L 252.103165 153.90186 
L 254.462116 172.246587 
L 256.794281 186.79937 
L 259.13157 194.971522 
L 261.506608 195.206662 
L 263.945985 187.149076 
L 266.464033 171.682798 
L 269.0579 150.850995 
" clip-path="url(#pcb4e4c55f0)" style="fill: none; stroke: #1f77b4; stroke-width: 1.5"/>
    <path d="M 198.842167 218.931292 
L 201.91403 235.948176 
L 204.839318 246.964124 
L 207.612228 249.964493 
L 210.250912 244.182146 
L 212.791053 230.159184 
L 215.278026 209.693347 
L 217.758414 185.653006 
L 220.271536 161.619601 
L 222.842117 141.335083 
L 225.47578 128.004561 
L 228.15903 123.602229 
L 230.864287 128.378411 
L 233.558577 140.651265 
L 236.212356 155.904409 
L 238.809124 153.704365 
L 241.403234 134.147332 
L 244.013834 117.673334 
L 246.619423 108.706316 
L 249.191362 108.813658 
L 251.704052 117.64847 
L 254.143162 133.192428 
L 256.510446 152.263793 
L 258.824048 171.203717 
L 261.114776 186.55126 
L 263.419841 195.570863 
L 265.775589 196.589139 
L 268.210331 189.16337 
L 270.73795 174.118633 
L 273.353012 153.466522 
" clip-path="url(#pcb4e4c55f0)" style="fill: none; stroke: #1f77b4; stroke-width: 1.5"/>
    <path d="M 203.395679 220.34181 
L 206.423627 237.370609 
L 209.316172 248.392129 
L 212.071143 251.390093 
L 214.708015 245.596794 
L 217.261393 231.554773 
L 219.773294 211.063241 
L 222.285024 186.993136 
L 224.829376 162.929455 
L 227.424303 142.61825 
L 230.069678 129.268431 
L 232.748513 124.856651 
L 235.432863 129.633548 
L 238.092862 141.915197 
L 240.707139 157.180034 
L 243.295813 154.97311 
L 245.912897 135.390786 
L 248.540904 118.894572 
L 251.150481 109.913436 
L 253.710272 110.016636 
L 256.19538 118.856802 
L 258.595132 134.413095 
L 260.916977 153.500056 
L 263.185552 172.454894 
L 265.437761 187.813299 
L 267.715588 196.837312 
L 270.058254 197.852209 
L 272.494766 190.414952 
L 275.037486 175.35129 
L 277.677399 154.674505 
" clip-path="url(#pcb4e4c55f0)" style="fill: none; stroke: #1f77b4; stroke-width: 1.5"/>
    <path d="M 207.944433 220.267285 
L 210.932501 237.529639 
L 213.798529 249.022819 
L 216.542822 252.691827 
L 219.184966 247.705143 
L 221.757349 234.515452 
L 224.297698 214.803894 
L 226.841471 191.295452 
L 229.414895 167.407896 
L 232.029815 146.711821 
L 234.681767 132.24297 
L 237.352414 125.789343 
L 240.016386 127.291345 
L 242.651665 134.301879 
L 245.254101 140.989543 
L 247.852468 138.807913 
L 250.474058 127.806672 
L 253.100922 116.552342 
L 255.697808 110.802928 
L 258.231198 112.901005 
L 260.678049 122.817791 
L 263.032338 138.72716 
L 265.307576 157.619525 
L 267.534548 176.007024 
L 269.755325 190.589938 
L 272.015367 198.772811 
L 274.355309 198.995532 
L 276.803378 190.901611 
L 279.369034 175.377222 
L 282.038518 154.470703 
" clip-path="url(#pcb4e4c55f0)" style="fill: none; stroke: #1f77b4; stroke-width: 1.5"/>
    <path d="M 212.496634 218.687322 
L 215.447051 236.348318 
L 218.289718 248.719391 
L 221.026536 253.675479 
L 223.676389 250.26568 
L 226.268845 238.773929 
L 228.837079 220.660902 
L 231.410897 198.382012 
L 234.010738 175.052052 
L 236.643712 153.937595 
L 239.302928 137.811383 
L 241.970945 128.274993 
L 244.627186 125.193455 
L 247.258031 126.372092 
L 249.866456 127.797255 
L 252.471145 125.6359 
L 255.083143 119.908388 
L 257.68639 114.452161 
L 260.24833 113.224573 
L 262.737369 118.335142 
L 265.134261 129.847139 
L 267.438384 146.132505 
L 269.669047 164.449641 
L 271.862092 181.613599 
L 274.063119 194.622618 
L 276.319182 201.144268 
L 278.670413 199.832259 
L 281.142457 190.492352 
L 283.740293 174.123316 
L 286.444187 152.836227 
" clip-path="url(#pcb4e4c55f0)" style="fill: none; stroke: #1f77b4; stroke-width: 1.5"/>
    <path d="M 217.060736 215.583738 
L 219.973895 233.69822 
L 222.793354 247.234456 
L 225.522006 253.976735 
L 228.177596 252.812879 
L 230.786737 243.798623 
L 233.378313 228.100157 
L 235.977228 207.81944 
L 238.599339 185.68484 
L 241.248569 164.596302 
L 243.917151 147.058271 
L 246.589501 134.600866 
L 249.249083 127.34966 
L 251.886156 123.948745 
L 254.50221 122.107009 
L 257.105385 119.951995 
L 259.696779 117.485465 
L 262.261057 116.565565 
L 264.771671 119.435424 
L 267.20356 127.386011 
L 269.544075 140.24071 
L 271.798922 156.457662 
L 273.992714 173.56972 
L 276.164883 188.756853 
L 278.362573 199.396988 
L 280.632254 203.502347 
L 283.011424 200.011943 
L 285.521208 188.950386 
L 288.160474 171.467678 
L 290.902362 149.7547 
" clip-path="url(#pcb4e4c55f0)" style="fill: none; stroke: #1f77b4; stroke-width: 1.5"/>
    <path d="M 221.645674 210.974675 
L 224.520626 229.441566 
L 227.314635 244.257613 
L 230.031212 253.110404 
L 232.686832 254.701592 
L 235.305345 248.821616 
L 237.911934 236.298851 
L 240.52758 218.838342 
L 243.164825 198.746535 
L 245.825686 178.541654 
L 248.502362 160.483493 
L 251.180876 146.112457 
L 253.846698 135.940732 
L 256.490106 129.459598 
L 259.108079 125.578961 
L 261.70042 123.412816 
L 264.262161 122.95135 
L 266.7792 125.052762 
L 269.231898 130.764146 
L 271.603993 140.546765 
L 273.891233 153.85723 
L 276.106143 169.15788 
L 278.277877 184.23191 
L 280.447858 196.638501 
L 282.662721 204.16966 
L 284.966166 205.224261 
L 287.390943 199.06801 
L 289.951764 185.978907 
L 292.639883 167.279953 
L 295.420404 145.24466 
" clip-path="url(#pcb4e4c55f0)" style="fill: none; stroke: #1f77b4; stroke-width: 1.5"/>
    <path d="M 226.260773 204.960305 
L 229.096172 223.490007 
L 231.861177 239.484181 
L 234.559723 250.544849 
L 237.207076 255.180786 
L 239.82471 252.901097 
L 242.434826 244.178995 
L 245.05547 230.310209 
L 247.696967 213.175689 
L 250.360334 194.918222 
L 253.038073 177.565568 
L 255.717225 162.672194 
L 258.383695 151.086022 
L 261.026022 142.945055 
L 263.636549 137.941435 
L 266.209226 135.747299 
L 268.735873 136.346786 
L 271.20464 140.033395 
L 273.602945 147.077193 
L 275.923646 157.307182 
L 278.171059 169.860717 
L 280.364063 183.19788 
L 282.535187 195.33784 
L 284.726154 204.211707 
L 286.981129 208.028441 
L 289.339007 205.585029 
L 291.825851 196.48961 
L 294.448277 181.28719 
L 297.188711 161.477509 
L 300.003738 139.402863 
" clip-path="url(#pcb4e4c55f0)" style="fill: none; stroke: #1f77b4; stroke-width: 1.5"/>
    <path d="M 230.915146 197.772988 
L 233.710507 215.873602 
L 236.443108 232.699829 
L 239.117196 245.798378 
L 241.747004 253.496941 
L 244.352092 255.025385 
L 246.952403 250.503063 
L 249.563938 240.822762 
L 252.195689 227.451753 
L 254.848325 212.167562 
L 257.514852 196.758513 
L 260.183012 182.742357 
L 262.838588 171.174286 
L 265.468302 162.606162 
L 268.061072 157.207095 
L 270.60741 154.972385 
L 273.098155 155.884534 
L 275.524525 159.91369 
L 277.880594 166.859519 
L 280.167402 176.149094 
L 282.396676 186.724985 
L 284.592264 197.092267 
L 286.788465 205.511236 
L 289.025539 210.273692 
L 291.343337 209.993184 
L 293.77413 203.857623 
L 296.335613 191.814683 
L 299.024954 174.67186 
L 301.814996 154.091167 
L 304.653942 132.451605 
" clip-path="url(#pcb4e4c55f0)" style="fill: none; stroke: #1f77b4; stroke-width: 1.5"/>
    <path d="M 235.616501 189.821963 
L 238.373568 206.810366 
L 241.072178 223.872319 
L 243.716772 238.549883 
L 246.320734 249.020619 
L 248.902172 254.253419 
L 251.479447 254.027926 
L 254.067292 248.849643 
L 256.674106 239.788378 
L 259.300768 228.263496 
L 261.94109 215.803608 
L 264.583663 203.819114 
L 267.214456 193.433358 
L 269.819283 185.408597 
L 272.385377 180.17038 
L 274.901987 177.889065 
L 277.360621 178.548705 
L 279.755953 181.948988 
L 282.087817 187.64092 
L 284.363771 194.851072 
L 286.600985 202.462825 
L 288.826291 209.093625 
L 291.073843 213.263088 
L 293.380616 213.615585 
L 295.780421 209.152396 
L 298.297305 199.435676 
L 300.939233 184.736672 
L 303.693043 166.104734 
L 306.521869 145.331149 
L 309.366479 124.780616 
" clip-path="url(#pcb4e4c55f0)" style="fill: none; stroke: #1f77b4; stroke-width: 1.5"/>
    <path d="M 240.369409 181.720285 
L 243.093375 196.763421 
L 245.759831 213.237591 
L 248.373185 228.751239 
L 250.946076 241.383102 
L 253.49555 249.875835 
L 256.03898 253.694425 
L 258.590523 252.977912 
L 261.158652 248.415004 
L 263.745026 241.070819 
L 266.344743 232.190974 
L 268.947773 223.011951 
L 271.541085 214.607727 
L 274.110895 207.795118 
L 276.644515 203.101423 
L 279.131695 200.774517 
L 281.565717 200.801954 
L 283.944648 202.913397 
L 286.272857 206.566469 
L 288.562419 210.94145 
L 290.833657 214.977361 
L 293.114135 217.468088 
L 295.435818 217.214159 
L 297.830577 213.207594 
L 300.324578 204.820103 
L 302.932298 191.965846 
L 305.651038 175.212581 
L 308.457032 155.81476 
L 311.304422 135.640811 
L 314.128457 116.971872 
" clip-path="url(#pcb4e4c55f0)" style="fill: none; stroke: #1f77b4; stroke-width: 1.5"/>
    <path d="M 245.173319 174.280503 
L 247.873561 186.470022 
L 250.514353 201.363515 
L 253.099645 216.72441 
L 255.641254 230.604965 
L 258.155401 241.574937 
L 260.658933 248.822561 
L 263.166028 252.14759 
L 265.685862 251.875452 
L 268.221477 248.721105 
L 270.769871 243.628379 
L 273.323114 237.608773 
L 275.870159 231.601365 
L 278.398927 226.369579 
L 280.898284 222.439772 
L 283.359753 220.074385 
L 285.778974 219.265355 
L 288.156999 219.736489 
L 290.501355 220.95462 
L 292.826594 222.160335 
L 295.15389 222.431888 
L 297.509299 220.788849 
L 299.920583 216.330055 
L 302.412785 208.389929 
L 305.003027 196.691454 
L 307.695232 181.471863 
L 310.475687 163.555649 
L 313.310583 144.347979 
L 316.146799 125.723216 
L 318.91703 109.794788 
" clip-path="url(#pcb4e4c55f0)" style="fill: none; stroke: #1f77b4; stroke-width: 1.5"/>
    <path d="M 250.020761 168.467138 
L 252.710765 176.925745 
L 255.337518 189.171669 
L 257.903838 203.222233 
L 260.420375 217.194606 
L 262.902502 229.559563 
L 265.366795 239.283407 
L 267.827893 245.864932 
L 270.296212 249.290462 
L 272.776766 249.934078 
L 275.269085 248.428358 
L 277.768078 245.527576 
L 280.26559 241.981415 
L 282.752301 238.432219 
L 285.219683 235.342146 
L 287.66179 232.949771 
L 290.076771 231.251525 
L 292.468021 230.003747 
L 294.84483 228.745074 
L 297.222315 226.842829 
L 299.620378 223.567469 
L 302.061508 218.195009 
L 304.567435 210.130685 
L 307.154885 199.040597 
L 309.830896 184.973161 
L 312.588432 168.44862 
L 315.403233 150.492287 
L 318.233045 132.586849 
L 321.020334 116.525007 
L 323.699155 104.160818 
" clip-path="url(#pcb4e4c55f0)" style="fill: none; stroke: #1f77b4; stroke-width: 1.5"/>
    <path d="M 254.896391 165.299615 
L 257.59259 169.31007 
L 260.221442 177.897313 
L 262.783731 189.429242 
L 265.288278 202.191422 
L 267.749244 214.649047 
L 270.182864 225.621516 
L 272.604406 234.361887 
L 275.025875 240.55438 
L 277.454701 244.252377 
L 279.893472 245.780598 
L 282.340544 245.622488 
L 284.79133 244.309765 
L 287.239981 242.326554 
L 289.681176 240.035685 
L 292.111804 237.630319 
L 294.532329 235.110995 
L 296.947704 232.287248 
L 299.367648 228.803518 
L 301.806142 224.189658 
L 304.279973 217.935431 
L 306.806304 209.58539 
L 309.399347 198.846198 
L 312.066458 185.693777 
L 314.804163 170.463324 
L 317.594896 153.901809 
L 320.405377 137.160849 
L 323.187667 121.710518 
L 325.883701 109.165044 
L 328.433425 101.03191 
" clip-path="url(#pcb4e4c55f0)" style="fill: none; stroke: #1f77b4; stroke-width: 1.5"/>
    <path d="M 259.777506 165.710001 
L 262.496983 164.848415 
L 265.146635 168.973111 
L 267.724229 176.880342 
L 270.235835 187.126695 
L 272.693661 198.277813 
L 275.113114 209.10066 
L 277.509872 218.678299 
L 279.89752 226.448384 
L 282.286076 232.180184 
L 284.681457 235.91008 
L 287.085807 237.855178 
L 289.498481 238.321653 
L 291.917432 237.6205 
L 294.340746 235.99939 
L 296.768072 233.595748 
L 299.201749 230.413515 
L 301.647427 226.324291 
L 304.114034 221.092631 
L 306.61296 214.42422 
L 309.156395 206.034033 
L 311.754852 195.72894 
L 314.414072 183.495761 
L 317.131676 169.582034 
L 319.894144 154.553205 
L 322.674896 139.30767 
L 325.43434 125.031781 
L 328.122692 113.083075 
L 330.68592 104.803739 
L 333.0744 101.287124 
" clip-path="url(#pcb4e4c55f0)" style="fill: none; stroke: #1f77b4; stroke-width: 1.5"/>
    <path d="M 264.636497 170.374285 
L 267.39379 164.621307 
L 270.082315 163.835903 
L 272.695991 167.284721 
L 275.237136 173.879636 
L 277.714981 182.391888 
L 280.143203 191.642536 
L 282.537185 200.639323 
L 284.911625 208.649789 
L 287.278851 215.21592 
L 289.647992 220.124327 
L 292.02495 223.348683 
L 294.413019 224.980135 
L 296.813914 225.158559 
L 299.228961 224.01419 
L 301.660218 221.625967 
L 304.111286 218.00029 
L 306.587647 213.071689 
L 309.096378 206.725196 
L 311.645151 198.838385 
L 314.240527 189.338989 
L 316.885651 178.271414 
L 319.577606 165.862451 
L 322.304868 152.573491 
L 325.045446 139.124208 
L 327.76645 126.472407 
L 330.425765 115.738235 
L 332.976286 108.06998 
L 335.37261 104.463493 
L 337.57933 105.564865 
" clip-path="url(#pcb4e4c55f0)" style="fill: none; stroke: #1f77b4; stroke-width: 1.5"/>
    <path d="M 269.445237 179.549885 
L 272.248855 169.351 
L 274.989741 163.6782 
L 277.657564 162.263462 
L 280.25009 164.422498 
L 282.772501 169.218433 
L 285.235558 175.630674 
L 287.653214 182.696549 
L 290.040288 189.607353 
L 292.410616 195.754819 
L 294.775907 200.734597 
L 297.145322 204.318811 
L 299.525664 206.411161 
L 301.921985 206.996832 
L 304.338378 206.09701 
L 306.778728 203.735049 
L 309.247203 199.918667 
L 311.74833 194.640158 
L 314.286522 187.894392 
L 316.865034 179.71222 
L 319.484384 170.204528 
L 322.140422 159.609726 
L 324.822362 148.334871 
L 327.511234 136.978618 
L 330.179314 126.323486 
L 332.791129 117.28688 
L 335.306459 110.826188 
L 337.685404 107.803484 
L 339.895015 108.828527 
L 341.916389 114.110771 
" clip-path="url(#pcb4e4c55f0)" style="fill: none; stroke: #1f77b4; stroke-width: 1.5"/>
   </g>
   <g id="text_22">
    <!-- wireframe -->
    <g transform="translate(205.770938 35.472) scale(0.12 -0.12)">
     <defs>
      <path id="DejaVuSans-77" d="M 269 3500 
L 844 3500 
L 1563 769 
L 2278 3500 
L 2956 3500 
L 3675 769 
L 4391 3500 
L 4966 3500 
L 4050 0 
L 3372 0 
L 2619 2869 
L 1863 0 
L 1184 0 
L 269 3500 
z
" transform="scale(0.015625)"/>
      <path id="DejaVuSans-69" d="M 603 3500 
L 1178 3500 
L 1178 0 
L 603 0 
L 603 3500 
z
M 603 4863 
L 1178 4863 
L 1178 4134 
L 603 4134 
L 603 4863 
z
" transform="scale(0.015625)"/>
      <path id="DejaVuSans-72" d="M 2631 2963 
Q 2534 3019 2420 3045 
Q 2306 3072 2169 3072 
Q 1681 3072 1420 2755 
Q 1159 2438 1159 1844 
L 1159 0 
L 581 0 
L 581 3500 
L 1159 3500 
L 1159 2956 
Q 1341 3275 1631 3429 
Q 1922 3584 2338 3584 
Q 2397 3584 2469 3576 
Q 2541 3569 2628 3553 
L 2631 2963 
z
" transform="scale(0.015625)"/>
      <path id="DejaVuSans-65" d="M 3597 1894 
L 3597 1613 
L 953 1613 
Q 991 1019 1311 708 
Q 1631 397 2203 397 
Q 2534 397 2845 478 
Q 3156 559 3463 722 
L 3463 178 
Q 3153 47 2828 -22 
Q 2503 -91 2169 -91 
Q 1331 -91 842 396 
Q 353 884 353 1716 
Q 353 2575 817 3079 
Q 1281 3584 2069 3584 
Q 2775 3584 3186 3129 
Q 3597 2675 3597 1894 
z
M 3022 2063 
Q 3016 2534 2758 2815 
Q 2500 3097 2075 3097 
Q 1594 3097 1305 2825 
Q 1016 2553 972 2059 
L 3022 2063 
z
" transform="scale(0.015625)"/>
      <path id="DejaVuSans-66" d="M 2375 4863 
L 2375 4384 
L 1825 4384 
Q 1516 4384 1395 4259 
Q 1275 4134 1275 3809 
L 1275 3500 
L 2222 3500 
L 2222 3053 
L 1275 3053 
L 1275 0 
L 697 0 
L 697 3053 
L 147 3053 
L 147 3500 
L 697 3500 
L 697 3744 
Q 697 4328 969 4595 
Q 1241 4863 1831 4863 
L 2375 4863 
z
" transform="scale(0.015625)"/>
      <path id="DejaVuSans-61" d="M 2194 1759 
Q 1497 1759 1228 1600 
Q 959 1441 959 1056 
Q 959 750 1161 570 
Q 1363 391 1709 391 
Q 2188 391 2477 730 
Q 2766 1069 2766 1631 
L 2766 1759 
L 2194 1759 
z
M 3341 1997 
L 3341 0 
L 2766 0 
L 2766 531 
Q 2569 213 2275 61 
Q 1981 -91 1556 -91 
Q 1019 -91 701 211 
Q 384 513 384 1019 
Q 384 1609 779 1909 
Q 1175 2209 1959 2209 
L 2766 2209 
L 2766 2266 
Q 2766 2663 2505 2880 
Q 2244 3097 1772 3097 
Q 1472 3097 1187 3025 
Q 903 2953 641 2809 
L 641 3341 
Q 956 3463 1253 3523 
Q 1550 3584 1831 3584 
Q 2591 3584 2966 3190 
Q 3341 2797 3341 1997 
z
" transform="scale(0.015625)"/>
      <path id="DejaVuSans-6d" d="M 3328 2828 
Q 3544 3216 3844 3400 
Q 4144 3584 4550 3584 
Q 5097 3584 5394 3201 
Q 5691 2819 5691 2113 
L 5691 0 
L 5113 0 
L 5113 2094 
Q 5113 2597 4934 2840 
Q 4756 3084 4391 3084 
Q 3944 3084 3684 2787 
Q 3425 2491 3425 1978 
L 3425 0 
L 2847 0 
L 2847 2094 
Q 2847 2600 2669 2842 
Q 2491 3084 2119 3084 
Q 1678 3084 1418 2786 
Q 1159 2488 1159 1978 
L 1159 0 
L 581 0 
L 581 3500 
L 1159 3500 
L 1159 2956 
Q 1356 3278 1631 3431 
Q 1906 3584 2284 3584 
Q 2666 3584 2933 3390 
Q 3200 3197 3328 2828 
z
" transform="scale(0.015625)"/>
     </defs>
     <use xlink:href="#DejaVuSans-77"/>
     <use xlink:href="#DejaVuSans-69" x="81.787109"/>
     <use xlink:href="#DejaVuSans-72" x="109.570312"/>
     <use xlink:href="#DejaVuSans-65" x="148.433594"/>
     <use xlink:href="#DejaVuSans-66" x="209.957031"/>
     <use xlink:href="#DejaVuSans-72" x="245.162109"/>
     <use xlink:href="#DejaVuSans-61" x="286.275391"/>
     <use xlink:href="#DejaVuSans-6d" x="347.554688"/>
     <use xlink:href="#DejaVuSans-65" x="444.966797"/>
    </g>
   </g>
  </g>
 </g>
 <defs>
  <clipPath id="pcb4e4c55f0">
   <rect x="103.104" y="41.472" width="266.112" height="266.112"/>
  </clipPath>
 </defs>
</svg>
