<?xml version="1.0" encoding="utf-8" standalone="no"?>
<!DOCTYPE svg PUBLIC "-//W3C//DTD SVG 1.1//EN"
  "http://www.w3.org/Graphics/SVG/1.1/DTD/svg11.dtd">
<svg xmlns:xlink="http://www.w3.org/1999/xlink" width="460.8pt" height="345.6pt" viewBox="0 0 460.8 345.6" xmlns="http://www.w3.org/2000/svg" version="1.1">
 <metadata>
  <rdf:RDF xmlns:dc="http://purl.org/dc/elements/1.1/" xmlns:cc="http://creativecommons.org/ns#" xmlns:rdf="http://www.w3.org/1999/02/22-rdf-syntax-ns#">
   <cc:Work>
    <dc:type rdf:resource="http://purl.org/dc/dcmitype/StillImage"/>
    <dc:date>2023-07-30T12:56:19.047694</dc:date>
    <dc:format>image/svg+xml</dc:format>
    <dc:creator>
     <cc:Agent>
      <dc:title>Matplotlib v3.7.1, https://matplotlib.org/</dc:title>
     </cc:Agent>
    </dc:creator>
   </cc:Work>
  </rdf:RDF>
 </metadata>
 <defs>
  <style type="text/css">*{stroke-linejoin: round; stroke-linecap: butt}</style>
 </defs>
 <g id="figure_1">
  <g id="patch_1">
   <path d="M 0 345.6 
L 460.8 345.6 
L 460.8 0 
L 0 0 
z
" style="fill: #ffffff"/>
  </g>
  <g id="axes_1">
   <g id="patch_2">
    <path d="M 57.6 307.584 
L 414.72 307.584 
L 414.72 41.472 
L 57.6 41.472 
z
" style="fill: #ffffff"/>
   </g>
   <g id="matplotlib.axis_1">
    <g id="xtick_1">
     <g id="line2d_1">
      <path d="M 57.6 307.584 
L 57.6 41.472 
" clip-path="url(#pecb65987bd)" style="fill: none; stroke: #cccccc; stroke-width: 0.8; stroke-linecap: round"/>
     </g>
     <g id="line2d_2"/>
     <g id="text_1">
      <!-- 0 -->
      <g style="fill: #262626" transform="translate(54.819531 318.330875) scale(0.1 -0.1)">
       <defs>
        <path id="LiberationSans-30" d="M 3309 2203 
Q 3309 1100 2920 518 
Q 2531 -63 1772 -63 
Q 1013 -63 631 515 
Q 250 1094 250 2203 
Q 250 3338 620 3903 
Q 991 4469 1791 4469 
Q 2569 4469 2939 3897 
Q 3309 3325 3309 2203 
z
M 2738 2203 
Q 2738 3156 2517 3584 
Q 2297 4013 1791 4013 
Q 1272 4013 1045 3591 
Q 819 3169 819 2203 
Q 819 1266 1048 831 
Q 1278 397 1778 397 
Q 2275 397 2506 840 
Q 2738 1284 2738 2203 
z
" transform="scale(0.015625)"/>
       </defs>
       <use xlink:href="#LiberationSans-30"/>
      </g>
     </g>
    </g>
    <g id="xtick_2">
     <g id="line2d_3">
      <path d="M 129.024 307.584 
L 129.024 41.472 
" clip-path="url(#pecb65987bd)" style="fill: none; stroke: #cccccc; stroke-width: 0.8; stroke-linecap: round"/>
     </g>
     <g id="line2d_4"/>
     <g id="text_2">
      <!-- 1 -->
      <g style="fill: #262626" transform="translate(126.243531 318.330875) scale(0.1 -0.1)">
       <defs>
        <path id="LiberationSans-31" d="M 488 0 
L 488 478 
L 1609 478 
L 1609 3866 
L 616 3156 
L 616 3688 
L 1656 4403 
L 2175 4403 
L 2175 478 
L 3247 478 
L 3247 0 
L 488 0 
z
" transform="scale(0.015625)"/>
       </defs>
       <use xlink:href="#LiberationSans-31"/>
      </g>
     </g>
    </g>
    <g id="xtick_3">
     <g id="line2d_5">
      <path d="M 200.448 307.584 
L 200.448 41.472 
" clip-path="url(#pecb65987bd)" style="fill: none; stroke: #cccccc; stroke-width: 0.8; stroke-linecap: round"/>
     </g>
     <g id="line2d_6"/>
     <g id="text_3">
      <!-- 2 -->
      <g style="fill: #262626" transform="translate(197.667531 318.330875) scale(0.1 -0.1)">
       <defs>
        <path id="LiberationSans-32" d="M 322 0 
L 322 397 
Q 481 763 711 1042 
Q 941 1322 1194 1548 
Q 1447 1775 1695 1969 
Q 1944 2163 2144 2356 
Q 2344 2550 2467 2762 
Q 2591 2975 2591 3244 
Q 2591 3606 2378 3806 
Q 2166 4006 1788 4006 
Q 1428 4006 1195 3811 
Q 963 3616 922 3263 
L 347 3316 
Q 409 3844 795 4156 
Q 1181 4469 1788 4469 
Q 2453 4469 2811 4155 
Q 3169 3841 3169 3263 
Q 3169 3006 3051 2753 
Q 2934 2500 2703 2247 
Q 2472 1994 1819 1463 
Q 1459 1169 1246 933 
Q 1034 697 941 478 
L 3238 478 
L 3238 0 
L 322 0 
z
" transform="scale(0.015625)"/>
       </defs>
       <use xlink:href="#LiberationSans-32"/>
      </g>
     </g>
    </g>
    <g id="xtick_4">
     <g id="line2d_7">
      <path d="M 271.872 307.584 
L 271.872 41.472 
" clip-path="url(#pecb65987bd)" style="fill: none; stroke: #cccccc; stroke-width: 0.8; stroke-linecap: round"/>
     </g>
     <g id="line2d_8"/>
     <g id="text_4">
      <!-- 3 -->
      <g style="fill: #262626" transform="translate(269.091531 318.330875) scale(0.1 -0.1)">
       <defs>
        <path id="LiberationSans-33" d="M 3278 1216 
Q 3278 606 2890 271 
Q 2503 -63 1784 -63 
Q 1116 -63 717 239 
Q 319 541 244 1131 
L 825 1184 
Q 938 403 1784 403 
Q 2209 403 2451 612 
Q 2694 822 2694 1234 
Q 2694 1594 2417 1795 
Q 2141 1997 1619 1997 
L 1300 1997 
L 1300 2484 
L 1606 2484 
Q 2069 2484 2323 2686 
Q 2578 2888 2578 3244 
Q 2578 3597 2370 3801 
Q 2163 4006 1753 4006 
Q 1381 4006 1151 3815 
Q 922 3625 884 3278 
L 319 3322 
Q 381 3863 767 4166 
Q 1153 4469 1759 4469 
Q 2422 4469 2789 4161 
Q 3156 3853 3156 3303 
Q 3156 2881 2920 2617 
Q 2684 2353 2234 2259 
L 2234 2247 
Q 2728 2194 3003 1916 
Q 3278 1638 3278 1216 
z
" transform="scale(0.015625)"/>
       </defs>
       <use xlink:href="#LiberationSans-33"/>
      </g>
     </g>
    </g>
    <g id="xtick_5">
     <g id="line2d_9">
      <path d="M 343.296 307.584 
L 343.296 41.472 
" clip-path="url(#pecb65987bd)" style="fill: none; stroke: #cccccc; stroke-width: 0.8; stroke-linecap: round"/>
     </g>
     <g id="line2d_10"/>
     <g id="text_5">
      <!-- 4 -->
      <g style="fill: #262626" transform="translate(340.515531 318.330875) scale(0.1 -0.1)">
       <defs>
        <path id="LiberationSans-34" d="M 2753 997 
L 2753 0 
L 2222 0 
L 2222 997 
L 147 997 
L 147 1434 
L 2163 4403 
L 2753 4403 
L 2753 1441 
L 3372 1441 
L 3372 997 
L 2753 997 
z
M 2222 3769 
Q 2216 3750 2134 3603 
Q 2053 3456 2013 3397 
L 884 1734 
L 716 1503 
L 666 1441 
L 2222 1441 
L 2222 3769 
z
" transform="scale(0.015625)"/>
       </defs>
       <use xlink:href="#LiberationSans-34"/>
      </g>
     </g>
    </g>
    <g id="xtick_6">
     <g id="line2d_11">
      <path d="M 414.72 307.584 
L 414.72 41.472 
" clip-path="url(#pecb65987bd)" style="fill: none; stroke: #cccccc; stroke-width: 0.8; stroke-linecap: round"/>
     </g>
     <g id="line2d_12"/>
     <g id="text_6">
      <!-- 5 -->
      <g style="fill: #262626" transform="translate(411.939531 318.330875) scale(0.1 -0.1)">
       <defs>
        <path id="LiberationSans-35" d="M 3291 1434 
Q 3291 738 2877 337 
Q 2463 -63 1728 -63 
Q 1113 -63 734 206 
Q 356 475 256 984 
L 825 1050 
Q 1003 397 1741 397 
Q 2194 397 2450 670 
Q 2706 944 2706 1422 
Q 2706 1838 2448 2094 
Q 2191 2350 1753 2350 
Q 1525 2350 1328 2278 
Q 1131 2206 934 2034 
L 384 2034 
L 531 4403 
L 3034 4403 
L 3034 3925 
L 1044 3925 
L 959 2528 
Q 1325 2809 1869 2809 
Q 2519 2809 2905 2428 
Q 3291 2047 3291 1434 
z
" transform="scale(0.015625)"/>
       </defs>
       <use xlink:href="#LiberationSans-35"/>
      </g>
     </g>
    </g>
   </g>
   <g id="matplotlib.axis_2">
    <g id="ytick_1">
     <g id="line2d_13">
      <path d="M 57.6 307.584 
L 414.72 307.584 
" clip-path="url(#pecb65987bd)" style="fill: none; stroke: #cccccc; stroke-width: 0.8; stroke-linecap: round"/>
     </g>
     <g id="line2d_14"/>
     <g id="text_7">
      <!-- 0 -->
      <g style="fill: #262626" transform="translate(48.539062 311.207437) scale(0.1 -0.1)">
       <use xlink:href="#LiberationSans-30"/>
      </g>
     </g>
    </g>
    <g id="ytick_2">
     <g id="line2d_15">
      <path d="M 57.6 254.3616 
L 414.72 254.3616 
" clip-path="url(#pecb65987bd)" style="fill: none; stroke: #cccccc; stroke-width: 0.8; stroke-linecap: round"/>
     </g>
     <g id="line2d_16"/>
     <g id="text_8">
      <!-- 1 -->
      <g style="fill: #262626" transform="translate(48.539062 257.985037) scale(0.1 -0.1)">
       <use xlink:href="#LiberationSans-31"/>
      </g>
     </g>
    </g>
    <g id="ytick_3">
     <g id="line2d_17">
      <path d="M 57.6 201.1392 
L 414.72 201.1392 
" clip-path="url(#pecb65987bd)" style="fill: none; stroke: #cccccc; stroke-width: 0.8; stroke-linecap: round"/>
     </g>
     <g id="line2d_18"/>
     <g id="text_9">
      <!-- 2 -->
      <g style="fill: #262626" transform="translate(48.539062 204.762637) scale(0.1 -0.1)">
       <use xlink:href="#LiberationSans-32"/>
      </g>
     </g>
    </g>
    <g id="ytick_4">
     <g id="line2d_19">
      <path d="M 57.6 147.9168 
L 414.72 147.9168 
" clip-path="url(#pecb65987bd)" style="fill: none; stroke: #cccccc; stroke-width: 0.8; stroke-linecap: round"/>
     </g>
     <g id="line2d_20"/>
     <g id="text_10">
      <!-- 3 -->
      <g style="fill: #262626" transform="translate(48.539062 151.540237) scale(0.1 -0.1)">
       <use xlink:href="#LiberationSans-33"/>
      </g>
     </g>
    </g>
    <g id="ytick_5">
     <g id="line2d_21">
      <path d="M 57.6 94.6944 
L 414.72 94.6944 
" clip-path="url(#pecb65987bd)" style="fill: none; stroke: #cccccc; stroke-width: 0.8; stroke-linecap: round"/>
     </g>
     <g id="line2d_22"/>
     <g id="text_11">
      <!-- 4 -->
      <g style="fill: #262626" transform="translate(48.539062 98.317837) scale(0.1 -0.1)">
       <use xlink:href="#LiberationSans-34"/>
      </g>
     </g>
    </g>
    <g id="ytick_6">
     <g id="line2d_23">
      <path d="M 57.6 41.472 
L 414.72 41.472 
" clip-path="url(#pecb65987bd)" style="fill: none; stroke: #cccccc; stroke-width: 0.8; stroke-linecap: round"/>
     </g>
     <g id="line2d_24"/>
     <g id="text_12">
      <!-- 5 -->
      <g style="fill: #262626" transform="translate(48.539062 45.095438) scale(0.1 -0.1)">
       <use xlink:href="#LiberationSans-35"/>
      </g>
     </g>
    </g>
   </g>
   <g id="PathCollection_1"/>
   <g id="PathCollection_2">
    <path d="M 279.965349 41.472 
L 281.250909 42.821947 
L 282.284333 44.16 
L 284.749194 46.848 
L 284.858182 46.959999 
L 286.85476 49.536 
L 288.465455 51.236267 
L 289.260788 52.224 
L 291.657474 54.912 
L 292.072727 55.345798 
L 293.870973 57.6 
L 295.68 59.51129 
L 296.324074 60.288 
L 298.671937 62.976 
L 299.287273 63.633159 
L 300.916041 65.664 
L 302.894545 67.781783 
L 303.370564 68.352 
L 305.566987 71.04 
L 306.501818 72.098459 
L 307.752115 73.728 
L 310.109091 76.385666 
L 310.13339 76.416 
L 311.719701 79.104 
L 313.674794 81.792 
L 310.109091 82.903216 
L 308.298368 81.792 
L 306.501818 80.848039 
L 304.11862 79.104 
L 302.894545 78.331327 
L 300.581861 76.416 
L 299.287273 75.482799 
L 297.354547 73.728 
L 295.68 72.391394 
L 294.294024 71.04 
L 292.072727 69.115836 
L 291.33296 68.352 
L 288.465455 65.693089 
L 288.438587 65.664 
L 286.022387 62.976 
L 284.858182 61.864238 
L 283.507438 60.288 
L 281.250909 57.986299 
L 280.931445 57.6 
L 278.714704 54.912 
L 277.643636 53.77651 
L 276.457741 52.224 
L 274.081334 49.536 
L 274.036364 49.486336 
L 272.193874 46.848 
L 270.429091 44.771587 
L 270.005542 44.16 
L 268.167727 41.472 
" clip-path="url(#pecb65987bd)" style="fill: none; stroke-dasharray: 5.55,2.4; stroke-dashoffset: 0; stroke: #000000; stroke-width: 1.5"/>
    <path d="M 292.072727 272.902918 
L 288.782608 272.64 
L 288.465455 272.605795 
L 284.858182 272.099054 
L 281.250909 271.51988 
L 277.643636 270.875802 
L 274.036364 270.170395 
L 273.034814 269.952 
L 270.429091 269.207429 
L 266.821818 268.138311 
L 263.982304 267.264 
L 263.214545 266.940463 
L 259.607273 265.380835 
L 257.764341 264.576 
L 256 263.468923 
L 253.430759 261.888 
L 252.392727 260.823319 
L 250.761774 259.2 
L 249.915131 256.512 
L 252.392727 253.989934 
L 252.774175 253.824 
L 256 253.295609 
L 259.607273 253.183375 
L 263.214545 253.352575 
L 266.821818 253.691323 
L 267.805701 253.824 
L 270.429091 254.254336 
L 274.036364 254.92469 
L 277.643636 255.619948 
L 281.250909 256.327174 
L 282.120311 256.512 
L 284.858182 257.229174 
L 288.465455 258.152758 
L 292.072727 259.036301 
L 292.716134 259.2 
L 295.68 260.170342 
L 299.287273 261.274709 
L 301.348832 261.888 
L 302.894545 262.537402 
L 306.501818 263.965789 
L 308.121026 264.576 
L 310.109091 265.824396 
L 312.644304 267.264 
L 313.716364 269.322356 
L 314.077148 269.952 
L 313.716364 270.261716 
L 310.109091 272.196999 
L 308.528575 272.64 
L 306.501818 272.884982 
L 302.894545 273.115276 
L 299.287273 273.173318 
L 295.68 273.0944 
L 292.072727 272.902918 
" clip-path="url(#pecb65987bd)" style="fill: none; stroke-dasharray: 5.55,2.4; stroke-dashoffset: 0; stroke: #000000; stroke-width: 1.5"/>
    <path d="M 306.501818 176.81047 
L 303.037858 175.872 
L 302.894545 175.826166 
L 299.287273 174.29934 
L 296.56769 173.184 
L 295.68 172.776454 
L 292.072727 171.005791 
L 291.081851 170.496 
L 288.465455 169.038936 
L 286.246845 167.808 
L 284.858182 166.976035 
L 281.769731 165.12 
L 281.250909 164.784792 
L 277.648406 162.432 
L 277.643636 162.428672 
L 274.036364 159.83455 
L 273.912921 159.744 
L 270.429091 157.071953 
L 270.408792 157.056 
L 267.209341 154.368 
L 266.821818 154.029391 
L 264.245508 151.68 
L 263.214545 150.715055 
L 261.461654 148.992 
L 259.607273 147.141604 
L 258.812067 146.304 
L 256.378305 143.616 
L 256 143.151106 
L 254.349914 140.928 
L 252.392727 138.40034 
L 252.279727 138.24 
L 251.012179 135.552 
L 250.373543 132.864 
L 252.392727 131.574966 
L 256 132.814571 
L 256.075822 132.864 
L 259.607273 134.943259 
L 260.50864 135.552 
L 263.214545 137.236438 
L 264.672206 138.24 
L 266.821818 139.628576 
L 268.691279 140.928 
L 270.429091 142.079702 
L 272.631208 143.616 
L 274.036364 144.564885 
L 276.528186 146.304 
L 277.643636 147.068685 
L 280.401888 148.992 
L 281.250909 149.582152 
L 284.261054 151.68 
L 284.858182 152.101272 
L 288.105735 154.368 
L 288.465455 154.626424 
L 291.927601 157.056 
L 292.072727 157.162796 
L 295.68 159.729241 
L 295.701291 159.744 
L 299.287273 162.364135 
L 299.384587 162.432 
L 302.894545 165.059588 
L 302.979885 165.12 
L 306.410705 167.808 
L 306.501818 167.894283 
L 309.506167 170.496 
L 310.109091 171.166759 
L 312.121672 173.184 
L 313.716364 175.522328 
L 313.984943 175.872 
L 313.716364 176.48073 
L 310.109091 177.494807 
L 306.501818 176.81047 
z
" clip-path="url(#pecb65987bd)" style="fill: none; stroke-dasharray: 5.55,2.4; stroke-dashoffset: 0; stroke: #000000; stroke-width: 1.5"/>
   </g>
   <g id="PathCollection_3">
    <path d="M 62.526079 41.472 
L 62.575908 44.16 
L 62.626884 46.848 
L 62.679047 49.536 
L 62.732435 52.224 
L 62.787089 54.912 
L 62.843051 57.6 
L 62.900368 60.288 
L 62.959084 62.976 
L 63.019249 65.664 
L 63.080913 68.352 
L 63.14413 71.04 
L 63.208954 73.728 
L 63.275445 76.416 
L 63.343662 79.104 
L 63.41367 81.792 
L 63.485534 84.48 
L 63.559326 87.168 
L 63.635118 89.856 
L 63.712986 92.544 
L 63.793013 95.232 
L 63.875283 97.92 
L 63.959884 100.608 
L 64.046911 103.296 
L 64.136463 105.984 
L 64.228643 108.672 
L 64.323561 111.36 
L 64.421333 114.048 
L 64.522081 116.736 
L 64.625933 119.424 
L 64.733025 122.112 
L 64.814545 124.104553 
L 64.83997 124.8 
L 64.940119 127.488 
L 65.043592 130.176 
L 65.15055 132.864 
L 65.261164 135.552 
L 65.375615 138.24 
L 65.494096 140.928 
L 65.616811 143.616 
L 65.743979 146.304 
L 65.875833 148.992 
L 66.012618 151.68 
L 66.154602 154.368 
L 66.302065 157.056 
L 66.455311 159.744 
L 66.614664 162.432 
L 66.780469 165.12 
L 66.953101 167.808 
L 67.13296 170.496 
L 67.320475 173.184 
L 67.516111 175.872 
L 67.720368 178.56 
L 67.933787 181.248 
L 68.156952 183.936 
L 68.390496 186.624 
L 68.421818 186.976169 
L 68.617771 189.312 
L 68.853397 192 
L 69.100687 194.688 
L 69.36047 197.376 
L 69.63365 200.064 
L 69.921218 202.752 
L 70.224255 205.44 
L 70.543946 208.128 
L 70.881595 210.816 
L 71.238636 213.504 
L 71.61665 216.192 
L 72.017386 218.88 
L 72.029091 218.956465 
L 72.417746 221.568 
L 72.842365 224.256 
L 73.294173 226.944 
L 73.775642 229.632 
L 74.289532 232.32 
L 74.838926 235.008 
L 75.427286 237.696 
L 75.636364 238.610734 
L 76.038179 240.384 
L 76.683162 243.072 
L 77.376675 245.76 
L 78.12382 248.448 
L 78.930366 251.136 
L 79.243636 252.129801 
L 79.780108 253.824 
L 80.685463 256.512 
L 81.666303 259.2 
L 82.731152 261.888 
L 82.850909 262.178637 
L 83.85087 264.576 
L 85.061888 267.264 
L 86.379029 269.952 
L 86.458182 270.107761 
L 87.763493 272.64 
L 89.262283 275.328 
L 90.065455 276.689298 
L 90.857022 278.016 
L 92.545133 280.704 
L 93.672727 282.400684 
L 94.331558 283.392 
L 96.184531 286.08 
L 97.28 287.602311 
L 98.101163 288.768 
L 100.044754 291.456 
L 100.887273 292.595658 
L 101.972693 294.144 
L 103.88083 296.832 
L 104.494545 297.696359 
L 105.6753 299.52 
L 107.401737 302.208 
L 108.101818 303.319723 
L 108.972054 304.896 
L 110.405465 307.584 
" clip-path="url(#pecb65987bd)" style="fill: none; stroke-dasharray: 5.55,2.4; stroke-dashoffset: 0; stroke: #000000; stroke-width: 1.5"/>
    <path d="M 286.902261 41.472 
L 288.465455 43.232355 
L 289.246103 44.16 
L 291.603515 46.848 
L 292.072727 47.363031 
L 293.944665 49.536 
L 295.68 51.418354 
L 296.395202 52.224 
L 298.856211 54.912 
L 299.287273 55.36981 
L 301.303107 57.6 
L 302.894545 59.266704 
L 303.845014 60.288 
L 306.445353 62.976 
L 306.501818 63.034367 
L 308.972285 65.664 
L 310.109091 66.822542 
L 311.585419 68.352 
L 313.716364 70.491478 
L 314.259559 71.04 
L 316.923308 73.728 
L 317.323636 74.131926 
L 319.563673 76.416 
L 320.930909 77.782096 
L 322.250244 79.104 
L 324.538182 81.374725 
L 324.959525 81.792 
L 327.591646 84.48 
L 328.145455 85.057691 
L 330.150968 87.168 
L 331.752727 88.862775 
L 332.68245 89.856 
L 335.113683 92.544 
L 335.36 92.844072 
L 337.260439 95.232 
L 338.967273 97.439984 
L 339.324549 97.92 
L 340.91576 100.608 
L 342.255476 103.296 
L 342.574545 104.815535 
L 342.793079 105.984 
L 342.574545 106.774758 
L 340.099947 108.672 
L 338.967273 108.876929 
L 338.045047 108.672 
L 335.36 108.087297 
L 331.752727 106.664913 
L 330.430646 105.984 
L 328.145455 104.836577 
L 325.454092 103.296 
L 324.538182 102.785885 
L 321.04456 100.608 
L 320.930909 100.539212 
L 317.323636 98.084015 
L 317.101315 97.92 
L 313.716364 95.483546 
L 313.39108 95.232 
L 310.109091 92.75574 
L 309.847135 92.544 
L 306.501818 89.904792 
L 306.443932 89.856 
L 303.226415 87.168 
L 302.894545 86.89952 
L 300.136332 84.48 
L 299.287273 83.760327 
L 297.137142 81.792 
L 295.68 80.50096 
L 294.213424 79.104 
L 292.072727 77.125593 
L 291.354781 76.416 
L 288.573933 73.728 
L 288.465455 73.624049 
L 285.979936 71.04 
L 284.858182 69.91874 
L 283.401896 68.352 
L 281.250909 66.114537 
L 280.845043 65.664 
L 278.434354 62.976 
L 277.643636 62.11919 
L 276.078881 60.288 
L 274.036364 57.987724 
L 273.713891 57.6 
L 271.509089 54.912 
L 270.429091 53.642643 
L 269.309991 52.224 
L 267.136216 49.536 
L 266.821818 49.149965 
L 265.10152 46.848 
L 263.214545 44.44472 
L 263.005772 44.16 
L 261.08559 41.472 
" clip-path="url(#pecb65987bd)" style="fill: none; stroke-dasharray: 5.55,2.4; stroke-dashoffset: 0; stroke: #000000; stroke-width: 1.5"/>
    <path d="M 292.072727 280.878434 
L 290.141955 280.704 
L 288.465455 280.534025 
L 284.858182 280.12851 
L 281.250909 279.685967 
L 277.643636 279.205596 
L 274.036364 278.685916 
L 270.429091 278.124769 
L 269.776076 278.016 
L 266.821818 277.462303 
L 263.214545 276.744126 
L 259.607273 275.978882 
L 256.729955 275.328 
L 256 275.139972 
L 252.392727 274.163456 
L 248.785455 273.124562 
L 247.202757 272.64 
L 245.178182 271.92773 
L 241.570909 270.576991 
L 240.02126 269.952 
L 237.963636 268.986798 
L 234.583832 267.264 
L 234.356364 267.126775 
L 230.749091 264.749903 
L 230.512375 264.576 
L 227.450191 261.888 
L 227.141818 261.554855 
L 225.189776 259.2 
L 223.534545 256.684672 
L 223.433827 256.512 
L 222.283594 253.824 
L 221.532113 251.136 
L 221.20938 248.448 
L 221.38838 245.76 
L 222.209523 243.072 
L 223.534545 240.945852 
L 224.096666 240.384 
L 227.141818 238.561568 
L 230.749091 237.721166 
L 231.758311 237.696 
L 234.356364 237.648678 
L 234.880606 237.696 
L 237.963636 237.977388 
L 241.570909 238.542121 
L 245.178182 239.230548 
L 248.785455 239.985213 
L 250.523295 240.384 
L 252.392727 240.822609 
L 256 241.713228 
L 259.607273 242.595699 
L 261.508767 243.072 
L 263.214545 243.514197 
L 266.821818 244.461164 
L 270.429091 245.379258 
L 271.91022 245.76 
L 274.036364 246.332688 
L 277.643636 247.291587 
L 281.250909 248.215296 
L 282.153208 248.448 
L 284.858182 249.188973 
L 288.465455 250.147383 
L 292.072727 251.069852 
L 292.329596 251.136 
L 295.68 252.066939 
L 299.287273 253.028698 
L 302.362153 253.824 
L 302.894545 253.976205 
L 306.501818 254.998783 
L 310.109091 255.981089 
L 312.090099 256.512 
L 313.716364 257.005432 
L 317.323636 258.080202 
L 320.930909 259.129733 
L 321.169062 259.2 
L 324.538182 260.360372 
L 328.145455 261.599316 
L 328.953368 261.888 
L 331.752727 263.112695 
L 334.961755 264.576 
L 335.36 264.816783 
L 338.967273 267.152978 
L 339.122966 267.264 
L 341.625307 269.952 
L 342.574545 272.128654 
L 342.775086 272.64 
L 342.574545 274.292247 
L 342.412741 275.328 
L 339.978147 278.016 
L 338.967273 278.59442 
L 335.36 280.06277 
L 333.00622 280.704 
L 331.752727 280.945095 
L 328.145455 281.420128 
L 324.538182 281.718666 
L 320.930909 281.888717 
L 317.323636 281.962414 
L 313.716364 281.960833 
L 310.109091 281.897624 
L 306.501818 281.781603 
L 302.894545 281.618513 
L 299.287273 281.41213 
L 295.68 281.164927 
L 292.072727 280.878434 
z
" clip-path="url(#pecb65987bd)" style="fill: none; stroke-dasharray: 5.55,2.4; stroke-dashoffset: 0; stroke: #000000; stroke-width: 1.5"/>
    <path d="M 324.538182 192.281166 
L 323.564049 192 
L 320.930909 191.194173 
L 317.323636 190.014889 
L 315.319486 189.312 
L 313.716364 188.719097 
L 310.109091 187.32074 
L 308.385191 186.624 
L 306.501818 185.82593 
L 302.894545 184.26929 
L 302.160254 183.936 
L 299.287273 182.576252 
L 296.493701 181.248 
L 295.68 180.84323 
L 292.072727 179.000645 
L 291.233951 178.56 
L 288.465455 177.046998 
L 286.336722 175.872 
L 284.858182 175.021775 
L 281.695281 173.184 
L 281.250909 172.914828 
L 277.643636 170.689381 
L 277.336907 170.496 
L 274.036364 168.336457 
L 273.238907 167.808 
L 270.429091 165.875495 
L 269.344778 165.12 
L 266.821818 163.296168 
L 265.642092 162.432 
L 263.214545 160.588143 
L 262.117966 159.744 
L 259.607273 157.741377 
L 258.759473 157.056 
L 256 154.746166 
L 255.554198 154.368 
L 252.499805 151.68 
L 252.392727 151.581771 
L 249.624895 148.992 
L 248.785455 148.183646 
L 246.872954 146.304 
L 245.178182 144.591129 
L 244.233744 143.616 
L 241.712445 140.928 
L 241.570909 140.769532 
L 239.386365 138.24 
L 237.963636 136.562001 
L 237.137903 135.552 
L 235.034835 132.864 
L 234.356364 131.963232 
L 233.081077 130.176 
L 231.2178 127.488 
L 230.749091 126.775023 
L 229.544984 124.8 
L 227.969086 122.112 
L 227.141818 120.638152 
L 226.524235 119.424 
L 225.282634 116.736 
L 224.090778 114.048 
L 223.534545 112.66044 
L 223.086164 111.36 
L 222.33459 108.672 
L 221.747426 105.984 
L 221.400411 103.296 
L 221.481088 100.608 
L 222.554952 97.92 
L 223.534545 97.029665 
L 227.141818 97.646721 
L 227.52757 97.92 
L 230.749091 99.823974 
L 231.674162 100.608 
L 234.356364 102.558196 
L 235.15856 103.296 
L 237.963636 105.558794 
L 238.409772 105.984 
L 241.56707 108.672 
L 241.570909 108.674983 
L 244.532005 111.36 
L 245.178182 111.884958 
L 247.547645 114.048 
L 248.785455 115.075455 
L 250.613683 116.736 
L 252.392727 118.223861 
L 253.730361 119.424 
L 256 121.31953 
L 256.898293 122.112 
L 259.607273 124.357925 
L 260.118479 124.8 
L 263.214545 127.337588 
L 263.392361 127.488 
L 266.703024 130.176 
L 266.821818 130.268605 
L 270.054677 132.864 
L 270.429091 133.152448 
L 273.482373 135.552 
L 274.036364 135.973019 
L 276.985383 138.24 
L 277.643636 138.732924 
L 280.563864 140.928 
L 281.250909 141.434675 
L 284.218391 143.616 
L 284.858182 144.080679 
L 287.949577 146.304 
L 288.465455 146.673225 
L 291.757697 148.992 
L 292.072727 149.214452 
L 295.6423 151.68 
L 295.68 151.706312 
L 299.287273 154.178639 
L 299.571814 154.368 
L 302.894545 156.618675 
L 303.563415 157.056 
L 306.501818 159.027074 
L 307.614167 159.744 
L 310.109091 161.408472 
L 311.712785 162.432 
L 313.716364 163.769012 
L 315.840457 165.12 
L 317.323636 166.117774 
L 319.966249 167.808 
L 320.930909 168.469434 
L 324.04068 170.496 
L 324.538182 170.849146 
L 327.988823 173.184 
L 328.145455 173.301694 
L 331.7071 175.872 
L 331.752727 175.909455 
L 335.071346 178.56 
L 335.36 178.83049 
L 337.963179 181.248 
L 338.967273 182.388855 
L 340.310962 183.936 
L 342.014298 186.624 
L 342.574545 188.498455 
L 342.806362 189.312 
L 342.574545 190.451851 
L 341.986251 192 
L 338.967273 193.663579 
L 335.36 194.074979 
L 331.752727 193.771287 
L 328.145455 193.121524 
L 324.538182 192.281166 
z
" clip-path="url(#pecb65987bd)" style="fill: none; stroke-dasharray: 5.55,2.4; stroke-dashoffset: 0; stroke: #000000; stroke-width: 1.5"/>
   </g>
   <g id="PathCollection_4">
    <path d="M 67.396984 41.472 
L 67.498157 44.16 
L 67.601645 46.848 
L 67.707527 49.536 
L 67.815886 52.224 
L 67.926809 54.912 
L 68.040387 57.6 
L 68.156712 60.288 
L 68.275885 62.976 
L 68.398006 65.664 
L 68.421818 66.181 
L 68.517112 68.352 
L 68.637517 71.04 
L 68.760733 73.728 
L 68.886876 76.416 
L 69.016069 79.104 
L 69.148438 81.792 
L 69.284118 84.48 
L 69.423249 87.168 
L 69.565978 89.856 
L 69.712459 92.544 
L 69.862855 95.232 
L 70.017336 97.92 
L 70.17608 100.608 
L 70.339277 103.296 
L 70.507123 105.984 
L 70.679827 108.672 
L 70.85761 111.36 
L 71.040702 114.048 
L 71.229349 116.736 
L 71.423809 119.424 
L 71.624354 122.112 
L 71.831273 124.8 
L 72.029091 127.292641 
L 72.044272 127.488 
L 72.256222 130.176 
L 72.474704 132.864 
L 72.700067 135.552 
L 72.93268 138.24 
L 73.172936 140.928 
L 73.421252 143.616 
L 73.678071 146.304 
L 73.943864 148.992 
L 74.219134 151.68 
L 74.504417 154.368 
L 74.800284 157.056 
L 75.107344 159.744 
L 75.426252 162.432 
L 75.636364 164.149357 
L 75.754796 165.12 
L 76.09067 167.808 
L 76.439401 170.496 
L 76.801822 173.184 
L 77.178824 175.872 
L 77.571369 178.56 
L 77.980489 181.248 
L 78.407297 183.936 
L 78.852993 186.624 
L 79.243636 188.886893 
L 79.317898 189.312 
L 79.798229 192 
L 80.299926 194.688 
L 80.824579 197.376 
L 81.373913 200.064 
L 81.949798 202.752 
L 82.554267 205.44 
L 82.850909 206.714049 
L 83.187786 208.128 
L 83.851162 210.816 
L 84.547961 213.504 
L 85.280946 216.192 
L 86.053131 218.88 
L 86.458182 220.23706 
L 86.868297 221.568 
L 87.727674 224.256 
L 88.633759 226.944 
L 89.590665 229.632 
L 90.065455 230.914651 
L 90.605554 232.32 
L 91.679654 235.008 
L 92.814547 237.696 
L 93.672727 239.634654 
L 94.017745 240.384 
L 95.294155 243.072 
L 96.642107 245.76 
L 97.28 246.985113 
L 98.068134 248.448 
L 99.570881 251.136 
L 100.887273 253.383216 
L 101.151346 253.824 
L 102.796353 256.512 
L 104.494545 259.164268 
L 104.517448 259.2 
L 106.260457 261.888 
L 108.067653 264.576 
L 108.101818 264.626301 
L 109.8315 267.264 
L 111.635768 269.952 
L 111.709091 270.060951 
L 113.324294 272.64 
L 115.021883 275.328 
L 115.316364 275.796721 
L 116.56939 278.016 
L 118.07449 280.704 
L 118.923636 282.240815 
L 119.480443 283.392 
L 120.749134 286.08 
L 121.985604 288.768 
L 122.530909 289.991474 
L 123.092313 291.456 
L 124.081341 294.144 
L 125.025969 296.832 
L 125.923206 299.52 
L 126.138182 300.201555 
L 126.679783 302.208 
L 127.357932 304.896 
L 127.986348 307.584 
" clip-path="url(#pecb65987bd)" style="fill: none; stroke-dasharray: 5.55,2.4; stroke-dashoffset: 0; stroke: #000000; stroke-width: 1.5"/>
    <path d="M 291.800102 41.472 
L 292.072727 41.779434 
L 294.147121 44.16 
L 295.68 45.858222 
L 296.56999 46.848 
L 299.02997 49.536 
L 299.287273 49.813094 
L 301.510847 52.224 
L 302.894545 53.685263 
L 304.061484 54.912 
L 306.501818 57.435072 
L 306.663659 57.6 
L 309.28175 60.288 
L 310.109091 61.124347 
L 311.960484 62.976 
L 313.716364 64.714419 
L 314.693569 65.664 
L 317.323636 68.213587 
L 317.470056 68.352 
L 320.267989 71.04 
L 320.930909 71.676693 
L 323.109261 73.728 
L 324.538182 75.079738 
L 325.983569 76.416 
L 328.145455 78.438133 
L 328.874401 79.104 
L 331.752727 81.782401 
L 331.763267 81.792 
L 334.605316 84.48 
L 335.36 85.20996 
L 337.401006 87.168 
L 338.967273 88.716668 
L 340.120984 89.856 
L 342.574545 92.373898 
L 342.739135 92.544 
L 345.162294 95.232 
L 346.181818 96.42444 
L 347.429985 97.92 
L 349.521834 100.608 
L 349.789091 100.99471 
L 351.315297 103.296 
L 352.912534 105.984 
L 353.396364 106.986135 
L 354.165418 108.672 
L 355.026636 111.36 
L 355.430223 114.048 
L 355.085861 116.736 
L 353.396364 119.343398 
L 353.250156 119.424 
L 349.789091 120.3923 
L 346.181818 120.085893 
L 343.875352 119.424 
L 342.574545 119.061749 
L 338.967273 117.560999 
L 337.350798 116.736 
L 335.36 115.747912 
L 332.35505 114.048 
L 331.752727 113.715805 
L 328.145455 111.492348 
L 327.949668 111.36 
L 324.538182 109.103037 
L 323.928675 108.672 
L 320.930909 106.592459 
L 320.104269 105.984 
L 317.323636 103.972174 
L 316.438275 103.296 
L 313.716364 101.248588 
L 312.906426 100.608 
L 310.109091 98.424565 
L 309.492275 97.92 
L 306.501818 95.500623 
L 306.183996 95.232 
L 302.981398 92.544 
L 302.894545 92.47172 
L 299.90578 89.856 
L 299.287273 89.321667 
L 296.908501 87.168 
L 295.68 86.067285 
L 293.98276 84.48 
L 292.072727 82.70669 
L 291.12443 81.792 
L 288.465455 79.236257 
L 288.332296 79.104 
L 285.659176 76.416 
L 284.858182 75.616726 
L 283.03841 73.728 
L 281.250909 71.881322 
L 280.462425 71.04 
L 277.958841 68.352 
L 277.643636 68.013145 
L 275.541539 65.664 
L 274.036364 63.989688 
L 273.151634 62.976 
L 270.827253 60.288 
L 270.429091 59.826411 
L 268.574907 57.6 
L 266.821818 55.4993 
L 266.343036 54.912 
L 264.195865 52.224 
L 263.214545 50.997431 
L 262.076723 49.536 
L 260.005816 46.848 
L 259.607273 46.328107 
L 257.995252 44.16 
L 256 41.474064 
L 255.998488 41.472 
" clip-path="url(#pecb65987bd)" style="fill: none; stroke-dasharray: 5.55,2.4; stroke-dashoffset: 0; stroke: #000000; stroke-width: 1.5"/>
    <path d="M 288.465455 286.151333 
L 287.645606 286.08 
L 284.858182 285.823449 
L 281.250909 285.470489 
L 277.643636 285.095219 
L 274.036364 284.696276 
L 270.429091 284.271986 
L 266.821818 283.820336 
L 263.603904 283.392 
L 263.214545 283.33635 
L 259.607273 282.800053 
L 256 282.23056 
L 252.392727 281.623093 
L 248.785455 280.970968 
L 247.389403 280.704 
L 245.178182 280.243761 
L 241.570909 279.436945 
L 237.963636 278.540589 
L 236.067935 278.016 
L 234.356364 277.493268 
L 230.749091 276.23991 
L 228.520664 275.328 
L 227.141818 274.696852 
L 223.534545 272.729203 
L 223.396932 272.64 
L 219.927273 270.090364 
L 219.769799 269.952 
L 217.071716 267.264 
L 216.32 266.396331 
L 214.967365 264.576 
L 213.256851 261.888 
L 212.712727 260.885305 
L 211.912225 259.2 
L 210.842685 256.512 
L 209.970404 253.824 
L 209.284614 251.136 
L 209.105455 250.169225 
L 208.820051 248.448 
L 208.544798 245.76 
L 208.444425 243.072 
L 208.530861 240.384 
L 208.823266 237.696 
L 209.105455 236.224024 
L 209.402186 235.008 
L 210.402026 232.32 
L 211.875545 229.632 
L 212.712727 228.495709 
L 214.565402 226.944 
L 216.32 225.844511 
L 219.927273 224.89481 
L 223.534545 224.867943 
L 227.141818 225.393079 
L 230.749091 226.240175 
L 233.144807 226.944 
L 234.356364 227.28563 
L 237.963636 228.456022 
L 241.490343 229.632 
L 241.570909 229.658062 
L 245.178182 230.913365 
L 248.785455 232.140682 
L 249.297216 232.32 
L 252.392727 233.382014 
L 256 234.585448 
L 257.263458 235.008 
L 259.607273 235.782489 
L 263.214545 236.949166 
L 265.569821 237.696 
L 266.821818 238.091983 
L 270.429091 239.221803 
L 274.036364 240.308647 
L 274.286077 240.384 
L 277.643636 241.402433 
L 281.250909 242.455128 
L 283.410605 243.072 
L 284.858182 243.492331 
L 288.465455 244.518149 
L 292.072727 245.507029 
L 293.008447 245.76 
L 295.68 246.501457 
L 299.287273 247.470763 
L 302.894545 248.409738 
L 303.04358 248.448 
L 306.501818 249.370235 
L 310.109091 250.300385 
L 313.429481 251.136 
L 313.716364 251.212367 
L 317.323636 252.155335 
L 320.930909 253.079584 
L 323.845401 253.824 
L 324.538182 254.014685 
L 328.145455 255.013126 
L 331.752727 256.040492 
L 333.32054 256.512 
L 335.36 257.189132 
L 338.967273 258.483943 
L 340.758294 259.2 
L 342.574545 260.0296 
L 346.158639 261.888 
L 346.181818 261.902389 
L 349.789091 264.455683 
L 349.937278 264.576 
L 352.550315 267.264 
L 353.396364 268.486893 
L 354.29704 269.952 
L 355.257458 272.64 
L 355.493794 275.328 
L 354.942384 278.016 
L 353.504639 280.704 
L 353.396364 280.830127 
L 350.58069 283.392 
L 349.789091 283.903468 
L 346.181818 285.62321 
L 344.8079 286.08 
L 342.574545 286.681488 
L 338.967273 287.329963 
L 335.36 287.727763 
L 331.752727 287.946895 
L 328.145455 288.040493 
L 324.538182 288.046426 
L 320.930909 287.990639 
L 317.323636 287.890151 
L 313.716364 287.755611 
L 310.109091 287.593354 
L 306.501818 287.406955 
L 302.894545 287.198302 
L 299.287273 286.968292 
L 295.68 286.717229 
L 292.072727 286.445035 
L 288.465455 286.151333 
z
" clip-path="url(#pecb65987bd)" style="fill: none; stroke-dasharray: 5.55,2.4; stroke-dashoffset: 0; stroke: #000000; stroke-width: 1.5"/>
    <path d="M 342.574545 202.889136 
L 338.967273 202.463147 
L 335.36 201.737824 
L 329.141164 200.064 
L 328.145455 199.768173 
L 320.930909 197.306734 
L 313.716364 194.513766 
L 306.501818 191.452565 
L 299.287273 188.140522 
L 292.072727 184.575333 
L 284.858182 180.719168 
L 277.643636 176.55477 
L 272.188964 173.184 
L 266.821818 169.654068 
L 260.357264 165.12 
L 256 161.848619 
L 249.994945 157.056 
L 243.797425 151.68 
L 237.963636 146.121094 
L 233.040285 140.928 
L 230.687022 138.24 
L 226.421089 132.864 
L 222.694635 127.488 
L 219.466311 122.112 
L 216.32 115.914362 
L 214.399209 111.36 
L 212.406002 105.984 
L 210.866325 100.608 
L 209.606501 95.232 
L 209.092404 92.544 
L 208.766024 89.856 
L 208.556739 87.168 
L 208.4898 84.48 
L 208.605464 81.792 
L 209.105455 78.534096 
L 210.32979 76.416 
L 212.712727 74.506725 
L 216.32 75.361237 
L 217.757259 76.416 
L 219.927273 77.762891 
L 221.33146 79.104 
L 223.534545 80.930657 
L 224.329464 81.792 
L 227.141818 84.495811 
L 232.118878 89.856 
L 234.693029 92.544 
L 239.679235 97.92 
L 252.996488 111.36 
L 261.655488 119.424 
L 271.01962 127.488 
L 277.671665 132.864 
L 284.858182 138.387266 
L 292.072727 143.637218 
L 299.819898 148.992 
L 308.015783 154.368 
L 313.716364 157.97308 
L 335.36 171.199561 
L 338.967273 173.589498 
L 342.574545 176.19771 
L 346.181818 179.175823 
L 348.379484 181.248 
L 350.809694 183.936 
L 352.771142 186.624 
L 354.229702 189.312 
L 355.149975 192 
L 355.484384 194.688 
L 355.028839 197.376 
L 353.396364 200.099564 
L 349.789091 202.150119 
L 346.181818 202.880947 
L 342.574545 202.889136 
L 342.574545 202.889136 
" clip-path="url(#pecb65987bd)" style="fill: none; stroke-dasharray: 5.55,2.4; stroke-dashoffset: 0; stroke: #000000; stroke-width: 1.5"/>
   </g>
   <g id="PathCollection_5">
    <path d="M 71.8215 41.472 
L 71.966632 44.16 
L 72.029091 45.299108 
L 72.116617 46.848 
L 72.270553 49.536 
L 72.427184 52.224 
L 72.586642 54.912 
L 72.749058 57.6 
L 72.914573 60.288 
L 73.083332 62.976 
L 73.255484 65.664 
L 73.431187 68.352 
L 73.610602 71.04 
L 73.793901 73.728 
L 73.98126 76.416 
L 74.172864 79.104 
L 74.368907 81.792 
L 74.569591 84.48 
L 74.775126 87.168 
L 74.985735 89.856 
L 75.201649 92.544 
L 75.423112 95.232 
L 75.636364 97.756265 
L 75.650745 97.92 
L 75.889521 100.608 
L 76.133525 103.296 
L 76.38306 105.984 
L 76.638441 108.672 
L 76.899998 111.36 
L 77.168076 114.048 
L 77.443039 116.736 
L 77.72527 119.424 
L 78.015169 122.112 
L 78.31316 124.8 
L 78.619688 127.488 
L 78.935225 130.176 
L 79.243636 132.728411 
L 79.260797 132.864 
L 79.60554 135.552 
L 79.959283 138.24 
L 80.322628 140.928 
L 80.696211 143.616 
L 81.080702 146.304 
L 81.476808 148.992 
L 81.88528 151.68 
L 82.306914 154.368 
L 82.742553 157.056 
L 82.850909 157.710886 
L 83.205196 159.744 
L 83.685713 162.432 
L 84.180985 165.12 
L 84.692122 167.808 
L 85.220298 170.496 
L 85.766765 173.184 
L 86.332855 175.872 
L 86.458182 176.454192 
L 86.938715 178.56 
L 87.569797 181.248 
L 88.222285 183.936 
L 88.897959 186.624 
L 89.598715 189.312 
L 90.065455 191.047599 
L 90.338712 192 
L 91.127556 194.688 
L 91.944297 197.376 
L 92.791481 200.064 
L 93.67182 202.752 
L 93.672727 202.754715 
L 94.631047 205.44 
L 95.624439 208.128 
L 96.65533 210.816 
L 97.28 212.395459 
L 97.748936 213.504 
L 98.913269 216.192 
L 100.11952 218.88 
L 100.887273 220.540057 
L 101.392571 221.568 
L 102.742654 224.256 
L 104.138133 226.944 
L 104.494545 227.615908 
L 105.613318 229.632 
L 107.141215 232.32 
L 108.101818 233.970606 
L 108.719566 235.008 
L 110.343167 237.696 
L 111.709091 239.911915 
L 111.99784 240.384 
L 113.653714 243.072 
L 115.316364 245.733467 
L 115.332247 245.76 
L 116.943219 248.448 
L 118.562188 251.136 
L 118.923636 251.735054 
L 120.087371 253.824 
L 121.578453 256.512 
L 122.530909 258.236699 
L 123.010759 259.2 
L 124.334861 261.888 
L 125.641216 264.576 
L 126.138182 265.612338 
L 126.842239 267.264 
L 127.964656 269.952 
L 129.060608 272.64 
L 129.745455 274.360843 
L 130.087129 275.328 
L 131.009591 278.016 
L 131.899939 280.704 
L 132.757035 283.392 
L 133.352727 285.335724 
L 133.556789 286.08 
L 134.26256 288.768 
L 134.932338 291.456 
L 135.565271 294.144 
L 136.160496 296.832 
L 136.717161 299.52 
L 136.96 300.777761 
L 137.2108 302.208 
L 137.64615 304.896 
L 138.043554 307.584 
" clip-path="url(#pecb65987bd)" style="fill: none; stroke: #000000; stroke-width: 1.5"/>
    <path d="M 139.833913 41.472 
L 139.845664 44.16 
L 139.817069 46.848 
L 139.741661 49.536 
L 139.611743 52.224 
L 139.418128 54.912 
L 139.149819 57.6 
L 138.793611 60.288 
L 138.333598 62.976 
L 137.750539 65.664 
L 137.021078 68.352 
L 136.96 68.546926 
L 134.774773 71.04 
L 133.352727 72.263367 
L 131.13378 71.04 
L 129.745455 70.363033 
L 128.48546 68.352 
L 126.691632 65.664 
L 126.138182 64.877114 
L 125.350675 62.976 
L 124.217839 60.288 
L 123.049668 57.6 
L 122.530909 56.436573 
L 122.04528 54.912 
L 121.188405 52.224 
L 120.32462 49.536 
L 119.448421 46.848 
L 118.923636 45.26205 
L 118.636459 44.16 
L 117.939971 41.472 
" clip-path="url(#pecb65987bd)" style="fill: none; stroke: #000000; stroke-width: 1.5"/>
    <path d="M 296.215146 41.472 
L 298.643799 44.16 
L 299.287273 44.865117 
L 301.138681 46.848 
L 302.894545 48.726366 
L 303.676658 49.536 
L 306.254899 52.224 
L 306.501818 52.480247 
L 308.910812 54.912 
L 310.109091 56.124811 
L 311.619643 57.6 
L 313.716364 59.667172 
L 314.373498 60.288 
L 317.175573 62.976 
L 317.323636 63.118728 
L 320.06142 65.664 
L 320.930909 66.482493 
L 322.998841 68.352 
L 324.538182 69.769092 
L 325.978776 71.04 
L 328.145455 72.996732 
L 328.990045 73.728 
L 331.752727 76.188984 
L 332.017638 76.416 
L 335.058465 79.104 
L 335.36 79.377823 
L 338.084209 81.792 
L 338.967273 82.60223 
L 341.047366 84.48 
L 342.574545 85.916067 
L 343.914603 87.168 
L 346.181818 89.388735 
L 346.657319 89.856 
L 349.254815 92.544 
L 349.789091 93.126702 
L 351.690078 95.232 
L 353.396364 97.246745 
L 353.955968 97.92 
L 356.023197 100.608 
L 357.003636 101.989897 
L 357.91007 103.296 
L 359.583668 105.984 
L 360.610909 107.836407 
L 361.064754 108.672 
L 362.278051 111.36 
L 363.256224 114.048 
L 363.959596 116.736 
L 364.218182 118.810964 
L 364.291905 119.424 
L 364.218182 120.879021 
L 364.133848 122.112 
L 363.165655 124.8 
L 360.875156 127.488 
L 360.610909 127.684024 
L 357.003636 128.914254 
L 353.396364 128.963349 
L 349.789091 128.290787 
L 347.388494 127.488 
L 346.181818 127.103289 
L 342.574545 125.534543 
L 341.187811 124.8 
L 338.967273 123.670319 
L 336.297907 122.112 
L 335.36 121.583141 
L 331.921223 119.424 
L 331.752727 119.321317 
L 328.145455 116.91933 
L 327.888399 116.736 
L 324.538182 114.401895 
L 324.05819 114.048 
L 320.930909 111.78589 
L 320.370153 111.36 
L 317.323636 109.080851 
L 316.800031 108.672 
L 313.716364 106.291109 
L 313.333435 105.984 
L 310.109091 103.417357 
L 309.961694 103.296 
L 306.685787 100.608 
L 306.501818 100.458044 
L 303.498295 97.92 
L 302.894545 97.411688 
L 300.38779 95.232 
L 299.287273 94.275283 
L 297.350952 92.544 
L 295.68 91.044585 
L 294.386106 89.856 
L 292.072727 87.714027 
L 291.493592 87.168 
L 288.677631 84.48 
L 288.465455 84.276647 
L 285.929101 81.792 
L 284.858182 80.732219 
L 283.23805 79.104 
L 281.250909 77.074973 
L 280.610715 76.416 
L 278.052658 73.728 
L 277.643636 73.294066 
L 275.543258 71.04 
L 274.036364 69.390812 
L 273.089344 68.352 
L 270.70277 65.664 
L 270.429091 65.352264 
L 268.353584 62.976 
L 266.821818 61.1774 
L 266.059456 60.288 
L 263.825309 57.6 
L 263.214545 56.85286 
L 261.620146 54.912 
L 259.607273 52.376687 
L 259.483668 52.224 
L 257.370923 49.536 
L 256 47.736261 
L 255.309847 46.848 
L 253.297357 44.16 
L 252.392727 42.921717 
L 251.311273 41.472 
" clip-path="url(#pecb65987bd)" style="fill: none; stroke: #000000; stroke-width: 1.5"/>
    <path d="M 364.286569 41.472 
L 364.218182 42.992111 
L 364.134724 44.16 
L 362.937972 46.848 
L 360.610909 48.820177 
L 357.003636 49.15935 
L 353.396364 48.216644 
L 350.473339 46.848 
L 349.789091 46.550861 
L 346.181818 44.342687 
L 345.94145 44.16 
L 342.574545 41.723608 
L 342.2768 41.472 
" clip-path="url(#pecb65987bd)" style="fill: none; stroke: #000000; stroke-width: 1.5"/>
    <path d="M 295.68 291.688773 
L 277.643636 290.38446 
L 259.607273 288.849462 
L 248.785455 287.781103 
L 237.963636 286.494159 
L 234.356364 285.948357 
L 230.749091 285.286459 
L 227.141818 284.445929 
L 223.534545 283.334213 
L 219.927273 281.817295 
L 216.32 279.72024 
L 212.712727 276.786537 
L 211.338201 275.328 
L 209.10474 272.64 
L 207.373367 269.952 
L 205.498182 266.527002 
L 204.630245 264.576 
L 203.579798 261.888 
L 202.669267 259.2 
L 201.88637 256.512 
L 200.750662 251.136 
L 200.02879 245.76 
L 199.710484 240.384 
L 199.708567 237.696 
L 199.819362 235.008 
L 200.052313 232.32 
L 200.420274 229.632 
L 200.940192 226.944 
L 201.890909 223.454627 
L 202.656583 221.568 
L 204.057169 218.88 
L 205.498182 216.712475 
L 206.021933 216.192 
L 209.105455 213.748962 
L 209.770521 213.504 
L 212.712727 212.591624 
L 216.32 212.517503 
L 219.927273 213.150574 
L 223.534545 214.251202 
L 228.369337 216.192 
L 234.356364 218.833453 
L 237.963636 220.496225 
L 246.278078 224.256 
L 256 228.316239 
L 263.214545 231.096779 
L 270.429091 233.689696 
L 277.643636 236.112975 
L 288.465455 239.461886 
L 299.287273 242.511689 
L 310.109091 245.301495 
L 324.538182 248.722832 
L 335.36 251.357869 
L 338.967273 252.377057 
L 343.35433 253.824 
L 346.181818 254.92617 
L 349.789091 256.604482 
L 354.067307 259.2 
L 357.416137 261.888 
L 359.931064 264.576 
L 361.803181 267.264 
L 363.128139 269.952 
L 363.964439 272.64 
L 364.299733 275.328 
L 364.127785 278.016 
L 363.390343 280.704 
L 362.033778 283.392 
L 359.895482 286.08 
L 356.566016 288.768 
L 353.396364 290.457775 
L 349.789091 291.784537 
L 346.181818 292.6318 
L 342.574545 293.157382 
L 338.967273 293.445526 
L 335.36 293.563381 
L 328.145455 293.483109 
L 317.323636 293.002329 
L 299.287273 291.926418 
L 295.68 291.688773 
L 295.68 291.688773 
" clip-path="url(#pecb65987bd)" style="fill: none; stroke: #000000; stroke-width: 1.5"/>
    <path d="M 338.967273 208.561845 
L 337.41326 208.128 
L 335.36 207.573258 
L 331.752727 206.443706 
L 328.853424 205.44 
L 328.145455 205.200539 
L 324.538182 203.877315 
L 321.630947 202.752 
L 320.930909 202.485335 
L 317.323636 201.042138 
L 314.974611 200.064 
L 313.716364 199.545492 
L 310.109091 198.007341 
L 308.681465 197.376 
L 306.501818 196.417817 
L 302.894545 194.784626 
L 302.687916 194.688 
L 299.287273 193.101242 
L 296.995506 192 
L 295.68 191.364872 
L 292.072727 189.578999 
L 291.547135 189.312 
L 288.465455 187.734777 
L 286.349608 186.624 
L 284.858182 185.830909 
L 281.373972 183.936 
L 281.250909 183.867891 
L 277.643636 181.841068 
L 276.608518 181.248 
L 274.036364 179.744599 
L 272.04376 178.56 
L 270.429091 177.576884 
L 267.667893 175.872 
L 266.821818 175.335081 
L 263.46942 173.184 
L 263.214545 173.015373 
L 259.607273 170.613079 
L 259.431936 170.496 
L 256 168.12253 
L 255.545814 167.808 
L 252.392727 165.538264 
L 251.810407 165.12 
L 248.785455 162.85325 
L 248.220264 162.432 
L 245.178182 160.057567 
L 244.773253 159.744 
L 241.570909 157.136521 
L 241.471093 157.056 
L 238.29979 154.368 
L 237.963636 154.068112 
L 235.27168 151.68 
L 234.356364 150.820397 
L 232.403127 148.992 
L 230.749091 147.344737 
L 229.705157 146.304 
L 227.183642 143.616 
L 227.141818 143.569283 
L 224.802793 140.928 
L 223.534545 139.392263 
L 222.598989 138.24 
L 220.555629 135.552 
L 219.927273 134.678244 
L 218.656198 132.864 
L 216.901057 130.176 
L 216.32 129.237536 
L 215.271554 127.488 
L 213.76489 124.8 
L 212.712727 122.806988 
L 212.358457 122.112 
L 211.064701 119.424 
L 209.854587 116.736 
L 209.105455 114.979069 
L 208.72332 114.048 
L 207.6874 111.36 
L 206.718025 108.672 
L 205.803836 105.984 
L 205.498182 105.0305 
L 204.966466 103.296 
L 204.203003 100.608 
L 203.494536 97.92 
L 202.835959 95.232 
L 202.223349 92.544 
L 201.890909 90.953465 
L 201.674717 89.856 
L 201.207474 87.168 
L 200.798181 84.48 
L 200.448426 81.792 
L 200.161749 79.104 
L 199.944137 76.416 
L 199.804769 73.728 
L 199.757157 71.04 
L 199.820917 68.352 
L 200.024562 65.664 
L 200.410062 62.976 
L 201.040577 60.288 
L 201.890909 57.903677 
L 202.151753 57.6 
L 205.498182 55.213191 
L 209.105455 56.11005 
L 211.125879 57.6 
L 212.712727 58.610346 
L 214.372506 60.288 
L 216.32 62.034555 
L 217.113239 62.976 
L 219.579859 65.664 
L 219.927273 66.012816 
L 221.811052 68.352 
L 223.534545 70.310004 
L 224.091561 71.04 
L 226.250648 73.728 
L 227.141818 74.762244 
L 228.414222 76.416 
L 230.620715 79.104 
L 230.749091 79.252775 
L 232.748199 81.792 
L 234.356364 83.705884 
L 234.967931 84.48 
L 237.17907 87.168 
L 237.963636 88.072242 
L 239.433145 89.856 
L 241.570909 92.317762 
L 241.760936 92.544 
L 244.087184 95.232 
L 245.178182 96.430784 
L 246.493589 97.92 
L 248.785455 100.402049 
L 248.972262 100.608 
L 251.478498 103.296 
L 252.392727 104.235048 
L 254.065707 105.984 
L 256 107.929263 
L 256.731775 108.672 
L 259.465362 111.36 
L 259.607273 111.495191 
L 262.259986 114.048 
L 263.214545 114.935549 
L 265.143741 116.736 
L 266.821818 118.256034 
L 268.113471 119.424 
L 270.429091 121.464328 
L 271.168894 122.112 
L 274.036364 124.566581 
L 274.311916 124.8 
L 277.545598 127.488 
L 277.643636 127.567837 
L 280.877117 130.176 
L 281.250909 130.47189 
L 284.312902 132.864 
L 284.858182 133.2834 
L 287.856626 135.552 
L 288.465455 136.006926 
L 291.512686 138.24 
L 292.072727 138.646582 
L 295.285906 140.928 
L 295.68 141.206089 
L 299.18127 143.616 
L 299.287273 143.688756 
L 302.894545 146.097906 
L 303.212448 146.304 
L 306.501818 148.437983 
L 307.383122 148.992 
L 310.109091 150.712722 
L 311.692902 151.68 
L 313.716364 152.925791 
L 316.14013 154.368 
L 317.323636 155.081164 
L 320.715432 157.056 
L 320.930909 157.183726 
L 324.538182 159.24395 
L 325.437963 159.744 
L 328.145455 161.28097 
L 330.213101 162.432 
L 331.752727 163.313542 
L 334.938453 165.12 
L 335.36 165.367851 
L 338.967273 167.485616 
L 339.505243 167.808 
L 342.574545 169.726939 
L 343.757618 170.496 
L 346.181818 172.158542 
L 347.602317 173.184 
L 349.789091 174.871427 
L 351.011325 175.872 
L 353.396364 177.991489 
L 353.998166 178.56 
L 356.576921 181.248 
L 357.003636 181.750312 
L 358.763425 183.936 
L 360.610909 186.603403 
L 360.624563 186.624 
L 362.082524 189.312 
L 363.204606 192 
L 363.963997 194.688 
L 364.218182 196.729056 
L 364.296398 197.376 
L 364.218182 198.770806 
L 364.131467 200.064 
L 363.302435 202.752 
L 361.606702 205.44 
L 360.610909 206.460336 
L 358.146438 208.128 
L 357.003636 208.703441 
L 353.396364 209.710387 
L 349.789091 210.031429 
L 346.181818 209.865114 
L 342.574545 209.345374 
L 338.967273 208.561845 
z
" clip-path="url(#pecb65987bd)" style="fill: none; stroke: #000000; stroke-width: 1.5"/>
   </g>
   <g id="PathCollection_6">
    <path d="M 76.371104 41.472 
L 76.571642 44.16 
L 76.774684 46.848 
L 76.980413 49.536 
L 77.189017 52.224 
L 77.40069 54.912 
L 77.615628 57.6 
L 77.834034 60.288 
L 78.056116 62.976 
L 78.282089 65.664 
L 78.512174 68.352 
L 78.746599 71.04 
L 78.985603 73.728 
L 79.229429 76.416 
L 79.243636 76.570581 
L 79.504675 79.104 
L 79.784859 81.792 
L 80.068654 84.48 
L 80.356411 87.168 
L 80.64849 89.856 
L 80.945256 92.544 
L 81.247085 95.232 
L 81.554362 97.92 
L 81.867487 100.608 
L 82.18687 103.296 
L 82.512935 105.984 
L 82.846126 108.672 
L 82.850909 108.710046 
L 83.22378 111.36 
L 83.607152 114.048 
L 83.996308 116.736 
L 84.391881 119.424 
L 84.794518 122.112 
L 85.204882 124.8 
L 85.623655 127.488 
L 86.051543 130.176 
L 86.458182 132.674486 
L 86.492884 132.864 
L 86.990347 135.552 
L 87.495277 138.24 
L 88.008704 140.928 
L 88.531675 143.616 
L 89.065262 146.304 
L 89.610567 148.992 
L 90.065455 151.185871 
L 90.180902 151.68 
L 90.816275 154.368 
L 91.461654 157.056 
L 92.11864 159.744 
L 92.788855 162.432 
L 93.47396 165.12 
L 93.672727 165.885679 
L 94.234537 167.808 
L 95.030803 170.496 
L 95.840453 173.184 
L 96.665844 175.872 
L 97.28 177.832396 
L 97.537187 178.56 
L 98.498066 181.248 
L 99.472549 183.936 
L 100.46392 186.624 
L 100.887273 187.752174 
L 101.54354 189.312 
L 102.685658 192 
L 103.842206 194.688 
L 104.494545 196.18147 
L 105.073169 197.376 
L 106.384549 200.064 
L 107.706807 202.752 
L 108.101818 203.545114 
L 109.124395 205.44 
L 110.578717 208.128 
L 111.709091 210.205508 
L 112.058706 210.816 
L 113.601723 213.504 
L 115.140597 216.192 
L 115.316364 216.49674 
L 116.701565 218.88 
L 118.252545 221.568 
L 118.923636 222.729943 
L 119.778 224.256 
L 121.273234 226.944 
L 122.530909 229.222708 
L 122.742936 229.632 
L 124.132791 232.32 
L 125.503769 235.008 
L 126.138182 236.25759 
L 126.808428 237.696 
L 128.049148 240.384 
L 129.271004 243.072 
L 129.745455 244.122742 
L 130.418931 245.76 
L 131.509787 248.448 
L 132.580177 251.136 
L 133.352727 253.10637 
L 133.61041 253.824 
L 134.56272 256.512 
L 135.491842 259.2 
L 136.397745 261.888 
L 136.96 263.593578 
L 137.260544 264.576 
L 138.063698 267.264 
L 138.840123 269.952 
L 139.589447 272.64 
L 140.311203 275.328 
L 140.567273 276.313612 
L 140.985381 278.016 
L 141.618406 280.704 
L 142.220848 283.392 
L 142.792422 286.08 
L 143.332823 288.768 
L 143.841735 291.456 
L 144.174545 293.325474 
L 144.315464 294.144 
L 144.749074 296.832 
L 145.149835 299.52 
L 145.517835 302.208 
L 145.853166 304.896 
L 146.155928 307.584 
" clip-path="url(#pecb65987bd)" style="fill: none; stroke: #000000; stroke-width: 1.5"/>
    <path d="M 146.416807 41.472 
L 146.603857 44.16 
L 146.775553 46.848 
L 146.930711 49.536 
L 147.06795 52.224 
L 147.185668 54.912 
L 147.282024 57.6 
L 147.354907 60.288 
L 147.40191 62.976 
L 147.420296 65.664 
L 147.406961 68.352 
L 147.358396 71.04 
L 147.27064 73.728 
L 147.139237 76.416 
L 146.959184 79.104 
L 146.724878 81.792 
L 146.430067 84.48 
L 146.067799 87.168 
L 145.630377 89.856 
L 145.109325 92.544 
L 144.495372 95.232 
L 144.174545 96.469161 
L 143.584941 97.92 
L 142.316261 100.608 
L 140.81021 103.296 
L 140.567273 103.687771 
L 136.96 105.715936 
L 133.352727 104.495178 
L 132.253069 103.296 
L 129.75597 100.608 
L 129.745455 100.596875 
L 128.219422 97.92 
L 126.703819 95.232 
L 126.138182 94.231085 
L 125.428943 92.544 
L 124.316957 89.856 
L 123.22393 87.168 
L 122.530909 85.453025 
L 122.20506 84.48 
L 121.316857 81.792 
L 120.44932 79.104 
L 119.597691 76.416 
L 118.923636 74.265582 
L 118.774102 73.728 
L 118.034224 71.04 
L 117.313528 68.352 
L 116.608697 65.664 
L 115.916623 62.976 
L 115.316364 60.615223 
L 115.238907 60.288 
L 114.608447 57.6 
L 113.995087 54.912 
L 113.396377 52.224 
L 112.810034 49.536 
L 112.233907 46.848 
L 111.709091 44.366871 
L 111.666871 44.16 
L 111.123021 41.472 
" clip-path="url(#pecb65987bd)" style="fill: none; stroke: #000000; stroke-width: 1.5"/>
    <path d="M 209.152845 41.472 
L 213.792705 46.848 
L 216.32 50.00501 
L 239.226381 81.792 
L 243.452765 87.168 
L 248.785455 93.583067 
L 252.57674 97.92 
L 257.546528 103.296 
L 263.214545 109.087163 
L 268.391119 114.048 
L 274.320628 119.424 
L 281.250909 125.283138 
L 288.465455 130.954201 
L 295.68 136.233801 
L 302.894545 141.154736 
L 310.109091 145.717304 
L 317.323636 149.969371 
L 325.32855 154.368 
L 342.574545 163.526899 
L 346.181818 165.687834 
L 349.789091 168.065846 
L 353.396364 170.733874 
L 357.003636 173.784732 
L 360.610909 177.342529 
L 361.722704 178.56 
L 364.218182 181.601657 
L 365.912175 183.936 
L 367.825455 187.05781 
L 369.018184 189.312 
L 370.159399 192 
L 371.019167 194.688 
L 371.584403 197.376 
L 371.820454 200.064 
L 371.691474 202.752 
L 371.128007 205.44 
L 370.006789 208.128 
L 367.825455 211.238122 
L 365.153017 213.504 
L 364.218182 214.136968 
L 360.610909 215.784161 
L 357.003636 216.670676 
L 353.396364 216.989569 
L 349.789091 216.849843 
L 345.604414 216.192 
L 342.574545 215.540431 
L 338.967273 214.524932 
L 331.752727 212.025499 
L 320.930909 207.67198 
L 310.109091 202.994584 
L 295.68 196.341398 
L 284.858182 190.948395 
L 274.036364 185.146543 
L 266.821818 181.007929 
L 258.321043 175.872 
L 249.994884 170.496 
L 241.570909 164.649284 
L 234.983405 159.744 
L 228.462352 154.368 
L 225.533305 151.68 
L 222.851911 148.992 
L 219.927273 145.769983 
L 218.110701 143.616 
L 216.067575 140.928 
L 214.163486 138.24 
L 210.832775 132.864 
L 207.983869 127.488 
L 205.498182 122.053407 
L 203.340591 116.736 
L 201.426864 111.36 
L 199.722731 105.984 
L 198.222547 100.608 
L 196.87872 95.232 
L 195.716132 89.856 
L 194.25285 81.792 
L 193.480103 76.416 
L 192.876467 71.04 
L 192.448167 65.664 
L 192.218934 60.288 
L 192.238376 54.912 
L 192.598637 49.536 
L 192.95473 46.848 
L 193.468399 44.16 
L 194.184554 41.472 
L 194.184554 41.472 
" clip-path="url(#pecb65987bd)" style="fill: none; stroke: #000000; stroke-width: 1.5"/>
    <path d="M 300.77086 41.472 
L 302.894545 43.778033 
L 303.270613 44.16 
L 305.866125 46.848 
L 306.501818 47.513855 
L 308.547029 49.536 
L 310.109091 51.122958 
L 311.266721 52.224 
L 313.716364 54.632766 
L 314.02189 54.912 
L 316.887028 57.6 
L 317.323636 58.017095 
L 319.852927 60.288 
L 320.930909 61.286408 
L 322.879237 62.976 
L 324.538182 64.466605 
L 325.963418 65.664 
L 328.145455 67.570923 
L 329.099657 68.352 
L 331.752727 70.61909 
L 332.275648 71.04 
L 335.36 73.640251 
L 335.469405 73.728 
L 338.6926 76.416 
L 338.967273 76.654253 
L 341.87522 79.104 
L 342.574545 79.72161 
L 344.956558 81.792 
L 346.181818 82.913501 
L 347.897609 84.48 
L 349.789091 86.307822 
L 350.671595 87.168 
L 353.272415 89.856 
L 353.396364 89.98874 
L 355.749085 92.544 
L 357.003636 94.005818 
L 358.041568 95.232 
L 360.164436 97.92 
L 360.610909 98.519838 
L 362.153417 100.608 
L 363.963325 103.296 
L 364.218182 103.70596 
L 365.638666 105.984 
L 367.130532 108.672 
L 367.825455 110.086727 
L 368.462368 111.36 
L 369.599134 114.048 
L 370.527741 116.736 
L 371.237588 119.424 
L 371.432727 120.612246 
L 371.685303 122.112 
L 371.816666 124.8 
L 371.570469 127.488 
L 371.432727 128.041147 
L 370.758661 130.176 
L 369.12196 132.864 
L 367.825455 134.221826 
L 365.675697 135.552 
L 364.218182 136.239152 
L 360.610909 136.960092 
L 357.003636 136.898283 
L 353.396364 136.241681 
L 351.284246 135.552 
L 349.789091 135.098613 
L 346.181818 133.5787 
L 344.836908 132.864 
L 342.574545 131.734748 
L 339.945112 130.176 
L 338.967273 129.626429 
L 335.62936 127.488 
L 335.36 127.32306 
L 331.752727 124.880741 
L 331.642449 124.8 
L 328.145455 122.331655 
L 327.853723 122.112 
L 324.538182 119.688292 
L 324.195111 119.424 
L 320.930909 116.96664 
L 320.63751 116.736 
L 317.323636 114.174734 
L 317.165461 114.048 
L 313.770345 111.36 
L 313.716364 111.317814 
L 310.442641 108.672 
L 310.109091 108.404045 
L 307.181985 105.984 
L 306.501818 105.422402 
L 303.987549 103.296 
L 302.894545 102.368367 
L 300.859523 100.608 
L 299.287273 99.236252 
L 297.799185 97.92 
L 295.68 96.019153 
L 294.809244 95.232 
L 292.072727 92.708623 
L 291.894401 92.544 
L 289.023064 89.856 
L 288.465455 89.325562 
L 286.203693 87.168 
L 284.858182 85.85065 
L 283.451404 84.48 
L 281.250909 82.26374 
L 280.776077 81.792 
L 278.147218 79.104 
L 277.643636 78.578161 
L 275.54798 76.416 
L 274.036364 74.792213 
L 273.022978 73.728 
L 270.578859 71.04 
L 270.429091 70.872824 
L 268.121778 68.352 
L 266.821818 66.860152 
L 265.7428 65.664 
L 263.446446 62.976 
L 263.214545 62.699095 
L 261.124326 60.288 
L 259.607273 58.427916 
L 258.896602 57.6 
L 256.706095 54.912 
L 256 54.010639 
L 254.524451 52.224 
L 252.465162 49.536 
L 252.392727 49.439689 
L 250.332629 46.848 
L 248.785455 44.739689 
L 248.325575 44.16 
L 246.303616 41.472 
" clip-path="url(#pecb65987bd)" style="fill: none; stroke: #000000; stroke-width: 1.5"/>
    <path d="M 370.806797 41.472 
L 371.411037 44.16 
L 371.432727 44.33252 
L 371.750213 46.848 
L 371.779699 49.536 
L 371.432727 52.016442 
L 371.392194 52.224 
L 370.118975 54.912 
L 367.825455 57.256038 
L 366.921664 57.6 
L 364.218182 58.341372 
L 360.610909 58.138995 
L 358.777652 57.6 
L 357.003636 57.118883 
L 353.396364 55.493485 
L 352.447176 54.912 
L 349.789091 53.366488 
L 348.209421 52.224 
L 346.181818 50.817177 
L 344.612706 49.536 
L 342.574545 47.922741 
L 341.371858 46.848 
L 338.967273 44.74291 
L 338.357874 44.16 
L 335.512764 41.472 
" clip-path="url(#pecb65987bd)" style="fill: none; stroke: #000000; stroke-width: 1.5"/>
    <path d="M 299.287273 296.867653 
L 298.718492 296.832 
L 295.68 296.650586 
L 292.072727 296.442184 
L 288.465455 296.240321 
L 284.858182 296.044965 
L 281.250909 295.856267 
L 277.643636 295.674579 
L 274.036364 295.500467 
L 270.429091 295.334739 
L 266.821818 295.178478 
L 263.214545 295.033073 
L 259.607273 294.900231 
L 256 294.781903 
L 252.392727 294.680034 
L 248.785455 294.595982 
L 245.178182 294.529425 
L 241.570909 294.476521 
L 237.963636 294.427137 
L 234.356364 294.360951 
L 230.749091 294.242382 
L 229.127955 294.144 
L 227.141818 294.020695 
L 223.534545 293.618418 
L 219.927273 292.914472 
L 216.32 291.749136 
L 215.695879 291.456 
L 212.712727 289.968244 
L 211.002467 288.768 
L 209.105455 287.326591 
L 207.835687 286.08 
L 205.498182 283.547753 
L 205.379648 283.392 
L 203.457411 280.704 
L 201.890909 278.22895 
L 201.772577 278.016 
L 200.375084 275.328 
L 199.13141 272.64 
L 198.283636 270.600442 
L 198.033241 269.952 
L 197.080553 267.264 
L 196.23376 264.576 
L 195.483337 261.888 
L 194.821046 259.2 
L 194.676364 258.539691 
L 194.242017 256.512 
L 193.741023 253.824 
L 193.313112 251.136 
L 192.954724 248.448 
L 192.663267 245.76 
L 192.437109 243.072 
L 192.275586 240.384 
L 192.179026 237.696 
L 192.148804 235.008 
L 192.187407 232.32 
L 192.298547 229.632 
L 192.487289 226.944 
L 192.760231 224.256 
L 193.125719 221.568 
L 193.59411 218.88 
L 194.178092 216.192 
L 194.676364 214.291558 
L 194.916723 213.504 
L 195.889638 210.816 
L 197.082027 208.128 
L 198.283636 205.876154 
L 198.598111 205.44 
L 200.864699 202.752 
L 201.890909 201.71924 
L 204.771499 200.064 
L 205.498182 199.695111 
L 209.105455 199.058245 
L 212.712727 199.413671 
L 214.812412 200.064 
L 216.32 200.488367 
L 219.927273 202.058453 
L 221.173294 202.752 
L 223.534545 203.958563 
L 226.020832 205.44 
L 227.141818 206.055847 
L 230.549567 208.128 
L 230.749091 208.24033 
L 234.356364 210.417632 
L 234.990108 210.816 
L 237.963636 212.553922 
L 239.555509 213.504 
L 241.570909 214.6266 
L 244.360632 216.192 
L 245.178182 216.62191 
L 248.785455 218.518878 
L 249.474027 218.88 
L 252.392727 220.318059 
L 254.959582 221.568 
L 256 222.046343 
L 259.607273 223.682383 
L 260.887848 224.256 
L 263.214545 225.242524 
L 266.821818 226.743358 
L 267.311122 226.944 
L 270.429091 228.157449 
L 274.036364 229.532829 
L 274.301391 229.632 
L 277.643636 230.822748 
L 281.250909 232.08 
L 281.955147 232.32 
L 284.858182 233.26582 
L 288.465455 234.411234 
L 290.388988 235.008 
L 292.072727 235.510062 
L 295.68 236.549974 
L 299.287273 237.5677 
L 299.75949 237.696 
L 302.894545 238.515798 
L 306.501818 239.428281 
L 310.109091 240.319708 
L 310.38292 240.384 
L 313.716364 241.139651 
L 317.323636 241.928391 
L 320.930909 242.698737 
L 322.736715 243.072 
L 324.538182 243.433724 
L 328.145455 244.136243 
L 331.752727 244.852883 
L 335.36 245.618332 
L 335.985972 245.76 
L 338.967273 246.418734 
L 342.574545 247.338403 
L 346.118733 248.448 
L 346.181818 248.467721 
L 349.789091 249.793947 
L 352.67731 251.136 
L 353.396364 251.479055 
L 357.003636 253.55823 
L 357.392453 253.824 
L 360.610909 256.164101 
L 361.024878 256.512 
L 363.935443 259.2 
L 364.218182 259.497244 
L 366.282655 261.888 
L 367.825455 264.0493 
L 368.179056 264.576 
L 369.646191 267.264 
L 370.727871 269.952 
L 371.432727 272.606776 
L 371.441475 272.64 
L 371.791229 275.328 
L 371.771227 278.016 
L 371.432727 280.277315 
L 371.366449 280.704 
L 370.539464 283.392 
L 369.247995 286.08 
L 367.825455 288.2194 
L 367.412688 288.768 
L 364.868708 291.456 
L 364.218182 292.034819 
L 361.329039 294.144 
L 360.610909 294.612088 
L 357.003636 296.440277 
L 355.941961 296.832 
L 353.396364 297.737166 
L 349.789091 298.594019 
L 346.181818 299.099967 
L 342.574545 299.341275 
L 338.967273 299.39004 
L 335.36 299.304936 
L 331.752727 299.132014 
L 328.145455 298.90587 
L 324.538182 298.65118 
L 320.930909 298.384484 
L 317.323636 298.11606 
L 313.716364 297.85167 
L 310.109091 297.594083 
L 306.501818 297.344266 
L 302.894545 297.102243 
L 299.287273 296.867653 
z
" clip-path="url(#pecb65987bd)" style="fill: none; stroke: #000000; stroke-width: 1.5"/>
   </g>
   <g id="PathCollection_7">
    <path d="M 409.86696 307.584 
L 410.919243 304.896 
L 411.112727 304.534177 
L 412.379147 302.208 
L 414.396004 299.52 
L 414.72 299.16201 
" clip-path="url(#pecb65987bd)" style="fill: none; stroke: #000000; stroke-width: 1.5"/>
    <path d="M 414.72 261.362503 
L 413.125326 259.2 
L 411.593139 256.512 
L 411.112727 255.400487 
L 410.408534 253.824 
L 409.574882 251.136 
L 409.091234 248.448 
L 408.938229 245.76 
L 409.125445 243.072 
L 409.694001 240.384 
L 410.723449 237.696 
L 411.112727 236.992667 
L 412.314627 235.008 
L 414.672687 232.32 
L 414.72 232.275776 
" clip-path="url(#pecb65987bd)" style="fill: none; stroke: #000000; stroke-width: 1.5"/>
    <path d="M 414.72 194.488588 
L 413.099153 192 
L 411.710735 189.312 
L 411.112727 187.837138 
L 410.586108 186.624 
L 409.732891 183.936 
L 409.191234 181.248 
L 408.955139 178.56 
L 409.048497 175.872 
L 409.531678 173.184 
L 410.514935 170.496 
L 411.112727 169.44335 
L 412.234244 167.808 
L 414.72 165.402569 
" clip-path="url(#pecb65987bd)" style="fill: none; stroke: #000000; stroke-width: 1.5"/>
    <path d="M 414.72 127.61189 
L 414.638809 127.488 
L 413.080392 124.8 
L 411.8124 122.112 
L 411.112727 120.283823 
L 410.751917 119.424 
L 409.893866 116.736 
L 409.309791 114.048 
L 409.001373 111.36 
L 409.001976 108.672 
L 409.387643 105.984 
L 410.299506 103.296 
L 411.112727 101.884735 
L 412.128963 100.608 
L 414.72 98.527672 
" clip-path="url(#pecb65987bd)" style="fill: none; stroke: #000000; stroke-width: 1.5"/>
    <path d="M 414.72 60.725642 
L 414.462713 60.288 
L 413.067048 57.6 
L 411.901683 54.912 
L 411.112727 52.738965 
L 410.904581 52.224 
L 410.052887 49.536 
L 409.440991 46.848 
L 409.073351 44.16 
L 408.987455 41.472 
" clip-path="url(#pecb65987bd)" style="fill: none; stroke: #000000; stroke-width: 1.5"/>
    <path d="M 81.762056 41.472 
L 82.006745 44.16 
L 82.253484 46.848 
L 82.502572 49.536 
L 82.754306 52.224 
L 82.850909 53.242742 
L 83.05574 54.912 
L 83.384322 57.6 
L 83.710879 60.288 
L 84.036145 62.976 
L 84.360808 65.664 
L 84.685521 68.352 
L 85.010907 71.04 
L 85.337564 73.728 
L 85.66607 76.416 
L 85.996985 79.104 
L 86.330858 81.792 
L 86.458182 82.804429 
L 86.728797 84.48 
L 87.160645 87.168 
L 87.589093 89.856 
L 88.015403 92.544 
L 88.44075 95.232 
L 88.866234 97.92 
L 89.292899 100.608 
L 89.721739 103.296 
L 90.065455 105.432148 
L 90.179892 105.984 
L 90.736655 108.672 
L 91.28642 111.36 
L 91.831393 114.048 
L 92.373582 116.736 
L 92.914836 119.424 
L 93.456876 122.112 
L 93.672727 123.171867 
L 94.099142 124.8 
L 94.794952 127.488 
L 95.47978 130.176 
L 96.157129 132.864 
L 96.830135 135.552 
L 97.28 137.344445 
L 97.57155 138.24 
L 98.437213 140.928 
L 99.281644 143.616 
L 100.110828 146.304 
L 100.887273 148.8492 
L 100.944269 148.992 
L 102.008897 151.68 
L 103.034164 154.368 
L 104.030432 157.056 
L 104.494545 158.316166 
L 105.174488 159.744 
L 106.411848 162.432 
L 107.594038 165.12 
L 108.101818 166.291022 
L 108.936676 167.808 
L 110.348536 170.496 
L 111.680048 173.184 
L 111.709091 173.242699 
L 113.28051 175.872 
L 114.765155 178.56 
L 115.316364 179.586649 
L 116.331439 181.248 
L 117.877003 183.936 
L 118.923636 185.857748 
L 119.362664 186.624 
L 120.856942 189.312 
L 122.251019 192 
L 122.530909 192.544308 
L 123.605699 194.688 
L 124.895113 197.376 
L 126.127329 200.064 
L 126.138182 200.08737 
L 127.292962 202.752 
L 128.41879 205.44 
L 129.514195 208.128 
L 129.745455 208.689764 
L 130.550235 210.816 
L 131.555847 213.504 
L 132.544581 216.192 
L 133.352727 218.406885 
L 133.512354 218.88 
L 134.432325 221.568 
L 135.340552 224.256 
L 136.238238 226.944 
L 136.96 229.1176 
L 137.121037 229.632 
L 137.970342 232.32 
L 138.808022 235.008 
L 139.634114 237.696 
L 140.448554 240.384 
L 140.567273 240.77435 
L 141.242854 243.072 
L 142.020058 245.76 
L 142.780934 248.448 
L 143.525068 251.136 
L 144.174545 253.532429 
L 144.253268 253.824 
L 144.971543 256.512 
L 145.666899 259.2 
L 146.339045 261.888 
L 146.987689 264.576 
L 147.612539 267.264 
L 147.781818 268.011685 
L 148.231582 269.952 
L 148.828529 272.64 
L 149.395783 275.328 
L 149.933588 278.016 
L 150.442184 280.704 
L 150.921805 283.392 
L 151.372678 286.08 
L 151.389091 286.182902 
L 151.822268 288.768 
L 152.239817 291.456 
L 152.625045 294.144 
L 152.978779 296.832 
L 153.301788 299.52 
L 153.594787 302.208 
L 153.858435 304.896 
L 154.093345 307.584 
" clip-path="url(#pecb65987bd)" style="fill: none; stroke: #000000; stroke-width: 1.5"/>
    <path d="M 152.515553 41.472 
L 152.785499 44.16 
L 153.041449 46.848 
L 153.283504 49.536 
L 153.511652 52.224 
L 153.72577 54.912 
L 153.925618 57.6 
L 154.110845 60.288 
L 154.280977 62.976 
L 154.435419 65.664 
L 154.573445 68.352 
L 154.694189 71.04 
L 154.796641 73.728 
L 154.879631 76.416 
L 154.94182 79.104 
L 154.981687 81.792 
L 154.996364 84.289673 
L 154.997535 84.48 
L 154.996364 84.790967 
L 154.987355 87.168 
L 154.949048 89.856 
L 154.880168 92.544 
L 154.778015 95.232 
L 154.639594 97.92 
L 154.461591 100.608 
L 154.24035 103.296 
L 153.971855 105.984 
L 153.65171 108.672 
L 153.275128 111.36 
L 152.836925 114.048 
L 152.331527 116.736 
L 151.75299 119.424 
L 151.389091 120.941045 
L 151.042227 122.112 
L 150.161358 124.8 
L 149.168087 127.488 
L 148.057455 130.176 
L 147.781818 130.800729 
L 146.491711 132.864 
L 144.677494 135.552 
L 144.174545 136.266676 
L 141.77058 138.24 
L 140.567273 139.228545 
L 136.96 140.193488 
L 133.352727 139.200422 
L 132.192988 138.24 
L 129.745455 136.031867 
L 129.40826 135.552 
L 127.612939 132.864 
L 126.138182 130.408019 
L 126.026554 130.176 
L 124.762044 127.488 
L 123.604695 124.8 
L 122.530909 122.114873 
L 122.529864 122.112 
L 121.557189 119.424 
L 120.651821 116.736 
L 119.800607 114.048 
L 118.993219 111.36 
L 118.923636 111.128885 
L 118.199576 108.672 
L 117.450298 105.984 
L 116.740413 103.296 
L 116.063429 100.608 
L 115.413986 97.92 
L 115.316364 97.51674 
L 114.744227 95.232 
L 114.101679 92.544 
L 113.490221 89.856 
L 112.905328 87.168 
L 112.34318 84.48 
L 111.800513 81.792 
L 111.709091 81.339821 
L 111.221815 79.104 
L 110.660546 76.416 
L 110.125076 73.728 
L 109.612013 71.04 
L 109.11845 68.352 
L 108.641872 65.664 
L 108.180077 62.976 
L 108.101818 62.520762 
L 107.6742 60.288 
L 107.180231 57.6 
L 106.708234 54.912 
L 106.255558 52.224 
L 105.819904 49.536 
L 105.399265 46.848 
L 104.99187 44.16 
L 104.596146 41.472 
" clip-path="url(#pecb65987bd)" style="fill: none; stroke: #000000; stroke-width: 1.5"/>
    <path d="M 220.330065 41.472 
L 225.056469 49.536 
L 228.190463 54.912 
L 233.060183 62.976 
L 234.715806 65.664 
L 241.884242 76.416 
L 247.828931 84.48 
L 252.058293 89.856 
L 256 94.54213 
L 261.459328 100.608 
L 266.571703 105.984 
L 270.429091 109.756815 
L 278.021257 116.736 
L 284.396465 122.112 
L 288.465455 125.333813 
L 295.68 130.680345 
L 302.894545 135.600061 
L 310.109091 140.020212 
L 317.323636 144.072752 
L 321.696756 146.304 
L 328.145455 149.355482 
L 342.574545 155.614376 
L 346.181818 157.480625 
L 349.944998 159.744 
L 353.782934 162.432 
L 357.068468 165.12 
L 360.610909 168.36784 
L 364.218182 172.124898 
L 367.825455 176.38166 
L 369.541148 178.56 
L 373.219461 183.936 
L 375.04 187.234123 
L 376.117685 189.312 
L 377.251345 192 
L 378.134647 194.688 
L 378.795059 197.376 
L 379.23833 200.064 
L 379.406509 202.752 
L 379.284282 205.44 
L 378.647273 208.775349 
L 378.024497 210.816 
L 376.750933 213.504 
L 374.886924 216.192 
L 371.432727 219.537868 
L 367.825455 221.909882 
L 364.218182 223.603061 
L 360.610909 224.760928 
L 357.003636 225.46185 
L 353.396364 225.653943 
L 349.789091 225.351221 
L 345.420983 224.256 
L 342.574545 223.443838 
L 335.36 220.498957 
L 326.217619 216.192 
L 324.538182 215.451911 
L 313.716364 210.362596 
L 295.68 201.90231 
L 275.67678 192 
L 266.821818 187.374896 
L 255.543818 181.248 
L 245.178182 175.488879 
L 230.749091 167.323524 
L 227.141818 165.091637 
L 223.179985 162.432 
L 219.799685 159.744 
L 216.32 156.438115 
L 214.47283 154.368 
L 212.414137 151.68 
L 210.538611 148.992 
L 207.356987 143.616 
L 204.65661 138.24 
L 202.287042 132.864 
L 200.124827 127.488 
L 197.287582 119.424 
L 195.599197 114.048 
L 192.609749 103.296 
L 190.733812 95.232 
L 189.570908 89.856 
L 188.11432 81.792 
L 186.503531 71.04 
L 185.598656 62.976 
L 184.97437 54.912 
L 184.638807 46.848 
L 184.603451 41.472 
L 184.603451 41.472 
" clip-path="url(#pecb65987bd)" style="fill: none; stroke: #000000; stroke-width: 1.5"/>
    <path d="M 306.093482 41.472 
L 306.501818 41.903674 
L 317.434249 52.224 
L 324.538182 58.201089 
L 335.36 66.464211 
L 341.588158 71.04 
L 348.252878 76.416 
L 351.173809 79.104 
L 353.813392 81.792 
L 357.003636 85.232704 
L 358.688581 87.168 
L 362.977247 92.544 
L 366.859459 97.92 
L 370.366333 103.296 
L 373.452854 108.672 
L 376.0082 114.048 
L 377.067228 116.736 
L 377.928481 119.424 
L 378.647273 122.383675 
L 379.10785 124.8 
L 379.369364 127.488 
L 379.358285 130.176 
L 379.028615 132.864 
L 378.293327 135.552 
L 376.983498 138.24 
L 374.862892 140.928 
L 371.015574 143.616 
L 367.825455 144.929179 
L 364.218182 145.704345 
L 360.610909 145.925538 
L 357.003636 145.665504 
L 353.396364 144.907477 
L 349.789091 143.524099 
L 346.181818 141.818669 
L 344.802064 140.928 
L 342.574545 139.647346 
L 333.283 132.864 
L 329.831577 130.176 
L 324.538182 125.990176 
L 302.894545 107.944461 
L 294.586935 100.608 
L 283.0703 89.856 
L 272.331286 79.104 
L 259.607273 65.238642 
L 257.525334 62.976 
L 252.392727 56.900336 
L 250.613778 54.912 
L 248.468371 52.224 
L 244.000972 46.848 
L 241.570909 43.650378 
L 239.708257 41.472 
L 239.708257 41.472 
" clip-path="url(#pecb65987bd)" style="fill: none; stroke: #000000; stroke-width: 1.5"/>
    <path d="M 376.903196 41.472 
L 377.733816 44.16 
L 378.414906 46.848 
L 378.647273 48.073675 
L 378.955185 49.536 
L 379.29384 52.224 
L 379.385485 54.912 
L 379.179023 57.6 
L 378.647273 60.033029 
L 378.577861 60.288 
L 377.261747 62.976 
L 375.04 65.519226 
L 374.814717 65.664 
L 371.432727 67.322226 
L 367.825455 67.925693 
L 364.218182 67.805534 
L 360.610909 67.132058 
L 357.003636 65.860814 
L 356.603188 65.664 
L 353.396364 64.159861 
L 351.564367 62.976 
L 349.789091 61.862568 
L 347.772469 60.288 
L 346.181818 59.06219 
L 344.548277 57.6 
L 342.574545 55.825659 
L 341.652072 54.912 
L 338.993901 52.224 
L 338.967273 52.198668 
L 336.344454 49.536 
L 335.36 48.51705 
L 333.79968 46.848 
L 331.752727 44.576005 
L 331.379254 44.16 
L 328.939609 41.472 
" clip-path="url(#pecb65987bd)" style="fill: none; stroke: #000000; stroke-width: 1.5"/>
    <path d="M 212.712727 306.100984 
L 210.310389 304.896 
L 209.105455 304.308911 
L 206.439098 302.208 
L 205.498182 301.458746 
L 203.725834 299.52 
L 201.890909 297.421239 
L 201.476117 296.832 
L 199.621798 294.144 
L 198.283636 292.054251 
L 197.947977 291.456 
L 196.491521 288.768 
L 195.163376 286.08 
L 194.676364 285.031277 
L 193.959304 283.392 
L 192.86754 280.704 
L 191.878721 278.016 
L 191.069091 275.592186 
L 190.980823 275.328 
L 190.136476 272.64 
L 189.377284 269.952 
L 188.695744 267.264 
L 188.084984 264.576 
L 187.538822 261.888 
L 187.461818 261.472289 
L 187.016539 259.2 
L 186.549836 256.512 
L 186.140646 253.824 
L 185.784766 251.136 
L 185.478707 248.448 
L 185.219649 245.76 
L 185.005405 243.072 
L 184.834396 240.384 
L 184.705628 237.696 
L 184.618693 235.008 
L 184.573774 232.32 
L 184.571663 229.632 
L 184.613796 226.944 
L 184.702306 224.256 
L 184.840086 221.568 
L 185.030879 218.88 
L 185.279384 216.192 
L 185.591396 213.504 
L 185.973961 210.816 
L 186.435573 208.128 
L 186.986395 205.44 
L 187.461818 203.453499 
L 187.641958 202.752 
L 188.430673 200.064 
L 189.365554 197.376 
L 190.468424 194.688 
L 191.069091 193.392181 
L 191.851966 192 
L 193.57757 189.312 
L 194.676364 187.796948 
L 195.856747 186.624 
L 198.283636 184.426263 
L 199.197683 183.936 
L 201.890909 182.517264 
L 205.498182 181.790202 
L 209.105455 182.068664 
L 212.712727 183.291249 
L 213.805299 183.936 
L 216.32 185.300954 
L 218.060024 186.624 
L 219.927273 187.930042 
L 221.516044 189.312 
L 223.534545 190.925796 
L 224.694655 192 
L 227.141818 194.080033 
L 227.789288 194.688 
L 230.749091 197.235492 
L 230.901792 197.376 
L 234.106801 200.064 
L 234.356364 200.255714 
L 237.470561 202.752 
L 237.963636 203.115121 
L 241.03844 205.44 
L 241.570909 205.810234 
L 244.854407 208.128 
L 245.178182 208.338484 
L 248.785455 210.69593 
L 248.968894 210.816 
L 252.392727 212.872077 
L 253.442825 213.504 
L 256 214.919769 
L 258.298982 216.192 
L 259.607273 216.860508 
L 263.214545 218.691351 
L 263.591112 218.88 
L 266.821818 220.370326 
L 269.420917 221.568 
L 270.429091 221.998275 
L 274.036364 223.504738 
L 275.850928 224.256 
L 277.643636 224.942767 
L 281.250909 226.296857 
L 283.001376 226.944 
L 284.858182 227.57919 
L 288.465455 228.779055 
L 291.063085 229.632 
L 292.072727 229.939214 
L 295.68 230.983794 
L 299.287273 232.01462 
L 300.409675 232.32 
L 302.894545 232.942198 
L 306.501818 233.799925 
L 310.109091 234.630464 
L 311.866449 235.008 
L 313.716364 235.371701 
L 317.323636 236.012392 
L 320.930909 236.605245 
L 324.538182 237.153887 
L 328.145455 237.667677 
L 328.375132 237.696 
L 331.752727 238.06431 
L 335.36 238.447268 
L 338.967273 238.873788 
L 342.574545 239.434081 
L 346.181818 240.28287 
L 346.489005 240.384 
L 349.789091 241.305134 
L 353.396364 242.867491 
L 353.74393 243.072 
L 357.003636 244.768323 
L 358.435751 245.76 
L 360.610909 247.170226 
L 362.213213 248.448 
L 364.218182 250.021424 
L 365.44453 251.136 
L 367.825455 253.369946 
L 368.265438 253.824 
L 370.734222 256.512 
L 371.432727 257.356393 
L 372.894515 259.2 
L 374.704627 261.888 
L 375.04 262.474964 
L 376.247262 264.576 
L 377.457298 267.264 
L 378.349745 269.952 
L 378.647273 271.262273 
L 378.980806 272.64 
L 379.336479 275.328 
L 379.39966 278.016 
L 379.166209 280.704 
L 378.647273 283.239063 
L 378.617005 283.392 
L 377.775209 286.08 
L 376.555857 288.768 
L 375.04 291.24038 
L 374.901059 291.456 
L 372.819259 294.144 
L 371.432727 295.641573 
L 370.201479 296.832 
L 367.825455 298.902971 
L 366.988093 299.52 
L 364.218182 301.50168 
L 362.969929 302.208 
L 360.610909 303.605686 
L 357.606706 304.896 
L 357.003636 305.192179 
L 353.396364 306.399311 
L 349.789091 307.058922 
L 346.181818 307.295793 
L 342.574545 307.219858 
L 338.967273 306.925306 
L 335.36 306.489825 
L 331.752727 305.974631 
L 328.145455 305.425464 
L 324.682337 304.896 
L 324.538182 304.878303 
L 320.930909 304.441143 
L 317.323636 304.028127 
L 313.716364 303.644362 
L 310.109091 303.29174 
L 306.501818 302.970337 
L 302.894545 302.679423 
L 299.287273 302.418111 
L 296.023458 302.208 
L 295.68 302.188458 
L 292.072727 302.009583 
L 288.465455 301.855803 
L 284.858182 301.727754 
L 281.250909 301.626538 
L 277.643636 301.553753 
L 274.036364 301.511536 
L 270.429091 301.502631 
L 266.821818 301.530475 
L 263.214545 301.599294 
L 259.607273 301.714188 
L 256 301.881147 
L 252.392727 302.106879 
L 251.102064 302.208 
L 248.785455 302.422588 
L 245.178182 302.831415 
L 241.570909 303.323724 
L 237.963636 303.896529 
L 234.356364 304.535948 
L 232.373842 304.896 
L 230.749091 305.261119 
L 227.141818 306.019241 
L 223.534545 306.653638 
L 219.927273 307.020587 
L 216.32 306.922769 
L 212.712727 306.100984 
z
" clip-path="url(#pecb65987bd)" style="fill: none; stroke: #000000; stroke-width: 1.5"/>
   </g>
   <g id="PathCollection_8">
    <path d="M 190.012703 307.584 
L 189.079679 304.896 
L 188.139827 302.208 
L 187.461818 300.260771 
L 187.181042 299.52 
L 186.167348 296.832 
L 185.221115 294.144 
L 184.347645 291.456 
L 183.854545 289.840669 
L 183.469294 288.768 
L 182.569644 286.08 
L 181.771613 283.392 
L 181.064051 280.704 
L 180.436492 278.016 
L 180.247273 277.138371 
L 179.752902 275.328 
L 179.105413 272.64 
L 178.546136 269.952 
L 178.061073 267.264 
L 177.638931 264.576 
L 177.270551 261.888 
L 176.948467 259.2 
L 176.666572 256.512 
L 176.64 256.231487 
L 176.336818 253.824 
L 176.047903 251.136 
L 175.802832 248.448 
L 175.595678 245.76 
L 175.421792 243.072 
L 175.277532 240.384 
L 175.160065 237.696 
L 175.067229 235.008 
L 174.997425 232.32 
L 174.94955 229.632 
L 174.922949 226.944 
L 174.917389 224.256 
L 174.93305 221.568 
L 174.970538 218.88 
L 175.030915 216.192 
L 175.115753 213.504 
L 175.227208 210.816 
L 175.368139 208.128 
L 175.542262 205.44 
L 175.75437 202.752 
L 176.010641 200.064 
L 176.31906 197.376 
L 176.64 195.031897 
L 176.681291 194.688 
L 177.049131 192 
L 177.490811 189.312 
L 178.0223 186.624 
L 178.664226 183.936 
L 179.443507 181.248 
L 180.247273 178.9445 
L 180.377311 178.56 
L 181.387037 175.872 
L 182.593978 173.184 
L 183.854545 170.795034 
L 184.015366 170.496 
L 185.529425 167.808 
L 187.183211 165.12 
L 187.461818 164.666749 
L 188.811202 162.432 
L 190.303162 159.744 
L 191.069091 158.132922 
L 191.536688 157.056 
L 192.394246 154.368 
L 192.919612 151.68 
L 193.153524 148.992 
L 193.14988 146.304 
L 192.964109 143.616 
L 192.646118 140.928 
L 192.237181 138.24 
L 191.769459 135.552 
L 191.2669 132.864 
L 191.069091 131.89358 
L 190.664227 130.176 
L 190.008098 127.488 
L 189.362312 124.8 
L 188.734812 122.112 
L 188.130139 119.424 
L 187.550445 116.736 
L 187.461818 116.328586 
L 186.844343 114.048 
L 186.15774 111.36 
L 185.518175 108.672 
L 184.922264 105.984 
L 184.366349 103.296 
L 183.854545 100.650614 
L 183.843411 100.608 
L 183.1618 97.92 
L 182.543572 95.232 
L 181.980832 92.544 
L 181.466693 89.856 
L 180.995162 87.168 
L 180.561033 84.48 
L 180.247273 82.396446 
L 180.115234 81.792 
L 179.569285 79.104 
L 179.083876 76.416 
L 178.650148 73.728 
L 178.260855 71.04 
L 177.910032 68.352 
L 177.592742 65.664 
L 177.304885 62.976 
L 177.043041 60.288 
L 176.804357 57.6 
L 176.64 55.580865 
L 176.558917 54.912 
L 176.267367 52.224 
L 176.014924 49.536 
L 175.796604 46.848 
L 175.608463 44.16 
L 175.44739 41.472 
" clip-path="url(#pecb65987bd)" style="fill: none; stroke: #000000; stroke-width: 1.5"/>
    <path d="M 399.9041 307.584 
L 400.290909 306.014712 
L 400.520222 304.896 
L 401.335263 302.208 
L 402.58234 299.52 
L 403.898182 297.577624 
L 404.361819 296.832 
L 406.499406 294.144 
L 407.505455 293.121569 
L 409.096805 291.456 
L 411.112727 289.55025 
L 411.962889 288.768 
L 414.707036 286.08 
L 414.72 286.06298 
" clip-path="url(#pecb65987bd)" style="fill: none; stroke: #000000; stroke-width: 1.5"/>
    <path d="M 414.72 274.577601 
L 413.09845 272.64 
L 411.112727 270.412298 
L 410.692731 269.952 
L 408.281884 267.264 
L 407.505455 266.28086 
L 406.045764 264.576 
L 404.244672 261.888 
L 403.898182 261.248035 
L 402.60979 259.2 
L 401.425519 256.512 
L 400.622224 253.824 
L 400.290909 252.220658 
L 400.009306 251.136 
L 399.569791 248.448 
L 399.35835 245.76 
L 399.341895 243.072 
L 399.522042 240.384 
L 399.936179 237.696 
L 400.290909 236.319098 
L 400.59115 235.008 
L 401.53998 232.32 
L 403.073505 229.632 
L 403.898182 228.603438 
L 405.251355 226.944 
L 407.505455 224.872404 
L 408.225688 224.256 
L 411.112727 222.005848 
L 411.724268 221.568 
L 414.72 219.138613 
" clip-path="url(#pecb65987bd)" style="fill: none; stroke: #000000; stroke-width: 1.5"/>
    <path d="M 414.72 207.662816 
L 413.054018 205.44 
L 411.112727 202.814268 
L 411.063529 202.752 
L 408.898705 200.064 
L 407.505455 198.019123 
L 406.998289 197.376 
L 405.156257 194.688 
L 403.898182 192.283727 
L 403.711343 192 
L 402.27123 189.312 
L 401.26737 186.624 
L 400.558135 183.936 
L 400.290909 182.519258 
L 399.975648 181.248 
L 399.557379 178.56 
L 399.356533 175.872 
L 399.347141 173.184 
L 399.536885 170.496 
L 399.971198 167.808 
L 400.290909 166.619678 
L 400.680884 165.12 
L 401.816546 162.432 
L 403.784333 159.744 
L 403.898182 159.62725 
L 406.858822 157.056 
L 407.505455 156.611494 
L 411.112727 154.467759 
L 411.303886 154.368 
L 414.72 152.216624 
" clip-path="url(#pecb65987bd)" style="fill: none; stroke: #000000; stroke-width: 1.5"/>
    <path d="M 414.72 140.738588 
L 413.012181 138.24 
L 411.29715 135.552 
L 411.112727 135.267339 
L 409.378529 132.864 
L 407.74517 130.176 
L 407.505455 129.748172 
L 405.981585 127.488 
L 404.5511 124.8 
L 403.898182 123.306952 
L 403.21201 122.112 
L 402.010597 119.424 
L 401.141083 116.736 
L 400.504379 114.048 
L 400.290909 112.821479 
L 399.9449 111.36 
L 399.546909 108.672 
L 399.356512 105.984 
L 399.354256 103.296 
L 399.553831 100.608 
L 400.00929 97.92 
L 400.290909 96.916777 
L 400.798627 95.232 
L 402.208991 92.544 
L 403.898182 90.663915 
L 404.93495 89.856 
L 407.505455 88.34207 
L 410.435356 87.168 
L 411.112727 86.885268 
L 414.72 85.304518 
" clip-path="url(#pecb65987bd)" style="fill: none; stroke: #000000; stroke-width: 1.5"/>
    <path d="M 414.72 73.847014 
L 414.658019 73.728 
L 412.972047 71.04 
L 411.463161 68.352 
L 411.112727 67.725935 
L 409.764016 65.664 
L 408.244661 62.976 
L 407.505455 61.504368 
L 406.731599 60.288 
L 405.272726 57.6 
L 404.114437 54.912 
L 403.898182 54.33452 
L 402.82966 52.224 
L 401.804686 49.536 
L 401.038106 46.848 
L 400.458289 44.16 
L 400.290909 43.12766 
L 399.916888 41.472 
" clip-path="url(#pecb65987bd)" style="fill: none; stroke: #000000; stroke-width: 1.5"/>
    <path d="M 160.376309 41.472 
L 160.710367 44.16 
L 161.022388 46.848 
L 161.314332 49.536 
L 161.587874 52.224 
L 161.844442 54.912 
L 162.085255 57.6 
L 162.210909 59.084453 
L 162.364534 60.288 
L 162.677717 62.976 
L 162.95775 65.664 
L 163.208338 68.352 
L 163.432533 71.04 
L 163.63285 73.728 
L 163.811363 76.416 
L 163.96977 79.104 
L 164.109454 81.792 
L 164.231522 84.48 
L 164.336839 87.168 
L 164.426049 89.856 
L 164.499596 92.544 
L 164.557733 95.232 
L 164.600527 97.92 
L 164.627862 100.608 
L 164.639431 103.296 
L 164.634729 105.984 
L 164.613034 108.672 
L 164.573386 111.36 
L 164.514555 114.048 
L 164.434998 116.736 
L 164.33281 119.424 
L 164.205647 122.112 
L 164.050644 124.8 
L 163.864289 127.488 
L 163.642276 130.176 
L 163.379296 132.864 
L 163.068765 135.552 
L 162.702453 138.24 
L 162.269979 140.928 
L 162.210909 141.257688 
L 161.80657 143.616 
L 161.272622 146.304 
L 160.650285 148.992 
L 159.925453 151.68 
L 159.081404 154.368 
L 158.603636 155.728088 
L 158.143479 157.056 
L 157.135938 159.744 
L 156.023148 162.432 
L 154.996364 164.720924 
L 154.819324 165.12 
L 153.630025 167.808 
L 152.432687 170.496 
L 151.389091 172.877601 
L 151.258982 173.184 
L 150.206584 175.872 
L 149.264104 178.56 
L 148.443736 181.248 
L 147.781818 183.821283 
L 147.754311 183.936 
L 147.230709 186.624 
L 146.841935 189.312 
L 146.576813 192 
L 146.423663 194.688 
L 146.37082 197.376 
L 146.406994 200.064 
L 146.521517 202.752 
L 146.704488 205.44 
L 146.946839 208.128 
L 147.240355 210.816 
L 147.57765 213.504 
L 147.781818 214.944532 
L 147.973135 216.192 
L 148.427915 218.88 
L 148.90978 221.568 
L 149.41271 224.256 
L 149.931408 226.944 
L 150.461235 229.632 
L 150.99815 232.32 
L 151.389091 234.245786 
L 151.56814 235.008 
L 152.210284 237.696 
L 152.841098 240.384 
L 153.457986 243.072 
L 154.058898 245.76 
L 154.64224 248.448 
L 154.996364 250.111874 
L 155.264423 251.136 
L 155.94724 253.824 
L 156.589469 256.512 
L 157.192598 259.2 
L 157.758219 261.888 
L 158.287965 264.576 
L 158.603636 266.264902 
L 158.845847 267.264 
L 159.454934 269.952 
L 160.005087 272.64 
L 160.50245 275.328 
L 160.952346 278.016 
L 161.359388 280.704 
L 161.727581 283.392 
L 162.06041 286.08 
L 162.210909 287.403368 
L 162.415155 288.768 
L 162.774979 291.456 
L 163.088992 294.144 
L 163.363031 296.832 
L 163.601864 299.52 
L 163.809403 302.208 
L 163.988869 304.896 
L 164.142915 307.584 
" clip-path="url(#pecb65987bd)" style="fill: none; stroke: #000000; stroke-width: 1.5"/>
    <path d="M 384.729452 41.472 
L 387.494726 49.536 
L 388.095212 52.224 
L 388.523375 54.912 
L 388.806628 57.6 
L 388.953795 60.288 
L 388.956535 62.976 
L 388.785681 65.664 
L 388.380153 68.352 
L 387.620839 71.04 
L 386.267088 73.728 
L 385.861818 74.285267 
L 383.687291 76.416 
L 382.254545 77.404687 
L 378.566789 79.104 
L 375.04 80.60961 
L 372.845132 81.792 
L 371.432727 83.436175 
L 370.928707 84.48 
L 370.924622 87.168 
L 371.652313 89.856 
L 374.19305 95.232 
L 375.635794 97.92 
L 377.214098 100.608 
L 378.647273 103.338505 
L 380.308277 105.984 
L 384.516804 114.048 
L 386.643938 119.424 
L 387.520675 122.112 
L 388.142301 124.8 
L 388.572171 127.488 
L 388.843974 130.176 
L 388.971001 132.864 
L 388.949083 135.552 
L 388.754628 138.24 
L 388.336584 140.928 
L 387.597408 143.616 
L 386.349256 146.304 
L 385.861818 147.042616 
L 384.399584 148.992 
L 381.330797 151.68 
L 373.350467 157.056 
L 371.198482 159.744 
L 370.772043 162.432 
L 371.432727 165.336532 
L 372.561659 167.808 
L 375.04 172.129187 
L 382.632659 183.936 
L 384.239061 186.624 
L 386.614541 192 
L 387.54719 194.688 
L 388.189735 197.376 
L 388.619068 200.064 
L 388.876932 202.752 
L 388.982158 205.44 
L 388.935432 208.128 
L 388.719038 210.816 
L 388.291361 213.504 
L 387.573116 216.192 
L 386.416558 218.88 
L 384.81622 221.568 
L 382.254545 224.535567 
L 378.647273 227.909258 
L 375.04 231.093226 
L 373.699378 232.32 
L 371.623099 235.008 
L 370.756721 237.696 
L 371.042444 240.384 
L 372.195019 243.072 
L 373.871351 245.76 
L 375.8391 248.448 
L 381.968946 256.512 
L 382.254545 256.965377 
L 383.863039 259.2 
L 385.319399 261.888 
L 385.861818 263.172453 
L 386.579596 264.576 
L 387.574115 267.264 
L 388.237193 269.952 
L 388.663543 272.64 
L 388.905039 275.328 
L 388.987129 278.016 
L 388.915892 280.704 
L 388.679534 283.392 
L 388.245059 286.08 
L 387.54838 288.768 
L 386.472211 291.456 
L 385.088322 294.144 
L 383.32625 296.832 
L 378.647273 302.265131 
L 373.948499 307.584 
L 373.948499 307.584 
" clip-path="url(#pecb65987bd)" style="fill: none; stroke: #000000; stroke-width: 1.5"/>
    <path d="M 302.894545 224.475618 
L 306.501818 224.838941 
L 310.109091 224.872558 
L 313.43663 224.256 
L 313.670635 221.568 
L 310.877452 218.88 
L 310.109091 218.402455 
L 307.010991 216.192 
L 306.501818 215.917816 
L 302.894545 213.794187 
L 302.449667 213.504 
L 299.287273 211.901953 
L 297.392741 210.816 
L 295.68 209.997484 
L 292.167254 208.128 
L 292.072727 208.08407 
L 288.465455 206.422902 
L 286.540768 205.44 
L 284.858182 204.680761 
L 281.250909 202.930358 
L 280.880782 202.752 
L 277.643636 201.3608 
L 274.894451 200.064 
L 274.036364 199.691734 
L 270.429091 198.176021 
L 268.569005 197.376 
L 266.821818 196.679781 
L 263.214545 195.287791 
L 261.512355 194.688 
L 259.607273 194.062471 
L 256 193.159234 
L 252.392727 192.814389 
L 249.960545 194.688 
L 250.822717 197.376 
L 252.392727 199.660599 
L 252.662058 200.064 
L 255.3033 202.752 
L 256 203.332789 
L 258.4692 205.44 
L 259.607273 206.262091 
L 262.123917 208.128 
L 263.214545 208.817934 
L 266.286336 210.816 
L 266.821818 211.115848 
L 270.429091 213.132131 
L 271.083567 213.504 
L 274.036364 214.914876 
L 276.591133 216.192 
L 277.643636 216.641711 
L 281.250909 218.141814 
L 282.999398 218.88 
L 284.858182 219.540535 
L 288.465455 220.785939 
L 290.730177 221.568 
L 292.072727 221.953511 
L 295.68 222.874397 
L 299.287273 223.764134 
L 301.587153 224.256 
L 302.894545 224.475618 
z
" clip-path="url(#pecb65987bd)" style="fill: none; stroke: #000000; stroke-width: 1.5"/>
    <path d="M 310.109091 130.3941 
L 313.716364 130.493698 
L 314.022153 130.176 
L 313.716364 129.394657 
L 312.969549 127.488 
L 310.939716 124.8 
L 310.109091 123.898961 
L 308.454545 122.112 
L 306.501818 120.024728 
L 305.927602 119.424 
L 303.225527 116.736 
L 302.894545 116.424835 
L 300.317946 114.048 
L 299.287273 113.070514 
L 297.422316 111.36 
L 295.68 109.689911 
L 294.563037 108.672 
L 292.072727 106.256477 
L 291.771045 105.984 
L 288.866751 103.296 
L 288.465455 102.912608 
L 285.899272 100.608 
L 284.858182 99.596625 
L 282.982652 97.92 
L 281.250909 96.211554 
L 280.141967 95.232 
L 277.643636 92.735331 
L 277.421734 92.544 
L 274.530902 89.856 
L 274.036364 89.352225 
L 271.593844 87.168 
L 270.429091 85.967882 
L 268.711392 84.48 
L 266.821818 82.525296 
L 265.921491 81.792 
L 263.267633 79.104 
L 263.214545 79.047204 
L 260.165034 76.416 
L 259.607273 75.822291 
L 256.935582 73.728 
L 256 72.761643 
L 253.287923 71.04 
L 252.392727 70.20111 
L 250.79312 71.04 
L 251.144013 73.728 
L 252.093594 76.416 
L 252.392727 77.001975 
L 253.806061 79.104 
L 255.329643 81.792 
L 256 82.895619 
L 257.194075 84.48 
L 259.007647 87.168 
L 259.607273 88.022941 
L 261.126378 89.856 
L 263.074513 92.544 
L 263.214545 92.721078 
L 265.471474 95.232 
L 266.821818 96.889912 
L 267.79008 97.92 
L 270.147773 100.608 
L 270.429091 100.917231 
L 272.834001 103.296 
L 274.036364 104.561221 
L 275.549386 105.984 
L 277.643636 108.080431 
L 278.308952 108.672 
L 281.178142 111.36 
L 281.250909 111.426346 
L 284.373975 114.048 
L 284.858182 114.465917 
L 287.715624 116.736 
L 288.465455 117.345758 
L 291.239008 119.424 
L 292.072727 120.059862 
L 294.985749 122.112 
L 295.68 122.606545 
L 299.001012 124.8 
L 299.287273 124.98981 
L 302.894545 127.064789 
L 303.760373 127.488 
L 306.501818 128.813355 
L 309.600734 130.176 
L 310.109091 130.3941 
z
" clip-path="url(#pecb65987bd)" style="fill: none; stroke: #000000; stroke-width: 1.5"/>
   </g>
   <g id="PathCollection_9"/>
   <g id="patch_3">
    <path d="M 57.6 307.584 
L 57.6 41.472 
" style="fill: none; stroke: #cccccc; stroke-linejoin: miter; stroke-linecap: square"/>
   </g>
   <g id="patch_4">
    <path d="M 414.72 307.584 
L 414.72 41.472 
" style="fill: none; stroke: #cccccc; stroke-linejoin: miter; stroke-linecap: square"/>
   </g>
   <g id="patch_5">
    <path d="M 57.6 307.584 
L 414.72 307.584 
" style="fill: none; stroke: #cccccc; stroke-linejoin: miter; stroke-linecap: square"/>
   </g>
   <g id="patch_6">
    <path d="M 57.6 41.472 
L 414.72 41.472 
" style="fill: none; stroke: #cccccc; stroke-linejoin: miter; stroke-linecap: square"/>
   </g>
  </g>
 </g>
 <defs>
  <clipPath id="pecb65987bd">
   <rect x="57.6" y="41.472" width="357.12" height="266.112"/>
  </clipPath>
 </defs>
</svg>
