<?xml version="1.0" encoding="utf-8" standalone="no"?>
<!DOCTYPE svg PUBLIC "-//W3C//DTD SVG 1.1//EN"
  "http://www.w3.org/Graphics/SVG/1.1/DTD/svg11.dtd">
<svg xmlns:xlink="http://www.w3.org/1999/xlink" width="460.8pt" height="345.6pt" viewBox="0 0 460.8 345.6" xmlns="http://www.w3.org/2000/svg" version="1.1">
 <metadata>
  <rdf:RDF xmlns:dc="http://purl.org/dc/elements/1.1/" xmlns:cc="http://creativecommons.org/ns#" xmlns:rdf="http://www.w3.org/1999/02/22-rdf-syntax-ns#">
   <cc:Work>
    <dc:type rdf:resource="http://purl.org/dc/dcmitype/StillImage"/>
    <dc:date>2023-07-18T19:22:24.014835</dc:date>
    <dc:format>image/svg+xml</dc:format>
    <dc:creator>
     <cc:Agent>
      <dc:title>Matplotlib v3.7.1, https://matplotlib.org/</dc:title>
     </cc:Agent>
    </dc:creator>
   </cc:Work>
  </rdf:RDF>
 </metadata>
 <defs>
  <style type="text/css">*{stroke-linejoin: round; stroke-linecap: butt}</style>
 </defs>
 <g id="figure_1">
  <g id="patch_1">
   <path d="M 0 345.6 
L 460.8 345.6 
L 460.8 0 
L 0 0 
z
" style="fill: #ffffff"/>
  </g>
  <g id="axes_1">
   <g id="patch_2">
    <path d="M 57.6 307.584 
L 414.72 307.584 
L 414.72 41.472 
L 57.6 41.472 
z
" style="fill: #ffffff"/>
   </g>
   <g id="matplotlib.axis_1">
    <g id="xtick_1">
     <g id="line2d_1">
      <defs>
       <path id="mc3eb41441c" d="M 0 0 
L 0 3.5 
" style="stroke: #000000; stroke-width: 0.8"/>
      </defs>
      <g>
       <use xlink:href="#mc3eb41441c" x="57.6" y="307.584" style="stroke: #000000; stroke-width: 0.8"/>
      </g>
     </g>
    </g>
    <g id="xtick_2">
     <g id="line2d_2">
      <g>
       <use xlink:href="#mc3eb41441c" x="67.120379" y="307.584" style="stroke: #000000; stroke-width: 0.8"/>
      </g>
     </g>
     <g id="text_1">
      <!-- 2013 -->
      <g transform="translate(54.395379 322.182437) scale(0.1 -0.1)">
       <defs>
        <path id="DejaVuSans-32" d="M 1228 531 
L 3431 531 
L 3431 0 
L 469 0 
L 469 531 
Q 828 903 1448 1529 
Q 2069 2156 2228 2338 
Q 2531 2678 2651 2914 
Q 2772 3150 2772 3378 
Q 2772 3750 2511 3984 
Q 2250 4219 1831 4219 
Q 1534 4219 1204 4116 
Q 875 4013 500 3803 
L 500 4441 
Q 881 4594 1212 4672 
Q 1544 4750 1819 4750 
Q 2544 4750 2975 4387 
Q 3406 4025 3406 3419 
Q 3406 3131 3298 2873 
Q 3191 2616 2906 2266 
Q 2828 2175 2409 1742 
Q 1991 1309 1228 531 
z
" transform="scale(0.015625)"/>
        <path id="DejaVuSans-30" d="M 2034 4250 
Q 1547 4250 1301 3770 
Q 1056 3291 1056 2328 
Q 1056 1369 1301 889 
Q 1547 409 2034 409 
Q 2525 409 2770 889 
Q 3016 1369 3016 2328 
Q 3016 3291 2770 3770 
Q 2525 4250 2034 4250 
z
M 2034 4750 
Q 2819 4750 3233 4129 
Q 3647 3509 3647 2328 
Q 3647 1150 3233 529 
Q 2819 -91 2034 -91 
Q 1250 -91 836 529 
Q 422 1150 422 2328 
Q 422 3509 836 4129 
Q 1250 4750 2034 4750 
z
" transform="scale(0.015625)"/>
        <path id="DejaVuSans-31" d="M 794 531 
L 1825 531 
L 1825 4091 
L 703 3866 
L 703 4441 
L 1819 4666 
L 2450 4666 
L 2450 531 
L 3481 531 
L 3481 0 
L 794 0 
L 794 531 
z
" transform="scale(0.015625)"/>
        <path id="DejaVuSans-33" d="M 2597 2516 
Q 3050 2419 3304 2112 
Q 3559 1806 3559 1356 
Q 3559 666 3084 287 
Q 2609 -91 1734 -91 
Q 1441 -91 1130 -33 
Q 819 25 488 141 
L 488 750 
Q 750 597 1062 519 
Q 1375 441 1716 441 
Q 2309 441 2620 675 
Q 2931 909 2931 1356 
Q 2931 1769 2642 2001 
Q 2353 2234 1838 2234 
L 1294 2234 
L 1294 2753 
L 1863 2753 
Q 2328 2753 2575 2939 
Q 2822 3125 2822 3475 
Q 2822 3834 2567 4026 
Q 2313 4219 1838 4219 
Q 1578 4219 1281 4162 
Q 984 4106 628 3988 
L 628 4550 
Q 988 4650 1302 4700 
Q 1616 4750 1894 4750 
Q 2613 4750 3031 4423 
Q 3450 4097 3450 3541 
Q 3450 3153 3228 2886 
Q 3006 2619 2597 2516 
z
" transform="scale(0.015625)"/>
       </defs>
       <use xlink:href="#DejaVuSans-32"/>
       <use xlink:href="#DejaVuSans-30" x="63.623047"/>
       <use xlink:href="#DejaVuSans-31" x="127.246094"/>
       <use xlink:href="#DejaVuSans-33" x="190.869141"/>
      </g>
     </g>
    </g>
    <g id="xtick_3">
     <g id="line2d_3">
      <g>
       <use xlink:href="#mc3eb41441c" x="105.730806" y="307.584" style="stroke: #000000; stroke-width: 0.8"/>
      </g>
     </g>
     <g id="text_2">
      <!-- 2014 -->
      <g transform="translate(93.005806 322.182437) scale(0.1 -0.1)">
       <defs>
        <path id="DejaVuSans-34" d="M 2419 4116 
L 825 1625 
L 2419 1625 
L 2419 4116 
z
M 2253 4666 
L 3047 4666 
L 3047 1625 
L 3713 1625 
L 3713 1100 
L 3047 1100 
L 3047 0 
L 2419 0 
L 2419 1100 
L 313 1100 
L 313 1709 
L 2253 4666 
z
" transform="scale(0.015625)"/>
       </defs>
       <use xlink:href="#DejaVuSans-32"/>
       <use xlink:href="#DejaVuSans-30" x="63.623047"/>
       <use xlink:href="#DejaVuSans-31" x="127.246094"/>
       <use xlink:href="#DejaVuSans-34" x="190.869141"/>
      </g>
     </g>
    </g>
    <g id="xtick_4">
     <g id="line2d_4">
      <g>
       <use xlink:href="#mc3eb41441c" x="144.341232" y="307.584" style="stroke: #000000; stroke-width: 0.8"/>
      </g>
     </g>
     <g id="text_3">
      <!-- 2015 -->
      <g transform="translate(131.616232 322.182437) scale(0.1 -0.1)">
       <defs>
        <path id="DejaVuSans-35" d="M 691 4666 
L 3169 4666 
L 3169 4134 
L 1269 4134 
L 1269 2991 
Q 1406 3038 1543 3061 
Q 1681 3084 1819 3084 
Q 2600 3084 3056 2656 
Q 3513 2228 3513 1497 
Q 3513 744 3044 326 
Q 2575 -91 1722 -91 
Q 1428 -91 1123 -41 
Q 819 9 494 109 
L 494 744 
Q 775 591 1075 516 
Q 1375 441 1709 441 
Q 2250 441 2565 725 
Q 2881 1009 2881 1497 
Q 2881 1984 2565 2268 
Q 2250 2553 1709 2553 
Q 1456 2553 1204 2497 
Q 953 2441 691 2322 
L 691 4666 
z
" transform="scale(0.015625)"/>
       </defs>
       <use xlink:href="#DejaVuSans-32"/>
       <use xlink:href="#DejaVuSans-30" x="63.623047"/>
       <use xlink:href="#DejaVuSans-31" x="127.246094"/>
       <use xlink:href="#DejaVuSans-35" x="190.869141"/>
      </g>
     </g>
    </g>
    <g id="xtick_5">
     <g id="line2d_5">
      <g>
       <use xlink:href="#mc3eb41441c" x="182.951659" y="307.584" style="stroke: #000000; stroke-width: 0.8"/>
      </g>
     </g>
     <g id="text_4">
      <!-- 2016 -->
      <g transform="translate(170.226659 322.182437) scale(0.1 -0.1)">
       <defs>
        <path id="DejaVuSans-36" d="M 2113 2584 
Q 1688 2584 1439 2293 
Q 1191 2003 1191 1497 
Q 1191 994 1439 701 
Q 1688 409 2113 409 
Q 2538 409 2786 701 
Q 3034 994 3034 1497 
Q 3034 2003 2786 2293 
Q 2538 2584 2113 2584 
z
M 3366 4563 
L 3366 3988 
Q 3128 4100 2886 4159 
Q 2644 4219 2406 4219 
Q 1781 4219 1451 3797 
Q 1122 3375 1075 2522 
Q 1259 2794 1537 2939 
Q 1816 3084 2150 3084 
Q 2853 3084 3261 2657 
Q 3669 2231 3669 1497 
Q 3669 778 3244 343 
Q 2819 -91 2113 -91 
Q 1303 -91 875 529 
Q 447 1150 447 2328 
Q 447 3434 972 4092 
Q 1497 4750 2381 4750 
Q 2619 4750 2861 4703 
Q 3103 4656 3366 4563 
z
" transform="scale(0.015625)"/>
       </defs>
       <use xlink:href="#DejaVuSans-32"/>
       <use xlink:href="#DejaVuSans-30" x="63.623047"/>
       <use xlink:href="#DejaVuSans-31" x="127.246094"/>
       <use xlink:href="#DejaVuSans-36" x="190.869141"/>
      </g>
     </g>
    </g>
    <g id="xtick_6">
     <g id="line2d_6">
      <g>
       <use xlink:href="#mc3eb41441c" x="221.667867" y="307.584" style="stroke: #000000; stroke-width: 0.8"/>
      </g>
     </g>
     <g id="text_5">
      <!-- 2017 -->
      <g transform="translate(208.942867 322.182437) scale(0.1 -0.1)">
       <defs>
        <path id="DejaVuSans-37" d="M 525 4666 
L 3525 4666 
L 3525 4397 
L 1831 0 
L 1172 0 
L 2766 4134 
L 525 4134 
L 525 4666 
z
" transform="scale(0.015625)"/>
       </defs>
       <use xlink:href="#DejaVuSans-32"/>
       <use xlink:href="#DejaVuSans-30" x="63.623047"/>
       <use xlink:href="#DejaVuSans-31" x="127.246094"/>
       <use xlink:href="#DejaVuSans-37" x="190.869141"/>
      </g>
     </g>
    </g>
    <g id="xtick_7">
     <g id="line2d_7">
      <g>
       <use xlink:href="#mc3eb41441c" x="260.278294" y="307.584" style="stroke: #000000; stroke-width: 0.8"/>
      </g>
     </g>
     <g id="text_6">
      <!-- 2018 -->
      <g transform="translate(247.553294 322.182437) scale(0.1 -0.1)">
       <defs>
        <path id="DejaVuSans-38" d="M 2034 2216 
Q 1584 2216 1326 1975 
Q 1069 1734 1069 1313 
Q 1069 891 1326 650 
Q 1584 409 2034 409 
Q 2484 409 2743 651 
Q 3003 894 3003 1313 
Q 3003 1734 2745 1975 
Q 2488 2216 2034 2216 
z
M 1403 2484 
Q 997 2584 770 2862 
Q 544 3141 544 3541 
Q 544 4100 942 4425 
Q 1341 4750 2034 4750 
Q 2731 4750 3128 4425 
Q 3525 4100 3525 3541 
Q 3525 3141 3298 2862 
Q 3072 2584 2669 2484 
Q 3125 2378 3379 2068 
Q 3634 1759 3634 1313 
Q 3634 634 3220 271 
Q 2806 -91 2034 -91 
Q 1263 -91 848 271 
Q 434 634 434 1313 
Q 434 1759 690 2068 
Q 947 2378 1403 2484 
z
M 1172 3481 
Q 1172 3119 1398 2916 
Q 1625 2713 2034 2713 
Q 2441 2713 2670 2916 
Q 2900 3119 2900 3481 
Q 2900 3844 2670 4047 
Q 2441 4250 2034 4250 
Q 1625 4250 1398 4047 
Q 1172 3844 1172 3481 
z
" transform="scale(0.015625)"/>
       </defs>
       <use xlink:href="#DejaVuSans-32"/>
       <use xlink:href="#DejaVuSans-30" x="63.623047"/>
       <use xlink:href="#DejaVuSans-31" x="127.246094"/>
       <use xlink:href="#DejaVuSans-38" x="190.869141"/>
      </g>
     </g>
    </g>
    <g id="xtick_8">
     <g id="line2d_8">
      <g>
       <use xlink:href="#mc3eb41441c" x="298.88872" y="307.584" style="stroke: #000000; stroke-width: 0.8"/>
      </g>
     </g>
     <g id="text_7">
      <!-- 2019 -->
      <g transform="translate(286.16372 322.182437) scale(0.1 -0.1)">
       <defs>
        <path id="DejaVuSans-39" d="M 703 97 
L 703 672 
Q 941 559 1184 500 
Q 1428 441 1663 441 
Q 2288 441 2617 861 
Q 2947 1281 2994 2138 
Q 2813 1869 2534 1725 
Q 2256 1581 1919 1581 
Q 1219 1581 811 2004 
Q 403 2428 403 3163 
Q 403 3881 828 4315 
Q 1253 4750 1959 4750 
Q 2769 4750 3195 4129 
Q 3622 3509 3622 2328 
Q 3622 1225 3098 567 
Q 2575 -91 1691 -91 
Q 1453 -91 1209 -44 
Q 966 3 703 97 
z
M 1959 2075 
Q 2384 2075 2632 2365 
Q 2881 2656 2881 3163 
Q 2881 3666 2632 3958 
Q 2384 4250 1959 4250 
Q 1534 4250 1286 3958 
Q 1038 3666 1038 3163 
Q 1038 2656 1286 2365 
Q 1534 2075 1959 2075 
z
" transform="scale(0.015625)"/>
       </defs>
       <use xlink:href="#DejaVuSans-32"/>
       <use xlink:href="#DejaVuSans-30" x="63.623047"/>
       <use xlink:href="#DejaVuSans-31" x="127.246094"/>
       <use xlink:href="#DejaVuSans-39" x="190.869141"/>
      </g>
     </g>
    </g>
    <g id="xtick_9">
     <g id="line2d_9">
      <g>
       <use xlink:href="#mc3eb41441c" x="337.499147" y="307.584" style="stroke: #000000; stroke-width: 0.8"/>
      </g>
     </g>
     <g id="text_8">
      <!-- 2020 -->
      <g transform="translate(324.774147 322.182437) scale(0.1 -0.1)">
       <use xlink:href="#DejaVuSans-32"/>
       <use xlink:href="#DejaVuSans-30" x="63.623047"/>
       <use xlink:href="#DejaVuSans-32" x="127.246094"/>
       <use xlink:href="#DejaVuSans-30" x="190.869141"/>
      </g>
     </g>
    </g>
    <g id="xtick_10">
     <g id="line2d_10">
      <g>
       <use xlink:href="#mc3eb41441c" x="376.215355" y="307.584" style="stroke: #000000; stroke-width: 0.8"/>
      </g>
     </g>
     <g id="text_9">
      <!-- 2021 -->
      <g transform="translate(363.490355 322.182437) scale(0.1 -0.1)">
       <use xlink:href="#DejaVuSans-32"/>
       <use xlink:href="#DejaVuSans-30" x="63.623047"/>
       <use xlink:href="#DejaVuSans-32" x="127.246094"/>
       <use xlink:href="#DejaVuSans-31" x="190.869141"/>
      </g>
     </g>
    </g>
    <g id="xtick_11">
     <g id="line2d_11">
      <g>
       <use xlink:href="#mc3eb41441c" x="414.72" y="307.584" style="stroke: #000000; stroke-width: 0.8"/>
      </g>
     </g>
    </g>
    <g id="xtick_12">
     <g id="line2d_12">
      <defs>
       <path id="m49db8ce124" d="M 0 0 
L 0 2 
" style="stroke: #000000; stroke-width: 0.6"/>
      </defs>
      <g>
       <use xlink:href="#m49db8ce124" x="76.640758" y="307.584" style="stroke: #000000; stroke-width: 0.6"/>
      </g>
     </g>
    </g>
    <g id="xtick_13">
     <g id="line2d_13">
      <g>
       <use xlink:href="#m49db8ce124" x="86.266919" y="307.584" style="stroke: #000000; stroke-width: 0.6"/>
      </g>
     </g>
    </g>
    <g id="xtick_14">
     <g id="line2d_14">
      <g>
       <use xlink:href="#m49db8ce124" x="95.998863" y="307.584" style="stroke: #000000; stroke-width: 0.6"/>
      </g>
     </g>
    </g>
    <g id="xtick_15">
     <g id="line2d_15">
      <g>
       <use xlink:href="#m49db8ce124" x="115.251185" y="307.584" style="stroke: #000000; stroke-width: 0.6"/>
      </g>
     </g>
    </g>
    <g id="xtick_16">
     <g id="line2d_16">
      <g>
       <use xlink:href="#m49db8ce124" x="124.877346" y="307.584" style="stroke: #000000; stroke-width: 0.6"/>
      </g>
     </g>
    </g>
    <g id="xtick_17">
     <g id="line2d_17">
      <g>
       <use xlink:href="#m49db8ce124" x="134.609289" y="307.584" style="stroke: #000000; stroke-width: 0.6"/>
      </g>
     </g>
    </g>
    <g id="xtick_18">
     <g id="line2d_18">
      <g>
       <use xlink:href="#m49db8ce124" x="153.861611" y="307.584" style="stroke: #000000; stroke-width: 0.6"/>
      </g>
     </g>
    </g>
    <g id="xtick_19">
     <g id="line2d_19">
      <g>
       <use xlink:href="#m49db8ce124" x="163.487773" y="307.584" style="stroke: #000000; stroke-width: 0.6"/>
      </g>
     </g>
    </g>
    <g id="xtick_20">
     <g id="line2d_20">
      <g>
       <use xlink:href="#m49db8ce124" x="173.219716" y="307.584" style="stroke: #000000; stroke-width: 0.6"/>
      </g>
     </g>
    </g>
    <g id="xtick_21">
     <g id="line2d_21">
      <g>
       <use xlink:href="#m49db8ce124" x="192.57782" y="307.584" style="stroke: #000000; stroke-width: 0.6"/>
      </g>
     </g>
    </g>
    <g id="xtick_22">
     <g id="line2d_22">
      <g>
       <use xlink:href="#m49db8ce124" x="202.203981" y="307.584" style="stroke: #000000; stroke-width: 0.6"/>
      </g>
     </g>
    </g>
    <g id="xtick_23">
     <g id="line2d_23">
      <g>
       <use xlink:href="#m49db8ce124" x="211.935924" y="307.584" style="stroke: #000000; stroke-width: 0.6"/>
      </g>
     </g>
    </g>
    <g id="xtick_24">
     <g id="line2d_24">
      <g>
       <use xlink:href="#m49db8ce124" x="231.188246" y="307.584" style="stroke: #000000; stroke-width: 0.6"/>
      </g>
     </g>
    </g>
    <g id="xtick_25">
     <g id="line2d_25">
      <g>
       <use xlink:href="#m49db8ce124" x="240.814408" y="307.584" style="stroke: #000000; stroke-width: 0.6"/>
      </g>
     </g>
    </g>
    <g id="xtick_26">
     <g id="line2d_26">
      <g>
       <use xlink:href="#m49db8ce124" x="250.546351" y="307.584" style="stroke: #000000; stroke-width: 0.6"/>
      </g>
     </g>
    </g>
    <g id="xtick_27">
     <g id="line2d_27">
      <g>
       <use xlink:href="#m49db8ce124" x="269.798673" y="307.584" style="stroke: #000000; stroke-width: 0.6"/>
      </g>
     </g>
    </g>
    <g id="xtick_28">
     <g id="line2d_28">
      <g>
       <use xlink:href="#m49db8ce124" x="279.424834" y="307.584" style="stroke: #000000; stroke-width: 0.6"/>
      </g>
     </g>
    </g>
    <g id="xtick_29">
     <g id="line2d_29">
      <g>
       <use xlink:href="#m49db8ce124" x="289.156777" y="307.584" style="stroke: #000000; stroke-width: 0.6"/>
      </g>
     </g>
    </g>
    <g id="xtick_30">
     <g id="line2d_30">
      <g>
       <use xlink:href="#m49db8ce124" x="308.4091" y="307.584" style="stroke: #000000; stroke-width: 0.6"/>
      </g>
     </g>
    </g>
    <g id="xtick_31">
     <g id="line2d_31">
      <g>
       <use xlink:href="#m49db8ce124" x="318.035261" y="307.584" style="stroke: #000000; stroke-width: 0.6"/>
      </g>
     </g>
    </g>
    <g id="xtick_32">
     <g id="line2d_32">
      <g>
       <use xlink:href="#m49db8ce124" x="327.767204" y="307.584" style="stroke: #000000; stroke-width: 0.6"/>
      </g>
     </g>
    </g>
    <g id="xtick_33">
     <g id="line2d_33">
      <g>
       <use xlink:href="#m49db8ce124" x="347.125308" y="307.584" style="stroke: #000000; stroke-width: 0.6"/>
      </g>
     </g>
    </g>
    <g id="xtick_34">
     <g id="line2d_34">
      <g>
       <use xlink:href="#m49db8ce124" x="356.751469" y="307.584" style="stroke: #000000; stroke-width: 0.6"/>
      </g>
     </g>
    </g>
    <g id="xtick_35">
     <g id="line2d_35">
      <g>
       <use xlink:href="#m49db8ce124" x="366.483412" y="307.584" style="stroke: #000000; stroke-width: 0.6"/>
      </g>
     </g>
    </g>
    <g id="xtick_36">
     <g id="line2d_36">
      <g>
       <use xlink:href="#m49db8ce124" x="385.735735" y="307.584" style="stroke: #000000; stroke-width: 0.6"/>
      </g>
     </g>
    </g>
    <g id="xtick_37">
     <g id="line2d_37">
      <g>
       <use xlink:href="#m49db8ce124" x="395.361896" y="307.584" style="stroke: #000000; stroke-width: 0.6"/>
      </g>
     </g>
    </g>
    <g id="xtick_38">
     <g id="line2d_38">
      <g>
       <use xlink:href="#m49db8ce124" x="405.093839" y="307.584" style="stroke: #000000; stroke-width: 0.6"/>
      </g>
     </g>
    </g>
    <g id="text_10">
     <!-- Date -->
     <g transform="translate(224.209219 335.860562) scale(0.1 -0.1)">
      <defs>
       <path id="DejaVuSans-44" d="M 1259 4147 
L 1259 519 
L 2022 519 
Q 2988 519 3436 956 
Q 3884 1394 3884 2338 
Q 3884 3275 3436 3711 
Q 2988 4147 2022 4147 
L 1259 4147 
z
M 628 4666 
L 1925 4666 
Q 3281 4666 3915 4102 
Q 4550 3538 4550 2338 
Q 4550 1131 3912 565 
Q 3275 0 1925 0 
L 628 0 
L 628 4666 
z
" transform="scale(0.015625)"/>
       <path id="DejaVuSans-61" d="M 2194 1759 
Q 1497 1759 1228 1600 
Q 959 1441 959 1056 
Q 959 750 1161 570 
Q 1363 391 1709 391 
Q 2188 391 2477 730 
Q 2766 1069 2766 1631 
L 2766 1759 
L 2194 1759 
z
M 3341 1997 
L 3341 0 
L 2766 0 
L 2766 531 
Q 2569 213 2275 61 
Q 1981 -91 1556 -91 
Q 1019 -91 701 211 
Q 384 513 384 1019 
Q 384 1609 779 1909 
Q 1175 2209 1959 2209 
L 2766 2209 
L 2766 2266 
Q 2766 2663 2505 2880 
Q 2244 3097 1772 3097 
Q 1472 3097 1187 3025 
Q 903 2953 641 2809 
L 641 3341 
Q 956 3463 1253 3523 
Q 1550 3584 1831 3584 
Q 2591 3584 2966 3190 
Q 3341 2797 3341 1997 
z
" transform="scale(0.015625)"/>
       <path id="DejaVuSans-74" d="M 1172 4494 
L 1172 3500 
L 2356 3500 
L 2356 3053 
L 1172 3053 
L 1172 1153 
Q 1172 725 1289 603 
Q 1406 481 1766 481 
L 2356 481 
L 2356 0 
L 1766 0 
Q 1100 0 847 248 
Q 594 497 594 1153 
L 594 3053 
L 172 3053 
L 172 3500 
L 594 3500 
L 594 4494 
L 1172 4494 
z
" transform="scale(0.015625)"/>
       <path id="DejaVuSans-65" d="M 3597 1894 
L 3597 1613 
L 953 1613 
Q 991 1019 1311 708 
Q 1631 397 2203 397 
Q 2534 397 2845 478 
Q 3156 559 3463 722 
L 3463 178 
Q 3153 47 2828 -22 
Q 2503 -91 2169 -91 
Q 1331 -91 842 396 
Q 353 884 353 1716 
Q 353 2575 817 3079 
Q 1281 3584 2069 3584 
Q 2775 3584 3186 3129 
Q 3597 2675 3597 1894 
z
M 3022 2063 
Q 3016 2534 2758 2815 
Q 2500 3097 2075 3097 
Q 1594 3097 1305 2825 
Q 1016 2553 972 2059 
L 3022 2063 
z
" transform="scale(0.015625)"/>
      </defs>
      <use xlink:href="#DejaVuSans-44"/>
      <use xlink:href="#DejaVuSans-61" x="77.001953"/>
      <use xlink:href="#DejaVuSans-74" x="138.28125"/>
      <use xlink:href="#DejaVuSans-65" x="177.490234"/>
     </g>
    </g>
   </g>
   <g id="matplotlib.axis_2">
    <g id="ytick_1">
     <g id="line2d_39">
      <defs>
       <path id="m56fe5c7caf" d="M 0 0 
L -3.5 0 
" style="stroke: #000000; stroke-width: 0.8"/>
      </defs>
      <g>
       <use xlink:href="#m56fe5c7caf" x="57.6" y="306.537102" style="stroke: #000000; stroke-width: 0.8"/>
      </g>
     </g>
     <g id="text_11">
      <!-- 0 -->
      <g transform="translate(44.2375 310.336321) scale(0.1 -0.1)">
       <use xlink:href="#DejaVuSans-30"/>
      </g>
     </g>
    </g>
    <g id="ytick_2">
     <g id="line2d_40">
      <g>
       <use xlink:href="#m56fe5c7caf" x="57.6" y="253.602312" style="stroke: #000000; stroke-width: 0.8"/>
      </g>
     </g>
     <g id="text_12">
      <!-- 50000 -->
      <g transform="translate(18.7875 257.401531) scale(0.1 -0.1)">
       <use xlink:href="#DejaVuSans-35"/>
       <use xlink:href="#DejaVuSans-30" x="63.623047"/>
       <use xlink:href="#DejaVuSans-30" x="127.246094"/>
       <use xlink:href="#DejaVuSans-30" x="190.869141"/>
       <use xlink:href="#DejaVuSans-30" x="254.492188"/>
      </g>
     </g>
    </g>
    <g id="ytick_3">
     <g id="line2d_41">
      <g>
       <use xlink:href="#m56fe5c7caf" x="57.6" y="200.667522" style="stroke: #000000; stroke-width: 0.8"/>
      </g>
     </g>
     <g id="text_13">
      <!-- 100000 -->
      <g transform="translate(12.425 204.466741) scale(0.1 -0.1)">
       <use xlink:href="#DejaVuSans-31"/>
       <use xlink:href="#DejaVuSans-30" x="63.623047"/>
       <use xlink:href="#DejaVuSans-30" x="127.246094"/>
       <use xlink:href="#DejaVuSans-30" x="190.869141"/>
       <use xlink:href="#DejaVuSans-30" x="254.492188"/>
       <use xlink:href="#DejaVuSans-30" x="318.115234"/>
      </g>
     </g>
    </g>
    <g id="ytick_4">
     <g id="line2d_42">
      <g>
       <use xlink:href="#m56fe5c7caf" x="57.6" y="147.732733" style="stroke: #000000; stroke-width: 0.8"/>
      </g>
     </g>
     <g id="text_14">
      <!-- 150000 -->
      <g transform="translate(12.425 151.531951) scale(0.1 -0.1)">
       <use xlink:href="#DejaVuSans-31"/>
       <use xlink:href="#DejaVuSans-35" x="63.623047"/>
       <use xlink:href="#DejaVuSans-30" x="127.246094"/>
       <use xlink:href="#DejaVuSans-30" x="190.869141"/>
       <use xlink:href="#DejaVuSans-30" x="254.492188"/>
       <use xlink:href="#DejaVuSans-30" x="318.115234"/>
      </g>
     </g>
    </g>
    <g id="ytick_5">
     <g id="line2d_43">
      <g>
       <use xlink:href="#m56fe5c7caf" x="57.6" y="94.797943" style="stroke: #000000; stroke-width: 0.8"/>
      </g>
     </g>
     <g id="text_15">
      <!-- 200000 -->
      <g transform="translate(12.425 98.597162) scale(0.1 -0.1)">
       <use xlink:href="#DejaVuSans-32"/>
       <use xlink:href="#DejaVuSans-30" x="63.623047"/>
       <use xlink:href="#DejaVuSans-30" x="127.246094"/>
       <use xlink:href="#DejaVuSans-30" x="190.869141"/>
       <use xlink:href="#DejaVuSans-30" x="254.492188"/>
       <use xlink:href="#DejaVuSans-30" x="318.115234"/>
      </g>
     </g>
    </g>
    <g id="ytick_6">
     <g id="line2d_44">
      <g>
       <use xlink:href="#m56fe5c7caf" x="57.6" y="41.863153" style="stroke: #000000; stroke-width: 0.8"/>
      </g>
     </g>
     <g id="text_16">
      <!-- 250000 -->
      <g transform="translate(12.425 45.662372) scale(0.1 -0.1)">
       <use xlink:href="#DejaVuSans-32"/>
       <use xlink:href="#DejaVuSans-35" x="63.623047"/>
       <use xlink:href="#DejaVuSans-30" x="127.246094"/>
       <use xlink:href="#DejaVuSans-30" x="190.869141"/>
       <use xlink:href="#DejaVuSans-30" x="254.492188"/>
       <use xlink:href="#DejaVuSans-30" x="318.115234"/>
      </g>
     </g>
    </g>
    <g id="text_17">
     <!-- Gaussian Mean Count -->
     <g transform="translate(6.345312 229.116281) rotate(-90) scale(0.1 -0.1)">
      <defs>
       <path id="DejaVuSans-47" d="M 3809 666 
L 3809 1919 
L 2778 1919 
L 2778 2438 
L 4434 2438 
L 4434 434 
Q 4069 175 3628 42 
Q 3188 -91 2688 -91 
Q 1594 -91 976 548 
Q 359 1188 359 2328 
Q 359 3472 976 4111 
Q 1594 4750 2688 4750 
Q 3144 4750 3555 4637 
Q 3966 4525 4313 4306 
L 4313 3634 
Q 3963 3931 3569 4081 
Q 3175 4231 2741 4231 
Q 1884 4231 1454 3753 
Q 1025 3275 1025 2328 
Q 1025 1384 1454 906 
Q 1884 428 2741 428 
Q 3075 428 3337 486 
Q 3600 544 3809 666 
z
" transform="scale(0.015625)"/>
       <path id="DejaVuSans-75" d="M 544 1381 
L 544 3500 
L 1119 3500 
L 1119 1403 
Q 1119 906 1312 657 
Q 1506 409 1894 409 
Q 2359 409 2629 706 
Q 2900 1003 2900 1516 
L 2900 3500 
L 3475 3500 
L 3475 0 
L 2900 0 
L 2900 538 
Q 2691 219 2414 64 
Q 2138 -91 1772 -91 
Q 1169 -91 856 284 
Q 544 659 544 1381 
z
M 1991 3584 
L 1991 3584 
z
" transform="scale(0.015625)"/>
       <path id="DejaVuSans-73" d="M 2834 3397 
L 2834 2853 
Q 2591 2978 2328 3040 
Q 2066 3103 1784 3103 
Q 1356 3103 1142 2972 
Q 928 2841 928 2578 
Q 928 2378 1081 2264 
Q 1234 2150 1697 2047 
L 1894 2003 
Q 2506 1872 2764 1633 
Q 3022 1394 3022 966 
Q 3022 478 2636 193 
Q 2250 -91 1575 -91 
Q 1294 -91 989 -36 
Q 684 19 347 128 
L 347 722 
Q 666 556 975 473 
Q 1284 391 1588 391 
Q 1994 391 2212 530 
Q 2431 669 2431 922 
Q 2431 1156 2273 1281 
Q 2116 1406 1581 1522 
L 1381 1569 
Q 847 1681 609 1914 
Q 372 2147 372 2553 
Q 372 3047 722 3315 
Q 1072 3584 1716 3584 
Q 2034 3584 2315 3537 
Q 2597 3491 2834 3397 
z
" transform="scale(0.015625)"/>
       <path id="DejaVuSans-69" d="M 603 3500 
L 1178 3500 
L 1178 0 
L 603 0 
L 603 3500 
z
M 603 4863 
L 1178 4863 
L 1178 4134 
L 603 4134 
L 603 4863 
z
" transform="scale(0.015625)"/>
       <path id="DejaVuSans-6e" d="M 3513 2113 
L 3513 0 
L 2938 0 
L 2938 2094 
Q 2938 2591 2744 2837 
Q 2550 3084 2163 3084 
Q 1697 3084 1428 2787 
Q 1159 2491 1159 1978 
L 1159 0 
L 581 0 
L 581 3500 
L 1159 3500 
L 1159 2956 
Q 1366 3272 1645 3428 
Q 1925 3584 2291 3584 
Q 2894 3584 3203 3211 
Q 3513 2838 3513 2113 
z
" transform="scale(0.015625)"/>
       <path id="DejaVuSans-20" transform="scale(0.015625)"/>
       <path id="DejaVuSans-4d" d="M 628 4666 
L 1569 4666 
L 2759 1491 
L 3956 4666 
L 4897 4666 
L 4897 0 
L 4281 0 
L 4281 4097 
L 3078 897 
L 2444 897 
L 1241 4097 
L 1241 0 
L 628 0 
L 628 4666 
z
" transform="scale(0.015625)"/>
       <path id="DejaVuSans-43" d="M 4122 4306 
L 4122 3641 
Q 3803 3938 3442 4084 
Q 3081 4231 2675 4231 
Q 1875 4231 1450 3742 
Q 1025 3253 1025 2328 
Q 1025 1406 1450 917 
Q 1875 428 2675 428 
Q 3081 428 3442 575 
Q 3803 722 4122 1019 
L 4122 359 
Q 3791 134 3420 21 
Q 3050 -91 2638 -91 
Q 1578 -91 968 557 
Q 359 1206 359 2328 
Q 359 3453 968 4101 
Q 1578 4750 2638 4750 
Q 3056 4750 3426 4639 
Q 3797 4528 4122 4306 
z
" transform="scale(0.015625)"/>
       <path id="DejaVuSans-6f" d="M 1959 3097 
Q 1497 3097 1228 2736 
Q 959 2375 959 1747 
Q 959 1119 1226 758 
Q 1494 397 1959 397 
Q 2419 397 2687 759 
Q 2956 1122 2956 1747 
Q 2956 2369 2687 2733 
Q 2419 3097 1959 3097 
z
M 1959 3584 
Q 2709 3584 3137 3096 
Q 3566 2609 3566 1747 
Q 3566 888 3137 398 
Q 2709 -91 1959 -91 
Q 1206 -91 779 398 
Q 353 888 353 1747 
Q 353 2609 779 3096 
Q 1206 3584 1959 3584 
z
" transform="scale(0.015625)"/>
      </defs>
      <use xlink:href="#DejaVuSans-47"/>
      <use xlink:href="#DejaVuSans-61" x="77.490234"/>
      <use xlink:href="#DejaVuSans-75" x="138.769531"/>
      <use xlink:href="#DejaVuSans-73" x="202.148438"/>
      <use xlink:href="#DejaVuSans-73" x="254.248047"/>
      <use xlink:href="#DejaVuSans-69" x="306.347656"/>
      <use xlink:href="#DejaVuSans-61" x="334.130859"/>
      <use xlink:href="#DejaVuSans-6e" x="395.410156"/>
      <use xlink:href="#DejaVuSans-20" x="458.789062"/>
      <use xlink:href="#DejaVuSans-4d" x="490.576172"/>
      <use xlink:href="#DejaVuSans-65" x="576.855469"/>
      <use xlink:href="#DejaVuSans-61" x="638.378906"/>
      <use xlink:href="#DejaVuSans-6e" x="699.658203"/>
      <use xlink:href="#DejaVuSans-20" x="763.037109"/>
      <use xlink:href="#DejaVuSans-43" x="794.824219"/>
      <use xlink:href="#DejaVuSans-6f" x="864.648438"/>
      <use xlink:href="#DejaVuSans-75" x="925.830078"/>
      <use xlink:href="#DejaVuSans-6e" x="989.208984"/>
      <use xlink:href="#DejaVuSans-74" x="1052.587891"/>
     </g>
    </g>
   </g>
   <g id="line2d_45">
    <path d="M 60.24455 202.887959 
L 60.879242 207.982209 
L 61.619716 214.212234 
L 62.783318 225.871576 
L 63.206445 227.836181 
L 63.629573 228.787327 
L 63.735355 228.928893 
L 64.475829 231.833577 
L 65.004739 236.631694 
L 66.168341 248.273982 
L 66.485687 249.209919 
L 66.591469 249.147661 
L 66.803033 248.553232 
L 67.120379 246.654238 
L 67.543507 242.899186 
L 68.812891 231.484505 
L 69.870711 224.20857 
L 71.351659 215.313641 
L 72.726825 209.590964 
L 73.361517 206.316847 
L 74.842464 198.060076 
L 76.323412 187.238397 
L 76.74654 185.934339 
L 77.063886 186.195879 
L 77.169668 186.221684 
L 77.381232 185.717973 
L 77.698578 184.346543 
L 78.015924 180.818573 
L 78.439052 172.892494 
L 79.073744 154.756023 
L 80.025782 127.366175 
L 80.44891 121.732427 
L 80.660474 121.063098 
L 80.766256 121.116787 
L 80.97782 122.133006 
L 81.295166 125.287062 
L 82.141422 135.327706 
L 82.458768 136.09569 
L 82.56455 136.253346 
L 82.670332 136.114803 
L 82.987678 134.527235 
L 84.045498 129.364212 
L 84.257062 129.892173 
L 84.68019 131.178868 
L 85.2091 132.665681 
L 85.632227 131.746561 
L 85.843791 130.649629 
L 86.372701 125.125302 
L 87.324739 114.472577 
L 87.642085 112.462625 
L 87.959431 111.486419 
L 88.065213 111.541603 
L 88.276777 111.455372 
L 88.488341 111.908839 
L 88.699905 112.855173 
L 90.815545 124.192037 
L 91.556019 131.531466 
L 92.825403 146.932509 
L 93.671659 153.176334 
L 94.094787 156.003104 
L 94.941043 164.799096 
L 95.575735 170.886576 
L 95.998863 172.732529 
L 96.210427 173.1963 
L 96.845118 172.868293 
L 97.268246 172.347306 
L 97.797156 173.544959 
L 98.114502 175.051331 
L 98.960758 181.342001 
L 101.816872 210.633976 
L 102.76891 220.779254 
L 104.249858 232.529787 
L 104.567204 234.262152 
L 104.778768 234.837929 
L 105.096114 234.601659 
L 105.41346 233.030943 
L 105.836588 228.602613 
L 107.423318 206.977403 
L 107.846445 204.516701 
L 107.952227 204.408714 
L 108.163791 204.649373 
L 108.481137 205.927241 
L 108.798483 208.537363 
L 110.067867 219.666277 
L 110.279431 220.564408 
L 110.490995 220.653565 
L 110.702559 220.209172 
L 111.019905 218.956964 
L 111.654597 213.409002 
L 116.097441 164.959099 
L 116.943697 158.779641 
L 117.366825 153.378757 
L 118.001517 141.062015 
L 119.376682 110.054091 
L 119.79981 104.191668 
L 120.117156 101.851184 
L 120.32872 100.994483 
L 120.434502 100.947439 
L 120.85763 101.846326 
L 121.38654 103.584248 
L 121.492322 103.60788 
L 121.809668 104.836029 
L 122.232796 106.782472 
L 123.290616 113.212909 
L 123.607962 113.997007 
L 124.03109 113.496012 
L 124.454218 112.192968 
L 125.512038 107.76557 
L 125.829384 107.118382 
L 126.040948 106.865722 
L 126.252512 107.117663 
L 127.20455 108.718117 
L 127.310332 108.709314 
L 127.521896 108.544847 
L 127.73346 108.484584 
L 127.945024 108.32088 
L 128.368152 108.125456 
L 128.579716 108.388886 
L 130.483791 115.836075 
L 132.387867 128.524246 
L 133.128341 135.30419 
L 134.186161 144.991416 
L 135.243981 154.866715 
L 136.090237 167.276266 
L 136.936493 179.845348 
L 137.571185 185.912233 
L 138.417441 190.548083 
L 138.734787 192.54213 
L 139.157915 196.416328 
L 139.686825 203.220574 
L 140.533081 214.671725 
L 141.061991 218.796747 
L 141.485118 220.216399 
L 142.225592 222.73352 
L 142.754502 226.340419 
L 143.389194 230.786137 
L 143.70654 231.863625 
L 143.812322 231.864772 
L 144.023886 231.364199 
L 144.23545 230.158658 
L 144.658578 225.212274 
L 146.033744 205.871835 
L 146.562654 201.353346 
L 146.985782 199.472832 
L 147.303128 198.830214 
L 147.514692 198.434224 
L 147.832038 198.308686 
L 148.043602 197.887219 
L 148.572512 195.765097 
L 149.101422 192.200154 
L 149.947678 186.568185 
L 150.476588 184.448292 
L 150.899716 184.011288 
L 151.11128 184.207534 
L 151.64019 186.210427 
L 152.063318 187.693356 
L 152.486445 188.315431 
L 152.698009 188.208562 
L 152.909573 187.407387 
L 153.332701 184.41233 
L 153.967393 178.218005 
L 157.775545 130.209379 
L 158.304455 126.271937 
L 159.150711 122.517825 
L 159.679621 120.490713 
L 159.891185 119.75204 
L 160.843223 112.965325 
L 161.266351 110.269423 
L 161.689479 108.586299 
L 161.901043 108.298193 
L 162.324171 108.525385 
L 162.641517 109.809232 
L 163.064645 111.73715 
L 163.381991 113.084119 
L 163.699336 114.568063 
L 164.228246 116.010342 
L 164.43981 116.251753 
L 164.96872 116.849104 
L 165.391848 117.087794 
L 165.49763 117.131718 
L 165.814976 117.645662 
L 165.920758 117.551682 
L 166.55545 117.924666 
L 166.661232 117.854311 
L 166.978578 118.192334 
L 167.295924 119.153365 
L 167.507488 119.969252 
L 167.930616 122.721625 
L 168.459526 128.006342 
L 169.094218 136.779133 
L 169.834692 147.882334 
L 170.363602 152.682762 
L 170.680948 153.526496 
L 170.78673 153.542129 
L 170.998294 153.017102 
L 172.585024 145.207971 
L 172.796588 145.165729 
L 173.008152 145.613815 
L 173.537062 148.826868 
L 174.277536 156.562846 
L 175.229573 168.428097 
L 177.662559 200.69668 
L 179.460853 218.315096 
L 179.989763 221.568178 
L 180.624455 226.090902 
L 181.153365 231.000191 
L 181.788057 236.955031 
L 182.211185 238.915574 
L 182.316967 239.058395 
L 182.528531 238.771377 
L 182.845877 236.85577 
L 183.797915 225.294017 
L 184.749953 215.289172 
L 185.384645 210.476029 
L 186.125118 205.825068 
L 186.548246 204.127133 
L 186.865592 203.199084 
L 187.28872 202.433839 
L 187.606066 201.836836 
L 188.029194 201.167989 
L 188.663886 199.910843 
L 188.981232 199.710428 
L 189.192796 199.767248 
L 189.40436 199.817877 
L 189.510142 199.941434 
L 189.827488 199.766378 
L 190.144834 198.720166 
L 190.46218 196.622191 
L 190.779526 193.193855 
L 191.308436 184.862404 
L 192.04891 168.275939 
L 192.789384 153.238492 
L 193.318294 145.951762 
L 193.847204 141.185184 
L 194.16455 138.434381 
L 194.905024 130.181746 
L 196.385972 111.279678 
L 196.597536 110.361158 
L 196.703318 110.239296 
L 196.914882 110.890414 
L 197.126445 111.971853 
L 197.866919 118.475477 
L 198.395829 122.39547 
L 199.030521 124.319541 
L 199.136303 124.381658 
L 199.242085 124.14751 
L 199.665213 124.568225 
L 199.876777 124.916161 
L 199.982559 125.028782 
L 200.828815 127.520149 
L 201.146161 128.126237 
L 201.357725 128.372386 
L 201.569289 128.27038 
L 201.992417 128.496795 
L 202.098199 128.412399 
L 203.050237 125.148072 
L 203.684929 122.209607 
L 204.636967 119.416507 
L 204.848531 119.100508 
L 205.060095 119.055686 
L 205.377441 118.500888 
L 205.483223 118.511753 
L 205.589005 118.396841 
L 205.800569 118.542545 
L 206.012133 118.30271 
L 206.223697 118.331285 
L 206.646825 118.852903 
L 207.069953 120.54152 
L 207.387299 122.577242 
L 207.810427 127.004867 
L 208.762464 139.323243 
L 209.291374 142.48889 
L 209.502938 142.958571 
L 210.243412 141.838931 
L 210.454976 141.308307 
L 210.560758 141.23837 
L 210.772322 141.812941 
L 211.19545 144.358358 
L 211.618578 149.327715 
L 212.25327 160.591131 
L 213.099526 177.489703 
L 213.628436 183.733311 
L 213.945782 185.873423 
L 214.36891 186.73015 
L 214.686256 186.403319 
L 214.89782 185.851468 
L 215.109384 185.656099 
L 215.532512 185.662854 
L 215.744076 186.372626 
L 216.061422 187.973911 
L 216.378768 190.961752 
L 217.01346 200.429986 
L 218.177062 218.09929 
L 219.023318 228.092636 
L 220.715829 244.624095 
L 221.033175 246.23769 
L 221.244739 246.406293 
L 221.350521 246.295593 
L 221.667867 244.7532 
L 222.090995 240.919677 
L 223.889289 219.760218 
L 224.206635 218.321114 
L 224.418199 218.121253 
L 224.523981 218.145895 
L 224.841327 218.936131 
L 225.793365 222.468348 
L 226.533839 222.937006 
L 226.639621 222.796332 
L 226.851185 222.87201 
L 227.062749 222.737112 
L 227.168531 222.8159 
L 227.803223 221.885804 
L 228.226351 220.333446 
L 228.543697 218.664008 
L 228.861043 216.516945 
L 229.495735 210.703825 
L 230.553555 199.395792 
L 231.294028 193.535456 
L 232.45763 185.249833 
L 233.092322 177.673722 
L 233.621232 169.773469 
L 236.371564 122.123344 
L 236.68891 119.342312 
L 237.112038 118.069231 
L 237.21782 118.113022 
L 237.429384 118.500147 
L 237.852512 120.515687 
L 238.27564 122.710409 
L 238.698768 123.89824 
L 239.016114 124.072377 
L 239.121896 123.852417 
L 239.756588 120.055141 
L 240.602844 112.057324 
L 241.237536 106.492975 
L 242.295355 99.647898 
L 242.612701 98.834445 
L 242.718483 98.83078 
L 243.035829 98.474002 
L 243.247393 98.575786 
L 243.458957 99.053585 
L 244.093649 100.544711 
L 244.410995 101.558226 
L 245.151469 104.042952 
L 245.891943 108.618048 
L 246.632417 115.561543 
L 247.478673 124.98855 
L 248.219147 130.893053 
L 248.748057 133.542497 
L 248.959621 134.104344 
L 250.017441 138.275378 
L 250.757915 144.343096 
L 252.450427 165.03412 
L 253.402464 172.300514 
L 253.931374 179.528078 
L 254.354502 186.629579 
L 255.518104 205.905025 
L 255.941232 209.722555 
L 256.152796 210.661754 
L 256.258578 210.721578 
L 256.470142 210.92932 
L 256.681706 210.576347 
L 256.999052 209.745125 
L 257.104834 209.791028 
L 257.316398 209.999766 
L 257.527962 210.678768 
L 257.739526 211.83769 
L 258.056872 214.889417 
L 258.691564 224.569949 
L 259.220474 231.950554 
L 259.53782 234.47893 
L 259.749384 234.775817 
L 259.855166 234.513583 
L 260.278294 231.153919 
L 260.912986 222.00422 
L 261.65346 212.59179 
L 262.18237 208.87578 
L 262.605498 206.862517 
L 263.24019 205.231187 
L 263.874882 204.321271 
L 264.086445 204.397347 
L 264.403791 205.390759 
L 264.721137 207.037855 
L 265.250047 209.702949 
L 265.461611 210.101988 
L 265.673175 209.960363 
L 265.884739 208.77799 
L 266.307867 204.229112 
L 266.836777 195.096707 
L 267.577251 182.182656 
L 268.000379 177.983357 
L 268.211943 176.680559 
L 268.423507 176.319654 
L 268.529289 176.344341 
L 268.846635 177.40621 
L 269.692891 181.037731 
L 269.904455 181.225495 
L 270.010237 181.109769 
L 270.116019 181.218741 
L 270.221801 181.085744 
L 270.433365 180.075398 
L 270.856493 174.927869 
L 271.279621 165.884897 
L 271.914313 146.749895 
L 273.077915 111.469214 
L 273.712607 98.482154 
L 274.135735 93.233368 
L 274.453081 91.451886 
L 274.664645 91.471138 
L 274.770427 91.491129 
L 274.981991 92.626847 
L 275.5109 96.992834 
L 276.56872 107.420573 
L 277.09763 108.90672 
L 277.203412 108.958925 
L 277.520758 108.347537 
L 278.367014 104.244341 
L 278.895924 101.782756 
L 279.107488 101.137812 
L 281.117346 88.358266 
L 281.540474 87.144888 
L 281.752038 87.239495 
L 281.85782 87.320754 
L 282.280948 88.827119 
L 282.91564 94.37856 
L 283.338768 100.252763 
L 284.185024 116.893996 
L 284.925498 130.642334 
L 285.348626 134.901509 
L 285.665972 136.568296 
L 285.877536 136.852467 
L 286.0891 137.046707 
L 286.512227 136.898269 
L 286.723791 136.659597 
L 287.041137 136.458637 
L 287.252701 136.618507 
L 287.675829 136.443259 
L 287.781611 136.512434 
L 287.993175 136.976759 
L 288.098957 137.028414 
L 288.627867 138.794025 
L 289.262559 142.162162 
L 289.791469 145.157117 
L 290.637725 150.163216 
L 291.060853 153.831244 
L 294.445877 192.707489 
L 294.974787 198.040463 
L 295.609479 202.286552 
L 296.349953 208.54806 
L 296.878863 216.080712 
L 297.936682 230.316211 
L 298.148246 231.161274 
L 298.254028 231.225304 
L 298.465592 230.077943 
L 298.677156 227.844911 
L 299.100284 219.768545 
L 300.263886 192.310722 
L 300.581232 188.716243 
L 300.792796 187.857604 
L 300.898578 187.882329 
L 301.110142 188.986833 
L 301.427488 193.094006 
L 301.850616 202.373495 
L 303.014218 233.126924 
L 303.331564 236.538518 
L 303.437346 236.850167 
L 303.543128 236.637656 
L 303.754692 235.022016 
L 304.072038 230.224406 
L 304.495166 220.311404 
L 307.033934 154.049586 
L 307.457062 148.671658 
L 307.668626 147.448627 
L 307.774408 147.305717 
L 307.88019 147.425723 
L 308.091754 148.183589 
L 308.514882 151.436227 
L 309.043791 156.625086 
L 309.361137 158.446463 
L 309.466919 158.636806 
L 309.678483 157.954872 
L 309.890047 156.155176 
L 310.313175 148.69793 
L 310.947867 131.991812 
L 311.899905 107.057121 
L 312.323033 100.647269 
L 312.746161 97.152663 
L 313.592417 92.562087 
L 314.121327 87.156774 
L 315.496493 70.637974 
L 315.813839 69.437832 
L 315.919621 69.431554 
L 316.236967 70.39496 
L 316.448531 71.834796 
L 317.083223 78.333801 
L 317.717915 86.11262 
L 318.035261 88.620568 
L 318.352607 89.533776 
L 318.669953 88.710942 
L 318.987299 86.157445 
L 319.304645 81.740996 
L 320.785592 57.358195 
L 321.20872 54.233306 
L 321.526066 53.568 
L 321.73763 53.806064 
L 322.054976 55.819634 
L 322.689668 61.795184 
L 326.392038 109.899398 
L 327.132512 114.934701 
L 327.872986 120.513903 
L 328.507678 127.152102 
L 329.14237 133.979056 
L 329.565498 137.02379 
L 329.882844 138.058427 
L 330.20019 137.988119 
L 330.517536 137.286019 
L 330.834882 136.632668 
L 331.046445 136.406918 
L 331.258009 136.808065 
L 331.681137 139.985506 
L 331.998483 143.52789 
L 332.527393 151.048017 
L 333.902559 172.748027 
L 334.854597 183.359855 
L 335.489289 193.810384 
L 336.864455 220.956912 
L 337.181801 223.562038 
L 337.393365 224.184348 
L 337.499147 224.290227 
L 337.710711 223.517355 
L 337.922275 222.63652 
L 338.874313 215.579943 
L 339.297441 211.114184 
L 342.047773 177.179927 
L 342.4709 173.781417 
L 342.788246 172.562516 
L 342.894028 172.331223 
L 343.105592 172.646904 
L 343.422938 174.140117 
L 343.634502 175.883989 
L 344.163412 184.334615 
L 344.692322 195.582545 
L 345.538578 212.28357 
L 346.067488 219.155286 
L 346.384834 221.131396 
L 346.596398 220.658707 
L 346.807962 219.946094 
L 347.019526 218.126866 
L 347.548436 209.755511 
L 348.183128 199.83674 
L 348.500474 197.435786 
L 348.712038 197.008482 
L 348.923602 197.608458 
L 349.240948 200.153328 
L 349.664076 206.447083 
L 351.568152 239.40836 
L 352.097062 243.021882 
L 352.625972 244.878789 
L 352.943318 245.104903 
L 353.0491 245.120895 
L 354.001137 244.016066 
L 354.530047 242.746121 
L 355.376303 240.058266 
L 356.328341 238.014593 
L 356.963033 236.816859 
L 357.491943 235.000447 
L 358.338199 231.695265 
L 358.867109 230.291355 
L 359.290237 229.716339 
L 359.501801 229.608782 
L 360.136493 230.118274 
L 361.088531 231.384528 
L 361.405877 231.601 
L 361.934787 232.231084 
L 362.357915 233.524485 
L 362.781043 235.893126 
L 363.204171 239.767982 
L 363.838863 248.017353 
L 364.579336 256.960271 
L 364.896682 258.810508 
L 365.108246 259.378909 
L 365.214028 259.405258 
L 365.425592 258.970972 
L 365.84872 257.228836 
L 366.37763 254.926991 
L 366.694976 254.327034 
L 366.90654 254.254892 
L 367.329668 254.864029 
L 367.96436 257.351896 
L 368.49327 259.378915 
L 369.55109 262.811954 
L 370.397346 266.866745 
L 371.243602 270.653174 
L 371.66673 271.564478 
L 371.984076 271.834227 
L 372.618768 271.772429 
L 372.830332 271.671991 
L 373.041896 271.826523 
L 373.359242 272.317443 
L 373.78237 273.720557 
L 374.522844 277.197717 
L 375.051754 279.482622 
L 375.474882 280.505931 
L 375.792227 280.743323 
L 376.109573 280.482047 
L 376.426919 279.641417 
L 377.061611 277.266812 
L 377.590521 275.330982 
L 378.013649 274.559049 
L 378.225213 274.553564 
L 378.436777 274.847462 
L 379.071469 276.564736 
L 380.023507 279.784474 
L 380.552417 280.419989 
L 380.763981 280.237037 
L 381.081327 279.248926 
L 381.610237 276.298612 
L 383.091185 267.062341 
L 383.725877 264.933586 
L 384.360569 263.61883 
L 384.783697 262.097294 
L 385.312607 258.946422 
L 386.053081 253.150418 
L 386.899336 246.882071 
L 387.322464 244.989416 
L 387.63981 244.355491 
L 387.851374 244.26765 
L 388.16872 244.542095 
L 388.803412 245.413777 
L 389.120758 245.60078 
L 389.332322 245.504343 
L 389.649668 245.202162 
L 390.178578 244.580933 
L 390.707488 243.97986 
L 391.024834 243.667655 
L 391.447962 243.295202 
L 392.611564 241.386274 
L 393.352038 239.70118 
L 394.51564 236.586833 
L 395.04455 235.355025 
L 395.467678 233.891547 
L 396.313934 230.01777 
L 396.948626 227.572649 
L 397.265972 226.749542 
L 397.6891 226.342569 
L 397.900664 226.378532 
L 398.218009 226.932225 
L 398.852701 228.862719 
L 400.016303 232.641801 
L 400.650995 233.705598 
L 401.497251 234.646805 
L 402.026161 235.564883 
L 402.660853 237.671482 
L 403.930237 243.813965 
L 406.892133 259.440721 
L 407.844171 265.42475 
L 408.478863 268.229145 
L 408.901991 269.39494 
L 410.277156 271.760772 
L 411.334976 273.846752 
L 411.863886 275.174965 
L 412.181232 276.339617 
L 412.181232 276.339617 
" clip-path="url(#pc06a7914a6)" style="fill: none; stroke: #1f77b4; stroke-width: 1.5; stroke-linecap: square"/>
   </g>
   <g id="line2d_46">
    <path d="M 60.24455 252.999287 
L 60.985024 256.002348 
L 61.619716 258.90764 
L 62.783318 265.157702 
L 63.206445 266.246988 
L 64.475829 268.415652 
L 65.004739 270.882655 
L 66.168341 276.811603 
L 66.485687 277.276164 
L 66.697251 277.105185 
L 67.014597 276.346681 
L 67.649289 273.456716 
L 68.707109 268.438206 
L 70.822749 260.705944 
L 71.774787 258.359295 
L 73.255735 255.037787 
L 73.996209 252.870741 
L 75.371374 248.221506 
L 76.111848 245.285514 
L 76.74654 244.133818 
L 77.169668 244.258527 
L 77.487014 243.738978 
L 77.698578 243.139993 
L 78.015924 241.198861 
L 78.439052 236.902083 
L 79.073744 227.235135 
L 80.025782 212.704597 
L 80.44891 209.69202 
L 80.660474 209.294305 
L 80.766256 209.317136 
L 80.97782 209.83125 
L 81.295166 211.477039 
L 82.141422 216.829752 
L 82.458768 217.328133 
L 82.670332 217.415061 
L 82.881896 217.028784 
L 83.833934 214.592174 
L 84.045498 214.62579 
L 84.468626 215.468574 
L 85.103318 217.076037 
L 85.420664 217.134307 
L 85.738009 216.737041 
L 86.055355 215.512405 
L 86.584265 212.457103 
L 87.113175 209.371491 
L 87.642085 207.537067 
L 87.959431 207.080085 
L 88.382559 207.180698 
L 88.699905 207.846228 
L 90.709763 213.388078 
L 91.556019 217.601133 
L 92.719621 224.418462 
L 93.248531 226.468248 
L 94.094787 229.0878 
L 94.835261 232.730478 
L 95.575735 236.17284 
L 95.893081 236.924394 
L 96.316209 237.221539 
L 96.9509 237.014412 
L 97.162464 236.886979 
L 97.374028 237.066087 
L 97.797156 237.752304 
L 98.220284 239.047062 
L 98.960758 242.118322 
L 100.65327 250.469666 
L 101.287962 253.887666 
L 103.086256 263.451446 
L 103.932512 266.914824 
L 104.567204 269.019928 
L 104.778768 269.2894 
L 105.096114 269.115613 
L 105.41346 268.285984 
L 105.836588 265.997684 
L 107.423318 255.056627 
L 107.846445 253.860041 
L 108.058009 253.870862 
L 108.269573 254.199792 
L 108.586919 255.106313 
L 110.173649 262.392733 
L 110.385213 262.607729 
L 110.596777 262.468391 
L 111.019905 261.548385 
L 111.654597 258.46323 
L 113.770237 246.358369 
L 114.616493 242.022061 
L 116.203223 232.964372 
L 117.366825 227.382974 
L 118.001517 220.905415 
L 119.376682 204.71409 
L 119.79981 201.766899 
L 120.117156 200.673981 
L 120.32872 200.324531 
L 120.434502 200.350468 
L 120.963412 201.258255 
L 122.338578 204.771572 
L 123.290616 208.358322 
L 123.607962 208.938739 
L 124.03109 208.898389 
L 124.348436 208.631345 
L 124.983128 207.179095 
L 125.723602 205.52531 
L 126.14673 205.266718 
L 126.67564 205.699361 
L 127.20455 206.215541 
L 128.368152 206.647074 
L 128.579716 206.947524 
L 129.425972 208.904485 
L 132.493649 214.83745 
L 132.810995 215.679458 
L 133.445687 217.553995 
L 133.763033 218.372831 
L 134.080379 218.771988 
L 134.397725 219.363841 
L 134.820853 220.551871 
L 135.243981 222.754547 
L 135.772891 227.537948 
L 137.676967 247.452303 
L 138.523223 250.817199 
L 139.369479 254.157265 
L 140.004171 257.810724 
L 140.744645 261.903618 
L 141.273555 263.789002 
L 142.754502 267.024049 
L 143.071848 267.671453 
L 143.283412 267.859399 
L 143.600758 267.551557 
L 143.918104 266.363339 
L 144.341232 263.310695 
L 146.033744 247.005394 
L 146.456872 245.05163 
L 146.88 244.251799 
L 147.091564 244.207316 
L 147.726256 244.689598 
L 147.93782 244.899664 
L 148.46673 244.614366 
L 149.52455 242.503443 
L 149.736114 242.523685 
L 150.05346 242.730328 
L 150.476588 243.765238 
L 151.957536 249.80014 
L 152.1691 249.808548 
L 152.274882 249.726211 
L 152.592227 248.803836 
L 152.909573 247.206727 
L 153.967393 239.405419 
L 154.919431 232.693618 
L 155.871469 227.093164 
L 157.987109 215.056475 
L 158.410237 213.916221 
L 158.939147 212.951055 
L 159.891185 211.944501 
L 160.631659 209.939235 
L 161.160569 208.056798 
L 161.372133 207.641196 
L 161.689479 207.093619 
L 161.901043 206.948434 
L 162.429953 207.187919 
L 163.276209 209.066453 
L 164.016682 210.981738 
L 165.074502 212.840306 
L 165.49763 213.461058 
L 165.814976 214.011109 
L 166.02654 214.168942 
L 166.55545 214.609131 
L 166.767014 214.686779 
L 167.190142 215.178002 
L 167.507488 215.698943 
L 167.930616 216.903132 
L 168.459526 219.201694 
L 168.988436 222.377575 
L 170.046256 229.524919 
L 170.363602 230.697979 
L 170.680948 231.117327 
L 170.892512 231.021601 
L 171.31564 230.134807 
L 172.479242 226.89401 
L 172.690806 226.656438 
L 172.90237 226.708992 
L 173.113934 227.052321 
L 173.537062 228.30989 
L 174.171754 231.541432 
L 175.018009 236.673654 
L 178.085687 257.055364 
L 178.931943 261.305542 
L 179.778199 264.325773 
L 180.307109 265.834981 
L 181.153365 269.275861 
L 181.788057 272.047094 
L 182.211185 272.932252 
L 182.422749 272.93167 
L 182.634313 272.545267 
L 182.845877 271.848921 
L 185.067299 260.202062 
L 186.2309 256.637446 
L 186.75981 255.800905 
L 187.394502 255.197357 
L 188.134976 254.571569 
L 188.34654 254.377679 
L 188.769668 253.972181 
L 188.981232 253.894266 
L 189.510142 253.998053 
L 189.93327 253.77227 
L 190.356398 252.776729 
L 190.779526 250.645006 
L 191.308436 246.441453 
L 192.04891 237.959518 
L 192.789384 230.132231 
L 193.318294 226.307597 
L 193.847204 223.791549 
L 194.16455 222.360963 
L 194.905024 218.223365 
L 196.28019 209.561149 
L 196.597536 208.907574 
L 196.703318 208.920791 
L 196.914882 209.381753 
L 197.126445 210.085643 
L 198.713175 216.992928 
L 199.136303 217.755849 
L 199.242085 217.737004 
L 199.876777 218.725309 
L 200.088341 219.156055 
L 201.040379 221.261942 
L 201.357725 221.632841 
L 201.569289 221.6875 
L 201.992417 221.935699 
L 202.203981 221.785434 
L 202.521327 221.462872 
L 203.156019 220.127355 
L 204.108057 218.086023 
L 204.636967 217.586338 
L 204.848531 217.518484 
L 205.165877 217.570446 
L 205.377441 217.599492 
L 206.329479 218.69534 
L 206.964171 220.117278 
L 207.387299 221.565252 
L 208.021991 225.063337 
L 208.974028 230.034469 
L 209.397156 230.995561 
L 209.714502 231.066408 
L 210.243412 230.877839 
L 210.454976 230.737983 
L 210.560758 230.757765 
L 210.772322 231.101961 
L 211.19545 232.40618 
L 211.618578 234.756171 
L 212.25327 240.008374 
L 213.099526 247.765751 
L 213.628436 250.629408 
L 213.945782 251.635026 
L 214.474692 252.10984 
L 214.686256 252.069129 
L 214.89782 251.903003 
L 215.109384 251.908989 
L 215.532512 252.113008 
L 215.849858 252.788969 
L 216.167204 253.786567 
L 216.48455 255.488405 
L 219.023318 271.587025 
L 220.504265 278.345391 
L 220.927393 279.405152 
L 221.138957 279.561134 
L 221.350521 279.449672 
L 221.667867 278.678075 
L 222.090995 276.89472 
L 223.783507 267.901077 
L 224.206635 267.025689 
L 224.418199 266.97669 
L 224.629763 267.119543 
L 225.052891 267.86955 
L 225.793365 269.237087 
L 226.533839 269.65725 
L 226.745403 269.689994 
L 227.168531 269.800668 
L 227.803223 269.521665 
L 228.226351 268.87213 
L 228.543697 268.138789 
L 228.861043 267.168154 
L 229.495735 264.493894 
L 230.659336 258.885671 
L 231.188246 256.959061 
L 232.563412 252.492895 
L 233.303886 248.262239 
L 233.832796 244.413215 
L 236.265782 225.381345 
L 236.68891 223.730491 
L 237.006256 223.2817 
L 237.21782 223.354818 
L 237.535166 223.843162 
L 238.698768 226.666699 
L 239.016114 226.941818 
L 239.227678 226.728087 
L 239.439242 226.359824 
L 239.968152 224.684261 
L 240.708626 221.823582 
L 241.660664 219.082629 
L 242.189573 218.270849 
L 242.506919 218.143495 
L 242.930047 218.357938 
L 243.353175 218.854223 
L 245.891943 224.272173 
L 246.632417 226.707592 
L 247.584455 230.587757 
L 248.642275 233.687089 
L 249.382749 234.889721 
L 249.805877 235.531188 
L 250.334787 237.038495 
L 250.652133 238.325962 
L 251.286825 241.985362 
L 252.133081 246.689627 
L 252.979336 249.833404 
L 253.402464 251.326743 
L 253.931374 254.479269 
L 254.460284 258.344209 
L 255.200758 263.770739 
L 255.729668 266.43237 
L 256.152796 267.379232 
L 256.575924 267.420877 
L 257.104834 267.040202 
L 257.42218 267.242398 
L 257.739526 267.881619 
L 258.162654 269.63968 
L 259.326256 276.152479 
L 259.643602 276.738222 
L 259.749384 276.744663 
L 259.960948 276.345274 
L 260.278294 275.232646 
L 261.970806 267.072627 
L 262.71128 265.772575 
L 263.980664 264.756883 
L 264.192227 264.85406 
L 264.615355 265.54129 
L 265.250047 266.890982 
L 265.461611 267.057005 
L 265.673175 266.983166 
L 265.884739 266.467291 
L 266.307867 264.490098 
L 266.836777 260.536859 
L 267.577251 255.056001 
L 268.000379 253.351157 
L 268.211943 252.859886 
L 268.423507 252.767972 
L 268.635071 252.959546 
L 269.269763 254.227302 
L 269.587109 254.839106 
L 269.904455 255.022873 
L 270.327583 254.798018 
L 270.539147 254.092549 
L 270.962275 251.562439 
L 271.491185 246.087197 
L 273.606825 220.428537 
L 274.135735 217.235459 
L 274.453081 216.439302 
L 274.664645 216.424054 
L 274.770427 216.473212 
L 274.981991 217.002283 
L 275.5109 219.145759 
L 276.886066 225.71952 
L 277.309194 226.265497 
L 277.62654 226.192965 
L 279.107488 223.433841 
L 280.694218 218.586978 
L 281.117346 217.875001 
L 281.540474 217.724447 
L 281.85782 218.061934 
L 282.280948 219.055423 
L 283.021422 222.515611 
L 283.550332 226.222807 
L 285.03128 237.278437 
L 285.454408 238.523037 
L 285.771754 238.922446 
L 287.358483 238.751011 
L 287.887393 238.837339 
L 288.310521 239.204608 
L 288.839431 240.044256 
L 289.262559 241.042853 
L 289.897251 242.481629 
L 290.637725 244.336414 
L 291.166635 246.417369 
L 292.859147 254.440823 
L 293.916967 259.415845 
L 295.292133 265.237676 
L 295.821043 266.691944 
L 296.349953 268.528156 
L 296.984645 271.877625 
L 297.619336 275.272769 
L 298.042464 276.36868 
L 298.254028 276.400382 
L 298.465592 275.867042 
L 298.782938 274.261157 
L 299.311848 269.619569 
L 300.158104 261.917406 
L 300.581232 260.040313 
L 300.792796 259.82347 
L 300.898578 259.896003 
L 301.110142 260.449477 
L 301.427488 262.235427 
L 301.850616 266.095145 
L 303.014218 278.355993 
L 303.331564 279.61975 
L 303.437346 279.693533 
L 303.543128 279.562142 
L 303.860474 278.281932 
L 304.283602 274.925687 
L 307.139716 245.487547 
L 307.562844 243.714437 
L 307.774408 243.493004 
L 307.985972 243.679059 
L 308.303318 244.497914 
L 308.832227 246.6794 
L 309.255355 248.048862 
L 309.466919 248.3493 
L 309.678483 248.147196 
L 309.890047 247.46888 
L 310.313175 244.537734 
L 310.842085 239.033533 
L 312.005687 226.646402 
L 312.428815 224.173099 
L 312.851943 222.787651 
L 313.486635 221.248502 
L 313.909763 219.728299 
L 315.073365 214.643791 
L 315.496493 213.548928 
L 315.813839 213.450532 
L 316.025403 213.784888 
L 316.554313 215.445114 
L 318.035261 221.859542 
L 318.352607 222.203273 
L 318.669953 221.930038 
L 318.987299 221.025603 
L 319.410427 218.801867 
L 320.67981 211.755464 
L 320.997156 211.047257 
L 321.20872 210.968099 
L 321.526066 211.320078 
L 321.843412 212.222964 
L 323.112796 218.220258 
L 324.805308 226.216089 
L 326.286256 234.229529 
L 326.815166 236.15299 
L 328.296114 240.936366 
L 329.248152 245.148063 
L 329.565498 246.119553 
L 329.882844 246.715311 
L 330.20019 246.906479 
L 330.623318 246.827897 
L 330.940664 246.851868 
L 331.152227 246.991798 
L 331.363791 247.434024 
L 331.786919 248.811903 
L 332.738957 253.816725 
L 333.585213 258.447024 
L 334.537251 262.463476 
L 334.960379 264.319091 
L 335.700853 269.032036 
L 336.652891 275.581967 
L 337.076019 277.138534 
L 337.393365 277.542185 
L 337.604929 277.493034 
L 338.239621 276.544637 
L 339.085877 274.396653 
L 340.037915 270.546224 
L 341.307299 265.036452 
L 342.047773 262.306487 
L 342.4709 261.160313 
L 342.894028 260.592685 
L 343.211374 260.576117 
L 343.52872 260.741476 
L 343.846066 261.503774 
L 344.374976 263.407769 
L 345.009668 266.062224 
L 345.750142 268.354738 
L 346.17327 268.838696 
L 346.384834 268.668799 
L 346.913744 266.504861 
L 347.336872 263.094886 
L 348.28891 255.549508 
L 348.606256 254.642414 
L 348.712038 254.607142 
L 348.923602 254.87939 
L 349.240948 256.12285 
L 349.664076 259.184123 
L 351.568152 275.262983 
L 352.097062 277.172629 
L 352.625972 278.311477 
L 353.0491 278.658521 
L 354.106919 278.62942 
L 354.847393 278.078556 
L 355.693649 277.323274 
L 356.645687 276.954383 
L 357.068815 276.579821 
L 358.126635 274.786964 
L 358.867109 273.744019 
L 359.290237 273.479721 
L 359.607583 273.468757 
L 360.136493 273.671636 
L 361.194313 274.268746 
L 361.934787 274.671057 
L 362.463697 275.514325 
L 362.992607 277.091852 
L 363.627299 280.369101 
L 364.579336 285.482149 
L 364.896682 286.293234 
L 365.108246 286.560574 
L 365.31981 286.529012 
L 365.637156 286.114386 
L 366.483412 284.810554 
L 366.800758 284.722772 
L 367.223886 284.979993 
L 367.541232 285.455774 
L 368.599052 287.216256 
L 369.974218 289.019584 
L 371.13782 291.060083 
L 371.455166 291.389177 
L 372.089858 291.524384 
L 373.147678 291.519824 
L 373.570806 291.939366 
L 374.099716 292.914914 
L 375.263318 295.04797 
L 375.792227 295.366949 
L 376.215355 295.237658 
L 376.744265 294.591678 
L 378.013649 293.025335 
L 378.330995 293.067761 
L 378.754123 293.450569 
L 380.446635 295.464399 
L 380.658199 295.468754 
L 380.869763 295.318925 
L 381.187109 294.786743 
L 381.504455 294.051333 
L 382.985403 290.058252 
L 383.514313 289.256485 
L 384.043223 288.783124 
L 384.466351 288.367336 
L 384.889479 287.610827 
L 385.418389 286.139336 
L 387.005118 280.931481 
L 387.428246 280.227001 
L 387.851374 280.035566 
L 388.274502 280.224631 
L 388.803412 280.533139 
L 389.22654 280.628229 
L 390.390142 280.149428 
L 391.130616 279.858245 
L 392.082654 279.433273 
L 392.823128 279.060347 
L 393.45782 278.585163 
L 395.361896 276.811312 
L 397.265972 273.73572 
L 397.794882 273.625862 
L 398.112227 273.864579 
L 398.641137 274.562029 
L 400.016303 276.661369 
L 400.650995 277.063833 
L 401.708815 277.357741 
L 402.131943 277.689884 
L 402.660853 278.416 
L 404.036019 281.231777 
L 406.574787 286.407904 
L 408.161517 290.452318 
L 408.901991 291.522779 
L 410.171374 292.478597 
L 410.700284 292.897293 
L 412.07545 294.470304 
L 412.181232 294.646478 
L 412.181232 294.646478 
" clip-path="url(#pc06a7914a6)" style="fill: none; stroke-dasharray: 1.5,2.475; stroke-dashoffset: 0; stroke: #ff7f0e; stroke-width: 1.5"/>
   </g>
   <g id="line2d_47">
    <path d="M 60.24455 256.425774 
L 60.77346 258.563476 
L 61.619716 261.841696 
L 62.783318 267.250975 
L 63.206445 268.126295 
L 63.629573 268.527359 
L 63.841137 268.759324 
L 64.264265 269.459207 
L 64.581611 270.341115 
L 65.004739 272.286141 
L 66.168341 277.999481 
L 66.485687 278.470857 
L 66.697251 278.329706 
L 66.908815 277.938641 
L 67.331943 276.440647 
L 68.601327 270.687663 
L 70.822749 263.823886 
L 72.092133 261.176992 
L 72.832607 259.532789 
L 74.736682 254.661434 
L 76.429194 248.788944 
L 76.74654 248.337623 
L 77.169668 248.500258 
L 77.487014 248.141174 
L 77.698578 247.743652 
L 78.015924 246.156814 
L 78.439052 242.527512 
L 79.073744 234.05799 
L 80.025782 221.19868 
L 80.44891 218.577509 
L 80.660474 218.305894 
L 80.766256 218.336753 
L 80.97782 218.838858 
L 81.295166 220.347125 
L 82.141422 225.035056 
L 82.458768 225.304658 
L 82.56455 225.341498 
L 82.776114 225.006534 
L 83.516588 222.551745 
L 83.939716 221.374957 
L 84.15128 221.286004 
L 85.2091 222.064793 
L 85.738009 221.160522 
L 86.161137 219.179113 
L 87.536303 211.724627 
L 87.959431 210.943436 
L 88.170995 210.897707 
L 88.382559 210.955163 
L 88.699905 211.546046 
L 89.969289 214.537584 
L 90.498199 215.793702 
L 90.815545 216.870025 
L 91.556019 220.467435 
L 92.931185 229.045444 
L 93.671659 231.939486 
L 94.094787 233.452405 
L 94.941043 238.047491 
L 95.575735 241.250838 
L 95.998863 242.23931 
L 96.210427 242.49317 
L 96.9509 242.235483 
L 97.162464 242.003217 
L 97.374028 242.025602 
L 97.585592 242.184086 
L 98.00872 242.702615 
L 98.53763 244.145685 
L 99.489668 247.975369 
L 101.922654 260.920614 
L 102.663128 264.763205 
L 103.509384 268.157942 
L 104.672986 271.971937 
L 104.88455 272.074046 
L 105.096114 272.023148 
L 105.41346 271.282061 
L 105.836588 269.14203 
L 107.423318 258.457877 
L 107.846445 257.193762 
L 108.058009 257.141022 
L 108.269573 257.363915 
L 108.586919 258.064611 
L 110.279431 264.546485 
L 110.490995 264.618074 
L 110.702559 264.455614 
L 111.019905 263.945681 
L 111.654597 261.482873 
L 112.712417 255.598418 
L 113.770237 250.147039 
L 114.616493 246.128812 
L 116.203223 237.81493 
L 117.366825 232.532885 
L 118.001517 226.693701 
L 119.376682 211.877103 
L 119.905592 208.438146 
L 120.222938 207.40103 
L 120.434502 207.134073 
L 120.85763 207.365945 
L 121.38654 207.910362 
L 121.492322 207.85708 
L 121.809668 208.25257 
L 122.232796 208.951292 
L 123.184834 211.243989 
L 123.50218 211.553577 
L 123.607962 211.59537 
L 124.348436 210.714914 
L 124.665782 210.000798 
L 125.723602 208.259281 
L 126.14673 208.227721 
L 127.20455 209.039678 
L 127.521896 208.799448 
L 127.839242 208.504621 
L 128.156588 208.176442 
L 128.473934 207.978233 
L 128.579716 207.978464 
L 129.425972 209.087631 
L 130.060664 210.284401 
L 131.012701 213.844964 
L 131.435829 215.860869 
L 132.916777 223.675217 
L 135.032417 237.498832 
L 135.984455 242.14816 
L 136.513365 243.985541 
L 137.253839 245.370346 
L 138.100095 245.953984 
L 138.523223 246.790122 
L 138.946351 248.506666 
L 139.475261 252.176707 
L 140.638863 260.751986 
L 141.167773 262.329097 
L 141.379336 262.641906 
L 141.485118 262.601618 
L 142.014028 263.129173 
L 142.331374 263.886281 
L 142.754502 265.853471 
L 143.918104 271.877246 
L 144.23545 272.434532 
L 144.447014 272.215467 
L 144.658578 271.760969 
L 145.399052 268.560935 
L 146.88 262.102924 
L 147.620474 260.376212 
L 148.043602 259.566287 
L 149.101422 255.509702 
L 151.11128 244.245291 
L 151.428626 243.66799 
L 151.64019 243.625514 
L 151.851754 243.876655 
L 152.274882 244.887238 
L 152.803791 246.594468 
L 153.226919 247.017385 
L 153.650047 246.353891 
L 154.073175 244.820501 
L 154.390521 243.275343 
L 155.448341 236.222939 
L 156.929289 226.075939 
L 158.092891 219.395889 
L 158.621801 217.720182 
L 159.256493 215.985938 
L 159.785403 214.655 
L 160.102749 213.547218 
L 161.160569 209.145712 
L 161.795261 207.921796 
L 162.006825 207.94162 
L 162.429953 208.222771 
L 163.9109 211.034487 
L 164.334028 211.127395 
L 164.651374 210.920621 
L 165.391848 210.305093 
L 165.603412 210.223516 
L 165.814976 210.171655 
L 166.132322 209.944762 
L 166.872796 209.839112 
L 167.08436 209.988996 
L 167.61327 211.126024 
L 168.036398 212.866059 
L 168.565308 216.04641 
L 170.25782 228.206928 
L 170.575166 228.897586 
L 170.78673 228.955067 
L 170.998294 228.705402 
L 172.479242 225.130817 
L 172.690806 225.005095 
L 172.90237 225.174963 
L 173.113934 225.631852 
L 173.642844 227.563598 
L 174.912227 234.7066 
L 178.085687 255.167913 
L 178.931943 259.598147 
L 179.778199 262.736788 
L 180.307109 264.387126 
L 181.153365 268.261432 
L 181.788057 271.445038 
L 182.211185 272.520423 
L 182.422749 272.578359 
L 182.528531 272.49099 
L 182.845877 271.543951 
L 183.692133 266.32498 
L 184.538389 261.420851 
L 185.384645 257.897481 
L 186.125118 255.469868 
L 186.654028 254.328245 
L 187.81763 253.129567 
L 188.029194 253.01686 
L 188.663886 252.437038 
L 189.298578 252.385734 
L 189.721706 252.438413 
L 189.93327 252.236843 
L 190.356398 251.229758 
L 190.779526 249.085951 
L 191.308436 244.958052 
L 192.04891 236.853522 
L 192.683602 230.490274 
L 193.318294 226.181267 
L 193.847204 223.930738 
L 194.058768 223.09316 
L 194.799242 219.217984 
L 196.491754 208.210287 
L 196.703318 207.855607 
L 196.914882 208.045763 
L 197.020664 208.151252 
L 197.443791 209.519717 
L 198.078483 211.856904 
L 198.501611 212.830449 
L 198.713175 213.069839 
L 199.136303 213.162911 
L 199.347867 212.893505 
L 199.982559 212.680481 
L 200.617251 213.077578 
L 200.828815 213.167674 
L 201.146161 213.258589 
L 201.357725 213.276648 
L 201.569289 213.119982 
L 202.098199 213.035235 
L 204.742749 208.239956 
L 206.117915 206.504798 
L 206.435261 206.260746 
L 206.646825 206.150921 
L 206.964171 206.47014 
L 207.175735 206.875766 
L 207.598863 208.576404 
L 208.127773 212.11175 
L 208.868246 216.966188 
L 209.185592 218.048164 
L 209.502938 218.432869 
L 210.243412 217.498194 
L 210.454976 217.107425 
L 210.560758 217.017706 
L 210.772322 217.248082 
L 211.19545 218.48928 
L 211.618578 221.108647 
L 212.25327 227.119859 
L 213.099526 236.261054 
L 213.628436 239.641004 
L 213.945782 240.775498 
L 214.36891 241.14923 
L 214.686256 240.871292 
L 215.003602 240.321839 
L 215.638294 240.187236 
L 216.061422 241.118489 
L 216.378768 242.652801 
L 216.907678 246.877617 
L 218.811754 261.748406 
L 220.398483 270.901615 
L 220.927393 273.043819 
L 221.138957 273.385427 
L 221.350521 273.383023 
L 221.667867 272.612227 
L 222.090995 270.562059 
L 223.889289 258.683867 
L 224.206635 257.832527 
L 224.523981 257.669956 
L 224.841327 258.039472 
L 225.687583 259.656131 
L 225.899147 259.776638 
L 226.216493 259.80663 
L 227.274313 259.461873 
L 227.697441 259.015369 
L 228.014787 258.560129 
L 228.755261 256.397611 
L 229.813081 250.783272 
L 230.8709 245.111934 
L 232.351848 239.345292 
L 232.774976 236.795406 
L 233.51545 231.244574 
L 234.679052 219.326823 
L 236.265782 204.433391 
L 236.68891 202.148922 
L 237.112038 201.315224 
L 237.323602 201.342738 
L 237.429384 201.413531 
L 237.958294 202.656207 
L 238.381422 203.496716 
L 238.80455 203.760667 
L 239.121896 203.494695 
L 239.86237 200.588192 
L 241.131754 193.340172 
L 242.506919 187.397465 
L 243.035829 186.555316 
L 243.353175 186.415021 
L 243.564739 186.567089 
L 243.882085 186.573178 
L 245.045687 187.941934 
L 245.363033 188.822118 
L 245.891943 190.882977 
L 246.632417 195.391053 
L 247.372891 200.675218 
L 248.007583 204.027274 
L 248.536493 205.635322 
L 248.853839 206.26099 
L 250.017441 208.770836 
L 250.863697 212.788232 
L 252.556209 223.937511 
L 253.508246 228.181192 
L 254.24872 234.511994 
L 255.518104 246.941044 
L 255.941232 249.247929 
L 256.152796 249.819624 
L 256.575924 249.904052 
L 257.210616 249.328143 
L 257.42218 249.551705 
L 257.739526 250.493172 
L 258.056872 252.334016 
L 258.691564 258.214764 
L 259.326256 263.450062 
L 259.643602 264.493596 
L 259.749384 264.568256 
L 259.855166 264.431151 
L 260.278294 262.458374 
L 260.912986 256.971756 
L 261.65346 251.172856 
L 262.18237 248.801513 
L 262.605498 247.502925 
L 263.24019 246.519956 
L 263.7691 246.074248 
L 264.086445 246.160866 
L 264.509573 247.03341 
L 265.355829 249.521966 
L 265.567393 249.55368 
L 265.673175 249.514299 
L 265.884739 248.847801 
L 266.307867 246.276116 
L 266.836777 241.096951 
L 267.683033 232.87628 
L 268.106161 230.651878 
L 268.423507 230.088784 
L 268.529289 230.073379 
L 268.846635 230.606065 
L 269.798673 232.744322 
L 270.221801 232.665607 
L 270.433365 232.065386 
L 270.856493 229.111598 
L 271.279621 223.877522 
L 271.914313 212.828904 
L 272.972133 194.044375 
L 273.712607 185.392601 
L 274.135735 182.535012 
L 274.453081 181.549686 
L 274.770427 181.555019 
L 274.981991 182.161666 
L 275.616682 184.931076 
L 276.357156 188.664247 
L 276.674502 189.307918 
L 276.886066 189.590669 
L 277.520758 188.582158 
L 278.790142 184.670817 
L 279.530616 183.119882 
L 280.059526 181.16745 
L 281.223128 176.713866 
L 281.646256 175.884296 
L 281.85782 175.795922 
L 282.069384 175.96859 
L 282.175166 176.008422 
L 282.598294 177.344013 
L 283.232986 181.232604 
L 283.761896 186.658998 
L 285.137062 201.938734 
L 285.56019 203.946897 
L 285.771754 204.480926 
L 285.983318 204.592062 
L 286.194882 204.634648 
L 286.406445 204.606385 
L 286.512227 204.629085 
L 286.723791 204.46451 
L 287.146919 204.376268 
L 287.464265 204.369809 
L 287.781611 204.319654 
L 287.993175 204.612867 
L 288.098957 204.62148 
L 288.627867 205.679034 
L 289.262559 207.65641 
L 289.791469 209.4374 
L 290.637725 212.363904 
L 291.060853 214.451911 
L 294.022749 233.930528 
L 294.657441 238.624946 
L 295.609479 242.75347 
L 296.244171 245.748774 
L 296.878863 251.312436 
L 297.936682 260.634353 
L 298.148246 261.261755 
L 298.254028 261.362024 
L 298.35981 261.180725 
L 298.677156 259.447826 
L 299.100284 254.592136 
L 300.263886 237.564316 
L 300.581232 235.213032 
L 300.792796 234.571235 
L 300.898578 234.523428 
L 301.110142 235.074457 
L 301.427488 237.395682 
L 301.850616 242.815452 
L 303.014218 261.308033 
L 303.331564 263.45587 
L 303.437346 263.693736 
L 303.543128 263.612616 
L 303.754692 262.718127 
L 304.072038 259.972858 
L 304.495166 254.19687 
L 307.139716 213.507355 
L 307.562844 210.736944 
L 307.774408 210.349816 
L 307.985972 210.607955 
L 308.197536 211.255335 
L 308.620664 213.45877 
L 309.043791 215.709309 
L 309.361137 216.726375 
L 309.466919 216.824607 
L 309.678483 216.344778 
L 309.890047 215.223398 
L 310.313175 210.697298 
L 310.947867 200.718569 
L 311.794123 187.356242 
L 312.217251 183.107082 
L 312.746161 180.636048 
L 313.486635 178.645953 
L 313.909763 176.43739 
L 315.708057 162.769909 
L 315.919621 162.399341 
L 316.131185 162.585789 
L 316.236967 162.648559 
L 316.448531 163.363905 
L 316.977441 166.348781 
L 317.400569 169.601511 
L 317.823697 172.372209 
L 318.141043 173.48826 
L 318.352607 173.867605 
L 318.669953 173.318006 
L 318.987299 171.668944 
L 319.304645 168.816968 
L 320.997156 150.918243 
L 321.314502 149.461925 
L 321.526066 148.785024 
L 321.73763 148.525908 
L 321.843412 148.648303 
L 322.26654 150.034381 
L 322.689668 152.282877 
L 323.85327 162.205702 
L 325.863128 178.952865 
L 326.286256 181.170458 
L 326.603602 182.414578 
L 327.661422 186.387046 
L 328.401896 190.915196 
L 329.14237 195.771445 
L 329.565498 197.44134 
L 329.777062 197.814557 
L 329.882844 197.880218 
L 330.20019 197.618741 
L 330.623318 196.705779 
L 330.940664 196.218092 
L 331.152227 196.076071 
L 331.258009 196.198005 
L 331.681137 198.059548 
L 331.998483 200.237237 
L 332.421611 204.092819 
L 332.844739 208.769289 
L 333.690995 217.675827 
L 334.325687 222.57121 
L 335.066161 228.136823 
L 335.595071 234.275155 
L 336.864455 251.000347 
L 337.181801 252.761081 
L 337.393365 253.179264 
L 337.499147 253.255047 
L 337.710711 252.699506 
L 337.922275 252.069315 
L 338.874313 247.073178 
L 339.297441 244.034452 
L 341.836209 222.762808 
L 342.576682 218.831384 
L 342.894028 218.275639 
L 343.105592 218.630381 
L 343.422938 220.007434 
L 343.634502 221.492057 
L 344.163412 228.277745 
L 344.798104 239.144079 
L 345.750142 253.522917 
L 346.279052 258.461319 
L 346.490616 259.202449 
L 346.807962 259.431722 
L 346.913744 259.289388 
L 347.125308 258.284818 
L 348.500474 249.136855 
L 348.712038 248.938441 
L 348.923602 249.26617 
L 349.240948 250.56758 
L 349.664076 253.800062 
L 351.568152 270.682479 
L 351.99128 272.217628 
L 352.625972 273.104414 
L 353.0491 272.999476 
L 354.106919 271.698422 
L 354.953175 269.966627 
L 355.799431 268.228864 
L 357.068815 266.466789 
L 358.655545 263.337165 
L 359.078673 262.864882 
L 359.501801 262.711743 
L 360.136493 262.98374 
L 361.088531 263.670752 
L 361.723223 263.926125 
L 362.040569 264.233621 
L 362.357915 264.772444 
L 362.781043 266.063864 
L 363.204171 268.242308 
L 363.838863 272.930029 
L 364.579336 278.015224 
L 364.896682 279.054375 
L 365.108246 279.355437 
L 365.31981 279.26178 
L 365.637156 278.603177 
L 366.589194 276.240038 
L 366.90654 276.033846 
L 367.329668 276.300001 
L 367.858578 277.396096 
L 369.02218 279.905406 
L 369.762654 281.609611 
L 371.349384 286.192252 
L 371.772512 286.705081 
L 372.19564 286.868359 
L 373.041896 286.903705 
L 373.465024 287.333276 
L 373.888152 288.214687 
L 375.263318 291.599693 
L 375.580664 291.87268 
L 375.898009 291.86097 
L 376.215355 291.553895 
L 376.744265 290.447317 
L 377.802085 288.21777 
L 378.119431 288.055463 
L 378.330995 288.137658 
L 378.754123 288.686472 
L 380.340853 291.420963 
L 380.658199 291.427825 
L 380.869763 291.210554 
L 381.292891 290.229306 
L 382.033365 287.406866 
L 382.879621 284.322049 
L 383.514313 282.834458 
L 384.043223 282.082779 
L 384.466351 281.470199 
L 384.889479 280.484347 
L 385.418389 278.608562 
L 387.1109 271.642046 
L 387.534028 270.908811 
L 387.851374 270.769186 
L 388.16872 270.928729 
L 388.909194 271.470265 
L 389.22654 271.500835 
L 389.861232 271.061822 
L 390.495924 270.63173 
L 391.130616 270.283168 
L 391.765308 269.789855 
L 393.45782 267.339391 
L 394.938768 264.835388 
L 395.467678 263.796146 
L 397.371754 259.464646 
L 397.794882 259.216901 
L 398.112227 259.383744 
L 398.641137 260.073684 
L 400.122085 262.640365 
L 401.179905 263.636537 
L 402.131943 264.719839 
L 402.872417 266.307167 
L 404.247583 270.322641 
L 406.574787 277.455655 
L 407.949953 282.496474 
L 408.690427 284.151898 
L 411.969668 287.766352 
L 412.181232 288.230241 
L 412.181232 288.230241 
" clip-path="url(#pc06a7914a6)" style="fill: none; stroke-dasharray: 5.55,2.4; stroke-dashoffset: 0; stroke: #2ca02c; stroke-width: 1.5"/>
   </g>
   <g id="patch_3">
    <path d="M 57.6 307.584 
L 57.6 41.472 
" style="fill: none; stroke: #000000; stroke-width: 0.8; stroke-linejoin: miter; stroke-linecap: square"/>
   </g>
   <g id="patch_4">
    <path d="M 414.72 307.584 
L 414.72 41.472 
" style="fill: none; stroke: #000000; stroke-width: 0.8; stroke-linejoin: miter; stroke-linecap: square"/>
   </g>
   <g id="patch_5">
    <path d="M 57.6 307.584 
L 414.72 307.584 
" style="fill: none; stroke: #000000; stroke-width: 0.8; stroke-linejoin: miter; stroke-linecap: square"/>
   </g>
   <g id="patch_6">
    <path d="M 57.6 41.472 
L 414.72 41.472 
" style="fill: none; stroke: #000000; stroke-width: 0.8; stroke-linejoin: miter; stroke-linecap: square"/>
   </g>
   <g id="legend_1">
    <g id="patch_7">
     <path d="M 351.137188 93.506375 
L 407.72 93.506375 
Q 409.72 93.506375 409.72 91.506375 
L 409.72 48.472 
Q 409.72 46.472 407.72 46.472 
L 351.137188 46.472 
Q 349.137188 46.472 349.137188 48.472 
L 349.137188 91.506375 
Q 349.137188 93.506375 351.137188 93.506375 
z
" style="fill: #ffffff; opacity: 0.8; stroke: #cccccc; stroke-linejoin: miter"/>
    </g>
    <g id="line2d_48">
     <path d="M 353.137188 54.570438 
L 363.137188 54.570438 
L 373.137188 54.570438 
" style="fill: none; stroke: #1f77b4; stroke-width: 1.5; stroke-linecap: square"/>
    </g>
    <g id="text_18">
     <!-- Total -->
     <g transform="translate(381.137188 58.070438) scale(0.1 -0.1)">
      <defs>
       <path id="DejaVuSans-54" d="M -19 4666 
L 3928 4666 
L 3928 4134 
L 2272 4134 
L 2272 0 
L 1638 0 
L 1638 4134 
L -19 4134 
L -19 4666 
z
" transform="scale(0.015625)"/>
       <path id="DejaVuSans-6c" d="M 603 4863 
L 1178 4863 
L 1178 0 
L 603 0 
L 603 4863 
z
" transform="scale(0.015625)"/>
      </defs>
      <use xlink:href="#DejaVuSans-54"/>
      <use xlink:href="#DejaVuSans-6f" x="44.083984"/>
      <use xlink:href="#DejaVuSans-74" x="105.265625"/>
      <use xlink:href="#DejaVuSans-61" x="144.474609"/>
      <use xlink:href="#DejaVuSans-6c" x="205.753906"/>
     </g>
    </g>
    <g id="line2d_49">
     <path d="M 353.137188 69.248563 
L 363.137188 69.248563 
L 373.137188 69.248563 
" style="fill: none; stroke-dasharray: 1.5,2.475; stroke-dashoffset: 0; stroke: #ff7f0e; stroke-width: 1.5"/>
    </g>
    <g id="text_19">
     <!-- East -->
     <g transform="translate(381.137188 72.748563) scale(0.1 -0.1)">
      <defs>
       <path id="DejaVuSans-45" d="M 628 4666 
L 3578 4666 
L 3578 4134 
L 1259 4134 
L 1259 2753 
L 3481 2753 
L 3481 2222 
L 1259 2222 
L 1259 531 
L 3634 531 
L 3634 0 
L 628 0 
L 628 4666 
z
" transform="scale(0.015625)"/>
      </defs>
      <use xlink:href="#DejaVuSans-45"/>
      <use xlink:href="#DejaVuSans-61" x="63.183594"/>
      <use xlink:href="#DejaVuSans-73" x="124.462891"/>
      <use xlink:href="#DejaVuSans-74" x="176.5625"/>
     </g>
    </g>
    <g id="line2d_50">
     <path d="M 353.137188 83.926688 
L 363.137188 83.926688 
L 373.137188 83.926688 
" style="fill: none; stroke-dasharray: 5.55,2.4; stroke-dashoffset: 0; stroke: #2ca02c; stroke-width: 1.5"/>
    </g>
    <g id="text_20">
     <!-- West -->
     <g transform="translate(381.137188 87.426688) scale(0.1 -0.1)">
      <defs>
       <path id="DejaVuSans-57" d="M 213 4666 
L 850 4666 
L 1831 722 
L 2809 4666 
L 3519 4666 
L 4500 722 
L 5478 4666 
L 6119 4666 
L 4947 0 
L 4153 0 
L 3169 4050 
L 2175 0 
L 1381 0 
L 213 4666 
z
" transform="scale(0.015625)"/>
      </defs>
      <use xlink:href="#DejaVuSans-57"/>
      <use xlink:href="#DejaVuSans-65" x="93.001953"/>
      <use xlink:href="#DejaVuSans-73" x="154.525391"/>
      <use xlink:href="#DejaVuSans-74" x="206.625"/>
     </g>
    </g>
   </g>
  </g>
 </g>
 <defs>
  <clipPath id="pc06a7914a6">
   <rect x="57.6" y="41.472" width="357.12" height="266.112"/>
  </clipPath>
 </defs>
</svg>
