<?xml version="1.0" encoding="utf-8" standalone="no"?>
<!DOCTYPE svg PUBLIC "-//W3C//DTD SVG 1.1//EN"
  "http://www.w3.org/Graphics/SVG/1.1/DTD/svg11.dtd">
<svg xmlns:xlink="http://www.w3.org/1999/xlink" width="460.8pt" height="345.6pt" viewBox="0 0 460.8 345.6" xmlns="http://www.w3.org/2000/svg" version="1.1">
 <metadata>
  <rdf:RDF xmlns:dc="http://purl.org/dc/elements/1.1/" xmlns:cc="http://creativecommons.org/ns#" xmlns:rdf="http://www.w3.org/1999/02/22-rdf-syntax-ns#">
   <cc:Work>
    <dc:type rdf:resource="http://purl.org/dc/dcmitype/StillImage"/>
    <dc:date>2023-07-18T19:22:23.143655</dc:date>
    <dc:format>image/svg+xml</dc:format>
    <dc:creator>
     <cc:Agent>
      <dc:title>Matplotlib v3.7.1, https://matplotlib.org/</dc:title>
     </cc:Agent>
    </dc:creator>
   </cc:Work>
  </rdf:RDF>
 </metadata>
 <defs>
  <style type="text/css">*{stroke-linejoin: round; stroke-linecap: butt}</style>
 </defs>
 <g id="figure_1">
  <g id="patch_1">
   <path d="M 0 345.6 
L 460.8 345.6 
L 460.8 0 
L 0 0 
z
" style="fill: #ffffff"/>
  </g>
  <g id="axes_1">
   <g id="patch_2">
    <path d="M 57.6 307.584 
L 414.72 307.584 
L 414.72 41.472 
L 57.6 41.472 
z
" style="fill: #ffffff"/>
   </g>
   <g id="matplotlib.axis_1">
    <g id="xtick_1">
     <g id="line2d_1">
      <defs>
       <path id="me362b3ebb9" d="M 0 0 
L 0 3.5 
" style="stroke: #000000; stroke-width: 0.8"/>
      </defs>
      <g>
       <use xlink:href="#me362b3ebb9" x="57.6" y="307.584" style="stroke: #000000; stroke-width: 0.8"/>
      </g>
     </g>
    </g>
    <g id="xtick_2">
     <g id="line2d_2">
      <g>
       <use xlink:href="#me362b3ebb9" x="67.231867" y="307.584" style="stroke: #000000; stroke-width: 0.8"/>
      </g>
     </g>
     <g id="text_1">
      <!-- 2013 -->
      <g transform="translate(54.506867 322.182437) scale(0.1 -0.1)">
       <defs>
        <path id="DejaVuSans-32" d="M 1228 531 
L 3431 531 
L 3431 0 
L 469 0 
L 469 531 
Q 828 903 1448 1529 
Q 2069 2156 2228 2338 
Q 2531 2678 2651 2914 
Q 2772 3150 2772 3378 
Q 2772 3750 2511 3984 
Q 2250 4219 1831 4219 
Q 1534 4219 1204 4116 
Q 875 4013 500 3803 
L 500 4441 
Q 881 4594 1212 4672 
Q 1544 4750 1819 4750 
Q 2544 4750 2975 4387 
Q 3406 4025 3406 3419 
Q 3406 3131 3298 2873 
Q 3191 2616 2906 2266 
Q 2828 2175 2409 1742 
Q 1991 1309 1228 531 
z
" transform="scale(0.015625)"/>
        <path id="DejaVuSans-30" d="M 2034 4250 
Q 1547 4250 1301 3770 
Q 1056 3291 1056 2328 
Q 1056 1369 1301 889 
Q 1547 409 2034 409 
Q 2525 409 2770 889 
Q 3016 1369 3016 2328 
Q 3016 3291 2770 3770 
Q 2525 4250 2034 4250 
z
M 2034 4750 
Q 2819 4750 3233 4129 
Q 3647 3509 3647 2328 
Q 3647 1150 3233 529 
Q 2819 -91 2034 -91 
Q 1250 -91 836 529 
Q 422 1150 422 2328 
Q 422 3509 836 4129 
Q 1250 4750 2034 4750 
z
" transform="scale(0.015625)"/>
        <path id="DejaVuSans-31" d="M 794 531 
L 1825 531 
L 1825 4091 
L 703 3866 
L 703 4441 
L 1819 4666 
L 2450 4666 
L 2450 531 
L 3481 531 
L 3481 0 
L 794 0 
L 794 531 
z
" transform="scale(0.015625)"/>
        <path id="DejaVuSans-33" d="M 2597 2516 
Q 3050 2419 3304 2112 
Q 3559 1806 3559 1356 
Q 3559 666 3084 287 
Q 2609 -91 1734 -91 
Q 1441 -91 1130 -33 
Q 819 25 488 141 
L 488 750 
Q 750 597 1062 519 
Q 1375 441 1716 441 
Q 2309 441 2620 675 
Q 2931 909 2931 1356 
Q 2931 1769 2642 2001 
Q 2353 2234 1838 2234 
L 1294 2234 
L 1294 2753 
L 1863 2753 
Q 2328 2753 2575 2939 
Q 2822 3125 2822 3475 
Q 2822 3834 2567 4026 
Q 2313 4219 1838 4219 
Q 1578 4219 1281 4162 
Q 984 4106 628 3988 
L 628 4550 
Q 988 4650 1302 4700 
Q 1616 4750 1894 4750 
Q 2613 4750 3031 4423 
Q 3450 4097 3450 3541 
Q 3450 3153 3228 2886 
Q 3006 2619 2597 2516 
z
" transform="scale(0.015625)"/>
       </defs>
       <use xlink:href="#DejaVuSans-32"/>
       <use xlink:href="#DejaVuSans-30" x="63.623047"/>
       <use xlink:href="#DejaVuSans-31" x="127.246094"/>
       <use xlink:href="#DejaVuSans-33" x="190.869141"/>
      </g>
     </g>
    </g>
    <g id="xtick_3">
     <g id="line2d_3">
      <g>
       <use xlink:href="#me362b3ebb9" x="105.759336" y="307.584" style="stroke: #000000; stroke-width: 0.8"/>
      </g>
     </g>
     <g id="text_2">
      <!-- 2014 -->
      <g transform="translate(93.034336 322.182437) scale(0.1 -0.1)">
       <defs>
        <path id="DejaVuSans-34" d="M 2419 4116 
L 825 1625 
L 2419 1625 
L 2419 4116 
z
M 2253 4666 
L 3047 4666 
L 3047 1625 
L 3713 1625 
L 3713 1100 
L 3047 1100 
L 3047 0 
L 2419 0 
L 2419 1100 
L 313 1100 
L 313 1709 
L 2253 4666 
z
" transform="scale(0.015625)"/>
       </defs>
       <use xlink:href="#DejaVuSans-32"/>
       <use xlink:href="#DejaVuSans-30" x="63.623047"/>
       <use xlink:href="#DejaVuSans-31" x="127.246094"/>
       <use xlink:href="#DejaVuSans-34" x="190.869141"/>
      </g>
     </g>
    </g>
    <g id="xtick_4">
     <g id="line2d_4">
      <g>
       <use xlink:href="#me362b3ebb9" x="144.286805" y="307.584" style="stroke: #000000; stroke-width: 0.8"/>
      </g>
     </g>
     <g id="text_3">
      <!-- 2015 -->
      <g transform="translate(131.561805 322.182437) scale(0.1 -0.1)">
       <defs>
        <path id="DejaVuSans-35" d="M 691 4666 
L 3169 4666 
L 3169 4134 
L 1269 4134 
L 1269 2991 
Q 1406 3038 1543 3061 
Q 1681 3084 1819 3084 
Q 2600 3084 3056 2656 
Q 3513 2228 3513 1497 
Q 3513 744 3044 326 
Q 2575 -91 1722 -91 
Q 1428 -91 1123 -41 
Q 819 9 494 109 
L 494 744 
Q 775 591 1075 516 
Q 1375 441 1709 441 
Q 2250 441 2565 725 
Q 2881 1009 2881 1497 
Q 2881 1984 2565 2268 
Q 2250 2553 1709 2553 
Q 1456 2553 1204 2497 
Q 953 2441 691 2322 
L 691 4666 
z
" transform="scale(0.015625)"/>
       </defs>
       <use xlink:href="#DejaVuSans-32"/>
       <use xlink:href="#DejaVuSans-30" x="63.623047"/>
       <use xlink:href="#DejaVuSans-31" x="127.246094"/>
       <use xlink:href="#DejaVuSans-35" x="190.869141"/>
      </g>
     </g>
    </g>
    <g id="xtick_5">
     <g id="line2d_5">
      <g>
       <use xlink:href="#me362b3ebb9" x="182.814274" y="307.584" style="stroke: #000000; stroke-width: 0.8"/>
      </g>
     </g>
     <g id="text_4">
      <!-- 2016 -->
      <g transform="translate(170.089274 322.182437) scale(0.1 -0.1)">
       <defs>
        <path id="DejaVuSans-36" d="M 2113 2584 
Q 1688 2584 1439 2293 
Q 1191 2003 1191 1497 
Q 1191 994 1439 701 
Q 1688 409 2113 409 
Q 2538 409 2786 701 
Q 3034 994 3034 1497 
Q 3034 2003 2786 2293 
Q 2538 2584 2113 2584 
z
M 3366 4563 
L 3366 3988 
Q 3128 4100 2886 4159 
Q 2644 4219 2406 4219 
Q 1781 4219 1451 3797 
Q 1122 3375 1075 2522 
Q 1259 2794 1537 2939 
Q 1816 3084 2150 3084 
Q 2853 3084 3261 2657 
Q 3669 2231 3669 1497 
Q 3669 778 3244 343 
Q 2819 -91 2113 -91 
Q 1303 -91 875 529 
Q 447 1150 447 2328 
Q 447 3434 972 4092 
Q 1497 4750 2381 4750 
Q 2619 4750 2861 4703 
Q 3103 4656 3366 4563 
z
" transform="scale(0.015625)"/>
       </defs>
       <use xlink:href="#DejaVuSans-32"/>
       <use xlink:href="#DejaVuSans-30" x="63.623047"/>
       <use xlink:href="#DejaVuSans-31" x="127.246094"/>
       <use xlink:href="#DejaVuSans-36" x="190.869141"/>
      </g>
     </g>
    </g>
    <g id="xtick_6">
     <g id="line2d_6">
      <g>
       <use xlink:href="#me362b3ebb9" x="221.341743" y="307.584" style="stroke: #000000; stroke-width: 0.8"/>
      </g>
     </g>
     <g id="text_5">
      <!-- 2017 -->
      <g transform="translate(208.616743 322.182437) scale(0.1 -0.1)">
       <defs>
        <path id="DejaVuSans-37" d="M 525 4666 
L 3525 4666 
L 3525 4397 
L 1831 0 
L 1172 0 
L 2766 4134 
L 525 4134 
L 525 4666 
z
" transform="scale(0.015625)"/>
       </defs>
       <use xlink:href="#DejaVuSans-32"/>
       <use xlink:href="#DejaVuSans-30" x="63.623047"/>
       <use xlink:href="#DejaVuSans-31" x="127.246094"/>
       <use xlink:href="#DejaVuSans-37" x="190.869141"/>
      </g>
     </g>
    </g>
    <g id="xtick_7">
     <g id="line2d_7">
      <g>
       <use xlink:href="#me362b3ebb9" x="260.610124" y="307.584" style="stroke: #000000; stroke-width: 0.8"/>
      </g>
     </g>
     <g id="text_6">
      <!-- 2018 -->
      <g transform="translate(247.885124 322.182437) scale(0.1 -0.1)">
       <defs>
        <path id="DejaVuSans-38" d="M 2034 2216 
Q 1584 2216 1326 1975 
Q 1069 1734 1069 1313 
Q 1069 891 1326 650 
Q 1584 409 2034 409 
Q 2484 409 2743 651 
Q 3003 894 3003 1313 
Q 3003 1734 2745 1975 
Q 2488 2216 2034 2216 
z
M 1403 2484 
Q 997 2584 770 2862 
Q 544 3141 544 3541 
Q 544 4100 942 4425 
Q 1341 4750 2034 4750 
Q 2731 4750 3128 4425 
Q 3525 4100 3525 3541 
Q 3525 3141 3298 2862 
Q 3072 2584 2669 2484 
Q 3125 2378 3379 2068 
Q 3634 1759 3634 1313 
Q 3634 634 3220 271 
Q 2806 -91 2034 -91 
Q 1263 -91 848 271 
Q 434 634 434 1313 
Q 434 1759 690 2068 
Q 947 2378 1403 2484 
z
M 1172 3481 
Q 1172 3119 1398 2916 
Q 1625 2713 2034 2713 
Q 2441 2713 2670 2916 
Q 2900 3119 2900 3481 
Q 2900 3844 2670 4047 
Q 2441 4250 2034 4250 
Q 1625 4250 1398 4047 
Q 1172 3844 1172 3481 
z
" transform="scale(0.015625)"/>
       </defs>
       <use xlink:href="#DejaVuSans-32"/>
       <use xlink:href="#DejaVuSans-30" x="63.623047"/>
       <use xlink:href="#DejaVuSans-31" x="127.246094"/>
       <use xlink:href="#DejaVuSans-38" x="190.869141"/>
      </g>
     </g>
    </g>
    <g id="xtick_8">
     <g id="line2d_8">
      <g>
       <use xlink:href="#me362b3ebb9" x="299.137593" y="307.584" style="stroke: #000000; stroke-width: 0.8"/>
      </g>
     </g>
     <g id="text_7">
      <!-- 2019 -->
      <g transform="translate(286.412593 322.182437) scale(0.1 -0.1)">
       <defs>
        <path id="DejaVuSans-39" d="M 703 97 
L 703 672 
Q 941 559 1184 500 
Q 1428 441 1663 441 
Q 2288 441 2617 861 
Q 2947 1281 2994 2138 
Q 2813 1869 2534 1725 
Q 2256 1581 1919 1581 
Q 1219 1581 811 2004 
Q 403 2428 403 3163 
Q 403 3881 828 4315 
Q 1253 4750 1959 4750 
Q 2769 4750 3195 4129 
Q 3622 3509 3622 2328 
Q 3622 1225 3098 567 
Q 2575 -91 1691 -91 
Q 1453 -91 1209 -44 
Q 966 3 703 97 
z
M 1959 2075 
Q 2384 2075 2632 2365 
Q 2881 2656 2881 3163 
Q 2881 3666 2632 3958 
Q 2384 4250 1959 4250 
Q 1534 4250 1286 3958 
Q 1038 3666 1038 3163 
Q 1038 2656 1286 2365 
Q 1534 2075 1959 2075 
z
" transform="scale(0.015625)"/>
       </defs>
       <use xlink:href="#DejaVuSans-32"/>
       <use xlink:href="#DejaVuSans-30" x="63.623047"/>
       <use xlink:href="#DejaVuSans-31" x="127.246094"/>
       <use xlink:href="#DejaVuSans-39" x="190.869141"/>
      </g>
     </g>
    </g>
    <g id="xtick_9">
     <g id="line2d_9">
      <g>
       <use xlink:href="#me362b3ebb9" x="337.665062" y="307.584" style="stroke: #000000; stroke-width: 0.8"/>
      </g>
     </g>
     <g id="text_8">
      <!-- 2020 -->
      <g transform="translate(324.940062 322.182437) scale(0.1 -0.1)">
       <use xlink:href="#DejaVuSans-32"/>
       <use xlink:href="#DejaVuSans-30" x="63.623047"/>
       <use xlink:href="#DejaVuSans-32" x="127.246094"/>
       <use xlink:href="#DejaVuSans-30" x="190.869141"/>
      </g>
     </g>
    </g>
    <g id="xtick_10">
     <g id="line2d_10">
      <g>
       <use xlink:href="#me362b3ebb9" x="376.192531" y="307.584" style="stroke: #000000; stroke-width: 0.8"/>
      </g>
     </g>
     <g id="text_9">
      <!-- 2021 -->
      <g transform="translate(363.467531 322.182437) scale(0.1 -0.1)">
       <use xlink:href="#DejaVuSans-32"/>
       <use xlink:href="#DejaVuSans-30" x="63.623047"/>
       <use xlink:href="#DejaVuSans-32" x="127.246094"/>
       <use xlink:href="#DejaVuSans-31" x="190.869141"/>
      </g>
     </g>
    </g>
    <g id="xtick_11">
     <g id="line2d_11">
      <g>
       <use xlink:href="#me362b3ebb9" x="414.72" y="307.584" style="stroke: #000000; stroke-width: 0.8"/>
      </g>
     </g>
     <g id="text_10">
      <!-- 2022 -->
      <g transform="translate(401.995 322.182437) scale(0.1 -0.1)">
       <use xlink:href="#DejaVuSans-32"/>
       <use xlink:href="#DejaVuSans-30" x="63.623047"/>
       <use xlink:href="#DejaVuSans-32" x="127.246094"/>
       <use xlink:href="#DejaVuSans-32" x="190.869141"/>
      </g>
     </g>
    </g>
    <g id="xtick_12">
     <g id="line2d_12">
      <defs>
       <path id="m1125deadb5" d="M 0 0 
L 0 2 
" style="stroke: #000000; stroke-width: 0.6"/>
      </defs>
      <g>
       <use xlink:href="#m1125deadb5" x="76.863734" y="307.584" style="stroke: #000000; stroke-width: 0.6"/>
      </g>
     </g>
    </g>
    <g id="xtick_13">
     <g id="line2d_13">
      <g>
       <use xlink:href="#m1125deadb5" x="86.495602" y="307.584" style="stroke: #000000; stroke-width: 0.6"/>
      </g>
     </g>
    </g>
    <g id="xtick_14">
     <g id="line2d_14">
      <g>
       <use xlink:href="#m1125deadb5" x="96.127469" y="307.584" style="stroke: #000000; stroke-width: 0.6"/>
      </g>
     </g>
    </g>
    <g id="xtick_15">
     <g id="line2d_15">
      <g>
       <use xlink:href="#m1125deadb5" x="115.391203" y="307.584" style="stroke: #000000; stroke-width: 0.6"/>
      </g>
     </g>
    </g>
    <g id="xtick_16">
     <g id="line2d_16">
      <g>
       <use xlink:href="#m1125deadb5" x="125.023071" y="307.584" style="stroke: #000000; stroke-width: 0.6"/>
      </g>
     </g>
    </g>
    <g id="xtick_17">
     <g id="line2d_17">
      <g>
       <use xlink:href="#m1125deadb5" x="134.654938" y="307.584" style="stroke: #000000; stroke-width: 0.6"/>
      </g>
     </g>
    </g>
    <g id="xtick_18">
     <g id="line2d_18">
      <g>
       <use xlink:href="#m1125deadb5" x="153.918672" y="307.584" style="stroke: #000000; stroke-width: 0.6"/>
      </g>
     </g>
    </g>
    <g id="xtick_19">
     <g id="line2d_19">
      <g>
       <use xlink:href="#m1125deadb5" x="163.550539" y="307.584" style="stroke: #000000; stroke-width: 0.6"/>
      </g>
     </g>
    </g>
    <g id="xtick_20">
     <g id="line2d_20">
      <g>
       <use xlink:href="#m1125deadb5" x="173.182407" y="307.584" style="stroke: #000000; stroke-width: 0.6"/>
      </g>
     </g>
    </g>
    <g id="xtick_21">
     <g id="line2d_21">
      <g>
       <use xlink:href="#m1125deadb5" x="192.446141" y="307.584" style="stroke: #000000; stroke-width: 0.6"/>
      </g>
     </g>
    </g>
    <g id="xtick_22">
     <g id="line2d_22">
      <g>
       <use xlink:href="#m1125deadb5" x="202.078008" y="307.584" style="stroke: #000000; stroke-width: 0.6"/>
      </g>
     </g>
    </g>
    <g id="xtick_23">
     <g id="line2d_23">
      <g>
       <use xlink:href="#m1125deadb5" x="211.709876" y="307.584" style="stroke: #000000; stroke-width: 0.6"/>
      </g>
     </g>
    </g>
    <g id="xtick_24">
     <g id="line2d_24">
      <g>
       <use xlink:href="#m1125deadb5" x="230.97361" y="307.584" style="stroke: #000000; stroke-width: 0.6"/>
      </g>
     </g>
    </g>
    <g id="xtick_25">
     <g id="line2d_25">
      <g>
       <use xlink:href="#m1125deadb5" x="240.605477" y="307.584" style="stroke: #000000; stroke-width: 0.6"/>
      </g>
     </g>
    </g>
    <g id="xtick_26">
     <g id="line2d_26">
      <g>
       <use xlink:href="#m1125deadb5" x="250.237344" y="307.584" style="stroke: #000000; stroke-width: 0.6"/>
      </g>
     </g>
    </g>
    <g id="xtick_27">
     <g id="line2d_27">
      <g>
       <use xlink:href="#m1125deadb5" x="269.501079" y="307.584" style="stroke: #000000; stroke-width: 0.6"/>
      </g>
     </g>
    </g>
    <g id="xtick_28">
     <g id="line2d_28">
      <g>
       <use xlink:href="#m1125deadb5" x="279.132946" y="307.584" style="stroke: #000000; stroke-width: 0.6"/>
      </g>
     </g>
    </g>
    <g id="xtick_29">
     <g id="line2d_29">
      <g>
       <use xlink:href="#m1125deadb5" x="289.505726" y="307.584" style="stroke: #000000; stroke-width: 0.6"/>
      </g>
     </g>
    </g>
    <g id="xtick_30">
     <g id="line2d_30">
      <g>
       <use xlink:href="#m1125deadb5" x="308.769461" y="307.584" style="stroke: #000000; stroke-width: 0.6"/>
      </g>
     </g>
    </g>
    <g id="xtick_31">
     <g id="line2d_31">
      <g>
       <use xlink:href="#m1125deadb5" x="318.401328" y="307.584" style="stroke: #000000; stroke-width: 0.6"/>
      </g>
     </g>
    </g>
    <g id="xtick_32">
     <g id="line2d_32">
      <g>
       <use xlink:href="#m1125deadb5" x="328.033195" y="307.584" style="stroke: #000000; stroke-width: 0.6"/>
      </g>
     </g>
    </g>
    <g id="xtick_33">
     <g id="line2d_33">
      <g>
       <use xlink:href="#m1125deadb5" x="347.296929" y="307.584" style="stroke: #000000; stroke-width: 0.6"/>
      </g>
     </g>
    </g>
    <g id="xtick_34">
     <g id="line2d_34">
      <g>
       <use xlink:href="#m1125deadb5" x="356.928797" y="307.584" style="stroke: #000000; stroke-width: 0.6"/>
      </g>
     </g>
    </g>
    <g id="xtick_35">
     <g id="line2d_35">
      <g>
       <use xlink:href="#m1125deadb5" x="366.560664" y="307.584" style="stroke: #000000; stroke-width: 0.6"/>
      </g>
     </g>
    </g>
    <g id="xtick_36">
     <g id="line2d_36">
      <g>
       <use xlink:href="#m1125deadb5" x="385.824398" y="307.584" style="stroke: #000000; stroke-width: 0.6"/>
      </g>
     </g>
    </g>
    <g id="xtick_37">
     <g id="line2d_37">
      <g>
       <use xlink:href="#m1125deadb5" x="395.456266" y="307.584" style="stroke: #000000; stroke-width: 0.6"/>
      </g>
     </g>
    </g>
    <g id="xtick_38">
     <g id="line2d_38">
      <g>
       <use xlink:href="#m1125deadb5" x="405.088133" y="307.584" style="stroke: #000000; stroke-width: 0.6"/>
      </g>
     </g>
    </g>
    <g id="text_11">
     <!-- Date -->
     <g transform="translate(224.209219 335.860562) scale(0.1 -0.1)">
      <defs>
       <path id="DejaVuSans-44" d="M 1259 4147 
L 1259 519 
L 2022 519 
Q 2988 519 3436 956 
Q 3884 1394 3884 2338 
Q 3884 3275 3436 3711 
Q 2988 4147 2022 4147 
L 1259 4147 
z
M 628 4666 
L 1925 4666 
Q 3281 4666 3915 4102 
Q 4550 3538 4550 2338 
Q 4550 1131 3912 565 
Q 3275 0 1925 0 
L 628 0 
L 628 4666 
z
" transform="scale(0.015625)"/>
       <path id="DejaVuSans-61" d="M 2194 1759 
Q 1497 1759 1228 1600 
Q 959 1441 959 1056 
Q 959 750 1161 570 
Q 1363 391 1709 391 
Q 2188 391 2477 730 
Q 2766 1069 2766 1631 
L 2766 1759 
L 2194 1759 
z
M 3341 1997 
L 3341 0 
L 2766 0 
L 2766 531 
Q 2569 213 2275 61 
Q 1981 -91 1556 -91 
Q 1019 -91 701 211 
Q 384 513 384 1019 
Q 384 1609 779 1909 
Q 1175 2209 1959 2209 
L 2766 2209 
L 2766 2266 
Q 2766 2663 2505 2880 
Q 2244 3097 1772 3097 
Q 1472 3097 1187 3025 
Q 903 2953 641 2809 
L 641 3341 
Q 956 3463 1253 3523 
Q 1550 3584 1831 3584 
Q 2591 3584 2966 3190 
Q 3341 2797 3341 1997 
z
" transform="scale(0.015625)"/>
       <path id="DejaVuSans-74" d="M 1172 4494 
L 1172 3500 
L 2356 3500 
L 2356 3053 
L 1172 3053 
L 1172 1153 
Q 1172 725 1289 603 
Q 1406 481 1766 481 
L 2356 481 
L 2356 0 
L 1766 0 
Q 1100 0 847 248 
Q 594 497 594 1153 
L 594 3053 
L 172 3053 
L 172 3500 
L 594 3500 
L 594 4494 
L 1172 4494 
z
" transform="scale(0.015625)"/>
       <path id="DejaVuSans-65" d="M 3597 1894 
L 3597 1613 
L 953 1613 
Q 991 1019 1311 708 
Q 1631 397 2203 397 
Q 2534 397 2845 478 
Q 3156 559 3463 722 
L 3463 178 
Q 3153 47 2828 -22 
Q 2503 -91 2169 -91 
Q 1331 -91 842 396 
Q 353 884 353 1716 
Q 353 2575 817 3079 
Q 1281 3584 2069 3584 
Q 2775 3584 3186 3129 
Q 3597 2675 3597 1894 
z
M 3022 2063 
Q 3016 2534 2758 2815 
Q 2500 3097 2075 3097 
Q 1594 3097 1305 2825 
Q 1016 2553 972 2059 
L 3022 2063 
z
" transform="scale(0.015625)"/>
      </defs>
      <use xlink:href="#DejaVuSans-44"/>
      <use xlink:href="#DejaVuSans-61" x="77.001953"/>
      <use xlink:href="#DejaVuSans-74" x="138.28125"/>
      <use xlink:href="#DejaVuSans-65" x="177.490234"/>
     </g>
    </g>
   </g>
   <g id="matplotlib.axis_2">
    <g id="ytick_1">
     <g id="line2d_39">
      <defs>
       <path id="mb4ce0fa702" d="M 0 0 
L -3.5 0 
" style="stroke: #000000; stroke-width: 0.8"/>
      </defs>
      <g>
       <use xlink:href="#mb4ce0fa702" x="57.6" y="296.014556" style="stroke: #000000; stroke-width: 0.8"/>
      </g>
     </g>
     <g id="text_12">
      <!-- 0 -->
      <g transform="translate(44.2375 299.813774) scale(0.1 -0.1)">
       <use xlink:href="#DejaVuSans-30"/>
      </g>
     </g>
    </g>
    <g id="ytick_2">
     <g id="line2d_40">
      <g>
       <use xlink:href="#mb4ce0fa702" x="57.6" y="262.04323" style="stroke: #000000; stroke-width: 0.8"/>
      </g>
     </g>
     <g id="text_13">
      <!-- 10000 -->
      <g transform="translate(18.7875 265.842449) scale(0.1 -0.1)">
       <use xlink:href="#DejaVuSans-31"/>
       <use xlink:href="#DejaVuSans-30" x="63.623047"/>
       <use xlink:href="#DejaVuSans-30" x="127.246094"/>
       <use xlink:href="#DejaVuSans-30" x="190.869141"/>
       <use xlink:href="#DejaVuSans-30" x="254.492188"/>
      </g>
     </g>
    </g>
    <g id="ytick_3">
     <g id="line2d_41">
      <g>
       <use xlink:href="#mb4ce0fa702" x="57.6" y="228.071905" style="stroke: #000000; stroke-width: 0.8"/>
      </g>
     </g>
     <g id="text_14">
      <!-- 20000 -->
      <g transform="translate(18.7875 231.871123) scale(0.1 -0.1)">
       <use xlink:href="#DejaVuSans-32"/>
       <use xlink:href="#DejaVuSans-30" x="63.623047"/>
       <use xlink:href="#DejaVuSans-30" x="127.246094"/>
       <use xlink:href="#DejaVuSans-30" x="190.869141"/>
       <use xlink:href="#DejaVuSans-30" x="254.492188"/>
      </g>
     </g>
    </g>
    <g id="ytick_4">
     <g id="line2d_42">
      <g>
       <use xlink:href="#mb4ce0fa702" x="57.6" y="194.100579" style="stroke: #000000; stroke-width: 0.8"/>
      </g>
     </g>
     <g id="text_15">
      <!-- 30000 -->
      <g transform="translate(18.7875 197.899798) scale(0.1 -0.1)">
       <use xlink:href="#DejaVuSans-33"/>
       <use xlink:href="#DejaVuSans-30" x="63.623047"/>
       <use xlink:href="#DejaVuSans-30" x="127.246094"/>
       <use xlink:href="#DejaVuSans-30" x="190.869141"/>
       <use xlink:href="#DejaVuSans-30" x="254.492188"/>
      </g>
     </g>
    </g>
    <g id="ytick_5">
     <g id="line2d_43">
      <g>
       <use xlink:href="#mb4ce0fa702" x="57.6" y="160.129254" style="stroke: #000000; stroke-width: 0.8"/>
      </g>
     </g>
     <g id="text_16">
      <!-- 40000 -->
      <g transform="translate(18.7875 163.928472) scale(0.1 -0.1)">
       <use xlink:href="#DejaVuSans-34"/>
       <use xlink:href="#DejaVuSans-30" x="63.623047"/>
       <use xlink:href="#DejaVuSans-30" x="127.246094"/>
       <use xlink:href="#DejaVuSans-30" x="190.869141"/>
       <use xlink:href="#DejaVuSans-30" x="254.492188"/>
      </g>
     </g>
    </g>
    <g id="ytick_6">
     <g id="line2d_44">
      <g>
       <use xlink:href="#mb4ce0fa702" x="57.6" y="126.157928" style="stroke: #000000; stroke-width: 0.8"/>
      </g>
     </g>
     <g id="text_17">
      <!-- 50000 -->
      <g transform="translate(18.7875 129.957147) scale(0.1 -0.1)">
       <use xlink:href="#DejaVuSans-35"/>
       <use xlink:href="#DejaVuSans-30" x="63.623047"/>
       <use xlink:href="#DejaVuSans-30" x="127.246094"/>
       <use xlink:href="#DejaVuSans-30" x="190.869141"/>
       <use xlink:href="#DejaVuSans-30" x="254.492188"/>
      </g>
     </g>
    </g>
    <g id="ytick_7">
     <g id="line2d_45">
      <g>
       <use xlink:href="#mb4ce0fa702" x="57.6" y="92.186603" style="stroke: #000000; stroke-width: 0.8"/>
      </g>
     </g>
     <g id="text_18">
      <!-- 60000 -->
      <g transform="translate(18.7875 95.985822) scale(0.1 -0.1)">
       <use xlink:href="#DejaVuSans-36"/>
       <use xlink:href="#DejaVuSans-30" x="63.623047"/>
       <use xlink:href="#DejaVuSans-30" x="127.246094"/>
       <use xlink:href="#DejaVuSans-30" x="190.869141"/>
       <use xlink:href="#DejaVuSans-30" x="254.492188"/>
      </g>
     </g>
    </g>
    <g id="ytick_8">
     <g id="line2d_46">
      <g>
       <use xlink:href="#mb4ce0fa702" x="57.6" y="58.215277" style="stroke: #000000; stroke-width: 0.8"/>
      </g>
     </g>
     <g id="text_19">
      <!-- 70000 -->
      <g transform="translate(18.7875 62.014496) scale(0.1 -0.1)">
       <use xlink:href="#DejaVuSans-37"/>
       <use xlink:href="#DejaVuSans-30" x="63.623047"/>
       <use xlink:href="#DejaVuSans-30" x="127.246094"/>
       <use xlink:href="#DejaVuSans-30" x="190.869141"/>
       <use xlink:href="#DejaVuSans-30" x="254.492188"/>
      </g>
     </g>
    </g>
    <g id="text_20">
     <!-- Weekly Bicycle Count -->
     <g transform="translate(12.707812 228.344406) rotate(-90) scale(0.1 -0.1)">
      <defs>
       <path id="DejaVuSans-57" d="M 213 4666 
L 850 4666 
L 1831 722 
L 2809 4666 
L 3519 4666 
L 4500 722 
L 5478 4666 
L 6119 4666 
L 4947 0 
L 4153 0 
L 3169 4050 
L 2175 0 
L 1381 0 
L 213 4666 
z
" transform="scale(0.015625)"/>
       <path id="DejaVuSans-6b" d="M 581 4863 
L 1159 4863 
L 1159 1991 
L 2875 3500 
L 3609 3500 
L 1753 1863 
L 3688 0 
L 2938 0 
L 1159 1709 
L 1159 0 
L 581 0 
L 581 4863 
z
" transform="scale(0.015625)"/>
       <path id="DejaVuSans-6c" d="M 603 4863 
L 1178 4863 
L 1178 0 
L 603 0 
L 603 4863 
z
" transform="scale(0.015625)"/>
       <path id="DejaVuSans-79" d="M 2059 -325 
Q 1816 -950 1584 -1140 
Q 1353 -1331 966 -1331 
L 506 -1331 
L 506 -850 
L 844 -850 
Q 1081 -850 1212 -737 
Q 1344 -625 1503 -206 
L 1606 56 
L 191 3500 
L 800 3500 
L 1894 763 
L 2988 3500 
L 3597 3500 
L 2059 -325 
z
" transform="scale(0.015625)"/>
       <path id="DejaVuSans-20" transform="scale(0.015625)"/>
       <path id="DejaVuSans-42" d="M 1259 2228 
L 1259 519 
L 2272 519 
Q 2781 519 3026 730 
Q 3272 941 3272 1375 
Q 3272 1813 3026 2020 
Q 2781 2228 2272 2228 
L 1259 2228 
z
M 1259 4147 
L 1259 2741 
L 2194 2741 
Q 2656 2741 2882 2914 
Q 3109 3088 3109 3444 
Q 3109 3797 2882 3972 
Q 2656 4147 2194 4147 
L 1259 4147 
z
M 628 4666 
L 2241 4666 
Q 2963 4666 3353 4366 
Q 3744 4066 3744 3513 
Q 3744 3084 3544 2831 
Q 3344 2578 2956 2516 
Q 3422 2416 3680 2098 
Q 3938 1781 3938 1306 
Q 3938 681 3513 340 
Q 3088 0 2303 0 
L 628 0 
L 628 4666 
z
" transform="scale(0.015625)"/>
       <path id="DejaVuSans-69" d="M 603 3500 
L 1178 3500 
L 1178 0 
L 603 0 
L 603 3500 
z
M 603 4863 
L 1178 4863 
L 1178 4134 
L 603 4134 
L 603 4863 
z
" transform="scale(0.015625)"/>
       <path id="DejaVuSans-63" d="M 3122 3366 
L 3122 2828 
Q 2878 2963 2633 3030 
Q 2388 3097 2138 3097 
Q 1578 3097 1268 2742 
Q 959 2388 959 1747 
Q 959 1106 1268 751 
Q 1578 397 2138 397 
Q 2388 397 2633 464 
Q 2878 531 3122 666 
L 3122 134 
Q 2881 22 2623 -34 
Q 2366 -91 2075 -91 
Q 1284 -91 818 406 
Q 353 903 353 1747 
Q 353 2603 823 3093 
Q 1294 3584 2113 3584 
Q 2378 3584 2631 3529 
Q 2884 3475 3122 3366 
z
" transform="scale(0.015625)"/>
       <path id="DejaVuSans-43" d="M 4122 4306 
L 4122 3641 
Q 3803 3938 3442 4084 
Q 3081 4231 2675 4231 
Q 1875 4231 1450 3742 
Q 1025 3253 1025 2328 
Q 1025 1406 1450 917 
Q 1875 428 2675 428 
Q 3081 428 3442 575 
Q 3803 722 4122 1019 
L 4122 359 
Q 3791 134 3420 21 
Q 3050 -91 2638 -91 
Q 1578 -91 968 557 
Q 359 1206 359 2328 
Q 359 3453 968 4101 
Q 1578 4750 2638 4750 
Q 3056 4750 3426 4639 
Q 3797 4528 4122 4306 
z
" transform="scale(0.015625)"/>
       <path id="DejaVuSans-6f" d="M 1959 3097 
Q 1497 3097 1228 2736 
Q 959 2375 959 1747 
Q 959 1119 1226 758 
Q 1494 397 1959 397 
Q 2419 397 2687 759 
Q 2956 1122 2956 1747 
Q 2956 2369 2687 2733 
Q 2419 3097 1959 3097 
z
M 1959 3584 
Q 2709 3584 3137 3096 
Q 3566 2609 3566 1747 
Q 3566 888 3137 398 
Q 2709 -91 1959 -91 
Q 1206 -91 779 398 
Q 353 888 353 1747 
Q 353 2609 779 3096 
Q 1206 3584 1959 3584 
z
" transform="scale(0.015625)"/>
       <path id="DejaVuSans-75" d="M 544 1381 
L 544 3500 
L 1119 3500 
L 1119 1403 
Q 1119 906 1312 657 
Q 1506 409 1894 409 
Q 2359 409 2629 706 
Q 2900 1003 2900 1516 
L 2900 3500 
L 3475 3500 
L 3475 0 
L 2900 0 
L 2900 538 
Q 2691 219 2414 64 
Q 2138 -91 1772 -91 
Q 1169 -91 856 284 
Q 544 659 544 1381 
z
M 1991 3584 
L 1991 3584 
z
" transform="scale(0.015625)"/>
       <path id="DejaVuSans-6e" d="M 3513 2113 
L 3513 0 
L 2938 0 
L 2938 2094 
Q 2938 2591 2744 2837 
Q 2550 3084 2163 3084 
Q 1697 3084 1428 2787 
Q 1159 2491 1159 1978 
L 1159 0 
L 581 0 
L 581 3500 
L 1159 3500 
L 1159 2956 
Q 1366 3272 1645 3428 
Q 1925 3584 2291 3584 
Q 2894 3584 3203 3211 
Q 3513 2838 3513 2113 
z
" transform="scale(0.015625)"/>
      </defs>
      <use xlink:href="#DejaVuSans-57"/>
      <use xlink:href="#DejaVuSans-65" x="93.001953"/>
      <use xlink:href="#DejaVuSans-65" x="154.525391"/>
      <use xlink:href="#DejaVuSans-6b" x="216.048828"/>
      <use xlink:href="#DejaVuSans-6c" x="273.958984"/>
      <use xlink:href="#DejaVuSans-79" x="301.742188"/>
      <use xlink:href="#DejaVuSans-20" x="360.921875"/>
      <use xlink:href="#DejaVuSans-42" x="392.708984"/>
      <use xlink:href="#DejaVuSans-69" x="461.3125"/>
      <use xlink:href="#DejaVuSans-63" x="489.095703"/>
      <use xlink:href="#DejaVuSans-79" x="544.076172"/>
      <use xlink:href="#DejaVuSans-63" x="603.255859"/>
      <use xlink:href="#DejaVuSans-6c" x="658.236328"/>
      <use xlink:href="#DejaVuSans-65" x="686.019531"/>
      <use xlink:href="#DejaVuSans-20" x="747.542969"/>
      <use xlink:href="#DejaVuSans-43" x="779.330078"/>
      <use xlink:href="#DejaVuSans-6f" x="849.154297"/>
      <use xlink:href="#DejaVuSans-75" x="910.335938"/>
      <use xlink:href="#DejaVuSans-6e" x="973.714844"/>
      <use xlink:href="#DejaVuSans-74" x="1037.09375"/>
     </g>
    </g>
   </g>
   <g id="line2d_47">
    <path d="M 57.6 198.910919 
L 58.340913 181.904873 
L 59.081826 190.642298 
L 59.822739 204.720016 
L 60.563651 213.165287 
L 61.304564 193.991871 
L 62.045477 215.325863 
L 62.78639 249.47384 
L 63.527303 217.649502 
L 64.268216 220.122614 
L 65.009129 224.73592 
L 65.750041 245.349721 
L 66.490954 261.336627 
L 67.231867 238.677752 
L 67.97278 231.917459 
L 68.713693 222.582138 
L 69.454606 227.997168 
L 70.195519 219.327685 
L 70.936432 207.220305 
L 72.418257 215.95773 
L 73.15917 204.672456 
L 73.900083 190.057991 
L 74.640996 207.424133 
L 75.381909 206.853415 
L 76.122822 163.091553 
L 76.863734 192.497133 
L 77.604647 197.117233 
L 78.34556 200.493983 
L 79.086473 146.187422 
L 79.827386 116.482895 
L 80.568299 102.962307 
L 81.309212 127.211039 
L 82.050124 164.593086 
L 82.791037 156.33126 
L 83.53195 112.392747 
L 84.272863 131.953436 
L 85.013776 141.777944 
L 85.754689 156.800064 
L 86.495602 122.679265 
L 87.236515 113.221648 
L 87.977427 116.516866 
L 88.71834 116.720694 
L 89.459253 134.50808 
L 90.200166 120.790459 
L 90.941079 130.635349 
L 91.681992 127.938026 
L 92.422905 153.695085 
L 93.163817 175.294053 
L 93.90473 141.907035 
L 94.645643 157.153366 
L 95.386556 192.103065 
L 96.127469 172.433668 
L 96.868382 175.674532 
L 97.609295 169.260746 
L 98.350207 181.551572 
L 99.09112 180.444106 
L 99.832033 192.137037 
L 101.313859 197.898573 
L 102.054772 224.450561 
L 102.795685 219.456776 
L 103.536598 220.319648 
L 104.27751 223.743958 
L 105.018423 250.594893 
L 105.759336 226.237453 
L 106.500249 219.157829 
L 107.241162 193.978282 
L 107.982075 192.157419 
L 108.722988 205.263557 
L 109.4639 220.469122 
L 110.204813 221.895918 
L 110.945726 227.134296 
L 111.686639 200.555131 
L 112.427552 215.325863 
L 113.168465 185.220475 
L 113.909378 183.14143 
L 114.65029 201.968338 
L 115.391203 167.426294 
L 116.132116 138.659376 
L 116.873029 182.788128 
L 117.613942 174.995106 
L 118.354855 119.02395 
L 119.095768 134.589611 
L 119.83668 75.696921 
L 120.577593 116.211124 
L 121.318506 117.508829 
L 122.059419 93.151388 
L 122.800332 138.136218 
L 123.541245 117.746628 
L 124.282158 131.790374 
L 125.023071 115.341458 
L 125.763983 102.024699 
L 126.504896 114.702797 
L 127.245809 134.97009 
L 127.986722 101.216181 
L 128.727635 107.303843 
L 129.468548 137.307317 
L 130.209461 114.152462 
L 130.950373 120.342037 
L 131.691286 134.915736 
L 132.432199 130.879942 
L 133.173112 133.21717 
L 133.914025 167.032227 
L 134.654938 145.582732 
L 135.395851 153.144749 
L 136.136763 169.838259 
L 136.877676 195.975796 
L 137.618589 189.460096 
L 138.359502 187.326697 
L 139.100415 189.568804 
L 139.841328 196.206801 
L 140.582241 239.825983 
L 141.323154 212.02385 
L 142.064066 208.898489 
L 142.804979 216.215912 
L 143.545892 247.734508 
L 144.286805 244.697471 
L 145.027718 200.527954 
L 145.768631 206.588438 
L 147.250456 185.254446 
L 147.991369 214.857059 
L 148.732282 188.087655 
L 149.473195 188.896172 
L 150.214108 186.443442 
L 150.955021 171.774624 
L 151.695934 195.901059 
L 152.436846 194.399527 
L 153.177759 187.075309 
L 153.918672 180.899322 
L 154.659585 172.304577 
L 155.400498 153.939678 
L 156.141411 166.475097 
L 156.882324 142.436987 
L 157.623237 123.202423 
L 158.364149 142.695169 
L 159.105062 118.758974 
L 159.845975 126.083191 
L 160.586888 135.282626 
L 161.327801 104.966615 
L 162.068714 119.112275 
L 162.809627 112.107388 
L 163.550539 132.279561 
L 164.291452 120.702133 
L 165.032365 119.737348 
L 165.773278 133.278318 
L 166.514191 119.913999 
L 167.255104 116.917728 
L 167.996017 137.3277 
L 168.736929 126.613144 
L 169.477842 148.055845 
L 170.218755 174.437976 
L 170.959668 151.351063 
L 171.700581 165.143421 
L 172.441494 137.966361 
L 173.182407 139.168946 
L 173.92332 166.984667 
L 174.664232 160.781503 
L 175.405145 166.305241 
L 176.146058 196.091299 
L 176.886971 184.642962 
L 177.627884 202.865181 
L 178.368797 196.464983 
L 179.10971 234.438131 
L 179.850622 211.208539 
L 180.591535 222.283191 
L 181.332448 213.987393 
L 182.073361 257.457101 
L 182.814274 248.604174 
L 183.555187 204.414274 
L 184.2961 218.227015 
L 185.037012 216.840984 
L 185.777925 204.903461 
L 186.518838 197.742305 
L 187.259751 197.076467 
L 188.000664 213.45744 
L 188.741577 182.720185 
L 189.48249 200.541542 
L 190.223402 212.818779 
L 190.964315 188.026506 
L 191.705228 196.77752 
L 192.446141 136.029995 
L 193.187054 139.855167 
L 193.927967 165.027919 
L 194.66888 136.559948 
L 195.409793 143.931726 
L 196.150705 101.148238 
L 196.891618 101.318095 
L 197.632531 131.647694 
L 198.373444 144.651918 
L 199.114357 119.363663 
L 199.85527 122.35314 
L 200.596183 143.653161 
L 201.337095 136.981193 
L 202.078008 122.203666 
L 202.818921 147.199767 
L 203.559834 120.804047 
L 204.300747 133.434586 
L 205.04166 115.490932 
L 205.782573 131.002239 
L 206.523485 125.349411 
L 207.264398 122.713236 
L 208.005311 125.165966 
L 208.746224 153.858147 
L 209.487137 165.279307 
L 210.22805 133.883008 
L 210.968963 147.661777 
L 211.709876 137.864447 
L 212.450788 175.701709 
L 213.191701 196.295127 
L 213.932614 182.815305 
L 214.673527 187.462582 
L 215.41444 186.953012 
L 216.155353 177.475012 
L 216.896266 189.697895 
L 217.637178 235.205883 
L 218.378091 197.504506 
L 219.119004 238.453542 
L 219.859917 223.696398 
L 220.60083 242.591249 
L 221.341743 255.364467 
L 222.823568 222.684052 
L 223.564481 224.307882 
L 224.305394 197.626803 
L 225.046307 215.984907 
L 225.78722 238.847609 
L 226.528133 204.006618 
L 227.269046 224.579652 
L 228.009959 221.780415 
L 228.750871 219.993523 
L 229.491784 209.44203 
L 230.232697 200.724988 
L 230.97361 190.173494 
L 231.714523 191.654644 
L 232.455436 189.697895 
L 233.196349 181.273007 
L 233.937261 175.015489 
L 234.678174 146.90082 
L 235.419087 141.281962 
L 236.16 131.695254 
L 236.900913 93.525073 
L 237.641826 145.134311 
L 238.382739 123.168452 
L 239.123651 152.893361 
L 239.864564 114.40385 
L 240.605477 111.53667 
L 241.34639 123.440222 
L 242.087303 106.468148 
L 242.828216 104.158098 
L 243.569129 105.550922 
L 244.310041 113.670069 
L 245.050954 106.332263 
L 245.791867 112.474278 
L 246.53278 121.490268 
L 247.273693 122.957829 
L 248.014606 156.270111 
L 248.755519 120.722516 
L 249.496432 158.043414 
L 250.237344 137.144255 
L 250.978257 139.916315 
L 252.460083 192.993114 
L 253.200996 149.095367 
L 253.941909 179.737503 
L 254.682822 191.838089 
L 255.423734 199.04001 
L 256.164647 240.641295 
L 256.90556 200.738576 
L 257.646473 192.463161 
L 258.387386 203.734847 
L 259.869212 264.618257 
L 260.610124 217.744622 
L 261.351037 200.167858 
L 262.09195 206.459347 
L 262.832863 211.786051 
L 263.573776 205.14126 
L 264.314689 187.476171 
L 265.055602 202.450731 
L 265.796515 238.636987 
L 266.537427 202.437142 
L 267.27834 175.457116 
L 268.019253 164.545526 
L 268.760166 182.788128 
L 269.501079 181.388509 
L 270.241992 186.402677 
L 270.982905 201.384031 
L 271.723817 158.206477 
L 272.46473 123.222806 
L 273.205643 108.506428 
L 273.946556 102.42556 
L 274.687469 88.626408 
L 275.428382 90.705453 
L 276.169295 126.490847 
L 276.910207 129.371616 
L 277.65112 117.943662 
L 278.392033 94.367562 
L 279.132946 119.085098 
L 279.873859 113.649686 
L 280.614772 92.376842 
L 281.355685 95.434261 
L 282.096598 92.037129 
L 282.83751 108.594753 
L 283.578423 90.617128 
L 284.319336 119.098687 
L 285.060249 178.996928 
L 285.801162 128.929988 
L 286.542075 135.044827 
L 287.282988 157.907529 
L 288.0239 139.440716 
L 288.764813 124.493333 
L 289.505726 163.940836 
L 290.246639 152.186758 
L 290.987552 138.61861 
L 291.728465 177.101328 
L 292.469378 177.033385 
L 293.21029 170.361417 
L 293.951203 171.72027 
L 294.692116 220.489505 
L 295.433029 199.535991 
L 296.173942 195.180867 
L 296.914855 204.53657 
L 297.655768 221.264051 
L 298.39668 261.390981 
L 299.137593 230.456692 
L 299.878506 180.512049 
L 300.619419 175.871566 
L 301.360332 185.927078 
L 302.101245 157.608581 
L 302.842158 273.056734 
L 303.583071 268.008595 
L 304.323983 221.060223 
L 305.064896 187.217989 
L 305.805809 197.959722 
L 306.546722 172.426874 
L 307.287635 128.495155 
L 308.028548 141.322728 
L 308.769461 157.853175 
L 309.510373 188.49531 
L 310.992199 141.139283 
L 311.733112 104.32116 
L 312.474025 81.03042 
L 313.214938 120.036295 
L 313.955851 112.610164 
L 314.696763 79.698744 
L 315.437676 88.74191 
L 316.178589 53.568 
L 316.919502 100.502783 
L 317.660415 81.838937 
L 318.401328 126.749029 
L 319.142241 92.988326 
L 319.883154 91.323731 
L 320.624066 58.147335 
L 321.364979 61.408582 
L 322.105892 66.979879 
L 322.846805 65.933562 
L 323.587718 97.94814 
L 324.328631 82.715397 
L 325.810456 120.498305 
L 326.551369 124.805869 
L 327.292282 125.288262 
L 328.033195 110.734946 
L 329.515021 164.667823 
L 330.255934 140.826747 
L 330.996846 132.768748 
L 331.737759 135.11277 
L 332.478672 157.98906 
L 333.219585 151.344269 
L 333.960498 206.146811 
L 334.701411 168.513377 
L 335.442324 179.105636 
L 336.183237 195.982591 
L 336.924149 250.3503 
L 337.665062 228.472766 
L 338.405975 193.203736 
L 339.146888 234.030475 
L 339.887801 201.261735 
L 340.628714 190.044403 
L 341.369627 193.49589 
L 342.110539 171.890127 
L 342.851452 174.573861 
L 343.592365 155.189823 
L 345.074191 214.456197 
L 345.815104 188.488516 
L 346.556017 251.552885 
L 347.296929 226.522812 
L 348.037842 179.037693 
L 348.778755 178.405827 
L 349.519668 203.123363 
L 350.260581 218.828307 
L 351.742407 244.10637 
L 352.48332 240.580147 
L 353.224232 244.323787 
L 353.965145 235.678084 
L 354.706058 243.471106 
L 355.446971 232.868656 
L 356.187884 229.705925 
L 356.928797 239.611964 
L 357.66971 231.883487 
L 358.410622 222.8641 
L 359.151535 225.079031 
L 359.892448 224.226351 
L 360.633361 230.113581 
L 361.374274 226.86932 
L 362.115187 230.793008 
L 362.8561 226.070994 
L 363.597012 226.166113 
L 364.337925 262.016053 
L 365.078838 268.300748 
L 365.819751 249.585945 
L 366.560664 240.124931 
L 367.301577 247.720919 
L 368.04249 253.543604 
L 368.783402 256.580641 
L 369.524315 246.868239 
L 370.265228 261.571029 
L 371.747054 267.301991 
L 372.487967 267.1729 
L 373.22888 256.502507 
L 373.969793 267.760604 
L 374.710705 272.482618 
L 375.451618 275.906928 
L 376.192531 275.176545 
L 376.933444 269.041323 
L 377.674357 264.563902 
L 378.41527 264.054333 
L 379.156183 270.89276 
L 379.897095 268.70161 
L 380.638008 279.643774 
L 381.378921 273.162045 
L 382.119834 262.406723 
L 382.860747 262.889116 
L 383.60166 251.722741 
L 384.342573 262.810982 
L 385.083485 259.437629 
L 385.824398 246.379052 
L 386.565311 246.02575 
L 387.306224 229.233724 
L 388.047137 242.615029 
L 388.78805 240.158902 
L 389.528963 247.02111 
L 390.269876 228.676594 
L 391.010788 243.484695 
L 391.751701 243.66814 
L 392.492614 234.750667 
L 393.233527 239.815792 
L 393.97444 228.907599 
L 394.715353 230.877936 
L 395.456266 235.715453 
L 396.197178 226.597549 
L 396.938091 222.442856 
L 397.679004 220.594816 
L 398.419917 222.66367 
L 399.16083 227.256593 
L 399.901743 230.405735 
L 400.642656 230.803199 
L 401.383568 228.391235 
L 402.124481 230.049036 
L 402.865394 234.621576 
L 403.606307 243.481298 
L 404.34722 230.759036 
L 405.088133 249.633505 
L 405.829046 247.765082 
L 406.569959 248.512451 
L 407.310871 254.53217 
L 408.051784 264.230983 
L 408.792697 263.279786 
L 409.53361 263.59572 
L 410.274523 257.579398 
L 411.015436 274.575252 
L 411.756349 262.20969 
L 412.497261 267.050603 
L 413.238174 269.428596 
L 414.72 294.761014 
L 414.72 294.761014 
" clip-path="url(#p4284bee066)" style="fill: none; stroke: #1f77b4; stroke-width: 1.5; stroke-linecap: square"/>
   </g>
   <g id="line2d_48">
    <path d="M 57.6 246.436803 
L 58.340913 237.047129 
L 59.081826 242.027325 
L 59.822739 249.127332 
L 60.563651 252.476905 
L 61.304564 243.420149 
L 62.045477 254.725807 
L 62.78639 272.003623 
L 63.527303 256.098248 
L 64.268216 257.409541 
L 65.009129 259.434232 
L 65.750041 270.522473 
L 66.490954 278.267935 
L 67.231867 266.697302 
L 67.97278 262.987633 
L 68.713693 258.306384 
L 69.454606 261.390981 
L 70.195519 256.281693 
L 70.936432 249.704845 
L 72.418257 254.820926 
L 73.15917 248.882739 
L 73.900083 240.566558 
L 74.640996 250.329917 
L 75.381909 250.030969 
L 76.122822 226.577166 
L 76.863734 243.352207 
L 77.604647 244.880916 
L 78.34556 245.825319 
L 79.086473 217.839741 
L 79.827386 201.547094 
L 80.568299 195.031393 
L 81.309212 206.873798 
L 82.050124 227.949608 
L 82.791037 221.950272 
L 83.53195 200.874461 
L 84.272863 210.481552 
L 85.013776 218.159072 
L 85.754689 224.32147 
L 86.495602 207.13198 
L 87.236515 203.028243 
L 87.977427 204.027 
L 88.71834 205.365471 
L 89.459253 213.484617 
L 90.200166 206.62241 
L 90.941079 211.881171 
L 91.681992 211.894759 
L 93.163817 233.031718 
L 93.90473 217.982421 
L 94.645643 223.995346 
L 95.386556 242.40101 
L 96.127469 230.809993 
L 96.868382 233.901384 
L 97.609295 229.654968 
L 98.350207 238.569044 
L 99.09112 235.538802 
L 99.832033 243.073642 
L 100.572946 244.412112 
L 101.313859 244.935271 
L 102.054772 258.781983 
L 102.795685 256.363224 
L 103.536598 256.879589 
L 104.27751 258.951839 
L 105.018423 271.779412 
L 105.759336 259.291553 
L 106.500249 256.471933 
L 107.241162 243.32503 
L 107.982075 242.271919 
L 108.722988 249.072978 
L 109.4639 257.891934 
L 110.204813 258.177293 
L 110.945726 261.302655 
L 111.686639 245.879673 
L 112.427552 254.080351 
L 113.168465 238.874786 
L 113.909378 237.760527 
L 114.65029 247.43556 
L 115.391203 229.423963 
L 116.132116 214.435815 
L 116.873029 238.154594 
L 117.613942 233.935355 
L 118.354855 204.07456 
L 119.095768 211.201744 
L 119.83668 181.551572 
L 120.577593 204.53657 
L 121.318506 203.041832 
L 122.059419 192.660195 
L 122.800332 215.49572 
L 123.541245 206.228342 
L 124.282158 213.165287 
L 125.763983 196.641634 
L 127.245809 213.009019 
L 127.986722 197.871396 
L 128.727635 201.649008 
L 129.468548 217.051607 
L 130.209461 205.358676 
L 130.950373 208.585952 
L 131.691286 212.479066 
L 132.432199 212.02385 
L 133.173112 210.746529 
L 133.914025 226.536401 
L 134.654938 211.045476 
L 135.395851 214.585288 
L 136.136763 225.082428 
L 136.877676 248.203312 
L 137.618589 244.221873 
L 138.359502 245.838908 
L 139.100415 244.928476 
L 139.841328 246.620248 
L 140.582241 265.542277 
L 141.323154 255.242171 
L 142.064066 253.020446 
L 142.804979 259.277964 
L 143.545892 271.127163 
L 144.286805 269.245151 
L 145.027718 238.215742 
L 145.768631 240.586941 
L 146.509544 237.346076 
L 147.250456 233.548082 
L 147.991369 247.109435 
L 148.732282 237.977943 
L 149.473195 237.203397 
L 150.214108 234.811816 
L 150.955021 229.695734 
L 151.695934 257.722077 
L 152.436846 252.904944 
L 153.177759 233.079278 
L 153.918672 238.56225 
L 155.400498 220.890366 
L 156.141411 229.08425 
L 156.882324 216.902133 
L 157.623237 207.315425 
L 158.364149 216.365386 
L 159.105062 206.778678 
L 159.845975 209.605092 
L 160.586888 215.346246 
L 161.327801 199.508814 
L 162.068714 208.395713 
L 162.809627 203.232071 
L 163.550539 213.076962 
L 164.291452 207.845377 
L 165.032365 209.421647 
L 165.773278 217.044812 
L 166.514191 210.094279 
L 167.255104 210.182605 
L 167.996017 218.247397 
L 168.736929 212.220884 
L 169.477842 222.711229 
L 170.218755 236.924832 
L 170.959668 224.267116 
L 171.700581 231.428272 
L 172.441494 218.029981 
L 173.182407 217.839741 
L 173.92332 232.304732 
L 174.664232 228.690183 
L 175.405145 231.95143 
L 176.146058 246.892019 
L 176.886971 241.164453 
L 177.627884 250.690013 
L 178.368797 246.728957 
L 179.10971 265.949933 
L 179.850622 254.766572 
L 180.591535 259.957391 
L 181.332448 255.11308 
L 182.073361 276.983819 
L 182.814274 271.908503 
L 183.555187 250.30274 
L 184.2961 257.966671 
L 185.037012 256.893177 
L 185.777925 250.839487 
L 186.518838 247.666565 
L 187.259751 247.551063 
L 188.000664 255.33729 
L 188.741577 239.893926 
L 189.48249 249.018624 
L 190.223402 255.43241 
L 190.964315 242.190387 
L 191.705228 247.965513 
L 192.446141 215.81505 
L 193.187054 217.622325 
L 193.927967 230.748845 
L 194.66888 215.794668 
L 195.409793 220.075055 
L 196.150705 198.014076 
L 196.891618 199.495226 
L 197.632531 214.884236 
L 198.373444 223.200417 
L 199.114357 208.076382 
L 199.85527 212.173324 
L 200.596183 223.90702 
L 201.337095 220.109026 
L 202.078008 213.572943 
L 202.818921 225.714295 
L 203.559834 212.886722 
L 204.300747 217.839741 
L 205.04166 210.284519 
L 205.782573 217.622325 
L 206.523485 217.506822 
L 207.264398 216.039261 
L 208.005311 217.914478 
L 208.746224 229.981093 
L 209.487137 234.540045 
L 210.22805 222.453047 
L 210.968963 228.234967 
L 211.709876 223.54013 
L 212.450788 241.544932 
L 213.191701 250.941401 
L 213.932614 243.922925 
L 214.673527 246.599866 
L 215.41444 246.824076 
L 216.155353 242.924168 
L 216.896266 249.507811 
L 217.637178 268.885055 
L 218.378091 251.016138 
L 219.119004 270.719507 
L 219.859917 264.706582 
L 220.60083 272.248216 
L 221.341743 277.337121 
L 222.823568 262.444092 
L 223.564481 264.387252 
L 224.305394 251.505325 
L 225.78722 270.386588 
L 226.528133 255.547913 
L 227.269046 264.869644 
L 228.009959 263.578734 
L 228.750871 262.831365 
L 229.491784 257.586192 
L 230.232697 254.617098 
L 230.97361 248.923504 
L 231.714523 249.623313 
L 232.455436 249.229246 
L 233.937261 242.516512 
L 234.678174 228.493149 
L 235.419087 228.656211 
L 236.16 222.045391 
L 236.900913 207.627961 
L 237.641826 228.819274 
L 238.382739 219.640222 
L 239.123651 234.669136 
L 239.864564 217.065195 
L 240.605477 216.181941 
L 241.34639 220.836012 
L 242.087303 214.354283 
L 242.828216 215.407394 
L 243.569129 215.563663 
L 244.310041 219.633427 
L 245.050954 219.74893 
L 245.791867 218.580316 
L 246.53278 223.050943 
L 247.273693 223.010177 
L 248.014606 235.994018 
L 248.755519 223.825489 
L 249.496432 237.678995 
L 250.237344 228.554297 
L 250.978257 231.638894 
L 252.460083 253.319394 
L 253.200996 234.798227 
L 253.941909 249.072978 
L 254.682822 253.896906 
L 255.423734 256.655378 
L 256.164647 272.628695 
L 256.90556 257.504661 
L 257.646473 253.693078 
L 258.387386 258.673275 
L 259.869212 281.991192 
L 260.610124 263.836916 
L 261.351037 255.874037 
L 262.09195 259.814711 
L 262.832863 262.253852 
L 263.573776 258.693657 
L 264.314689 251.08408 
L 265.055602 257.953082 
L 265.796515 273.070322 
L 266.537427 257.450307 
L 267.27834 245.003213 
L 268.019253 241.646846 
L 268.760166 250.20762 
L 269.501079 248.882739 
L 270.241992 250.696807 
L 270.982905 257.579398 
L 271.723817 238.453542 
L 272.46473 224.532093 
L 273.205643 217.765004 
L 273.946556 214.918207 
L 274.687469 207.96088 
L 275.428382 211.643372 
L 276.169295 224.749509 
L 276.910207 227.820517 
L 277.65112 224.939748 
L 278.392033 215.237538 
L 279.132946 225.958888 
L 280.614772 212.975048 
L 281.355685 214.340695 
L 282.096598 214.490169 
L 282.83751 220.374002 
L 283.578423 216.92931 
L 284.319336 225.218313 
L 285.060249 249.963027 
L 285.801162 228.921188 
L 286.542075 232.04655 
L 287.282988 240.77718 
L 288.0239 233.351049 
L 288.764813 227.664249 
L 289.505726 244.289815 
L 290.246639 237.821675 
L 290.987552 233.548082 
L 291.728465 249.086567 
L 292.469378 249.548577 
L 293.21029 246.864842 
L 293.951203 246.844459 
L 294.692116 266.636153 
L 295.433029 258.883897 
L 296.173942 257.511455 
L 296.914855 260.378635 
L 297.655768 267.288403 
L 298.39668 280.965258 
L 299.137593 269.156826 
L 299.878506 249.113744 
L 300.619419 249.548577 
L 301.360332 252.205134 
L 302.101245 244.079193 
L 302.842158 287.379045 
L 303.583071 285.20488 
L 304.323983 266.873953 
L 305.064896 252.137192 
L 305.805809 256.675761 
L 306.546722 246.715368 
L 307.287635 230.674108 
L 308.028548 233.147221 
L 309.510373 253.699873 
L 310.992199 234.934112 
L 311.733112 220.0207 
L 312.474025 210.243753 
L 313.214938 225.428936 
L 313.955851 223.995346 
L 314.696763 207.023271 
L 315.437676 214.150455 
L 316.178589 202.797238 
L 316.919502 220.394385 
L 317.660415 212.975048 
L 318.401328 229.043485 
L 319.142241 217.581559 
L 319.883154 216.576008 
L 320.624066 204.31236 
L 321.364979 205.997337 
L 322.105892 214.150455 
L 322.846805 210.440787 
L 323.587718 223.091708 
L 324.328631 217.866918 
L 325.069544 221.73965 
L 325.810456 231.543774 
L 326.551369 234.21392 
L 327.292282 234.227509 
L 328.033195 229.532672 
L 328.774108 237.971149 
L 329.515021 249.575754 
L 330.255934 241.055745 
L 330.996846 237.821675 
L 331.737759 240.641295 
L 332.478672 248.746853 
L 333.219585 246.294124 
L 333.960498 263.082753 
L 334.701411 252.048866 
L 335.442324 255.996334 
L 336.183237 262.532417 
L 336.924149 278.675591 
L 337.665062 271.575584 
L 338.405975 261.085239 
L 339.146888 274.075874 
L 339.887801 263.694237 
L 340.628714 259.583706 
L 341.369627 260.134042 
L 342.110539 254.121117 
L 342.851452 254.562744 
L 343.592365 248.352786 
L 345.074191 264.264955 
L 345.815104 248.26446 
L 346.556017 275.866162 
L 347.296929 263.483614 
L 348.037842 240.573352 
L 348.778755 239.173734 
L 349.519668 252.476905 
L 350.260581 260.001553 
L 351.742407 271.731852 
L 352.48332 270.794244 
L 353.224232 272.533575 
L 353.965145 269.289314 
L 354.706058 272.805346 
L 355.446971 268.283763 
L 356.187884 267.63491 
L 356.928797 272.074962 
L 357.66971 268.956395 
L 358.410622 264.084907 
L 359.151535 265.345243 
L 359.892448 264.974955 
L 360.633361 268.327925 
L 361.374274 265.667971 
L 362.115187 268.324528 
L 362.8561 266.388163 
L 363.597012 266.045052 
L 364.337925 281.817939 
L 365.078838 284.226506 
L 365.819751 276.134536 
L 366.560664 272.666064 
L 367.301577 276.151522 
L 368.783402 280.262052 
L 369.524315 275.142573 
L 370.265228 281.610714 
L 371.747054 283.587845 
L 372.487967 283.458754 
L 373.22888 278.702768 
L 373.969793 283.981912 
L 374.710705 285.972632 
L 375.451618 286.9578 
L 376.192531 286.825312 
L 377.674357 282.813298 
L 378.41527 282.487174 
L 379.156183 285.459665 
L 379.897095 284.094017 
L 380.638008 289.38675 
L 381.378921 286.268182 
L 382.119834 281.590331 
L 382.860747 282.161049 
L 383.60166 277.248795 
L 384.342573 282.161049 
L 385.083485 280.897316 
L 385.824398 274.772286 
L 386.565311 274.823243 
L 387.306224 267.285006 
L 388.047137 273.579892 
L 388.78805 271.918694 
L 389.528963 275.281856 
L 390.269876 267.723236 
L 391.010788 273.749749 
L 391.751701 273.610466 
L 392.492614 270.461325 
L 393.233527 272.465633 
L 393.97444 267.736824 
L 394.715353 269.951755 
L 395.456266 271.347976 
L 396.197178 266.85357 
L 397.679004 264.757539 
L 398.419917 266.106201 
L 399.901743 269.778501 
L 400.642656 270.036683 
L 401.383568 268.423045 
L 402.124481 268.942806 
L 402.865394 270.875775 
L 403.606307 274.847023 
L 404.34722 269.438788 
L 405.088133 277.004202 
L 405.829046 276.226258 
L 406.569959 276.623723 
L 407.310871 279.154587 
L 408.051784 282.935595 
L 408.792697 282.806504 
L 409.53361 283.146217 
L 410.274523 280.469277 
L 411.015436 287.12426 
L 411.756349 282.72837 
L 412.497261 284.722487 
L 413.238174 285.802775 
L 414.72 295.488 
L 414.72 295.488 
" clip-path="url(#p4284bee066)" style="fill: none; stroke-dasharray: 1.5,2.475; stroke-dashoffset: 0; stroke: #ff7f0e; stroke-width: 1.5"/>
   </g>
   <g id="line2d_49">
    <path d="M 57.6 248.488671 
L 58.340913 240.8723 
L 59.081826 244.629529 
L 59.822739 251.607239 
L 60.563651 256.702938 
L 61.304564 246.586277 
L 62.045477 256.614612 
L 62.78639 273.484772 
L 63.527303 257.565809 
L 64.268216 258.727629 
L 65.009129 261.316244 
L 66.490954 279.083247 
L 67.231867 267.995006 
L 67.97278 264.944381 
L 68.713693 260.29031 
L 69.454606 262.620743 
L 70.195519 259.060548 
L 70.936432 253.530016 
L 71.677344 255.57509 
L 72.418257 257.151359 
L 73.15917 251.804273 
L 73.900083 245.505989 
L 74.640996 253.108771 
L 75.381909 252.837001 
L 76.122822 232.528943 
L 76.863734 245.159481 
L 77.604647 248.250872 
L 78.34556 250.683219 
L 79.086473 224.362236 
L 79.827386 210.950357 
L 80.568299 203.945469 
L 81.309212 216.351797 
L 82.050124 232.658034 
L 82.791037 230.395543 
L 83.53195 207.532841 
L 84.272863 217.48644 
L 85.013776 219.633427 
L 85.754689 228.493149 
L 86.495602 211.56184 
L 87.236515 206.20796 
L 87.977427 208.504421 
L 88.71834 207.369779 
L 89.459253 217.038018 
L 90.200166 210.182605 
L 90.941079 214.768734 
L 91.681992 212.057822 
L 92.422905 226.787789 
L 93.163817 238.276891 
L 93.90473 219.939169 
L 94.645643 229.172576 
L 95.386556 245.716611 
L 96.127469 237.63823 
L 96.868382 237.787704 
L 97.609295 235.620333 
L 98.350207 238.997083 
L 99.09112 240.91986 
L 99.832033 245.07795 
L 100.572946 246.484363 
L 101.313859 248.977858 
L 102.054772 261.683134 
L 102.795685 259.108108 
L 103.536598 259.454615 
L 104.27751 260.806674 
L 105.018423 274.830037 
L 105.759336 262.960456 
L 106.500249 258.700452 
L 107.241162 246.667808 
L 107.982075 245.900056 
L 109.4639 258.591743 
L 110.204813 259.73318 
L 110.945726 261.846196 
L 111.686639 250.690013 
L 112.427552 257.260067 
L 113.168465 242.360244 
L 113.909378 241.395458 
L 114.65029 250.547334 
L 115.391203 234.016887 
L 116.132116 220.238117 
L 116.873029 240.648089 
L 117.613942 237.074306 
L 118.354855 210.963945 
L 119.095768 219.402422 
L 119.83668 190.159905 
L 120.577593 207.689109 
L 121.318506 210.481552 
L 122.059419 196.505749 
L 122.800332 218.655053 
L 123.541245 207.532841 
L 124.282158 214.639643 
L 125.023071 206.058486 
L 125.763983 201.39762 
L 126.504896 206.092457 
L 127.245809 217.975627 
L 127.986722 199.35934 
L 128.727635 201.66939 
L 129.468548 216.270266 
L 130.209461 204.808341 
L 130.950373 207.770641 
L 131.691286 218.451225 
L 132.432199 214.870648 
L 133.173112 218.485197 
L 133.914025 236.510382 
L 134.654938 230.551811 
L 135.395851 234.574016 
L 136.136763 240.770386 
L 136.877676 243.78704 
L 137.618589 241.252779 
L 138.359502 237.502345 
L 139.100415 240.654884 
L 139.841328 245.601109 
L 140.582241 270.298262 
L 141.323154 252.796235 
L 142.064066 251.892598 
L 142.804979 252.952503 
L 143.545892 272.621901 
L 144.286805 271.466876 
L 145.027718 258.326767 
L 145.768631 262.016053 
L 147.250456 247.720919 
L 147.991369 263.762179 
L 148.732282 246.124267 
L 149.473195 247.707331 
L 150.214108 247.646182 
L 150.955021 238.093446 
L 151.695934 234.193537 
L 152.436846 237.509139 
L 153.177759 250.010587 
L 153.918672 238.351628 
L 154.659585 238.732107 
L 155.400498 229.063867 
L 156.141411 233.405403 
L 156.882324 221.54941 
L 157.623237 211.901554 
L 158.364149 222.344339 
L 159.105062 207.994851 
L 159.845975 212.492655 
L 160.586888 215.950936 
L 161.327801 201.472357 
L 162.068714 206.731118 
L 162.809627 204.889872 
L 163.550539 215.217155 
L 164.291452 208.871311 
L 165.032365 206.330256 
L 165.773278 212.248061 
L 166.514191 205.834275 
L 167.255104 202.749679 
L 167.996017 215.094858 
L 168.736929 210.406815 
L 170.218755 233.527699 
L 170.959668 223.098503 
L 171.700581 229.729705 
L 172.441494 215.950936 
L 173.182407 217.34376 
L 173.92332 230.694491 
L 174.664232 228.105876 
L 175.405145 230.368366 
L 176.146058 245.213835 
L 176.886971 239.493064 
L 177.627884 248.189724 
L 178.368797 245.750582 
L 179.10971 264.502754 
L 179.850622 252.456522 
L 180.591535 258.340356 
L 181.332448 254.888869 
L 182.073361 276.487838 
L 182.814274 272.710226 
L 183.555187 250.126089 
L 184.2961 256.274899 
L 185.037012 255.962363 
L 185.777925 250.078529 
L 186.518838 246.090296 
L 187.259751 245.53996 
L 188.000664 254.134706 
L 188.741577 238.840815 
L 189.48249 247.537474 
L 190.223402 253.400925 
L 190.964315 241.850674 
L 191.705228 244.826562 
L 192.446141 216.229501 
L 193.187054 218.247397 
L 193.927967 230.293629 
L 194.66888 216.779836 
L 195.409793 219.871227 
L 196.150705 199.148718 
L 196.891618 197.837425 
L 197.632531 212.778014 
L 198.373444 217.466057 
L 199.114357 207.301836 
L 199.85527 206.194371 
L 200.596183 215.760696 
L 201.337095 212.886722 
L 202.078008 204.645279 
L 202.818921 217.500028 
L 203.559834 203.931881 
L 204.300747 211.6094 
L 205.04166 201.220969 
L 205.782573 209.39447 
L 206.523485 203.857144 
L 207.264398 202.68853 
L 208.005311 203.266043 
L 208.746224 219.891609 
L 209.487137 226.753817 
L 210.22805 207.444516 
L 210.968963 215.441366 
L 211.709876 210.338873 
L 212.450788 230.171333 
L 213.191701 241.368281 
L 213.932614 234.906935 
L 214.673527 236.877272 
L 215.41444 236.143492 
L 216.155353 230.5654 
L 216.896266 236.20464 
L 217.637178 262.335383 
L 218.378091 242.502924 
L 219.119004 263.748591 
L 219.859917 255.004371 
L 220.60083 266.357588 
L 221.341743 274.041902 
L 222.823568 256.254516 
L 223.564481 255.935186 
L 224.305394 242.136033 
L 225.046307 251.512119 
L 225.78722 264.475577 
L 226.528133 244.473261 
L 227.269046 255.724564 
L 228.009959 254.216237 
L 228.750871 253.176714 
L 230.97361 237.264545 
L 231.714523 238.045886 
L 232.455436 236.483205 
L 233.196349 231.550568 
L 233.937261 228.513532 
L 234.678174 214.422226 
L 235.419087 208.640306 
L 236.16 205.664418 
L 236.900913 181.911668 
L 237.641826 212.329592 
L 238.382739 199.542786 
L 239.123651 214.238781 
L 239.864564 193.35321 
L 240.605477 191.369285 
L 241.34639 198.618765 
L 242.087303 188.12842 
L 242.828216 184.765259 
L 243.569129 186.001815 
L 244.310041 190.051197 
L 245.050954 182.597888 
L 245.791867 189.908518 
L 246.53278 194.453881 
L 247.273693 195.962208 
L 248.014606 216.290649 
L 248.755519 192.911583 
L 249.496432 216.378974 
L 250.237344 204.604513 
L 250.978257 204.291977 
L 252.460083 235.688276 
L 253.200996 210.311696 
L 253.941909 226.67908 
L 254.682822 233.955738 
L 255.423734 238.399188 
L 256.164647 264.027155 
L 256.90556 239.248471 
L 257.646473 234.784639 
L 258.387386 241.076128 
L 259.869212 278.64162 
L 260.610124 249.922261 
L 261.351037 240.308376 
L 262.09195 242.659192 
L 262.832863 245.546754 
L 263.573776 242.462158 
L 264.314689 232.406646 
L 265.055602 240.512204 
L 265.796515 261.58122 
L 266.537427 241.001391 
L 267.27834 226.468458 
L 268.019253 218.913235 
L 268.760166 228.595063 
L 269.501079 228.520326 
L 270.241992 231.720425 
L 270.982905 239.819189 
L 272.46473 194.705269 
L 273.205643 186.755979 
L 273.946556 183.521908 
L 274.687469 176.680083 
L 275.428382 175.076637 
L 276.169295 197.755894 
L 276.910207 197.565654 
L 277.65112 189.018469 
L 278.392033 175.14458 
L 279.132946 189.140766 
L 279.873859 190.43847 
L 280.614772 175.41635 
L 281.355685 177.108122 
L 282.096598 173.561516 
L 282.83751 184.235306 
L 283.578423 169.702373 
L 284.319336 189.894929 
L 285.060249 225.048457 
L 285.801162 196.023356 
L 286.542075 199.012833 
L 287.282988 213.144904 
L 288.0239 202.104223 
L 288.764813 192.84364 
L 289.505726 215.665577 
L 290.246639 210.379638 
L 290.987552 201.085084 
L 291.728465 224.029317 
L 292.469378 223.499364 
L 293.21029 219.511131 
L 293.951203 220.890366 
L 294.692116 249.867907 
L 295.433029 236.66665 
L 296.173942 233.683968 
L 296.914855 240.172491 
L 297.655768 249.990204 
L 298.39668 276.440278 
L 299.137593 257.314422 
L 299.878506 227.412861 
L 300.619419 222.337545 
L 301.360332 229.7365 
L 302.101245 209.543944 
L 302.842158 281.692245 
L 303.583071 278.818271 
L 304.323983 250.200826 
L 305.064896 231.095353 
L 305.805809 237.298517 
L 306.546722 221.726061 
L 307.287635 193.835603 
L 308.028548 204.190063 
L 308.769461 211.072653 
L 309.510373 230.809993 
L 310.992199 202.219726 
L 311.733112 180.315015 
L 312.474025 166.801222 
L 313.214938 190.621915 
L 313.955851 184.629374 
L 314.696763 168.690028 
L 315.437676 170.60601 
L 316.178589 146.785317 
L 316.919502 176.122954 
L 317.660415 164.878445 
L 318.401328 193.7201 
L 319.142241 171.421322 
L 319.883154 170.762279 
L 320.624066 149.849531 
L 321.364979 151.4258 
L 322.105892 148.843979 
L 322.846805 151.507331 
L 323.587718 170.870987 
L 324.328631 160.863034 
L 325.069544 176.286016 
L 325.810456 184.969087 
L 326.551369 186.606505 
L 327.292282 187.075309 
L 328.033195 177.21683 
L 329.515021 211.106625 
L 330.255934 195.785557 
L 330.996846 190.961629 
L 331.737759 190.48603 
L 332.478672 205.256762 
L 333.219585 201.064701 
L 333.960498 239.078614 
L 334.701411 212.479066 
L 335.442324 219.123857 
L 336.183237 229.464729 
L 336.924149 267.689264 
L 337.665062 252.911738 
L 338.405975 228.133053 
L 339.146888 255.969157 
L 339.887801 233.582054 
L 340.628714 226.475252 
L 341.369627 229.376404 
L 342.110539 213.783565 
L 342.851452 216.025673 
L 343.592365 202.851593 
L 344.333278 222.357928 
L 345.074191 246.205798 
L 345.815104 236.238611 
L 346.556017 271.701278 
L 347.296929 259.053753 
L 348.037842 234.478897 
L 348.778755 235.246649 
L 349.519668 246.661014 
L 351.001494 262.172321 
L 351.742407 268.389074 
L 352.48332 265.800459 
L 353.224232 267.804767 
L 353.965145 262.403326 
L 354.706058 266.680316 
L 355.446971 260.599449 
L 356.187884 258.085571 
L 356.928797 263.551557 
L 358.410622 254.793749 
L 359.151535 255.748343 
L 359.892448 255.265951 
L 360.633361 257.800212 
L 361.374274 257.215905 
L 362.115187 258.483035 
L 362.8561 255.697386 
L 363.597012 256.135617 
L 364.337925 276.21267 
L 365.078838 280.088798 
L 365.819751 269.465965 
L 366.560664 263.473423 
L 368.04249 271.212091 
L 368.783402 272.333145 
L 369.524315 267.740221 
L 370.265228 275.974871 
L 371.747054 279.728702 
L 372.487967 279.728702 
L 373.22888 273.814294 
L 373.969793 279.793248 
L 375.451618 284.963683 
L 376.192531 284.365788 
L 376.933444 280.245066 
L 377.674357 277.76516 
L 378.41527 277.581714 
L 379.156183 281.447651 
L 379.897095 280.622148 
L 380.638008 286.271579 
L 381.378921 282.908418 
L 382.119834 276.830948 
L 382.860747 276.742623 
L 383.60166 270.488502 
L 384.342573 276.664489 
L 385.083485 274.554869 
L 385.824398 267.621322 
L 386.565311 267.217063 
L 387.306224 257.963274 
L 388.047137 265.049692 
L 388.78805 264.254763 
L 389.528963 267.75381 
L 390.269876 256.967914 
L 391.010788 265.749502 
L 391.751701 266.072229 
L 392.492614 260.303898 
L 393.233527 263.364715 
L 393.97444 257.185331 
L 394.715353 256.940737 
L 395.456266 260.382032 
L 396.197178 255.758535 
L 396.938091 252.711307 
L 397.679004 251.851832 
L 398.419917 252.572025 
L 399.16083 255.282936 
L 399.901743 256.641789 
L 400.642656 256.781072 
L 401.383568 255.982746 
L 402.124481 257.120785 
L 402.865394 259.760357 
L 403.606307 264.648831 
L 404.34722 257.334804 
L 405.088133 268.643859 
L 405.829046 267.553379 
L 406.569959 267.903284 
L 407.310871 271.392139 
L 408.051784 277.309944 
L 408.792697 276.487838 
L 409.53361 276.464058 
L 410.274523 273.124676 
L 411.015436 283.465548 
L 411.756349 275.495875 
L 412.497261 278.342672 
L 413.238174 279.640377 
L 414.72 295.287569 
L 414.72 295.287569 
" clip-path="url(#p4284bee066)" style="fill: none; stroke-dasharray: 5.55,2.4; stroke-dashoffset: 0; stroke: #2ca02c; stroke-width: 1.5"/>
   </g>
   <g id="patch_3">
    <path d="M 57.6 307.584 
L 57.6 41.472 
" style="fill: none; stroke: #000000; stroke-width: 0.8; stroke-linejoin: miter; stroke-linecap: square"/>
   </g>
   <g id="patch_4">
    <path d="M 414.72 307.584 
L 414.72 41.472 
" style="fill: none; stroke: #000000; stroke-width: 0.8; stroke-linejoin: miter; stroke-linecap: square"/>
   </g>
   <g id="patch_5">
    <path d="M 57.6 307.584 
L 414.72 307.584 
" style="fill: none; stroke: #000000; stroke-width: 0.8; stroke-linejoin: miter; stroke-linecap: square"/>
   </g>
   <g id="patch_6">
    <path d="M 57.6 41.472 
L 414.72 41.472 
" style="fill: none; stroke: #000000; stroke-width: 0.8; stroke-linejoin: miter; stroke-linecap: square"/>
   </g>
   <g id="legend_1">
    <g id="patch_7">
     <path d="M 351.137188 93.506375 
L 407.72 93.506375 
Q 409.72 93.506375 409.72 91.506375 
L 409.72 48.472 
Q 409.72 46.472 407.72 46.472 
L 351.137188 46.472 
Q 349.137188 46.472 349.137188 48.472 
L 349.137188 91.506375 
Q 349.137188 93.506375 351.137188 93.506375 
z
" style="fill: #ffffff; opacity: 0.8; stroke: #cccccc; stroke-linejoin: miter"/>
    </g>
    <g id="line2d_50">
     <path d="M 353.137188 54.570438 
L 363.137188 54.570438 
L 373.137188 54.570438 
" style="fill: none; stroke: #1f77b4; stroke-width: 1.5; stroke-linecap: square"/>
    </g>
    <g id="text_21">
     <!-- Total -->
     <g transform="translate(381.137188 58.070438) scale(0.1 -0.1)">
      <defs>
       <path id="DejaVuSans-54" d="M -19 4666 
L 3928 4666 
L 3928 4134 
L 2272 4134 
L 2272 0 
L 1638 0 
L 1638 4134 
L -19 4134 
L -19 4666 
z
" transform="scale(0.015625)"/>
      </defs>
      <use xlink:href="#DejaVuSans-54"/>
      <use xlink:href="#DejaVuSans-6f" x="44.083984"/>
      <use xlink:href="#DejaVuSans-74" x="105.265625"/>
      <use xlink:href="#DejaVuSans-61" x="144.474609"/>
      <use xlink:href="#DejaVuSans-6c" x="205.753906"/>
     </g>
    </g>
    <g id="line2d_51">
     <path d="M 353.137188 69.248563 
L 363.137188 69.248563 
L 373.137188 69.248563 
" style="fill: none; stroke-dasharray: 1.5,2.475; stroke-dashoffset: 0; stroke: #ff7f0e; stroke-width: 1.5"/>
    </g>
    <g id="text_22">
     <!-- East -->
     <g transform="translate(381.137188 72.748563) scale(0.1 -0.1)">
      <defs>
       <path id="DejaVuSans-45" d="M 628 4666 
L 3578 4666 
L 3578 4134 
L 1259 4134 
L 1259 2753 
L 3481 2753 
L 3481 2222 
L 1259 2222 
L 1259 531 
L 3634 531 
L 3634 0 
L 628 0 
L 628 4666 
z
" transform="scale(0.015625)"/>
       <path id="DejaVuSans-73" d="M 2834 3397 
L 2834 2853 
Q 2591 2978 2328 3040 
Q 2066 3103 1784 3103 
Q 1356 3103 1142 2972 
Q 928 2841 928 2578 
Q 928 2378 1081 2264 
Q 1234 2150 1697 2047 
L 1894 2003 
Q 2506 1872 2764 1633 
Q 3022 1394 3022 966 
Q 3022 478 2636 193 
Q 2250 -91 1575 -91 
Q 1294 -91 989 -36 
Q 684 19 347 128 
L 347 722 
Q 666 556 975 473 
Q 1284 391 1588 391 
Q 1994 391 2212 530 
Q 2431 669 2431 922 
Q 2431 1156 2273 1281 
Q 2116 1406 1581 1522 
L 1381 1569 
Q 847 1681 609 1914 
Q 372 2147 372 2553 
Q 372 3047 722 3315 
Q 1072 3584 1716 3584 
Q 2034 3584 2315 3537 
Q 2597 3491 2834 3397 
z
" transform="scale(0.015625)"/>
      </defs>
      <use xlink:href="#DejaVuSans-45"/>
      <use xlink:href="#DejaVuSans-61" x="63.183594"/>
      <use xlink:href="#DejaVuSans-73" x="124.462891"/>
      <use xlink:href="#DejaVuSans-74" x="176.5625"/>
     </g>
    </g>
    <g id="line2d_52">
     <path d="M 353.137188 83.926688 
L 363.137188 83.926688 
L 373.137188 83.926688 
" style="fill: none; stroke-dasharray: 5.55,2.4; stroke-dashoffset: 0; stroke: #2ca02c; stroke-width: 1.5"/>
    </g>
    <g id="text_23">
     <!-- West -->
     <g transform="translate(381.137188 87.426688) scale(0.1 -0.1)">
      <use xlink:href="#DejaVuSans-57"/>
      <use xlink:href="#DejaVuSans-65" x="93.001953"/>
      <use xlink:href="#DejaVuSans-73" x="154.525391"/>
      <use xlink:href="#DejaVuSans-74" x="206.625"/>
     </g>
    </g>
   </g>
  </g>
 </g>
 <defs>
  <clipPath id="p4284bee066">
   <rect x="57.6" y="41.472" width="357.12" height="266.112"/>
  </clipPath>
 </defs>
</svg>
