<?xml version="1.0" encoding="utf-8" standalone="no"?>
<!DOCTYPE svg PUBLIC "-//W3C//DTD SVG 1.1//EN"
  "http://www.w3.org/Graphics/SVG/1.1/DTD/svg11.dtd">
<svg xmlns:xlink="http://www.w3.org/1999/xlink" width="460.8pt" height="345.6pt" viewBox="0 0 460.8 345.6" xmlns="http://www.w3.org/2000/svg" version="1.1">
 <metadata>
  <rdf:RDF xmlns:dc="http://purl.org/dc/elements/1.1/" xmlns:cc="http://creativecommons.org/ns#" xmlns:rdf="http://www.w3.org/1999/02/22-rdf-syntax-ns#">
   <cc:Work>
    <dc:type rdf:resource="http://purl.org/dc/dcmitype/StillImage"/>
    <dc:date>2023-07-16T17:30:15.331718</dc:date>
    <dc:format>image/svg+xml</dc:format>
    <dc:creator>
     <cc:Agent>
      <dc:title>Matplotlib v3.7.1, https://matplotlib.org/</dc:title>
     </cc:Agent>
    </dc:creator>
   </cc:Work>
  </rdf:RDF>
 </metadata>
 <defs>
  <style type="text/css">*{stroke-linejoin: round; stroke-linecap: butt}</style>
 </defs>
 <g id="figure_1">
  <g id="patch_1">
   <path d="M 0 345.6 
L 460.8 345.6 
L 460.8 0 
L 0 0 
z
" style="fill: #ffffff"/>
  </g>
  <g id="axes_1">
   <g id="patch_2">
    <path d="M 57.6 307.584 
L 414.72 307.584 
L 414.72 41.472 
L 57.6 41.472 
z
" style="fill: #ffffff"/>
   </g>
   <g id="matplotlib.axis_1">
    <g id="xtick_1">
     <g id="line2d_1">
      <defs>
       <path id="mc957f0463f" d="M 0 0 
L 0 3.5 
" style="stroke: #000000; stroke-width: 0.8"/>
      </defs>
      <g>
       <use xlink:href="#mc957f0463f" x="57.6" y="307.584" style="stroke: #000000; stroke-width: 0.8"/>
      </g>
     </g>
    </g>
    <g id="xtick_2">
     <g id="line2d_2">
      <g>
       <use xlink:href="#mc957f0463f" x="128.906462" y="307.584" style="stroke: #000000; stroke-width: 0.8"/>
      </g>
     </g>
     <g id="text_1">
      <!-- 2019 -->
      <g transform="translate(116.181462 322.182437) scale(0.1 -0.1)">
       <defs>
        <path id="DejaVuSans-32" d="M 1228 531 
L 3431 531 
L 3431 0 
L 469 0 
L 469 531 
Q 828 903 1448 1529 
Q 2069 2156 2228 2338 
Q 2531 2678 2651 2914 
Q 2772 3150 2772 3378 
Q 2772 3750 2511 3984 
Q 2250 4219 1831 4219 
Q 1534 4219 1204 4116 
Q 875 4013 500 3803 
L 500 4441 
Q 881 4594 1212 4672 
Q 1544 4750 1819 4750 
Q 2544 4750 2975 4387 
Q 3406 4025 3406 3419 
Q 3406 3131 3298 2873 
Q 3191 2616 2906 2266 
Q 2828 2175 2409 1742 
Q 1991 1309 1228 531 
z
" transform="scale(0.015625)"/>
        <path id="DejaVuSans-30" d="M 2034 4250 
Q 1547 4250 1301 3770 
Q 1056 3291 1056 2328 
Q 1056 1369 1301 889 
Q 1547 409 2034 409 
Q 2525 409 2770 889 
Q 3016 1369 3016 2328 
Q 3016 3291 2770 3770 
Q 2525 4250 2034 4250 
z
M 2034 4750 
Q 2819 4750 3233 4129 
Q 3647 3509 3647 2328 
Q 3647 1150 3233 529 
Q 2819 -91 2034 -91 
Q 1250 -91 836 529 
Q 422 1150 422 2328 
Q 422 3509 836 4129 
Q 1250 4750 2034 4750 
z
" transform="scale(0.015625)"/>
        <path id="DejaVuSans-31" d="M 794 531 
L 1825 531 
L 1825 4091 
L 703 3866 
L 703 4441 
L 1819 4666 
L 2450 4666 
L 2450 531 
L 3481 531 
L 3481 0 
L 794 0 
L 794 531 
z
" transform="scale(0.015625)"/>
        <path id="DejaVuSans-39" d="M 703 97 
L 703 672 
Q 941 559 1184 500 
Q 1428 441 1663 441 
Q 2288 441 2617 861 
Q 2947 1281 2994 2138 
Q 2813 1869 2534 1725 
Q 2256 1581 1919 1581 
Q 1219 1581 811 2004 
Q 403 2428 403 3163 
Q 403 3881 828 4315 
Q 1253 4750 1959 4750 
Q 2769 4750 3195 4129 
Q 3622 3509 3622 2328 
Q 3622 1225 3098 567 
Q 2575 -91 1691 -91 
Q 1453 -91 1209 -44 
Q 966 3 703 97 
z
M 1959 2075 
Q 2384 2075 2632 2365 
Q 2881 2656 2881 3163 
Q 2881 3666 2632 3958 
Q 2384 4250 1959 4250 
Q 1534 4250 1286 3958 
Q 1038 3666 1038 3163 
Q 1038 2656 1286 2365 
Q 1534 2075 1959 2075 
z
" transform="scale(0.015625)"/>
       </defs>
       <use xlink:href="#DejaVuSans-32"/>
       <use xlink:href="#DejaVuSans-30" x="63.623047"/>
       <use xlink:href="#DejaVuSans-31" x="127.246094"/>
       <use xlink:href="#DejaVuSans-39" x="190.869141"/>
      </g>
     </g>
    </g>
    <g id="xtick_3">
     <g id="line2d_3">
      <g>
       <use xlink:href="#mc957f0463f" x="200.408821" y="307.584" style="stroke: #000000; stroke-width: 0.8"/>
      </g>
     </g>
     <g id="text_2">
      <!-- 2020 -->
      <g transform="translate(187.683821 322.182437) scale(0.1 -0.1)">
       <use xlink:href="#DejaVuSans-32"/>
       <use xlink:href="#DejaVuSans-30" x="63.623047"/>
       <use xlink:href="#DejaVuSans-32" x="127.246094"/>
       <use xlink:href="#DejaVuSans-30" x="190.869141"/>
      </g>
     </g>
    </g>
    <g id="xtick_4">
     <g id="line2d_4">
      <g>
       <use xlink:href="#mc957f0463f" x="272.107076" y="307.584" style="stroke: #000000; stroke-width: 0.8"/>
      </g>
     </g>
     <g id="text_3">
      <!-- 2021 -->
      <g transform="translate(259.382076 322.182437) scale(0.1 -0.1)">
       <use xlink:href="#DejaVuSans-32"/>
       <use xlink:href="#DejaVuSans-30" x="63.623047"/>
       <use xlink:href="#DejaVuSans-32" x="127.246094"/>
       <use xlink:href="#DejaVuSans-31" x="190.869141"/>
      </g>
     </g>
    </g>
    <g id="xtick_5">
     <g id="line2d_5">
      <g>
       <use xlink:href="#mc957f0463f" x="343.609435" y="307.584" style="stroke: #000000; stroke-width: 0.8"/>
      </g>
     </g>
     <g id="text_4">
      <!-- 2022 -->
      <g transform="translate(330.884435 322.182437) scale(0.1 -0.1)">
       <use xlink:href="#DejaVuSans-32"/>
       <use xlink:href="#DejaVuSans-30" x="63.623047"/>
       <use xlink:href="#DejaVuSans-32" x="127.246094"/>
       <use xlink:href="#DejaVuSans-32" x="190.869141"/>
      </g>
     </g>
    </g>
    <g id="xtick_6">
     <g id="line2d_6">
      <g>
       <use xlink:href="#mc957f0463f" x="414.72" y="307.584" style="stroke: #000000; stroke-width: 0.8"/>
      </g>
     </g>
    </g>
    <g id="xtick_7">
     <g id="line2d_7">
      <defs>
       <path id="m267c7b4f7d" d="M 0 0 
L 0 2 
" style="stroke: #000000; stroke-width: 0.6"/>
      </defs>
      <g>
       <use xlink:href="#m267c7b4f7d" x="75.034822" y="307.584" style="stroke: #000000; stroke-width: 0.6"/>
      </g>
     </g>
    </g>
    <g id="xtick_8">
     <g id="line2d_8">
      <g>
       <use xlink:href="#m267c7b4f7d" x="92.861437" y="307.584" style="stroke: #000000; stroke-width: 0.6"/>
      </g>
     </g>
    </g>
    <g id="xtick_9">
     <g id="line2d_9">
      <g>
       <use xlink:href="#m267c7b4f7d" x="110.88395" y="307.584" style="stroke: #000000; stroke-width: 0.6"/>
      </g>
     </g>
    </g>
    <g id="xtick_10">
     <g id="line2d_10">
      <g>
       <use xlink:href="#m267c7b4f7d" x="146.53718" y="307.584" style="stroke: #000000; stroke-width: 0.6"/>
      </g>
     </g>
    </g>
    <g id="xtick_11">
     <g id="line2d_11">
      <g>
       <use xlink:href="#m267c7b4f7d" x="164.363796" y="307.584" style="stroke: #000000; stroke-width: 0.6"/>
      </g>
     </g>
    </g>
    <g id="xtick_12">
     <g id="line2d_12">
      <g>
       <use xlink:href="#m267c7b4f7d" x="182.386308" y="307.584" style="stroke: #000000; stroke-width: 0.6"/>
      </g>
     </g>
    </g>
    <g id="xtick_13">
     <g id="line2d_13">
      <g>
       <use xlink:href="#m267c7b4f7d" x="218.235436" y="307.584" style="stroke: #000000; stroke-width: 0.6"/>
      </g>
     </g>
    </g>
    <g id="xtick_14">
     <g id="line2d_14">
      <g>
       <use xlink:href="#m267c7b4f7d" x="236.062052" y="307.584" style="stroke: #000000; stroke-width: 0.6"/>
      </g>
     </g>
    </g>
    <g id="xtick_15">
     <g id="line2d_15">
      <g>
       <use xlink:href="#m267c7b4f7d" x="254.084564" y="307.584" style="stroke: #000000; stroke-width: 0.6"/>
      </g>
     </g>
    </g>
    <g id="xtick_16">
     <g id="line2d_16">
      <g>
       <use xlink:href="#m267c7b4f7d" x="289.737795" y="307.584" style="stroke: #000000; stroke-width: 0.6"/>
      </g>
     </g>
    </g>
    <g id="xtick_17">
     <g id="line2d_17">
      <g>
       <use xlink:href="#m267c7b4f7d" x="307.56441" y="307.584" style="stroke: #000000; stroke-width: 0.6"/>
      </g>
     </g>
    </g>
    <g id="xtick_18">
     <g id="line2d_18">
      <g>
       <use xlink:href="#m267c7b4f7d" x="325.586923" y="307.584" style="stroke: #000000; stroke-width: 0.6"/>
      </g>
     </g>
    </g>
    <g id="xtick_19">
     <g id="line2d_19">
      <g>
       <use xlink:href="#m267c7b4f7d" x="361.240154" y="307.584" style="stroke: #000000; stroke-width: 0.6"/>
      </g>
     </g>
    </g>
    <g id="xtick_20">
     <g id="line2d_20">
      <g>
       <use xlink:href="#m267c7b4f7d" x="379.066769" y="307.584" style="stroke: #000000; stroke-width: 0.6"/>
      </g>
     </g>
    </g>
    <g id="xtick_21">
     <g id="line2d_21">
      <g>
       <use xlink:href="#m267c7b4f7d" x="397.089281" y="307.584" style="stroke: #000000; stroke-width: 0.6"/>
      </g>
     </g>
    </g>
    <g id="text_5">
     <!-- Date -->
     <g transform="translate(224.209219 335.860562) scale(0.1 -0.1)">
      <defs>
       <path id="DejaVuSans-44" d="M 1259 4147 
L 1259 519 
L 2022 519 
Q 2988 519 3436 956 
Q 3884 1394 3884 2338 
Q 3884 3275 3436 3711 
Q 2988 4147 2022 4147 
L 1259 4147 
z
M 628 4666 
L 1925 4666 
Q 3281 4666 3915 4102 
Q 4550 3538 4550 2338 
Q 4550 1131 3912 565 
Q 3275 0 1925 0 
L 628 0 
L 628 4666 
z
" transform="scale(0.015625)"/>
       <path id="DejaVuSans-61" d="M 2194 1759 
Q 1497 1759 1228 1600 
Q 959 1441 959 1056 
Q 959 750 1161 570 
Q 1363 391 1709 391 
Q 2188 391 2477 730 
Q 2766 1069 2766 1631 
L 2766 1759 
L 2194 1759 
z
M 3341 1997 
L 3341 0 
L 2766 0 
L 2766 531 
Q 2569 213 2275 61 
Q 1981 -91 1556 -91 
Q 1019 -91 701 211 
Q 384 513 384 1019 
Q 384 1609 779 1909 
Q 1175 2209 1959 2209 
L 2766 2209 
L 2766 2266 
Q 2766 2663 2505 2880 
Q 2244 3097 1772 3097 
Q 1472 3097 1187 3025 
Q 903 2953 641 2809 
L 641 3341 
Q 956 3463 1253 3523 
Q 1550 3584 1831 3584 
Q 2591 3584 2966 3190 
Q 3341 2797 3341 1997 
z
" transform="scale(0.015625)"/>
       <path id="DejaVuSans-74" d="M 1172 4494 
L 1172 3500 
L 2356 3500 
L 2356 3053 
L 1172 3053 
L 1172 1153 
Q 1172 725 1289 603 
Q 1406 481 1766 481 
L 2356 481 
L 2356 0 
L 1766 0 
Q 1100 0 847 248 
Q 594 497 594 1153 
L 594 3053 
L 172 3053 
L 172 3500 
L 594 3500 
L 594 4494 
L 1172 4494 
z
" transform="scale(0.015625)"/>
       <path id="DejaVuSans-65" d="M 3597 1894 
L 3597 1613 
L 953 1613 
Q 991 1019 1311 708 
Q 1631 397 2203 397 
Q 2534 397 2845 478 
Q 3156 559 3463 722 
L 3463 178 
Q 3153 47 2828 -22 
Q 2503 -91 2169 -91 
Q 1331 -91 842 396 
Q 353 884 353 1716 
Q 353 2575 817 3079 
Q 1281 3584 2069 3584 
Q 2775 3584 3186 3129 
Q 3597 2675 3597 1894 
z
M 3022 2063 
Q 3016 2534 2758 2815 
Q 2500 3097 2075 3097 
Q 1594 3097 1305 2825 
Q 1016 2553 972 2059 
L 3022 2063 
z
" transform="scale(0.015625)"/>
      </defs>
      <use xlink:href="#DejaVuSans-44"/>
      <use xlink:href="#DejaVuSans-61" x="77.001953"/>
      <use xlink:href="#DejaVuSans-74" x="138.28125"/>
      <use xlink:href="#DejaVuSans-65" x="177.490234"/>
     </g>
    </g>
   </g>
   <g id="matplotlib.axis_2">
    <g id="ytick_1">
     <g id="line2d_22">
      <defs>
       <path id="mb0e511dbb1" d="M 0 0 
L -3.5 0 
" style="stroke: #000000; stroke-width: 0.8"/>
      </defs>
      <g>
       <use xlink:href="#mb0e511dbb1" x="57.6" y="293.066866" style="stroke: #000000; stroke-width: 0.8"/>
      </g>
     </g>
     <g id="text_6">
      <!-- −20 -->
      <g transform="translate(29.495313 296.866084) scale(0.1 -0.1)">
       <defs>
        <path id="DejaVuSans-2212" d="M 678 2272 
L 4684 2272 
L 4684 1741 
L 678 1741 
L 678 2272 
z
" transform="scale(0.015625)"/>
       </defs>
       <use xlink:href="#DejaVuSans-2212"/>
       <use xlink:href="#DejaVuSans-32" x="83.789062"/>
       <use xlink:href="#DejaVuSans-30" x="147.412109"/>
      </g>
     </g>
    </g>
    <g id="ytick_2">
     <g id="line2d_23">
      <g>
       <use xlink:href="#mb0e511dbb1" x="57.6" y="242.528837" style="stroke: #000000; stroke-width: 0.8"/>
      </g>
     </g>
     <g id="text_7">
      <!-- 0 -->
      <g transform="translate(44.2375 246.328056) scale(0.1 -0.1)">
       <use xlink:href="#DejaVuSans-30"/>
      </g>
     </g>
    </g>
    <g id="ytick_3">
     <g id="line2d_24">
      <g>
       <use xlink:href="#mb0e511dbb1" x="57.6" y="191.990809" style="stroke: #000000; stroke-width: 0.8"/>
      </g>
     </g>
     <g id="text_8">
      <!-- 20 -->
      <g transform="translate(37.875 195.790028) scale(0.1 -0.1)">
       <use xlink:href="#DejaVuSans-32"/>
       <use xlink:href="#DejaVuSans-30" x="63.623047"/>
      </g>
     </g>
    </g>
    <g id="ytick_4">
     <g id="line2d_25">
      <g>
       <use xlink:href="#mb0e511dbb1" x="57.6" y="141.452781" style="stroke: #000000; stroke-width: 0.8"/>
      </g>
     </g>
     <g id="text_9">
      <!-- 40 -->
      <g transform="translate(37.875 145.252) scale(0.1 -0.1)">
       <defs>
        <path id="DejaVuSans-34" d="M 2419 4116 
L 825 1625 
L 2419 1625 
L 2419 4116 
z
M 2253 4666 
L 3047 4666 
L 3047 1625 
L 3713 1625 
L 3713 1100 
L 3047 1100 
L 3047 0 
L 2419 0 
L 2419 1100 
L 313 1100 
L 313 1709 
L 2253 4666 
z
" transform="scale(0.015625)"/>
       </defs>
       <use xlink:href="#DejaVuSans-34"/>
       <use xlink:href="#DejaVuSans-30" x="63.623047"/>
      </g>
     </g>
    </g>
    <g id="ytick_5">
     <g id="line2d_26">
      <g>
       <use xlink:href="#mb0e511dbb1" x="57.6" y="90.914752" style="stroke: #000000; stroke-width: 0.8"/>
      </g>
     </g>
     <g id="text_10">
      <!-- 60 -->
      <g transform="translate(37.875 94.713971) scale(0.1 -0.1)">
       <defs>
        <path id="DejaVuSans-36" d="M 2113 2584 
Q 1688 2584 1439 2293 
Q 1191 2003 1191 1497 
Q 1191 994 1439 701 
Q 1688 409 2113 409 
Q 2538 409 2786 701 
Q 3034 994 3034 1497 
Q 3034 2003 2786 2293 
Q 2538 2584 2113 2584 
z
M 3366 4563 
L 3366 3988 
Q 3128 4100 2886 4159 
Q 2644 4219 2406 4219 
Q 1781 4219 1451 3797 
Q 1122 3375 1075 2522 
Q 1259 2794 1537 2939 
Q 1816 3084 2150 3084 
Q 2853 3084 3261 2657 
Q 3669 2231 3669 1497 
Q 3669 778 3244 343 
Q 2819 -91 2113 -91 
Q 1303 -91 875 529 
Q 447 1150 447 2328 
Q 447 3434 972 4092 
Q 1497 4750 2381 4750 
Q 2619 4750 2861 4703 
Q 3103 4656 3366 4563 
z
" transform="scale(0.015625)"/>
       </defs>
       <use xlink:href="#DejaVuSans-36"/>
       <use xlink:href="#DejaVuSans-30" x="63.623047"/>
      </g>
     </g>
    </g>
    <g id="text_11">
     <!-- % Return on Investment after 1 year -->
     <g transform="translate(23.415625 266.118625) rotate(-90) scale(0.1 -0.1)">
      <defs>
       <path id="DejaVuSans-25" d="M 4653 2053 
Q 4381 2053 4226 1822 
Q 4072 1591 4072 1178 
Q 4072 772 4226 539 
Q 4381 306 4653 306 
Q 4919 306 5073 539 
Q 5228 772 5228 1178 
Q 5228 1588 5073 1820 
Q 4919 2053 4653 2053 
z
M 4653 2450 
Q 5147 2450 5437 2106 
Q 5728 1763 5728 1178 
Q 5728 594 5436 251 
Q 5144 -91 4653 -91 
Q 4153 -91 3862 251 
Q 3572 594 3572 1178 
Q 3572 1766 3864 2108 
Q 4156 2450 4653 2450 
z
M 1428 4353 
Q 1159 4353 1004 4120 
Q 850 3888 850 3481 
Q 850 3069 1003 2837 
Q 1156 2606 1428 2606 
Q 1700 2606 1854 2837 
Q 2009 3069 2009 3481 
Q 2009 3884 1853 4118 
Q 1697 4353 1428 4353 
z
M 4250 4750 
L 4750 4750 
L 1831 -91 
L 1331 -91 
L 4250 4750 
z
M 1428 4750 
Q 1922 4750 2215 4408 
Q 2509 4066 2509 3481 
Q 2509 2891 2217 2550 
Q 1925 2209 1428 2209 
Q 931 2209 642 2551 
Q 353 2894 353 3481 
Q 353 4063 643 4406 
Q 934 4750 1428 4750 
z
" transform="scale(0.015625)"/>
       <path id="DejaVuSans-20" transform="scale(0.015625)"/>
       <path id="DejaVuSans-52" d="M 2841 2188 
Q 3044 2119 3236 1894 
Q 3428 1669 3622 1275 
L 4263 0 
L 3584 0 
L 2988 1197 
Q 2756 1666 2539 1819 
Q 2322 1972 1947 1972 
L 1259 1972 
L 1259 0 
L 628 0 
L 628 4666 
L 2053 4666 
Q 2853 4666 3247 4331 
Q 3641 3997 3641 3322 
Q 3641 2881 3436 2590 
Q 3231 2300 2841 2188 
z
M 1259 4147 
L 1259 2491 
L 2053 2491 
Q 2509 2491 2742 2702 
Q 2975 2913 2975 3322 
Q 2975 3731 2742 3939 
Q 2509 4147 2053 4147 
L 1259 4147 
z
" transform="scale(0.015625)"/>
       <path id="DejaVuSans-75" d="M 544 1381 
L 544 3500 
L 1119 3500 
L 1119 1403 
Q 1119 906 1312 657 
Q 1506 409 1894 409 
Q 2359 409 2629 706 
Q 2900 1003 2900 1516 
L 2900 3500 
L 3475 3500 
L 3475 0 
L 2900 0 
L 2900 538 
Q 2691 219 2414 64 
Q 2138 -91 1772 -91 
Q 1169 -91 856 284 
Q 544 659 544 1381 
z
M 1991 3584 
L 1991 3584 
z
" transform="scale(0.015625)"/>
       <path id="DejaVuSans-72" d="M 2631 2963 
Q 2534 3019 2420 3045 
Q 2306 3072 2169 3072 
Q 1681 3072 1420 2755 
Q 1159 2438 1159 1844 
L 1159 0 
L 581 0 
L 581 3500 
L 1159 3500 
L 1159 2956 
Q 1341 3275 1631 3429 
Q 1922 3584 2338 3584 
Q 2397 3584 2469 3576 
Q 2541 3569 2628 3553 
L 2631 2963 
z
" transform="scale(0.015625)"/>
       <path id="DejaVuSans-6e" d="M 3513 2113 
L 3513 0 
L 2938 0 
L 2938 2094 
Q 2938 2591 2744 2837 
Q 2550 3084 2163 3084 
Q 1697 3084 1428 2787 
Q 1159 2491 1159 1978 
L 1159 0 
L 581 0 
L 581 3500 
L 1159 3500 
L 1159 2956 
Q 1366 3272 1645 3428 
Q 1925 3584 2291 3584 
Q 2894 3584 3203 3211 
Q 3513 2838 3513 2113 
z
" transform="scale(0.015625)"/>
       <path id="DejaVuSans-6f" d="M 1959 3097 
Q 1497 3097 1228 2736 
Q 959 2375 959 1747 
Q 959 1119 1226 758 
Q 1494 397 1959 397 
Q 2419 397 2687 759 
Q 2956 1122 2956 1747 
Q 2956 2369 2687 2733 
Q 2419 3097 1959 3097 
z
M 1959 3584 
Q 2709 3584 3137 3096 
Q 3566 2609 3566 1747 
Q 3566 888 3137 398 
Q 2709 -91 1959 -91 
Q 1206 -91 779 398 
Q 353 888 353 1747 
Q 353 2609 779 3096 
Q 1206 3584 1959 3584 
z
" transform="scale(0.015625)"/>
       <path id="DejaVuSans-49" d="M 628 4666 
L 1259 4666 
L 1259 0 
L 628 0 
L 628 4666 
z
" transform="scale(0.015625)"/>
       <path id="DejaVuSans-76" d="M 191 3500 
L 800 3500 
L 1894 563 
L 2988 3500 
L 3597 3500 
L 2284 0 
L 1503 0 
L 191 3500 
z
" transform="scale(0.015625)"/>
       <path id="DejaVuSans-73" d="M 2834 3397 
L 2834 2853 
Q 2591 2978 2328 3040 
Q 2066 3103 1784 3103 
Q 1356 3103 1142 2972 
Q 928 2841 928 2578 
Q 928 2378 1081 2264 
Q 1234 2150 1697 2047 
L 1894 2003 
Q 2506 1872 2764 1633 
Q 3022 1394 3022 966 
Q 3022 478 2636 193 
Q 2250 -91 1575 -91 
Q 1294 -91 989 -36 
Q 684 19 347 128 
L 347 722 
Q 666 556 975 473 
Q 1284 391 1588 391 
Q 1994 391 2212 530 
Q 2431 669 2431 922 
Q 2431 1156 2273 1281 
Q 2116 1406 1581 1522 
L 1381 1569 
Q 847 1681 609 1914 
Q 372 2147 372 2553 
Q 372 3047 722 3315 
Q 1072 3584 1716 3584 
Q 2034 3584 2315 3537 
Q 2597 3491 2834 3397 
z
" transform="scale(0.015625)"/>
       <path id="DejaVuSans-6d" d="M 3328 2828 
Q 3544 3216 3844 3400 
Q 4144 3584 4550 3584 
Q 5097 3584 5394 3201 
Q 5691 2819 5691 2113 
L 5691 0 
L 5113 0 
L 5113 2094 
Q 5113 2597 4934 2840 
Q 4756 3084 4391 3084 
Q 3944 3084 3684 2787 
Q 3425 2491 3425 1978 
L 3425 0 
L 2847 0 
L 2847 2094 
Q 2847 2600 2669 2842 
Q 2491 3084 2119 3084 
Q 1678 3084 1418 2786 
Q 1159 2488 1159 1978 
L 1159 0 
L 581 0 
L 581 3500 
L 1159 3500 
L 1159 2956 
Q 1356 3278 1631 3431 
Q 1906 3584 2284 3584 
Q 2666 3584 2933 3390 
Q 3200 3197 3328 2828 
z
" transform="scale(0.015625)"/>
       <path id="DejaVuSans-66" d="M 2375 4863 
L 2375 4384 
L 1825 4384 
Q 1516 4384 1395 4259 
Q 1275 4134 1275 3809 
L 1275 3500 
L 2222 3500 
L 2222 3053 
L 1275 3053 
L 1275 0 
L 697 0 
L 697 3053 
L 147 3053 
L 147 3500 
L 697 3500 
L 697 3744 
Q 697 4328 969 4595 
Q 1241 4863 1831 4863 
L 2375 4863 
z
" transform="scale(0.015625)"/>
       <path id="DejaVuSans-79" d="M 2059 -325 
Q 1816 -950 1584 -1140 
Q 1353 -1331 966 -1331 
L 506 -1331 
L 506 -850 
L 844 -850 
Q 1081 -850 1212 -737 
Q 1344 -625 1503 -206 
L 1606 56 
L 191 3500 
L 800 3500 
L 1894 763 
L 2988 3500 
L 3597 3500 
L 2059 -325 
z
" transform="scale(0.015625)"/>
      </defs>
      <use xlink:href="#DejaVuSans-25"/>
      <use xlink:href="#DejaVuSans-20" x="95.019531"/>
      <use xlink:href="#DejaVuSans-52" x="126.806641"/>
      <use xlink:href="#DejaVuSans-65" x="191.789062"/>
      <use xlink:href="#DejaVuSans-74" x="253.3125"/>
      <use xlink:href="#DejaVuSans-75" x="292.521484"/>
      <use xlink:href="#DejaVuSans-72" x="355.900391"/>
      <use xlink:href="#DejaVuSans-6e" x="395.263672"/>
      <use xlink:href="#DejaVuSans-20" x="458.642578"/>
      <use xlink:href="#DejaVuSans-6f" x="490.429688"/>
      <use xlink:href="#DejaVuSans-6e" x="551.611328"/>
      <use xlink:href="#DejaVuSans-20" x="614.990234"/>
      <use xlink:href="#DejaVuSans-49" x="646.777344"/>
      <use xlink:href="#DejaVuSans-6e" x="676.269531"/>
      <use xlink:href="#DejaVuSans-76" x="739.648438"/>
      <use xlink:href="#DejaVuSans-65" x="798.828125"/>
      <use xlink:href="#DejaVuSans-73" x="860.351562"/>
      <use xlink:href="#DejaVuSans-74" x="912.451172"/>
      <use xlink:href="#DejaVuSans-6d" x="951.660156"/>
      <use xlink:href="#DejaVuSans-65" x="1049.072266"/>
      <use xlink:href="#DejaVuSans-6e" x="1110.595703"/>
      <use xlink:href="#DejaVuSans-74" x="1173.974609"/>
      <use xlink:href="#DejaVuSans-20" x="1213.183594"/>
      <use xlink:href="#DejaVuSans-61" x="1244.970703"/>
      <use xlink:href="#DejaVuSans-66" x="1306.25"/>
      <use xlink:href="#DejaVuSans-74" x="1339.705078"/>
      <use xlink:href="#DejaVuSans-65" x="1378.914062"/>
      <use xlink:href="#DejaVuSans-72" x="1440.4375"/>
      <use xlink:href="#DejaVuSans-20" x="1481.550781"/>
      <use xlink:href="#DejaVuSans-31" x="1513.337891"/>
      <use xlink:href="#DejaVuSans-20" x="1576.960938"/>
      <use xlink:href="#DejaVuSans-79" x="1608.748047"/>
      <use xlink:href="#DejaVuSans-65" x="1667.927734"/>
      <use xlink:href="#DejaVuSans-61" x="1729.451172"/>
      <use xlink:href="#DejaVuSans-72" x="1790.730469"/>
     </g>
    </g>
   </g>
   <g id="line2d_27">
    <path d="M 57.6 259.942817 
L 57.795897 267.226369 
L 57.991794 260.344304 
L 58.187691 261.984819 
L 58.383587 261.984819 
L 58.971278 257.805297 
L 59.167175 256.467016 
L 59.558969 259.758533 
L 59.754866 259.758533 
L 59.950762 260.996473 
L 60.342556 257.120016 
L 60.538453 257.550175 
L 60.73435 254.027115 
L 60.930247 255.08018 
L 61.322041 255.08018 
L 61.517937 260.374326 
L 61.713834 260.367636 
L 61.909731 259.91278 
L 62.105628 258.058255 
L 62.301525 260.833658 
L 62.497422 260.833658 
L 62.693319 262.672839 
L 62.889216 261.437674 
L 63.085112 255.186477 
L 63.281009 253.241147 
L 63.476906 252.866637 
L 63.672803 247.615323 
L 63.8687 247.615323 
L 64.064597 245.937502 
L 64.260494 234.06176 
L 64.456391 239.109474 
L 64.652287 240.230579 
L 64.848184 230.106793 
L 65.044081 234.00826 
L 65.239978 234.00826 
L 65.435875 233.823035 
L 65.631772 234.087124 
L 65.827669 233.980061 
L 66.023566 238.118551 
L 66.219462 238.420944 
L 66.611256 238.516814 
L 66.807153 238.516814 
L 67.00305 238.132083 
L 67.198947 236.161958 
L 67.394844 235.648778 
L 67.590741 234.238725 
L 67.786637 238.355824 
L 67.982534 238.355824 
L 68.178431 238.039404 
L 68.374328 241.228859 
L 68.962019 230.636402 
L 69.157916 231.971489 
L 69.353812 231.971489 
L 69.549709 232.993036 
L 69.941503 238.515443 
L 70.333297 242.150573 
L 70.529194 246.473479 
L 70.725091 246.473479 
L 70.920987 242.825367 
L 71.116884 241.757062 
L 71.312781 238.361072 
L 71.704575 235.616803 
L 71.900472 236.05827 
L 72.096369 236.05827 
L 72.292265 235.097834 
L 72.488162 231.384235 
L 72.684059 232.550282 
L 73.27175 221.787487 
L 73.467647 221.787487 
L 73.663544 222.016901 
L 73.85944 227.329703 
L 74.251234 222.115748 
L 74.447131 224.011051 
L 74.838925 224.011051 
L 75.034822 220.873555 
L 75.230719 214.600471 
L 75.622512 220.104143 
L 75.818409 220.712492 
L 76.014306 214.560386 
L 76.210203 214.560386 
L 76.4061 214.266407 
L 76.797894 220.526521 
L 76.99379 218.989781 
L 77.189687 219.439481 
L 77.385584 218.641104 
L 77.581481 218.641104 
L 77.777378 218.815174 
L 77.973275 220.898858 
L 78.169172 224.409843 
L 78.365069 224.20752 
L 78.952759 220.299881 
L 79.148656 220.021658 
L 79.54045 214.455891 
L 79.736347 215.074128 
L 79.932244 216.668025 
L 80.12814 216.977882 
L 80.324037 216.977882 
L 80.519934 216.67974 
L 80.715831 214.113182 
L 80.911728 216.931451 
L 81.107625 215.506963 
L 81.303522 212.173127 
L 81.499419 215.753411 
L 81.695315 215.753411 
L 81.891212 217.002898 
L 82.087109 222.539615 
L 82.283006 222.905044 
L 82.6748 227.836454 
L 82.870697 228.292257 
L 83.066594 228.292257 
L 83.26249 234.733348 
L 83.458387 232.877086 
L 83.654284 229.527379 
L 83.850181 228.248028 
L 84.046078 229.579072 
L 84.241975 228.878011 
L 84.437872 228.878011 
L 84.633769 230.675647 
L 84.829665 230.384398 
L 85.025562 230.301678 
L 85.221459 234.305496 
L 85.613253 232.804095 
L 86.005047 232.804095 
L 86.200943 235.001997 
L 86.39684 233.777233 
L 86.984531 240.917315 
L 87.180428 240.917315 
L 87.376325 241.62052 
L 87.768118 235.418264 
L 87.964015 236.044682 
L 88.159912 233.136772 
L 88.355809 233.953463 
L 88.551706 233.953463 
L 88.747603 232.735954 
L 88.9435 233.107912 
L 89.139397 234.09722 
L 89.335293 231.96742 
L 89.53119 233.039642 
L 89.727087 232.772707 
L 89.922984 232.772707 
L 90.118881 232.528173 
L 90.510675 227.539896 
L 90.902468 224.085446 
L 91.098365 224.589341 
L 91.294262 224.589341 
L 91.490159 225.058041 
L 91.686056 223.899831 
L 91.881953 224.830713 
L 92.07785 221.44129 
L 92.66554 221.763297 
L 92.861437 219.665263 
L 93.057334 219.703676 
L 93.253231 216.209461 
L 93.449128 216.209461 
L 93.840922 221.415946 
L 94.036818 221.415946 
L 94.428612 224.78897 
L 94.624509 224.509391 
L 94.820406 221.952148 
L 95.016303 223.070645 
L 95.2122 223.364041 
L 95.603993 223.31623 
L 95.79989 223.962838 
L 95.995787 226.80109 
L 96.191684 226.420361 
L 96.387581 227.020471 
L 96.583478 226.765858 
L 96.779375 226.765858 
L 96.975272 226.006486 
L 97.171168 224.660358 
L 97.367065 224.685336 
L 97.562962 228.536234 
L 97.954756 223.968952 
L 98.150653 223.968952 
L 98.34655 224.407323 
L 98.542447 223.54238 
L 98.93424 229.93637 
L 99.130137 233.159376 
L 99.326034 234.370803 
L 99.521931 234.370803 
L 99.717828 242.138293 
L 99.913725 239.747852 
L 100.109622 240.271954 
L 100.305518 235.420395 
L 100.501415 236.766776 
L 100.697312 234.915003 
L 100.893209 234.915003 
L 101.089106 238.121251 
L 101.285003 233.181207 
L 101.4809 242.47188 
L 101.872693 238.259946 
L 102.06859 239.111022 
L 102.264487 239.111022 
L 102.460384 236.010614 
L 102.656281 238.685046 
L 102.852178 237.103384 
L 103.048075 237.131252 
L 103.243971 243.401794 
L 103.439868 244.953152 
L 103.635765 244.953152 
L 103.831662 242.204485 
L 104.027559 244.934719 
L 104.61525 240.322572 
L 105.20294 240.356846 
L 105.398837 242.115165 
L 105.986528 233.69099 
L 106.182425 233.110854 
L 106.574218 233.135495 
L 106.770115 233.547631 
L 107.161909 231.975723 
L 107.357806 233.548629 
L 107.7496 233.620695 
L 107.945496 234.440959 
L 108.141393 232.303328 
L 108.33729 233.617769 
L 108.533187 233.939998 
L 108.729084 237.241803 
L 109.120878 237.146695 
L 109.316775 237.171711 
L 109.512671 238.440781 
L 109.708568 236.521769 
L 109.904465 236.298461 
L 110.100362 238.384681 
L 110.492156 238.382916 
L 110.688053 237.086509 
L 111.079846 245.624966 
L 111.275743 243.814104 
L 111.47164 238.139702 
L 111.667537 236.710674 
L 111.863434 236.710674 
L 112.059331 237.86835 
L 112.255228 241.772796 
L 112.451125 239.102148 
L 112.842918 220.125088 
L 113.038815 223.978385 
L 113.234712 223.978385 
L 113.430609 224.354628 
L 113.626506 220.033023 
L 113.822403 226.362501 
L 114.0183 225.551561 
L 114.214196 222.68621 
L 114.60599 222.587744 
L 114.801887 220.714326 
L 114.997784 220.512835 
L 115.193681 218.203846 
L 115.389578 208.832703 
L 115.585474 212.924091 
L 115.781371 207.946444 
L 115.977268 207.946444 
L 116.369062 204.677706 
L 116.760856 212.167697 
L 116.956753 212.41853 
L 117.152649 210.620812 
L 117.348546 210.620812 
L 117.544443 209.566635 
L 117.936237 213.061075 
L 118.132134 218.166719 
L 118.328031 216.758644 
L 118.523928 214.173301 
L 118.719824 214.173301 
L 118.915721 214.724844 
L 119.111618 208.639936 
L 119.307515 208.010405 
L 119.503412 205.578168 
L 119.895206 207.049513 
L 120.091103 207.049513 
L 120.286999 206.90452 
L 120.678793 197.902581 
L 120.87469 199.273806 
L 121.070587 198.630144 
L 121.266484 196.673224 
L 121.462381 196.673224 
L 121.658278 194.431954 
L 121.854174 198.382134 
L 122.050071 198.112082 
L 122.245968 204.784518 
L 122.441865 205.316626 
L 122.637762 207.666148 
L 122.833659 207.666148 
L 123.029556 210.148022 
L 123.225453 215.105194 
L 123.421349 203.905545 
L 123.617246 203.468502 
L 123.813143 200.354298 
L 124.00904 193.313835 
L 124.204937 193.313835 
L 124.596731 195.127636 
L 124.988524 193.202662 
L 125.184421 193.120342 
L 125.380318 187.242076 
L 125.576215 187.242076 
L 125.772112 185.040724 
L 125.968009 178.354342 
L 126.163906 178.518686 
L 126.751596 158.397099 
L 126.947493 158.397099 
L 127.14339 158.105363 
L 127.339287 148.778468 
L 127.535184 148.778468 
L 127.731081 163.455268 
L 127.926978 166.260757 
L 128.122874 165.85182 
L 128.318771 165.85182 
L 128.710565 169.556801 
L 128.906462 169.556801 
L 129.102359 167.244177 
L 129.298256 161.292714 
L 129.494152 172.3777 
L 129.690049 172.3777 
L 129.885946 171.236981 
L 130.27774 175.917195 
L 130.473637 175.104004 
L 130.669534 177.453785 
L 131.061327 177.40729 
L 131.453121 173.985971 
L 131.649018 176.7992 
L 131.844915 174.846986 
L 132.040812 176.032728 
L 132.236709 180.185826 
L 132.628502 180.185826 
L 132.824399 181.021287 
L 133.020296 176.417084 
L 133.216193 176.754887 
L 133.607987 182.720754 
L 133.803884 182.720754 
L 133.999781 187.636573 
L 134.195677 182.087176 
L 134.391574 181.902356 
L 134.587471 185.732594 
L 134.783368 193.803691 
L 134.979265 194.074302 
L 135.175162 194.074302 
L 135.958749 185.714476 
L 136.154646 184.478421 
L 136.350543 184.688402 
L 136.54644 184.688402 
L 136.742337 182.413332 
L 136.938234 182.107197 
L 137.330027 185.537881 
L 137.525924 184.142109 
L 137.721821 187.489819 
L 138.113615 187.489819 
L 138.309512 188.38837 
L 138.505409 187.405824 
L 139.093099 193.208164 
L 139.288996 193.208164 
L 139.68079 212.5163 
L 139.876687 213.361707 
L 140.072584 225.662787 
L 140.464377 228.961911 
L 140.660274 228.961911 
L 140.856171 216.703641 
L 141.052068 223.477613 
L 141.247965 211.688599 
L 141.443862 219.507772 
L 141.639759 221.989524 
L 141.835656 221.40584 
L 142.031552 221.40584 
L 142.227449 242.207341 
L 142.423346 233.54719 
L 142.619243 247.067554 
L 142.81514 272.219654 
L 143.011037 251.297699 
L 143.206934 252.507591 
L 143.40283 252.507591 
L 143.598727 281.594258 
L 143.794624 269.622469 
L 143.990521 281.287377 
L 144.186418 279.645503 
L 144.382315 291.206703 
L 144.578212 287.260801 
L 144.774109 287.260801 
L 144.970005 293.3527 
L 145.165902 274.226626 
L 145.361799 273.271664 
L 145.557696 258.318766 
L 145.753593 267.118071 
L 145.94949 268.643891 
L 146.145387 268.643891 
L 146.341284 261.049998 
L 146.53718 267.434825 
L 146.733077 277.493572 
L 146.928974 273.000452 
L 147.124871 276.819485 
L 147.320768 277.827406 
L 147.516665 277.827406 
L 147.712562 262.53797 
L 147.908459 263.154049 
L 148.104355 253.785846 
L 148.300252 251.136991 
L 148.496149 251.146296 
L 148.692046 252.74886 
L 148.887943 252.74886 
L 149.08384 255.198938 
L 149.279737 247.705126 
L 149.475634 253.281198 
L 149.67153 251.319339 
L 149.867427 245.179227 
L 150.259221 245.179227 
L 150.455118 249.6502 
L 150.651015 257.423625 
L 150.846912 254.102677 
L 151.042809 253.703396 
L 151.238705 250.251582 
L 151.434602 251.393973 
L 151.630499 251.393973 
L 151.826396 247.806315 
L 152.022293 249.366782 
L 152.21819 243.070966 
L 152.414087 243.50547 
L 152.609984 250.047568 
L 152.80588 252.38804 
L 153.001777 252.38804 
L 153.197674 251.35605 
L 153.981262 237.328416 
L 154.177159 238.284289 
L 154.568952 238.250097 
L 154.764849 237.294171 
L 154.960746 243.813494 
L 155.156643 242.392338 
L 155.35254 243.637538 
L 155.548437 242.160351 
L 155.744334 242.160351 
L 155.94023 234.188702 
L 156.136127 235.170281 
L 156.332024 233.067381 
L 156.527921 234.368497 
L 156.723818 230.601842 
L 156.919715 230.959532 
L 157.311509 230.959532 
L 157.507405 227.712 
L 157.703302 221.452615 
L 158.095096 219.383293 
L 158.290993 215.694868 
L 158.48689 215.694868 
L 158.682787 214.646308 
L 158.878683 211.558182 
L 159.270477 216.939265 
L 159.466374 211.386572 
L 159.662271 214.335205 
L 159.858168 214.335205 
L 160.054065 210.952921 
L 160.249962 214.478225 
L 160.445858 215.872088 
L 160.641755 231.801193 
L 160.837652 229.449693 
L 161.033549 229.020711 
L 161.229446 229.020711 
L 161.425343 226.808014 
L 161.62124 221.972895 
L 161.817137 225.576883 
L 162.013033 226.219663 
L 162.20893 230.249216 
L 162.404827 229.915139 
L 162.600724 229.915139 
L 162.992518 226.57651 
L 163.188415 231.013298 
L 163.384312 227.787757 
L 163.580208 235.260654 
L 163.776105 236.748784 
L 163.972002 236.748784 
L 164.363796 230.939122 
L 164.559693 230.387334 
L 164.75559 231.210242 
L 164.951487 231.210242 
L 165.147383 230.732606 
L 165.34328 230.732606 
L 165.539177 226.532105 
L 165.735074 228.147494 
L 165.930971 226.389425 
L 166.126868 229.106942 
L 166.322765 226.93485 
L 166.518662 228.168669 
L 166.714558 228.168669 
L 166.910455 230.668938 
L 167.302249 223.811172 
L 167.498146 222.957408 
L 167.694043 223.156368 
L 167.88994 221.465465 
L 168.085837 221.465465 
L 168.281733 219.164036 
L 168.673527 219.781869 
L 168.869424 224.444646 
L 169.065321 224.697253 
L 169.261218 226.681128 
L 169.457115 226.681128 
L 169.653012 224.695253 
L 169.848908 226.011389 
L 170.436599 215.360168 
L 170.632496 213.307077 
L 170.828393 213.307077 
L 171.02429 211.282661 
L 171.220187 201.511123 
L 171.416083 203.420997 
L 171.61198 201.770447 
L 171.807877 206.992478 
L 172.003774 205.072694 
L 172.199671 205.072694 
L 172.395568 204.27705 
L 172.591465 202.996203 
L 172.787361 203.322971 
L 172.983258 195.130104 
L 173.179155 195.919239 
L 173.375052 200.175572 
L 173.570949 200.175572 
L 173.766846 199.376051 
L 173.962743 202.241357 
L 174.15864 201.204703 
L 174.354536 202.688461 
L 174.550433 201.533205 
L 174.74633 193.710155 
L 174.942227 193.710155 
L 175.138124 190.681886 
L 175.334021 192.906953 
L 175.529918 188.843316 
L 175.921711 192.11921 
L 176.117608 192.313913 
L 176.313505 192.313913 
L 176.509402 192.978779 
L 176.705299 190.70442 
L 176.901196 183.877299 
L 177.29299 204.238133 
L 177.488886 204.50286 
L 177.88068 204.50286 
L 178.076577 212.545502 
L 178.272474 206.943961 
L 178.468371 214.04601 
L 178.664268 214.703771 
L 178.860165 214.500414 
L 179.056061 214.500414 
L 179.447855 208.540802 
L 179.839649 213.090773 
L 180.035546 216.251267 
L 180.231443 214.878841 
L 180.42734 214.878841 
L 180.623236 218.122684 
L 180.819133 215.181054 
L 181.01503 219.503437 
L 181.210927 220.37241 
L 181.406824 215.301366 
L 181.602721 213.805272 
L 181.798618 213.805272 
L 181.994515 209.271531 
L 182.190411 212.07689 
L 182.582205 199.370574 
L 182.973999 208.596406 
L 183.169896 208.596406 
L 183.365793 203.445022 
L 183.56169 206.227943 
L 183.757586 196.552949 
L 183.953483 196.876851 
L 184.14938 196.171964 
L 184.345277 199.407835 
L 184.541174 199.407835 
L 184.737071 194.551855 
L 184.932968 196.033132 
L 185.128865 200.944385 
L 185.324761 200.805271 
L 185.520658 201.576833 
L 185.716555 200.42142 
L 185.912452 200.42142 
L 186.108349 205.235423 
L 186.304246 205.852986 
L 186.500143 205.454273 
L 186.891936 204.326789 
L 187.087833 205.5067 
L 187.28373 205.5067 
L 187.871421 223.046766 
L 188.067318 220.688185 
L 188.459111 225.799052 
L 188.655008 225.799052 
L 189.046802 218.650163 
L 189.438596 206.912344 
L 189.830389 208.514188 
L 190.026286 208.514188 
L 190.222183 205.159774 
L 190.41808 204.996245 
L 190.613977 203.232358 
L 190.809874 206.351495 
L 191.005771 202.664792 
L 191.201668 204.898947 
L 191.397564 204.898947 
L 191.593461 201.517284 
L 191.789358 203.071676 
L 191.985255 206.278793 
L 192.181152 204.044803 
L 192.377049 205.56417 
L 192.572946 206.192784 
L 192.768843 206.192784 
L 193.160636 202.067156 
L 193.55243 204.386896 
L 193.748327 203.689777 
L 193.944224 202.51568 
L 194.140121 202.51568 
L 194.336018 203.860813 
L 194.531914 198.011658 
L 194.727811 195.489678 
L 194.923708 197.559029 
L 195.119605 195.37866 
L 195.315502 198.09312 
L 195.511399 198.09312 
L 195.707296 198.668248 
L 195.903193 196.898181 
L 196.490883 203.061887 
L 196.882677 203.083091 
L 197.078574 204.356587 
L 197.274471 202.689221 
L 197.470368 202.26885 
L 197.666264 200.454718 
L 198.058058 204.232544 
L 198.253955 204.232544 
L 198.645749 206.220418 
L 198.841646 205.948342 
L 199.037543 204.925311 
L 199.233439 206.40639 
L 199.625233 206.416205 
L 199.82113 203.897114 
L 200.017027 202.8559 
L 200.212924 203.323611 
L 200.408821 201.444142 
L 200.604717 203.88517 
L 200.800614 201.813767 
L 200.996511 201.813767 
L 201.192408 206.142911 
L 201.388305 205.120528 
L 201.780099 199.748504 
L 201.975996 200.089981 
L 202.171892 199.244923 
L 202.367789 199.244923 
L 202.759583 203.100584 
L 202.95548 201.991725 
L 203.151377 203.637653 
L 203.347274 208.136026 
L 203.543171 209.240521 
L 203.934964 209.240521 
L 204.130861 206.913692 
L 204.326758 202.118682 
L 204.522655 202.110581 
L 204.718552 203.326059 
L 204.914449 200.662634 
L 205.110346 200.662634 
L 205.306242 199.597565 
L 205.502139 195.320073 
L 205.698036 205.929241 
L 205.893933 202.852147 
L 206.08983 209.39406 
L 206.285727 204.242075 
L 206.481624 204.242075 
L 206.677521 199.571381 
L 206.873417 197.621361 
L 207.069314 201.717921 
L 207.265211 201.833224 
L 207.461108 201.666015 
L 207.657005 200.07197 
L 207.852902 200.07197 
L 208.048799 197.888074 
L 208.244696 200.379272 
L 208.440592 200.977865 
L 208.636489 202.381209 
L 208.832386 200.521152 
L 209.028283 201.063437 
L 209.420077 201.063437 
L 209.615974 201.230892 
L 209.811871 200.46442 
L 210.007767 203.140467 
L 210.203664 202.565617 
L 210.399561 199.454739 
L 210.595458 199.454739 
L 210.791355 201.741836 
L 211.183149 178.131105 
L 211.379046 184.719804 
L 211.574942 171.916663 
L 211.770839 169.231064 
L 211.966736 169.231064 
L 212.162633 161.475563 
L 212.35853 178.742812 
L 212.554427 173.844808 
L 212.750324 190.995762 
L 212.946221 174.174128 
L 213.142117 168.604086 
L 213.338014 168.604086 
L 213.533911 170.354491 
L 213.729808 138.669169 
L 213.925705 153.403485 
L 214.121602 132.105347 
L 214.317499 93.531024 
L 214.513396 127.666118 
L 214.709292 127.666118 
L 214.905189 125.279993 
L 215.101086 75.569676 
L 215.296983 98.166564 
L 215.49288 82.643152 
L 215.688777 84.823874 
L 215.884674 66.222809 
L 216.08057 66.222809 
L 216.276467 63.209061 
L 216.472364 53.568 
L 216.668261 93.660023 
L 216.864158 96.15891 
L 217.060055 113.355736 
L 217.255952 100.043314 
L 217.451849 100.043314 
L 217.647745 100.386332 
L 217.843642 114.396787 
L 218.039539 106.797575 
L 218.235436 84.05462 
L 218.431333 93.231727 
L 218.62723 87.053271 
L 218.823127 87.053271 
L 219.019024 81.160082 
L 219.21492 108.744445 
L 219.410817 107.552856 
L 219.606714 118.738257 
L 219.802611 121.249697 
L 220.390302 121.323025 
L 220.586199 116.261998 
L 220.782095 129.007115 
L 220.977992 116.60322 
L 221.173889 117.43432 
L 221.369786 127.292396 
L 221.565683 127.292396 
L 221.76158 129.24482 
L 221.957477 125.116473 
L 222.153374 109.8512 
L 222.34927 121.95962 
L 222.545167 117.676728 
L 222.741064 122.859252 
L 222.936961 122.859252 
L 223.132858 122.195606 
L 223.328755 127.683707 
L 223.524652 126.059196 
L 223.720549 133.186871 
L 223.916445 132.449592 
L 224.112342 121.976777 
L 224.308239 121.976777 
L 224.504136 120.951073 
L 224.89593 128.082525 
L 225.091827 122.483213 
L 225.287724 124.005578 
L 225.48362 130.164607 
L 225.679517 130.164607 
L 226.071311 137.155242 
L 226.267208 137.502186 
L 226.463105 126.712523 
L 226.659002 125.476377 
L 226.854899 126.922443 
L 227.050795 126.922443 
L 227.246692 127.854252 
L 227.442589 142.106664 
L 227.638486 139.415635 
L 227.834383 141.549213 
L 228.03028 139.057795 
L 228.226177 139.894127 
L 228.422074 139.894127 
L 228.61797 136.372398 
L 228.813867 137.135049 
L 229.205661 145.589361 
L 229.401558 144.581423 
L 229.597455 146.260727 
L 229.989248 146.260727 
L 230.185145 147.736021 
L 230.381042 150.067219 
L 230.576939 155.950343 
L 230.772836 151.796323 
L 230.968733 160.568075 
L 231.16463 160.568075 
L 231.360527 160.834705 
L 231.556423 164.755482 
L 231.75232 162.76534 
L 231.948217 159.434633 
L 232.144114 137.707182 
L 232.340011 142.316388 
L 232.535908 142.316388 
L 232.731805 141.675798 
L 232.927702 145.295658 
L 233.123598 153.658592 
L 233.319495 152.57379 
L 233.515392 157.271641 
L 233.711289 155.351562 
L 233.907186 155.351562 
L 234.103083 150.59264 
L 234.29898 151.061938 
L 234.494877 152.909229 
L 234.690773 141.781812 
L 234.88667 144.448901 
L 235.082567 135.739834 
L 235.278464 135.739834 
L 235.474361 134.907653 
L 235.866155 144.949853 
L 236.062052 144.880325 
L 236.257948 143.848419 
L 236.845639 143.848419 
L 237.041536 150.040863 
L 237.237433 145.093576 
L 237.43333 150.787036 
L 237.629227 144.925633 
L 237.825123 148.553899 
L 238.02102 148.553899 
L 238.216917 147.357498 
L 238.412814 145.304775 
L 238.804608 153.760421 
L 239.196402 156.142306 
L 239.392298 156.142306 
L 239.588195 161.523288 
L 239.979989 157.086795 
L 240.175886 158.34096 
L 240.371783 150.67849 
L 240.56768 148.532361 
L 240.763577 148.532361 
L 240.959473 147.706484 
L 241.15537 151.883134 
L 241.351267 149.710472 
L 241.547164 152.516448 
L 241.743061 153.08603 
L 241.938958 155.690385 
L 242.134855 155.690385 
L 242.330752 156.316071 
L 242.526648 155.972046 
L 242.722545 158.75884 
L 242.918442 158.900686 
L 243.114339 160.488807 
L 243.310236 160.700567 
L 243.506133 160.700567 
L 243.70203 161.014984 
L 243.897926 161.598088 
L 244.093823 158.489028 
L 244.28972 161.760091 
L 244.485617 160.538972 
L 244.877411 160.481437 
L 245.073308 159.604139 
L 245.465101 167.202162 
L 245.856895 163.698411 
L 246.052792 164.835297 
L 246.248689 164.835297 
L 246.444586 162.019175 
L 246.640483 164.839039 
L 246.83638 165.29209 
L 247.032276 170.524352 
L 247.228173 168.211659 
L 247.42407 170.398534 
L 247.619967 170.398534 
L 247.815864 168.999671 
L 248.011761 168.723133 
L 248.207658 171.06066 
L 248.403555 175.058749 
L 248.599451 163.514617 
L 248.795348 160.794735 
L 249.187142 160.794735 
L 249.383039 161.930298 
L 249.578936 152.867332 
L 249.774833 161.173413 
L 249.97073 157.820014 
L 250.166626 157.999776 
L 250.362523 157.999776 
L 250.55842 157.2321 
L 250.754317 163.40234 
L 251.146111 161.30202 
L 251.342008 161.537242 
L 251.537905 157.76362 
L 251.733801 157.76362 
L 251.929698 163.492705 
L 252.125595 159.881968 
L 252.321492 160.213262 
L 252.517389 147.909373 
L 252.713286 148.437945 
L 252.909183 153.891244 
L 253.10508 153.891244 
L 253.300976 154.8389 
L 253.496873 167.057316 
L 253.69277 164.95291 
L 253.888667 171.557694 
L 254.084564 169.56202 
L 254.280461 166.412829 
L 254.476358 166.412829 
L 254.868151 173.057204 
L 255.064048 167.151181 
L 255.651739 176.092248 
L 255.847636 176.092248 
L 256.043533 178.283297 
L 256.23943 184.155619 
L 256.435326 181.235155 
L 256.631223 173.748472 
L 256.82712 170.854685 
L 257.218914 170.898442 
L 257.414811 169.803935 
L 257.610708 161.955891 
L 257.806604 162.308584 
L 258.002501 160.576452 
L 258.394295 163.812864 
L 258.590192 163.812864 
L 258.786089 162.239283 
L 258.981986 155.314671 
L 259.177883 156.00539 
L 259.373779 140.141224 
L 259.569676 143.649376 
L 259.765573 139.332635 
L 259.96147 139.332635 
L 260.157367 138.692012 
L 260.549161 145.671887 
L 260.940954 157.080141 
L 261.528645 156.682544 
L 261.920439 164.047676 
L 262.116336 166.381438 
L 262.312233 160.66803 
L 262.508129 165.16024 
L 262.899923 165.163785 
L 263.09582 167.702969 
L 263.291717 166.982157 
L 263.487614 162.018069 
L 263.683511 163.792063 
L 263.879408 161.525428 
L 264.075304 161.525428 
L 264.467098 163.908329 
L 264.662995 168.42981 
L 264.858892 167.911218 
L 265.054789 175.349229 
L 265.250686 176.114116 
L 265.446583 176.114116 
L 265.642479 171.901869 
L 266.034273 183.842512 
L 266.23017 179.987331 
L 266.621964 185.194831 
L 266.817861 185.194831 
L 267.013758 181.557977 
L 267.209654 174.442065 
L 267.405551 174.346696 
L 267.601448 174.098252 
L 267.797345 170.614695 
L 267.993242 170.203551 
L 268.189139 170.203551 
L 268.385036 173.172947 
L 268.580933 174.179354 
L 268.776829 173.093117 
L 269.168623 181.559747 
L 269.36452 180.454572 
L 269.560417 180.454572 
L 269.756314 184.039127 
L 270.148108 173.360899 
L 270.344004 171.59911 
L 270.539901 172.739588 
L 270.931695 172.739588 
L 271.127592 168.276816 
L 271.323489 171.431326 
L 271.519386 170.253588 
L 271.715283 171.659225 
L 271.911179 174.573538 
L 272.302973 174.573538 
L 272.49887 172.529727 
L 272.694767 167.903415 
L 272.890664 176.508265 
L 273.086561 178.623141 
L 273.282457 184.518518 
L 273.478354 186.215523 
L 273.674251 186.215523 
L 273.870148 186.660806 
L 274.066045 181.779903 
L 274.261942 181.027346 
L 274.457839 186.205774 
L 274.653736 184.787199 
L 274.849632 182.539021 
L 275.241426 182.539021 
L 276.025014 206.79545 
L 276.220911 205.924497 
L 276.416807 205.924497 
L 276.612704 205.122648 
L 276.808601 209.686114 
L 277.004498 209.688345 
L 277.592189 193.707813 
L 277.788086 193.707813 
L 277.983982 188.013488 
L 278.375776 192.135581 
L 278.571673 199.826097 
L 278.963467 202.631064 
L 279.159364 202.631064 
L 279.355261 203.71414 
L 279.551157 203.424239 
L 279.747054 198.858189 
L 280.138848 210.122325 
L 280.334745 211.459127 
L 280.530642 211.459127 
L 280.726539 212.548934 
L 280.922436 208.092154 
L 281.118332 207.675445 
L 281.314229 213.673436 
L 281.510126 214.451213 
L 281.706023 213.92945 
L 282.097817 213.92945 
L 282.293714 214.61267 
L 282.489611 220.124834 
L 282.685507 219.144185 
L 282.881404 205.885104 
L 283.077301 204.504147 
L 283.273198 204.504147 
L 283.469095 205.214248 
L 283.664992 216.336465 
L 283.860889 208.823021 
L 284.252682 204.951891 
L 284.448579 210.502711 
L 284.644476 210.502711 
L 284.840373 218.907011 
L 285.03627 219.427754 
L 285.232167 216.288563 
L 285.428064 219.15046 
L 285.623961 225.53226 
L 285.819857 225.805821 
L 286.015754 225.805821 
L 286.211651 227.805137 
L 286.407548 223.841946 
L 286.603445 217.331312 
L 286.799342 214.707705 
L 286.995239 207.184759 
L 287.191135 207.011055 
L 287.387032 207.011055 
L 287.582929 207.136328 
L 287.778826 205.912223 
L 287.974723 207.265466 
L 288.17062 201.529387 
L 288.366517 201.58025 
L 288.562414 206.383924 
L 288.75831 206.383924 
L 288.954207 204.320211 
L 289.150104 200.498975 
L 289.346001 201.426106 
L 289.541898 207.068536 
L 289.737795 209.464977 
L 290.129589 209.464977 
L 290.325485 207.152959 
L 290.521382 214.817188 
L 290.717279 217.271238 
L 290.913176 216.500194 
L 291.30497 220.528001 
L 291.500867 220.528001 
L 291.696764 225.164041 
L 291.89266 226.034158 
L 292.088557 223.919922 
L 292.676248 230.024367 
L 293.068042 230.078697 
L 293.263939 224.383977 
L 293.459835 222.697705 
L 293.851629 234.168951 
L 294.047526 236.991046 
L 294.243423 236.991046 
L 294.43932 235.519679 
L 294.635217 243.278283 
L 294.831114 242.695433 
L 295.02701 236.22727 
L 295.222907 247.301276 
L 295.418804 245.504655 
L 295.614701 245.504655 
L 295.810598 244.087465 
L 296.006495 243.56428 
L 296.202392 234.306802 
L 296.398289 243.78512 
L 296.790082 249.051776 
L 296.985979 249.051776 
L 297.181876 256.938259 
L 297.377773 253.833576 
L 297.57367 255.73025 
L 297.965464 247.973433 
L 298.16136 251.607617 
L 298.357257 251.607617 
L 298.553154 252.569005 
L 298.749051 247.046956 
L 298.944948 255.026137 
L 299.140845 255.722433 
L 299.336742 258.18922 
L 299.532639 258.003271 
L 299.728535 258.003271 
L 299.924432 253.601724 
L 300.120329 257.91583 
L 300.512123 250.84849 
L 300.70802 245.093685 
L 300.903917 245.285854 
L 301.29571 245.285854 
L 301.687504 248.591061 
L 301.883401 244.408364 
L 302.275195 249.778192 
L 302.471092 249.778192 
L 302.666988 249.008146 
L 302.862885 246.465191 
L 303.058782 249.193287 
L 303.646473 263.147683 
L 303.84237 263.147683 
L 304.038267 272.144723 
L 304.234163 273.389199 
L 304.43006 269.698469 
L 304.625957 275.848145 
L 304.821854 275.269503 
L 305.017751 272.344393 
L 305.409545 272.344393 
L 305.605442 270.042031 
L 305.801338 271.481655 
L 305.997235 269.103995 
L 306.193132 263.539524 
L 306.389029 264.308593 
L 306.584926 264.308593 
L 306.780823 264.995107 
L 306.97672 270.153533 
L 307.172617 270.376079 
L 307.368513 272.64116 
L 307.56441 271.460498 
L 307.760307 273.126212 
L 308.152101 273.126212 
L 308.347998 272.774388 
L 308.543895 271.527285 
L 308.935688 267.175484 
L 309.131585 269.718664 
L 309.327482 269.718664 
L 309.719276 275.138117 
L 309.915173 275.345743 
L 310.11107 276.260135 
L 310.306967 271.325457 
L 310.502863 269.624735 
L 310.69876 269.624735 
L 310.894657 271.511508 
L 311.090554 261.623812 
L 311.286451 263.75616 
L 311.482348 263.384358 
L 311.874142 268.312257 
L 312.070038 268.312257 
L 312.265935 268.013837 
L 312.461832 271.17024 
L 312.657729 264.221397 
L 313.049523 259.04605 
L 313.24542 257.762348 
L 313.441317 257.762348 
L 313.637213 258.432708 
L 313.83311 259.576028 
L 314.224904 256.918893 
L 314.420801 258.726551 
L 314.616698 259.122077 
L 314.812595 259.122077 
L 315.008491 259.414259 
L 315.204388 260.19522 
L 315.400285 255.429448 
L 315.596182 255.903918 
L 315.792079 252.763726 
L 315.987976 253.152801 
L 316.183873 253.152801 
L 316.37977 252.191909 
L 316.771563 252.415845 
L 316.96746 249.220683 
L 317.359254 254.657383 
L 317.555151 254.657383 
L 317.946945 262.317444 
L 318.142841 261.987119 
L 318.338738 259.224443 
L 318.534635 265.838519 
L 318.730532 267.841179 
L 318.926429 267.841179 
L 319.122326 269.35696 
L 319.318223 272.80564 
L 319.51412 274.246133 
L 319.710016 273.653107 
L 319.905913 276.653252 
L 320.297707 276.580001 
L 320.493604 276.580001 
L 320.689501 277.47534 
L 320.885398 272.72621 
L 321.081295 270.959671 
L 321.277191 266.481431 
L 321.473088 264.701239 
L 321.668985 264.701239 
L 321.864882 262.261377 
L 322.060779 272.839918 
L 322.256676 270.797045 
L 322.452573 275.201422 
L 322.64847 276.442264 
L 322.844366 274.430691 
L 323.040263 274.430691 
L 323.432057 271.626539 
L 323.823851 279.185138 
L 324.019748 285.453412 
L 324.215645 285.759434 
L 324.411541 285.759434 
L 324.607438 287.925356 
L 324.803335 287.788988 
L 324.999232 279.311636 
L 325.195129 284.20411 
L 325.391026 284.878309 
L 325.586923 287.267974 
L 325.78282 287.267974 
L 325.978716 281.885392 
L 326.174613 272.468243 
L 326.566407 278.376423 
L 326.762304 286.183434 
L 326.958201 285.782631 
L 327.154098 285.782631 
L 327.349995 287.351825 
L 327.545891 287.279283 
L 327.741788 287.461461 
L 327.937685 282.709217 
L 328.133582 291.218643 
L 328.329479 292.729259 
L 328.525376 292.729259 
L 328.721273 287.367321 
L 328.91717 285.699162 
L 329.308963 291.015344 
L 329.50486 286.795061 
L 329.700757 286.571275 
L 329.896654 286.571275 
L 330.288448 281.671764 
L 330.484344 283.634431 
L 330.680241 283.853691 
L 330.876138 280.756542 
L 331.072035 281.173787 
L 331.267932 281.173787 
L 331.659726 284.020845 
L 332.051519 293.531301 
L 332.247416 291.635945 
L 332.443313 292.393053 
L 332.63921 292.393053 
L 333.031004 289.479428 
L 333.226901 293.046907 
L 333.422798 280.069823 
L 333.618694 278.201248 
L 333.814591 279.757452 
L 334.010488 279.757452 
L 334.206385 281.682769 
L 334.402282 279.819889 
L 334.598179 282.41989 
L 334.794076 282.523942 
L 335.185869 281.934414 
L 335.381766 281.934414 
L 335.577663 282.762744 
L 335.77356 279.186907 
L 335.969457 278.26866 
L 336.165354 278.765173 
L 336.361251 278.826439 
L 336.557148 273.794609 
L 336.753044 273.794609 
L 337.144838 280.397056 
L 337.340735 269.468245 
L 337.536632 266.967277 
L 337.732529 270.430703 
L 337.928426 268.515384 
L 338.124323 268.515384 
L 338.516116 278.322389 
L 338.712013 283.118316 
L 338.90791 282.180226 
L 339.103807 282.216383 
L 339.299704 284.231121 
L 339.495601 284.231121 
L 339.887394 277.670814 
L 340.083291 277.360019 
L 340.279188 286.206463 
L 340.475085 286.711323 
L 340.670982 284.543966 
L 340.866879 284.543966 
L 341.062776 286.441624 
L 341.258673 283.8176 
L 341.454569 284.422021 
L 341.650466 289.562023 
L 342.04226 289.634702 
L 342.434054 289.634702 
L 342.825848 295.488 
L 343.021744 292.284923 
L 343.217641 292.19353 
L 343.217641 292.19353 
" clip-path="url(#p14fda9d860)" style="fill: none; stroke: #1f77b4; stroke-width: 1.5; stroke-linecap: square"/>
   </g>
   <g id="patch_3">
    <path d="M 57.6 307.584 
L 57.6 41.472 
" style="fill: none; stroke: #000000; stroke-width: 0.8; stroke-linejoin: miter; stroke-linecap: square"/>
   </g>
   <g id="patch_4">
    <path d="M 414.72 307.584 
L 414.72 41.472 
" style="fill: none; stroke: #000000; stroke-width: 0.8; stroke-linejoin: miter; stroke-linecap: square"/>
   </g>
   <g id="patch_5">
    <path d="M 57.6 307.584 
L 414.72 307.584 
" style="fill: none; stroke: #000000; stroke-width: 0.8; stroke-linejoin: miter; stroke-linecap: square"/>
   </g>
   <g id="patch_6">
    <path d="M 57.6 41.472 
L 414.72 41.472 
" style="fill: none; stroke: #000000; stroke-width: 0.8; stroke-linejoin: miter; stroke-linecap: square"/>
   </g>
  </g>
 </g>
 <defs>
  <clipPath id="p14fda9d860">
   <rect x="57.6" y="41.472" width="357.12" height="266.112"/>
  </clipPath>
 </defs>
</svg>
