<?xml version="1.0" encoding="utf-8" standalone="no"?>
<!DOCTYPE svg PUBLIC "-//W3C//DTD SVG 1.1//EN"
  "http://www.w3.org/Graphics/SVG/1.1/DTD/svg11.dtd">
<svg xmlns:xlink="http://www.w3.org/1999/xlink" width="460.8pt" height="345.6pt" viewBox="0 0 460.8 345.6" xmlns="http://www.w3.org/2000/svg" version="1.1">
 <metadata>
  <rdf:RDF xmlns:dc="http://purl.org/dc/elements/1.1/" xmlns:cc="http://creativecommons.org/ns#" xmlns:rdf="http://www.w3.org/1999/02/22-rdf-syntax-ns#">
   <cc:Work>
    <dc:type rdf:resource="http://purl.org/dc/dcmitype/StillImage"/>
    <dc:date>2023-07-16T17:30:14.911673</dc:date>
    <dc:format>image/svg+xml</dc:format>
    <dc:creator>
     <cc:Agent>
      <dc:title>Matplotlib v3.7.1, https://matplotlib.org/</dc:title>
     </cc:Agent>
    </dc:creator>
   </cc:Work>
  </rdf:RDF>
 </metadata>
 <defs>
  <style type="text/css">*{stroke-linejoin: round; stroke-linecap: butt}</style>
 </defs>
 <g id="figure_1">
  <g id="patch_1">
   <path d="M 0 345.6 
L 460.8 345.6 
L 460.8 0 
L 0 0 
z
" style="fill: #ffffff"/>
  </g>
  <g id="axes_1">
   <g id="patch_2">
    <path d="M 57.6 276.48 
L 414.72 276.48 
L 414.72 41.472 
L 57.6 41.472 
z
" style="fill: #ffffff"/>
   </g>
   <g id="matplotlib.axis_1">
    <g id="xtick_1">
     <g id="line2d_1">
      <defs>
       <path id="m4b0c624bf3" d="M 0 0 
L 0 3.5 
" style="stroke: #000000; stroke-width: 0.8"/>
      </defs>
      <g>
       <use xlink:href="#m4b0c624bf3" x="73.654639" y="276.48" style="stroke: #000000; stroke-width: 0.8"/>
      </g>
     </g>
     <g id="text_1">
      <!-- 2018 -->
      <g transform="translate(50.574449 302.78544) rotate(-30) scale(0.1 -0.1)">
       <defs>
        <path id="DejaVuSans-32" d="M 1228 531 
L 3431 531 
L 3431 0 
L 469 0 
L 469 531 
Q 828 903 1448 1529 
Q 2069 2156 2228 2338 
Q 2531 2678 2651 2914 
Q 2772 3150 2772 3378 
Q 2772 3750 2511 3984 
Q 2250 4219 1831 4219 
Q 1534 4219 1204 4116 
Q 875 4013 500 3803 
L 500 4441 
Q 881 4594 1212 4672 
Q 1544 4750 1819 4750 
Q 2544 4750 2975 4387 
Q 3406 4025 3406 3419 
Q 3406 3131 3298 2873 
Q 3191 2616 2906 2266 
Q 2828 2175 2409 1742 
Q 1991 1309 1228 531 
z
" transform="scale(0.015625)"/>
        <path id="DejaVuSans-30" d="M 2034 4250 
Q 1547 4250 1301 3770 
Q 1056 3291 1056 2328 
Q 1056 1369 1301 889 
Q 1547 409 2034 409 
Q 2525 409 2770 889 
Q 3016 1369 3016 2328 
Q 3016 3291 2770 3770 
Q 2525 4250 2034 4250 
z
M 2034 4750 
Q 2819 4750 3233 4129 
Q 3647 3509 3647 2328 
Q 3647 1150 3233 529 
Q 2819 -91 2034 -91 
Q 1250 -91 836 529 
Q 422 1150 422 2328 
Q 422 3509 836 4129 
Q 1250 4750 2034 4750 
z
" transform="scale(0.015625)"/>
        <path id="DejaVuSans-31" d="M 794 531 
L 1825 531 
L 1825 4091 
L 703 3866 
L 703 4441 
L 1819 4666 
L 2450 4666 
L 2450 531 
L 3481 531 
L 3481 0 
L 794 0 
L 794 531 
z
" transform="scale(0.015625)"/>
        <path id="DejaVuSans-38" d="M 2034 2216 
Q 1584 2216 1326 1975 
Q 1069 1734 1069 1313 
Q 1069 891 1326 650 
Q 1584 409 2034 409 
Q 2484 409 2743 651 
Q 3003 894 3003 1313 
Q 3003 1734 2745 1975 
Q 2488 2216 2034 2216 
z
M 1403 2484 
Q 997 2584 770 2862 
Q 544 3141 544 3541 
Q 544 4100 942 4425 
Q 1341 4750 2034 4750 
Q 2731 4750 3128 4425 
Q 3525 4100 3525 3541 
Q 3525 3141 3298 2862 
Q 3072 2584 2669 2484 
Q 3125 2378 3379 2068 
Q 3634 1759 3634 1313 
Q 3634 634 3220 271 
Q 2806 -91 2034 -91 
Q 1263 -91 848 271 
Q 434 634 434 1313 
Q 434 1759 690 2068 
Q 947 2378 1403 2484 
z
M 1172 3481 
Q 1172 3119 1398 2916 
Q 1625 2713 2034 2713 
Q 2441 2713 2670 2916 
Q 2900 3119 2900 3481 
Q 2900 3844 2670 4047 
Q 2441 4250 2034 4250 
Q 1625 4250 1398 4047 
Q 1172 3844 1172 3481 
z
" transform="scale(0.015625)"/>
       </defs>
       <use xlink:href="#DejaVuSans-32"/>
       <use xlink:href="#DejaVuSans-30" x="63.623047"/>
       <use xlink:href="#DejaVuSans-31" x="127.246094"/>
       <use xlink:href="#DejaVuSans-38" x="190.869141"/>
      </g>
     </g>
    </g>
    <g id="xtick_2">
     <g id="line2d_2">
      <g>
       <use xlink:href="#m4b0c624bf3" x="138.656784" y="276.48" style="stroke: #000000; stroke-width: 0.8"/>
      </g>
     </g>
     <g id="text_2">
      <!-- 2019 -->
      <g transform="translate(115.576593 302.78544) rotate(-30) scale(0.1 -0.1)">
       <defs>
        <path id="DejaVuSans-39" d="M 703 97 
L 703 672 
Q 941 559 1184 500 
Q 1428 441 1663 441 
Q 2288 441 2617 861 
Q 2947 1281 2994 2138 
Q 2813 1869 2534 1725 
Q 2256 1581 1919 1581 
Q 1219 1581 811 2004 
Q 403 2428 403 3163 
Q 403 3881 828 4315 
Q 1253 4750 1959 4750 
Q 2769 4750 3195 4129 
Q 3622 3509 3622 2328 
Q 3622 1225 3098 567 
Q 2575 -91 1691 -91 
Q 1453 -91 1209 -44 
Q 966 3 703 97 
z
M 1959 2075 
Q 2384 2075 2632 2365 
Q 2881 2656 2881 3163 
Q 2881 3666 2632 3958 
Q 2384 4250 1959 4250 
Q 1534 4250 1286 3958 
Q 1038 3666 1038 3163 
Q 1038 2656 1286 2365 
Q 1534 2075 1959 2075 
z
" transform="scale(0.015625)"/>
       </defs>
       <use xlink:href="#DejaVuSans-32"/>
       <use xlink:href="#DejaVuSans-30" x="63.623047"/>
       <use xlink:href="#DejaVuSans-31" x="127.246094"/>
       <use xlink:href="#DejaVuSans-39" x="190.869141"/>
      </g>
     </g>
    </g>
    <g id="xtick_3">
     <g id="line2d_3">
      <g>
       <use xlink:href="#m4b0c624bf3" x="203.658928" y="276.48" style="stroke: #000000; stroke-width: 0.8"/>
      </g>
     </g>
     <g id="text_3">
      <!-- 2020 -->
      <g transform="translate(180.578738 302.78544) rotate(-30) scale(0.1 -0.1)">
       <use xlink:href="#DejaVuSans-32"/>
       <use xlink:href="#DejaVuSans-30" x="63.623047"/>
       <use xlink:href="#DejaVuSans-32" x="127.246094"/>
       <use xlink:href="#DejaVuSans-30" x="190.869141"/>
      </g>
     </g>
    </g>
    <g id="xtick_4">
     <g id="line2d_4">
      <g>
       <use xlink:href="#m4b0c624bf3" x="268.83916" y="276.48" style="stroke: #000000; stroke-width: 0.8"/>
      </g>
     </g>
     <g id="text_4">
      <!-- 2021 -->
      <g transform="translate(245.75897 302.78544) rotate(-30) scale(0.1 -0.1)">
       <use xlink:href="#DejaVuSans-32"/>
       <use xlink:href="#DejaVuSans-30" x="63.623047"/>
       <use xlink:href="#DejaVuSans-32" x="127.246094"/>
       <use xlink:href="#DejaVuSans-31" x="190.869141"/>
      </g>
     </g>
    </g>
    <g id="xtick_5">
     <g id="line2d_5">
      <g>
       <use xlink:href="#m4b0c624bf3" x="333.841305" y="276.48" style="stroke: #000000; stroke-width: 0.8"/>
      </g>
     </g>
     <g id="text_5">
      <!-- 2022 -->
      <g transform="translate(310.761114 302.78544) rotate(-30) scale(0.1 -0.1)">
       <use xlink:href="#DejaVuSans-32"/>
       <use xlink:href="#DejaVuSans-30" x="63.623047"/>
       <use xlink:href="#DejaVuSans-32" x="127.246094"/>
       <use xlink:href="#DejaVuSans-32" x="190.869141"/>
      </g>
     </g>
    </g>
    <g id="xtick_6">
     <g id="line2d_6">
      <g>
       <use xlink:href="#m4b0c624bf3" x="398.843449" y="276.48" style="stroke: #000000; stroke-width: 0.8"/>
      </g>
     </g>
     <g id="text_6">
      <!-- 2023 -->
      <g transform="translate(375.763259 302.78544) rotate(-30) scale(0.1 -0.1)">
       <defs>
        <path id="DejaVuSans-33" d="M 2597 2516 
Q 3050 2419 3304 2112 
Q 3559 1806 3559 1356 
Q 3559 666 3084 287 
Q 2609 -91 1734 -91 
Q 1441 -91 1130 -33 
Q 819 25 488 141 
L 488 750 
Q 750 597 1062 519 
Q 1375 441 1716 441 
Q 2309 441 2620 675 
Q 2931 909 2931 1356 
Q 2931 1769 2642 2001 
Q 2353 2234 1838 2234 
L 1294 2234 
L 1294 2753 
L 1863 2753 
Q 2328 2753 2575 2939 
Q 2822 3125 2822 3475 
Q 2822 3834 2567 4026 
Q 2313 4219 1838 4219 
Q 1578 4219 1281 4162 
Q 984 4106 628 3988 
L 628 4550 
Q 988 4650 1302 4700 
Q 1616 4750 1894 4750 
Q 2613 4750 3031 4423 
Q 3450 4097 3450 3541 
Q 3450 3153 3228 2886 
Q 3006 2619 2597 2516 
z
" transform="scale(0.015625)"/>
       </defs>
       <use xlink:href="#DejaVuSans-32"/>
       <use xlink:href="#DejaVuSans-30" x="63.623047"/>
       <use xlink:href="#DejaVuSans-32" x="127.246094"/>
       <use xlink:href="#DejaVuSans-33" x="190.869141"/>
      </g>
     </g>
    </g>
    <g id="text_7">
     <!-- Date -->
     <g transform="translate(224.209219 316.18494) scale(0.1 -0.1)">
      <defs>
       <path id="DejaVuSans-44" d="M 1259 4147 
L 1259 519 
L 2022 519 
Q 2988 519 3436 956 
Q 3884 1394 3884 2338 
Q 3884 3275 3436 3711 
Q 2988 4147 2022 4147 
L 1259 4147 
z
M 628 4666 
L 1925 4666 
Q 3281 4666 3915 4102 
Q 4550 3538 4550 2338 
Q 4550 1131 3912 565 
Q 3275 0 1925 0 
L 628 0 
L 628 4666 
z
" transform="scale(0.015625)"/>
       <path id="DejaVuSans-61" d="M 2194 1759 
Q 1497 1759 1228 1600 
Q 959 1441 959 1056 
Q 959 750 1161 570 
Q 1363 391 1709 391 
Q 2188 391 2477 730 
Q 2766 1069 2766 1631 
L 2766 1759 
L 2194 1759 
z
M 3341 1997 
L 3341 0 
L 2766 0 
L 2766 531 
Q 2569 213 2275 61 
Q 1981 -91 1556 -91 
Q 1019 -91 701 211 
Q 384 513 384 1019 
Q 384 1609 779 1909 
Q 1175 2209 1959 2209 
L 2766 2209 
L 2766 2266 
Q 2766 2663 2505 2880 
Q 2244 3097 1772 3097 
Q 1472 3097 1187 3025 
Q 903 2953 641 2809 
L 641 3341 
Q 956 3463 1253 3523 
Q 1550 3584 1831 3584 
Q 2591 3584 2966 3190 
Q 3341 2797 3341 1997 
z
" transform="scale(0.015625)"/>
       <path id="DejaVuSans-74" d="M 1172 4494 
L 1172 3500 
L 2356 3500 
L 2356 3053 
L 1172 3053 
L 1172 1153 
Q 1172 725 1289 603 
Q 1406 481 1766 481 
L 2356 481 
L 2356 0 
L 1766 0 
Q 1100 0 847 248 
Q 594 497 594 1153 
L 594 3053 
L 172 3053 
L 172 3500 
L 594 3500 
L 594 4494 
L 1172 4494 
z
" transform="scale(0.015625)"/>
       <path id="DejaVuSans-65" d="M 3597 1894 
L 3597 1613 
L 953 1613 
Q 991 1019 1311 708 
Q 1631 397 2203 397 
Q 2534 397 2845 478 
Q 3156 559 3463 722 
L 3463 178 
Q 3153 47 2828 -22 
Q 2503 -91 2169 -91 
Q 1331 -91 842 396 
Q 353 884 353 1716 
Q 353 2575 817 3079 
Q 1281 3584 2069 3584 
Q 2775 3584 3186 3129 
Q 3597 2675 3597 1894 
z
M 3022 2063 
Q 3016 2534 2758 2815 
Q 2500 3097 2075 3097 
Q 1594 3097 1305 2825 
Q 1016 2553 972 2059 
L 3022 2063 
z
" transform="scale(0.015625)"/>
      </defs>
      <use xlink:href="#DejaVuSans-44"/>
      <use xlink:href="#DejaVuSans-61" x="77.001953"/>
      <use xlink:href="#DejaVuSans-74" x="138.28125"/>
      <use xlink:href="#DejaVuSans-65" x="177.490234"/>
     </g>
    </g>
   </g>
   <g id="matplotlib.axis_2">
    <g id="ytick_1">
     <g id="line2d_7">
      <defs>
       <path id="m5dc406fa0b" d="M 0 0 
L -3.5 0 
" style="stroke: #000000; stroke-width: 0.8"/>
      </defs>
      <g>
       <use xlink:href="#m5dc406fa0b" x="57.6" y="243.875454" style="stroke: #000000; stroke-width: 0.8"/>
      </g>
     </g>
     <g id="text_8">
      <!-- 2500 -->
      <g transform="translate(25.15 247.674673) scale(0.1 -0.1)">
       <defs>
        <path id="DejaVuSans-35" d="M 691 4666 
L 3169 4666 
L 3169 4134 
L 1269 4134 
L 1269 2991 
Q 1406 3038 1543 3061 
Q 1681 3084 1819 3084 
Q 2600 3084 3056 2656 
Q 3513 2228 3513 1497 
Q 3513 744 3044 326 
Q 2575 -91 1722 -91 
Q 1428 -91 1123 -41 
Q 819 9 494 109 
L 494 744 
Q 775 591 1075 516 
Q 1375 441 1709 441 
Q 2250 441 2565 725 
Q 2881 1009 2881 1497 
Q 2881 1984 2565 2268 
Q 2250 2553 1709 2553 
Q 1456 2553 1204 2497 
Q 953 2441 691 2322 
L 691 4666 
z
" transform="scale(0.015625)"/>
       </defs>
       <use xlink:href="#DejaVuSans-32"/>
       <use xlink:href="#DejaVuSans-35" x="63.623047"/>
       <use xlink:href="#DejaVuSans-30" x="127.246094"/>
       <use xlink:href="#DejaVuSans-30" x="190.869141"/>
      </g>
     </g>
    </g>
    <g id="ytick_2">
     <g id="line2d_8">
      <g>
       <use xlink:href="#m5dc406fa0b" x="57.6" y="202.134488" style="stroke: #000000; stroke-width: 0.8"/>
      </g>
     </g>
     <g id="text_9">
      <!-- 3000 -->
      <g transform="translate(25.15 205.933707) scale(0.1 -0.1)">
       <use xlink:href="#DejaVuSans-33"/>
       <use xlink:href="#DejaVuSans-30" x="63.623047"/>
       <use xlink:href="#DejaVuSans-30" x="127.246094"/>
       <use xlink:href="#DejaVuSans-30" x="190.869141"/>
      </g>
     </g>
    </g>
    <g id="ytick_3">
     <g id="line2d_9">
      <g>
       <use xlink:href="#m5dc406fa0b" x="57.6" y="160.393522" style="stroke: #000000; stroke-width: 0.8"/>
      </g>
     </g>
     <g id="text_10">
      <!-- 3500 -->
      <g transform="translate(25.15 164.19274) scale(0.1 -0.1)">
       <use xlink:href="#DejaVuSans-33"/>
       <use xlink:href="#DejaVuSans-35" x="63.623047"/>
       <use xlink:href="#DejaVuSans-30" x="127.246094"/>
       <use xlink:href="#DejaVuSans-30" x="190.869141"/>
      </g>
     </g>
    </g>
    <g id="ytick_4">
     <g id="line2d_10">
      <g>
       <use xlink:href="#m5dc406fa0b" x="57.6" y="118.652555" style="stroke: #000000; stroke-width: 0.8"/>
      </g>
     </g>
     <g id="text_11">
      <!-- 4000 -->
      <g transform="translate(25.15 122.451774) scale(0.1 -0.1)">
       <defs>
        <path id="DejaVuSans-34" d="M 2419 4116 
L 825 1625 
L 2419 1625 
L 2419 4116 
z
M 2253 4666 
L 3047 4666 
L 3047 1625 
L 3713 1625 
L 3713 1100 
L 3047 1100 
L 3047 0 
L 2419 0 
L 2419 1100 
L 313 1100 
L 313 1709 
L 2253 4666 
z
" transform="scale(0.015625)"/>
       </defs>
       <use xlink:href="#DejaVuSans-34"/>
       <use xlink:href="#DejaVuSans-30" x="63.623047"/>
       <use xlink:href="#DejaVuSans-30" x="127.246094"/>
       <use xlink:href="#DejaVuSans-30" x="190.869141"/>
      </g>
     </g>
    </g>
    <g id="ytick_5">
     <g id="line2d_11">
      <g>
       <use xlink:href="#m5dc406fa0b" x="57.6" y="76.911589" style="stroke: #000000; stroke-width: 0.8"/>
      </g>
     </g>
     <g id="text_12">
      <!-- 4500 -->
      <g transform="translate(25.15 80.710807) scale(0.1 -0.1)">
       <use xlink:href="#DejaVuSans-34"/>
       <use xlink:href="#DejaVuSans-35" x="63.623047"/>
       <use xlink:href="#DejaVuSans-30" x="127.246094"/>
       <use xlink:href="#DejaVuSans-30" x="190.869141"/>
      </g>
     </g>
    </g>
   </g>
   <g id="line2d_12">
    <path d="M 73.832727 227.528852 
L 74.366991 223.576831 
L 74.901256 223.196148 
L 75.079344 222.897276 
L 75.257432 223.152736 
L 75.613608 219.979587 
L 76.32596 220.799385 
L 76.504048 218.617156 
L 76.682136 218.995332 
L 76.860224 217.971007 
L 77.572577 215.564236 
L 77.750665 215.69696 
L 77.928753 215.554209 
L 78.106841 212.747536 
L 78.641105 214.362084 
L 78.819193 216.958381 
L 78.997281 216.843165 
L 79.175369 216.995943 
L 79.353457 221.992345 
L 79.887722 231.44166 
L 80.06581 227.584799 
L 80.243898 228.710134 
L 80.421986 237.113418 
L 80.600074 233.895185 
L 81.312426 230.272913 
L 81.668602 224.574436 
L 81.84669 224.489282 
L 82.559043 225.821651 
L 82.737131 227.06803 
L 82.915219 226.848483 
L 83.093307 223.230368 
L 83.627571 220.533898 
L 84.161835 229.043226 
L 84.339923 227.909535 
L 85.052275 224.831546 
L 85.230364 224.941748 
L 85.408452 223.925779 
L 85.58654 219.952031 
L 86.120804 220.248396 
L 86.47698 223.048383 
L 86.655068 223.227861 
L 86.833156 222.837172 
L 87.36742 226.100488 
L 87.545508 225.764889 
L 87.723596 226.183134 
L 88.079773 236.507338 
L 88.614037 230.63939 
L 88.792125 234.473709 
L 88.970213 235.109852 
L 89.148301 232.115345 
L 89.860653 237.039964 
L 90.394917 230.281249 
L 90.573006 235.154099 
L 91.10727 234.428646 
L 91.285358 230.779634 
L 91.463446 232.005163 
L 91.641534 230.185253 
L 91.819622 230.827224 
L 92.353886 229.02902 
L 92.531974 226.645627 
L 92.710062 226.457793 
L 93.066238 229.671847 
L 93.600503 229.659313 
L 93.778591 232.642121 
L 93.956679 232.238081 
L 94.134767 229.938985 
L 94.312855 229.691047 
L 94.847119 231.51595 
L 95.025207 230.952447 
L 95.203295 232.549467 
L 95.381383 233.045345 
L 95.559471 230.232844 
L 96.093736 229.463978 
L 96.271824 229.523247 
L 96.628 225.253134 
L 96.806088 224.864951 
L 97.340352 224.663767 
L 97.51844 226.223204 
L 97.696528 225.304067 
L 97.874616 225.498586 
L 98.052704 226.09631 
L 98.586969 224.423328 
L 98.765057 225.138774 
L 98.943145 224.399951 
L 99.299321 225.398392 
L 100.011673 228.025566 
L 100.189761 225.174666 
L 100.367849 226.739116 
L 100.545937 224.288914 
L 101.25829 223.105145 
L 101.436378 221.139142 
L 101.614466 221.304434 
L 101.792554 220.581488 
L 102.326818 220.333549 
L 102.504906 219.928654 
L 102.682994 220.865339 
L 102.861082 220.292644 
L 103.03917 220.528904 
L 103.573434 221.022275 
L 103.751522 221.953926 
L 103.929611 221.559058 
L 104.107699 223.025006 
L 104.285787 222.597589 
L 104.820051 225.754026 
L 104.998139 225.25397 
L 105.176227 227.209966 
L 105.354315 225.817473 
L 105.532403 225.645495 
L 106.066667 224.949269 
L 106.244755 226.075439 
L 106.600932 224.122785 
L 106.77902 222.185173 
L 107.491372 219.345116 
L 107.66946 220.999734 
L 107.847548 218.973625 
L 108.025636 218.721508 
L 108.5599 218.961947 
L 108.916076 217.526877 
L 109.094164 218.456042 
L 109.272253 218.678096 
L 109.806517 218.248172 
L 109.984605 217.127851 
L 110.162693 214.984856 
L 110.340781 215.705316 
L 110.518869 217.259739 
L 111.053133 218.613813 
L 111.231221 217.470951 
L 111.409309 217.715547 
L 111.765485 215.46237 
L 112.29975 214.623393 
L 112.477838 213.95136 
L 112.655926 214.013971 
L 112.834014 214.357906 
L 113.012102 216.052593 
L 113.546366 217.000122 
L 113.724454 215.49494 
L 113.902542 217.297302 
L 114.258718 214.645935 
L 114.792983 214.068226 
L 114.971071 213.574855 
L 115.149159 213.670016 
L 115.327247 214.074076 
L 115.505335 212.595614 
L 116.039599 210.754833 
L 116.217687 210.689715 
L 116.395775 209.310592 
L 116.573863 210.388357 
L 116.751951 210.355787 
L 117.464304 210.756504 
L 117.998568 212.846895 
L 118.532832 212.391923 
L 118.71092 211.493656 
L 118.889008 211.407668 
L 119.067096 210.133733 
L 119.245184 210.066943 
L 119.779448 211.417675 
L 119.957537 210.122869 
L 120.135625 209.819004 
L 120.313713 207.915612 
L 120.491801 208.005779 
L 121.204153 209.183698 
L 121.382241 209.984297 
L 121.560329 209.313934 
L 121.738417 209.315606 
L 122.272681 208.429853 
L 122.450769 208.526705 
L 122.628858 208.353056 
L 122.985034 211.68732 
L 123.519298 211.782501 
L 123.697386 212.123929 
L 124.053562 224.810676 
L 124.23165 221.574936 
L 124.765914 222.939017 
L 124.944002 218.00274 
L 125.12209 218.062009 
L 125.300179 221.437178 
L 125.478267 221.52066 
L 126.012531 222.514107 
L 126.190619 223.782193 
L 126.368707 230.843917 
L 126.546795 226.714068 
L 126.724883 230.627711 
L 127.259147 232.083631 
L 127.793411 223.808892 
L 127.9715 225.25397 
L 128.505764 223.98087 
L 128.683852 222.549999 
L 128.86194 217.67132 
L 129.040028 218.260686 
L 129.218116 220.416196 
L 129.75238 224.990174 
L 129.930468 225.327444 
L 130.108556 227.04716 
L 130.286644 224.657918 
L 130.464732 224.151177 
L 130.998997 227.952947 
L 131.177085 232.030212 
L 131.355173 231.359014 
L 131.711349 232.809085 
L 132.423701 228.667557 
L 132.601789 223.523391 
L 132.779877 224.023447 
L 132.957965 222.155967 
L 133.49223 219.634796 
L 133.670318 227.174054 
L 134.026494 227.517174 
L 134.204582 232.765672 
L 134.738846 232.378325 
L 134.916934 232.456793 
L 135.095022 231.263833 
L 135.27311 231.308081 
L 135.451198 235.531439 
L 135.985463 240.040299 
L 136.163551 240.021936 
L 136.697815 250.836168 
L 137.232079 256.305906 
L 137.588255 246.571925 
L 137.766343 244.807941 
L 137.944431 245.065908 
L 138.478695 243.303595 
L 138.834872 243.038128 
L 139.01296 248.225707 
L 139.191048 241.209046 
L 139.725312 239.727242 
L 140.081488 236.782833 
L 140.259576 235.807769 
L 140.437664 235.839483 
L 140.971928 236.979003 
L 141.150016 234.667393 
L 141.328105 234.183194 
L 141.506193 232.525254 
L 141.684281 229.624257 
L 142.396633 232.780714 
L 142.752809 231.993464 
L 142.930897 230.12097 
L 143.643249 232.187984 
L 143.999426 226.836784 
L 144.177514 226.633928 
L 144.711778 225.102862 
L 144.889866 224.031803 
L 145.067954 224.540195 
L 145.246042 226.673998 
L 145.42413 226.52124 
L 145.958394 226.360941 
L 146.136482 223.444923 
L 146.31457 222.752019 
L 146.492658 223.361441 
L 146.670747 220.867826 
L 147.383099 220.520548 
L 147.561187 220.108152 
L 147.739275 220.927951 
L 147.917363 219.442804 
L 148.451627 219.15561 
L 148.807803 219.467017 
L 148.985891 220.12568 
L 149.163979 218.522831 
L 149.876332 219.694921 
L 150.410596 223.583495 
L 151.301036 217.919258 
L 151.479124 218.122949 
L 151.657212 216.954202 
L 152.191477 216.080985 
L 152.369565 216.111862 
L 152.547653 216.808109 
L 152.725741 214.249396 
L 152.903829 218.771606 
L 153.438093 218.967776 
L 153.616181 217.289801 
L 153.794269 218.382567 
L 153.972357 217.541918 
L 154.150445 215.959104 
L 154.68471 213.221728 
L 154.862798 213.21755 
L 155.218974 212.203253 
L 155.397062 211.088761 
L 155.931326 210.835808 
L 156.109414 212.302592 
L 156.287502 211.466937 
L 156.46559 211.457745 
L 156.643678 209.864088 
L 157.177942 210.016846 
L 157.356031 209.893294 
L 157.534119 210.445119 
L 157.712207 210.062765 
L 158.424559 209.817333 
L 158.602647 207.671016 
L 158.780735 208.207799 
L 158.958823 208.297966 
L 159.136911 207.153432 
L 159.671175 206.890451 
L 159.849263 206.656698 
L 160.027352 208.501657 
L 160.20544 209.020076 
L 160.383528 206.672575 
L 160.917792 207.772025 
L 161.09588 211.814214 
L 161.273968 212.200746 
L 161.452056 212.927035 
L 161.630144 212.035453 
L 162.164408 217.839934 
L 162.698673 212.459528 
L 162.876761 213.861193 
L 163.411025 215.472398 
L 163.589113 213.457968 
L 163.767201 214.133345 
L 163.945289 216.974237 
L 164.123377 216.655331 
L 164.835729 218.631362 
L 165.013817 220.248396 
L 165.191905 219.760854 
L 165.369994 222.832994 
L 165.904258 223.4683 
L 166.260434 216.64783 
L 166.438522 215.200246 
L 166.61661 212.708302 
L 167.150874 211.590488 
L 167.328962 211.674806 
L 167.50705 212.16567 
L 167.685138 211.180599 
L 167.863226 211.569618 
L 168.397491 211.345056 
L 168.575579 209.000877 
L 168.753667 208.273753 
L 168.931755 205.959636 
L 169.109843 206.270186 
L 169.644107 206.696768 
L 169.822195 209.031775 
L 170.000283 209.332298 
L 170.890724 205.112282 
L 171.068812 204.387665 
L 171.2469 202.483437 
L 171.603076 202.935087 
L 172.13734 204.142233 
L 172.315428 203.835025 
L 172.849692 200.98494 
L 173.383957 200.940692 
L 173.562045 201.797218 
L 173.740133 203.435143 
L 173.918221 202.542706 
L 174.096309 204.087121 
L 174.630573 203.38421 
L 174.986749 200.501577 
L 175.164837 201.828116 
L 175.342925 199.975636 
L 175.877189 200.383874 
L 176.055278 201.034202 
L 176.589542 207.807081 
L 177.123806 215.095894 
L 177.301894 212.004555 
L 177.479982 211.820064 
L 177.65807 207.302847 
L 177.836158 208.925751 
L 178.370422 211.926923 
L 178.54851 208.285431 
L 178.726599 215.4415 
L 178.904687 214.857126 
L 179.082775 211.427702 
L 179.617039 208.508342 
L 179.795127 210.440105 
L 179.973215 208.443223 
L 180.151303 208.566775 
L 180.329391 214.898032 
L 180.863655 212.28757 
L 181.041743 213.057271 
L 181.219831 211.489478 
L 181.39792 208.430689 
L 181.576008 208.273753 
L 182.28836 209.959248 
L 182.644536 204.138054 
L 182.822624 203.911822 
L 183.534976 203.85506 
L 183.891152 201.33556 
L 184.069241 201.517566 
L 184.603505 202.304794 
L 184.781593 201.658645 
L 185.137769 201.567642 
L 185.315857 202.796494 
L 185.850121 202.820707 
L 186.028209 204.922776 
L 186.206297 203.39756 
L 186.384385 204.002804 
L 186.562473 205.324329 
L 187.096738 204.076279 
L 187.452914 211.517013 
L 187.631002 209.595278 
L 187.80909 206.140785 
L 188.343354 207.244414 
L 188.521442 211.062041 
L 189.055706 204.616404 
L 189.589971 204.96036 
L 189.768059 202.495136 
L 189.946147 202.995192 
L 190.124235 202.30563 
L 190.302323 203.286543 
L 190.836587 201.573492 
L 191.014675 202.469251 
L 191.548939 200.251966 
L 192.083204 198.843637 
L 192.261292 199.054848 
L 192.43938 198.230036 
L 192.617468 198.998902 
L 192.795556 196.548719 
L 193.32982 195.600356 
L 193.507908 195.905056 
L 193.685996 195.724743 
L 194.042172 194.363983 
L 194.576436 194.870724 
L 194.932613 194.283844 
L 195.110701 194.067639 
L 195.288789 192.078258 
L 195.823053 191.947185 
L 196.001141 192.101635 
L 196.357317 193.490765 
L 197.247757 190.403605 
L 197.425846 189.309168 
L 197.782022 190.365207 
L 198.316286 192.628391 
L 198.494374 194.353976 
L 198.672462 192.721064 
L 198.85055 192.33121 
L 199.028638 189.953647 
L 199.74099 191.071461 
L 199.919078 190.310952 
L 200.097167 188.061933 
L 200.275255 188.042734 
L 200.809519 186.151876 
L 200.987607 186.062545 
L 201.165695 186.17776 
L 201.521871 183.666617 
L 202.056135 183.433699 
L 202.234223 183.486304 
L 202.590399 182.106345 
L 202.768488 182.097153 
L 203.302752 183.660768 
L 203.48084 182.868525 
L 203.837016 180.608663 
L 204.015104 182.528748 
L 204.549368 181.574555 
L 204.727456 182.334249 
L 205.083632 179.202005 
L 205.26172 179.982549 
L 205.795985 178.080848 
L 205.974073 178.496587 
L 206.152161 177.983996 
L 206.508337 174.617164 
L 207.220689 175.354316 
L 207.398777 175.274176 
L 207.576865 174.957776 
L 207.754953 177.468084 
L 208.289218 181.795795 
L 208.467306 179.07344 
L 208.645394 179.310536 
L 208.823482 178.45401 
L 209.00157 183.307641 
L 209.535834 181.354172 
L 209.89201 174.193925 
L 210.070098 173.268103 
L 210.248186 174.776627 
L 210.960539 172.268827 
L 211.138627 170.457273 
L 211.316715 170.917259 
L 211.494803 170.398004 
L 212.207155 171.22196 
L 212.385243 169.897948 
L 212.563331 170.976528 
L 213.275683 183.276763 
L 213.453772 191.431273 
L 213.63186 192.418035 
L 213.809948 203.907643 
L 213.988036 205.956293 
L 214.5223 194.601915 
L 214.700388 201.853144 
L 214.878476 191.271809 
L 215.234652 204.441084 
L 215.768916 223.292144 
L 215.947004 211.966157 
L 216.125093 223.724595 
L 216.303181 245.491674 
L 216.481269 226.259095 
L 217.015533 253.381552 
L 217.193621 241.438622 
L 217.371709 252.382255 
L 217.549797 251.439761 
L 217.727885 260.161116 
L 218.262149 265.797818 
L 218.440237 248.272441 
L 218.618325 245.915748 
L 218.796414 233.016954 
L 218.974502 240.413461 
L 219.508766 233.302476 
L 219.686854 236.81371 
L 219.864942 246.338171 
L 220.04303 241.629799 
L 220.221118 244.822983 
L 220.755382 230.211137 
L 220.93347 230.567607 
L 221.289646 219.680715 
L 222.001999 222.034086 
L 222.180087 214.985692 
L 222.358175 220.220005 
L 222.536263 218.868437 
L 222.714351 212.606457 
L 223.248615 216.89744 
L 223.426703 224.126964 
L 223.604791 218.888472 
L 223.782879 219.014531 
L 223.960967 215.763749 
L 224.495232 212.279214 
L 224.67332 213.538964 
L 224.851408 207.184309 
L 225.029496 209.445007 
L 225.207584 216.267148 
L 225.741848 215.262858 
L 225.919936 213.117376 
L 226.098024 214.788686 
L 226.4542 207.994916 
L 226.988465 207.962367 
L 227.344641 217.161236 
L 227.522729 214.448073 
L 227.700817 213.51308 
L 228.235081 205.982178 
L 228.413169 208.567611 
L 228.591257 204.504531 
L 228.769345 206.432972 
L 228.947433 205.853612 
L 229.659786 202.821543 
L 229.837874 199.118296 
L 230.015962 199.652572 
L 230.19405 198.435399 
L 230.728314 197.482042 
L 230.906402 195.387473 
L 231.08449 191.877053 
L 231.262578 192.755285 
L 231.440666 185.944842 
L 231.97493 182.734131 
L 232.331107 186.261242 
L 232.509195 201.959168 
L 232.687283 198.685844 
L 233.221547 196.575419 
L 233.399635 191.720953 
L 233.577723 192.660124 
L 233.755811 192.505675 
L 233.933899 193.974965 
L 234.468163 192.295298 
L 234.646251 191.174142 
L 234.82434 197.932836 
L 235.002428 195.142041 
L 235.180516 201.378972 
L 235.71478 197.689911 
L 235.892868 193.762082 
L 236.249044 191.281001 
L 236.961396 187.131117 
L 237.139484 190.002888 
L 237.317572 187.947573 
L 237.49566 189.441056 
L 237.673749 186.686988 
L 238.208013 189.176425 
L 238.564189 183.220816 
L 238.742277 184.138282 
L 239.810805 179.091803 
L 240.166981 184.133289 
L 240.701246 182.148086 
L 240.879334 183.898699 
L 241.057422 180.559422 
L 241.23551 181.579569 
L 241.413598 179.500857 
L 242.12595 176.54644 
L 242.482126 172.985944 
L 242.660214 172.808952 
L 243.194479 172.041758 
L 243.372567 174.277407 
L 243.550655 170.382127 
L 243.728743 170.959836 
L 243.906831 171.008241 
L 244.441095 170.245225 
L 244.619183 169.594898 
L 244.797271 170.841277 
L 245.8658 165.100223 
L 246.043888 162.169184 
L 246.221976 161.683313 
L 246.400064 159.72483 
L 246.934328 160.367637 
L 247.112416 158.168736 
L 247.290504 153.644835 
L 247.468592 164.145195 
L 248.359033 174.431836 
L 248.537121 168.828539 
L 248.715209 173.818256 
L 248.893297 173.669656 
L 249.605649 168.641541 
L 249.783737 169.953039 
L 250.139913 175.464517 
L 250.674177 178.671051 
L 250.852265 175.790089 
L 251.030354 182.355955 
L 251.208442 181.548671 
L 251.38653 177.218474 
L 251.920794 172.782232 
L 252.098882 174.128806 
L 252.455058 170.344564 
L 252.633146 173.047719 
L 253.16741 168.023762 
L 253.345498 172.000017 
L 253.701675 164.832249 
L 253.879763 162.301928 
L 254.414027 157.536772 
L 254.770203 161.339378 
L 254.948291 161.784323 
L 255.126379 161.745089 
L 255.660643 166.494388 
L 255.838731 165.141964 
L 256.016819 165.773092 
L 256.372996 163.28284 
L 257.085348 169.519772 
L 257.263436 179.508377 
L 257.441524 176.245897 
L 257.619612 179.597709 
L 258.153876 176.235054 
L 258.68814 159.521139 
L 258.866228 159.605457 
L 259.400493 156.177684 
L 259.578581 156.592587 
L 259.756669 154.327732 
L 259.934757 157.303854 
L 260.112845 153.285043 
L 260.647109 149.798837 
L 260.825197 151.249743 
L 261.003285 154.734278 
L 261.181373 153.558846 
L 261.359461 155.589968 
L 261.893726 153.916151 
L 262.071814 149.08924 
L 262.249902 149.570097 
L 262.606078 148.843788 
L 263.140342 150.239624 
L 263.31843 146.831886 
L 263.496518 146.284239 
L 263.674606 146.475416 
L 263.852694 143.770589 
L 264.386959 144.368333 
L 264.565047 143.509301 
L 264.743135 145.966168 
L 265.633575 148.080772 
L 265.811663 144.146258 
L 265.989751 143.599468 
L 266.167839 141.820463 
L 266.345927 142.911577 
L 267.05828 144.760694 
L 267.236368 144.531119 
L 267.414456 143.441675 
L 268.126808 140.745205 
L 268.304896 141.43978 
L 268.482984 141.022371 
L 268.661072 139.016297 
L 269.373424 143.64288 
L 269.729601 139.678324 
L 269.907689 135.032542 
L 270.085777 133.288613 
L 270.620041 135.381491 
L 270.798129 135.249603 
L 270.976217 134.527472 
L 271.154305 135.721268 
L 271.332393 137.999493 
L 272.044745 135.439944 
L 272.222833 131.020395 
L 272.400922 130.91855 
L 272.57901 131.886948 
L 273.113274 130.727373 
L 273.291362 131.206558 
L 273.46945 139.458756 
L 273.647538 136.402494 
L 273.825626 142.508353 
L 274.35989 137.53115 
L 274.537978 133.152527 
L 274.716066 132.830298 
L 274.894154 129.359949 
L 275.072243 128.100199 
L 275.606507 125.699258 
L 275.962683 126.175957 
L 276.140771 125.633324 
L 276.318859 124.093066 
L 277.209299 124.385253 
L 277.565475 126.440588 
L 278.09974 128.962574 
L 278.277828 128.556007 
L 278.455916 124.877809 
L 278.634004 132.899574 
L 278.812092 134.418126 
L 279.346356 126.848806 
L 279.702532 133.70268 
L 279.88062 137.98113 
L 280.058708 131.847714 
L 280.592973 133.566594 
L 280.949149 127.100087 
L 281.127237 123.716562 
L 281.305325 123.382634 
L 281.839589 121.245509 
L 282.017677 121.7656 
L 282.195765 120.813058 
L 282.373853 125.710121 
L 282.551941 125.907127 
L 283.086206 123.612209 
L 283.442382 127.907371 
L 283.62047 126.205999 
L 283.798558 120.778002 
L 284.332822 121.06601 
L 284.51091 122.112877 
L 284.688998 120.915759 
L 284.867086 116.993759 
L 285.579438 112.148485 
L 285.757527 112.479906 
L 285.935615 111.978179 
L 286.113703 110.540622 
L 286.291791 107.900099 
L 286.826055 107.967683 
L 287.004143 106.832361 
L 287.182231 108.245684 
L 287.360319 104.425571 
L 287.538407 103.169143 
L 288.072671 105.023314 
L 288.250759 107.387508 
L 288.428848 104.175125 
L 288.606936 107.384165 
L 288.785024 103.611622 
L 289.319288 102.989665 
L 289.497376 103.064791 
L 289.675464 103.36032 
L 289.853552 100.998613 
L 290.03164 103.52814 
L 290.565904 102.568913 
L 290.743992 104.906407 
L 290.92208 104.661831 
L 291.278257 99.234649 
L 291.812521 102.92204 
L 291.990609 105.954945 
L 292.168697 113.389851 
L 292.524873 104.139213 
L 293.059137 105.020787 
L 293.237225 107.981053 
L 293.415313 108.99535 
L 293.593401 105.3689 
L 293.77149 105.641073 
L 294.305754 102.202457 
L 294.483842 102.947109 
L 294.840018 101.882714 
L 295.018106 101.613069 
L 295.730458 101.785862 
L 295.908546 101.278286 
L 296.086634 102.553056 
L 296.264722 99.460882 
L 296.798987 99.742226 
L 296.977075 99.680471 
L 297.155163 100.324113 
L 297.511339 97.995791 
L 298.045603 97.352148 
L 298.223691 98.066758 
L 298.401779 99.97763 
L 298.579867 100.131265 
L 298.757955 104.756971 
L 299.470308 98.079273 
L 299.648396 98.463298 
L 300.004572 95.21916 
L 300.895012 93.81668 
L 301.251188 89.238544 
L 301.963541 89.973169 
L 302.141629 88.75518 
L 302.319717 91.869896 
L 302.497805 87.801823 
L 303.032069 86.542909 
L 303.210157 87.830194 
L 303.388245 87.405284 
L 303.566333 88.596573 
L 303.744421 91.340593 
L 304.278685 97.073291 
L 304.634862 88.708426 
L 304.81295 87.974616 
L 304.991038 84.275527 
L 305.525302 83.398151 
L 305.70339 85.137902 
L 305.881478 85.206342 
L 306.059566 83.661111 
L 306.237654 85.655506 
L 306.771918 86.331677 
L 306.950006 83.327183 
L 307.128095 85.037707 
L 307.306183 82.83045 
L 307.484271 82.21102 
L 308.018535 82.559133 
L 308.374711 81.7193 
L 308.730887 79.583011 
L 309.265151 78.60544 
L 309.621327 85.23724 
L 309.799416 84.775603 
L 309.977504 81.781096 
L 310.689856 78.061137 
L 310.867944 77.22966 
L 311.046032 79.416047 
L 311.22412 76.129353 
L 311.758384 74.508141 
L 311.936472 75.018204 
L 312.11456 74.900522 
L 312.292648 73.826915 
L 312.470737 73.953809 
L 313.361177 75.737013 
L 313.539265 77.472605 
L 313.717353 80.369404 
L 314.251617 79.52207 
L 314.429705 81.665901 
L 314.607793 78.522774 
L 314.785881 79.102989 
L 314.963969 82.505693 
L 315.498234 88.788565 
L 315.676322 89.084094 
L 316.210586 80.628206 
L 316.74485 81.660887 
L 316.922938 89.214331 
L 317.101026 88.644143 
L 317.279114 92.978518 
L 317.457202 88.846163 
L 317.991467 93.569577 
L 318.347643 88.302715 
L 318.525731 85.279837 
L 319.238083 88.499721 
L 319.416171 89.379624 
L 319.594259 88.281844 
L 319.950435 79.301667 
L 320.4847 78.041937 
L 320.840876 73.890382 
L 321.018964 72.755876 
L 321.197052 73.163258 
L 321.909404 70.667972 
L 322.087492 72.597228 
L 322.26558 68.862267 
L 322.443668 68.114272 
L 322.977932 67.422204 
L 323.156021 66.004682 
L 323.512197 61.879827 
L 323.690285 60.42142 
L 324.224549 60.073267 
L 324.402637 61.446561 
L 324.580725 64.663958 
L 324.758813 64.450239 
L 324.936901 61.646909 
L 325.471165 61.651108 
L 325.649253 60.140077 
L 325.827342 61.161059 
L 326.00543 59.836191 
L 326.183518 60.385509 
L 326.717782 61.639409 
L 327.073958 60.093322 
L 327.430134 69.012518 
L 327.964398 63.949347 
L 328.320574 75.822981 
L 328.498663 70.475124 
L 328.676751 73.703363 
L 329.211015 69.258806 
L 329.389103 61.321338 
L 329.567191 60.114192 
L 329.745279 62.932523 
L 329.923367 59.211748 
L 330.457631 62.805629 
L 330.635719 65.717509 
L 330.813807 59.392897 
L 331.169984 66.840317 
L 331.704248 71.233146 
L 332.060424 60.502375 
L 332.238512 58.0622 
L 332.950864 52.60249 
L 333.128952 53.006529 
L 333.30704 52.446369 
L 333.663216 54.690353 
L 334.197481 52.154182 
L 334.375569 52.406299 
L 334.553657 60.166776 
L 334.731745 60.544972 
L 334.909833 62.1328 
L 335.444097 62.695447 
L 335.622185 59.124108 
L 335.800273 58.015445 
L 335.978361 63.635475 
L 336.156449 63.316548 
L 336.868802 70.474308 
L 337.224978 78.353323 
L 337.403066 85.43176 
L 337.93733 84.41412 
L 338.115418 88.895404 
L 338.293506 89.439708 
L 338.471594 91.394889 
L 338.649682 82.600874 
L 339.362035 73.026336 
L 339.540123 69.449983 
L 339.718211 78.794946 
L 339.896299 76.867361 
L 340.430563 78.258143 
L 340.608651 75.113385 
L 340.786739 69.633619 
L 341.142915 83.703667 
L 341.677179 85.120374 
L 341.855268 79.326736 
L 342.033356 78.997822 
L 342.211444 86.907735 
L 342.389532 89.528203 
L 343.101884 93.210621 
L 343.279972 99.827379 
L 343.636148 86.541238 
L 344.170412 87.435326 
L 344.3485 93.085398 
L 344.526589 86.383446 
L 344.882765 91.197842 
L 345.595117 104.402173 
L 345.773205 95.454605 
L 345.951293 96.987322 
L 346.129381 101.596357 
L 346.663645 104.201009 
L 347.19791 84.285554 
L 347.375998 79.990393 
L 347.910262 80.152343 
L 348.08835 75.942375 
L 348.266438 80.564739 
L 348.444526 75.22858 
L 348.622614 73.316852 
L 349.156878 70.607032 
L 349.334966 65.925358 
L 349.513054 68.358848 
L 349.691142 74.37289 
L 350.403495 70.01263 
L 350.759671 78.485231 
L 350.937759 76.894061 
L 351.115847 77.890015 
L 351.828199 85.472645 
L 352.006287 81.370372 
L 352.184375 85.878396 
L 352.896728 85.953522 
L 353.074816 80.066374 
L 353.252904 80.296765 
L 353.430992 85.789044 
L 353.60908 95.963853 
L 354.143344 93.931875 
L 354.321432 104.026504 
L 354.49952 103.295222 
L 354.677608 94.651499 
L 354.855696 107.638769 
L 355.389961 105.681142 
L 355.568049 104.003147 
L 355.746137 93.59379 
L 355.924225 106.391554 
L 356.102313 108.355907 
L 356.636577 119.383858 
L 356.814665 118.564895 
L 356.992753 124.06386 
L 357.170841 124.489605 
L 357.348929 116.658181 
L 357.883194 117.983864 
L 358.061282 111.235177 
L 358.23937 125.023902 
L 358.417458 126.934794 
L 358.595546 126.887204 
L 359.12981 120.843956 
L 359.307898 123.537919 
L 359.485986 120.428217 
L 359.842162 105.442355 
L 360.554515 107.620426 
L 360.732603 110.201681 
L 360.910691 103.891294 
L 361.088779 109.591423 
L 361.623043 108.515329 
L 361.801131 105.238664 
L 361.979219 108.98785 
L 362.335395 126.928945 
L 362.869659 139.553936 
L 363.047747 140.735198 
L 363.225836 136.184597 
L 363.403924 146.471238 
L 363.582012 145.797533 
L 364.294364 138.288337 
L 364.472452 138.697411 
L 364.65054 135.705411 
L 364.828628 126.020671 
L 365.362892 126.991556 
L 365.54098 133.549902 
L 365.719068 133.77697 
L 365.897157 136.569457 
L 366.075245 133.234338 
L 366.787597 132.728453 
L 366.965685 131.58557 
L 367.143773 126.782016 
L 367.321861 127.052517 
L 367.856125 130.805026 
L 368.212301 135.200341 
L 368.390389 136.152048 
L 368.568478 130.07623 
L 369.102742 132.773516 
L 369.28083 123.937801 
L 369.458918 122.000189 
L 369.637006 118.740215 
L 369.815094 121.855767 
L 370.349358 121.420809 
L 370.527446 125.24345 
L 370.883622 112.605964 
L 371.06171 107.775691 
L 371.595975 108.749103 
L 371.774063 111.039843 
L 371.952151 105.69867 
L 372.130239 105.968315 
L 372.308327 106.531818 
L 372.842591 106.960071 
L 373.020679 108.428505 
L 373.198767 101.101294 
L 373.376855 101.349253 
L 373.554943 95.2651 
L 374.267296 93.173853 
L 374.445384 95.775163 
L 374.623472 94.965372 
L 374.80156 99.578605 
L 375.335824 107.132864 
L 375.513912 107.905928 
L 375.692 106.900802 
L 375.870088 102.029623 
L 376.048176 113.838994 
L 376.582441 116.097164 
L 376.938617 122.409242 
L 377.116705 121.419973 
L 377.294793 124.975476 
L 378.007145 126.317036 
L 378.185233 120.333037 
L 378.363321 118.136643 
L 378.541409 113.029203 
L 379.075673 109.435302 
L 379.253762 124.271729 
L 379.43185 123.159744 
L 379.788026 129.227205 
L 380.32229 127.00994 
L 380.856554 138.856019 
L 381.034642 144.262309 
L 381.746994 148.097464 
L 381.925083 142.107636 
L 382.281259 153.245789 
L 382.815523 145.497846 
L 382.993611 136.106129 
L 383.171699 136.744757 
L 383.349787 139.980518 
L 383.527875 148.734442 
L 384.062139 151.010996 
L 384.418315 153.962906 
L 384.596404 146.209114 
L 384.774492 153.458672 
L 385.486844 142.029168 
L 385.84302 146.553884 
L 386.021108 139.293463 
L 386.555372 135.570996 
L 386.73346 130.414316 
L 387.089636 134.73952 
L 387.267725 126.912253 
L 387.980077 130.665597 
L 388.336253 142.036688 
L 388.514341 137.807481 
L 389.048605 134.781261 
L 389.226693 133.002256 
L 389.404781 139.642412 
L 389.582869 122.294862 
L 389.760957 119.242778 
L 390.295222 122.221408 
L 390.47331 119.342952 
L 390.651398 122.092842 
L 390.829486 123.113825 
L 391.007574 121.546032 
L 391.541838 122.831666 
L 391.898014 116.376837 
L 392.25419 116.471997 
L 392.788455 121.662919 
L 392.966543 122.189694 
L 393.144631 111.964809 
L 393.500807 112.666905 
L 394.035071 118.749387 
L 394.213159 123.556283 
L 394.391247 124.169048 
L 394.569335 121.69881 
L 394.747423 124.130649 
L 395.459776 117.012143 
L 395.637864 119.043245 
L 395.99404 130.977819 
L 396.528304 133.874658 
L 396.706392 133.544053 
L 396.88448 128.800624 
L 397.062568 133.47979 
L 397.240656 131.607276 
L 397.953009 132.907095 
L 398.131097 136.749771 
L 398.309185 131.23495 
L 398.487273 132.051405 
L 398.487273 132.051405 
" clip-path="url(#pf5fa398393)" style="fill: none; stroke: #1f77b4; stroke-width: 1.5; stroke-linecap: square"/>
   </g>
   <g id="patch_3">
    <path d="M 57.6 276.48 
L 57.6 41.472 
" style="fill: none; stroke: #000000; stroke-width: 0.8; stroke-linejoin: miter; stroke-linecap: square"/>
   </g>
   <g id="patch_4">
    <path d="M 414.72 276.48 
L 414.72 41.472 
" style="fill: none; stroke: #000000; stroke-width: 0.8; stroke-linejoin: miter; stroke-linecap: square"/>
   </g>
   <g id="patch_5">
    <path d="M 57.6 276.48 
L 414.72 276.48 
" style="fill: none; stroke: #000000; stroke-width: 0.8; stroke-linejoin: miter; stroke-linecap: square"/>
   </g>
   <g id="patch_6">
    <path d="M 57.6 41.472 
L 414.72 41.472 
" style="fill: none; stroke: #000000; stroke-width: 0.8; stroke-linejoin: miter; stroke-linecap: square"/>
   </g>
  </g>
 </g>
 <defs>
  <clipPath id="pf5fa398393">
   <rect x="57.6" y="41.472" width="357.12" height="235.008"/>
  </clipPath>
 </defs>
</svg>
