<?xml version="1.0" encoding="utf-8" standalone="no"?>
<!DOCTYPE svg PUBLIC "-//W3C//DTD SVG 1.1//EN"
  "http://www.w3.org/Graphics/SVG/1.1/DTD/svg11.dtd">
<svg xmlns:xlink="http://www.w3.org/1999/xlink" width="460.8pt" height="345.6pt" viewBox="0 0 460.8 345.6" xmlns="http://www.w3.org/2000/svg" version="1.1">
 <metadata>
  <rdf:RDF xmlns:dc="http://purl.org/dc/elements/1.1/" xmlns:cc="http://creativecommons.org/ns#" xmlns:rdf="http://www.w3.org/1999/02/22-rdf-syntax-ns#">
   <cc:Work>
    <dc:type rdf:resource="http://purl.org/dc/dcmitype/StillImage"/>
    <dc:date>2023-07-16T17:30:15.480238</dc:date>
    <dc:format>image/svg+xml</dc:format>
    <dc:creator>
     <cc:Agent>
      <dc:title>Matplotlib v3.7.1, https://matplotlib.org/</dc:title>
     </cc:Agent>
    </dc:creator>
   </cc:Work>
  </rdf:RDF>
 </metadata>
 <defs>
  <style type="text/css">*{stroke-linejoin: round; stroke-linecap: butt}</style>
 </defs>
 <g id="figure_1">
  <g id="patch_1">
   <path d="M 0 345.6 
L 460.8 345.6 
L 460.8 0 
L 0 0 
z
" style="fill: #ffffff"/>
  </g>
  <g id="axes_1">
   <g id="patch_2">
    <path d="M 57.6 307.584 
L 414.72 307.584 
L 414.72 41.472 
L 57.6 41.472 
z
" style="fill: #ffffff"/>
   </g>
   <g id="matplotlib.axis_1">
    <g id="xtick_1">
     <g id="line2d_1">
      <defs>
       <path id="m719f0cdda6" d="M 0 0 
L 0 3.5 
" style="stroke: #000000; stroke-width: 0.8"/>
      </defs>
      <g>
       <use xlink:href="#m719f0cdda6" x="57.6" y="307.584" style="stroke: #000000; stroke-width: 0.8"/>
      </g>
     </g>
    </g>
    <g id="xtick_2">
     <g id="line2d_2">
      <g>
       <use xlink:href="#m719f0cdda6" x="128.906462" y="307.584" style="stroke: #000000; stroke-width: 0.8"/>
      </g>
     </g>
     <g id="text_1">
      <!-- 2019 -->
      <g transform="translate(116.181462 322.182437) scale(0.1 -0.1)">
       <defs>
        <path id="DejaVuSans-32" d="M 1228 531 
L 3431 531 
L 3431 0 
L 469 0 
L 469 531 
Q 828 903 1448 1529 
Q 2069 2156 2228 2338 
Q 2531 2678 2651 2914 
Q 2772 3150 2772 3378 
Q 2772 3750 2511 3984 
Q 2250 4219 1831 4219 
Q 1534 4219 1204 4116 
Q 875 4013 500 3803 
L 500 4441 
Q 881 4594 1212 4672 
Q 1544 4750 1819 4750 
Q 2544 4750 2975 4387 
Q 3406 4025 3406 3419 
Q 3406 3131 3298 2873 
Q 3191 2616 2906 2266 
Q 2828 2175 2409 1742 
Q 1991 1309 1228 531 
z
" transform="scale(0.015625)"/>
        <path id="DejaVuSans-30" d="M 2034 4250 
Q 1547 4250 1301 3770 
Q 1056 3291 1056 2328 
Q 1056 1369 1301 889 
Q 1547 409 2034 409 
Q 2525 409 2770 889 
Q 3016 1369 3016 2328 
Q 3016 3291 2770 3770 
Q 2525 4250 2034 4250 
z
M 2034 4750 
Q 2819 4750 3233 4129 
Q 3647 3509 3647 2328 
Q 3647 1150 3233 529 
Q 2819 -91 2034 -91 
Q 1250 -91 836 529 
Q 422 1150 422 2328 
Q 422 3509 836 4129 
Q 1250 4750 2034 4750 
z
" transform="scale(0.015625)"/>
        <path id="DejaVuSans-31" d="M 794 531 
L 1825 531 
L 1825 4091 
L 703 3866 
L 703 4441 
L 1819 4666 
L 2450 4666 
L 2450 531 
L 3481 531 
L 3481 0 
L 794 0 
L 794 531 
z
" transform="scale(0.015625)"/>
        <path id="DejaVuSans-39" d="M 703 97 
L 703 672 
Q 941 559 1184 500 
Q 1428 441 1663 441 
Q 2288 441 2617 861 
Q 2947 1281 2994 2138 
Q 2813 1869 2534 1725 
Q 2256 1581 1919 1581 
Q 1219 1581 811 2004 
Q 403 2428 403 3163 
Q 403 3881 828 4315 
Q 1253 4750 1959 4750 
Q 2769 4750 3195 4129 
Q 3622 3509 3622 2328 
Q 3622 1225 3098 567 
Q 2575 -91 1691 -91 
Q 1453 -91 1209 -44 
Q 966 3 703 97 
z
M 1959 2075 
Q 2384 2075 2632 2365 
Q 2881 2656 2881 3163 
Q 2881 3666 2632 3958 
Q 2384 4250 1959 4250 
Q 1534 4250 1286 3958 
Q 1038 3666 1038 3163 
Q 1038 2656 1286 2365 
Q 1534 2075 1959 2075 
z
" transform="scale(0.015625)"/>
       </defs>
       <use xlink:href="#DejaVuSans-32"/>
       <use xlink:href="#DejaVuSans-30" x="63.623047"/>
       <use xlink:href="#DejaVuSans-31" x="127.246094"/>
       <use xlink:href="#DejaVuSans-39" x="190.869141"/>
      </g>
     </g>
    </g>
    <g id="xtick_3">
     <g id="line2d_3">
      <g>
       <use xlink:href="#m719f0cdda6" x="200.408821" y="307.584" style="stroke: #000000; stroke-width: 0.8"/>
      </g>
     </g>
     <g id="text_2">
      <!-- 2020 -->
      <g transform="translate(187.683821 322.182437) scale(0.1 -0.1)">
       <use xlink:href="#DejaVuSans-32"/>
       <use xlink:href="#DejaVuSans-30" x="63.623047"/>
       <use xlink:href="#DejaVuSans-32" x="127.246094"/>
       <use xlink:href="#DejaVuSans-30" x="190.869141"/>
      </g>
     </g>
    </g>
    <g id="xtick_4">
     <g id="line2d_4">
      <g>
       <use xlink:href="#m719f0cdda6" x="272.107076" y="307.584" style="stroke: #000000; stroke-width: 0.8"/>
      </g>
     </g>
     <g id="text_3">
      <!-- 2021 -->
      <g transform="translate(259.382076 322.182437) scale(0.1 -0.1)">
       <use xlink:href="#DejaVuSans-32"/>
       <use xlink:href="#DejaVuSans-30" x="63.623047"/>
       <use xlink:href="#DejaVuSans-32" x="127.246094"/>
       <use xlink:href="#DejaVuSans-31" x="190.869141"/>
      </g>
     </g>
    </g>
    <g id="xtick_5">
     <g id="line2d_5">
      <g>
       <use xlink:href="#m719f0cdda6" x="343.609435" y="307.584" style="stroke: #000000; stroke-width: 0.8"/>
      </g>
     </g>
     <g id="text_4">
      <!-- 2022 -->
      <g transform="translate(330.884435 322.182437) scale(0.1 -0.1)">
       <use xlink:href="#DejaVuSans-32"/>
       <use xlink:href="#DejaVuSans-30" x="63.623047"/>
       <use xlink:href="#DejaVuSans-32" x="127.246094"/>
       <use xlink:href="#DejaVuSans-32" x="190.869141"/>
      </g>
     </g>
    </g>
    <g id="xtick_6">
     <g id="line2d_6">
      <g>
       <use xlink:href="#m719f0cdda6" x="414.72" y="307.584" style="stroke: #000000; stroke-width: 0.8"/>
      </g>
     </g>
    </g>
    <g id="xtick_7">
     <g id="line2d_7">
      <defs>
       <path id="m6da49b1abb" d="M 0 0 
L 0 2 
" style="stroke: #000000; stroke-width: 0.6"/>
      </defs>
      <g>
       <use xlink:href="#m6da49b1abb" x="75.034822" y="307.584" style="stroke: #000000; stroke-width: 0.6"/>
      </g>
     </g>
    </g>
    <g id="xtick_8">
     <g id="line2d_8">
      <g>
       <use xlink:href="#m6da49b1abb" x="92.861437" y="307.584" style="stroke: #000000; stroke-width: 0.6"/>
      </g>
     </g>
    </g>
    <g id="xtick_9">
     <g id="line2d_9">
      <g>
       <use xlink:href="#m6da49b1abb" x="110.88395" y="307.584" style="stroke: #000000; stroke-width: 0.6"/>
      </g>
     </g>
    </g>
    <g id="xtick_10">
     <g id="line2d_10">
      <g>
       <use xlink:href="#m6da49b1abb" x="146.53718" y="307.584" style="stroke: #000000; stroke-width: 0.6"/>
      </g>
     </g>
    </g>
    <g id="xtick_11">
     <g id="line2d_11">
      <g>
       <use xlink:href="#m6da49b1abb" x="164.363796" y="307.584" style="stroke: #000000; stroke-width: 0.6"/>
      </g>
     </g>
    </g>
    <g id="xtick_12">
     <g id="line2d_12">
      <g>
       <use xlink:href="#m6da49b1abb" x="182.386308" y="307.584" style="stroke: #000000; stroke-width: 0.6"/>
      </g>
     </g>
    </g>
    <g id="xtick_13">
     <g id="line2d_13">
      <g>
       <use xlink:href="#m6da49b1abb" x="218.235436" y="307.584" style="stroke: #000000; stroke-width: 0.6"/>
      </g>
     </g>
    </g>
    <g id="xtick_14">
     <g id="line2d_14">
      <g>
       <use xlink:href="#m6da49b1abb" x="236.062052" y="307.584" style="stroke: #000000; stroke-width: 0.6"/>
      </g>
     </g>
    </g>
    <g id="xtick_15">
     <g id="line2d_15">
      <g>
       <use xlink:href="#m6da49b1abb" x="254.084564" y="307.584" style="stroke: #000000; stroke-width: 0.6"/>
      </g>
     </g>
    </g>
    <g id="xtick_16">
     <g id="line2d_16">
      <g>
       <use xlink:href="#m6da49b1abb" x="289.737795" y="307.584" style="stroke: #000000; stroke-width: 0.6"/>
      </g>
     </g>
    </g>
    <g id="xtick_17">
     <g id="line2d_17">
      <g>
       <use xlink:href="#m6da49b1abb" x="307.56441" y="307.584" style="stroke: #000000; stroke-width: 0.6"/>
      </g>
     </g>
    </g>
    <g id="xtick_18">
     <g id="line2d_18">
      <g>
       <use xlink:href="#m6da49b1abb" x="325.586923" y="307.584" style="stroke: #000000; stroke-width: 0.6"/>
      </g>
     </g>
    </g>
    <g id="xtick_19">
     <g id="line2d_19">
      <g>
       <use xlink:href="#m6da49b1abb" x="361.240154" y="307.584" style="stroke: #000000; stroke-width: 0.6"/>
      </g>
     </g>
    </g>
    <g id="xtick_20">
     <g id="line2d_20">
      <g>
       <use xlink:href="#m6da49b1abb" x="379.066769" y="307.584" style="stroke: #000000; stroke-width: 0.6"/>
      </g>
     </g>
    </g>
    <g id="xtick_21">
     <g id="line2d_21">
      <g>
       <use xlink:href="#m6da49b1abb" x="397.089281" y="307.584" style="stroke: #000000; stroke-width: 0.6"/>
      </g>
     </g>
    </g>
    <g id="text_5">
     <!-- Date -->
     <g transform="translate(224.209219 335.860562) scale(0.1 -0.1)">
      <defs>
       <path id="DejaVuSans-44" d="M 1259 4147 
L 1259 519 
L 2022 519 
Q 2988 519 3436 956 
Q 3884 1394 3884 2338 
Q 3884 3275 3436 3711 
Q 2988 4147 2022 4147 
L 1259 4147 
z
M 628 4666 
L 1925 4666 
Q 3281 4666 3915 4102 
Q 4550 3538 4550 2338 
Q 4550 1131 3912 565 
Q 3275 0 1925 0 
L 628 0 
L 628 4666 
z
" transform="scale(0.015625)"/>
       <path id="DejaVuSans-61" d="M 2194 1759 
Q 1497 1759 1228 1600 
Q 959 1441 959 1056 
Q 959 750 1161 570 
Q 1363 391 1709 391 
Q 2188 391 2477 730 
Q 2766 1069 2766 1631 
L 2766 1759 
L 2194 1759 
z
M 3341 1997 
L 3341 0 
L 2766 0 
L 2766 531 
Q 2569 213 2275 61 
Q 1981 -91 1556 -91 
Q 1019 -91 701 211 
Q 384 513 384 1019 
Q 384 1609 779 1909 
Q 1175 2209 1959 2209 
L 2766 2209 
L 2766 2266 
Q 2766 2663 2505 2880 
Q 2244 3097 1772 3097 
Q 1472 3097 1187 3025 
Q 903 2953 641 2809 
L 641 3341 
Q 956 3463 1253 3523 
Q 1550 3584 1831 3584 
Q 2591 3584 2966 3190 
Q 3341 2797 3341 1997 
z
" transform="scale(0.015625)"/>
       <path id="DejaVuSans-74" d="M 1172 4494 
L 1172 3500 
L 2356 3500 
L 2356 3053 
L 1172 3053 
L 1172 1153 
Q 1172 725 1289 603 
Q 1406 481 1766 481 
L 2356 481 
L 2356 0 
L 1766 0 
Q 1100 0 847 248 
Q 594 497 594 1153 
L 594 3053 
L 172 3053 
L 172 3500 
L 594 3500 
L 594 4494 
L 1172 4494 
z
" transform="scale(0.015625)"/>
       <path id="DejaVuSans-65" d="M 3597 1894 
L 3597 1613 
L 953 1613 
Q 991 1019 1311 708 
Q 1631 397 2203 397 
Q 2534 397 2845 478 
Q 3156 559 3463 722 
L 3463 178 
Q 3153 47 2828 -22 
Q 2503 -91 2169 -91 
Q 1331 -91 842 396 
Q 353 884 353 1716 
Q 353 2575 817 3079 
Q 1281 3584 2069 3584 
Q 2775 3584 3186 3129 
Q 3597 2675 3597 1894 
z
M 3022 2063 
Q 3016 2534 2758 2815 
Q 2500 3097 2075 3097 
Q 1594 3097 1305 2825 
Q 1016 2553 972 2059 
L 3022 2063 
z
" transform="scale(0.015625)"/>
      </defs>
      <use xlink:href="#DejaVuSans-44"/>
      <use xlink:href="#DejaVuSans-61" x="77.001953"/>
      <use xlink:href="#DejaVuSans-74" x="138.28125"/>
      <use xlink:href="#DejaVuSans-65" x="177.490234"/>
     </g>
    </g>
   </g>
   <g id="matplotlib.axis_2">
    <g id="ytick_1">
     <g id="line2d_22">
      <defs>
       <path id="mcbe3d3746a" d="M 0 0 
L -3.5 0 
" style="stroke: #000000; stroke-width: 0.8"/>
      </defs>
      <g>
       <use xlink:href="#mcbe3d3746a" x="57.6" y="270.664147" style="stroke: #000000; stroke-width: 0.8"/>
      </g>
     </g>
     <g id="text_6">
      <!-- 2500 -->
      <g transform="translate(25.15 274.463366) scale(0.1 -0.1)">
       <defs>
        <path id="DejaVuSans-35" d="M 691 4666 
L 3169 4666 
L 3169 4134 
L 1269 4134 
L 1269 2991 
Q 1406 3038 1543 3061 
Q 1681 3084 1819 3084 
Q 2600 3084 3056 2656 
Q 3513 2228 3513 1497 
Q 3513 744 3044 326 
Q 2575 -91 1722 -91 
Q 1428 -91 1123 -41 
Q 819 9 494 109 
L 494 744 
Q 775 591 1075 516 
Q 1375 441 1709 441 
Q 2250 441 2565 725 
Q 2881 1009 2881 1497 
Q 2881 1984 2565 2268 
Q 2250 2553 1709 2553 
Q 1456 2553 1204 2497 
Q 953 2441 691 2322 
L 691 4666 
z
" transform="scale(0.015625)"/>
       </defs>
       <use xlink:href="#DejaVuSans-32"/>
       <use xlink:href="#DejaVuSans-35" x="63.623047"/>
       <use xlink:href="#DejaVuSans-30" x="127.246094"/>
       <use xlink:href="#DejaVuSans-30" x="190.869141"/>
      </g>
     </g>
    </g>
    <g id="ytick_2">
     <g id="line2d_23">
      <g>
       <use xlink:href="#mcbe3d3746a" x="57.6" y="223.398641" style="stroke: #000000; stroke-width: 0.8"/>
      </g>
     </g>
     <g id="text_7">
      <!-- 3000 -->
      <g transform="translate(25.15 227.19786) scale(0.1 -0.1)">
       <defs>
        <path id="DejaVuSans-33" d="M 2597 2516 
Q 3050 2419 3304 2112 
Q 3559 1806 3559 1356 
Q 3559 666 3084 287 
Q 2609 -91 1734 -91 
Q 1441 -91 1130 -33 
Q 819 25 488 141 
L 488 750 
Q 750 597 1062 519 
Q 1375 441 1716 441 
Q 2309 441 2620 675 
Q 2931 909 2931 1356 
Q 2931 1769 2642 2001 
Q 2353 2234 1838 2234 
L 1294 2234 
L 1294 2753 
L 1863 2753 
Q 2328 2753 2575 2939 
Q 2822 3125 2822 3475 
Q 2822 3834 2567 4026 
Q 2313 4219 1838 4219 
Q 1578 4219 1281 4162 
Q 984 4106 628 3988 
L 628 4550 
Q 988 4650 1302 4700 
Q 1616 4750 1894 4750 
Q 2613 4750 3031 4423 
Q 3450 4097 3450 3541 
Q 3450 3153 3228 2886 
Q 3006 2619 2597 2516 
z
" transform="scale(0.015625)"/>
       </defs>
       <use xlink:href="#DejaVuSans-33"/>
       <use xlink:href="#DejaVuSans-30" x="63.623047"/>
       <use xlink:href="#DejaVuSans-30" x="127.246094"/>
       <use xlink:href="#DejaVuSans-30" x="190.869141"/>
      </g>
     </g>
    </g>
    <g id="ytick_3">
     <g id="line2d_24">
      <g>
       <use xlink:href="#mcbe3d3746a" x="57.6" y="176.133135" style="stroke: #000000; stroke-width: 0.8"/>
      </g>
     </g>
     <g id="text_8">
      <!-- 3500 -->
      <g transform="translate(25.15 179.932353) scale(0.1 -0.1)">
       <use xlink:href="#DejaVuSans-33"/>
       <use xlink:href="#DejaVuSans-35" x="63.623047"/>
       <use xlink:href="#DejaVuSans-30" x="127.246094"/>
       <use xlink:href="#DejaVuSans-30" x="190.869141"/>
      </g>
     </g>
    </g>
    <g id="ytick_4">
     <g id="line2d_25">
      <g>
       <use xlink:href="#mcbe3d3746a" x="57.6" y="128.867629" style="stroke: #000000; stroke-width: 0.8"/>
      </g>
     </g>
     <g id="text_9">
      <!-- 4000 -->
      <g transform="translate(25.15 132.666847) scale(0.1 -0.1)">
       <defs>
        <path id="DejaVuSans-34" d="M 2419 4116 
L 825 1625 
L 2419 1625 
L 2419 4116 
z
M 2253 4666 
L 3047 4666 
L 3047 1625 
L 3713 1625 
L 3713 1100 
L 3047 1100 
L 3047 0 
L 2419 0 
L 2419 1100 
L 313 1100 
L 313 1709 
L 2253 4666 
z
" transform="scale(0.015625)"/>
       </defs>
       <use xlink:href="#DejaVuSans-34"/>
       <use xlink:href="#DejaVuSans-30" x="63.623047"/>
       <use xlink:href="#DejaVuSans-30" x="127.246094"/>
       <use xlink:href="#DejaVuSans-30" x="190.869141"/>
      </g>
     </g>
    </g>
    <g id="ytick_5">
     <g id="line2d_26">
      <g>
       <use xlink:href="#mcbe3d3746a" x="57.6" y="81.602123" style="stroke: #000000; stroke-width: 0.8"/>
      </g>
     </g>
     <g id="text_10">
      <!-- 4500 -->
      <g transform="translate(25.15 85.401341) scale(0.1 -0.1)">
       <use xlink:href="#DejaVuSans-34"/>
       <use xlink:href="#DejaVuSans-35" x="63.623047"/>
       <use xlink:href="#DejaVuSans-30" x="127.246094"/>
       <use xlink:href="#DejaVuSans-30" x="190.869141"/>
      </g>
     </g>
    </g>
   </g>
   <g id="line2d_27">
    <path d="M 57.6 252.154024 
L 58.187691 247.678941 
L 58.579484 247.678941 
L 58.971278 246.909445 
L 59.167175 247.198716 
L 59.558969 243.605591 
L 60.146659 243.605591 
L 60.342556 244.533892 
L 60.538453 242.062838 
L 60.73435 242.491067 
L 60.930247 241.331169 
L 61.322041 241.331169 
L 61.517937 239.188159 
L 61.713834 238.605856 
L 61.909731 238.756145 
L 62.105628 238.594501 
L 62.301525 235.416357 
L 62.693319 235.416357 
L 62.889216 237.244595 
L 63.085112 240.184519 
L 63.281009 240.054054 
L 63.476906 240.227053 
L 63.672803 245.884744 
L 64.064597 245.884744 
L 64.260494 256.584704 
L 64.456391 252.217375 
L 64.652287 253.491652 
L 64.848184 263.007135 
L 65.044081 259.36296 
L 65.435875 259.36296 
L 65.631772 255.917309 
L 65.827669 255.261269 
L 66.219462 248.808582 
L 66.611256 248.712158 
L 67.00305 248.712158 
L 67.394844 251.632211 
L 67.590741 251.383605 
L 67.786637 247.286623 
L 68.178431 247.286623 
L 68.374328 244.233267 
L 68.962019 253.868829 
L 69.157916 252.585091 
L 69.549709 252.585091 
L 69.745606 249.778471 
L 69.941503 249.099721 
L 70.1374 249.224509 
L 70.333297 248.074074 
L 70.529194 243.574388 
L 70.920987 243.574388 
L 71.116884 243.909978 
L 71.508678 247.080552 
L 71.704575 247.283784 
L 71.900472 246.841386 
L 72.292265 246.841386 
L 72.488162 250.536611 
L 72.684059 250.156595 
L 72.879956 250.630196 
L 73.27175 262.320839 
L 73.663544 262.320839 
L 73.85944 255.67625 
L 74.055337 260.018053 
L 74.251234 260.738391 
L 74.447131 257.347552 
L 75.034822 257.347552 
L 75.230719 262.923959 
L 75.818409 255.270709 
L 76.014306 260.788495 
L 76.4061 260.788495 
L 76.601997 259.967026 
L 76.797894 255.835056 
L 76.99379 257.222788 
L 77.189687 255.162007 
L 77.385584 255.888945 
L 77.777378 255.888945 
L 78.169172 251.153902 
L 78.365069 250.941207 
L 78.952759 254.580651 
L 79.344553 254.566457 
L 79.54045 257.944048 
L 79.736347 257.486533 
L 79.932244 254.883145 
L 80.12814 254.602391 
L 80.519934 254.602391 
L 80.715831 256.668826 
L 80.911728 256.030742 
L 81.107625 257.839132 
L 81.303522 258.400641 
L 81.499419 255.215896 
L 81.891212 255.215896 
L 82.087109 254.345269 
L 82.283006 254.412383 
L 82.6748 249.577108 
L 82.870697 249.137548 
L 83.26249 249.137548 
L 83.458387 248.909736 
L 83.654284 250.675569 
L 83.850181 249.634782 
L 84.046078 249.855046 
L 84.241975 250.53188 
L 84.633769 250.53188 
L 84.829665 248.637475 
L 85.025562 249.447612 
L 85.221459 248.611003 
L 85.613253 249.741591 
L 86.200943 249.741591 
L 86.39684 252.716479 
L 86.592737 249.488254 
L 86.788634 251.259764 
L 86.984531 248.48527 
L 87.376325 248.48527 
L 87.572222 247.327265 
L 87.768118 247.144827 
L 87.964015 244.918617 
L 88.159912 245.105786 
L 88.355809 244.287156 
L 88.747603 244.287156 
L 89.139397 243.547917 
L 89.335293 244.608575 
L 89.53119 243.960082 
L 89.727087 244.227612 
L 90.118881 244.227612 
L 90.314778 244.786282 
L 90.510675 245.84124 
L 90.706572 245.39411 
L 90.902468 247.05408 
L 91.098365 246.570094 
L 91.490159 246.570094 
L 91.686056 250.144294 
L 91.881953 249.578054 
L 92.07785 251.792932 
L 92.273747 250.216138 
L 92.469643 250.021399 
L 92.861437 250.021399 
L 93.057334 249.233025 
L 93.253231 250.508247 
L 93.449128 250.508247 
L 93.840922 246.103093 
L 94.232715 246.103093 
L 94.428612 243.801277 
L 94.624509 242.887146 
L 94.820406 244.760757 
L 95.016303 242.466488 
L 95.2122 242.181002 
L 95.603993 242.181002 
L 95.79989 242.453263 
L 96.191684 240.828258 
L 96.387581 241.8804 
L 96.583478 242.131844 
L 96.975272 242.131844 
L 97.171168 241.645019 
L 97.367065 240.37642 
L 97.562962 237.949793 
L 97.758859 238.765608 
L 97.954756 240.525763 
L 98.34655 240.525763 
L 98.542447 242.059053 
L 98.738343 240.764929 
L 98.93424 241.041899 
L 99.326034 238.490508 
L 99.717828 238.490508 
L 100.109622 236.77951 
L 100.305518 236.850409 
L 100.501415 237.239864 
L 100.697312 239.158848 
L 101.089106 239.158848 
L 101.285003 240.231785 
L 101.4809 238.527388 
L 101.676796 240.568298 
L 101.872693 238.458382 
L 102.06859 237.566015 
L 102.460384 237.566015 
L 102.852178 236.353174 
L 103.048075 236.46093 
L 103.243971 236.918468 
L 103.439868 235.244328 
L 103.831662 235.244328 
L 104.027559 233.159914 
L 104.223456 233.086177 
L 104.419353 231.524523 
L 104.61525 232.744933 
L 105.398837 232.708053 
L 105.594734 233.161807 
L 106.182425 235.528867 
L 106.574218 235.528867 
L 106.770115 235.013677 
L 106.966012 233.996523 
L 107.161909 233.899153 
L 107.357806 232.456609 
L 107.7496 232.380979 
L 107.945496 232.380979 
L 108.141393 233.910485 
L 108.33729 232.444308 
L 108.533187 232.100225 
L 108.729084 229.944913 
L 109.120878 230.047014 
L 109.316775 230.047014 
L 109.512671 231.020665 
L 109.708568 231.380834 
L 109.904465 232.287395 
L 110.100362 231.528308 
L 110.688053 231.5302 
L 110.88395 230.527216 
L 111.079846 230.636887 
L 111.275743 230.440255 
L 111.667537 234.215818 
L 112.255228 234.323596 
L 112.451125 234.710213 
L 112.842918 249.076089 
L 113.038815 245.412089 
L 113.430609 245.412089 
L 113.626506 246.956711 
L 113.822403 241.367103 
L 114.0183 241.434216 
L 114.214196 245.256099 
L 114.60599 245.35063 
L 114.801887 245.35063 
L 115.193681 247.911483 
L 115.389578 255.907847 
L 115.585474 251.2314 
L 115.781371 255.663026 
L 116.173165 255.663026 
L 116.369062 257.311641 
L 116.760856 250.648151 
L 116.956753 247.941716 
L 117.152649 249.578054 
L 117.544443 249.578054 
L 117.936237 246.516205 
L 118.132134 240.991818 
L 118.328031 241.659189 
L 118.523928 244.099986 
L 118.915721 244.099986 
L 119.111618 249.279344 
L 119.307515 249.661253 
L 119.503412 251.608578 
L 119.699309 248.903113 
L 119.895206 248.329303 
L 120.286999 248.329303 
L 120.678793 257.251152 
L 120.87469 256.491119 
L 121.070587 256.491119 
L 121.266484 258.13311 
L 121.658278 258.13311 
L 121.854174 254.267748 
L 122.050071 253.44344 
L 122.245968 247.618428 
L 122.441865 248.184668 
L 122.637762 246.070021 
L 123.029556 246.070021 
L 123.225453 243.215166 
L 123.421349 251.752267 
L 123.617246 251.752267 
L 123.813143 252.1408 
L 124.00904 258.083952 
L 124.400834 258.083952 
L 124.596731 257.645339 
L 124.792628 257.734192 
L 124.988524 256.38334 
L 125.184421 256.433445 
L 125.380318 261.215777 
L 125.772112 261.215777 
L 125.968009 266.321398 
L 126.163906 266.300604 
L 126.751596 278.546132 
L 127.14339 278.546132 
L 127.339287 284.739805 
L 127.535184 284.739805 
L 127.731081 273.717503 
L 127.926978 271.720051 
L 128.122874 272.01216 
L 128.514668 272.01216 
L 128.710565 270.0166 
L 128.906462 270.0166 
L 129.102359 269.715998 
L 129.298256 275.590168 
L 129.494152 267.644832 
L 129.885946 267.644832 
L 130.669534 261.52868 
L 131.257224 261.564591 
L 131.453121 262.85493 
L 131.649018 260.237372 
L 131.844915 259.689087 
L 132.040812 257.811714 
L 132.236709 254.526762 
L 132.824399 254.526762 
L 133.020296 258.100985 
L 133.41209 257.209541 
L 133.607987 255.089216 
L 133.999781 255.089216 
L 134.195677 257.065852 
L 134.391574 257.429805 
L 134.783368 251.370358 
L 134.979265 251.140654 
L 135.371059 251.140654 
L 135.762852 248.19413 
L 135.958749 248.769809 
L 136.154646 251.186027 
L 136.350543 251.013051 
L 136.742337 251.013051 
L 136.938234 250.831536 
L 137.134131 247.529574 
L 137.330027 246.744962 
L 137.525924 247.435043 
L 137.721821 244.611391 
L 138.309512 244.611391 
L 138.701306 243.751172 
L 138.897202 244.679473 
L 139.093099 242.997763 
L 139.484893 242.997763 
L 139.68079 242.672559 
L 140.072584 243.025181 
L 140.268481 243.77102 
L 140.464377 241.956029 
L 140.856171 241.956029 
L 141.052068 242.984516 
L 141.247965 243.283249 
L 141.835656 247.686487 
L 142.227449 247.686487 
L 142.423346 243.883507 
L 142.619243 243.106464 
L 142.81514 241.272572 
L 143.011037 241.503222 
L 143.206934 240.179788 
L 143.598727 240.179788 
L 143.794624 239.190997 
L 143.990521 239.225962 
L 144.186418 240.014359 
L 144.382315 237.116992 
L 144.578212 242.23773 
L 144.970005 242.23773 
L 145.165902 242.459864 
L 145.361799 240.559805 
L 145.557696 241.797201 
L 145.753593 240.84529 
L 145.94949 239.052986 
L 146.341284 239.052986 
L 146.53718 235.95331 
L 146.733077 235.948579 
L 147.124871 234.800036 
L 147.320768 233.538038 
L 147.712562 233.538038 
L 147.908459 233.251606 
L 148.104355 234.912523 
L 148.300252 233.966266 
L 148.496149 233.955858 
L 148.692046 232.151276 
L 149.08384 232.151276 
L 149.279737 232.324252 
L 149.475634 232.184348 
L 149.67153 232.809208 
L 149.867427 232.376248 
L 150.455118 232.376248 
L 150.651015 232.098333 
L 150.846912 229.667944 
L 151.042809 230.275772 
L 151.238705 230.377873 
L 151.434602 229.081856 
L 151.826396 229.081856 
L 152.21819 228.519378 
L 152.414087 230.608523 
L 152.609984 231.195557 
L 152.80588 228.537357 
L 153.197674 228.537357 
L 153.393571 229.782323 
L 153.589468 234.359507 
L 153.785365 234.797198 
L 153.981262 235.619613 
L 154.177159 234.610028 
L 154.568952 234.610028 
L 154.764849 241.182749 
L 155.35254 235.09023 
L 155.548437 236.677409 
L 155.94023 236.677409 
L 156.136127 238.501863 
L 156.332024 236.220817 
L 156.527921 236.985581 
L 156.723818 240.202475 
L 156.919715 239.84136 
L 157.507405 239.84136 
L 157.899199 243.909978 
L 158.095096 243.357909 
L 158.290993 246.836654 
L 158.682787 246.836654 
L 158.878683 247.556046 
L 159.07458 241.995725 
L 159.662271 235.371931 
L 160.054065 235.371931 
L 160.249962 234.10617 
L 160.445858 234.201648 
L 160.641755 234.757479 
L 160.837652 233.642031 
L 161.033549 234.082538 
L 161.425343 234.082538 
L 161.62124 233.828255 
L 161.817137 231.173817 
L 162.013033 230.350455 
L 162.20893 227.730058 
L 162.404827 228.081711 
L 162.796621 228.081711 
L 162.992518 228.564751 
L 163.188415 231.208804 
L 163.384312 231.549102 
L 163.972002 228.904126 
L 164.167899 228.904126 
L 164.363796 226.770555 
L 164.559693 225.950032 
L 164.75559 223.793774 
L 164.951487 223.793774 
L 165.147383 224.305202 
L 165.539177 224.305202 
L 165.735074 225.672116 
L 165.930971 225.324249 
L 166.518662 222.096947 
L 167.106352 222.046843 
L 167.302249 223.016732 
L 167.498146 224.871441 
L 167.694043 223.860887 
L 167.88994 225.609711 
L 168.281733 225.609711 
L 168.47763 224.813767 
L 168.869424 221.549609 
L 169.065321 223.051719 
L 169.261218 220.954059 
L 169.653012 220.954059 
L 170.044805 222.152729 
L 170.632496 229.822019 
L 171.02429 229.822019 
L 171.220187 238.075527 
L 171.416083 234.575041 
L 171.61198 234.366131 
L 171.807877 229.251048 
L 172.003774 231.088748 
L 172.395568 231.088748 
L 172.591465 234.487133 
L 172.787361 230.363679 
L 172.983258 238.466875 
L 173.179155 237.805158 
L 173.375052 233.92184 
L 173.766846 233.92184 
L 173.962743 230.616093 
L 174.15864 232.80353 
L 174.354536 230.542356 
L 174.550433 230.68226 
L 174.74633 237.851477 
L 175.138124 237.851477 
L 175.334021 234.895514 
L 175.529918 235.767087 
L 175.725815 233.991792 
L 175.921711 230.528162 
L 176.117608 230.350455 
L 176.705299 230.350455 
L 176.901196 232.259031 
L 177.29299 225.667385 
L 177.488886 225.41121 
L 178.272474 225.346935 
L 178.468371 223.310733 
L 178.664268 222.493973 
L 178.860165 222.700067 
L 179.251958 222.700067 
L 179.447855 223.591488 
L 179.643752 222.859819 
L 180.035546 222.756772 
L 180.231443 224.148265 
L 180.819133 224.175683 
L 181.01503 226.555967 
L 181.210927 224.828884 
L 181.406824 225.514234 
L 181.602721 227.010667 
L 181.994515 227.010667 
L 182.190411 225.597433 
L 182.582205 234.022971 
L 182.778102 231.846888 
L 182.973999 227.935183 
L 183.365793 227.935183 
L 183.56169 229.18488 
L 183.757586 233.507782 
L 184.345277 226.209046 
L 184.737071 226.209046 
L 184.932968 226.598525 
L 185.128865 223.807021 
L 185.324761 224.373261 
L 185.520658 223.592434 
L 185.716555 224.703173 
L 186.108349 224.703173 
L 186.304246 222.763395 
L 186.500143 223.777711 
L 187.087833 221.266962 
L 187.479627 221.266962 
L 187.675524 219.672236 
L 187.871421 219.911402 
L 188.067318 218.977424 
L 188.263214 219.84805 
L 188.459111 217.073579 
L 188.850905 217.073579 
L 189.046802 215.999697 
L 189.242699 216.344726 
L 189.438596 216.140547 
L 189.830389 214.599687 
L 190.222183 214.599687 
L 190.41808 215.173497 
L 190.809874 214.508941 
L 191.005771 214.26412 
L 191.201668 212.011439 
L 191.593461 212.011439 
L 191.789358 211.863019 
L 191.985255 212.03791 
L 192.181152 213.145811 
L 192.377049 213.610896 
L 192.572946 212.972812 
L 192.964739 212.972812 
L 193.160636 210.765527 
L 193.356533 210.115141 
L 193.55243 208.875853 
L 193.748327 208.875853 
L 193.944224 210.071661 
L 194.336018 210.071661 
L 194.727811 214.588355 
L 194.923708 212.739323 
L 195.119605 212.297871 
L 195.315502 209.605629 
L 195.707296 209.605629 
L 195.903193 210.546208 
L 196.099089 210.871389 
L 196.294986 210.010225 
L 196.490883 207.463542 
L 197.078574 207.441801 
L 197.274471 205.300683 
L 197.470368 205.199529 
L 197.666264 205.329993 
L 198.058058 202.486493 
L 198.449852 202.486493 
L 198.645749 202.222748 
L 199.037543 202.282314 
L 199.233439 200.719714 
L 199.82113 200.709305 
L 200.017027 202.479869 
L 200.212924 201.582771 
L 200.408821 201.582771 
L 200.604717 199.02381 
L 200.800614 201.198023 
L 201.192408 201.198023 
L 201.388305 200.11754 
L 201.584202 200.977782 
L 201.975996 197.430976 
L 202.171892 198.314828 
L 202.563686 198.314828 
L 202.759583 196.161431 
L 202.95548 196.632194 
L 203.151377 196.051761 
L 203.543171 192.239318 
L 204.130861 192.239318 
L 204.326758 193.074034 
L 204.522655 192.983288 
L 204.718552 192.625011 
L 204.914449 195.467565 
L 205.306242 195.467565 
L 205.502139 200.368061 
L 205.698036 197.285395 
L 205.893933 197.553871 
L 206.08983 196.583982 
L 206.285727 202.080005 
L 206.677521 202.080005 
L 206.873417 199.867989 
L 207.265211 191.760062 
L 207.461108 190.711705 
L 207.657005 192.419887 
L 208.048799 192.419887 
L 208.244696 190.115208 
L 208.440592 189.580171 
L 208.636489 187.528853 
L 208.832386 188.04972 
L 209.028283 187.46174 
L 209.615974 187.46174 
L 209.811871 188.394749 
L 210.007767 186.8955 
L 210.203664 188.116833 
L 210.399561 191.470791 
L 210.791355 191.470791 
L 211.183149 211.278823 
L 211.379046 212.396186 
L 211.574942 225.406479 
L 211.770839 227.726273 
L 212.162633 227.726273 
L 212.35853 214.869109 
L 212.554427 223.08006 
L 212.750324 211.098254 
L 213.142117 226.010522 
L 213.533911 226.010522 
L 213.729808 247.356575 
L 213.925705 234.53156 
L 214.121602 247.846262 
L 214.317499 272.494278 
L 214.513396 250.716211 
L 214.905189 250.716211 
L 215.101086 281.428404 
L 215.296983 267.904792 
L 215.49288 280.296848 
L 215.688777 279.229612 
L 215.884674 289.105264 
L 216.276467 289.105264 
L 216.472364 295.488 
L 216.668261 275.643088 
L 216.864158 272.974479 
L 217.060055 258.368492 
L 217.255952 266.743949 
L 217.647745 266.743949 
L 217.843642 258.691803 
L 218.039539 262.66776 
L 218.235436 273.452812 
L 218.431333 268.121272 
L 218.62723 271.737083 
L 219.019024 271.737083 
L 219.21492 255.191317 
L 219.410817 255.594967 
L 219.802611 243.267163 
L 220.390302 243.267163 
L 220.586199 245.932009 
L 220.782095 237.950739 
L 220.977992 243.877829 
L 221.173889 242.347378 
L 221.369786 235.256605 
L 221.76158 235.256605 
L 221.957477 240.115513 
L 222.153374 248.301885 
L 222.34927 242.370064 
L 222.545167 242.512807 
L 222.741064 238.831775 
L 223.132858 238.831775 
L 223.328755 234.886051 
L 223.524652 236.312533 
L 223.720549 229.116821 
L 223.916445 231.676728 
L 224.112342 239.4018 
L 224.504136 239.4018 
L 224.700033 238.264589 
L 224.89593 235.835146 
L 225.091827 237.727659 
L 225.679517 230.034713 
L 226.071311 229.997856 
L 226.463105 240.414223 
L 226.659002 237.341965 
L 226.854899 236.283222 
L 227.246692 236.283222 
L 227.442589 227.755584 
L 227.638486 230.683206 
L 227.834383 226.082366 
L 228.03028 228.266042 
L 228.226177 227.610002 
L 228.813867 227.610002 
L 229.205661 219.983246 
L 229.401558 220.588236 
L 229.597455 219.209966 
L 229.989248 219.209966 
L 230.185145 218.130429 
L 230.381042 215.758638 
L 230.576939 211.783604 
L 230.772836 212.778072 
L 230.968733 205.066248 
L 231.360527 205.066248 
L 231.556423 201.430589 
L 231.948217 205.424524 
L 232.144114 223.200116 
L 232.340011 219.493559 
L 232.731805 219.493559 
L 232.927702 217.103812 
L 233.123598 211.606843 
L 233.319495 212.670317 
L 233.515392 212.495426 
L 233.711289 214.159181 
L 234.103083 214.159181 
L 234.494877 210.987661 
L 234.690773 218.640888 
L 234.88667 215.480722 
L 235.082567 222.543131 
L 235.474361 222.543131 
L 235.866155 213.918122 
L 236.257948 211.108663 
L 236.845639 211.108663 
L 237.041536 206.40953 
L 237.237433 209.661388 
L 237.43333 207.334046 
L 237.629227 209.025196 
L 237.825123 205.906619 
L 238.216917 205.906619 
L 238.412814 208.72554 
L 238.804608 201.981689 
L 239.000505 203.020584 
L 239.196402 202.154688 
L 239.588195 202.154688 
L 239.784092 199.591942 
L 239.979989 199.075807 
L 240.175886 197.306189 
L 240.56768 203.01493 
L 240.959473 203.01493 
L 241.15537 200.76698 
L 241.351267 202.749292 
L 241.547164 198.968052 
L 241.743061 200.123218 
L 241.938958 197.769382 
L 242.330752 197.769382 
L 242.722545 194.423939 
L 243.114339 190.392201 
L 243.310236 190.191784 
L 243.70203 190.191784 
L 243.897926 189.32305 
L 244.093823 191.854593 
L 244.28972 187.443761 
L 244.485617 188.097931 
L 245.073308 188.152744 
L 245.465101 186.55234 
L 245.660998 187.963682 
L 246.052792 185.854712 
L 246.444586 185.854712 
L 246.640483 182.629303 
L 246.83638 181.462782 
L 247.032276 178.143811 
L 247.228173 177.593634 
L 247.42407 175.37594 
L 247.815864 175.37594 
L 248.011761 176.103825 
L 248.207658 173.613892 
L 248.403555 168.491239 
L 248.599451 180.381353 
L 248.795348 183.037684 
L 249.383039 183.037684 
L 249.578936 192.029461 
L 249.774833 185.684552 
L 249.97073 191.334672 
L 250.166626 191.166404 
L 250.55842 191.166404 
L 250.754317 187.142213 
L 250.950214 185.472803 
L 251.146111 186.957882 
L 251.537905 193.198821 
L 251.929698 193.198821 
L 252.125595 196.829749 
L 252.321492 193.567483 
L 252.517389 201.002361 
L 252.713286 200.08823 
L 252.909183 195.184919 
L 253.300976 195.184919 
L 253.496873 190.161528 
L 253.69277 191.686325 
L 254.084564 187.401227 
L 254.280461 190.462153 
L 254.672255 190.462153 
L 254.868151 184.77326 
L 255.064048 189.275784 
L 255.455842 181.159341 
L 255.651739 178.294124 
L 256.043533 178.294124 
L 256.23943 172.898286 
L 256.631223 177.204178 
L 256.82712 177.708013 
L 257.414811 177.663586 
L 257.610708 183.041468 
L 257.806604 181.510048 
L 258.002501 182.224708 
L 258.394295 179.404863 
L 258.786089 179.404863 
L 258.981986 185.494544 
L 259.177883 186.467271 
L 259.373779 197.777898 
L 259.569676 194.083618 
L 259.765573 197.879052 
L 260.157367 197.879052 
L 260.549161 188.501581 
L 260.940954 175.14529 
L 261.332748 175.240768 
L 261.528645 175.240768 
L 261.724542 171.359319 
L 261.920439 171.829135 
L 262.116336 169.26452 
L 262.312233 172.634541 
L 262.508129 168.083828 
L 262.899923 168.083828 
L 263.09582 164.136212 
L 263.291717 165.77915 
L 263.487614 169.724874 
L 263.683511 168.39387 
L 263.879408 170.693817 
L 264.271201 170.693817 
L 264.467098 168.798465 
L 264.662995 163.332699 
L 264.858892 163.877198 
L 265.054789 163.877198 
L 265.250686 163.05476 
L 265.642479 163.05476 
L 265.838376 164.635339 
L 266.034273 160.776576 
L 266.23017 160.156447 
L 266.426067 160.372927 
L 266.621964 157.310109 
L 267.013758 157.310109 
L 267.209654 157.986965 
L 267.405551 157.014238 
L 267.601448 159.796279 
L 267.993242 160.681099 
L 268.385036 160.681099 
L 268.580933 162.190757 
L 268.776829 157.735498 
L 268.972726 157.116338 
L 269.168623 155.101877 
L 269.36452 156.337404 
L 269.756314 156.337404 
L 270.148108 158.431256 
L 270.344004 158.171296 
L 270.539901 156.937662 
L 271.127592 156.937662 
L 271.323489 153.884306 
L 271.519386 154.67081 
L 271.715283 154.198155 
L 271.911179 151.926572 
L 272.49887 151.926572 
L 272.694767 157.165496 
L 273.086561 152.67622 
L 273.282457 147.415555 
L 273.478354 145.440812 
L 273.870148 145.440812 
L 274.066045 147.810688 
L 274.261942 147.661345 
L 274.457839 146.843638 
L 274.653736 148.195436 
L 274.849632 150.775191 
L 275.437323 150.775191 
L 275.63322 147.876878 
L 275.829117 142.872389 
L 276.025014 142.757064 
L 276.220911 143.853633 
L 276.612704 143.853633 
L 276.808601 142.540584 
L 277.004498 143.083191 
L 277.200395 152.427591 
L 277.396292 148.966824 
L 277.592189 155.880812 
L 277.983982 155.880812 
L 278.375776 145.286715 
L 278.571673 144.921838 
L 278.76757 140.992177 
L 278.963467 139.565696 
L 279.355261 139.565696 
L 279.551157 136.846983 
L 279.747054 137.259148 
L 279.942951 137.386775 
L 280.138848 136.772323 
L 280.334745 135.028207 
L 280.922436 135.028207 
L 281.314229 135.359066 
L 281.510126 137.000134 
L 281.706023 137.68643 
L 282.097817 137.68643 
L 282.293714 140.542209 
L 282.489611 140.081832 
L 282.685507 135.916813 
L 282.881404 145.000283 
L 283.077301 146.71982 
L 283.469095 146.71982 
L 283.664992 138.148677 
L 283.860889 141.129243 
L 284.252682 150.754397 
L 284.448579 143.809206 
L 284.840373 143.809206 
L 285.03627 145.755585 
L 285.232167 140.642417 
L 285.428064 138.433216 
L 285.623961 134.601872 
L 285.819857 134.223747 
L 286.211651 134.223747 
L 286.407548 131.803767 
L 286.603445 132.392694 
L 286.799342 131.31408 
L 286.995239 136.859284 
L 287.191135 137.082364 
L 287.582929 137.082364 
L 287.778826 134.483708 
L 288.17062 139.347347 
L 288.366517 137.420793 
L 288.562414 131.274385 
L 288.954207 131.274385 
L 289.150104 131.600512 
L 289.346001 132.785934 
L 289.541898 131.430375 
L 289.737795 126.989286 
L 290.325485 126.989286 
L 290.521382 121.502726 
L 290.717279 121.878011 
L 290.913176 121.309879 
L 291.109073 119.682058 
L 291.30497 116.692053 
L 291.89266 116.768582 
L 292.088557 115.482997 
L 292.284454 117.083378 
L 292.480351 112.757661 
L 292.676248 111.334941 
L 293.068042 111.334941 
L 293.459835 116.111619 
L 293.655732 112.474068 
L 293.851629 116.107834 
L 294.047526 111.835984 
L 294.43932 111.835984 
L 294.635217 111.131709 
L 294.831114 111.216778 
L 295.02701 111.551421 
L 295.222907 108.877135 
L 295.418804 111.741453 
L 295.810598 111.741453 
L 296.006495 110.655269 
L 296.202392 113.302137 
L 296.398289 113.025191 
L 296.790082 106.879706 
L 297.181876 106.879706 
L 297.57367 114.489452 
L 297.769567 122.90839 
L 298.16136 112.433403 
L 298.553154 112.433403 
L 298.749051 113.431656 
L 298.944948 116.783722 
L 299.140845 117.932265 
L 299.336742 113.825843 
L 299.532639 114.134038 
L 299.924432 114.134038 
L 300.120329 110.240311 
L 300.316226 111.08352 
L 300.70802 109.87825 
L 300.903917 109.572917 
L 301.491607 109.572917 
L 301.687504 109.768579 
L 301.883401 109.193823 
L 302.079298 110.637314 
L 302.275195 107.135881 
L 302.666988 107.135881 
L 302.862885 107.454462 
L 303.058782 107.384533 
L 303.254679 108.113363 
L 303.450576 106.257685 
L 303.646473 105.476881 
L 304.038267 105.476881 
L 304.234163 104.74805 
L 304.43006 105.557241 
L 304.625957 107.721023 
L 304.821854 107.894991 
L 305.017751 113.132923 
L 305.409545 113.132923 
L 305.605442 107.617999 
L 305.801338 105.571412 
L 305.997235 106.006263 
L 306.389029 102.332755 
L 306.780823 102.332755 
L 306.97672 101.395984 
L 307.172617 101.283498 
L 307.368513 100.744652 
L 307.956204 95.560587 
L 308.347998 95.560587 
L 308.543895 96.392441 
L 308.739792 95.013248 
L 308.935688 98.540206 
L 309.131585 93.933712 
L 309.523379 93.933712 
L 309.719276 92.508176 
L 309.915173 93.965837 
L 310.11107 93.484689 
L 310.306967 94.833649 
L 310.502863 97.940848 
L 310.894657 97.940848 
L 311.090554 104.432285 
L 311.482348 94.960305 
L 311.678245 94.129374 
L 311.874142 89.940699 
L 312.265935 89.940699 
L 312.461832 88.947201 
L 312.657729 90.917212 
L 312.853626 90.994711 
L 313.049523 89.244964 
L 313.24542 91.503323 
L 313.637213 91.503323 
L 313.83311 92.268987 
L 314.029007 88.86684 
L 314.224904 90.803756 
L 314.420801 88.304362 
L 314.616698 87.602949 
L 315.008491 87.602949 
L 315.204388 87.997136 
L 315.596182 87.046149 
L 315.792079 85.304895 
L 315.987976 84.627115 
L 316.37977 84.627115 
L 316.575666 83.52016 
L 316.96746 91.029699 
L 317.163357 90.506962 
L 317.359254 87.116124 
L 317.751048 87.116124 
L 317.946945 83.537193 
L 318.338738 81.962291 
L 318.534635 84.438053 
L 318.730532 80.716356 
L 319.122326 80.716356 
L 319.318223 78.880571 
L 319.51412 79.458143 
L 319.710016 79.324885 
L 319.905913 78.109183 
L 320.10181 78.252872 
L 320.689501 78.252872 
L 320.885398 79.708687 
L 321.081295 80.272088 
L 321.277191 82.237391 
L 321.473088 85.51759 
L 321.864882 85.51759 
L 322.060779 84.558109 
L 322.256676 86.985682 
L 322.452573 83.426553 
L 322.64847 84.083562 
L 322.844366 87.936623 
L 323.23616 87.936623 
L 323.432057 95.051051 
L 323.627954 95.385695 
L 324.215645 85.810645 
L 324.607438 85.810645 
L 324.803335 86.980005 
L 324.999232 95.533169 
L 325.195129 94.887515 
L 325.391026 99.795557 
L 325.586923 95.116272 
L 325.978716 95.116272 
L 326.174613 100.464844 
L 326.37051 96.186347 
L 326.566407 94.500898 
L 326.762304 91.077933 
L 326.958201 91.873877 
L 327.349995 91.873877 
L 327.545891 94.723978 
L 327.741788 95.720338 
L 327.937685 94.477265 
L 328.329479 84.308534 
L 328.721273 84.308534 
L 328.91717 82.882076 
L 329.308963 78.181051 
L 329.50486 76.896389 
L 329.700757 77.357689 
L 330.092551 77.357689 
L 330.288448 75.317703 
L 330.484344 74.532144 
L 330.680241 76.716743 
L 330.876138 72.48745 
L 331.072035 71.640456 
L 331.463829 71.640456 
L 331.659726 70.85679 
L 331.855623 69.251655 
L 332.247416 64.580863 
L 332.443313 62.929432 
L 332.835107 62.929432 
L 333.031004 62.535199 
L 333.226901 64.090253 
L 333.422798 67.733481 
L 333.618694 67.491476 
L 333.814591 64.317118 
L 334.402282 64.321872 
L 334.598179 62.610851 
L 334.794076 63.766964 
L 334.989973 62.266746 
L 335.185869 62.888767 
L 335.577663 62.888767 
L 335.77356 64.308625 
L 336.165354 62.557908 
L 336.361251 62.557908 
L 336.557148 72.657587 
L 336.948941 72.657587 
L 337.144838 66.92429 
L 337.536632 80.369434 
L 337.732529 74.313772 
L 337.928426 77.969279 
L 338.320219 77.969279 
L 338.516116 72.936472 
L 338.712013 63.948456 
L 338.90791 62.581541 
L 339.103807 65.772886 
L 339.299704 61.559655 
L 339.691498 61.559655 
L 340.083291 68.926474 
L 340.279188 61.76478 
L 340.670982 70.197888 
L 341.062776 70.197888 
L 341.258673 75.172121 
L 341.650466 63.021101 
L 341.846363 60.257962 
L 342.434054 60.257962 
L 342.629951 54.075643 
L 342.825848 54.533158 
L 343.021744 53.898859 
L 343.413538 56.439841 
L 343.805332 56.439841 
L 344.001229 53.568 
L 344.197126 53.853486 
L 344.393022 62.641085 
L 344.588919 63.069336 
L 344.784816 64.867318 
L 345.17661 64.867318 
L 345.372507 65.504433 
L 345.568404 61.460416 
L 345.764301 60.205019 
L 345.960197 66.568876 
L 346.156094 66.207738 
L 346.743785 66.207738 
L 347.135579 78.505309 
L 347.331476 83.234675 
L 347.527372 91.249963 
L 347.919166 91.249963 
L 348.115063 90.097636 
L 348.31096 95.172031 
L 348.506857 95.788375 
L 348.702754 98.00233 
L 348.898651 88.044402 
L 349.290444 88.044402 
L 349.486341 80.132184 
L 349.878135 73.152952 
L 350.074032 83.734748 
L 350.269929 81.552041 
L 350.661722 81.552041 
L 350.857619 83.126897 
L 351.053516 79.565921 
L 351.249413 73.360892 
L 351.641207 89.293153 
L 352.033001 89.293153 
L 352.228897 90.897364 
L 352.424794 84.336921 
L 352.620691 83.964475 
L 352.816588 92.921288 
L 353.012485 95.888583 
L 353.600176 95.888583 
L 353.796072 100.05838 
L 353.991969 107.550885 
L 354.57966 92.506284 
L 354.775557 92.506284 
L 354.971454 93.518707 
L 355.167351 99.916583 
L 355.363247 92.327607 
L 355.950938 97.779204 
L 356.146835 97.779204 
L 356.342732 109.858402 
L 356.538629 112.731166 
L 356.734526 102.599362 
L 356.930422 104.334938 
L 357.126319 109.553992 
L 357.518113 109.553992 
L 357.71401 112.503378 
L 358.3017 89.952054 
L 358.497597 85.088415 
L 358.889391 85.088415 
L 359.085288 85.2718 
L 359.281185 80.50463 
L 359.477082 85.738777 
L 359.672979 79.696363 
L 359.868875 77.531612 
L 360.260669 77.531612 
L 360.456566 74.463139 
L 360.652463 69.161832 
L 360.84836 71.917402 
L 361.044257 78.72742 
L 361.240154 77.266943 
L 361.631947 77.266943 
L 361.827844 73.790067 
L 362.219638 83.384041 
L 362.415535 81.582275 
L 362.611432 82.710046 
L 363.003225 82.710046 
L 363.199122 89.87077 
L 363.395019 91.296259 
L 363.590916 86.651039 
L 363.786813 91.755713 
L 364.5704 91.840782 
L 364.766297 85.174453 
L 364.962194 85.435337 
L 365.158091 91.654536 
L 365.353988 103.17601 
L 365.745782 103.17601 
L 365.941679 100.875094 
L 366.137575 112.305777 
L 366.333472 111.477707 
L 366.529369 101.689963 
L 366.725266 116.396136 
L 367.11706 116.396136 
L 367.508854 112.279328 
L 367.70475 100.492262 
L 367.900647 114.983848 
L 368.096544 117.208188 
L 368.488338 117.208188 
L 368.684235 129.695721 
L 368.880132 128.768366 
L 369.076029 134.995135 
L 369.271925 135.47723 
L 369.467822 126.609293 
L 369.859616 126.609293 
L 370.055513 128.110434 
L 370.25141 120.468539 
L 370.447307 136.082242 
L 370.643204 138.246047 
L 371.230894 138.192158 
L 371.426791 131.349068 
L 371.622688 134.399585 
L 371.818585 130.878305 
L 372.210378 113.909019 
L 372.798069 113.909019 
L 373.189863 119.298256 
L 373.38576 112.152672 
L 373.581657 118.607229 
L 373.97345 118.607229 
L 374.169347 117.388711 
L 374.365244 113.678369 
L 374.561141 117.923772 
L 374.952935 138.239423 
L 375.344728 138.239423 
L 375.540625 152.535369 
L 375.736522 153.872974 
L 375.932419 148.720087 
L 376.128316 160.368196 
L 376.324213 159.605324 
L 376.911903 159.605324 
L 377.1078 151.102264 
L 377.303697 151.56548 
L 377.499594 148.17748 
L 377.695491 137.210937 
L 378.087285 137.210937 
L 378.283182 138.310321 
L 378.479078 145.736683 
L 378.674975 145.993805 
L 378.870872 149.155886 
L 379.066769 145.379353 
L 379.65446 145.379353 
L 379.850357 144.806513 
L 380.046253 143.512366 
L 380.24215 138.073048 
L 380.438047 138.37935 
L 380.829841 138.37935 
L 381.221635 145.996643 
L 381.613428 148.68323 
L 381.809325 141.803261 
L 382.201119 141.803261 
L 382.397016 144.85754 
L 382.592913 134.852393 
L 382.78881 132.658331 
L 382.984707 128.966891 
L 383.180603 132.494795 
L 383.572397 132.494795 
L 383.768294 132.002269 
L 383.964191 136.330847 
L 384.355985 122.020754 
L 384.551882 116.551179 
L 384.943675 116.551179 
L 385.139572 117.653426 
L 385.335469 120.247351 
L 385.531366 114.199259 
L 385.727263 114.504592 
L 385.92316 115.142677 
L 386.314953 115.142677 
L 386.51085 115.62761 
L 386.706747 117.290395 
L 386.902644 108.993406 
L 387.098541 109.274184 
L 387.294438 102.384775 
L 387.686231 102.384775 
L 388.078025 100.016745 
L 388.273922 102.962346 
L 388.469819 102.045377 
L 388.665716 107.269185 
L 389.05751 107.269185 
L 389.253406 115.823272 
L 389.449303 116.698653 
L 389.6452 115.560496 
L 389.841097 110.044602 
L 390.036994 123.416979 
L 390.428788 123.416979 
L 390.624685 125.974024 
L 391.016478 133.121524 
L 391.212375 132.001322 
L 391.408272 136.027407 
L 391.995963 136.027407 
L 392.19186 137.546526 
L 392.387756 130.770527 
L 392.583653 128.283433 
L 392.77955 122.500009 
L 393.171344 122.500009 
L 393.367241 118.430445 
L 393.563138 135.230517 
L 393.759035 133.971357 
L 394.150828 140.841865 
L 394.542622 140.841865 
L 394.738519 138.331138 
L 395.32621 151.74508 
L 395.522106 157.866909 
L 395.9139 157.866909 
L 396.109797 161.477043 
L 396.305694 162.209658 
L 396.501591 155.427058 
L 396.893385 168.039378 
L 397.285178 168.039378 
L 397.676972 148.631234 
L 397.872869 149.354387 
L 398.068766 153.01841 
L 398.264663 162.930942 
L 398.656456 162.930942 
L 399.04825 167.734991 
L 399.244147 168.851408 
L 399.440044 160.071379 
L 399.635941 168.280437 
L 400.027735 168.280437 
L 400.419528 155.338205 
L 400.811322 160.461781 
L 401.007219 152.240421 
L 401.399013 152.240421 
L 401.790806 142.186093 
L 402.1826 147.08375 
L 402.378497 138.220521 
L 402.770291 138.220521 
L 403.162084 142.470632 
L 403.357981 151.584382 
L 403.553878 155.346721 
L 403.749775 150.557765 
L 404.141569 150.557765 
L 404.533363 145.116554 
L 404.729259 152.635555 
L 404.925156 132.992006 
L 405.121053 129.535969 
L 405.512847 129.535969 
L 405.708744 132.908829 
L 405.904641 129.649402 
L 406.100538 132.763248 
L 406.296434 133.91936 
L 406.492331 132.144065 
L 406.884125 132.144065 
L 407.080022 133.599857 
L 407.471816 126.290712 
L 408.255403 126.398468 
L 408.4513 132.276422 
L 408.647197 132.872919 
L 408.843094 121.294739 
L 409.430784 122.08976 
L 409.626681 122.08976 
L 410.018475 134.420379 
L 410.214372 135.114245 
L 410.410269 132.317064 
L 410.606166 135.070765 
L 410.997959 135.070765 
L 411.389753 127.010103 
L 411.58565 129.310027 
L 411.977444 142.824177 
L 412.369238 142.824177 
L 412.565134 146.104422 
L 412.761031 145.73006 
L 412.956928 140.358824 
L 413.152825 145.657292 
L 413.348722 143.536945 
L 413.936413 143.536945 
L 414.132309 145.008799 
L 414.328206 149.360064 
L 414.524103 143.11534 
L 414.72 144.039856 
L 414.72 144.039856 
" clip-path="url(#pfbfc56ff20)" style="fill: none; stroke: #1f77b4; stroke-opacity: 0.3; stroke-width: 1.5; stroke-linecap: square"/>
   </g>
   <g id="line2d_28">
    <path d="M 93.253231 247.652045 
L 99.521931 249.106282 
L 100.501415 249.091582 
L 102.264487 248.90835 
L 108.533187 248.448608 
L 110.296259 248.010502 
L 111.863434 247.515688 
L 114.0183 246.805986 
L 115.585474 246.298691 
L 118.719824 245.265889 
L 121.462381 244.812549 
L 123.225453 244.672687 
L 125.380318 244.408159 
L 126.947493 244.093316 
L 129.298256 243.385742 
L 131.649018 242.709602 
L 135.762852 241.865816 
L 138.505409 241.667047 
L 139.876687 241.658324 
L 141.639759 241.597638 
L 146.53718 241.048793 
L 148.496149 240.944783 
L 152.21819 239.641291 
L 154.568952 238.631563 
L 155.94023 237.958924 
L 157.311509 237.142795 
L 158.682787 236.362137 
L 159.858168 235.727772 
L 162.013033 234.155222 
L 163.188415 232.927334 
L 164.363796 231.725679 
L 168.281733 228.113001 
L 170.828393 226.018577 
L 172.199671 224.960154 
L 175.334021 222.501936 
L 176.117608 222.240176 
L 177.097093 221.945283 
L 178.076577 221.702346 
L 178.468371 221.68971 
L 179.056061 221.829357 
L 179.447855 221.971234 
L 180.035546 222.269864 
L 181.210927 222.994717 
L 182.190411 223.316609 
L 183.169896 223.788143 
L 183.757586 224.013337 
L 185.912452 224.285568 
L 186.891936 224.427382 
L 189.830389 224.663774 
L 193.356533 224.339945 
L 194.923708 223.749439 
L 197.274471 222.96679 
L 198.645749 222.649474 
L 199.82113 222.466218 
L 201.975996 222.039964 
L 204.326758 221.371935 
L 207.461108 220.146534 
L 209.22418 219.067186 
L 211.574942 217.433242 
L 213.729808 215.903101 
L 219.606714 213.047493 
L 222.545167 211.124942 
L 223.720549 210.528075 
L 225.679517 209.730604 
L 227.442589 208.647916 
L 232.340011 205.360876 
L 242.918442 198.311967 
L 246.83638 195.420551 
L 249.578936 192.371271 
L 250.166626 191.418906 
L 251.146111 189.672265 
L 255.651739 180.868338 
L 263.291717 167.554587 
L 267.013758 161.852036 
L 268.580933 159.531414 
L 277.788086 145.360938 
L 281.706023 139.734139 
L 287.387032 131.713517 
L 290.521382 127.284881 
L 293.851629 123.021748 
L 295.418804 120.611337 
L 297.377773 117.34328 
L 300.903917 112.220585 
L 307.956204 103.130195 
L 309.915173 100.695146 
L 311.482348 98.916365 
L 312.853626 97.916991 
L 313.637213 97.229264 
L 314.812595 96.134564 
L 316.575666 94.833517 
L 317.946945 93.98171 
L 319.710016 92.862501 
L 320.885398 92.14082 
L 321.864882 91.739372 
L 322.64847 91.388188 
L 327.349995 88.098374 
L 329.700757 87.334551 
L 331.072035 87.254583 
L 333.422798 87.505574 
L 335.381766 87.944061 
L 336.557148 88.224383 
L 338.90791 88.471583 
L 339.691498 88.79097 
L 342.434054 90.48429 
L 343.413538 91.087566 
L 346.743785 93.307416 
L 347.919166 93.916266 
L 349.094547 94.487619 
L 352.620691 95.618526 
L 353.404279 95.805057 
L 354.57966 96.364748 
L 355.559144 97.037607 
L 357.126319 98.215336 
L 358.3017 98.925754 
L 360.456566 100.748322 
L 361.827844 102.067035 
L 362.611432 102.701843 
L 364.962194 105.172166 
L 366.333472 106.583879 
L 368.292441 108.652549 
L 369.467822 109.940931 
L 373.38576 113.389166 
L 374.561141 114.264987 
L 377.695491 117.444824 
L 379.066769 119.12592 
L 379.066769 119.12592 
" clip-path="url(#pfbfc56ff20)" style="fill: none; stroke-dasharray: 5.55,2.4; stroke-dashoffset: 0; stroke: #ff7f0e; stroke-width: 1.5"/>
   </g>
   <g id="line2d_29">
    <path d="M 93.253231 247.618428 
L 94.428612 247.618428 
L 94.624509 247.911483 
L 95.016303 248.074074 
L 95.995787 248.329303 
L 96.191684 248.329303 
L 96.387581 248.48527 
L 96.779375 248.48527 
L 97.171168 248.637475 
L 97.562962 248.712158 
L 98.150653 248.808582 
L 98.93424 249.099721 
L 99.913725 249.224509 
L 100.305518 249.137548 
L 103.048075 249.076089 
L 103.243971 248.909736 
L 104.61525 248.769809 
L 105.20294 248.48527 
L 105.594734 248.48527 
L 105.790631 248.329303 
L 108.533187 248.297154 
L 108.924981 248.184668 
L 109.120878 248.136456 
L 109.316775 247.941716 
L 109.512671 247.911483 
L 109.708568 247.686487 
L 110.296259 247.618428 
L 111.667537 246.956711 
L 112.059331 246.570094 
L 112.842918 246.475563 
L 113.038815 246.103093 
L 114.0183 246.070021 
L 114.214196 245.84124 
L 114.410093 245.412089 
L 115.585474 245.35063 
L 117.348546 244.611391 
L 117.936237 244.608575 
L 118.132134 244.287156 
L 119.307515 244.21815 
L 119.699309 244.099986 
L 120.091103 244.006402 
L 121.266484 243.658534 
L 121.462381 243.547917 
L 121.658278 243.283249 
L 122.441865 243.106464 
L 124.00904 242.997763 
L 124.596731 242.881492 
L 124.988524 242.466488 
L 125.380318 242.453263 
L 125.576215 242.23773 
L 127.14339 242.131844 
L 128.122874 241.956029 
L 128.514668 241.8804 
L 131.844915 240.525763 
L 132.236709 240.525763 
L 132.824399 240.202475 
L 133.999781 240.014359 
L 134.195677 239.84136 
L 137.330027 239.832867 
L 137.525924 239.225962 
L 148.496149 239.190997 
L 148.692046 239.052986 
L 149.279737 239.052039 
L 149.475634 238.501863 
L 149.67153 238.466875 
L 150.063324 238.075527 
L 150.259221 237.851477 
L 150.846912 237.805158 
L 151.630499 236.677409 
L 152.022293 236.677409 
L 152.414087 235.95331 
L 152.609984 235.948579 
L 153.393571 235.371931 
L 153.785365 235.366276 
L 154.177159 234.912523 
L 154.960746 234.757479 
L 155.156643 234.610028 
L 155.744334 234.575041 
L 156.919715 234.082538 
L 157.703302 233.991792 
L 158.878683 233.828255 
L 159.270477 233.538038 
L 159.858168 233.507782 
L 160.054065 233.251606 
L 160.249962 232.809208 
L 160.445858 232.80353 
L 160.641755 232.376248 
L 161.425343 232.324252 
L 162.20893 232.151276 
L 162.600724 232.098333 
L 163.384312 231.195557 
L 164.363796 231.01785 
L 164.559693 230.68226 
L 165.34328 230.528162 
L 167.106352 230.275772 
L 167.302249 229.822019 
L 167.88994 229.782323 
L 168.085837 229.667944 
L 168.281733 229.280358 
L 169.653012 229.046869 
L 169.848908 228.904126 
L 170.240702 228.904126 
L 171.02429 228.537357 
L 171.416083 228.519378 
L 171.61198 228.081711 
L 172.003774 228.081711 
L 172.199671 227.935183 
L 172.591465 227.935183 
L 172.983258 227.730058 
L 173.179155 227.010667 
L 173.570949 227.010667 
L 173.962743 226.598525 
L 174.15864 226.555967 
L 174.354536 226.209046 
L 174.74633 226.209046 
L 175.138124 225.672116 
L 176.705299 225.597433 
L 177.29299 225.41121 
L 194.140121 225.324249 
L 194.336018 225.25335 
L 194.531914 224.871441 
L 195.511399 224.703173 
L 195.707296 224.373261 
L 196.099089 224.305202 
L 196.294986 224.305202 
L 196.68678 224.175683 
L 197.470368 224.053734 
L 197.862161 223.807021 
L 198.449852 223.777711 
L 198.645749 223.592434 
L 198.841646 223.591488 
L 199.233439 223.310733 
L 199.82113 223.051719 
L 200.604717 222.859819 
L 200.996511 222.762449 
L 201.780099 222.700067 
L 201.975996 222.543131 
L 203.347274 222.493973 
L 203.543171 222.425913 
L 203.739067 222.152729 
L 203.934964 221.549609 
L 204.522655 221.266962 
L 204.718552 221.266962 
L 205.110346 221.135574 
L 205.502139 221.135574 
L 205.893933 219.983246 
L 206.481624 219.672236 
L 206.677521 219.493559 
L 207.069314 219.493559 
L 207.265211 219.209966 
L 207.657005 219.209966 
L 208.440592 218.130429 
L 208.636489 217.103812 
L 209.22418 217.073579 
L 209.420077 216.344726 
L 211.183149 214.599687 
L 211.966736 214.508941 
L 212.35853 214.159181 
L 212.750324 214.159181 
L 213.142117 213.610896 
L 213.338014 213.145811 
L 213.533911 212.972812 
L 213.925705 212.972812 
L 214.317499 212.739323 
L 215.688777 212.257206 
L 215.884674 212.03791 
L 216.668261 211.863019 
L 217.060055 211.606843 
L 217.451849 211.108663 
L 218.235436 211.098254 
L 219.019024 210.546208 
L 219.21492 210.115141 
L 219.998508 210.010225 
L 220.194405 209.661388 
L 220.782095 209.605629 
L 220.977992 209.025196 
L 221.173889 208.875853 
L 221.369786 208.875853 
L 221.565683 208.72554 
L 221.76158 207.463542 
L 222.545167 207.334046 
L 222.936961 205.906619 
L 223.328755 205.906619 
L 223.524652 205.424524 
L 224.504136 205.066248 
L 224.700033 205.066248 
L 224.89593 204.726873 
L 225.091827 203.984796 
L 225.287724 203.813712 
L 225.48362 203.020584 
L 226.071311 203.01493 
L 226.463105 202.486493 
L 227.050795 202.479869 
L 227.246692 202.282314 
L 227.638486 202.222748 
L 228.03028 202.154688 
L 229.009764 202.045041 
L 229.205661 201.981689 
L 229.401558 201.582771 
L 229.597455 201.582771 
L 230.185145 201.198023 
L 230.576939 201.121471 
L 231.360527 200.719714 
L 231.948217 200.709305 
L 232.340011 200.123218 
L 232.731805 200.08823 
L 233.711289 199.02381 
L 233.907186 198.968052 
L 234.103083 198.314828 
L 234.494877 198.314828 
L 234.690773 197.879052 
L 235.866155 197.769382 
L 236.257948 197.430976 
L 236.649742 197.285395 
L 237.041536 196.632194 
L 237.237433 196.583982 
L 237.43333 196.161431 
L 237.629227 196.051761 
L 237.825123 195.548849 
L 238.216917 195.467565 
L 238.412814 195.467565 
L 238.804608 195.184919 
L 240.763577 195.184919 
L 241.15537 194.083618 
L 241.351267 194.071341 
L 241.743061 193.198821 
L 242.134855 193.198821 
L 242.330752 192.419887 
L 243.310236 192.414209 
L 243.70203 191.854593 
L 243.897926 191.686325 
L 246.640483 191.686325 
L 247.032276 191.166404 
L 247.42407 191.166404 
L 247.619967 190.462153 
L 248.207658 190.392201 
L 248.403555 190.191784 
L 248.991245 190.161528 
L 249.383039 189.32305 
L 249.578936 189.275784 
L 249.774833 189.083883 
L 250.166626 188.152744 
L 250.754317 188.097931 
L 250.950214 187.963682 
L 251.146111 187.443761 
L 251.537905 187.28874 
L 252.125595 186.955989 
L 252.321492 186.55234 
L 252.517389 186.467271 
L 252.713286 185.854712 
L 253.10508 185.854712 
L 253.69277 185.472803 
L 254.476358 183.037684 
L 255.064048 183.037684 
L 255.455842 182.224708 
L 255.651739 181.510048 
L 256.043533 181.462782 
L 256.23943 181.159341 
L 256.435326 180.529773 
L 256.631223 180.381353 
L 256.82712 179.404863 
L 257.218914 179.404863 
L 257.414811 178.294124 
L 257.806604 178.294124 
L 258.002501 178.143811 
L 258.198398 177.708013 
L 258.981986 177.593634 
L 259.177883 177.204178 
L 259.569676 175.37594 
L 259.96147 175.37594 
L 260.157367 175.240768 
L 260.745058 175.14529 
L 260.940954 175.005386 
L 261.332748 172.898286 
L 261.528645 172.634541 
L 261.920439 171.359319 
L 262.116336 170.693817 
L 262.508129 170.693817 
L 262.899923 169.26452 
L 263.291717 168.491239 
L 263.487614 168.39387 
L 263.683511 168.083828 
L 264.075304 168.083828 
L 264.467098 164.635339 
L 264.858892 163.877198 
L 265.054789 163.877198 
L 265.446583 163.05476 
L 265.838376 163.05476 
L 266.034273 162.190757 
L 266.23017 160.776576 
L 266.621964 160.681099 
L 266.817861 160.681099 
L 267.209654 160.242462 
L 267.405551 160.156447 
L 267.601448 159.796279 
L 267.797345 158.431256 
L 268.385036 157.735498 
L 268.580933 157.707157 
L 268.776829 157.310109 
L 269.168623 157.310109 
L 269.756314 157.014238 
L 270.148108 156.937662 
L 270.539901 156.937662 
L 270.735798 156.337404 
L 271.127592 156.337404 
L 271.323489 155.880812 
L 271.715283 155.880812 
L 272.107076 154.687819 
L 272.302973 154.67081 
L 272.694767 153.884306 
L 272.890664 152.67622 
L 273.086561 152.427591 
L 273.282457 151.926572 
L 273.870148 151.926572 
L 274.066045 150.775191 
L 274.849632 150.754397 
L 275.045529 150.244862 
L 275.437323 148.195436 
L 275.63322 147.876878 
L 276.025014 147.661345 
L 276.220911 147.415555 
L 276.416807 146.843638 
L 276.808601 146.71982 
L 277.004498 146.71982 
L 277.200395 145.909682 
L 277.396292 145.755585 
L 277.592189 145.440812 
L 277.983982 145.440812 
L 278.571673 144.921838 
L 278.76757 143.853633 
L 279.747054 143.809206 
L 279.942951 143.083191 
L 280.530642 142.540584 
L 280.726539 141.129243 
L 280.922436 140.992177 
L 281.118332 140.642417 
L 281.314229 140.542209 
L 281.706023 139.565696 
L 282.097817 139.565696 
L 282.293714 139.347347 
L 282.489611 138.433216 
L 283.077301 137.68643 
L 283.273198 137.68643 
L 283.469095 137.420793 
L 284.056786 137.259148 
L 284.252682 137.082364 
L 284.840373 137.000134 
L 285.232167 136.846983 
L 285.428064 136.772323 
L 285.819857 135.359066 
L 286.407548 135.028207 
L 286.799342 135.028207 
L 286.995239 134.601872 
L 287.191135 134.483708 
L 287.387032 134.223747 
L 287.778826 134.223747 
L 287.974723 132.785934 
L 288.75831 131.430375 
L 289.150104 131.274385 
L 289.541898 131.274385 
L 289.737795 126.989286 
L 290.325485 126.989286 
L 290.521382 122.90839 
L 290.717279 121.878011 
L 291.109073 121.309879 
L 291.500867 118.23289 
L 291.696764 117.932265 
L 291.89266 117.083378 
L 292.088557 116.783722 
L 292.872145 116.692053 
L 293.068042 116.111619 
L 293.263939 116.107834 
L 293.851629 114.134038 
L 294.243423 114.134038 
L 294.635217 113.434518 
L 294.831114 113.431656 
L 295.418804 113.132923 
L 295.810598 113.025191 
L 296.202392 112.474068 
L 296.790082 112.433403 
L 296.985979 111.835984 
L 297.965464 111.741453 
L 298.357257 111.334941 
L 298.749051 111.334941 
L 299.336742 111.08352 
L 299.532639 111.055133 
L 299.728535 110.655269 
L 299.924432 110.637314 
L 300.512123 109.87825 
L 301.687504 109.572917 
L 302.079298 108.877135 
L 302.275195 108.113363 
L 302.862885 107.617999 
L 303.450576 107.135881 
L 303.84237 107.135881 
L 304.038267 106.879706 
L 304.43006 106.879706 
L 304.625957 106.257685 
L 304.821854 106.006263 
L 305.017751 105.571412 
L 305.801338 105.476881 
L 306.584926 102.332755 
L 306.97672 102.332755 
L 307.172617 101.395984 
L 307.368513 101.283498 
L 307.956204 99.795557 
L 308.152101 98.623382 
L 308.347998 98.540206 
L 308.543895 98.328434 
L 308.739792 97.940848 
L 309.131585 97.940848 
L 309.327482 96.392441 
L 309.523379 96.186347 
L 309.719276 95.720338 
L 309.915173 95.560587 
L 310.69876 95.533169 
L 311.286451 95.116272 
L 311.874142 95.013248 
L 312.853626 94.833649 
L 313.24542 94.723978 
L 313.441317 94.500898 
L 313.637213 94.477265 
L 314.029007 93.965837 
L 314.616698 93.933712 
L 314.812595 93.484689 
L 315.008491 92.508176 
L 315.596182 91.873877 
L 315.792079 91.873877 
L 315.987976 91.503323 
L 316.575666 91.467366 
L 316.771563 91.249963 
L 322.64847 91.249963 
L 323.040263 91.029699 
L 323.823851 90.803756 
L 324.411541 89.952054 
L 324.999232 89.940699 
L 325.195129 89.293153 
L 325.78282 89.244964 
L 325.978716 88.947201 
L 326.174613 88.86684 
L 326.566407 88.044402 
L 329.113066 87.936623 
L 329.308963 87.602949 
L 350.269929 87.602949 
L 350.465826 87.936623 
L 351.641207 88.044402 
L 351.837104 89.293153 
L 352.228897 89.293153 
L 352.424794 89.87077 
L 352.816588 89.952054 
L 353.012485 89.952054 
L 353.208382 90.097636 
L 353.404279 90.897364 
L 353.796072 91.249963 
L 354.383763 91.296259 
L 354.971454 91.755713 
L 355.755041 91.840782 
L 356.342732 91.873877 
L 356.734526 92.506284 
L 357.126319 92.506284 
L 357.518113 93.518707 
L 357.71401 94.477265 
L 358.105804 94.506529 
L 358.693494 95.038774 
L 359.868875 95.172031 
L 360.260669 95.720338 
L 361.044257 95.888583 
L 361.43605 95.888583 
L 361.631947 96.186347 
L 361.827844 97.779204 
L 362.415535 97.779204 
L 362.611432 98.00233 
L 362.807329 99.916583 
L 363.199122 100.05838 
L 363.590916 100.778671 
L 363.786813 100.875094 
L 363.98271 101.576507 
L 364.178607 101.689963 
L 364.5704 102.384775 
L 364.962194 102.384775 
L 365.745782 103.17601 
L 365.941679 103.17601 
L 366.137575 104.057946 
L 366.333472 104.334938 
L 366.529369 107.269185 
L 366.921163 107.269185 
L 367.11706 107.550885 
L 367.312957 108.993406 
L 367.70475 109.553992 
L 368.096544 109.553992 
L 368.488338 110.044602 
L 368.880132 112.152672 
L 369.663719 112.731166 
L 369.859616 113.678369 
L 370.055513 113.909019 
L 370.643204 113.909019 
L 370.8391 114.179411 
L 371.034997 114.199259 
L 371.622688 115.142677 
L 372.014482 115.142677 
L 372.210378 115.560496 
L 372.406275 115.62761 
L 372.602172 115.823272 
L 372.798069 116.375365 
L 373.97345 116.551179 
L 374.169347 116.698653 
L 374.365244 117.208188 
L 374.952935 117.290395 
L 375.148832 117.388711 
L 375.540625 117.923772 
L 375.736522 118.430445 
L 375.932419 118.607229 
L 376.324213 118.607229 
L 377.1078 121.294739 
L 377.695491 122.08976 
L 378.087285 122.08976 
L 378.283182 122.500009 
L 378.674975 122.500009 
L 378.870872 123.399947 
L 379.066769 123.416979 
L 379.066769 123.416979 
" clip-path="url(#pfbfc56ff20)" style="fill: none; stroke-dasharray: 1.5,2.475; stroke-dashoffset: 0; stroke: #2ca02c; stroke-width: 1.5"/>
   </g>
   <g id="patch_3">
    <path d="M 57.6 307.584 
L 57.6 41.472 
" style="fill: none; stroke: #000000; stroke-width: 0.8; stroke-linejoin: miter; stroke-linecap: square"/>
   </g>
   <g id="patch_4">
    <path d="M 414.72 307.584 
L 414.72 41.472 
" style="fill: none; stroke: #000000; stroke-width: 0.8; stroke-linejoin: miter; stroke-linecap: square"/>
   </g>
   <g id="patch_5">
    <path d="M 57.6 307.584 
L 414.72 307.584 
" style="fill: none; stroke: #000000; stroke-width: 0.8; stroke-linejoin: miter; stroke-linecap: square"/>
   </g>
   <g id="patch_6">
    <path d="M 57.6 41.472 
L 414.72 41.472 
" style="fill: none; stroke: #000000; stroke-width: 0.8; stroke-linejoin: miter; stroke-linecap: square"/>
   </g>
   <g id="legend_1">
    <g id="patch_7">
     <path d="M 64.6 93.506375 
L 215.820312 93.506375 
Q 217.820312 93.506375 217.820312 91.506375 
L 217.820312 48.472 
Q 217.820312 46.472 215.820312 46.472 
L 64.6 46.472 
Q 62.6 46.472 62.6 48.472 
L 62.6 91.506375 
Q 62.6 93.506375 64.6 93.506375 
z
" style="fill: #ffffff; opacity: 0.8; stroke: #cccccc; stroke-linejoin: miter"/>
    </g>
    <g id="line2d_30">
     <path d="M 66.6 54.570438 
L 76.6 54.570438 
L 86.6 54.570438 
" style="fill: none; stroke: #1f77b4; stroke-width: 1.5; stroke-linecap: square"/>
    </g>
    <g id="text_11">
     <!-- input -->
     <g transform="translate(94.6 58.070438) scale(0.1 -0.1)">
      <defs>
       <path id="DejaVuSans-69" d="M 603 3500 
L 1178 3500 
L 1178 0 
L 603 0 
L 603 3500 
z
M 603 4863 
L 1178 4863 
L 1178 4134 
L 603 4134 
L 603 4863 
z
" transform="scale(0.015625)"/>
       <path id="DejaVuSans-6e" d="M 3513 2113 
L 3513 0 
L 2938 0 
L 2938 2094 
Q 2938 2591 2744 2837 
Q 2550 3084 2163 3084 
Q 1697 3084 1428 2787 
Q 1159 2491 1159 1978 
L 1159 0 
L 581 0 
L 581 3500 
L 1159 3500 
L 1159 2956 
Q 1366 3272 1645 3428 
Q 1925 3584 2291 3584 
Q 2894 3584 3203 3211 
Q 3513 2838 3513 2113 
z
" transform="scale(0.015625)"/>
       <path id="DejaVuSans-70" d="M 1159 525 
L 1159 -1331 
L 581 -1331 
L 581 3500 
L 1159 3500 
L 1159 2969 
Q 1341 3281 1617 3432 
Q 1894 3584 2278 3584 
Q 2916 3584 3314 3078 
Q 3713 2572 3713 1747 
Q 3713 922 3314 415 
Q 2916 -91 2278 -91 
Q 1894 -91 1617 61 
Q 1341 213 1159 525 
z
M 3116 1747 
Q 3116 2381 2855 2742 
Q 2594 3103 2138 3103 
Q 1681 3103 1420 2742 
Q 1159 2381 1159 1747 
Q 1159 1113 1420 752 
Q 1681 391 2138 391 
Q 2594 391 2855 752 
Q 3116 1113 3116 1747 
z
" transform="scale(0.015625)"/>
       <path id="DejaVuSans-75" d="M 544 1381 
L 544 3500 
L 1119 3500 
L 1119 1403 
Q 1119 906 1312 657 
Q 1506 409 1894 409 
Q 2359 409 2629 706 
Q 2900 1003 2900 1516 
L 2900 3500 
L 3475 3500 
L 3475 0 
L 2900 0 
L 2900 538 
Q 2691 219 2414 64 
Q 2138 -91 1772 -91 
Q 1169 -91 856 284 
Q 544 659 544 1381 
z
M 1991 3584 
L 1991 3584 
z
" transform="scale(0.015625)"/>
      </defs>
      <use xlink:href="#DejaVuSans-69"/>
      <use xlink:href="#DejaVuSans-6e" x="27.783203"/>
      <use xlink:href="#DejaVuSans-70" x="91.162109"/>
      <use xlink:href="#DejaVuSans-75" x="154.638672"/>
      <use xlink:href="#DejaVuSans-74" x="218.017578"/>
     </g>
    </g>
    <g id="line2d_31">
     <path d="M 66.6 69.248563 
L 76.6 69.248563 
L 86.6 69.248563 
" style="fill: none; stroke-dasharray: 5.55,2.4; stroke-dashoffset: 0; stroke: #ff7f0e; stroke-width: 1.5"/>
    </g>
    <g id="text_12">
     <!-- one-year rolling mean -->
     <g transform="translate(94.6 72.748563) scale(0.1 -0.1)">
      <defs>
       <path id="DejaVuSans-6f" d="M 1959 3097 
Q 1497 3097 1228 2736 
Q 959 2375 959 1747 
Q 959 1119 1226 758 
Q 1494 397 1959 397 
Q 2419 397 2687 759 
Q 2956 1122 2956 1747 
Q 2956 2369 2687 2733 
Q 2419 3097 1959 3097 
z
M 1959 3584 
Q 2709 3584 3137 3096 
Q 3566 2609 3566 1747 
Q 3566 888 3137 398 
Q 2709 -91 1959 -91 
Q 1206 -91 779 398 
Q 353 888 353 1747 
Q 353 2609 779 3096 
Q 1206 3584 1959 3584 
z
" transform="scale(0.015625)"/>
       <path id="DejaVuSans-2d" d="M 313 2009 
L 1997 2009 
L 1997 1497 
L 313 1497 
L 313 2009 
z
" transform="scale(0.015625)"/>
       <path id="DejaVuSans-79" d="M 2059 -325 
Q 1816 -950 1584 -1140 
Q 1353 -1331 966 -1331 
L 506 -1331 
L 506 -850 
L 844 -850 
Q 1081 -850 1212 -737 
Q 1344 -625 1503 -206 
L 1606 56 
L 191 3500 
L 800 3500 
L 1894 763 
L 2988 3500 
L 3597 3500 
L 2059 -325 
z
" transform="scale(0.015625)"/>
       <path id="DejaVuSans-72" d="M 2631 2963 
Q 2534 3019 2420 3045 
Q 2306 3072 2169 3072 
Q 1681 3072 1420 2755 
Q 1159 2438 1159 1844 
L 1159 0 
L 581 0 
L 581 3500 
L 1159 3500 
L 1159 2956 
Q 1341 3275 1631 3429 
Q 1922 3584 2338 3584 
Q 2397 3584 2469 3576 
Q 2541 3569 2628 3553 
L 2631 2963 
z
" transform="scale(0.015625)"/>
       <path id="DejaVuSans-20" transform="scale(0.015625)"/>
       <path id="DejaVuSans-6c" d="M 603 4863 
L 1178 4863 
L 1178 0 
L 603 0 
L 603 4863 
z
" transform="scale(0.015625)"/>
       <path id="DejaVuSans-67" d="M 2906 1791 
Q 2906 2416 2648 2759 
Q 2391 3103 1925 3103 
Q 1463 3103 1205 2759 
Q 947 2416 947 1791 
Q 947 1169 1205 825 
Q 1463 481 1925 481 
Q 2391 481 2648 825 
Q 2906 1169 2906 1791 
z
M 3481 434 
Q 3481 -459 3084 -895 
Q 2688 -1331 1869 -1331 
Q 1566 -1331 1297 -1286 
Q 1028 -1241 775 -1147 
L 775 -588 
Q 1028 -725 1275 -790 
Q 1522 -856 1778 -856 
Q 2344 -856 2625 -561 
Q 2906 -266 2906 331 
L 2906 616 
Q 2728 306 2450 153 
Q 2172 0 1784 0 
Q 1141 0 747 490 
Q 353 981 353 1791 
Q 353 2603 747 3093 
Q 1141 3584 1784 3584 
Q 2172 3584 2450 3431 
Q 2728 3278 2906 2969 
L 2906 3500 
L 3481 3500 
L 3481 434 
z
" transform="scale(0.015625)"/>
       <path id="DejaVuSans-6d" d="M 3328 2828 
Q 3544 3216 3844 3400 
Q 4144 3584 4550 3584 
Q 5097 3584 5394 3201 
Q 5691 2819 5691 2113 
L 5691 0 
L 5113 0 
L 5113 2094 
Q 5113 2597 4934 2840 
Q 4756 3084 4391 3084 
Q 3944 3084 3684 2787 
Q 3425 2491 3425 1978 
L 3425 0 
L 2847 0 
L 2847 2094 
Q 2847 2600 2669 2842 
Q 2491 3084 2119 3084 
Q 1678 3084 1418 2786 
Q 1159 2488 1159 1978 
L 1159 0 
L 581 0 
L 581 3500 
L 1159 3500 
L 1159 2956 
Q 1356 3278 1631 3431 
Q 1906 3584 2284 3584 
Q 2666 3584 2933 3390 
Q 3200 3197 3328 2828 
z
" transform="scale(0.015625)"/>
      </defs>
      <use xlink:href="#DejaVuSans-6f"/>
      <use xlink:href="#DejaVuSans-6e" x="61.181641"/>
      <use xlink:href="#DejaVuSans-65" x="124.560547"/>
      <use xlink:href="#DejaVuSans-2d" x="186.083984"/>
      <use xlink:href="#DejaVuSans-79" x="220.417969"/>
      <use xlink:href="#DejaVuSans-65" x="279.597656"/>
      <use xlink:href="#DejaVuSans-61" x="341.121094"/>
      <use xlink:href="#DejaVuSans-72" x="402.400391"/>
      <use xlink:href="#DejaVuSans-20" x="443.513672"/>
      <use xlink:href="#DejaVuSans-72" x="475.300781"/>
      <use xlink:href="#DejaVuSans-6f" x="514.164062"/>
      <use xlink:href="#DejaVuSans-6c" x="575.345703"/>
      <use xlink:href="#DejaVuSans-6c" x="603.128906"/>
      <use xlink:href="#DejaVuSans-69" x="630.912109"/>
      <use xlink:href="#DejaVuSans-6e" x="658.695312"/>
      <use xlink:href="#DejaVuSans-67" x="722.074219"/>
      <use xlink:href="#DejaVuSans-20" x="785.550781"/>
      <use xlink:href="#DejaVuSans-6d" x="817.337891"/>
      <use xlink:href="#DejaVuSans-65" x="914.75"/>
      <use xlink:href="#DejaVuSans-61" x="976.273438"/>
      <use xlink:href="#DejaVuSans-6e" x="1037.552734"/>
     </g>
    </g>
    <g id="line2d_32">
     <path d="M 66.6 83.926688 
L 76.6 83.926688 
L 86.6 83.926688 
" style="fill: none; stroke-dasharray: 1.5,2.475; stroke-dashoffset: 0; stroke: #2ca02c; stroke-width: 1.5"/>
    </g>
    <g id="text_13">
     <!-- one-year rolling median -->
     <g transform="translate(94.6 87.426688) scale(0.1 -0.1)">
      <defs>
       <path id="DejaVuSans-64" d="M 2906 2969 
L 2906 4863 
L 3481 4863 
L 3481 0 
L 2906 0 
L 2906 525 
Q 2725 213 2448 61 
Q 2172 -91 1784 -91 
Q 1150 -91 751 415 
Q 353 922 353 1747 
Q 353 2572 751 3078 
Q 1150 3584 1784 3584 
Q 2172 3584 2448 3432 
Q 2725 3281 2906 2969 
z
M 947 1747 
Q 947 1113 1208 752 
Q 1469 391 1925 391 
Q 2381 391 2643 752 
Q 2906 1113 2906 1747 
Q 2906 2381 2643 2742 
Q 2381 3103 1925 3103 
Q 1469 3103 1208 2742 
Q 947 2381 947 1747 
z
" transform="scale(0.015625)"/>
      </defs>
      <use xlink:href="#DejaVuSans-6f"/>
      <use xlink:href="#DejaVuSans-6e" x="61.181641"/>
      <use xlink:href="#DejaVuSans-65" x="124.560547"/>
      <use xlink:href="#DejaVuSans-2d" x="186.083984"/>
      <use xlink:href="#DejaVuSans-79" x="220.417969"/>
      <use xlink:href="#DejaVuSans-65" x="279.597656"/>
      <use xlink:href="#DejaVuSans-61" x="341.121094"/>
      <use xlink:href="#DejaVuSans-72" x="402.400391"/>
      <use xlink:href="#DejaVuSans-20" x="443.513672"/>
      <use xlink:href="#DejaVuSans-72" x="475.300781"/>
      <use xlink:href="#DejaVuSans-6f" x="514.164062"/>
      <use xlink:href="#DejaVuSans-6c" x="575.345703"/>
      <use xlink:href="#DejaVuSans-6c" x="603.128906"/>
      <use xlink:href="#DejaVuSans-69" x="630.912109"/>
      <use xlink:href="#DejaVuSans-6e" x="658.695312"/>
      <use xlink:href="#DejaVuSans-67" x="722.074219"/>
      <use xlink:href="#DejaVuSans-20" x="785.550781"/>
      <use xlink:href="#DejaVuSans-6d" x="817.337891"/>
      <use xlink:href="#DejaVuSans-65" x="914.75"/>
      <use xlink:href="#DejaVuSans-64" x="976.273438"/>
      <use xlink:href="#DejaVuSans-69" x="1039.75"/>
      <use xlink:href="#DejaVuSans-61" x="1067.533203"/>
      <use xlink:href="#DejaVuSans-6e" x="1128.8125"/>
     </g>
    </g>
   </g>
  </g>
 </g>
 <defs>
  <clipPath id="pfbfc56ff20">
   <rect x="57.6" y="41.472" width="357.12" height="266.112"/>
  </clipPath>
 </defs>
</svg>
